<?xml version="1.0" standalone="no"?>
<!DOCTYPE svg PUBLIC "-//W3C//DTD SVG 1.1//EN" "http://www.w3.org/Graphics/SVG/1.1/DTD/svg11.dtd" >
<svg>
<metadata>
Created by FontForge 20090622 at Mon Oct 26 05:37:51 2015
 By deploy user
Copyright (c) 1992-97 Hewlett-Packard. All rights reserved.
</metadata>
<defs>
<font id="GillSansLight-Regular" horiz-adv-x="0" >
  <font-face 
    font-family="Gill Sans Light"
    font-weight="400"
    font-stretch="normal"
    units-per-em="2048"
    panose-1="2 11 4 2 2 2 4 2 2 4"
    ascent="1638"
    descent="-410"
    x-height="920"
    cap-height="1397"
    bbox="-738 -525 2115 1866"
    underline-thickness="50"
    underline-position="-75"
    unicode-range="U+0020-U+FB01"
  />
<missing-glyph horiz-adv-x="669" 
d="M0 1274h569v-1274h-569v1274zM100 1174v-1074h369v1074h-369z" />
    <glyph glyph-name=".notdef" horiz-adv-x="669" 
d="M0 1274h569v-1274h-569v1274zM100 1174v-1074h369v1074h-369z" />
    <glyph glyph-name="glyph1" 
 />
    <glyph glyph-name="space" unicode=" " horiz-adv-x="569" 
 />
    <glyph glyph-name="exclam" unicode="!" horiz-adv-x="362" 
d="M150 405l-34 1009h133l-33 -1009h-66zM115 196h134v-196h-134v196z" />
    <glyph glyph-name="quotedbl" unicode="&#x22;" horiz-adv-x="569" 
d="M97 927l-21 235v235h135v-235l-20 -235h-94zM380 927l-21 235v235h135v-235l-20 -235h-94z" />
    <glyph glyph-name="numbersign" unicode="#" horiz-adv-x="1352" 
d="M621 1397l-82 -396h401l82 396h95l-82 -396h159v-93h-178l-78 -378h256v-93h-275l-94 -454h-95l94 454h-403l-92 -454h-95l94 454h-170v93h189l78 378h-267v93h286l82 396h95zM519 908l-77 -378h402l77 378h-402z" />
    <glyph glyph-name="dollar" unicode="$" horiz-adv-x="1067" 
d="M579 1492v-136q87 -9 157 -31q99 -32 191 -105v-109q-108 79 -208 114q-66 24 -140 32v-526q205 -55 305 -144q107 -95 107 -247q0 -164 -124 -261q-108 -85 -288 -94v-136h-102v134q-100 9 -188 40q-109 39 -217 125v109q114 -92 225 -134q88 -33 180 -42v558
q-175 50 -280 142q-116 102 -116 234q0 158 114 251q106 86 282 92v134h102zM477 1260q-125 -5 -203 -64q-85 -64 -85 -173q0 -105 84 -172q71 -54 204 -96v506v-1zM579 82q130 8 209 69q95 70 95 190q0 103 -89 174q-72 58 -215 98v-531z" />
    <glyph glyph-name="percent" unicode="%" horiz-adv-x="1430" 
d="M369 761q-145 0 -237.5 90.5t-92.5 233.5t92.5 234.5t237.5 91.5t237.5 -91.5t92.5 -234.5t-92.5 -233.5t-237.5 -90.5v0zM369 1330q-99 0 -169 -71t-70 -172q0 -100 70 -170.5t169 -70.5t169 70.5t70 170.5q0 101 -70 172t-169 71v0zM105 -27l1119 1438h103l-1119 -1438
h-103zM1061 -27q-145 0 -237.5 90.5t-92.5 233.5t92.5 234.5t237.5 91.5t237.5 -91.5t92.5 -234.5t-92.5 -233.5t-237.5 -90.5v0zM1061 542q-99 0 -169 -71t-70 -172q0 -100 70 -170.5t169 -70.5t169 70.5t70 170.5q0 101 -70 172t-169 71v0z" />
    <glyph glyph-name="ampersand" unicode="&#x26;" horiz-adv-x="1260" 
d="M220 1072q0 123 95.5 211.5t227.5 88.5t227 -81.5t95 -194.5q0 -123 -84 -222q-75 -87 -215 -161l323 -338l41 75q69 127 110 254v0h56h56v0q-42 -129 -124 -279q-36 -67 -72 -120l291 -305v0h-69h-70v0l-212 222l-23 -27q-95 -104 -211.5 -158t-246.5 -54
q-167 0 -264.5 92.5t-97.5 250.5q0 136 110 255q94 102 240 160q-92 95 -133 166q-50 85 -50 165zM446 88q82 0 172 45.5t186 135.5l24 24l-357 374q-124 -48 -204 -127q-97 -96 -97 -209t74 -178t202 -65zM327 1076q0 -60 46 -135q41 -67 123 -156q96 37 169 104
q93 87 93 181q0 83 -63 141.5t-152 58.5q-90 0 -153 -57q-63 -56 -63 -137z" />
    <glyph glyph-name="quotesingle" unicode="'" horiz-adv-x="455" 
d="M181 927l-21 235v235h135v-235l-20 -235h-94z" />
    <glyph glyph-name="parenleft" unicode="(" horiz-adv-x="682" 
d="M164 470q0 266 114 525.5t300 418.5h90q-184 -157 -295.5 -416.5t-111.5 -527.5q0 -269 112 -529t295 -416h-90q-187 159 -301 419q-113 260 -113 526z" />
    <glyph glyph-name="parenright" unicode=")" horiz-adv-x="682" 
d="M518 469q0 -266 -114 -525.5t-300 -418.5h-90q184 157 295.5 416.5t111.5 527.5q0 269 -112 529t-295 416h90q187 -159 301 -419q113 -260 113 -526z" />
    <glyph glyph-name="asterisk" unicode="*" horiz-adv-x="961" 
d="M530 1397l-41 -375q0 -3 6 -5.5t8 -0.5l235 294l70 -70l-293 -234q-2 -2 0.5 -8t5.5 -6l373 40v-99l-375 41q-3 0 -5.5 -6t-0.5 -8l294 -235l-70 -70l-234 293q-2 2 -8 -0.5t-6 -5.5l40 -373h-99l41 375q0 3 -6 5.5t-8 0.5l-235 -294l-70 70l293 234q2 2 -0.5 8t-5.5 6
l-373 -40v99l375 -41q3 0 5.5 6t0.5 8l-294 235l70 70l234 -293q2 -2 8 0.5t6 5.5l-40 373h99z" />
    <glyph glyph-name="plus" unicode="+" horiz-adv-x="1352" 
d="M631 675h-492v88h492v492h88v-492h492v-88h-492v-492h-88v492z" />
    <glyph glyph-name="comma" unicode="," horiz-adv-x="362" 
d="M115 100v99h61h72v-176q0 -73 -37 -146.5t-96 -116.5v0v66v0q29 35 38 80q6 32 8 94v0h-6h-40v100z" />
    <glyph glyph-name="hyphen" unicode="-" horiz-adv-x="641" 
d="M78 508h484v-97h-484v97z" />
    <glyph glyph-name="period" unicode="." horiz-adv-x="362" 
d="M115 196h134v-196h-134v196z" />
    <glyph glyph-name="slash" unicode="/" horiz-adv-x="575" 
d="M551 1425l-449 -1446h-96l449 1446h96z" />
    <glyph glyph-name="zero" unicode="0" horiz-adv-x="1024" 
d="M512 -21q-196 0 -321 201.5t-125 517.5q0 317 125 518.5t321 201.5q197 0 321.5 -201.5t124.5 -518.5q0 -316 -124.5 -517.5t-321.5 -201.5v0zM512 76q141 0 240 182t99 440q0 259 -99 441t-240 182q-140 0 -239.5 -182t-99.5 -441q0 -258 99.5 -440t239.5 -182v0z" />
    <glyph glyph-name="one" unicode="1" horiz-adv-x="1024" 
d="M459 0v1397v0h51h52v0v-1397v0h-51h-52v0z" />
    <glyph glyph-name="two" unicode="2" horiz-adv-x="1024" 
d="M830 1020q0 -213 -186 -508q-131 -207 -330 -415v0h649v-97h-887v0q298 271 473 546q174 275 174 473q0 125 -91 213.5t-220 88.5q-80 0 -157.5 -39.5t-152.5 -119.5v123q83 69 162 101t165 32q176 0 289 -112q112 -111 112 -286z" />
    <glyph glyph-name="three" unicode="3" horiz-adv-x="1024" 
d="M750 1051q0 112 -86.5 191t-208.5 79q-83 0 -152.5 -21.5t-141.5 -70.5v103q72 46 137 66t141 20q184 0 301 -97.5t117 -250.5t-98 -250q-60 -59 -139 -83v0q90 -22 156 -84q103 -97 103 -250q0 -187 -118 -305.5t-304 -118.5q-90 0 -162 16.5t-156 55.5v105
q87 -41 158.5 -58t157.5 -17q132 0 224.5 88.5t92.5 213.5q0 126 -92.5 214.5t-224.5 88.5h-43v96h43q122 0 209 79q86 78 86 190z" />
    <glyph glyph-name="four" unicode="4" horiz-adv-x="1024" 
d="M675 531h-646v20v21l711 825h19h19v-769v0h187v-97h-187v0v-531h-103v531v0zM675 628v0v577v0v0l-495 -577v0h495z" />
    <glyph glyph-name="five" unicode="5" horiz-adv-x="1024" 
d="M872 448q0 -206 -128 -337.5t-330 -131.5q-93 0 -170 23t-160 76v110q86 -57 166.5 -82t174.5 -25q149 0 245.5 98t96.5 249q0 155 -102.5 251.5t-266.5 96.5q-53 0 -108 -8.5t-88 -22.5v0v652v0h592v-97h-500v0v-444v0q53 11 105 9q218 0 346 -113q127 -112 127 -304z
" />
    <glyph glyph-name="six" unicode="6" horiz-adv-x="1024" 
d="M701 1418l65 -71q-267 -194 -401 -416q-79 -130 -111 -273v0l18 13q125 90 264 90q181 0 296.5 -109.5t115.5 -282.5q0 -172 -115.5 -281t-296.5 -109q-193 0 -302 135t-109 375t153 487q152 246 423 442zM554 76q119 0 203 85.5t84 207.5t-89 208.5t-216 86.5
q-118 0 -222 -68q-47 -31 -80 -68v0l-2 -67q0 -181 85.5 -283t236.5 -102z" />
    <glyph glyph-name="seven" unicode="7" horiz-adv-x="1024" 
d="M241 0l583 1300v0h-765v97h907h7h7l-645 -1440z" />
    <glyph glyph-name="eight" unicode="8" horiz-adv-x="1024" 
d="M692 730v0q64 -28 112 -75q107 -106 107 -286q0 -172 -111.5 -281t-286.5 -109t-286.5 109t-111.5 281q0 173 112 283q49 48 111 76v0q-54 25 -97 67q-106 101 -106 260q0 149 111.5 256t266.5 107t266.5 -107t111.5 -256q0 -159 -106 -261q-41 -39 -93 -64zM513 775
q112 0 191.5 79.5t79.5 192.5q0 114 -79.5 194t-191.5 80t-191.5 -80t-79.5 -194q0 -113 80 -193q79 -79 191 -79zM514 679q-121 0 -206.5 -88.5t-85.5 -213.5t85.5 -213t206.5 -88q122 0 207.5 88t85.5 213q0 134 -82 218q-81 84 -211 84z" />
    <glyph glyph-name="nine" unicode="9" horiz-adv-x="1024" 
d="M313 -22l-65 71q267 194 401 416q79 130 111 273v0l-18 -13q-125 -90 -264 -90q-181 0 -296.5 109.5t-115.5 282.5q0 172 115.5 281t296.5 109q193 0 302 -135t109 -375t-153 -487q-152 -246 -423 -442zM460 1320q-119 0 -203 -85.5t-84 -207.5t89 -208.5t216 -86.5
q118 0 222 68q47 31 80 68v0l2 67q0 181 -85.5 283t-236.5 102z" />
    <glyph glyph-name="colon" unicode=":" horiz-adv-x="362" 
d="M115 196h134v-196h-134v196zM115 920h134v-196h-134v196z" />
    <glyph glyph-name="semicolon" unicode=";" horiz-adv-x="362" 
d="M115 100v99h61h72v-176q0 -73 -37 -146.5t-96 -116.5v0v66v0q29 35 38 80q6 32 8 94v0h-6h-40v100zM116 920h134v-196h-134v196z" />
    <glyph glyph-name="less" unicode="&#x3c;" horiz-adv-x="1352" 
d="M139 675v44v44l1073 452v-96l-953 -399v0l953 -401v-96z" />
    <glyph glyph-name="equal" unicode="=" horiz-adv-x="1352" 
d="M139 517h1072v-89h-1072v89zM139 1011h1072v-89h-1072v89z" />
    <glyph glyph-name="greater" unicode="&#x3e;" horiz-adv-x="1352" 
d="M1212 675l-1073 -452v96l953 401v0l-953 399v96l1073 -452v-44v-44z" />
    <glyph glyph-name="question" unicode="?" horiz-adv-x="575" 
d="M231 1317q-46 0 -91 -22t-89 -66l42 147q40 21 71.5 29.5t66.5 8.5q108 0 185.5 -83t77.5 -199q0 -87 -28 -164t-93 -170q-115 -164 -136 -268t45 -181l-46 -28q-94 110 -83.5 218.5t136.5 312.5q53 87 75.5 151t22.5 129q0 77 -46 131q-45 54 -110 54zM192 196h134v-196
h-134v196z" />
    <glyph glyph-name="at" unicode="@" horiz-adv-x="1638" 
d="M1339 160q95 0 151 128.5t56 347.5q0 324 -188 514.5t-510 190.5q-347 0 -551.5 -214t-204.5 -578t205.5 -578t556.5 -214q105 0 200 10t127 25v-82q-32 -15 -118 -25t-178 -10q-409 0 -649 236t-240 638t231.5 638t624.5 236q364 0 577 -212.5t213 -574.5
q0 -261 -89.5 -414t-241.5 -153q-101 0 -161 126q-23 52 -39 114v0q-28 -59 -71 -108q-116 -132 -291 -132q-171 0 -289 133.5t-118 326.5q0 194 118.5 327.5t290.5 133.5q173 0 292 -134q27 -30 48 -64v0v213h107v-470q0 -173 38 -274t103 -101zM771 908
q-134 0 -226.5 -110t-92.5 -269t92.5 -268.5t226.5 -109.5q144 0 232 104t88 275q0 166 -89.5 272t-230.5 106z" />
    <glyph glyph-name="A" unicode="A" horiz-adv-x="1366" 
d="M8 0l645 1411h30h30l645 -1411v0h-59h-60v0l-220 484v0h-682v0l-217 -484v0h-56h-56v0zM678 1236l-299 -662v0h600v0l-301 662v0v0z" />
    <glyph glyph-name="B" unicode="B" horiz-adv-x="1087" 
d="M164 0v1397v0h54v0h268q207 0 324 -93.5t117 -258.5t-117 -258q-47 -37 -109 -59v0q123 -22 206 -84q135 -98 135 -273q0 -174 -126.5 -272.5t-351.5 -98.5h-346v0h-54v0zM272 1300v-552v0h214q153 0 237.5 72t84.5 203q0 132 -84.5 204.5t-237.5 72.5h-214v0zM272 661
v-564v0h292q171 0 265 74t94 207q0 134 -102.5 208.5t-288.5 74.5h-260v0z" />
    <glyph glyph-name="C" unicode="C" horiz-adv-x="1386" 
d="M1339 112q-138 -70 -257 -99.5t-264 -29.5q-294 0 -506 211t-212 504q0 301 208.5 508.5t509.5 207.5q145 0 264 -29.5t257 -99.5v-110q-135 76 -253 109t-258 33q-252 0 -430.5 -181t-178.5 -438q0 -256 178.5 -437t430.5 -181q140 0 258 33t253 109v-110z" />
    <glyph glyph-name="D" unicode="D" horiz-adv-x="1516" 
d="M162 0v1397v0h54v0h463q331 0 532.5 -192t201.5 -507q0 -314 -207 -506t-547 -192h-443v0h-54v0zM270 97v0h389q289 0 462 164t173 437q0 274 -167.5 438t-447.5 164h-409v0v-1203z" />
    <glyph glyph-name="E" unicode="E" horiz-adv-x="1004" 
d="M164 0v0v1397v0h754v0v-45v-45v0h-646v0v-560v0h631v-45v-45v0h-631v0v-567v0h670v0v-45v-45v0h-778z" />
    <glyph glyph-name="F" unicode="F" horiz-adv-x="897" 
d="M160 0v1397v0h719v0v-45v-45v0h-611v0v-560v0h539v-45v-45v0h-539v0v-657h-54h-54z" />
    <glyph glyph-name="G" unicode="G" horiz-adv-x="1473" 
d="M854 -17q-315 0 -533.5 207.5t-218.5 507.5q0 301 210 508.5t513 207.5q142 0 262.5 -29t270.5 -100v-110q-134 76 -254 109t-265 33q-262 0 -440 -178t-178 -441t178 -440.5t440 -177.5q231 1 411 96v0v433v0h-293v90h401v-584v0q-219 -132 -504 -132z" />
    <glyph glyph-name="H" unicode="H" horiz-adv-x="1473" 
d="M162 0v1397v0h54h54v0v-650v0h933v0v650v0h54h54v0v-1397v0h-54h-54v0v657v0h-933v0v-657v0h-54h-54v0z" />
    <glyph glyph-name="I" unicode="I" horiz-adv-x="426" 
d="M160 0v1397v0h54h54v0v-1397v0h-54h-54v0z" />
    <glyph glyph-name="J" unicode="J" horiz-adv-x="426" 
d="M168 1397v0h54h54v0v-1422q0 -184 -78 -283.5t-223 -99.5l-50 2l-17 99q22 -5 49 -4q109 0 160 69t51 217v0v1422z" />
    <glyph glyph-name="K" unicode="K" horiz-adv-x="1087" 
d="M264 0v0h-54h-54v0v1397v0h54h54v0v-701v0l686 701v0h67h67v0l-687 -693v0l736 -704v0h-74h-74v0l-721 702v0v-702z" />
    <glyph glyph-name="L" unicode="L" horiz-adv-x="961" 
d="M162 0v0v1397v0h54h54v0v-1307v0h691v0v-45v-45v0h-799z" />
    <glyph glyph-name="M" unicode="M" horiz-adv-x="1599" 
d="M266 0v0h-54h-54v0v1397v0h52h53v0l543 -665v0v0l529 665v0h52h53v0v-1397v0h-54h-54v0v1250v0l-529 -664h-4h-4l-529 647v0v-1233z" />
    <glyph glyph-name="N" unicode="N" horiz-adv-x="1579" 
d="M268 0v0h-54h-54v0v1397v0h46h46v0l1059 -1203v0v0v1203v0h54h54v0v-1411h-33h-34l-1084 1230v0v0v-1216z" />
    <glyph glyph-name="O" unicode="O" horiz-adv-x="1686" 
d="M843 -17q-303 0 -521 211t-218 504q0 294 218 505t521 211q304 0 522 -211t218 -505q0 -293 -218 -504t-522 -211v0zM843 80q258 0 439.5 181t181.5 437q0 257 -181.5 438t-439.5 181q-257 0 -438.5 -181t-181.5 -438q0 -256 181.5 -437t438.5 -181v0z" />
    <glyph glyph-name="P" unicode="P" horiz-adv-x="1044" 
d="M160 0v1397v0h54v0h299q229 0 358.5 -101t129.5 -280q0 -178 -129.5 -278.5t-358.5 -100.5h-245v0v-637v0h-54h-54v0zM268 734v0h276q161 0 249.5 74t88.5 208q0 135 -88.5 209.5t-249.5 74.5h-276v0v-566z" />
    <glyph glyph-name="Q" unicode="Q" horiz-adv-x="1686" 
d="M1424 -268q-187 -26 -402 82q-142 70 -239 172v0q-266 19 -461 208q-218 211 -218 504q0 294 218 505t521 211q304 0 522 -211t218 -505q0 -293 -218 -504q-179 -174 -417 -204v0q108 -97 245 -147q202 -73 345 3zM843 1317q-257 0 -438.5 -181t-181.5 -438
q0 -256 181.5 -437t438.5 -181q258 0 439.5 181t181.5 437q0 257 -181.5 438t-439.5 181v0z" />
    <glyph glyph-name="R" unicode="R" horiz-adv-x="1174" 
d="M162 0v1397v0h54v0h291q224 0 350.5 -96t126.5 -267q0 -170 -127 -266q-58 -44 -139 -68v0q31 -21 74 -67q82 -88 163 -215l265 -418v0h-62h-62v0l-265 418q-98 155 -162.5 202.5t-177.5 47.5h-221v0v-668v0h-54h-54v0zM270 755v0h238q170 0 263.5 71.5t93.5 200.5
q0 130 -93.5 201.5t-263.5 71.5h-238v0v-545z" />
    <glyph glyph-name="S" unicode="S" horiz-adv-x="961" 
d="M823 1210q-98 56 -171 81.5t-135 25.5q-130 0 -219.5 -80.5t-89.5 -196.5q0 -91 68 -154q67 -62 229 -120q210 -76 291 -166q81 -89 81 -246q0 -156 -114.5 -263.5t-280.5 -107.5q-100 0 -186.5 29t-178.5 93v123q100 -75 185.5 -111.5t163.5 -36.5q125 0 211 84.5
t86 207.5q0 95 -71 164q-70 68 -225 124q-218 78 -296 161q-77 82 -77 236q0 150 122.5 253.5t300.5 103.5q76 0 147 -20t159 -67v-117z" />
    <glyph glyph-name="T" unicode="T" horiz-adv-x="1174" 
d="M532 0v1307v0h-524v0v45v45v0h1157v0v-45v-45v0h-525v0v-1307v0h-54h-54v0z" />
    <glyph glyph-name="U" unicode="U" horiz-adv-x="1430" 
d="M1300 627q0 -299 -156 -471.5t-428 -172.5t-428.5 172.5t-156.5 471.5v770v0h54h54v0v-776q0 -251 128 -395t349 -144q222 0 349 144t127 395v776v0h54h54v0v-770z" />
    <glyph glyph-name="V" unicode="V" horiz-adv-x="1217" 
d="M6 1397v0h55h55v0l492 -1187v0v0l492 1187v0h55h55v0l-590 -1411h-12h-12z" />
    <glyph glyph-name="W" unicode="W" horiz-adv-x="2111" 
d="M542 -14l-544 1411v0h58h58v0l446 -1168v0v0l466 1182h33h34l468 -1182v0v0l444 1168v0h54h55v0l-544 -1411h-12h-12l-491 1227v0v0l-489 -1227h-12h-12z" />
    <glyph glyph-name="X" unicode="X" horiz-adv-x="1409" 
d="M0 0l639 702v0l-629 695v0h68h69v0l560 -620v0v0l564 620v0h64h64v0l-629 -691v0l639 -706v0h-68h-69v0l-571 632v0v0l-573 -632v0h-64h-64v0z" />
    <glyph glyph-name="Y" unicode="Y" horiz-adv-x="1194" 
d="M543 751v0l-543 646v0h68h69v0l462 -561v0l467 561v0h64h64v0l-543 -639v0v-758h-54h-54v751z" />
    <glyph glyph-name="Z" unicode="Z" horiz-adv-x="1300" 
d="M18 48l1083 1259v0h-1026v0v45v45v0h1175l7 -24l7 -24l-1082 -1259v0h1075v0v-45v-45v0h-1225l-7 24z" />
    <glyph glyph-name="bracketleft" unicode="[" horiz-adv-x="618" 
d="M141 -475v1889v0h463v-89h-366v0v-1711v0h366v-89h-463v0z" />
    <glyph glyph-name="backslash" unicode="\" horiz-adv-x="575" 
d="M474 -21l-449 1446h95l449 -1446h-95z" />
    <glyph glyph-name="bracketright" unicode="]" horiz-adv-x="618" 
d="M477 -475v0h-463v89h366v0v1711v0h-366v89h463v0v-1889z" />
    <glyph glyph-name="asciicircum" unicode="^" horiz-adv-x="1352" 
d="M698 1414l426 -724h-103l-347 589v0l-344 -589h-103l425 724h23h23z" />
    <glyph glyph-name="underscore" unicode="_" horiz-adv-x="1024" 
d="M-12 -475v105h1048v-105h-1048z" />
    <glyph glyph-name="grave" unicode="`" horiz-adv-x="682" 
d="M311 1049l-319 327h161l222 -327h-64z" />
    <glyph glyph-name="a" unicode="a" horiz-adv-x="874" 
d="M316 -21q-102 0 -172 66.5t-70 163.5q0 156 153 251q147 92 381 95v0v116q0 92 -50 135t-157 43q-76 0 -143.5 -28t-133.5 -86v105q73 53 145 77t158 24q129 0 204 -63.5t75 -171.5v-586q0 -23 7.5 -33.5t23.5 -10.5q12 0 48.5 23t75.5 55l1 -76q-45 -39 -101 -67.5
t-89 -28.5q-31 0 -47.5 28.5t-16.5 81.5v2q-43 -36 -101 -66q-98 -49 -191 -49zM608 185v292v0q-177 -4 -306 -77q-134 -77 -134 -186q0 -63 53 -105.5t131 -42.5q77 0 147 32.5t109 86.5v0z" />
    <glyph glyph-name="b" unicode="b" horiz-adv-x="1044" 
d="M127 1397v0h49h49v0v-599v0q27 26 55 47q130 96 279 96q184 0 296 -132.5t112 -349.5q0 -206 -146 -343t-366 -137q-80 0 -170 21t-158 56v1341zM446 76q179 0 297.5 110.5t118.5 277.5q0 170 -86 280t-219 110q-132 0 -236 -75q-56 -40 -96 -95v0v-564v0l42 -17
q79 -27 179 -27z" />
    <glyph glyph-name="c" unicode="c" horiz-adv-x="854" 
d="M793 28q-72 -27 -127 -38t-121 -11q-202 0 -330.5 134.5t-128.5 345.5q0 212 128.5 347t330.5 135q57 0 107.5 -11t119.5 -38v-100q-74 28 -127 39t-114 11q-143 0 -243.5 -112t-100.5 -271q0 -177 98 -279t269 -102q62 0 115 11t124 39v-100z" />
    <glyph glyph-name="d" unicode="d" horiz-adv-x="1044" 
d="M567 -21q-217 0 -350 132t-133 348q0 207 137.5 344.5t345.5 137.5q133 0 237 -69l18 -12v0v537v0h49h49v0v-1397v0h-49h-49v0v65v0l-21 -14q-107 -72 -234 -72zM564 844q-169 0 -272 -106t-103 -279q0 -159 109.5 -271t264.5 -112q113 0 197 48q37 21 62 49v0v570v0
q-25 26 -65 49q-89 52 -193 52z" />
    <glyph glyph-name="e" unicode="e" horiz-adv-x="981" 
d="M562 -21q-211 0 -345.5 134.5t-134.5 345.5q0 212 116 347t298 135q199 0 307 -126q102 -116 107 -330v0h-727v0v-21q0 -158 112 -269.5t271 -111.5q96 0 179 31t166 98v-102q-82 -68 -166.5 -99.5t-182.5 -31.5zM801 563v0q-16 109 -75 180q-84 103 -230 103
q-130 0 -222 -112q-60 -74 -82 -171v0h609z" />
    <glyph glyph-name="f" unicode="f" horiz-adv-x="492" 
d="M292 839v0v-839v0h-49h-49v0v839v0h-171v81h171v0v141q0 163 85.5 258t232.5 95q100 0 168 -44v-96q-64 41 -159 41q-118 0 -173.5 -61.5t-55.5 -192.5v-141v0h190v-81h-190z" />
    <glyph glyph-name="g" unicode="g" horiz-adv-x="874" 
d="M249 138q0 -48 64 -72.5t192 -26.5q185 -3 267 -60.5t82 -184.5q0 -125 -113.5 -195t-315.5 -70q-182 0 -285 66t-103 184q0 80 71 139.5t173 65.5v0l-46 25q-80 52 -80 121q0 55 55 99t134 53v0q-91 18 -156 82q-90 90 -90 232q0 143 94.5 233.5t242.5 90.5q35 1 67 -6
v0h352v-76h-198v0q11 -5 18 -14q99 -95 99 -228q0 -142 -99 -232q-72 -66 -174 -84v0q-126 -24 -189 -60q-62 -35 -62 -82zM435 844q-102 0 -174.5 -72.5t-72.5 -175.5q0 -102 72.5 -174t174.5 -72q103 0 175.5 72t72.5 174q0 103 -73 176q-72 72 -175 72zM128 -215
q0 -80 80 -125t221 -45q157 0 245 46.5t88 128.5q0 75 -68 118t-189 45l-61 1q-14 0 -37 -2t-42 -5q-115 -20 -171 -54q-66 -40 -66 -108z" />
    <glyph glyph-name="h" unicode="h" horiz-adv-x="1004" 
d="M127 0v1397v0h49h49v0v-633v0v0l24 31q114 146 283 146q154 0 248 -103.5t94 -272.5v-565v0h-49h-49v0v559q0 128 -71 206.5t-188 78.5q-130 0 -236 -120q-30 -34 -56 -76v0v-648v0h-49h-49v0z" />
    <glyph glyph-name="i" unicode="i" horiz-adv-x="385" 
d="M143 0v920v0h49h49v0v-920v0h-49h-49v0zM143 1397h98v-168h-98v168z" />
    <glyph glyph-name="j" unicode="j" horiz-adv-x="385" 
d="M140 920v0h49h49v0v-1049q0 -178 -79 -264q-66 -73 -197 -83v0l-19 86v0q94 8 142 63q55 63 55 198v0v1049zM140 1397h98v-168h-98v168z" />
    <glyph glyph-name="k" unicode="k" horiz-adv-x="874" 
d="M219 1397v-1397v0h-49h-49v0v1397v0h49h49v0zM800 0l-556 460v0l507 460v0h65h66v0l-497 -456v0l563 -464v0h-74h-74v0z" />
    <glyph glyph-name="l" unicode="l" horiz-adv-x="385" 
d="M143 0v1397v0h49h49v0v-1397v0h-49h-49v0z" />
    <glyph glyph-name="m" unicode="m" horiz-adv-x="1579" 
d="M123 0v920v0h49h49v0v-150v0v0l19 25q110 146 271 146q147 0 237 -99q44 -49 67 -112v0l42 65q109 146 270 146q147 0 237 -99t90 -261v-581v0h-49h-49v0v573q0 122 -67.5 196.5t-178.5 74.5q-121 0 -221 -120q-27 -31 -51 -72v0v-652v0h-49h-49v0v573q0 122 -67.5 196.5
t-178.5 74.5q-121 0 -222 -120q-27 -31 -51 -72v0v-652v0h-49h-49v0z" />
    <glyph glyph-name="n" unicode="n" horiz-adv-x="1004" 
d="M127 0v920v0h49h49v0v-156v0v0l24 31q114 146 283 146q154 0 248 -103.5t94 -272.5v-565v0h-49h-49v0v559q0 128 -71 206.5t-188 78.5q-130 0 -236 -120q-30 -34 -56 -76v0v-648v0h-49h-49v0z" />
    <glyph glyph-name="o" unicode="o" horiz-adv-x="1110" 
d="M554 -21q-206 0 -337 134.5t-131 345.5q0 212 131 347t337 135t337 -135t131 -347q0 -211 -131 -345.5t-337 -134.5v0zM554 74q152 0 259.5 112.5t107.5 272.5q0 161 -107.5 274t-259.5 113t-259.5 -113t-107.5 -274q0 -160 107.5 -272.5t259.5 -112.5v0z" />
    <glyph glyph-name="p" unicode="p" horiz-adv-x="1044" 
d="M129 920v0h49h49v0v-50v0l19 10q111 61 249 61q208 0 335.5 -132.5t127.5 -349.5q0 -206 -132 -343t-331 -137q-144 0 -251 59l-17 9v0v-522v0h-49h-49v0v1395zM481 76q167 0 269.5 105.5t102.5 277.5q0 160 -109 272.5t-263 112.5q-116 0 -199 -38q-31 -14 -55 -32v0
v-625v0l59 -33q88 -40 195 -40z" />
    <glyph glyph-name="q" unicode="q" horiz-adv-x="1044" 
d="M517 -21q-198 0 -319.5 132t-121.5 348q0 198 130 340t311 142q156 0 272 -63l28 -17v0v59v0h98v0v-1395v0h-49h-49v0v538v0l-31 -19q-120 -65 -269 -65zM557 844q-169 0 -272.5 -116.5t-103.5 -306.5q0 -143 100 -244t242 -101q132 0 226 42q41 19 68 42v0v599v0
q-26 21 -63 40q-90 45 -197 45z" />
    <glyph glyph-name="r" unicode="r" horiz-adv-x="682" 
d="M109 0v920v0h49h49v0v-252v0v0q58 105 133 178q100 95 200 95q44 0 92.5 -27t111.5 -86l-50 -87q-67 57 -111.5 81t-83.5 24q-63 0 -135 -67t-157 -205v0v-574v0h-49h-49v0z" />
    <glyph glyph-name="s" unicode="s" horiz-adv-x="725" 
d="M634 764q-65 43 -123.5 62.5t-121.5 19.5q-85 0 -144.5 -42.5t-59.5 -102.5q0 -63 41 -101t164 -86q160 -63 216 -122t56 -163q0 -103 -89 -176.5t-212 -73.5q-56 0 -120.5 19t-156.5 62v96q89 -44 154 -63t123 -19q85 0 145 49.5t60 119.5q0 60 -42 97q-42 36 -168 86
q-157 62 -212 119t-55 156q0 98 88.5 169t211.5 71q62 0 120 -19t125 -62v-96z" />
    <glyph glyph-name="t" unicode="t" horiz-adv-x="618" 
d="M612 32q-70 -53 -177 -53q-105 0 -166 58.5t-61 159.5v642v0h-247v81h247v0v222l68 82h1h29v-34v-270v0h247v-81h-247v0v-614q0 -77 34 -113t107 -36q102 0 165 51v-95z" />
    <glyph glyph-name="u" unicode="u" horiz-adv-x="1004" 
d="M225 920v-559q0 -128 71 -206.5t188 -78.5q130 0 236 120q30 34 56 76v0v648v0h49h49v0v-920v0h-49h-49v0v159v0v0l-24 -34q-114 -146 -283 -146q-154 0 -248 103.5t-94 272.5v565v0h49h49v0z" />
    <glyph glyph-name="v" unicode="v" horiz-adv-x="874" 
d="M0 920v0h51h51v0l339 -788v0v0l338 788v0h47h48v0l-407 -934h-30h-30z" />
    <glyph glyph-name="w" unicode="w" horiz-adv-x="1450" 
d="M375 -14l-375 934v0h51h51v0l306 -774v0v0l290 788h30h30l292 -786v0v0l306 772v0h47h47v0l-375 -934h-30h-30l-290 771v0v0l-290 -771h-30h-30z" />
    <glyph glyph-name="x" unicode="x" horiz-adv-x="981" 
d="M12 0l425 462v0l-416 458v0h64h65v0l352 -387v0v0l356 387v0h60h60v0l-416 -453v0l425 -467v0h-64h-65v0l-361 397v0v0l-365 -397v0h-60h-60v0z" />
    <glyph glyph-name="y" unicode="y" horiz-adv-x="854" 
d="M866 920l-693 -1416v0h-53h-53v0l331 675v0l-386 741v0h53h53v0l335 -652v0v0l316 652v0h48h49v0z" />
    <glyph glyph-name="z" unicode="z" horiz-adv-x="811" 
d="M20 30l620 801v0h-564v0v44v45v0h713l7 -15l7 -15l-618 -801v0h592v0v-44v-45v0h-743l-7 15z" />
    <glyph glyph-name="braceleft" unicode="{" horiz-adv-x="682" 
d="M586 -474q-162 0 -220.5 74t-58.5 278v240q0 142 -49.5 212t-157.5 78v124q108 8 157.5 78t49.5 212v240q0 204 58.5 278t220.5 74v-89q-92 0 -134.5 -63t-42.5 -200v-240q0 -197 -65 -273q-48 -57 -158 -78v0q110 -25 158 -80q65 -76 65 -273v-240q0 -137 42.5 -200
t134.5 -63v-89z" />
    <glyph glyph-name="bar" unicode="|" horiz-adv-x="455" 
d="M176 -525v2066h98v-2066h-98z" />
    <glyph glyph-name="braceright" unicode="}" horiz-adv-x="682" 
d="M96 -474v89q92 0 134.5 63t42.5 200v240q0 197 65 273q48 55 158 80v0q-110 21 -158 78q-65 76 -65 273v240q0 137 -42.5 200t-134.5 63v89q162 0 220.5 -74t58.5 -278v-240q0 -142 49.5 -212t157.5 -78v-124q-108 -8 -157.5 -78t-49.5 -212v-240q0 -204 -59 -278
q-58 -74 -220 -74z" />
    <glyph glyph-name="asciitilde" unicode="~" horiz-adv-x="1352" 
d="M137 690q51 63 129 97.5t171 34.5q54 0 110.5 -17.5t148.5 -62.5q83 -40 136 -56t106 -16q71 0 146 35t127 92v-94q-43 -63 -121 -97.5t-179 -34.5q-53 0 -109.5 17.5t-149.5 63.5q-82 40 -135 55.5t-107 15.5q-62 0 -137 -35t-136 -92v94z" />
    <glyph glyph-name="uni00A0" unicode="&#xa0;" horiz-adv-x="569" 
 />
    <glyph glyph-name="exclamdown" unicode="&#xa1;" horiz-adv-x="362" 
d="M214 563l34 -1009h-133l33 1009h66zM249 772h-134v196h134v-196z" />
    <glyph glyph-name="cent" unicode="&#xa2;" horiz-adv-x="854" 
d="M755 1309h83l-142 -403l70 -14v-99q-59 16 -102 24l-252 -714q68 -29 147 -29q61 0 114.5 12t128.5 41v-99q-76 -27 -131 -38t-120 -11q-95 1 -173 27l-140 -395h-83l152 429q-49 29 -91 71q-130 131 -130 338t130 339t335 132q33 1 65 -4zM342 142l241 682l-24 1
q-154 0 -263 -110t-109 -266v0q0 -156 109 -266l47 -41h-1z" />
    <glyph glyph-name="sterling" unicode="&#xa3;" horiz-adv-x="1130" 
d="M1098 38q-26 -23 -85.5 -39t-119.5 -16t-130 8t-112 19q-30 8 -76 13.5t-83 5.5q-91 0 -178 -13.5t-121 -32.5l118 436l58 213h-163l1 89h187l40 148q69 251 208 398t306 147q30 0 49 -4t38 -14l53 -99q-31 14 -59.5 19.5t-72.5 5.5q-136 0 -247.5 -116.5t-165.5 -315.5
l-46 -169h216l-1 -89h-240l-58 -213l-71 -252l-17 -58v-2q77 19 156 19q54 0 117 -6.5t100 -15.5q39 -10 92 -17t92 -7q62 0 124.5 17.5t90.5 42.5v-102z" />
    <glyph glyph-name="currency" unicode="&#xa4;" horiz-adv-x="1139" 
d="M926 691q0 150 -104 253.5t-254 103.5t-253.5 -103.5t-103.5 -253.5t103.5 -253t253.5 -103t254 103t104 253zM568 267q-162 0 -277 101v0l-148 -148l-47 47l147 147v0q-99 117 -99 277q-1 161 100 278v0l-148 148l47 47l148 -148v0q116 99 277 100t276 -101v0l149 149
l47 -47l-147 -147v0q99 -117 100 -279q0 -160 -100 -277v0l147 -147l-47 -47l-147 147v0q-116 -99 -278 -100z" />
    <glyph glyph-name="yen" unicode="&#xa5;" horiz-adv-x="1139" 
d="M62 546v81h388v0l-446 770v0h60h60v0l448 -786v0l451 786v0h56h56v0l-450 -770v0h394v-81h-441v0l-14 -23v0v-120v0h455v-81h-455v0v-322v0h-54h-54v0v322v0h-454v81h454v0v110v0l-19 33v0h-435z" />
    <glyph glyph-name="brokenbar" unicode="&#xa6;" horiz-adv-x="455" 
d="M176 -369v729h98v-729h-98zM176 657v729h98v-729h-98z" />
    <glyph glyph-name="section" unicode="&#xa7;" horiz-adv-x="811" 
d="M406 1414q114 0 189.5 -61t92.5 -166l-100 -3q-17 64 -64.5 98.5t-117.5 34.5q-73 0 -126 -53.5t-53 -128.5q0 -71 62 -157t184 -184q141 -113 213 -217.5t72 -197.5q0 -157 -104 -270q-33 -35 -69 -59l31 -42q72 -105 72 -199q0 -116 -83.5 -200t-199.5 -84
q-113 0 -188 56t-94 154l100 3q17 -56 64.5 -86t117.5 -30q73 0 126 53.5t53 128.5q0 70 -62 156t-185 184q-141 113 -212.5 218t-71.5 198q0 157 104 270q32 35 68 58l-31 43q-71 105 -71 199q0 116 84 200q83 84 199 84zM654 374q0 69 -62 154.5t-185 183.5
q-65 52 -115 103q-33 -21 -62 -53q-73 -82 -73 -197q0 -70 62 -155.5t184 -183.5q66 -52 115 -102q34 20 63 53q73 82 73 197z" />
    <glyph glyph-name="dieresis" unicode="&#xa8;" horiz-adv-x="682" 
d="M159 1225q37 0 63 -26t26 -64q0 -37 -26 -63t-63 -26t-63 26t-26 63q0 38 26 64t63 26zM522 1225q37 0 63 -26t26 -64q0 -37 -26 -63t-63 -26t-63 26t-26 63q0 38 26 64t63 26z" />
    <glyph glyph-name="glyph106" 
d="M-1 1529q201 0 339.5 -138.5t138.5 -339.5q0 -200 -138.5 -338.5t-339.5 -138.5q-200 0 -338.5 138.5t-138.5 338.5q0 201 138.5 339.5t338.5 138.5v0zM412 1051q0 173 -120 293t-293 120t-292.5 -120t-119.5 -293t119.5 -292.5t292.5 -119.5t293 119.5t120 292.5v0z" />
    <glyph glyph-name="glyph107" 
d="M215 866q-24 -34 -81 -57t-115 -23q-110 0 -186.5 79.5t-76.5 194.5q0 116 75.5 195.5t184.5 79.5q58 0 114.5 -22t79.5 -54l-58 -62q-19 26 -58.5 44.5t-77.5 18.5q-78 0 -131.5 -58t-53.5 -142t54.5 -141.5t133.5 -57.5q37 0 77 19.5t61 47.5z" />
    <glyph glyph-name="copyright" unicode="&#xa9;" horiz-adv-x="1638" 
d="M532 1529q201 0 339.5 -138.5t138.5 -339.5q0 -200 -138.5 -338.5t-339.5 -138.5q-200 0 -338.5 138.5t-138.5 338.5q0 201 138.5 339.5t338.5 138.5v0zM945 1051q0 173 -120 293t-293 120t-292.5 -120t-119.5 -293t119.5 -292.5t292.5 -119.5t293 119.5t120 292.5v0z
M762 866q-24 -34 -81 -57t-115 -23q-110 0 -186.5 79.5t-76.5 194.5q0 116 75.5 195.5t184.5 79.5q58 0 114.5 -22t79.5 -54l-58 -62q-19 26 -58.5 44.5t-77.5 18.5q-78 0 -131.5 -58t-53.5 -142t54.5 -141.5t133.5 -57.5q37 0 77 19.5t61 47.5z" />
    <glyph glyph-name="ordfeminine" unicode="&#xaa;" horiz-adv-x="575" 
d="M223 838q-74 0 -127 40t-53 95q0 99 95 155q91 52 247 55v0v67q0 52 -31.5 76t-99.5 24q-38 0 -82 -18t-95 -55v74q59 32 106.5 46t98.5 14q87 0 138 -37.5t51 -102.5v-299q0 -36 5 -49.5t19 -13.5q6 0 78 58v-69q-31 -26 -70 -45t-62 -19q-31 0 -44 25l-9 26v0
q-17 -12 -41 -22q-59 -25 -124 -25zM385 962v167v0q-123 -3 -189 -39.5t-66 -112.5q0 -33 34 -55.5t84 -22.5q38 0 78 18.5t59 44.5v0z" />
    <glyph glyph-name="guillemotleft" unicode="&#xab;" horiz-adv-x="1024" 
d="M549 929l-382 -456v0l382 -457h-128l-382 457v0l382 456h128zM985 929l-382 -456v0l382 -457h-128l-382 457v0l382 456h128z" />
    <glyph glyph-name="logicalnot" unicode="&#xac;" horiz-adv-x="1352" 
d="M1122 896h-983v89h1072v-576h-89v487z" />
    <glyph glyph-name="uni00AD" unicode="&#xad;" horiz-adv-x="641" 
d="M78 508h484v-97h-484v97z" />
    <glyph glyph-name="glyph113" 
d="M-1 1524q201 0 339.5 -138.5t138.5 -339.5q0 -200 -138.5 -338.5t-339.5 -138.5q-200 0 -338.5 138.5t-138.5 338.5q0 201 138.5 339.5t338.5 138.5v0zM412 1046q0 173 -120 293t-293 120t-292.5 -120t-119.5 -293t119.5 -292.5t292.5 -119.5t293 119.5t120 292.5v0z" />
    <glyph glyph-name="glyph114" 
d="M-160 807v506h187q62 0 104.5 -42.5t42.5 -104.5t-43 -105q-20 -20 -46 -31l89 -223h-91l-84 212v0h-84v-212h-75zM99 1166q0 30 -21 51t-51 21h-112v0v-72v-72h112q30 0 51 21t21 51z" />
    <glyph glyph-name="registered" unicode="&#xae;" horiz-adv-x="1638" 
d="M532 1524q201 0 339.5 -138.5t138.5 -339.5q0 -200 -138.5 -338.5t-339.5 -138.5q-200 0 -338.5 138.5t-138.5 338.5q0 201 138.5 339.5t338.5 138.5v0zM945 1046q0 173 -120 293t-293 120t-292.5 -120t-119.5 -293t119.5 -292.5t292.5 -119.5t293 119.5t120 292.5v0z
M365 807v506h187q62 0 104.5 -42.5t42.5 -104.5t-43 -105q-20 -20 -46 -31l89 -223h-91l-84 212v0h-84v-212h-75zM624 1166q0 30 -21 51t-51 21h-112v0v-72v-72h112q30 0 51 21t21 51z" />
    <glyph glyph-name="macron" unicode="&#xaf;" horiz-adv-x="1024" 
d="M-12 1526v105h1048v-105h-1048z" />
    <glyph glyph-name="degree" unicode="&#xb0;" horiz-adv-x="819" 
d="M410 1414q120 0 203 -83t83 -203t-83 -202.5t-203 -82.5t-202.5 82.5t-82.5 202.5t82.5 203t202.5 83zM614 1128q0 86 -59 145t-145 59q-85 0 -144 -59t-59 -145q0 -85 59 -144t144 -59q86 0 145 59t59 144z" />
    <glyph glyph-name="plusminus" unicode="&#xb1;" horiz-adv-x="1352" 
d="M631 675h-492v88h492v492h88v-492h492v-88h-492v-492h-88v492zM139 92h1072v-89h-1072v89z" />
    <glyph glyph-name="uni00B2" unicode="&#xb2;" horiz-adv-x="641" 
d="M539 1207q0 -115 -117 -274q-69 -92 -167 -187v0h361v-68h-555v0q180 140 286 282t106 244q0 69 -48 110t-129 41q-50 0 -100.5 -24t-98.5 -70v84q54 38 103 55t104 17q112 0 184 -59q71 -59 71 -151z" />
    <glyph glyph-name="uni00B3" unicode="&#xb3;" horiz-adv-x="641" 
d="M463 1218q0 57 -51 94t-129 37q-51 0 -92.5 -12.5t-86.5 -40.5v70q44 24 84 34.5t89 10.5q115 0 188 -51.5t73 -132.5t-61 -132q-29 -25 -66 -37v0q42 -14 76 -44q64 -57 64 -147q0 -89 -73.5 -146t-189.5 -57q-53 0 -96.5 8t-101.5 29v70q51 -24 94 -34t97 -10
q80 0 136 43t56 104q0 62 -56 105.5t-136 43.5h-21v66h23q75 0 128 38q52 37 52 91z" />
    <glyph glyph-name="acute" unicode="&#xb4;" horiz-adv-x="682" 
d="M313 1049l222 327h166l-322 -327h-66z" />
    <glyph glyph-name="uni00B5" unicode="&#xb5;" horiz-adv-x="1139" 
d="M305 920v-574q0 -113 78.5 -191.5t191.5 -78.5q114 0 192.5 81t78.5 199v0v564h98v-920h-98v150v0v0q-17 -33 -41 -62q-88 -109 -216 -109t-216 88q-42 44 -68 96v0v-577h-98v690v644h98z" />
    <glyph glyph-name="paragraph" unicode="&#xb6;" horiz-adv-x="1331" 
d="M551 566v0q-215 39 -333 163t-118 316q0 216 161.5 348.5t425.5 132.5h260v-80h-138v0v-1772h-80v1772v0h-98v0v-1772h-80v892z" />
    <glyph glyph-name="periodcentered" unicode="&#xb7;" horiz-adv-x="362" 
d="M115 796h134v-196h-134v196z" />
    <glyph glyph-name="cedilla" unicode="&#xb8;" horiz-adv-x="682" 
d="M402 3l-24 -81v0q53 -6 87 -33q43 -33 43 -87q0 -72 -56 -116.5t-148 -44.5q-27 0 -52.5 4t-34.5 10l10 67q9 -5 32 -8.5t47 -3.5q61 0 94 23t33 66q0 29 -29.5 48.5t-74.5 19.5l-31 -1v0l41 137h63z" />
    <glyph glyph-name="uni00B9" unicode="&#xb9;" horiz-adv-x="641" 
d="M276 678v730v0h42h42v0v-730v0h-42h-42v0z" />
    <glyph glyph-name="ordmasculine" unicode="&#xba;" horiz-adv-x="725" 
d="M362 838q-137 0 -224 80t-87 206t87 206.5t224 80.5t224.5 -80.5t87.5 -206.5t-87.5 -206t-224.5 -80v0zM362 906q95 0 162 64t67 154q0 91 -67 155t-162 64t-161.5 -64t-66.5 -155q0 -90 66.5 -154t161.5 -64v0z" />
    <glyph glyph-name="guillemotright" unicode="&#xbb;" horiz-adv-x="1024" 
d="M39 16l382 456v0l-382 457h128l382 -457v0l-382 -456h-128zM475 16l382 456v0l-382 457h128l382 -457v0l-382 -456h-128z" />
    <glyph glyph-name="uni2215" unicode="&#x2215;" horiz-adv-x="1536" 
d="M1418 1411l-1084 -1467h-78l1084 1467h78z" />
    <glyph glyph-name="glyph130" horiz-adv-x="641" 
d="M276 678v730v0h42h42v0v-730v0h-42h-42v0z" />
    <glyph glyph-name="glyph131" horiz-adv-x="641" 
d="M432 915h-381v14v14l433 454h13h14v-414v0h115v-68h-115v0v-237h-79v237v0zM432 983v0v282v0v0l-269 -282v0h269z" />
    <glyph glyph-name="onequarter" unicode="&#xbc;" horiz-adv-x="1706" 
d="M1289 1411l-1084 -1467h-78l1084 1467h78zM147 678v730v0h42h42v0v-730v0h-42h-42v0zM1245 237h-381v14v14l433 454h13h14v-414v0h115v-68h-115v0v-237h-79v237v0zM1245 305v0v282v0v0l-269 -282v0h269z" />
    <glyph glyph-name="glyph133" horiz-adv-x="641" 
d="M276 678v730v0h42h42v0v-730v0h-42h-42v0z" />
    <glyph glyph-name="glyph134" horiz-adv-x="641" 
d="M539 1207q0 -115 -117 -274q-69 -92 -167 -187v0h361v-68h-555v0q180 140 286 282t106 244q0 69 -48 110t-129 41q-50 0 -100.5 -24t-98.5 -70v84q54 38 103 55t104 17q112 0 184 -59q71 -59 71 -151z" />
    <glyph glyph-name="onehalf" unicode="&#xbd;" horiz-adv-x="1706" 
d="M1289 1411l-1084 -1467h-78l1084 1467h78zM186 678v730v0h42h42v0v-730v0h-42h-42v0zM1508 529q0 -115 -117 -274q-69 -92 -167 -187v0h361v-68h-555v0q180 140 286 282t106 244q0 69 -48 110t-129 41q-50 0 -100.5 -24t-98.5 -70v84q54 38 103 55t104 17q112 0 184 -59
q71 -59 71 -151z" />
    <glyph glyph-name="glyph136" horiz-adv-x="641" 
d="M463 1218q0 57 -51 94t-129 37q-51 0 -92.5 -12.5t-86.5 -40.5v70q44 24 84 34.5t89 10.5q115 0 188 -51.5t73 -132.5t-61 -132q-29 -25 -66 -37v0q42 -14 76 -44q64 -57 64 -147q0 -89 -73.5 -146t-189.5 -57q-53 0 -96.5 8t-101.5 29v70q51 -24 94 -34t97 -10
q80 0 136 43t56 104q0 62 -56 105.5t-136 43.5h-21v66h23q75 0 128 38q52 37 52 91z" />
    <glyph glyph-name="glyph137" horiz-adv-x="641" 
d="M432 915h-381v14v14l433 454h13h14v-414v0h115v-68h-115v0v-237h-79v237v0zM432 983v0v282v0v0l-269 -282v0h269z" />
    <glyph glyph-name="threequarters" unicode="&#xbe;" horiz-adv-x="1706" 
d="M1413 1411l-1084 -1467h-78l1084 1467h78zM510 1218q0 57 -51 94t-129 37q-51 0 -92.5 -12.5t-86.5 -40.5v70q44 24 84 34.5t89 10.5q115 0 188 -51.5t73 -132.5t-61 -132q-29 -25 -66 -37v0q42 -14 76 -44q64 -57 64 -147q0 -89 -73.5 -146t-189.5 -57q-53 0 -96.5 8
t-101.5 29v70q51 -24 94 -34t97 -10q80 0 136 43t56 104q0 62 -56 105.5t-136 43.5h-21v66h23q75 0 128 38q52 37 52 91zM1332 237h-381v14v14l433 454h13h14v-414v0h115v-68h-115v0v-237h-79v237v0zM1332 305v0v282v0v0l-269 -282v0h269z" />
    <glyph glyph-name="questiondown" unicode="&#xbf;" horiz-adv-x="575" 
d="M308 -395q46 0 90.5 22t88.5 66l-42 -147q-40 -21 -71.5 -29.5t-65.5 -8.5q-108 0 -185.5 83t-77.5 199q0 87 28 164t93 170q115 164 136 268t-45 181l46 28q94 -110 83 -218.5t-136 -312.5q-53 -87 -75.5 -151t-22.5 -129q0 -77 46 -131q45 -54 110 -54zM347 726h-134
v196h134v-196z" />
    <glyph glyph-name="glyph140" 
d="M-11 3l-320 327h166l220 -327h-66z" />
    <glyph glyph-name="Agrave" unicode="&#xc0;" horiz-adv-x="1366" 
d="M8 0l645 1411h30h30l645 -1411v0h-59h-60v0l-220 484v0h-682v0l-217 -484v0h-56h-56v0zM678 1236l-299 -662v0h600v0l-301 662v0v0zM672 1526l-320 327h166l220 -327h-66z" />
    <glyph glyph-name="glyph142" 
d="M-87 3l222 327h166l-322 -327h-66z" />
    <glyph glyph-name="Aacute" unicode="&#xc1;" horiz-adv-x="1366" 
d="M8 0l645 1411h30h30l645 -1411v0h-59h-60v0l-220 484v0h-682v0l-217 -484v0h-56h-56v0zM678 1236l-299 -662v0h600v0l-301 662v0v0zM596 1526l222 327h166l-322 -327h-66z" />
    <glyph glyph-name="glyph144" 
d="M64 339l218 -339h-87l-195 226v0l-195 -226h-87l218 339h64h64z" />
    <glyph glyph-name="Acircumflex" unicode="&#xc2;" horiz-adv-x="1366" 
d="M8 0l645 1411h30h30l645 -1411v0h-59h-60v0l-220 484v0h-682v0l-217 -484v0h-56h-56v0zM678 1236l-299 -662v0h600v0l-301 662v0v0zM747 1862l218 -339h-87l-195 226v0l-195 -226h-87l218 339h64h64z" />
    <glyph glyph-name="glyph146" 
d="M-335 -1q6 93 47 143t111 50q40 0 82.5 -11t113.5 -41q72 -30 108.5 -41t62.5 -11q27 0 49.5 27.5t31.5 72.5h64q-6 -93 -47 -143t-111 -50q-39 0 -81 11.5t-115 41.5q-70 29 -107 40t-64 11t-49.5 -27.5t-31.5 -72.5h-64z" />
    <glyph glyph-name="Atilde" unicode="&#xc3;" horiz-adv-x="1366" 
d="M8 0l645 1411h30h30l645 -1411v0h-59h-60v0l-220 484v0h-682v0l-217 -484v0h-56h-56v0zM678 1236l-299 -662v0h600v0l-301 662v0v0zM348 1522q6 93 47 143t111 50q40 0 82.5 -11t113.5 -41q72 -30 108.5 -41t62.5 -11q27 0 49.5 27.5t31.5 72.5h64q-6 -93 -47 -143
t-111 -50q-39 0 -81 11.5t-115 41.5q-70 29 -107 40t-64 11t-49.5 -27.5t-31.5 -72.5h-64z" />
    <glyph glyph-name="glyph148" 
d="M-182 179q37 0 63 -26t26 -64q0 -37 -26 -63t-63 -26t-63 26t-26 63q0 38 26 64t63 26zM181 179q37 0 63 -26t26 -64q0 -37 -26 -63t-63 -26t-63 26t-26 63q0 38 26 64t63 26z" />
    <glyph glyph-name="Adieresis" unicode="&#xc4;" horiz-adv-x="1366" 
d="M8 0l645 1411h30h30l645 -1411v0h-59h-60v0l-220 484v0h-682v0l-217 -484v0h-56h-56v0zM678 1236l-299 -662v0h600v0l-301 662v0v0zM501 1702q37 0 63 -26t26 -64q0 -37 -26 -63t-63 -26t-63 26t-26 63q0 38 26 64t63 26zM864 1702q37 0 63 -26t26 -64q0 -37 -26 -63
t-63 -26t-63 26t-26 63q0 38 26 64t63 26z" />
    <glyph glyph-name="glyph150" 
d="M0 -42q-74 0 -125.5 51.5t-51.5 125.5t51.5 125.5t125.5 51.5t125.5 -51.5t51.5 -125.5t-51.5 -125.5t-125.5 -51.5v0zM0 12q52 0 87.5 35.5t35.5 87.5t-35.5 87.5t-87.5 35.5t-87.5 -35.5t-35.5 -87.5t35.5 -87.5t87.5 -35.5v0z" />
    <glyph glyph-name="Aring" unicode="&#xc5;" horiz-adv-x="1366" 
d="M8 0l645 1411h30h30l645 -1411v0h-59h-60v0l-220 484v0h-682v0l-217 -484v0h-56h-56v0zM678 1236l-299 -662v0h600v0l-301 662v0v0zM683 1481q-74 0 -125.5 51.5t-51.5 125.5t51.5 125.5t125.5 51.5t125.5 -51.5t51.5 -125.5t-51.5 -125.5t-125.5 -51.5v0zM683 1535
q52 0 87.5 35.5t35.5 87.5t-35.5 87.5t-87.5 35.5t-87.5 -35.5t-35.5 -87.5t35.5 -87.5t87.5 -35.5v0z" />
    <glyph glyph-name="AE" unicode="&#xc6;" horiz-adv-x="1772" 
d="M916 0v0v484v0h-520v0l-304 -484v0h-60h-61v0l885 1397v0h168v0h646v0v-45v-45v0h-646v0v-560v0h631v-45v-45v0h-631v0v-567v0h670v0v-45v-45v0h-670v0h-108zM916 1313l-464 -739v0h464v0v739v0z" />
    <glyph glyph-name="glyph153" 
d="M32 3l-24 -81v0q53 -6 87 -33q43 -33 43 -87q0 -72 -56 -116.5t-148 -44.5q-27 0 -52.5 4t-34.5 10l10 67q9 -5 32 -8.5t47 -3.5q61 0 94 23t33 66q0 29 -29.5 48.5t-74.5 19.5l-31 -1v0l41 137h63z" />
    <glyph glyph-name="Ccedilla" unicode="&#xc7;" horiz-adv-x="1386" 
d="M1339 112q-138 -70 -257 -99.5t-264 -29.5q-294 0 -506 211t-212 504q0 301 208.5 508.5t509.5 207.5q145 0 264 -29.5t257 -99.5v-110q-135 76 -253 109t-258 33q-252 0 -430.5 -181t-178.5 -438q0 -256 178.5 -437t430.5 -181q140 0 258 33t253 109v-110zM850 3
l-24 -81v0q53 -6 87 -33q43 -33 43 -87q0 -72 -56 -116.5t-148 -44.5q-27 0 -52.5 4t-34.5 10l10 67q9 -5 32 -8.5t47 -3.5q61 0 94 23t33 66q0 29 -29.5 48.5t-74.5 19.5l-31 -1v0l41 137h63z" />
    <glyph glyph-name="Egrave" unicode="&#xc8;" horiz-adv-x="1004" 
d="M164 0v0v1397v0h754v0v-45v-45v0h-646v0v-560v0h631v-45v-45v0h-631v0v-567v0h670v0v-45v-45v0h-778zM531 1526l-320 327h166l220 -327h-66z" />
    <glyph glyph-name="Eacute" unicode="&#xc9;" horiz-adv-x="1004" 
d="M164 0v0v1397v0h754v0v-45v-45v0h-646v0v-560v0h631v-45v-45v0h-631v0v-567v0h670v0v-45v-45v0h-778zM455 1526l222 327h166l-322 -327h-66z" />
    <glyph glyph-name="Ecircumflex" unicode="&#xca;" horiz-adv-x="1004" 
d="M164 0v0v1397v0h754v0v-45v-45v0h-646v0v-560v0h631v-45v-45v0h-631v0v-567v0h670v0v-45v-45v0h-778zM606 1862l218 -339h-87l-195 226v0l-195 -226h-87l218 339h64h64z" />
    <glyph glyph-name="Edieresis" unicode="&#xcb;" horiz-adv-x="1004" 
d="M164 0v0v1397v0h754v0v-45v-45v0h-646v0v-560v0h631v-45v-45v0h-631v0v-567v0h670v0v-45v-45v0h-778zM360 1702q37 0 63 -26t26 -64q0 -37 -26 -63t-63 -26t-63 26t-26 63q0 38 26 64t63 26zM723 1702q37 0 63 -26t26 -64q0 -37 -26 -63t-63 -26t-63 26t-26 63
q0 38 26 64t63 26z" />
    <glyph glyph-name="Igrave" unicode="&#xcc;" horiz-adv-x="426" 
d="M157 0v1397v0h54h54v0v-1397v0h-54h-54v0zM200 1526l-320 327h166l220 -327h-66z" />
    <glyph glyph-name="Iacute" unicode="&#xcd;" horiz-adv-x="426" 
d="M153 0v1397v0h54h54v0v-1397v0h-54h-54v0zM120 1526l222 327h166l-322 -327h-66z" />
    <glyph glyph-name="Icircumflex" unicode="&#xce;" horiz-adv-x="426" 
d="M160 0v1397v0h54h54v0v-1397v0h-54h-54v0zM278 1862l218 -339h-87l-195 226v0l-195 -226h-87l218 339h64h64z" />
    <glyph glyph-name="Idieresis" unicode="&#xcf;" horiz-adv-x="426" 
d="M160 0v1397v0h54h54v0v-1397v0h-54h-54v0zM32 1702q37 0 63 -26t26 -64q0 -37 -26 -63t-63 -26t-63 26t-26 63q0 38 26 64t63 26zM395 1702q37 0 63 -26t26 -64q0 -37 -26 -63t-63 -26t-63 26t-26 63q0 38 26 64t63 26z" />
    <glyph glyph-name="Eth" unicode="&#xd0;" horiz-adv-x="1516" 
d="M160 0v0v654v0h-207v90h207v0v653v0h54v0h464q331 0 533 -192t202 -507q0 -314 -207.5 -506t-548.5 -192h-443v0h-54zM268 1300v0v-556v0h462v-90h-462v0v-557v0h389q290 0 463.5 164t173.5 437q0 274 -167.5 438t-448.5 164h-410z" />
    <glyph glyph-name="Ntilde" unicode="&#xd1;" horiz-adv-x="1579" 
d="M268 0v0h-54h-54v0v1397v0h46h46v0l1059 -1203v0v0v1203v0h54h54v0v-1411h-33h-34l-1084 1230v0v0v-1216zM454 1522q6 93 47 143t111 50q40 0 82.5 -11t113.5 -41q72 -30 108.5 -41t62.5 -11q27 0 49.5 27.5t31.5 72.5h64q-6 -93 -47 -143t-111 -50q-39 0 -81 11.5
t-115 41.5q-70 29 -107 40t-64 11t-49.5 -27.5t-31.5 -72.5h-64z" />
    <glyph glyph-name="Ograve" unicode="&#xd2;" horiz-adv-x="1686" 
d="M843 -17q-303 0 -521 211t-218 504q0 294 218 505t521 211q304 0 522 -211t218 -505q0 -293 -218 -504t-522 -211v0zM843 80q258 0 439.5 181t181.5 437q0 257 -181.5 438t-439.5 181q-257 0 -438.5 -181t-181.5 -438q0 -256 181.5 -437t438.5 -181v0zM832 1526l-320 327
h166l220 -327h-66z" />
    <glyph glyph-name="Oacute" unicode="&#xd3;" horiz-adv-x="1686" 
d="M843 -17q-303 0 -521 211t-218 504q0 294 218 505t521 211q304 0 522 -211t218 -505q0 -293 -218 -504t-522 -211v0zM843 80q258 0 439.5 181t181.5 437q0 257 -181.5 438t-439.5 181q-257 0 -438.5 -181t-181.5 -438q0 -256 181.5 -437t438.5 -181v0zM756 1526l222 327
h166l-322 -327h-66z" />
    <glyph glyph-name="Ocircumflex" unicode="&#xd4;" horiz-adv-x="1686" 
d="M843 -17q-303 0 -521 211t-218 504q0 294 218 505t521 211q304 0 522 -211t218 -505q0 -293 -218 -504t-522 -211v0zM843 80q258 0 439.5 181t181.5 437q0 257 -181.5 438t-439.5 181q-257 0 -438.5 -181t-181.5 -438q0 -256 181.5 -437t438.5 -181v0zM907 1862l218 -339
h-87l-195 226v0l-195 -226h-87l218 339h64h64z" />
    <glyph glyph-name="Otilde" unicode="&#xd5;" horiz-adv-x="1686" 
d="M843 -17q-303 0 -521 211t-218 504q0 294 218 505t521 211q304 0 522 -211t218 -505q0 -293 -218 -504t-522 -211v0zM843 80q258 0 439.5 181t181.5 437q0 257 -181.5 438t-439.5 181q-257 0 -438.5 -181t-181.5 -438q0 -256 181.5 -437t438.5 -181v0zM508 1522
q6 93 47 143t111 50q40 0 82.5 -11t113.5 -41q72 -30 108.5 -41t62.5 -11q27 0 49.5 27.5t31.5 72.5h64q-6 -93 -47 -143t-111 -50q-39 0 -81 11.5t-115 41.5q-70 29 -107 40t-64 11t-49.5 -27.5t-31.5 -72.5h-64z" />
    <glyph glyph-name="Odieresis" unicode="&#xd6;" horiz-adv-x="1686" 
d="M843 -17q-303 0 -521 211t-218 504q0 294 218 505t521 211q304 0 522 -211t218 -505q0 -293 -218 -504t-522 -211v0zM843 80q258 0 439.5 181t181.5 437q0 257 -181.5 438t-439.5 181q-257 0 -438.5 -181t-181.5 -438q0 -256 181.5 -437t438.5 -181v0zM661 1702
q37 0 63 -26t26 -64q0 -37 -26 -63t-63 -26t-63 26t-26 63q0 38 26 64t63 26zM1024 1702q37 0 63 -26t26 -64q0 -37 -26 -63t-63 -26t-63 26t-26 63q0 38 26 64t63 26z" />
    <glyph glyph-name="multiply" unicode="&#xd7;" horiz-adv-x="1352" 
d="M674 657l-348 -348l-62 62l348 348l-348 348l62 62l348 -348l348 348l62 -62l-348 -348l348 -348l-62 -62z" />
    <glyph glyph-name="Oslash" unicode="&#xd8;" horiz-adv-x="1686" 
d="M843 645l-423 -399q177 -165 423 -166v0q258 0 439.5 181t181.5 437q1 230 -145 396zM843 -17q-288 0 -500 190l-183 -173l-56 55l183 173q-182 201 -183 470q0 294 218 505t521 211q289 0 500 -190l183 173l56 -55l-183 -172q183 -202 184 -472q0 -293 -218 -504
t-522 -211v0zM843 1317q-257 0 -438.5 -181t-181.5 -438q-1 -225 143 -396l477 450l423 400q-176 165 -423 165z" />
    <glyph glyph-name="Ugrave" unicode="&#xd9;" horiz-adv-x="1430" 
d="M1300 627q0 -299 -156 -471.5t-428 -172.5t-428.5 172.5t-156.5 471.5v770v0h54h54v0v-776q0 -251 128 -395t349 -144q222 0 349 144t127 395v776v0h54h54v0v-770zM704 1526l-320 327h166l220 -327h-66z" />
    <glyph glyph-name="Uacute" unicode="&#xda;" horiz-adv-x="1430" 
d="M1300 627q0 -299 -156 -471.5t-428 -172.5t-428.5 172.5t-156.5 471.5v770v0h54h54v0v-776q0 -251 128 -395t349 -144q222 0 349 144t127 395v776v0h54h54v0v-770zM628 1526l222 327h166l-322 -327h-66z" />
    <glyph glyph-name="Ucircumflex" unicode="&#xdb;" horiz-adv-x="1430" 
d="M1300 627q0 -299 -156 -471.5t-428 -172.5t-428.5 172.5t-156.5 471.5v770v0h54h54v0v-776q0 -251 128 -395t349 -144q222 0 349 144t127 395v776v0h54h54v0v-770zM779 1862l218 -339h-87l-195 226v0l-195 -226h-87l218 339h64h64z" />
    <glyph glyph-name="Udieresis" unicode="&#xdc;" horiz-adv-x="1430" 
d="M1300 627q0 -299 -156 -471.5t-428 -172.5t-428.5 172.5t-156.5 471.5v770v0h54h54v0v-776q0 -251 128 -395t349 -144q222 0 349 144t127 395v776v0h54h54v0v-770zM533 1702q37 0 63 -26t26 -64q0 -37 -26 -63t-63 -26t-63 26t-26 63q0 38 26 64t63 26zM896 1702
q37 0 63 -26t26 -64q0 -37 -26 -63t-63 -26t-63 26t-26 63q0 38 26 64t63 26z" />
    <glyph glyph-name="Yacute" unicode="&#xdd;" horiz-adv-x="1194" 
d="M543 751v0l-543 646v0h68h69v0l462 -561v0l467 561v0h64h64v0l-543 -639v0v-758h-54h-54v751zM510 1526l222 327h166l-322 -327h-66z" />
    <glyph glyph-name="Thorn" unicode="&#xde;" horiz-adv-x="1044" 
d="M160 0v1397v0h54h54v0v-322v0h245q234 0 361 -98.5t127 -279.5t-127 -278.5t-361 -97.5h-245v0v-321v0h-54h-54v0zM882 697q0 136 -95 208.5t-274 72.5h-245v0v-560v0h245q179 0 274 72t95 207z" />
    <glyph glyph-name="germandbls" unicode="&#xdf;" horiz-adv-x="1024" 
d="M225 1008v-1008v0h-49h-49v0v1008v0q0 187 102.5 296.5t278.5 109.5q169 0 272.5 -91t103.5 -240q0 -137 -96 -236q-40 -41 -88 -66q78 -28 135 -90q105 -113 105 -299q0 -169 -107 -291t-255 -122q-30 0 -58.5 4.5t-75.5 16.5v99q38 -13 66 -18.5t60 -5.5q121 0 195 90
t74 237q0 157 -73 242t-208 85v95q101 0 163 70.5t62 186.5q0 121 -73 187t-207 66q-132 0 -205 -86q-73 -85 -73 -240z" />
    <glyph glyph-name="glyph179" 
d="M-10 3l-318 327h161l221 -327h-64z" />
    <glyph glyph-name="agrave" unicode="&#xe0;" horiz-adv-x="874" 
d="M316 -21q-102 0 -172 66.5t-70 163.5q0 156 153 251q147 92 381 95v0v116q0 92 -50 135t-157 43q-76 0 -143.5 -28t-133.5 -86v105q73 53 145 77t158 24q129 0 204 -63.5t75 -171.5v-586q0 -23 7.5 -33.5t23.5 -10.5q12 0 48.5 23t75.5 55l1 -76q-45 -39 -101 -67.5
t-89 -28.5q-31 0 -47.5 28.5t-16.5 81.5v2q-43 -36 -101 -66q-98 -49 -191 -49zM608 185v292v0q-177 -4 -306 -77q-134 -77 -134 -186q0 -63 53 -105.5t131 -42.5q77 0 147 32.5t109 86.5v0zM399 1049l-318 327h161l221 -327h-64z" />
    <glyph glyph-name="glyph181" 
d="M-60 3l222 327h166l-322 -327h-66z" />
    <glyph glyph-name="aacute" unicode="&#xe1;" horiz-adv-x="874" 
d="M316 -21q-102 0 -172 66.5t-70 163.5q0 156 153 251q147 92 381 95v0v116q0 92 -50 135t-157 43q-76 0 -143.5 -28t-133.5 -86v105q73 53 145 77t158 24q129 0 204 -63.5t75 -171.5v-586q0 -23 7.5 -33.5t23.5 -10.5q12 0 48.5 23t75.5 55l1 -76q-45 -39 -101 -67.5
t-89 -28.5q-31 0 -47.5 28.5t-16.5 81.5v2q-43 -36 -101 -66q-98 -49 -191 -49zM608 185v292v0q-177 -4 -306 -77q-134 -77 -134 -186q0 -63 53 -105.5t131 -42.5q77 0 147 32.5t109 86.5v0zM349 1049l222 327h166l-322 -327h-66z" />
    <glyph glyph-name="glyph183" 
d="M64 339l218 -339h-87l-195 226v0l-195 -226h-87l218 339h64h64z" />
    <glyph glyph-name="acircumflex" unicode="&#xe2;" horiz-adv-x="874" 
d="M316 -21q-102 0 -172 66.5t-70 163.5q0 156 153 251q147 92 381 95v0v116q0 92 -50 135t-157 43q-76 0 -143.5 -28t-133.5 -86v105q73 53 145 77t158 24q129 0 204 -63.5t75 -171.5v-586q0 -23 7.5 -33.5t23.5 -10.5q12 0 48.5 23t75.5 55l1 -76q-45 -39 -101 -67.5
t-89 -28.5q-31 0 -47.5 28.5t-16.5 81.5v2q-43 -36 -101 -66q-98 -49 -191 -49zM608 185v292v0q-177 -4 -306 -77q-134 -77 -134 -186q0 -63 53 -105.5t131 -42.5q77 0 147 32.5t109 86.5v0zM473 1385l218 -339h-87l-195 226v0l-195 -226h-87l218 339h64h64z" />
    <glyph glyph-name="glyph185" 
d="M-335 -1q6 93 47 143t111 50q40 0 82.5 -11t113.5 -41q72 -30 108.5 -41t62.5 -11q27 0 49.5 27.5t31.5 72.5h64q-6 -93 -47 -143t-111 -50q-39 0 -81 11.5t-115 41.5q-70 29 -107 40t-64 11t-49.5 -27.5t-31.5 -72.5h-64z" />
    <glyph glyph-name="atilde" unicode="&#xe3;" horiz-adv-x="874" 
d="M316 -21q-102 0 -172 66.5t-70 163.5q0 156 153 251q147 92 381 95v0v116q0 92 -50 135t-157 43q-76 0 -143.5 -28t-133.5 -86v105q73 53 145 77t158 24q129 0 204 -63.5t75 -171.5v-586q0 -23 7.5 -33.5t23.5 -10.5q12 0 48.5 23t75.5 55l1 -76q-45 -39 -101 -67.5
t-89 -28.5q-31 0 -47.5 28.5t-16.5 81.5v2q-43 -36 -101 -66q-98 -49 -191 -49zM608 185v292v0q-177 -4 -306 -77q-134 -77 -134 -186q0 -63 53 -105.5t131 -42.5q77 0 147 32.5t109 86.5v0zM74 1045q6 93 47 143t111 50q40 0 82.5 -11t113.5 -41q72 -30 108.5 -41t62.5 -11
q27 0 49.5 27.5t31.5 72.5h64q-6 -93 -47 -143t-111 -50q-39 0 -81 11.5t-115 41.5q-70 29 -107 40t-64 11t-49.5 -27.5t-31.5 -72.5h-64z" />
    <glyph glyph-name="glyph187" 
d="M-182 179q37 0 63 -26t26 -64q0 -37 -26 -63t-63 -26t-63 26t-26 63q0 38 26 64t63 26zM181 179q37 0 63 -26t26 -64q0 -37 -26 -63t-63 -26t-63 26t-26 63q0 38 26 64t63 26z" />
    <glyph glyph-name="adieresis" unicode="&#xe4;" horiz-adv-x="874" 
d="M316 -21q-102 0 -172 66.5t-70 163.5q0 156 153 251q147 92 381 95v0v116q0 92 -50 135t-157 43q-76 0 -143.5 -28t-133.5 -86v105q73 53 145 77t158 24q129 0 204 -63.5t75 -171.5v-586q0 -23 7.5 -33.5t23.5 -10.5q12 0 48.5 23t75.5 55l1 -76q-45 -39 -101 -67.5
t-89 -28.5q-31 0 -47.5 28.5t-16.5 81.5v2q-43 -36 -101 -66q-98 -49 -191 -49zM608 185v292v0q-177 -4 -306 -77q-134 -77 -134 -186q0 -63 53 -105.5t131 -42.5q77 0 147 32.5t109 86.5v0zM227 1225q37 0 63 -26t26 -64q0 -37 -26 -63t-63 -26t-63 26t-26 63q0 38 26 64
t63 26zM590 1225q37 0 63 -26t26 -64q0 -37 -26 -63t-63 -26t-63 26t-26 63q0 38 26 64t63 26z" />
    <glyph glyph-name="glyph189" 
d="M0 -42q-74 0 -125.5 51.5t-51.5 125.5t51.5 125.5t125.5 51.5t125.5 -51.5t51.5 -125.5t-51.5 -125.5t-125.5 -51.5v0zM0 12q52 0 87.5 35.5t35.5 87.5t-35.5 87.5t-87.5 35.5t-87.5 -35.5t-35.5 -87.5t35.5 -87.5t87.5 -35.5v0z" />
    <glyph glyph-name="aring" unicode="&#xe5;" horiz-adv-x="874" 
d="M316 -21q-102 0 -172 66.5t-70 163.5q0 156 153 251q147 92 381 95v0v116q0 92 -50 135t-157 43q-76 0 -143.5 -28t-133.5 -86v105q73 53 145 77t158 24q129 0 204 -63.5t75 -171.5v-586q0 -23 7.5 -33.5t23.5 -10.5q12 0 48.5 23t75.5 55l1 -76q-45 -39 -101 -67.5
t-89 -28.5q-31 0 -47.5 28.5t-16.5 81.5v2q-43 -36 -101 -66q-98 -49 -191 -49zM608 185v292v0q-177 -4 -306 -77q-134 -77 -134 -186q0 -63 53 -105.5t131 -42.5q77 0 147 32.5t109 86.5v0zM409 1004q-74 0 -125.5 51.5t-51.5 125.5t51.5 125.5t125.5 51.5t125.5 -51.5
t51.5 -125.5t-51.5 -125.5t-125.5 -51.5v0zM409 1058q52 0 87.5 35.5t35.5 87.5t-35.5 87.5t-87.5 35.5t-87.5 -35.5t-35.5 -87.5t35.5 -87.5t87.5 -35.5v0z" />
    <glyph glyph-name="ae" unicode="&#xe6;" horiz-adv-x="1366" 
d="M421 941q129 0 204 -64q36 -30 54 -70v0q100 133 250 134q173 0 267 -126q89 -116 93 -330v0h-589v0v-21q0 -196 73 -288.5t228 -92.5q78 0 149.5 32t139.5 97v-102q-71 -67 -145.5 -99t-157.5 -32q-184 0 -301 121l-24 27v0q-65 -65 -161.5 -106.5t-179.5 -41.5
q-106 0 -179.5 66.5t-73.5 163.5q0 130 134 222.5t400 147.5v0v92q0 92 -50 135t-157 43q-76 0 -143.5 -28t-133.5 -86v105q73 53 145.5 77t157.5 24zM602 185v315v0q-197 -44 -316 -118q-124 -78 -124 -168q0 -63 53 -105.5t131 -42.5q62 0 132 32.5t124 86.5v0zM1182 563
v0q-13 109 -59 180q-65 103 -179 103q-126 0 -185 -93q-43 -67 -55 -190v0h478z" />
    <glyph glyph-name="glyph192" 
d="M32 3l-24 -81v0q53 -6 87 -33q43 -33 43 -87q0 -72 -56 -116.5t-148 -44.5q-27 0 -52.5 4t-34.5 10l10 67q9 -5 32 -8.5t47 -3.5q61 0 94 23t33 66q0 29 -29.5 48.5t-74.5 19.5l-31 -1v0l41 137h63z" />
    <glyph glyph-name="ccedilla" unicode="&#xe7;" horiz-adv-x="854" 
d="M793 28q-72 -27 -127 -38t-121 -11q-202 0 -330.5 134.5t-128.5 345.5q0 212 128.5 347t330.5 135q57 0 107.5 -11t119.5 -38v-100q-74 28 -127 39t-114 11q-143 0 -243.5 -112t-100.5 -271q0 -177 98 -279t269 -102q62 0 115 11t124 39v-100zM577 3l-24 -81v0
q53 -6 87 -33q43 -33 43 -87q0 -72 -56 -116.5t-148 -44.5q-27 0 -52.5 4t-34.5 10l10 67q9 -5 32 -8.5t47 -3.5q61 0 94 23t33 66q0 29 -29.5 48.5t-74.5 19.5l-31 -1v0l41 137h63z" />
    <glyph glyph-name="egrave" unicode="&#xe8;" horiz-adv-x="981" 
d="M562 -21q-211 0 -345.5 134.5t-134.5 345.5q0 212 116 347t298 135q199 0 307 -126q102 -116 107 -330v0h-727v0v-21q0 -158 112 -269.5t271 -111.5q96 0 179 31t166 98v-102q-82 -68 -166.5 -99.5t-182.5 -31.5zM801 563v0q-16 109 -75 180q-84 103 -230 103
q-130 0 -222 -112q-60 -74 -82 -171v0h609zM503 1049l-318 327h161l221 -327h-64z" />
    <glyph glyph-name="eacute" unicode="&#xe9;" horiz-adv-x="981" 
d="M562 -21q-211 0 -345.5 134.5t-134.5 345.5q0 212 116 347t298 135q199 0 307 -126q102 -116 107 -330v0h-727v0v-21q0 -158 112 -269.5t271 -111.5q96 0 179 31t166 98v-102q-82 -68 -166.5 -99.5t-182.5 -31.5zM801 563v0q-16 109 -75 180q-84 103 -230 103
q-130 0 -222 -112q-60 -74 -82 -171v0h609zM453 1049l222 327h166l-322 -327h-66z" />
    <glyph glyph-name="ecircumflex" unicode="&#xea;" horiz-adv-x="981" 
d="M562 -21q-211 0 -345.5 134.5t-134.5 345.5q0 212 116 347t298 135q199 0 307 -126q102 -116 107 -330v0h-727v0v-21q0 -158 112 -269.5t271 -111.5q96 0 179 31t166 98v-102q-82 -68 -166.5 -99.5t-182.5 -31.5zM801 563v0q-16 109 -75 180q-84 103 -230 103
q-130 0 -222 -112q-60 -74 -82 -171v0h609zM577 1385l218 -339h-87l-195 226v0l-195 -226h-87l218 339h64h64z" />
    <glyph glyph-name="edieresis" unicode="&#xeb;" horiz-adv-x="981" 
d="M562 -21q-211 0 -345.5 134.5t-134.5 345.5q0 212 116 347t298 135q199 0 307 -126q102 -116 107 -330v0h-727v0v-21q0 -158 112 -269.5t271 -111.5q96 0 179 31t166 98v-102q-82 -68 -166.5 -99.5t-182.5 -31.5zM801 563v0q-16 109 -75 180q-84 103 -230 103
q-130 0 -222 -112q-60 -74 -82 -171v0h609zM331 1225q37 0 63 -26t26 -64q0 -37 -26 -63t-63 -26t-63 26t-26 63q0 38 26 64t63 26zM694 1225q37 0 63 -26t26 -64q0 -37 -26 -63t-63 -26t-63 26t-26 63q0 38 26 64t63 26z" />
    <glyph glyph-name="dotlessi" unicode="&#x131;" horiz-adv-x="385" 
d="M143 0v920v0h49h49v0v-920v0h-49h-49v0z" />
    <glyph glyph-name="igrave" unicode="&#xec;" horiz-adv-x="385" 
d="M139 0v920v0h49h49v0v-920v0h-49h-49v0zM178 1049l-318 327h161l221 -327h-64z" />
    <glyph glyph-name="iacute" unicode="&#xed;" horiz-adv-x="385" 
d="M141 0v920v0h49h49v0v-920v0h-49h-49v0zM130 1049l222 327h166l-322 -327h-66z" />
    <glyph glyph-name="icircumflex" unicode="&#xee;" horiz-adv-x="385" 
d="M145 0v920v0h49h49v0v-920v0h-49h-49v0zM258 1385l218 -339h-87l-195 226v0l-195 -226h-87l218 339h64h64z" />
    <glyph glyph-name="idieresis" unicode="&#xef;" horiz-adv-x="385" 
d="M145 0v920v0h49h49v0v-920v0h-49h-49v0zM12 1225q37 0 63 -26t26 -64q0 -37 -26 -63t-63 -26t-63 26t-26 63q0 38 26 64t63 26zM375 1225q37 0 63 -26t26 -64q0 -37 -26 -63t-63 -26t-63 26t-26 63q0 38 26 64t63 26z" />
    <glyph glyph-name="eth" unicode="&#xf0;" horiz-adv-x="1145" 
d="M575 -21q-205 0 -336 134t-131 344q0 211 131 345t336 134q134 0 249 -70l38 -25v0q-34 72 -83 141q-71 98 -159 176l-294 -147l-31 65l262 131q-94 67 -208 115l38 75q142 -59 257 -146l293 146l31 -65l-263 -132q88 -77 158 -175q180 -250 180 -536q0 -230 -128.5 -370
t-339.5 -140zM209 457q0 -159 107 -271t259 -112t259.5 112t107.5 271t-107.5 271.5t-259.5 112.5t-259 -113q-107 -112 -107 -271z" />
    <glyph glyph-name="ntilde" unicode="&#xf1;" horiz-adv-x="1004" 
d="M127 0v920v0h49h49v0v-156v0v0l24 31q114 146 283 146q154 0 248 -103.5t94 -272.5v-565v0h-49h-49v0v559q0 128 -71 206.5t-188 78.5q-130 0 -236 -120q-30 -34 -56 -76v0v-648v0h-49h-49v0zM165 1045q6 93 47 143t111 50q40 0 82.5 -11t113.5 -41q72 -30 108.5 -41
t62.5 -11q27 0 49.5 27.5t31.5 72.5h64q-6 -93 -47 -143t-111 -50q-39 0 -81 11.5t-115 41.5q-70 29 -107 40t-64 11t-49.5 -27.5t-31.5 -72.5h-64z" />
    <glyph glyph-name="ograve" unicode="&#xf2;" horiz-adv-x="1110" 
d="M554 -21q-206 0 -337 134.5t-131 345.5q0 212 131 347t337 135t337 -135t131 -347q0 -211 -131 -345.5t-337 -134.5v0zM554 74q152 0 259.5 112.5t107.5 272.5q0 161 -107.5 274t-259.5 113t-259.5 -113t-107.5 -274q0 -160 107.5 -272.5t259.5 -112.5v0zM544 1049
l-318 327h161l221 -327h-64z" />
    <glyph glyph-name="oacute" unicode="&#xf3;" horiz-adv-x="1110" 
d="M554 -21q-206 0 -337 134.5t-131 345.5q0 212 131 347t337 135t337 -135t131 -347q0 -211 -131 -345.5t-337 -134.5v0zM554 74q152 0 259.5 112.5t107.5 272.5q0 161 -107.5 274t-259.5 113t-259.5 -113t-107.5 -274q0 -160 107.5 -272.5t259.5 -112.5v0zM494 1049
l222 327h166l-322 -327h-66z" />
    <glyph glyph-name="ocircumflex" unicode="&#xf4;" horiz-adv-x="1110" 
d="M554 -21q-206 0 -337 134.5t-131 345.5q0 212 131 347t337 135t337 -135t131 -347q0 -211 -131 -345.5t-337 -134.5v0zM554 74q152 0 259.5 112.5t107.5 272.5q0 161 -107.5 274t-259.5 113t-259.5 -113t-107.5 -274q0 -160 107.5 -272.5t259.5 -112.5v0zM618 1385
l218 -339h-87l-195 226v0l-195 -226h-87l218 339h64h64z" />
    <glyph glyph-name="otilde" unicode="&#xf5;" horiz-adv-x="1110" 
d="M554 -21q-206 0 -337 134.5t-131 345.5q0 212 131 347t337 135t337 -135t131 -347q0 -211 -131 -345.5t-337 -134.5v0zM554 74q152 0 259.5 112.5t107.5 272.5q0 161 -107.5 274t-259.5 113t-259.5 -113t-107.5 -274q0 -160 107.5 -272.5t259.5 -112.5v0zM219 1045
q6 93 47 143t111 50q40 0 82.5 -11t113.5 -41q72 -30 108.5 -41t62.5 -11q27 0 49.5 27.5t31.5 72.5h64q-6 -93 -47 -143t-111 -50q-39 0 -81 11.5t-115 41.5q-70 29 -107 40t-64 11t-49.5 -27.5t-31.5 -72.5h-64z" />
    <glyph glyph-name="odieresis" unicode="&#xf6;" horiz-adv-x="1110" 
d="M554 -21q-206 0 -337 134.5t-131 345.5q0 212 131 347t337 135t337 -135t131 -347q0 -211 -131 -345.5t-337 -134.5v0zM554 74q152 0 259.5 112.5t107.5 272.5q0 161 -107.5 274t-259.5 113t-259.5 -113t-107.5 -274q0 -160 107.5 -272.5t259.5 -112.5v0zM372 1225
q37 0 63 -26t26 -64q0 -37 -26 -63t-63 -26t-63 26t-26 63q0 38 26 64t63 26zM735 1225q37 0 63 -26t26 -64q0 -37 -26 -63t-63 -26t-63 26t-26 63q0 38 26 64t63 26z" />
    <glyph glyph-name="divide" unicode="&#xf7;" horiz-adv-x="1352" 
d="M675 461q33 0 56 -23t23 -56t-23 -56t-56 -23t-56 23t-23 56t23 56t56 23zM139 764h1072v-89h-1072v89zM675 1136q33 0 56 -23t23 -56t-23 -56t-56 -23t-56 23t-23 56t23 56t56 23z" />
    <glyph glyph-name="oslash" unicode="&#xf8;" horiz-adv-x="1110" 
d="M554 416l-247 -243q104 -99 247 -99v0q152 0 259.5 112.5t107.5 272.5q1 137 -80 240zM554 -21q-194 0 -322 120l-101 -99l-45 43l102 101q-101 127 -102 315q0 212 131 347t337 135q194 0 322 -120l101 99l45 -43l-102 -101q101 -129 102 -317q0 -211 -131 -345.5
t-337 -134.5v0zM554 846q-152 0 -259.5 -113t-107.5 -274q0 -137 78 -239l289 284l246 242q-102 100 -246 100z" />
    <glyph glyph-name="ugrave" unicode="&#xf9;" horiz-adv-x="1004" 
d="M225 920v-559q0 -128 71 -206.5t188 -78.5q130 0 236 120q30 34 56 76v0v648v0h49h49v0v-920v0h-49h-49v0v159v0v0l-24 -34q-114 -146 -283 -146q-154 0 -248 103.5t-94 272.5v565v0h49h49v0zM490 1049l-318 327h161l221 -327h-64z" />
    <glyph glyph-name="uacute" unicode="&#xfa;" horiz-adv-x="1004" 
d="M225 920v-559q0 -128 71 -206.5t188 -78.5q130 0 236 120q30 34 56 76v0v648v0h49h49v0v-920v0h-49h-49v0v159v0v0l-24 -34q-114 -146 -283 -146q-154 0 -248 103.5t-94 272.5v565v0h49h49v0zM440 1049l222 327h166l-322 -327h-66z" />
    <glyph glyph-name="ucircumflex" unicode="&#xfb;" horiz-adv-x="1004" 
d="M225 920v-559q0 -128 71 -206.5t188 -78.5q130 0 236 120q30 34 56 76v0v648v0h49h49v0v-920v0h-49h-49v0v159v0v0l-24 -34q-114 -146 -283 -146q-154 0 -248 103.5t-94 272.5v565v0h49h49v0zM564 1385l218 -339h-87l-195 226v0l-195 -226h-87l218 339h64h64z" />
    <glyph glyph-name="udieresis" unicode="&#xfc;" horiz-adv-x="1004" 
d="M225 920v-559q0 -128 71 -206.5t188 -78.5q130 0 236 120q30 34 56 76v0v648v0h49h49v0v-920v0h-49h-49v0v159v0v0l-24 -34q-114 -146 -283 -146q-154 0 -248 103.5t-94 272.5v565v0h49h49v0zM318 1225q37 0 63 -26t26 -64q0 -37 -26 -63t-63 -26t-63 26t-26 63
q0 38 26 64t63 26zM681 1225q37 0 63 -26t26 -64q0 -37 -26 -63t-63 -26t-63 26t-26 63q0 38 26 64t63 26z" />
    <glyph glyph-name="yacute" unicode="&#xfd;" horiz-adv-x="854" 
d="M866 920l-693 -1416v0h-53h-53v0l331 675v0l-386 741v0h53h53v0l335 -652v0v0l316 652v0h48h49v0zM379 1049l222 327h166l-322 -327h-66z" />
    <glyph glyph-name="thorn" unicode="&#xfe;" horiz-adv-x="1044" 
d="M129 1397v0h49h49v0v-527v0l19 10q111 61 249 61q208 0 335.5 -132.5t127.5 -349.5q0 -206 -132 -343t-331 -137q-144 0 -251 59l-17 9v0v-522v0h-49h-49v0v1872zM481 76q167 0 269.5 105.5t102.5 277.5q0 160 -109 272.5t-263 112.5q-116 0 -199 -38q-31 -15 -55 -31v0
v-625v0q26 -18 59 -34q88 -40 195 -40z" />
    <glyph glyph-name="ydieresis" unicode="&#xff;" horiz-adv-x="854" 
d="M866 920l-693 -1416v0h-53h-53v0l331 675v0l-386 741v0h53h53v0l335 -652v0v0l316 652v0h48h49v0zM257 1225q37 0 63 -26t26 -64q0 -37 -26 -63t-63 -26t-63 26t-26 63q0 38 26 64t63 26zM620 1225q37 0 63 -26t26 -64q0 -37 -26 -63t-63 -26t-63 26t-26 63q0 38 26 64
t63 26z" />
    <glyph glyph-name="glyph219" 
d="M-271 87h564v-87h-564v87z" />
    <glyph glyph-name="Amacron" unicode="&#x100;" horiz-adv-x="1366" 
d="M8 0l645 1411h30h30l645 -1411v0h-59h-60v0l-220 484v0h-682v0l-217 -484v0h-56h-56v0zM678 1236l-299 -662v0h600v0l-301 662v0v0zM412 1610h564v-87h-564v87z" />
    <glyph glyph-name="glyph221" 
d="M-271 87h564v-87h-564v87z" />
    <glyph glyph-name="amacron" unicode="&#x101;" horiz-adv-x="874" 
d="M316 -21q-102 0 -172 66.5t-70 163.5q0 156 153 251q147 92 381 95v0v116q0 92 -50 135t-157 43q-76 0 -143.5 -28t-133.5 -86v105q73 53 145 77t158 24q129 0 204 -63.5t75 -171.5v-586q0 -23 7.5 -33.5t23.5 -10.5q12 0 48.5 23t75.5 55l1 -76q-45 -39 -101 -67.5
t-89 -28.5q-31 0 -47.5 28.5t-16.5 81.5v2q-43 -36 -101 -66q-98 -49 -191 -49zM608 185v292v0q-177 -4 -306 -77q-134 -77 -134 -186q0 -63 53 -105.5t131 -42.5q77 0 147 32.5t109 86.5v0zM138 1133h564v-87h-564v87z" />
    <glyph glyph-name="glyph223" 
d="M0 0q-123 0 -201.5 66.5t-78.5 170.5h74q0 -68 60.5 -115.5t145.5 -47.5t145.5 47.5t60.5 115.5h74q0 -104 -78.5 -170.5t-201.5 -66.5z" />
    <glyph glyph-name="Abreve" unicode="&#x102;" horiz-adv-x="1366" 
d="M8 0l645 1411h30h30l645 -1411v0h-59h-60v0l-220 484v0h-682v0l-217 -484v0h-56h-56v0zM678 1236l-299 -662v0h600v0l-301 662v0v0zM683 1523q-123 0 -201.5 66.5t-78.5 170.5h74q0 -68 60.5 -115.5t145.5 -47.5t145.5 47.5t60.5 115.5h74q0 -104 -78.5 -170.5
t-201.5 -66.5z" />
    <glyph glyph-name="glyph225" 
d="M0 0q-123 0 -201.5 66.5t-78.5 170.5h74q0 -68 60.5 -115.5t145.5 -47.5t145.5 47.5t60.5 115.5h74q0 -104 -78.5 -170.5t-201.5 -66.5z" />
    <glyph glyph-name="abreve" unicode="&#x103;" horiz-adv-x="874" 
d="M316 -21q-102 0 -172 66.5t-70 163.5q0 156 153 251q147 92 381 95v0v116q0 92 -50 135t-157 43q-76 0 -143.5 -28t-133.5 -86v105q73 53 145 77t158 24q129 0 204 -63.5t75 -171.5v-586q0 -23 7.5 -33.5t23.5 -10.5q12 0 48.5 23t75.5 55l1 -76q-45 -39 -101 -67.5
t-89 -28.5q-31 0 -47.5 28.5t-16.5 81.5v2q-43 -36 -101 -66q-98 -49 -191 -49zM608 185v292v0q-177 -4 -306 -77q-134 -77 -134 -186q0 -63 53 -105.5t131 -42.5q77 0 147 32.5t109 86.5v0zM409 1046q-123 0 -201.5 66.5t-78.5 170.5h74q0 -68 60.5 -115.5t145.5 -47.5
t145.5 47.5t60.5 115.5h74q0 -104 -78.5 -170.5t-201.5 -66.5z" />
    <glyph glyph-name="glyph227" 
d="M-143 -182q0 73 37 123.5t112 78.5h67q-60 -53 -84.5 -90.5t-24.5 -74.5q0 -54 38 -84t106 -30h25v-78q-16 -5 -38.5 -8t-44.5 -3q-85 0 -139 47q-54 46 -54 119z" />
    <glyph glyph-name="Aogonek" unicode="&#x104;" horiz-adv-x="1366" 
d="M8 0l645 1411h30h30l645 -1411v0h-59h-60v0l-220 484v0h-682v0l-217 -484v0h-56h-56v0zM678 1236l-299 -662v0h600v0l-301 662v0v0zM1096 -182q0 73 37 123.5t112 78.5h67q-60 -53 -84.5 -90.5t-24.5 -74.5q0 -54 38 -84t106 -30h25v-78q-16 -5 -38.5 -8t-44.5 -3
q-85 0 -139 47q-54 46 -54 119z" />
    <glyph glyph-name="glyph229" 
d="M-143 -182q0 73 37 123.5t112 78.5h67q-60 -53 -84.5 -90.5t-24.5 -74.5q0 -54 38 -84t106 -30h25v-78q-16 -5 -38.5 -8t-44.5 -3q-85 0 -139 47q-54 46 -54 119z" />
    <glyph glyph-name="aogonek" unicode="&#x105;" horiz-adv-x="874" 
d="M316 -21q-102 0 -172 66.5t-70 163.5q0 156 153 251q147 92 381 95v0v116q0 92 -50 135t-157 43q-76 0 -143.5 -28t-133.5 -86v105q73 53 145 77t158 24q129 0 204 -63.5t75 -171.5v-586q0 -23 7.5 -33.5t23.5 -10.5q12 0 48.5 23t75.5 55l1 -76q-45 -39 -101 -67.5
t-89 -28.5q-31 0 -47.5 28.5t-16.5 81.5v2q-43 -36 -101 -66q-98 -49 -191 -49zM608 185v292v0q-177 -4 -306 -77q-134 -77 -134 -186q0 -63 53 -105.5t131 -42.5q77 0 147 32.5t109 86.5v0zM485 -182q0 73 37 123.5t112 78.5h67q-60 -53 -84.5 -90.5t-24.5 -74.5
q0 -54 38 -84t106 -30h25v-78q-16 -5 -38.5 -8t-44.5 -3q-85 0 -139 47q-54 46 -54 119z" />
    <glyph glyph-name="Cacute" unicode="&#x106;" horiz-adv-x="1386" 
d="M1339 112q-138 -70 -257 -99.5t-264 -29.5q-294 0 -506 211t-212 504q0 301 208.5 508.5t509.5 207.5q145 0 264 -29.5t257 -99.5v-110q-135 76 -253 109t-258 33q-252 0 -430.5 -181t-178.5 -438q0 -256 178.5 -437t430.5 -181q140 0 258 33t253 109v-110zM731 1526
l222 327h166l-322 -327h-66z" />
    <glyph glyph-name="cacute" unicode="&#x107;" horiz-adv-x="854" 
d="M793 28q-72 -27 -127 -38t-121 -11q-202 0 -330.5 134.5t-128.5 345.5q0 212 128.5 347t330.5 135q57 0 107.5 -11t119.5 -38v-100q-74 28 -127 39t-114 11q-143 0 -243.5 -112t-100.5 -271q0 -177 98 -279t269 -102q62 0 115 11t124 39v-100zM457 1049l222 327h166
l-322 -327h-66z" />
    <glyph glyph-name="glyph233" 
d="M-64 1l-218 339h87l195 -226v0l195 226h87l-218 -339h-64h-64z" />
    <glyph glyph-name="Ccaron" unicode="&#x10c;" horiz-adv-x="1386" 
d="M1339 112q-138 -70 -257 -99.5t-264 -29.5q-294 0 -506 211t-212 504q0 301 208.5 508.5t509.5 207.5q145 0 264 -29.5t257 -99.5v-110q-135 76 -253 109t-258 33q-252 0 -430.5 -181t-178.5 -438q0 -256 178.5 -437t430.5 -181q140 0 258 33t253 109v-110zM754 1524
l-218 339h87l195 -226v0l195 226h87l-218 -339h-64h-64z" />
    <glyph glyph-name="glyph235" 
d="M-64 1l-218 339h87l195 -226v0l195 226h87l-218 -339h-64h-64z" />
    <glyph glyph-name="ccaron" unicode="&#x10d;" horiz-adv-x="854" 
d="M793 28q-72 -27 -127 -38t-121 -11q-202 0 -330.5 134.5t-128.5 345.5q0 212 128.5 347t330.5 135q57 0 107.5 -11t119.5 -38v-100q-74 28 -127 39t-114 11q-143 0 -243.5 -112t-100.5 -271q0 -177 98 -279t269 -102q62 0 115 11t124 39v-100zM453 1047l-218 339h87
l195 -226v0l195 226h87l-218 -339h-64h-64z" />
    <glyph glyph-name="Dcaron" unicode="&#x10e;" horiz-adv-x="1516" 
d="M162 0v1397v0h54v0h463q331 0 532.5 -192t201.5 -507q0 -314 -207 -506t-547 -192h-443v0h-54v0zM270 97v0h389q289 0 462 164t173 437q0 274 -167.5 438t-447.5 164h-409v0v-1203zM598 1524l-218 339h87l195 -226v0l195 226h87l-218 -339h-64h-64z" />
    <glyph glyph-name="glyph238" 
d="M-255 -21q-217 0 -350 132t-133 348q0 207 137.5 344.5t345.5 137.5q133 0 237 -69l18 -12v0v537v0h49h49v0v-1397v0h-49h-49v0v65v0l-21 -14q-107 -72 -234 -72zM-258 844q-169 0 -272 -106t-103 -279q0 -159 109.5 -271t264.5 -112q113 0 197 48q37 21 62 49v0v570v0
q-25 26 -65 49q-89 52 -193 52z" />
    <glyph glyph-name="glyph239" 
d="M0 302v71h44h51v-126q0 -53 -26.5 -106.5t-68.5 -83.5v0v51v0q18 22 24 53l5 69v0h-29v72z" />
    <glyph glyph-name="dcaron" unicode="&#x10f;" horiz-adv-x="1140" 
d="M567 -21q-217 0 -350 132t-133 348q0 207 137.5 344.5t345.5 137.5q133 0 237 -69l18 -12v0v537v0h49h49v0v-1397v0h-49h-49v0v65v0l-21 -14q-107 -72 -234 -72zM564 844q-169 0 -272 -106t-103 -279q0 -159 109.5 -271t264.5 -112q113 0 197 48q37 21 62 49v0v570v0
q-25 26 -65 49q-89 52 -193 52zM1046 1383v71h44h51v-126q0 -53 -26.5 -106.5t-68.5 -83.5v0v51v0q18 22 24 53l5 69v0h-29v72z" />
    <glyph glyph-name="Dcroat" unicode="&#x110;" horiz-adv-x="1516" 
d="M160 0v0v654v0h-207v90h207v0v653v0h54v0h464q331 0 533 -192t202 -507q0 -314 -207.5 -506t-548.5 -192h-443v0h-54zM268 1300v0v-556v0h462v-90h-462v0v-557v0h389q290 0 463.5 164t173.5 437q0 274 -167.5 438t-448.5 164h-410z" />
    <glyph glyph-name="dcroat" unicode="&#x111;" horiz-adv-x="1044" 
d="M567 -21q-217 0 -350 132t-133 348q0 207 137.5 344.5t345.5 137.5q133 0 237 -69l18 -12v0v224h-370v78h370v235v0h49h49v0v-235h117v-78h-117v-1084v0h-49h-49v0v65v0l-21 -14q-107 -72 -234 -72zM564 844q-169 0 -272 -106t-103 -279q0 -159 109.5 -271t264.5 -112
q113 0 197 48q37 21 62 49v0v570v0q-25 26 -65 49q-89 52 -193 52z" />
    <glyph glyph-name="Emacron" unicode="&#x112;" horiz-adv-x="1004" 
d="M164 0v0v1397v0h754v0v-45v-45v0h-646v0v-560v0h631v-45v-45v0h-631v0v-567v0h670v0v-45v-45v0h-778zM271 1610h564v-87h-564v87z" />
    <glyph glyph-name="emacron" unicode="&#x113;" horiz-adv-x="981" 
d="M562 -21q-211 0 -345.5 134.5t-134.5 345.5q0 212 116 347t298 135q199 0 307 -126q102 -116 107 -330v0h-727v0v-21q0 -158 112 -269.5t271 -111.5q96 0 179 31t166 98v-102q-82 -68 -166.5 -99.5t-182.5 -31.5zM801 563v0q-16 109 -75 180q-84 103 -230 103
q-130 0 -222 -112q-60 -74 -82 -171v0h609zM242 1133h564v-87h-564v87z" />
    <glyph glyph-name="glyph245" 
d="M-59 199h118v-172h-118v172z" />
    <glyph glyph-name="Edotaccent" unicode="&#x116;" horiz-adv-x="1004" 
d="M164 0v0v1397v0h754v0v-45v-45v0h-646v0v-560v0h631v-45v-45v0h-631v0v-567v0h670v0v-45v-45v0h-778zM483 1722h118v-172h-118v172z" />
    <glyph glyph-name="glyph247" 
d="M-59 199h118v-172h-118v172z" />
    <glyph glyph-name="edotaccent" unicode="&#x117;" horiz-adv-x="981" 
d="M562 -21q-211 0 -345.5 134.5t-134.5 345.5q0 212 116 347t298 135q199 0 307 -126q102 -116 107 -330v0h-727v0v-21q0 -158 112 -269.5t271 -111.5q96 0 179 31t166 98v-102q-82 -68 -166.5 -99.5t-182.5 -31.5zM801 563v0q-16 109 -75 180q-84 103 -230 103
q-130 0 -222 -112q-60 -74 -82 -171v0h609zM454 1245h118v-172h-118v172z" />
    <glyph glyph-name="Eogonek" unicode="&#x118;" horiz-adv-x="1004" 
d="M164 0v0v1397v0h754v0v-45v-45v0h-646v0v-560v0h631v-45v-45v0h-631v0v-567v0h670v0v-45v-45v0h-778zM643 -182q0 73 37 123.5t112 78.5h67q-60 -53 -84.5 -90.5t-24.5 -74.5q0 -54 38 -84t106 -30h25v-78q-16 -5 -38.5 -8t-44.5 -3q-85 0 -139 47q-54 46 -54 119z" />
    <glyph glyph-name="eogonek" unicode="&#x119;" horiz-adv-x="981" 
d="M562 -21q-211 0 -345.5 134.5t-134.5 345.5q0 212 116 347t298 135q199 0 307 -126q102 -116 107 -330v0h-727v0v-21q0 -158 112 -269.5t271 -111.5q96 0 179 31t166 98v-102q-82 -68 -166.5 -99.5t-182.5 -31.5zM801 563v0q-16 109 -75 180q-84 103 -230 103
q-130 0 -222 -112q-60 -74 -82 -171v0h609zM478 -182q0 73 37 123.5t112 78.5h67q-60 -53 -84.5 -90.5t-24.5 -74.5q0 -54 38 -84t106 -30h25v-78q-16 -5 -38.5 -8t-44.5 -3q-85 0 -139 47q-54 46 -54 119z" />
    <glyph glyph-name="Ecaron" unicode="&#x11a;" horiz-adv-x="1004" 
d="M164 0v0v1397v0h754v0v-45v-45v0h-646v0v-560v0h631v-45v-45v0h-631v0v-567v0h670v0v-45v-45v0h-778zM478 1524l-218 339h87l195 -226v0l195 226h87l-218 -339h-64h-64z" />
    <glyph glyph-name="ecaron" unicode="&#x11b;" horiz-adv-x="981" 
d="M562 -21q-211 0 -345.5 134.5t-134.5 345.5q0 212 116 347t298 135q199 0 307 -126q102 -116 107 -330v0h-727v0v-21q0 -158 112 -269.5t271 -111.5q96 0 179 31t166 98v-102q-82 -68 -166.5 -99.5t-182.5 -31.5zM801 563v0q-16 109 -75 180q-84 103 -230 103
q-130 0 -222 -112q-60 -74 -82 -171v0h609zM449 1047l-218 339h87l195 -226v0l195 226h87l-218 -339h-64h-64z" />
    <glyph glyph-name="Gbreve" unicode="&#x11e;" horiz-adv-x="1473" 
d="M854 -17q-315 0 -533.5 207.5t-218.5 507.5q0 301 210 508.5t513 207.5q142 0 262.5 -29t270.5 -100v-110q-134 76 -254 109t-265 33q-262 0 -440 -178t-178 -441t178 -440.5t440 -177.5q231 1 411 96v0v433v0h-293v90h401v-584v0q-219 -132 -504 -132zM825 1523
q-123 0 -201.5 66.5t-78.5 170.5h74q0 -68 60.5 -115.5t145.5 -47.5t145.5 47.5t60.5 115.5h74q0 -104 -78.5 -170.5t-201.5 -66.5z" />
    <glyph glyph-name="gbreve" unicode="&#x11f;" horiz-adv-x="874" 
d="M249 138q0 -48 64 -72.5t192 -26.5q185 -3 267 -60.5t82 -184.5q0 -125 -113.5 -195t-315.5 -70q-182 0 -285 66t-103 184q0 80 71 139.5t173 65.5v0l-46 25q-80 52 -80 121q0 55 55 99t134 53v0q-91 18 -156 82q-90 90 -90 232q0 143 94.5 233.5t242.5 90.5q35 1 67 -6
v0h352v-76h-198v0q11 -5 18 -14q99 -95 99 -228q0 -142 -99 -232q-72 -66 -174 -84v0q-126 -24 -189 -60q-62 -35 -62 -82zM435 844q-102 0 -174.5 -72.5t-72.5 -175.5q0 -102 72.5 -174t174.5 -72q103 0 175.5 72t72.5 174q0 103 -73 176q-72 72 -175 72zM128 -215
q0 -80 80 -125t221 -45q157 0 245 46.5t88 128.5q0 75 -68 118t-189 45l-61 1q-14 0 -37 -2t-42 -5q-115 -20 -171 -54q-66 -40 -66 -108zM435 1046q-123 0 -201.5 66.5t-78.5 170.5h74q0 -68 60.5 -115.5t145.5 -47.5t145.5 47.5t60.5 115.5h74q0 -104 -78.5 -170.5
t-201.5 -66.5z" />
    <glyph glyph-name="glyph255" 
d="M0 302v71h44h51v-126q0 -53 -26.5 -106.5t-68.5 -83.5v0v51v0q18 22 24 53l5 69v0h-29v72z" />
    <glyph glyph-name="Gcommaaccent" unicode="&#x122;" horiz-adv-x="1473" 
d="M854 -17q-315 0 -533.5 207.5t-218.5 507.5q0 301 210 508.5t513 207.5q142 0 262.5 -29t270.5 -100v-110q-134 76 -254 109t-265 33q-262 0 -440 -178t-178 -441t178 -440.5t440 -177.5q231 1 411 96v0v433v0h-293v90h401v-584v0q-219 -132 -504 -132zM807 -139v71h44
h51v-126q0 -53 -26.5 -106.5t-68.5 -83.5v0v51v0q18 22 24 53l5 69v0h-29v72z" />
    <glyph glyph-name="glyph257" 
d="M47 71v-71h-44h-51v126q0 53 26.5 106.5t68.5 83.5v0v-51v0q-18 -22 -24 -53l-5 -69v0h29v-72z" />
    <glyph glyph-name="gcommaaccent" unicode="&#x123;" horiz-adv-x="874" 
d="M249 138q0 -48 64 -72.5t192 -26.5q185 -3 267 -60.5t82 -184.5q0 -125 -113.5 -195t-315.5 -70q-182 0 -285 66t-103 184q0 80 71 139.5t173 65.5v0l-46 25q-80 52 -80 121q0 55 55 99t134 53v0q-91 18 -156 82q-90 90 -90 232q0 143 94.5 233.5t242.5 90.5q35 1 67 -6
v0h352v-76h-198v0q11 -5 18 -14q99 -95 99 -228q0 -142 -99 -232q-72 -66 -174 -84v0q-126 -24 -189 -60q-62 -35 -62 -82zM435 844q-102 0 -174.5 -72.5t-72.5 -175.5q0 -102 72.5 -174t174.5 -72q103 0 175.5 72t72.5 174q0 103 -73 176q-72 72 -175 72zM128 -215
q0 -80 80 -125t221 -45q157 0 245 46.5t88 128.5q0 75 -68 118t-189 45l-61 1q-14 0 -37 -2t-42 -5q-115 -20 -171 -54q-66 -40 -66 -108zM482 1117v-71h-44h-51v126q0 53 26.5 106.5t68.5 83.5v0v-51v0q-18 -22 -24 -53l-5 -69v0h29v-72z" />
    <glyph glyph-name="Imacron" unicode="&#x12a;" horiz-adv-x="426" 
d="M162 0v1397v0h54h54v0v-1397v0h-54h-54v0zM-55 1610h564v-87h-564v87z" />
    <glyph glyph-name="imacron" unicode="&#x12b;" horiz-adv-x="385" 
d="M142 0v920v0h49h49v0v-920v0h-49h-49v0zM-80 1133h564v-87h-564v87z" />
    <glyph glyph-name="Iogonek" unicode="&#x12e;" horiz-adv-x="426" 
d="M152 0v1397v0h54h54v0v-1397v0h-54h-54v0zM35 -182q0 73 37 123.5t112 78.5h67q-60 -53 -84.5 -90.5t-24.5 -74.5q0 -54 38 -84t106 -30h25v-78q-16 -5 -38.5 -8t-44.5 -3q-85 0 -139 47q-54 46 -54 119z" />
    <glyph glyph-name="iogonek" unicode="&#x12f;" horiz-adv-x="385" 
d="M142 0v920v0h49h49v0v-920v0h-49h-49v0zM142 1397h98v-168h-98v168zM20 -182q0 73 37 123.5t112 78.5h67q-60 -53 -84.5 -90.5t-24.5 -74.5q0 -54 38 -84t106 -30h25v-78q-16 -5 -38.5 -8t-44.5 -3q-85 0 -139 47q-54 46 -54 119z" />
    <glyph glyph-name="Idotaccent" unicode="&#x130;" horiz-adv-x="426" 
d="M165 0v1397v0h54h54v0v-1397v0h-54h-54v0zM160 1722h118v-172h-118v172z" />
    <glyph glyph-name="Kcommaaccent" unicode="&#x136;" horiz-adv-x="1087" 
d="M264 0v0h-54h-54v0v1397v0h54h54v0v-701v0l686 701v0h67h67v0l-687 -693v0l736 -704v0h-74h-74v0l-721 702v0v-702zM577 -139v71h44h51v-126q0 -53 -26.5 -106.5t-68.5 -83.5v0v51v0q18 22 24 53l5 69v0h-29v72z" />
    <glyph glyph-name="kcommaaccent" unicode="&#x137;" horiz-adv-x="874" 
d="M219 1397v-1397v0h-49h-49v0v1397v0h49h49v0zM800 0l-556 460v0l507 460v0h65h66v0l-497 -456v0l563 -464v0h-74h-74v0zM462 -139v71h44h51v-126q0 -53 -26.5 -106.5t-68.5 -83.5v0v51v0q18 22 24 53l5 69v0h-29v72z" />
    <glyph glyph-name="Lacute" unicode="&#x139;" horiz-adv-x="961" 
d="M195 0v0v1397v0h54h54v0v-1307v0h691v0v-45v-45v0h-799zM162 1526l222 327h166l-322 -327h-66z" />
    <glyph glyph-name="lacute" unicode="&#x13a;" horiz-adv-x="385" 
d="M181 0v1397v0h49h49v0v-1397v0h-49h-49v0zM143 1526l222 327h166l-322 -327h-66z" />
    <glyph glyph-name="Lcommaaccent" unicode="&#x13b;" horiz-adv-x="961" 
d="M162 0v0v1397v0h54h54v0v-1307v0h691v0v-45v-45v0h-799zM514 -139v71h44h51v-126q0 -53 -26.5 -106.5t-68.5 -83.5v0v51v0q18 22 24 53l5 69v0h-29v72z" />
    <glyph glyph-name="lcommaaccent" unicode="&#x13c;" horiz-adv-x="385" 
d="M143 0v1397v0h49h49v0v-1397v0h-49h-49v0zM145 -139v71h44h51v-126q0 -53 -26.5 -106.5t-68.5 -83.5v0v51v0q18 22 24 53l5 69v0h-29v72z" />
    <glyph glyph-name="Lcaron" unicode="&#x13d;" horiz-adv-x="961" 
d="M162 0v0v1397v0h54h54v0v-1307v0h691v0v-45v-45v0h-799zM396 1383v71h44h51v-126q0 -53 -26.5 -106.5t-68.5 -83.5v0v51v0q18 22 24 53l5 69v0h-29v72z" />
    <glyph glyph-name="lcaron" unicode="&#x13e;" horiz-adv-x="460" 
d="M143 0v1397v0h49h49v0v-1397v0h-49h-49v0zM367 1383v71h44h51v-126q0 -53 -26.5 -106.5t-68.5 -83.5v0v51v0q18 22 24 53l5 69v0h-29v72z" />
    <glyph glyph-name="Lslash" unicode="&#x141;" horiz-adv-x="961" 
d="M162 0v0v673l-248 -207v101l248 207v623v0h54h54v0v-534l248 207v-101l-248 -207v-672v0h691v0v-45v-45v0h-799z" />
    <glyph glyph-name="lslash" unicode="&#x142;" horiz-adv-x="385" 
d="M146 0v679l-203 -163v101l203 163v617v0h49h49v0v-539l202 162v-101l-202 -162v-757v0h-49h-49v0z" />
    <glyph glyph-name="Nacute" unicode="&#x143;" horiz-adv-x="1579" 
d="M268 0v0h-54h-54v0v1397v0h46h46v0l1059 -1203v0v0v1203v0h54h54v0v-1411h-33h-34l-1084 1230v0v0v-1216zM702 1526l222 327h166l-322 -327h-66z" />
    <glyph glyph-name="nacute" unicode="&#x144;" horiz-adv-x="1004" 
d="M127 0v920v0h49h49v0v-156v0v0l24 31q114 146 283 146q154 0 248 -103.5t94 -272.5v-565v0h-49h-49v0v559q0 128 -71 206.5t-188 78.5q-130 0 -236 -120q-30 -34 -56 -76v0v-648v0h-49h-49v0zM440 1049l222 327h166l-322 -327h-66z" />
    <glyph glyph-name="Ncommaaccent" unicode="&#x145;" horiz-adv-x="1579" 
d="M268 0v0h-54h-54v0v1397v0h46h46v0l1059 -1203v0v0v1203v0h54h54v0v-1411h-33h-34l-1084 1230v0v0v-1216zM742 -139v71h44h51v-126q0 -53 -26.5 -106.5t-68.5 -83.5v0v51v0q18 22 24 53l5 69v0h-29v72z" />
    <glyph glyph-name="ncommaaccent" unicode="&#x146;" horiz-adv-x="1004" 
d="M127 0v920v0h49h49v0v-156v0v0l24 31q114 146 283 146q154 0 248 -103.5t94 -272.5v-565v0h-49h-49v0v559q0 128 -71 206.5t-188 78.5q-130 0 -236 -120q-30 -34 -56 -76v0v-648v0h-49h-49v0zM453 -139v71h44h51v-126q0 -53 -26.5 -106.5t-68.5 -83.5v0v51v0q18 22 24 53
l5 69v0h-29v72z" />
    <glyph glyph-name="Ncaron" unicode="&#x147;" horiz-adv-x="1579" 
d="M268 0v0h-54h-54v0v1397v0h46h46v0l1059 -1203v0v0v1203v0h54h54v0v-1411h-33h-34l-1084 1230v0v0v-1216zM725 1524l-218 339h87l195 -226v0l195 226h87l-218 -339h-64h-64z" />
    <glyph glyph-name="ncaron" unicode="&#x148;" horiz-adv-x="1004" 
d="M127 0v920v0h49h49v0v-156v0v0l24 31q114 146 283 146q154 0 248 -103.5t94 -272.5v-565v0h-49h-49v0v559q0 128 -71 206.5t-188 78.5q-130 0 -236 -120q-30 -34 -56 -76v0v-648v0h-49h-49v0zM436 1047l-218 339h87l195 -226v0l195 226h87l-218 -339h-64h-64z" />
    <glyph glyph-name="Omacron" unicode="&#x14c;" horiz-adv-x="1686" 
d="M843 -17q-303 0 -521 211t-218 504q0 294 218 505t521 211q304 0 522 -211t218 -505q0 -293 -218 -504t-522 -211v0zM843 80q258 0 439.5 181t181.5 437q0 257 -181.5 438t-439.5 181q-257 0 -438.5 -181t-181.5 -438q0 -256 181.5 -437t438.5 -181v0zM572 1610h564v-87
h-564v87z" />
    <glyph glyph-name="omacron" unicode="&#x14d;" horiz-adv-x="1110" 
d="M554 -21q-206 0 -337 134.5t-131 345.5q0 212 131 347t337 135t337 -135t131 -347q0 -211 -131 -345.5t-337 -134.5v0zM554 74q152 0 259.5 112.5t107.5 272.5q0 161 -107.5 274t-259.5 113t-259.5 -113t-107.5 -274q0 -160 107.5 -272.5t259.5 -112.5v0zM283 1133h564
v-87h-564v87z" />
    <glyph glyph-name="glyph282" 
d="M-182 16l222 327h166l-322 -327h-66zM91 16l222 327h166l-322 -327h-66z" />
    <glyph glyph-name="Ohungarumlaut" unicode="&#x150;" horiz-adv-x="1686" 
d="M843 -17q-303 0 -521 211t-218 504q0 294 218 505t521 211q304 0 522 -211t218 -505q0 -293 -218 -504t-522 -211v0zM843 80q258 0 439.5 181t181.5 437q0 257 -181.5 438t-439.5 181q-257 0 -438.5 -181t-181.5 -438q0 -256 181.5 -437t438.5 -181v0zM661 1539l222 327
h166l-322 -327h-66zM934 1539l222 327h166l-322 -327h-66z" />
    <glyph glyph-name="glyph284" 
d="M-182 16l222 327h166l-322 -327h-66zM91 16l222 327h166l-322 -327h-66z" />
    <glyph glyph-name="ohungarumlaut" unicode="&#x151;" horiz-adv-x="1110" 
d="M554 -21q-206 0 -337 134.5t-131 345.5q0 212 131 347t337 135t337 -135t131 -347q0 -211 -131 -345.5t-337 -134.5v0zM554 74q152 0 259.5 112.5t107.5 272.5q0 161 -107.5 274t-259.5 113t-259.5 -113t-107.5 -274q0 -160 107.5 -272.5t259.5 -112.5v0zM372 1062
l222 327h166l-322 -327h-66zM645 1062l222 327h166l-322 -327h-66z" />
    <glyph glyph-name="OE" unicode="&#x152;" horiz-adv-x="1835" 
d="M793 1397h186h108v0h646v0v-45v-45v0h-646v0v-560v0h631v-45v-45v0h-631v0v-567v0h670v0v-45v-45v0h-670v0h-108h-186q-290 0 -499.5 206t-209.5 492q0 287 210 493q209 206 499 206zM835 1300q-262 0 -447 -176t-185 -426q0 -249 185 -425t447 -176q76 0 144 15v0v1176
v0q-68 10 -144 12z" />
    <glyph glyph-name="oe" unicode="&#x153;" horiz-adv-x="1706" 
d="M490 941q179 0 293 -135q38 -44 62 -98v0q29 54 66 98q116 135 298 135q199 0 307 -126q102 -116 107 -330v0h-727v0v-21q0 -158 112 -269.5t271 -111.5q96 0 179 31t166 98v-102q-82 -68 -166.5 -99.5t-182.5 -31.5q-211 0 -346 135q-48 48 -79 106v0q-27 -59 -68 -107
q-113 -134 -292 -134t-292.5 134.5t-113.5 345.5q0 212 114 347q113 135 292 135zM490 846q-127 0 -216 -113t-89 -274q0 -160 89 -272.5t216 -112.5t216 112.5t89 272.5q0 161 -89 274t-216 113zM1514 563v0q-16 109 -75 180q-84 103 -230 103q-130 0 -222 -112
q-60 -74 -82 -171v0h609z" />
    <glyph glyph-name="Racute" unicode="&#x154;" horiz-adv-x="1174" 
d="M162 0v1397v0h54v0h291q224 0 350.5 -96t126.5 -267q0 -170 -127 -266q-58 -44 -139 -68v0q31 -21 74 -67q82 -88 163 -215l265 -418v0h-62h-62v0l-265 418q-98 155 -162.5 202.5t-177.5 47.5h-221v0v-668v0h-54h-54v0zM270 755v0h238q170 0 263.5 71.5t93.5 200.5
q0 130 -93.5 201.5t-263.5 71.5h-238v0v-545zM445 1526l222 327h166l-322 -327h-66z" />
    <glyph glyph-name="racute" unicode="&#x155;" horiz-adv-x="682" 
d="M109 0v920v0h49h49v0v-252v0v0q58 105 133 178q100 95 200 95q44 0 92.5 -27t111.5 -86l-50 -87q-67 57 -111.5 81t-83.5 24q-63 0 -135 -67t-157 -205v0v-574v0h-49h-49v0zM366 1049l222 327h166l-322 -327h-66z" />
    <glyph glyph-name="Rcommaaccent" unicode="&#x156;" horiz-adv-x="1174" 
d="M162 0v1397v0h54v0h291q224 0 350.5 -96t126.5 -267q0 -170 -127 -266q-58 -44 -139 -68v0q31 -21 74 -67q82 -88 163 -215l265 -418v0h-62h-62v0l-265 418q-98 155 -162.5 202.5t-177.5 47.5h-221v0v-668v0h-54h-54v0zM270 755v0h238q170 0 263.5 71.5t93.5 200.5
q0 130 -93.5 201.5t-263.5 71.5h-238v0v-545zM636 -139v71h44h51v-126q0 -53 -26.5 -106.5t-68.5 -83.5v0v51v0q18 22 24 53l5 69v0h-29v72z" />
    <glyph glyph-name="rcommaaccent" unicode="&#x157;" horiz-adv-x="682" 
d="M109 0v920v0h49h49v0v-252v0v0q58 105 133 178q100 95 200 95q44 0 92.5 -27t111.5 -86l-50 -87q-67 57 -111.5 81t-83.5 24q-63 0 -135 -67t-157 -205v0v-574v0h-49h-49v0zM111 -139v71h44h51v-126q0 -53 -26.5 -106.5t-68.5 -83.5v0v51v0q18 22 24 53l5 69v0h-29v72z
" />
    <glyph glyph-name="Rcaron" unicode="&#x158;" horiz-adv-x="1174" 
d="M162 0v1397v0h54v0h291q224 0 350.5 -96t126.5 -267q0 -170 -127 -266q-58 -44 -139 -68v0q31 -21 74 -67q82 -88 163 -215l265 -418v0h-62h-62v0l-265 418q-98 155 -162.5 202.5t-177.5 47.5h-221v0v-668v0h-54h-54v0zM270 755v0h238q170 0 263.5 71.5t93.5 200.5
q0 130 -93.5 201.5t-263.5 71.5h-238v0v-545zM468 1524l-218 339h87l195 -226v0l195 226h87l-218 -339h-64h-64z" />
    <glyph glyph-name="rcaron" unicode="&#x159;" horiz-adv-x="682" 
d="M109 0v920v0h49h49v0v-252v0v0q58 105 133 178q100 95 200 95q44 0 92.5 -27t111.5 -86l-50 -87q-67 57 -111.5 81t-83.5 24q-63 0 -135 -67t-157 -205v0v-574v0h-49h-49v0zM362 1047l-218 339h87l195 -226v0l195 226h87l-218 -339h-64h-64z" />
    <glyph glyph-name="Sacute" unicode="&#x15a;" horiz-adv-x="961" 
d="M823 1210q-98 56 -171 81.5t-135 25.5q-130 0 -219.5 -80.5t-89.5 -196.5q0 -91 68 -154q67 -62 229 -120q210 -76 291 -166q81 -89 81 -246q0 -156 -114.5 -263.5t-280.5 -107.5q-100 0 -186.5 29t-178.5 93v123q100 -75 185.5 -111.5t163.5 -36.5q125 0 211 84.5
t86 207.5q0 95 -71 164q-70 68 -225 124q-218 78 -296 161q-77 82 -77 236q0 150 122.5 253.5t300.5 103.5q76 0 147 -20t159 -67v-117zM430 1526l222 327h166l-322 -327h-66z" />
    <glyph glyph-name="sacute" unicode="&#x15b;" horiz-adv-x="725" 
d="M634 764q-65 43 -123.5 62.5t-121.5 19.5q-85 0 -144.5 -42.5t-59.5 -102.5q0 -63 41 -101t164 -86q160 -63 216 -122t56 -163q0 -103 -89 -176.5t-212 -73.5q-56 0 -120.5 19t-156.5 62v96q89 -44 154 -63t123 -19q85 0 145 49.5t60 119.5q0 60 -42 97q-42 36 -168 86
q-157 62 -212 119t-55 156q0 98 88.5 169t211.5 71q62 0 120 -19t125 -62v-96zM329 1049l222 327h166l-322 -327h-66z" />
    <glyph glyph-name="Scedilla" unicode="&#x15e;" horiz-adv-x="961" 
d="M823 1210q-98 56 -171 81.5t-135 25.5q-130 0 -219.5 -80.5t-89.5 -196.5q0 -91 68 -154q67 -62 229 -120q210 -76 291 -166q81 -89 81 -246q0 -156 -114.5 -263.5t-280.5 -107.5q-100 0 -186.5 29t-178.5 93v123q100 -75 185.5 -111.5t163.5 -36.5q125 0 211 84.5
t86 207.5q0 95 -71 164q-70 68 -225 124q-218 78 -296 161q-77 82 -77 236q0 150 122.5 253.5t300.5 103.5q76 0 147 -20t159 -67v-117zM514 3l-24 -81v0q53 -6 87 -33q43 -33 43 -87q0 -72 -56 -116.5t-148 -44.5q-27 0 -52.5 4t-34.5 10l10 67q9 -5 32 -8.5t47 -3.5
q61 0 94 23t33 66q0 29 -29.5 48.5t-74.5 19.5l-31 -1v0l41 137h63z" />
    <glyph glyph-name="scedilla" unicode="&#x15f;" horiz-adv-x="725" 
d="M634 764q-65 43 -123.5 62.5t-121.5 19.5q-85 0 -144.5 -42.5t-59.5 -102.5q0 -63 41 -101t164 -86q160 -63 216 -122t56 -163q0 -103 -89 -176.5t-212 -73.5q-56 0 -120.5 19t-156.5 62v96q89 -44 154 -63t123 -19q85 0 145 49.5t60 119.5q0 60 -42 97q-42 36 -168 86
q-157 62 -212 119t-55 156q0 98 88.5 169t211.5 71q62 0 120 -19t125 -62v-96zM393 3l-24 -81v0q53 -6 87 -33q43 -33 43 -87q0 -72 -56 -116.5t-148 -44.5q-27 0 -52.5 4t-34.5 10l10 67q9 -5 32 -8.5t47 -3.5q61 0 94 23t33 66q0 29 -29.5 48.5t-74.5 19.5l-31 -1v0
l41 137h63z" />
    <glyph glyph-name="Scaron" unicode="&#x160;" horiz-adv-x="961" 
d="M823 1210q-98 56 -171 81.5t-135 25.5q-130 0 -219.5 -80.5t-89.5 -196.5q0 -91 68 -154q67 -62 229 -120q210 -76 291 -166q81 -89 81 -246q0 -156 -114.5 -263.5t-280.5 -107.5q-100 0 -186.5 29t-178.5 93v123q100 -75 185.5 -111.5t163.5 -36.5q125 0 211 84.5
t86 207.5q0 95 -71 164q-70 68 -225 124q-218 78 -296 161q-77 82 -77 236q0 150 122.5 253.5t300.5 103.5q76 0 147 -20t159 -67v-117zM453 1524l-218 339h87l195 -226v0l195 226h87l-218 -339h-64h-64z" />
    <glyph glyph-name="scaron" unicode="&#x161;" horiz-adv-x="725" 
d="M634 764q-65 43 -123.5 62.5t-121.5 19.5q-85 0 -144.5 -42.5t-59.5 -102.5q0 -63 41 -101t164 -86q160 -63 216 -122t56 -163q0 -103 -89 -176.5t-212 -73.5q-56 0 -120.5 19t-156.5 62v96q89 -44 154 -63t123 -19q85 0 145 49.5t60 119.5q0 60 -42 97q-42 36 -168 86
q-157 62 -212 119t-55 156q0 98 88.5 169t211.5 71q62 0 120 -19t125 -62v-96zM325 1047l-218 339h87l195 -226v0l195 226h87l-218 -339h-64h-64z" />
    <glyph glyph-name="glyph300" 
d="M32 3l-24 -81v0q53 -6 87 -33q43 -33 43 -87q0 -72 -56 -116.5t-148 -44.5q-27 0 -52.5 4t-34.5 10l10 67q9 -5 32 -8.5t47 -3.5q61 0 94 23t33 66q0 29 -29.5 48.5t-74.5 19.5l-31 -1v0l41 137h63z" />
    <glyph glyph-name="Tcommaaccent" unicode="&#x162;" horiz-adv-x="1174" 
d="M532 0v1307v0h-524v0v45v45v0h1157v0v-45v-45v0h-525v0v-1307v0h-54h-54v0zM618 3l-24 -81v0q53 -6 87 -33q43 -33 43 -87q0 -72 -56 -116.5t-148 -44.5q-27 0 -52.5 4t-34.5 10l10 67q9 -5 32 -8.5t47 -3.5q61 0 94 23t33 66q0 29 -29.5 48.5t-74.5 19.5l-31 -1v0
l41 137h63z" />
    <glyph glyph-name="glyph302" 
d="M32 3l-24 -81v0q53 -6 87 -33q43 -33 43 -87q0 -72 -56 -116.5t-148 -44.5q-27 0 -52.5 4t-34.5 10l10 67q9 -5 32 -8.5t47 -3.5q61 0 94 23t33 66q0 29 -29.5 48.5t-74.5 19.5l-31 -1v0l41 137h63z" />
    <glyph glyph-name="tcommaaccent" unicode="&#x163;" horiz-adv-x="618" 
d="M612 32q-70 -53 -177 -53q-105 0 -166 58.5t-61 159.5v642v0h-247v81h247v0v222l68 82h1h29v-34v-270v0h247v-81h-247v0v-614q0 -77 34 -113t107 -36q102 0 165 51v-95zM407 3l-24 -81v0q53 -6 87 -33q43 -33 43 -87q0 -72 -56 -116.5t-148 -44.5q-27 0 -52.5 4t-34.5 10
l10 67q9 -5 32 -8.5t47 -3.5q61 0 94 23t33 66q0 29 -29.5 48.5t-74.5 19.5l-31 -1v0l41 137h63z" />
    <glyph glyph-name="Tcaron" unicode="&#x164;" horiz-adv-x="1174" 
d="M532 0v1307v0h-524v0v45v45v0h1157v0v-45v-45v0h-525v0v-1307v0h-54h-54v0zM522 1524l-218 339h87l195 -226v0l195 226h87l-218 -339h-64h-64z" />
    <glyph glyph-name="tcaron" unicode="&#x165;" horiz-adv-x="618" 
d="M612 32q-70 -53 -177 -53q-105 0 -166 58.5t-61 159.5v642v0h-247v81h247v0v222l68 82h1h29v-34v-270v0h247v-81h-247v0v-614q0 -77 34 -113t107 -36q102 0 165 51v-95zM432 1276v71h44h51v-126q0 -53 -26.5 -106.5t-68.5 -83.5v0v51v0q18 22 24 53l5 69v0h-29v72z" />
    <glyph glyph-name="Umacron" unicode="&#x16a;" horiz-adv-x="1430" 
d="M1300 627q0 -299 -156 -471.5t-428 -172.5t-428.5 172.5t-156.5 471.5v770v0h54h54v0v-776q0 -251 128 -395t349 -144q222 0 349 144t127 395v776v0h54h54v0v-770zM444 1610h564v-87h-564v87z" />
    <glyph glyph-name="umacron" unicode="&#x16b;" horiz-adv-x="1004" 
d="M225 920v-559q0 -128 71 -206.5t188 -78.5q130 0 236 120q30 34 56 76v0v648v0h49h49v0v-920v0h-49h-49v0v159v0v0l-24 -34q-114 -146 -283 -146q-154 0 -248 103.5t-94 272.5v565v0h49h49v0zM229 1133h564v-87h-564v87z" />
    <glyph glyph-name="Uring" unicode="&#x16e;" horiz-adv-x="1430" 
d="M1300 627q0 -299 -156 -471.5t-428 -172.5t-428.5 172.5t-156.5 471.5v770v0h54h54v0v-776q0 -251 128 -395t349 -144q222 0 349 144t127 395v776v0h54h54v0v-770zM715 1481q-74 0 -125.5 51.5t-51.5 125.5t51.5 125.5t125.5 51.5t125.5 -51.5t51.5 -125.5t-51.5 -125.5
t-125.5 -51.5v0zM715 1535q52 0 87.5 35.5t35.5 87.5t-35.5 87.5t-87.5 35.5t-87.5 -35.5t-35.5 -87.5t35.5 -87.5t87.5 -35.5v0z" />
    <glyph glyph-name="uring" unicode="&#x16f;" horiz-adv-x="1004" 
d="M225 920v-559q0 -128 71 -206.5t188 -78.5q130 0 236 120q30 34 56 76v0v648v0h49h49v0v-920v0h-49h-49v0v159v0v0l-24 -34q-114 -146 -283 -146q-154 0 -248 103.5t-94 272.5v565v0h49h49v0zM500 1004q-74 0 -125.5 51.5t-51.5 125.5t51.5 125.5t125.5 51.5t125.5 -51.5
t51.5 -125.5t-51.5 -125.5t-125.5 -51.5v0zM500 1058q52 0 87.5 35.5t35.5 87.5t-35.5 87.5t-87.5 35.5t-87.5 -35.5t-35.5 -87.5t35.5 -87.5t87.5 -35.5v0z" />
    <glyph glyph-name="Uhungarumlaut" unicode="&#x170;" horiz-adv-x="1430" 
d="M1300 627q0 -299 -156 -471.5t-428 -172.5t-428.5 172.5t-156.5 471.5v770v0h54h54v0v-776q0 -251 128 -395t349 -144q222 0 349 144t127 395v776v0h54h54v0v-770zM533 1539l222 327h166l-322 -327h-66zM806 1539l222 327h166l-322 -327h-66z" />
    <glyph glyph-name="uhungarumlaut" unicode="&#x171;" horiz-adv-x="1004" 
d="M225 920v-559q0 -128 71 -206.5t188 -78.5q130 0 236 120q30 34 56 76v0v648v0h49h49v0v-920v0h-49h-49v0v159v0v0l-24 -34q-114 -146 -283 -146q-154 0 -248 103.5t-94 272.5v565v0h49h49v0zM318 1062l222 327h166l-322 -327h-66zM591 1062l222 327h166l-322 -327h-66z
" />
    <glyph glyph-name="Uogonek" unicode="&#x172;" horiz-adv-x="1430" 
d="M1300 627q0 -299 -156 -471.5t-428 -172.5t-428.5 172.5t-156.5 471.5v770v0h54h54v0v-776q0 -251 128 -395t349 -144q222 0 349 144t127 395v776v0h54h54v0v-770zM694 -182q0 73 37 123.5t112 78.5h67q-60 -53 -84.5 -90.5t-24.5 -74.5q0 -54 38 -84t106 -30h25v-78
q-16 -5 -38.5 -8t-44.5 -3q-85 0 -139 47q-54 46 -54 119z" />
    <glyph glyph-name="uogonek" unicode="&#x173;" horiz-adv-x="1004" 
d="M225 920v-559q0 -128 71 -206.5t188 -78.5q130 0 236 120q30 34 56 76v0v648v0h49h49v0v-920v0h-49h-49v0v159v0v0l-24 -34q-114 -146 -283 -146q-154 0 -248 103.5t-94 272.5v565v0h49h49v0zM653 -182q0 73 37 123.5t112 78.5h67q-60 -53 -84.5 -90.5t-24.5 -74.5
q0 -54 38 -84t106 -30h25v-78q-16 -5 -38.5 -8t-44.5 -3q-85 0 -139 47q-54 46 -54 119z" />
    <glyph glyph-name="Ydieresis" unicode="&#x178;" horiz-adv-x="1194" 
d="M543 751v0l-543 646v0h68h69v0l462 -561v0l467 561v0h64h64v0l-543 -639v0v-758h-54h-54v751zM415 1702q37 0 63 -26t26 -64q0 -37 -26 -63t-63 -26t-63 26t-26 63q0 38 26 64t63 26zM778 1702q37 0 63 -26t26 -64q0 -37 -26 -63t-63 -26t-63 26t-26 63q0 38 26 64t63 26
z" />
    <glyph glyph-name="Zacute" unicode="&#x179;" horiz-adv-x="1300" 
d="M18 48l1083 1259v0h-1026v0v45v45v0h1175l7 -24l7 -24l-1082 -1259v0h1075v0v-45v-45v0h-1225l-7 24zM575 1526l222 327h166l-322 -327h-66z" />
    <glyph glyph-name="zacute" unicode="&#x17a;" horiz-adv-x="811" 
d="M20 30l620 801v0h-564v0v44v45v0h713l7 -15l7 -15l-618 -801v0h592v0v-44v-45v0h-743l-7 15zM372 1049l222 327h166l-322 -327h-66z" />
    <glyph glyph-name="Zdotaccent" unicode="&#x17b;" horiz-adv-x="1300" 
d="M18 48l1083 1259v0h-1026v0v45v45v0h1175l7 -24l7 -24l-1082 -1259v0h1075v0v-45v-45v0h-1225l-7 24zM603 1722h118v-172h-118v172z" />
    <glyph glyph-name="zdotaccent" unicode="&#x17c;" horiz-adv-x="811" 
d="M20 30l620 801v0h-564v0v44v45v0h713l7 -15l7 -15l-618 -801v0h592v0v-44v-45v0h-743l-7 15zM373 1245h118v-172h-118v172z" />
    <glyph glyph-name="Zcaron" unicode="&#x17d;" horiz-adv-x="1300" 
d="M18 48l1083 1259v0h-1026v0v45v45v0h1175l7 -24l7 -24l-1082 -1259v0h1075v0v-45v-45v0h-1225l-7 24zM598 1524l-218 339h87l195 -226v0l195 226h87l-218 -339h-64h-64z" />
    <glyph glyph-name="zcaron" unicode="&#x17e;" horiz-adv-x="811" 
d="M20 30l620 801v0h-564v0v44v45v0h713l7 -15l7 -15l-618 -801v0h592v0v-44v-45v0h-743l-7 15zM368 1047l-218 339h87l195 -226v0l195 226h87l-218 -339h-64h-64z" />
    <glyph glyph-name="florin" unicode="&#x192;" horiz-adv-x="1139" 
d="M728 977v0l-257 -1155q-29 -130 -97.5 -192t-181.5 -62q-106 0 -178 26l36 87q55 -15 128 -16q68 0 108 38t58 119l257 1155v0h-178l18 81h178v0l32 144q33 146 107.5 216t198.5 70q94 0 156 -34l-23 -97q-56 32 -143 32q-66 0 -106.5 -45t-62.5 -142l-32 -144v0h209
l-18 -81h-209z" />
    <glyph glyph-name="circumflex" unicode="&#x2c6;" horiz-adv-x="682" 
d="M405 1385l218 -339h-87l-195 226v0l-195 -226h-87l218 339h64h64z" />
    <glyph glyph-name="caron" unicode="&#x2c7;" horiz-adv-x="682" 
d="M277 1047l-218 339h87l195 -226v0l195 226h87l-218 -339h-64h-64z" />
    <glyph glyph-name="uni02C9" unicode="&#x2c9;" horiz-adv-x="683" 
d="M59 1133h564v-87h-564v87z" />
    <glyph glyph-name="breve" unicode="&#x2d8;" horiz-adv-x="682" 
d="M341 1046q-123 0 -201.5 66.5t-78.5 170.5h74q0 -68 60.5 -115.5t145.5 -47.5t145.5 47.5t60.5 115.5h74q0 -104 -78.5 -170.5t-201.5 -66.5z" />
    <glyph glyph-name="dotaccent" unicode="&#x2d9;" horiz-adv-x="682" 
d="M282 1245h118v-172h-118v172z" />
    <glyph glyph-name="ring" unicode="&#x2da;" horiz-adv-x="682" 
d="M341 1004q-74 0 -125.5 51.5t-51.5 125.5t51.5 125.5t125.5 51.5t125.5 -51.5t51.5 -125.5t-51.5 -125.5t-125.5 -51.5v0zM341 1058q52 0 87.5 35.5t35.5 87.5t-35.5 87.5t-87.5 35.5t-87.5 -35.5t-35.5 -87.5t35.5 -87.5t87.5 -35.5v0z" />
    <glyph glyph-name="ogonek" unicode="&#x2db;" horiz-adv-x="682" 
d="M429 -182q0 73 37 123.5t112 78.5h67q-60 -53 -84.5 -90.5t-24.5 -74.5q0 -54 38 -84t106 -30h25v-78q-16 -5 -38.5 -8t-44.5 -3q-85 0 -139 47q-54 46 -54 119z" />
    <glyph glyph-name="tilde" unicode="&#x2dc;" horiz-adv-x="682" 
d="M6 1045q6 93 47 143t111 50q40 0 82.5 -11t113.5 -41q72 -30 108.5 -41t62.5 -11q27 0 49.5 27.5t31.5 72.5h64q-6 -93 -47 -143t-111 -50q-39 0 -81 11.5t-115 41.5q-70 29 -107 40t-64 11t-49.5 -27.5t-31.5 -72.5h-64z" />
    <glyph glyph-name="hungarumlaut" unicode="&#x2dd;" horiz-adv-x="682" 
d="M137 1062l222 327h166l-322 -327h-66zM410 1062l222 327h166l-322 -327h-66z" />
    <glyph glyph-name="pi" unicode="&#x3c0;" horiz-adv-x="1246" 
d="M112 692q91 160 171.5 213.5t229.5 53.5l338 1q90 0 191 2.5t146 6.5l-30 -164h-301q-32 -171 -29 -326t43 -334q22 -99 7 -134.5t-78 -35.5q-64 0 -97.5 59t-33.5 172q0 95 23 233t78 366h-148l-116 -652q-18 -105 -45 -141.5t-86 -36.5q-66 0 -76.5 45t28.5 165
l211 620h-94q-75 0 -130.5 -31.5t-140.5 -121.5z" />
    <glyph glyph-name="endash" unicode="&#x2013;" horiz-adv-x="1024" 
d="M78 493h868v-67h-868v67z" />
    <glyph glyph-name="emdash" unicode="&#x2014;" horiz-adv-x="2048" 
d="M78 493h1892v-67h-1892v67z" />
    <glyph glyph-name="quoteleft" unicode="&#x2018;" horiz-adv-x="362" 
d="M247 1064v-99h-61h-71v176q0 73 37 147t95 116v0v-66v0q-29 -35 -38 -80q-6 -32 -7 -94v0h5h40v-100z" />
    <glyph glyph-name="quoteright" unicode="&#x2019;" horiz-adv-x="362" 
d="M115 1303v99h61h71v-176q0 -73 -37 -147t-95 -116v0v66v0q29 35 38 80q6 32 7 94v0h-5h-40v100z" />
    <glyph glyph-name="quotesinglbase" unicode="&#x201a;" horiz-adv-x="362" 
d="M115 100v99h61h71v-176q0 -73 -37 -147t-95 -116v0v66v0q29 35 38 80q6 32 7 94v0h-5h-40v100z" />
    <glyph glyph-name="quotedblleft" unicode="&#x201c;" horiz-adv-x="680" 
d="M247 1064v-99h-61h-71v176q0 73 37 147t95 116v0v-66v0q-29 -35 -38 -80q-6 -32 -7 -94v0h5h40v-100zM565 1064v-99h-61h-71v176q0 73 37 147t95 116v0v-66v0q-29 -35 -38 -80q-6 -32 -7 -94v0h5h40v-100z" />
    <glyph glyph-name="quotedblright" unicode="&#x201d;" horiz-adv-x="680" 
d="M115 1303v99h61h71v-176q0 -73 -37 -147t-95 -116v0v66v0q29 35 38 80q6 32 7 94v0h-5h-40v100zM433 1303v99h61h71v-176q0 -73 -37 -147t-95 -116v0v66v0q29 35 38 80q6 32 7 94v0h-5h-40v100z" />
    <glyph glyph-name="quotedblbase" unicode="&#x201e;" horiz-adv-x="680" 
d="M119 100v99h61h71v-176q0 -73 -37 -147t-95 -116v0v66v0q29 35 38 80q6 32 7 94v0h-5h-40v100zM429 100v99h61h71v-176q0 -73 -37 -147t-95 -116v0v66v0q29 35 38 80q6 32 7 94v0h-5h-40v100z" />
    <glyph glyph-name="dagger" unicode="&#x2020;" horiz-adv-x="1004" 
d="M51 855l423 -33v0l-36 575h124l-35 -576v0l422 34v-118l-426 33v0l42 -1245h-129l38 1255v0l-423 -43v118z" />
    <glyph glyph-name="daggerdbl" unicode="&#x2021;" horiz-adv-x="981" 
d="M436 461l30 386v0l-413 -34v118l411 -33v0l-36 499h124l-35 -500v0l410 34v-118l-413 33v0l30 -385l-30 -386v0l413 34v-118l-411 33v0l36 -499h-124l35 500v0l-410 -34v118l413 -33v0z" />
    <glyph glyph-name="bullet" unicode="&#x2022;" horiz-adv-x="1024" 
d="M512 1090q105 0 177.5 -72.5t72.5 -177.5t-72.5 -177.5t-177.5 -72.5t-177.5 72.5t-72.5 177.5t72.5 177.5t177.5 72.5z" />
    <glyph glyph-name="ellipsis" unicode="&#x2026;" horiz-adv-x="2048" 
d="M274 196h134v-196h-134v196zM955 196h134v-196h-134v196zM1637 196h134v-196h-134v196z" />
    <glyph glyph-name="perthousand" unicode="&#x2030;" horiz-adv-x="2154" 
d="M361 761q-144 0 -236 90.5t-92 233.5t92 234.5t236 91.5q145 0 237 -91.5t92 -234.5t-92 -233.5t-237 -90.5v0zM361 1330q-98 0 -167.5 -71t-69.5 -172q0 -100 69.5 -170.5t167.5 -70.5q99 0 168.5 70.5t69.5 170.5q0 101 -69.5 172t-168.5 71v0zM74 -27l1119 1438h103
l-1119 -1438h-103zM1029 -27q-144 0 -236 90.5t-92 233.5t92 234.5t236 91.5q145 0 237 -91.5t92 -234.5t-92 -233.5t-237 -90.5v0zM1029 542q-98 0 -167.5 -71t-69.5 -172q0 -100 69.5 -170.5t167.5 -70.5q99 0 168.5 70.5t69.5 170.5q0 101 -69.5 172t-168.5 71v0z
M1786 -27q-144 0 -236 90.5t-92 233.5t92 234.5t236 91.5q145 0 237 -91.5t92 -234.5t-92 -233.5t-237 -90.5v0zM1786 542q-98 0 -167.5 -71t-69.5 -172q0 -100 69.5 -170.5t167.5 -70.5q99 0 168.5 70.5t69.5 170.5q0 101 -69.5 172t-168.5 71v0z" />
    <glyph glyph-name="guilsinglleft" unicode="&#x2039;" horiz-adv-x="575" 
d="M543 929l-382 -456v0l382 -457h-128l-382 457v0l382 456h128z" />
    <glyph glyph-name="guilsinglright" unicode="&#x203a;" horiz-adv-x="575" 
d="M33 16l382 456v0l-382 457h128l382 -457v0l-382 -456h-128z" />
    <glyph glyph-name="fraction" unicode="&#x2044;" horiz-adv-x="1536" 
d="M1418 1411l-1084 -1467h-78l1084 1467h78z" />
    <glyph glyph-name="uni2074" unicode="&#x2074;" horiz-adv-x="641" 
d="M432 915h-381v14v14l433 454h13h14v-414v0h115v-68h-115v0v-237h-79v237v0zM432 983v0v282v0v0l-269 -282v0h269z" />
    <glyph glyph-name="Euro" unicode="&#x20ac;" horiz-adv-x="1024" 
d="M993 98q-70 -58 -154 -88.5t-172 -30.5q-233 0 -376 198q-104 146 -133 357h-133l22 96h102v68l2 68h-126l22 96h112q29 214 133 358q142 198 375 198q80 0 165 -31t161 -88v-112q-86 69 -167 101.5t-167 32.5q-179 0 -287 -170q-73 -117 -99 -289h505l-22 -96h-491
l-1 -68v-68h458l-22 -96h-425q23 -170 101 -289q112 -169 299 -169q85 0 162.5 32.5t155.5 101.5v-112z" />
    <glyph glyph-name="glyph350" 
d="M0 1388h393v-89h-152v-518h-89v518h-152v89z" />
    <glyph glyph-name="glyph351" 
d="M0 781v607h160l112 -486l112 486h160v-607h-89v559l-129 -559h-108l-129 559v-559h-89z" />
    <glyph glyph-name="trademark" unicode="&#x2122;" horiz-adv-x="1925" 
d="M205 1388h393v-89h-152v-518h-89v518h-152v89zM661 781v607h160l112 -486l112 486h160v-607h-89v559l-129 -559h-108l-129 559v-559h-89z" />
    <glyph glyph-name="uni2126" unicode="&#x2126;" horiz-adv-x="1246" 
d="M599 0h-413l-74 410l74 12q33 -138 61.5 -171t114.5 -36h79q-32 61 -89.5 161l-109.5 184q-65 106 -103 211.5t-38 180.5q0 209 149.5 334.5t403.5 129.5q241 0 397.5 -129t156.5 -328q0 -79 -37.5 -185t-103.5 -214l-95.5 -162l-103.5 -183h79q75 -1 112 42.5t64 164.5
l73 -12l-74 -410h-412q122 338 129.5 361l30.5 97q46 148 70.5 276.5t24.5 217.5q0 162 -86.5 266.5t-224.5 108.5q-138 -4 -224 -107t-86 -265q0 -78 27.5 -222t67.5 -275q24 -77 70 -209.5z" />
    <glyph glyph-name="partialdiff" unicode="&#x2202;" horiz-adv-x="1020" 
d="M81 385q0 234 139.5 416.5t317.5 182.5q48 0 96.5 -16t104.5 -50q21 190 -16.5 302t-122.5 112q-28 0 -60.5 -28.5t-51.5 -70.5q-29 -63 -49.5 -82.5t-60.5 -19.5q-60 0 -86.5 49t2.5 106q32 62 104.5 105t146.5 43q196 0 294 -155t97 -465q0 -372 -145.5 -609
t-372.5 -237q-148 0 -242.5 117t-94.5 300zM271 324q0 -114 44 -193t108 -79q108 0 184 178t76 431q0 120 -39 180t-117 60q-107 0 -181.5 -167.5t-74.5 -409.5z" />
    <glyph glyph-name="uni2206" unicode="&#x2206;" horiz-adv-x="1360" 
d="M740 1391l582 -1391h-1285zM667 1077l-446 -883h799z" />
    <glyph glyph-name="product" unicode="&#x220f;" horiz-adv-x="2039" 
d="M197 -315v65q151 17 197.5 88.5t46.5 289.5v901q3 217 -43.5 288.5t-200.5 88.5v65h1645v-65q-151 -17 -197.5 -88.5t-46.5 -288.5v-901q0 -218 46.5 -289.5t197.5 -88.5v-65h-704v65q157 17 202 87t42 291v1262h-725v-1262q0 -218 46.5 -289.5t197.5 -88.5v-65h-704z
" />
    <glyph glyph-name="summation" unicode="&#x2211;" horiz-adv-x="2039" 
d="M416 -315l491 838l-482 948h1119l46 -366l-70 -14l-17 39q-54 142 -142.5 200.5t-250.5 58.5h-403l370 -740l-451 -756h524q138 0 219 51t149 180l22 41l70 -21l-117 -459h-1077z" />
    <glyph glyph-name="minus" unicode="&#x2212;" horiz-adv-x="1352" 
d="M139 763h1072v-88h-1072v88z" />
    <glyph glyph-name="uni2219" unicode="&#x2219;" horiz-adv-x="362" 
d="M115 796h134v-196h-134v196z" />
    <glyph glyph-name="radical" unicode="&#x221a;" horiz-adv-x="1473" 
d="M56 438l298 194l506 -750l480 1647h382v-86h-281l-553 -1817h-74l-570 821l-145 -105z" />
    <glyph glyph-name="infinity" unicode="&#x221e;" horiz-adv-x="2039" 
d="M283 569q0 179 116.5 302t285.5 123q122 0 210.5 -60.5t175.5 -202.5q74 109 157.5 163t177.5 54q153 0 250.5 -105.5t97.5 -271.5q0 -162 -97 -269t-243 -107q-105 0 -189 56.5t-135 161.5q-106 -156 -186.5 -210t-206.5 -54q-174 0 -294 122t-120 298zM394 567
q0 -107 69 -181t169 -74q109 0 193.5 73t159.5 232q-63 113 -137.5 163.5t-180.5 50.5q-115 0 -194 -76.5t-79 -187.5zM1643 569q0 97 -59.5 156.5t-157.5 59.5q-84 0 -146 -50.5t-122 -168.5q41 -100 111.5 -154t159.5 -54q98 0 156 57t58 154z" />
    <glyph glyph-name="integral" unicode="&#x222b;" horiz-adv-x="2039" 
d="M752 -319q0 42 27.5 72.5t65.5 30.5q35 0 60 -25.5t25 -61.5l-9 -60q-1 -9 6 -15.5t19 -6.5q52 -1 69.5 87t-7.5 222q-36 191 -69 425t-45 383q-33 427 23 632t206 205q66 0 112 -42t46 -102q0 -52 -23.5 -78t-70.5 -26q-42 0 -63 19t-21 58q0 10 16 72q2 8 -5.5 14
t-20.5 6q-77 0 -80 -130.5t65 -491.5q54 -284 68 -600.5t-19 -491.5q-23 -120 -74.5 -180t-131.5 -60q-71 0 -120 42t-49 103z" />
    <glyph glyph-name="approxequal" unicode="&#x2248;" horiz-adv-x="2039" 
d="M414 275q57 100 157 169.5t188 69.5q55 0 150 -21.5t216 -60.5q68 -22 146.5 -37t123.5 -15q60 0 132 35.5t116 86.5l37 -22q-48 -115 -136 -182.5t-190 -67.5q-31 0 -105 14t-150 35q-162 44 -254.5 64.5t-130.5 20.5q-64 0 -142 -35t-127 -86zM414 626
q57 100 157 169.5t188 69.5q55 0 150 -21.5t216 -60.5q68 -22 146.5 -37t123.5 -15q60 0 132 35.5t116 86.5l37 -22q-48 -115 -136 -182.5t-190 -67.5q-31 0 -105 14t-150 35q-162 44 -254.5 64.5t-130.5 20.5q-64 0 -142 -35t-127 -86z" />
    <glyph glyph-name="notequal" unicode="&#x2260;" horiz-adv-x="2039" 
d="M410 -93l318 372h-321v135h437l236 276h-673v135h788l317 367h164l-315 -367h312v-135h-427l-236 -276h663v-135h-779l-318 -372h-166z" />
    <glyph glyph-name="lessequal" unicode="&#x2264;" horiz-adv-x="2039" 
d="M1683 1235v-135l-1063 -410l1063 -309v-135l-1266 377v135zM417 135h1266v-135h-1266v135z" />
    <glyph glyph-name="greaterequal" unicode="&#x2265;" horiz-adv-x="2039" 
d="M417 1235l1266 -477v-135l-1266 -377v135l1063 309l-1063 410v135zM417 135h1266v-135h-1266v135z" />
    <glyph glyph-name="lozenge" unicode="&#x25ca;" horiz-adv-x="1171" 
d="M530 1423h110l404 -712l-404 -711h-110l-404 711zM585 1324l-349 -613l349 -615l349 615z" />
    <glyph glyph-name="uniEFED" unicode="&#xefed;" horiz-adv-x="682" 
d="M282 1722h118v-172h-118v172z" />
    <glyph glyph-name="uniEFEE" unicode="&#xefee;" horiz-adv-x="682" 
d="M341 1523q-123 0 -201.5 66.5t-78.5 170.5h74q0 -68 60.5 -115.5t145.5 -47.5t145.5 47.5t60.5 115.5h74q0 -104 -78.5 -170.5t-201.5 -66.5z" />
    <glyph glyph-name="uniEFEF" unicode="&#xefef;" horiz-adv-x="682" 
d="M59 1610h564v-87h-564v87z" />
    <glyph glyph-name="uniEFF0" unicode="&#xeff0;" horiz-adv-x="682" 
d="M137 1539l222 327h166l-322 -327h-66zM410 1539l222 327h166l-322 -327h-66z" />
    <glyph glyph-name="uniEFF1" unicode="&#xeff1;" horiz-adv-x="682" 
d="M771 -182q0 73 37 123.5t112 78.5h67q-60 -53 -84.5 -90.5t-24.5 -74.5q0 -54 38 -84t106 -30h25v-78q-16 -5 -38.5 -8t-44.5 -3q-85 0 -139 47q-54 46 -54 119z" />
    <glyph glyph-name="uniEFF2" unicode="&#xeff2;" horiz-adv-x="682" 
d="M402 3l-24 -81v0q53 -6 87 -33q43 -33 43 -87q0 -72 -56 -116.5t-148 -44.5q-27 0 -52.5 4t-34.5 10l10 67q9 -5 32 -8.5t47 -3.5q61 0 94 23t33 66q0 29 -29.5 48.5t-74.5 19.5l-31 -1v0l41 137h63z" />
    <glyph glyph-name="uniEFF3" unicode="&#xeff3;" horiz-adv-x="682" 
d="M341 1481q-74 0 -125.5 51.5t-51.5 125.5t51.5 125.5t125.5 51.5t125.5 -51.5t51.5 -125.5t-51.5 -125.5t-125.5 -51.5v0zM341 1535q52 0 87.5 35.5t35.5 87.5t-35.5 87.5t-87.5 35.5t-87.5 -35.5t-35.5 -87.5t35.5 -87.5t87.5 -35.5v0z" />
    <glyph glyph-name="uniEFF4" unicode="&#xeff4;" horiz-adv-x="682" 
d="M277 1524l-218 339h87l195 -226v0l195 226h87l-218 -339h-64h-64z" />
    <glyph glyph-name="uniEFF5" unicode="&#xeff5;" horiz-adv-x="682" 
d="M6 1522q6 93 47 143t111 50q40 0 82.5 -11t113.5 -41q72 -30 108.5 -41t62.5 -11q27 0 49.5 27.5t31.5 72.5h64q-6 -93 -47 -143t-111 -50q-39 0 -81 11.5t-115 41.5q-70 29 -107 40t-64 11t-49.5 -27.5t-31.5 -72.5h-64z" />
    <glyph glyph-name="uniEFF6" unicode="&#xeff6;" horiz-adv-x="682" 
d="M159 1702q37 0 63 -26t26 -64q0 -37 -26 -63t-63 -26t-63 26t-26 63q0 38 26 64t63 26zM522 1702q37 0 63 -26t26 -64q0 -37 -26 -63t-63 -26t-63 26t-26 63q0 38 26 64t63 26z" />
    <glyph glyph-name="uniEFF7" unicode="&#xeff7;" horiz-adv-x="682" 
d="M405 1862l218 -339h-87l-195 226v0l-195 -226h-87l218 339h64h64z" />
    <glyph glyph-name="uniEFF8" unicode="&#xeff8;" horiz-adv-x="682" 
d="M321 1526l-321 327h166l221 -327h-66z" />
    <glyph glyph-name="uniEFF9" unicode="&#xeff9;" horiz-adv-x="682" 
d="M313 1526l222 327h166l-322 -327h-66z" />
    <glyph glyph-name="uniF001" unicode="&#xf001;" horiz-adv-x="960" 
d="M294 839v0v-839v0h-49h-49v0v839v0h-171v81h171v0v141q0 163 85.5 258t232.5 95q99 0 168 -44v-96q-65 41 -159 41q-118 0 -173.5 -61.5t-55.5 -192.5v-141v0h190v-81h-190zM719 0v920v0h49h49v0v-920v0h-49h-49v0zM719 1397h98v-168h-98v168z" />
    <glyph glyph-name="uniF002" unicode="&#xf002;" horiz-adv-x="960" 
d="M296 839v0v-839v0h-49h-49v0v839v0h-171v81h171v0v141q0 163 85.5 258t232.5 95q99 0 168 -44v-96q-65 41 -159 41q-118 0 -173.5 -61.5t-55.5 -192.5v-141v0h190v-81h-190zM719 0v1397v0h49h49v0v-1397v0h-49h-49v0z" />
    <glyph glyph-name="uniFB01" unicode="&#xfb01;" horiz-adv-x="960" 
d="M294 839v0v-839v0h-49h-49v0v839v0h-171v81h171v0v141q0 163 85.5 258t232.5 95q99 0 168 -44v-96q-65 41 -159 41q-118 0 -173.5 -61.5t-55.5 -192.5v-141v0h190v-81h-190zM719 0v920v0h49h49v0v-920v0h-49h-49v0zM719 1397h98v-168h-98v168z" />
  </font>
</defs>
</svg>
