<?xml version="1.0" standalone="no"?>
<!DOCTYPE svg PUBLIC "-//W3C//DTD SVG 1.1//EN" "http://www.w3.org/Graphics/SVG/1.1/DTD/svg11.dtd" >
<svg>
<metadata>
Created by FontForge 20090622 at Mon Oct 26 05:40:10 2015
 By deploy user
Copyright 1994 Bay Animation Inc. All Rights Reserved.
</metadata>
<defs>
<font id="KeltNormal" horiz-adv-x="1381" >
  <font-face 
    font-family="Kelt"
    font-weight="400"
    font-stretch="normal"
    units-per-em="2048"
    panose-1="0 0 4 0 0 0 0 0 0 0"
    ascent="1638"
    descent="-410"
    x-height="688"
    cap-height="1229"
    bbox="-201 -455 2544 1637"
    underline-thickness="20"
    underline-position="-123"
    unicode-range="U+0020-U+2219"
  />
<missing-glyph horiz-adv-x="1024" 
d="M128 0v1637h768v-1637h-768zM256 128h512v1381h-512v-1381z" />
    <glyph glyph-name=".notdef" horiz-adv-x="1024" 
d="M128 0v1637h768v-1637h-768zM256 128h512v1381h-512v-1381z" />
    <glyph glyph-name=".null" horiz-adv-x="0" 
 />
    <glyph glyph-name="glyph2" horiz-adv-x="488" 
 />
    <glyph glyph-name="space" unicode=" " horiz-adv-x="488" 
 />
    <glyph glyph-name="exclam" unicode="!" horiz-adv-x="402" 
d="M121 955q0 46 -43 86q-58 53 -78 53q59 11 125 51l137 84l-2 -31q-33 -110 -33 -174v-704q0 -49 33 -82h-172q33 31 33 82v635zM88 78q0 37 24.5 61.5t61.5 24.5t61.5 -24.5t24.5 -61.5t-24.5 -61.5t-61.5 -24.5t-61.5 24.5t-24.5 61.5z" />
    <glyph glyph-name="quotedbl" unicode="&#x22;" horiz-adv-x="383" 
d="M69 1247q0 35 42 35q40 0 40 -35q0 -8 -16 -108q-13 -80 -22 -80q-2 8 -6 21q-8 26 -19 65zM226 1247q0 35 40 35q41 0 41 -35q0 -8 -16 -108q-13 -80 -25 -80q-4 6 -4 10q-8 21 -20 72z" />
    <glyph glyph-name="numbersign" unicode="#" horiz-adv-x="844" 
d="M117 574l74 146h-183l91 52h116l72 142h-186l90 49h121l36 74l97 51l-68 -125h193l36 74l97 53l-64 -127h164l-88 -49h-100l-72 -144h184l-94 -50h-115l-32 -65l-109 -77l72 142h-189l-51 -96zM283 770h190l72 144h-192z" />
    <glyph glyph-name="dollar" unicode="$" horiz-adv-x="1000" 
d="M443 49v502q-219 54 -291 94q-137 77 -137 230q0 159 131 256q113 84 297 100q-7 42 -20 66q-12 21 -42 45l-35 28q-24 19 -24 29q8 6 16 6h170v-176q193 0 381 -82l-39 -86q-22 -49 -22 -110q-43 87 -134 152t-186 75v-494q185 -40 258 -85q123 -74 123 -222
q0 -149 -119 -254q-106 -94 -262 -119q0 -78 17 -128h-99l13 50l4 73l-33 -2q-35 -2 -80 5q-28 2 -76 12q-81 17 -163 52l2 14q37 51 45 90l2 31l-4 57q-1 12 10 21q19 -86 95.5 -158t201.5 -72zM508 533v-486q48 0 97 22.5t83 57.5q67 68 67 189q0 91 -71 143
q-55 40 -176 74zM443 699v481q-126 0 -199 -41q-96 -54 -96 -168q0 -121 88 -188q63 -48 207 -84z" />
    <glyph glyph-name="percent" unicode="%" horiz-adv-x="1057" 
d="M158 180l537 766q98 140 98 203q0 8 -2 15l-17 28l-10 25q0 12 25 12h170l-787 -1126q-48 -72 -57 -103h-98q22 19 80 97zM1037 242q0 -112 -73.5 -184.5t-185.5 -72.5q-117 0 -187 70t-70 187q0 111 73 184.5t184 73.5q115 0 187 -71t72 -187zM778 475q-80 0 -126 -68.5
t-46 -164.5q0 -94 38 -157q47 -77 134 -77q81 0 127 68t46 166q0 93 -39 157q-46 76 -134 76zM529 975q0 -112 -73 -184t-185 -72q-117 0 -187.5 69.5t-70.5 186.5q0 113 72.5 185.5t185.5 72.5q116 0 187 -71t71 -187zM271 1208q-81 0 -126.5 -68t-45.5 -165q0 -94 38 -157
q46 -76 134 -76q81 0 126.5 66.5t45.5 166.5q0 93 -39 156q-46 77 -133 77z" />
    <glyph glyph-name="ampersand" unicode="&#x26;" horiz-adv-x="2048" 
d="M152 492q0 -211 139 -336q123 -111 309 -111q178 0 305 111q140 123 140 336q0 210 -140 336q-123 110 -309 110q-179 0 -305 -110q-139 -122 -139 -336zM4 578q0 277 219 471q204 180 457 180q176 0 297 -88q6 -5 10 -14q-10 -6 -16 -11q-20 -12 -27 -14
q-26 -10 -32 -16l-58 -82q-30 -43 -37 -43h-4l15 55l8 53q0 47 -33 72q-42 32 -141 32q-179 0 -297 -114q-94 -91 -168 -307q64 108 187 166q113 53 247 53q167 0 301 -88q130 -86 207 -238l123 -313q61 -156 205 -235q95 -52 190 -52q72 0 141 31q88 40 95 59
q-31 -70 -156 -109q-98 -31 -197 -31q-70 0 -131 15q-120 29 -233 181q-19 26 -90 149q-82 -177 -185 -257q-117 -92 -299 -92q-247 0 -421 170q-177 171 -177 417zM979 891l47 47q68 68 68 107v8l14 12q76 -59 137 -59q113 0 258 51q328 115 404 115q45 0 84 -11l-4 -8
l-70 -20l-45 -37l-24 -19q-5 -2 -11 -6q-37 19 -88 19q-75 0 -246 -56q-381 -125 -524 -143z" />
    <glyph glyph-name="quotesingle" unicode="'" horiz-adv-x="226" 
d="M70 1247q0 35 41 35t41 -35q0 -46 -17 -108q-17 -80 -22 -80q-2 8 -6 21q-8 26 -19 65z" />
    <glyph glyph-name="parenleft" unicode="(" horiz-adv-x="328" 
d="M295 1460l-43 -92q-43 -92 -80 -254q-43 -188 -43 -387q0 -377 146 -727l-113 -94q-62 86 -100 281q-39 202 -39 415q0 261 49 465q69 286 223 393z" />
    <glyph glyph-name="parenright" unicode=")" horiz-adv-x="328" 
d="M27 -80l43 93q44 95 80 253q43 188 43 388q0 178 -30 342q-36 198 -116 385l113 94q73 -113 110 -342q29 -178 29 -363q0 -293 -61 -506q-70 -243 -211 -344z" />
    <glyph glyph-name="asterisk" unicode="*" horiz-adv-x="463" 
d="M256 899l115 -114l-18 -19l-107 107v-127l-25 -25v152l-106 -107l-18 19l114 114l-114 115l18 18l106 -106v127l25 24v-151l107 106l18 -18z" />
    <glyph glyph-name="plus" unicode="+" horiz-adv-x="842" 
d="M357 601h-351l173 87h178v222l65 41v-263h356l-172 -87h-184v-252l-65 -35v287z" />
    <glyph glyph-name="comma" unicode="," horiz-adv-x="348" 
d="M213 58q0 -80 -86 -183q-36 -43 -54 -45l7 24q43 74 43 103q0 18 -21 37q-44 40 -45 72q-1 33 23 55.5t57 22.5q76 0 76 -86z" />
    <glyph glyph-name="hyphen" unicode="-" horiz-adv-x="776" 
d="M121 545h553l-86 -87h-553z" />
    <glyph glyph-name="hyphen" unicode="&#x2010;" horiz-adv-x="776" 
d="M121 545h553l-86 -87h-553z" />
    <glyph glyph-name="period" unicode="." horiz-adv-x="389" 
d="M57 66q0 69 78 78q70 0 78 -78q0 -68 -78 -79q-69 0 -78 79z" />
    <glyph glyph-name="slash" unicode="/" horiz-adv-x="1057" 
d="M150 135l588 1016q74 128 74 197l-4 18l-19 31l-14 29q12 8 20 8h170l-834 -1479h-98q26 29 84 125z" />
    <glyph glyph-name="zero" unicode="0" horiz-adv-x="1090" 
d="M508 1172q202 0 346 -148q158 -163 158 -450q0 -285 -158 -449q-143 -149 -346 -149t-346 147q-78 80 -119 195q-39 109 -39 256q0 283 158 448q144 150 346 150zM508 17q142 0 242 139q110 152 110 418q0 264 -108 417q-99 140 -244 140q-143 0 -242 -137
q-110 -152 -110 -420q0 -203 74 -358q96 -199 278 -199z" />
    <glyph glyph-name="one" unicode="1" horiz-adv-x="609" 
d="M344 105q0 -23 4 -45q2 -33 27 -60h-197q17 21 27 64l6 88v856q0 19 -28 24l-43 7h-27l-16 -2l106 81q65 50 98 54q43 0 43 -82v-985z" />
    <glyph glyph-name="two" unicode="2" horiz-adv-x="930" 
d="M-17 0q14 0 175 140q216 188 326 323q174 214 174 363q0 150 -97 237q-81 72 -192 72q-54 0 -95 -19q-53 -25 -53 -73q0 -23 2 -33q13 -42 76 -100l-47 10l-88 10l-98 -6l-29 -6q0 66 117 155q138 105 317 105q126 0 211 -53q109 -68 109 -201q0 -232 -244 -506
q-58 -65 -154 -151q-66 -59 -208 -168h430q96 0 155 32l86 47l-55 -90q-55 -90 -55 -162q-24 20 -103 47t-192 27h-468z" />
    <glyph glyph-name="three" unicode="3" horiz-adv-x="883" 
d="M291 930l-45 18q-34 13 -69 21q-10 2 -15 2l-63 8h-25q-12 0 -41 4q55 95 174 149q107 48 227 48q110 0 206 -47q120 -57 120 -156q0 -129 -98 -201q-29 -22 -168 -79q110 -48 184 -117q121 -113 121 -264q0 -150 -123 -246q-114 -88 -268 -88t-291 65l-90 70
q51 5 137 43q36 16 66 35v-17q0 -70 43 -116.5t112 -46.5q82 0 154 65q96 86 96 236q0 129 -72 229q-79 109 -227 127q89 24 139 51q139 75 139 199q0 111 -98 174q-79 51 -170 51q-108 0 -108 -86q0 -51 53 -131z" />
    <glyph glyph-name="four" unicode="4" horiz-adv-x="1061" 
d="M238 903q0 109 -55 162l-119 56q4 4 6 4q30 18 96 28q36 -1 135 23l49 20q11 -8 11 -14q0 -187 -43 -373q-31 -133 -80 -246q-38 -86 -45 -88h426v467q0 57 -56 105l-41 35q85 12 142 51l123 84l-2 -31q-33 -111 -33 -174v-537h260l-147 -66h-113v-304q0 -23 4 -45
q2 -33 27 -60h-197q18 19 27 64l6 88v257h-578q69 90 99 144q98 177 98 350z" />
    <glyph glyph-name="five" unicode="5" horiz-adv-x="897" 
d="M19 121q65 10 118 53l41 43q38 -118 97 -164q49 -38 151 -38q119 0 185 128q53 104 53 234q0 344 -309 344q-68 0 -152 -22q-89 -23 -143 -52v418q0 39 55 74l39 25l33 8h590l-27 -20q-25 -19 -47 -48q-25 -34 -35 -78l-10 -45q-69 77 -111.5 103t-122.5 26h-225v-360
l45 10q18 4 55 8q19 2 56 2q174 0 286 -67q156 -93 156 -307q0 -190 -115 -302t-284 -112q-179 0 -308 67z" />
    <glyph glyph-name="six" unicode="6" horiz-adv-x="916" 
d="M615 1172h202l-28 -19q-40 -27 -72 -90q-16 -32 -25 -57l-8 -23q-12 47 -53 90q-48 50 -106 50q-178 0 -270 -236q-68 -174 -68 -383q0 -219 41 -332q56 -153 184 -153q109 0 180 104q62 91 62 225q0 107 -48 189q-56 96 -157 96q-49 0 -92 -20l-66 -31q13 51 82 78
q54 22 117 22q117 0 200 -67q99 -80 99 -234q0 -124 -99 -250q-114 -145 -278 -145q-196 0 -296 168q-83 139 -83 350q0 277 158 467q167 201 424 201z" />
    <glyph glyph-name="seven" unicode="7" horiz-adv-x="840" 
d="M241 -51q0 174 48 365q38 150 111 338q62 160 137 270q57 84 162 188h-385q-127 0 -211 -37l-91 -53q73 122 93 172q18 44 18 92q18 -35 95.5 -73.5t156.5 -38.5h473q-94 -72 -215 -260q-78 -121 -116 -246q-28 -91 -55 -267q-6 -37 -10 -73q-18 -139 -18 -322z" />
    <glyph glyph-name="eight" unicode="8" horiz-adv-x="928" 
d="M447 623q-125 0 -203 -94q-74 -88 -74 -215q0 -128 73 -215q78 -93 204 -93q125 0 203 93q73 88 73 215q0 124 -71 213q-76 96 -205 96zM447 1159q-105 0 -157 -72t-52 -179q0 -105 51 -175q56 -77 158 -77q104 0 160 76q49 68 49 176q0 105 -51 174q-57 77 -158 77z
M856 314q0 -163 -127 -257q-114 -84 -282 -84q-164 0 -281 85q-129 94 -129 256q0 165 141 262q38 26 144 63q-71 27 -103 51q-104 78 -104 218q0 129 104 210q95 74 228 74q140 0 231 -70q100 -78 100 -214q0 -137 -102 -216q-28 -22 -104 -53q96 -31 141 -61
q143 -95 143 -264z" />
    <glyph glyph-name="nine" unicode="9" horiz-adv-x="916" 
d="M219 0h-202l28 19q29 19 49 49q28 41 48 98l8 23q13 -55 58 -96q47 -44 101 -44q182 0 272 234q66 171 66 385q0 219 -41 332q-56 153 -184 153q-109 0 -180 -104q-62 -91 -62 -225q0 -107 48 -189q56 -96 157 -96q49 0 92 20l66 31q-26 -100 -199 -100q-117 0 -200 67
q-99 80 -99 234q0 124 99 250q114 145 278 145q196 0 296 -168q83 -139 83 -350q0 -277 -158 -467q-167 -201 -424 -201z" />
    <glyph glyph-name="colon" unicode=":" horiz-adv-x="389" 
d="M57 66q0 69 78 78q70 0 78 -78q0 -68 -78 -79q-69 0 -78 79zM57 590q0 69 78 78q70 0 78 -78q0 -70 -78 -78q-70 0 -78 78z" />
    <glyph glyph-name="semicolon" unicode=";" horiz-adv-x="348" 
d="M57 590q0 69 78 78q70 0 78 -78q0 -70 -78 -78q-70 0 -78 78zM213 58q0 -80 -86 -183q-36 -43 -54 -45l7 24q43 74 43 103q0 18 -21 37q-44 40 -45 72q-1 33 23 55.5t57 22.5q76 0 76 -86z" />
    <glyph glyph-name="less" unicode="&#x3c;" horiz-adv-x="598" 
d="M470 869q-34 -112 -107 -204q-80 -99 -180 -140q80 -61 137 -113q147 -135 178 -223l-125 -31q-40 112 -207 233l-164 119q135 46 230 154q73 84 98 184z" />
    <glyph glyph-name="equal" unicode="=" horiz-adv-x="776" 
d="M172 598h553l-172 -87h-553zM172 455h553l-172 -87h-553z" />
    <glyph glyph-name="greater" unicode="&#x3e;" horiz-adv-x="598" 
d="M117 164q32 102 101 195q79 105 186 149q-80 61 -137 113q-147 135 -179 223l125 31q39 -111 208 -234l163 -119q-135 -46 -229 -153q-73 -84 -99 -184z" />
    <glyph glyph-name="question" unicode="?" horiz-adv-x="760" 
d="M697 842q0 -127 -82 -221q-41 -48 -152 -124q-82 -57 -82 -91q0 -80 43 -113l43 -33q-8 -10 -16 -10l-64 12q-69 13 -75 13l-80 -25q-10 8 -11 12q0 73 89 168l164 177q89 115 89 235q0 145 -53 221t-168 76q-106 0 -166 -88q-51 -75 -51 -168q0 -57 4 -76l25 -59l-33 8
q-102 78 -102 192q0 102 107 167q93 57 200 57q155 0 263 -93t108 -237zM242 78q0 86 86 86q37 0 61.5 -24.5t24.5 -61.5q0 -36 -25 -61t-61 -25q-37 0 -61.5 24.5t-24.5 61.5z" />
    <glyph glyph-name="at" unicode="@" horiz-adv-x="903" 
d="M506 273l-78 155q-70 0 -122 -37q-58 -41 -58 -108q0 -100 107 -100q51 0 108 45zM324 133q-58 0 -98 30q-43 33 -43 89q0 83 92 141q68 43 145 52l-29 59q-6 18 -22 35q-12 16 -35 16q-12 0 -29 -8l-12 -10l47 31q32 21 39 59l31 -39l47 -76l154 -307q36 -72 61 -76
q20 0 29 58l8 141q8 145 -70 252q-82 112 -221 112q-146 0 -234 -111q-82 -103 -82 -253q0 -328 388 -328h63l17 -4q-45 -33 -142 -33q-158 0 -278 82q-150 102 -150 283q0 173 127 285t291 112q167 0 280 -113t113 -280q0 -112 -43 -182t-100 -70q-66 0 -111 90l-43 86
l-61 -61q-62 -62 -129 -62z" />
    <glyph glyph-name="A" unicode="A" horiz-adv-x="1229" 
d="M111 -21q-23 95 -23 191q0 254 158 477q139 196 346 304q-64 138 -98 180q-68 86 -164 98h240q75 0 90 -29q64 -127 213 -477q139 -326 209 -469q109 -221 170 -254h-218q-24 92 -104 260l-225 467zM248 201l442 553l-77 158l-113 -52q-105 -92 -182 -227
q-97 -170 -97 -336q0 -61 7 -86z" />
    <glyph glyph-name="B" unicode="B" horiz-adv-x="1055" 
d="M174 0v1008q0 97 -59 153q-50 48 -92 48q-8 0 -17 -2l60 14l51 4q72 6 131 -45q20 -17 37 -47q48 42 130 70q79 26 146 26q80 0 138 -35q53 -32 53 -100q0 -85 -123 -186q-35 -29 -123 -80q53 0 121 -15q141 -31 227 -104q123 -104 123 -279q0 -258 -289 -366
q-176 -66 -440 -66h-45zM307 774v-714q0 -25 80 -25q147 0 267 82q159 108 159 309q0 185 -159 293q-126 86 -269 86q-73 0 -78 -31zM307 1032v-184q12 -10 39 -10q87 0 168 43q105 56 105 168q0 55 -41 96t-103 41q-100 0 -180 -78l8 -31z" />
    <glyph glyph-name="C" unicode="C" 
d="M873 1229h479l-21 -18q-42 -45 -53 -82q-6 -21 -6 -37v-39q-4 -10 -4 -14q-54 72 -181 110q-102 30 -214 30q-264 0 -431 -157.5t-167 -406.5t135 -418q144 -180 377 -180q143 0 269.5 72t209.5 200v-164q-86 -78 -223 -119q-130 -39 -281 -39q-299 0 -475 174.5
t-176 473.5q0 302 238 468q209 146 524 146z" />
    <glyph glyph-name="D" unicode="D" horiz-adv-x="1516" 
d="M117 568q0 222 137 391q177 219 512 219q-39 0 -125 -33q-360 -138 -360 -577q0 -221 115 -375q131 -176 360 -176q266 0 401 182q119 160 119 416q0 284 -151 428q-195 186 -661 186h-318q60 0 119 71q46 56 71 124q33 -68 109 -108q72 -38 151 -38q343 0 559 -131
q285 -173 285 -532q0 -243 -195 -441q-203 -207 -489 -207q-263 0 -442 152q-197 167 -197 449z" />
    <glyph glyph-name="E" unicode="E" 
d="M901 1229h451l-19 -16q-11 -12 -16 -19q-11 -14 -20 -28q-23 -39 -29 -78l-2 -49q-76 69 -152 100q-98 40 -233 40q-335 0 -502 -224l-43 -80h670q156 0 260 86v-205q-127 86 -260 86h-682l-12 -28q-33 -77 -33 -199q0 -241 106 -402q129 -196 389 -196q138 0 258 59
q149 73 234 217v-164q-91 -62 -215 -108q-146 -54 -277 -54q-315 0 -495 191q-164 174 -164 457q0 313 246 476q210 138 540 138z" />
    <glyph glyph-name="F" unicode="F" horiz-adv-x="901" 
d="M174 -398v1484q0 24 -7 46.5t-42 57.5l-57 33l6 6h768q14 0 18 -8l-30 -51q-13 -22 -13 -56l4 -32l-18 6q-94 73 -244 100l-51 4l-53 2l-84 -2l-64 -6v-1026h555l-51 -88l-78 -76q-42 59 -134.5 90t-186.5 31q-105 0 -105 -34v-386l-24 -9l-35 -22l-51 -45z" />
    <glyph glyph-name="G" unicode="G" 
d="M1270 289v-316q0 -174 -139 -282q-97 -76 -133 -76q-9 0 -13 4q52 38 103 131q48 88 48 203v88l-116 -37q-116 -37 -258 -37q-299 0 -475 174.5t-176 473.5q0 302 238 468q209 146 524 146h479l-21 -18q-42 -45 -53 -82q-6 -21 -6 -37v-39q-4 -10 -4 -14q-54 72 -181 110
q-102 30 -214 30q-264 0 -431 -157.5t-167 -406.5q0 -252 123 -418q134 -180 364 -180q141 0 279 75q135 74 229 197z" />
    <glyph glyph-name="H" unicode="H" horiz-adv-x="1415" 
d="M234 152v1249q0 144 -109 182l-78 27q-39 13 -41 23l19 4h342v-543q38 26 117 72q146 71 309 71q243 0 395 -168q143 -158 143 -399q0 -255 -116 -461q-81 -145 -215 -250l-119 -62q110 57 199 255q87 194 87 524q0 259 -128 385q-110 108 -320 108q-113 0 -217 -41
q-135 -54 -135 -151l6 -911q2 -34 27 -66h-199q16 21 27 64z" />
    <glyph glyph-name="I" unicode="I" horiz-adv-x="527" 
d="M234 152v842q0 146 -109 182l-78 26q-38 13 -41 23l19 4h342l6 -1163q2 -34 27 -66h-199q16 21 27 64z" />
    <glyph glyph-name="J" unicode="J" horiz-adv-x="527" 
d="M234 152v842q0 146 -109 182l-78 26q-38 13 -41 23l19 4h342v-1077q0 -299 -213 -492q-62 -57 -76 -60q45 78 90 207q66 190 66 345z" />
    <glyph glyph-name="K" unicode="K" horiz-adv-x="1387" 
d="M234 152v1249q0 144 -109 182l-78 27q-39 13 -41 23l19 4h342v-758l26 -2q15 -1 29 -1q99 0 203 52q170 85 205 301h182q-57 -161 -215 -264q-180 -117 -258 -117q-10 0 -19 2q193 -56 316 -237l219 -322q110 -162 256 -162h25l26 4l-104 -82q-96 -76 -117 -76
q-113 74 -221 248q-67 108 -157 308q-94 208 -252 278q-42 19 -144 29l6 -772q2 -34 27 -66h-199q16 21 27 64z" />
    <glyph glyph-name="L" unicode="L" horiz-adv-x="1000" 
d="M234 152v1249q0 144 -109 182l-78 27q-39 13 -41 23l19 4h342v-1553q0 -47 141 -47q115 0 234 30q135 34 213 95l-72 -215q-26 19 -117 32q-56 8 -250 13l-315 8q16 21 27 64z" />
    <glyph glyph-name="M" unicode="M" horiz-adv-x="2327" 
d="M111 611q0 318 225 489q185 141 447 141q216 0 354 -108q40 -31 94 -111q92 120 200 166q98 41 259 41q253 0 410 -186q149 -175 149 -432q0 -285 -188 -469q-179 -175 -424 -175q-83 0 -163 47.5t-110 100.5q43 -32 78 -49q100 -49 203 -49q193 0 321 186
q119 173 119 408q0 232 -106 388q-121 180 -342 180q-151 0 -259 -87q-116 -93 -116 -240v-851l-133 -1v799q0 188 -89.5 290.5t-256.5 102.5q-225 0 -371 -181q-137 -170 -137 -400q0 -308 178 -471q135 -123 319 -123q63 0 147 34q91 37 122 84q-109 -168 -322 -168
q-239 0 -420 179q-188 186 -188 465z" />
    <glyph glyph-name="N" unicode="N" horiz-adv-x="1340" 
d="M154 0q49 86 49 189v938l-98 61l-52 16q-21 7 -28.5 11t-14.5 10l29 4h256l840 -1020v778q0 50 -8 68q-6 25 -33 68l-103 84v22h189v-1186q0 -47 -12 -51q-2 2 -4 2q-9 5 -21 19l-33 38l-862 1022v-778q0 -158 139 -295h-233z" />
    <glyph glyph-name="O" unicode="O" horiz-adv-x="1546" 
d="M791 1262q278 0 467 -162q211 -180 211 -485q0 -307 -211 -486q-191 -162 -467 -162q-278 0 -467 162q-211 181 -211 486q0 306 211 485q191 162 467 162zM791 17q209 0 354 147q160 162 160 451q0 282 -160 448q-145 150 -354 150t-355 -148q-159 -162 -159 -450
q0 -285 159 -449q144 -149 355 -149z" />
    <glyph glyph-name="P" unicode="P" horiz-adv-x="1407" 
d="M191 -434l20 81q21 85 21 250v1019q0 92 -49 179q-57 101 -144 101q-8 0 -16 -2q63 23 119 23q93 0 157 -66q20 -21 43 -67q77 64 191 108q106 41 217 41q237 0 399 -141q180 -156 180 -420q0 -292 -213 -489q-197 -183 -452 -183q-166 0 -299 101v-41q0 -451 -174 -494z
M1165 672q0 265 -149 399q-124 112 -317 112q-133 0 -232 -58q-102 -60 -102 -131v-820q0 -42 93 -83.5t216 -41.5q203 0 332 129q159 160 159 494z" />
    <glyph glyph-name="Q" unicode="Q" horiz-adv-x="1385" 
d="M1077 -439v540q-147 -111 -348 -111q-243 0 -422 156q-194 169 -194 446q0 280 192 465q178 172 424 172q101 0 191 -29t164 -94q18 38 41 60q70 65 180 61l53 -2q-47 -13 -94 -88q-53 -85 -53 -221v-1019q0 -75 26 -143q6 -23 29 -53q-30 -14 -127 -113q-42 -43 -53 -43
q-9 8 -9 16zM723 39q112 0 218 43q136 56 136 152v760q0 88 -116 142q-94 43 -193 43q-196 0 -329 -128q-162 -156 -162 -459q0 -290 141 -434q116 -119 305 -119z" />
    <glyph glyph-name="R" unicode="R" horiz-adv-x="1127" 
d="M719 1014q0 86 -46.5 126.5t-133.5 40.5q-80 0 -149 -34q-85 -41 -85 -113v-430q138 37 207 76q207 117 207 334zM172 152v846q0 87 -49 151q-58 76 -90 76l31 2l26 2q97 7 160 -55l35 -58q151 138 330 138q108 0 184 -57q84 -63 84 -167q0 -234 -324 -401
q-95 -49 -114 -49q93 -31 217 -168l223 -246q118 -130 279 -166h-283q-104 60 -232 221l-161 203q-29 36 -76 73q-59 46 -92 46q-13 0 -15 -14v-377l7 -86q3 -35 26 -66h-198q16 17 24 53z" />
    <glyph glyph-name="S" unicode="S" horiz-adv-x="1020" 
d="M132 66l12 28q21 33 35 76l2 31l-4 57q-1 12 10 21q25 -108 123 -172q91 -60 206 -60q126 0 203 72t77 197q0 145 -190 200l-358 103q-192 80 -192 256q0 174 153 270q134 84 336 84q190 0 385 -82l-39 -88q-22 -50 -22 -108q-34 72 -127 145q-105 83 -238 83
q-137 0 -213 -36q-102 -48 -102 -172q0 -170 191 -242l358 -96q192 -74 192 -256q0 -172 -156 -282q-140 -97 -319 -97q-119 0 -237 35q-41 12 -86 33z" />
    <glyph glyph-name="T" unicode="T" horiz-adv-x="1452" 
d="M0 1075l60 91q59 89 59 161q17 -30 95 -65q74 -33 188 -33h1040l-27 -20q-25 -19 -47 -48q-18 -24 -35 -77l-10 -45q-61 73 -118.5 100.5t-151.5 27.5h-184q-174 0 -320.5 -210.5t-146.5 -452.5q0 -221 108 -349q115 -138 332 -138q147 0 278.5 72.5t202.5 197.5v-164
q-208 -156 -481 -156q-250 0 -418 123q-186 136 -186 375q0 340 336 616q105 86 118 86h-397q-131 0 -209 -38z" />
    <glyph glyph-name="U" unicode="U" horiz-adv-x="1362" 
d="M113 565q0 150 98 320l125 178q2 4 2 10q0 23 -29 52l-97 96q7 8 16 8h258q14 0 16 -8q-89 -102 -154 -262q-71 -176 -71 -394q0 -230 94 -367q108 -159 326 -159q116 0 232 55q142 66 142 170v756q0 74 -43 127l-88 64v18h264v-1230h-133v143q-42 -42 -153 -99
q-128 -66 -277 -66q-255 0 -401 185q-127 161 -127 403z" />
    <glyph glyph-name="V" unicode="V" horiz-adv-x="1321" 
d="M8 1229h340q7 -2 11 -6q-49 -41 -56 -105l6 -36q20 -67 62 -174q46 -117 90 -211q89 -191 172 -344l62 -111q12 -22 22 -37l100 184l200 375q84 158 137 289l6 39q0 39 -29 74l-65 59l18 4h215l-61 -133l-221 -412q-129 -241 -343 -703q-6 -18 -20 -20q-26 0 -62 92
l-102 261q-67 173 -174 397q-46 96 -105 203q-57 102 -102 168z" />
    <glyph glyph-name="W" unicode="W" horiz-adv-x="1952" 
d="M1024 105q-30 -28 -84 -56q-139 -72 -299 -72q-255 0 -401 199q-127 173 -127 420q0 150 98 303q109 138 125 164q2 4 2 10q0 23 -29 52l-97 96q7 8 16 8h258q10 0 14 -2q0 -2 2 -4q-225 -225 -225 -627q0 -299 151 -442q121 -115 312 -115q159 0 258 96q-51 63 -80 121
q-80 158 -80 340q0 255 134 467q2 4 2 10q0 24 -29 52l-98 96q7 8 15 8h203q21 0 23 -16q-86 -268 -86 -617q0 -220 75 -367q96 -190 295 -190q94 0 187 64q102 71 102 161v756q0 74 -43 127l-88 64v18h264v-1230h-133v143q-23 -40 -119 -99q-109 -66 -245 -66
q-93 0 -193 64q-33 21 -80 64z" />
    <glyph glyph-name="X" unicode="X" horiz-adv-x="1311" 
d="M24 0q50 101 172 309l205 351l76 125q14 24 27 41q-122 147 -197 215q-66 60 -122 80l-62 8h-43q-12 -2 -37 -11l-17 -4q81 74 177 74q105 0 248 -127q46 -41 119 -129q111 149 174 205q104 92 223 92q41 0 55 -4q39 -3 76 -21l-8 -16l-56 -57l-28 -84l-15 -39
q-37 100 -122 100q-66 0 -138 -61t-125 -158l680 -889h-209l-116 180l-236 355q-127 192 -180 243l-55 -90q-48 -79 -127 -264q-74 -174 -137 -424h-202z" />
    <glyph glyph-name="Y" unicode="Y" horiz-adv-x="1362" 
d="M1204 201q0 -289 -149 -439.5t-434 -150.5q-148 0 -295 36l-114 44q51 15 134 69q27 14 62 47q0 -61 126 -108q104 -39 179 -39q147 0 244 106q114 125 114 376q-42 -42 -153 -99q-128 -66 -277 -66q-255 0 -401 185q-127 161 -127 403q0 150 98 320l125 178q2 4 2 10
q0 23 -29 52l-97 96q7 8 16 8h258q14 0 16 -8q-89 -102 -154 -262q-71 -176 -71 -394q0 -225 93 -364q109 -162 322 -162q117 0 235 55q144 66 144 170v756q0 74 -43 127l-88 64v18h264v-1028z" />
    <glyph glyph-name="Z" unicode="Z" horiz-adv-x="1387" 
d="M37 0l1092 1091h-637q-131 0 -254 -30q-128 -31 -135 -41l104 117q41 46 90 153q15 -12 31 -22q15 -13 41 -27q44 -24 102 -37l133 -14l160 -4q16 0 141 6q54 1 129 4l197 11q74 4 74 -19q-6 -14 -10 -18l-906 -906l99 41q43 18 106 31q48 10 92 10l45 -4
q132 -12 265 -114q104 -80 194 -80q54 0 101 18q17 5 49 17v-3q0 -23 -84 -151q-88 -134 -131 -134h-4q-54 13 -320 232q-104 86 -240 86q-153 0 -340 -125q-54 -36 -151 -125z" />
    <glyph glyph-name="bracketleft" unicode="[" horiz-adv-x="565" 
d="M131 -66l6 1365q7 29 29 43q55 35 88 39h246l-180 -74l-56 8v-1315h236l-180 -66h-189z" />
    <glyph glyph-name="backslash" unicode="\" horiz-adv-x="938" 
d="M699 135l-428 1016q-13 32 -27 60q-11 18 -45 65q-53 74 -76 92l-82 49l4 17h170l600 -1407q20 -42 45 -72h-98q0 33 -20 80z" />
    <glyph glyph-name="bracketright" unicode="]" horiz-adv-x="565" 
d="M361 1372v-1314q0 -18 -8 -51t-29 -42q-58 -35 -88 -39h-246l180 74l58 -8v1314h-238l180 66h191z" />
    <glyph glyph-name="asciicircum" unicode="^" horiz-adv-x="819" 
d="M219 756l-23 18l90 74q84 69 124 135l59 -61q57 -59 168 -101l-82 -69q-46 19 -123 84l-63 53q-23 -41 -88 -88z" />
    <glyph glyph-name="underscore" unicode="_" horiz-adv-x="942" 
d="M172 -33h942l-172 -87h-942z" />
    <glyph glyph-name="grave" unicode="`" horiz-adv-x="615" 
d="M124 899q-13 6 -15 27q0 19 17 36t36 17q18 -6 25 -10l63 -53l68 -68q80 -79 80 -90q-17 4 -27 8q-32 12 -79 35q-91 44 -168 98z" />
    <glyph glyph-name="a" unicode="a" horiz-adv-x="778" 
d="M541 221l-131 263q-103 0 -189 -66q-96 -74 -96 -176q0 -168 156 -168q87 0 184 74q29 22 76 73zM238 -8q-101 0 -165 49q-71 54 -71 152q0 142 166 239q131 76 230 76l-50 98q-23 44 -41 58q-24 14 -57 18q-27 0 -43 -8q-7 -1 -12.5 -5.5t-7.5 -6.5q14 29 76 63
q54 29 65 86l51 -59q51 -70 80 -129l311 -623h-118l-99 197l-100 -103q-121 -102 -215 -102z" />
    <glyph glyph-name="b" unicode="b" horiz-adv-x="824" 
d="M23 332q0 106 60 206q30 49 113 144q60 69 60 99q0 65 -81 108l-62 33q45 24 113 29l82 6q12 1 40 19t50 18q7 -12 8 -23l2 -37q3 -57 -131 -270q-131 -208 -131 -332q0 -117 59 -209q69 -108 176 -108q122 0 184 111q50 89 50 222q0 141 -68 224q-55 67 -133 67
q-64 0 -137 -47q-7 -5 -17 -10q0 36 66 72q63 34 133 34q130 0 206 -90q73 -84 73 -217q0 -128 -89 -252q-106 -147 -268 -147q-153 0 -255.5 99t-102.5 251z" />
    <glyph glyph-name="c" unicode="c" horiz-adv-x="758" 
d="M391 707q90 0 172 -51q70 -44 70 -66q0 -12 -65 -43l-68 -22l4 40q0 109 -125 109q-113 0 -178 -109q-53 -91 -53 -212q0 -129 81.5 -225.5t204.5 -96.5q84 0 170 78l78 71l-65 -102q-103 -96 -232 -96q-172 0 -269 113q-91 107 -91 282q0 144 113 239q107 91 253 91z
" />
    <glyph glyph-name="d" unicode="d" horiz-adv-x="834" 
d="M375 692q83 0 172 -33q6 -1 27 -10q17 -10 35 -22v156q0 46 -44 86q-58 53 -77 53q78 9 139 51l123 84l-2 -31q-33 -110 -33 -174v-737q0 -49 8 -72l25 -42l-139 -1v66q-84 -84 -234 -84q-166 0 -260 100t-94 264q0 149 119 252q109 94 235 94zM375 659q-119 0 -180 -101
q-51 -84 -51 -212q0 -132 49 -220q61 -111 182 -111q70 0 148 51q86 57 86 123v315q0 46 -62 96q-73 59 -172 59z" />
    <glyph glyph-name="e" unicode="e" horiz-adv-x="729" 
d="M4 344q0 156 90 257q94 106 248 106q150 0 230 -101l37 -100h-467l-5 -22q-8 -62 -10 -74v-47q0 -144 84 -238t197 -94q67 0 147 51l80 51l-61 -82q-95 -69 -224 -69q-134 0 -240 109t-106 253zM152 539h338l-13 41q-43 94 -159 94q-74 0 -129 -67z" />
    <glyph glyph-name="f" unicode="f" horiz-adv-x="574" 
d="M94 -402v918q0 57 -36 111q-47 70 -60 72l127 -13q31 0 43 4l37 25q91 78 184 78q62 0 125 -49q51 -39 54 -66l-23 -4q-42 0 -66 -10q-47 -20 -77 -78l6 35l6 51q0 72 -68 72q-52 0 -94 -54q-52 -68 -52 -170v-462l46 6q61 24 100 24q23 0 45 -8l52 -12l45 -4l49 2l-2 -6
q-17 -23 -53 -41q-35 -13 -78 -13q-30 0 -60 11q-50 18 -102 18q-39 0 -42 -10v-341z" />
    <glyph glyph-name="g" unicode="g" horiz-adv-x="844" 
d="M-4 639l78 60q27 20 70 59q70 -70 161 -70h422l-22 -49h-178q-155 0 -269 -103q-118 -107 -118 -259q0 -82 47 -150q59 -86 153 -86q84 0 168 66q102 80 144 219q26 87 37 203q8 88 16 90l12 -80q12 -80 12 -201q0 -293 -57 -459q-99 -287 -371 -287q-104 0 -200 72
l-67 76q42 12 116 129q29 47 61 57l-16 -51q-19 -61 -19 -105q0 -61 68 -106q53 -35 102 -35q107 0 181 119q84 134 84 389q-49 -43 -97 -71q-125 -74 -252 -74q-106 0 -175.5 73t-69.5 179q0 160 114 272q94 92 226 123h-361z" />
    <glyph glyph-name="h" unicode="h" horiz-adv-x="862" 
d="M99 783q0 47 -43 86q-58 53 -79 53q60 11 126 51l137 84l-2 -31q-33 -110 -33 -174v-217h35q133 64 244 64q263 0 263 -383q0 -88 -14 -164l-28 -152h-107q43 195 43 316q0 172 -73 260q-60 73 -156 73q-79 0 -141 -40q-66 -42 -66 -95v-432q0 -26 10 -43l23 -39h-172
q33 45 33 82v701z" />
    <glyph glyph-name="i" unicode="i" horiz-adv-x="410" 
d="M241 82q0 -31 7 -47q4 -18 21 -35h-166q32 34 32 82v461q0 51 -17 78q-15 22 -40 35q-27 9 -37 16q-14 6 -22 16h222v-606z" />
    <glyph glyph-name="j" unicode="j" horiz-adv-x="410" 
d="M241 0q0 -145 -71 -269q-61 -106 -133 -137q29 49 63.5 159t34.5 247v543q0 51 -17 78q-15 22 -40 35q-27 9 -37 16q-14 6 -22 16h222v-688z" />
    <glyph glyph-name="k" unicode="k" horiz-adv-x="836" 
d="M101 783q0 47 -43 86q-58 53 -79 53q60 11 126 51l137 84l-2 -31q-33 -110 -33 -174v-352q0 -14 45 -14q83 0 182 36q115 42 115 97q0 28 -18 57l2 12h166l-45 -84q-89 -92 -242 -131q113 0 194 -84q115 -120 115 -389h-106q0 248 -117 367q-82 84 -207 84q-35 0 -59 -6
q-25 -9 -25 -21v-342q0 -49 33 -82h-172q33 35 33 82v701z" />
    <glyph glyph-name="l" unicode="l" horiz-adv-x="516" 
d="M43 381q0 134 39 232l90 227q0 33 -28 68l-68 69q12 6 21 6q57 0 210 51l56 13q-197 -284 -197 -666q0 -173 80 -278q73 -95 166 -90l37 2q14 2 20 2q6 -2 8 -4q0 -11 -43 -23q-26 -7 -37.5 -9t-39.5 -2q-130 0 -222 113t-92 289z" />
    <glyph glyph-name="m" unicode="m" horiz-adv-x="1282" 
d="M684 0h-112q32 187 32 301q0 348 -213 348q-60 0 -120 -37q-68 -41 -68 -98v-432q0 -49 33 -82h-172q33 35 33 82v416q0 64 -44 119q-52 66 -76 68l17 -2h12q24 0 97 12l73 12q23 0 27 -19v-53l39 2q129 62 215 62q84 0 137 -35q19 -10 37 -35l90 41q64 29 178 29
q148 0 213 -117q51 -92 51 -268q0 -77 -8 -150q-2 -30 -8 -80q-2 -13 -20 -84h-113l31 172q12 67 12 142q0 129 -49 220q-62 115 -180 115q-60 0 -103 -18q-37 -15 -63 -45q55 -151 49 -285l-6 -145q-3 -61 -8 -90q-9 -41 -13 -66z" />
    <glyph glyph-name="n" unicode="n" horiz-adv-x="865" 
d="M99 498q0 65 -43 119q-52 66 -77 68l29 -2l80 6l92 18q25 0 25 -17v-55l37 2q129 62 242 62q263 0 263 -383q0 -72 -8 -150q-2 -31 -8 -80q-2 -13 -20 -86h-107q11 44 17 92q4 27 10 74l10 150q1 16 1 32q0 137 -77 228q-62 73 -159 73q-62 0 -127 -36q-74 -42 -74 -99
v-432q0 -49 33 -82h-172q33 35 33 82v416z" />
    <glyph glyph-name="o" unicode="o" horiz-adv-x="836" 
d="M752 344q0 -162 -101.5 -262t-263.5 -100q-150 0 -252 90q-112 99 -112 272q0 163 100.5 263t263.5 100q162 0 263.5 -100.5t101.5 -262.5zM387 674q-115 0 -178 -96.5t-63 -233.5q0 -128 55 -219q66 -110 186 -110q118 0 183 102q59 93 59 227t-59 226q-67 104 -183 104
z" />
    <glyph glyph-name="p" unicode="p" horiz-adv-x="885" 
d="M101 -389v864q0 149 -99 213l8 7l31 2q20 1 43 -2q13 -4 35 -15q41 -12 78 -51q28 20 65 35q89 37 177 37q186 0 278 -90t92 -242q0 -155 -94 -262q-103 -117 -276 -117q-119 0 -203 57q-13 9 -29 25v-234q0 -36 18 -85q22 -60 52 -60q-38 -10 -91.5 -54t-74.5 -51
q-10 12 -10 23zM207 518v-315q0 -54 80 -117t152 -63q99 0 174 110q73 107 73 236q0 124 -67.5 211.5t-179.5 87.5q-64 0 -143 -43q-89 -49 -89 -107z" />
    <glyph glyph-name="q" unicode="q" horiz-adv-x="881" 
d="M764 -277q-37 -12 -114 -102l-23 -10v461q-22 -22 -55 -41q-71 -41 -176 -41q-177 0 -279 111q-90 98 -90 243q0 147 92 246q103 111 277 111q50 0 150 -12t151 -12h30l58 4q-2 -15 -4 -19q-48 -60 -48 -107v-738q0 -45 31 -81v-13zM396 668q-113 0 -179.5 -96.5
t-66.5 -227.5q0 -124 59 -216q69 -105 187 -105q61 0 144 59q87 63 87 121v315q0 58 -89 107q-78 43 -142 43z" />
    <glyph glyph-name="r" unicode="r" horiz-adv-x="752" 
d="M506 565q0 48 -42 75.5t-101 27.5q-158 0 -158 -74v-260q98 12 150 33q151 62 151 198zM99 94v459q0 38 -24 81q-26 48 -60 54l24 2h17q67 0 106 -22l31 -25q39 35 97 54.5t116 19.5q91 0 156.5 -42t65.5 -110q0 -125 -169 -198q-42 -18 -170 -47q149 -25 268 -160
q112 -127 187 -127l-35 -16q-42 -19 -76 -19q-56 0 -178 121q-92 91 -133 121q-48 36 -92 53q-17 0 -25 -4v-195l6 -49q6 -24 27 -45h-172q10 10 22 39q3 7 7 25q2 14 4 30z" />
    <glyph glyph-name="s" unicode="s" horiz-adv-x="697" 
d="M35 146l25 6q25 6 37 20l53 60l33 30q-31 -43 -31 -96q0 -57 41 -102t94 -45q145 0 145 168q0 91 -211 141t-211 174q0 97 100 156q84 49 189 49q120 0 201 -51q94 -59 94 -170q-34 -7 -76 -29q-43 -18 -88 -57l15 30q18 36 18 86q0 71 -46 114.5t-118 43.5
q-74 0 -126 -38q-57 -43 -57 -114q0 -111 211 -153t211 -191q0 -88 -81 -143q-72 -49 -178 -49q-92 0 -158 37q-74 42 -86 123z" />
    <glyph glyph-name="t" unicode="t" horiz-adv-x="789" 
d="M86 271q0 141 146 268q42 36 147 100h-385l14 35q60 47 76 80q11 -21 58.5 -43.5t134.5 -22.5h475l-25 -49h-209q-124 0 -219 -113q-90 -108 -90 -235q0 -104 68 -182q65 -74 168 -74q61 0 137 35l76 35v-4q0 -11 -31 -39q-86 -77 -229 -77q-132 0 -220 76
q-92 80 -92 210z" />
    <glyph glyph-name="u" unicode="u" horiz-adv-x="824" 
d="M23 297q0 83 39 152q48 83 53 110q0 43 -71 109l-4 20h206l-8 -43q-92 -147 -92 -348q0 -120 60 -189q64 -73 181 -73q64 0 130 30q81 37 81 93v405q0 43 -26 76l-52 37l-2 12h220q-34 -32 -34 -82v-524q0 -49 34 -83h-140v85q-42 -42 -121 -71q-75 -28 -137 -28
q-147 0 -232 83t-85 229z" />
    <glyph glyph-name="v" unicode="v" horiz-adv-x="778" 
d="M0 688h234q14 0 14 -8q0 -2 -2 -6q-29 -71 -33 -106q0 -29 4 -39q31 -121 103 -275q7 -16 26 -55l39 -72l90 201q100 223 114 264q2 8 2 17q0 32 -39 67l-2 12h161l-34 -79l-121 -240l-189 -392l-55 85q-66 175 -140 331q-76 160 -116 216z" />
    <glyph glyph-name="w" unicode="w" horiz-adv-x="1200" 
d="M522 107q-45 -53 -81 -76q-73 -46 -175 -46q-111 0 -178 87q-30 39 -48 98q-17 56 -17 127q0 68 25 129l63 109l4 24q0 37 -69 107l-6 22h206l-8 -43q-92 -147 -92 -348q0 -95 38 -169q48 -93 134 -93q62 0 121 33q36 21 71 63l-14 37q-5 14 -14 62q-7 38 -7 67
q0 69 31 142l41 96l4 24q0 37 -69 107l-7 22h207l-2 -43q-82 -163 -82 -350q0 -127 57.5 -193.5t137.5 -66.5q48 0 111 38q71 41 71 85v405q0 43 -27 76l-51 37l-2 12h219q-33 -33 -33 -82v-524q0 -49 33 -83h-139v85q-26 -26 -93 -62.5t-155 -36.5q-92 0 -157 60z" />
    <glyph glyph-name="x" unicode="x" horiz-adv-x="891" 
d="M-201 -398l43 41q78 74 174 213q135 195 308 523q-140 252 -236 252q-38 0 -64 -16l-18 -11q0 27 53 57q49 27 85 27q156 0 249 -194q67 108 132 149q72 45 163 45q64 0 131 -36l-47 -64l-63 -45q-26 55 -86 63q-62 0 -123 -69l-74 -105l129 -258q66 -133 140 -133
q61 0 61 84q0 25 -3 36t-13 32q9 -16 61 -51q10 -7 33 -27q3 -3 12 -10q-37 -60 -76 -86q-30 -27 -80 -27q-98 0 -204 127q-44 52 -121 190q-161 -382 -344 -575q-125 -132 -210 -132h-12z" />
    <glyph glyph-name="y" unicode="y" horiz-adv-x="824" 
d="M23 297q0 88 45 172l47 88q0 49 -71 113l-4 18h206l-8 -43q-92 -147 -92 -348q0 -110 57 -183q63 -79 170 -79q67 0 137 29q88 37 88 94v405q0 43 -26 76l-52 37l-2 12h220q-34 -32 -34 -82v-520q0 -221 -153 -359q-133 -120 -299 -120q-135 0 -180 88l111 139l-3 -31
q0 -72 41 -110q44 -41 107 -41q102 0 180 96q90 111 90 303v33q-42 -42 -121 -71q-75 -28 -137 -28q-147 0 -232 83t-85 229z" />
    <glyph glyph-name="z" unicode="z" horiz-adv-x="795" 
d="M0 23l586 585h-330q-61 0 -141 -18q-37 -8 -55 -14q-11 -3 -19 -6l72 79q33 36 51 82l35 -24q77 -43 207 -35l116 7l164 13q38 3 38 -10q-6 -12 -11 -16l-500 -498l68 27q72 28 123 28q74 0 174 -71q50 -35 92 -35q25 0 54 12q6 4 14 5t14 3q-19 -38 -57 -90
q-59 -80 -78 -82q-22 0 -164 119q-67 56 -137 56q-84 0 -195 -74l-90 -74z" />
    <glyph glyph-name="braceleft" unicode="{" horiz-adv-x="447" 
d="M156 664q21 -12 64 -47q65 -68 65 -142v-381q0 -53 48 -117q50 -67 101 -67q-119 0 -194 49q-88 58 -88 181v335q0 74 -60 140l-59 49q36 22 59 47q60 64 60 141v336q0 119 88 178q76 51 194 51q-61 -8 -105 -64.5t-44 -119.5v-381q0 -75 -63 -139q-22 -22 -66 -49z" />
    <glyph glyph-name="bar" unicode="|" horiz-adv-x="301" 
d="M70 0v1415h106v-1415h-106z" />
    <glyph glyph-name="braceright" unicode="}" horiz-adv-x="447" 
d="M301 664q-20 -12 -63 -47q-66 -68 -66 -142v-381q0 -72 -59 -128t-91 -56q120 0 195 49q88 58 88 181v335q0 74 60 140l59 49q-36 22 -59 47q-60 64 -60 141v336q0 119 -88 178q-76 51 -195 51q48 -6 99 -55t51 -129v-381q0 -74 64 -139q23 -24 65 -49z" />
    <glyph glyph-name="asciitilde" unicode="~" horiz-adv-x="856" 
d="M146 754l49 29q61 28 114 28q51 0 106 -26.5t105 -26.5q115 0 177 139q-15 -15 -37 -26q-55 -27 -105 -27q-33 0 -47 4q-11 1 -41 12q-102 37 -141 37q-103 0 -180 -143z" />
    <glyph glyph-name="dagger" unicode="&#x2020;" horiz-adv-x="262" 
d="M111 1172v-158h-62v-31h62v-385q69 107 69 211q0 52 -12 113l-12 61h61v31h-61v158h-45z" />
    <glyph glyph-name="cent" unicode="&#xa2;" horiz-adv-x="758" 
d="M346 826q0 42 -6 63.5t-35 44.5l-39 31q-24 19 -24 29q8 6 16 6h153v-172q87 0 160 -52q62 -44 62 -65q0 -12 -65 -43l-68 -23l4 43q0 88 -93 88v-624q80 0 154 49l117 100l-59 -96q-91 -86 -212 -102l9 -58l8 -45h-98q16 43 16 105q-134 0 -227.5 108.5t-93.5 284.5
q0 125 98 226.5t223 101.5zM346 164v612q-72 0 -131 -77q-67 -88 -67 -226q0 -104 50 -187q54 -90 148 -122z" />
    <glyph glyph-name="sterling" unicode="&#xa3;" horiz-adv-x="1045" 
d="M287 594v-510q0 -47 164 -47q129 0 258 28q155 34 237 97l-71 -215q-40 25 -207 32l-389 17l-223 4l61 51q37 37 37 101v434q-82 -12 -119 -35l-14 -6q0 65 133 107v303q0 73 -57 163l-13 19l127 -12q31 0 43 4l37 24q43 39 105 58q59 18 116 18q78 0 148 -25
q85 -31 118 -88q-24 0 -43 -2q-23 -5 -43 -12q-51 -17 -79 -78l6 29q6 18 6 49l-4 35q-19 59 -99 59q-85 0 -160 -63.5t-75 -173.5v-291q66 0 137 -21q60 -18 111 -18q35 0 82 12l14 2q0 -20 -54 -49t-81 -29q-24 0 -88 15q-59 14 -121 14z" />
    <glyph glyph-name="section" unicode="&#xa7;" horiz-adv-x="699" 
d="M264 811q-71 0 -129 -45q-62 -48 -62 -117q0 -121 157 -176q23 -8 157 -28q73 13 120.5 62t47.5 122q0 90 -145 145q-39 15 -146 37zM201 830q-94 25 -143.5 71t-49.5 119q0 128 99 193q86 57 231 57q146 0 282 -59l-28 -60q-14 -42 -14 -78q-26 56 -88 105
q-75 59 -166 59q-93 0 -162 -32q-89 -42 -89 -125q0 -142 275 -203q272 -60 272 -205q0 -189 -196 -242q69 -16 98 -32q98 -54 98 -152q0 -125 -112 -199q-98 -65 -229 -65q-109 0 -218 47q6 14 10 18q17 21 23 56l-2 22v35q0 16 9 18q13 -64 70.5 -113.5t160.5 -49.5
q82 0 150 52q73 56 73 136q0 86 -142 140l-263 87q-142 60 -142 162q0 148 132 215z" />
    <glyph glyph-name="bullet" unicode="&#x2022;" horiz-adv-x="1209" 
d="M307 762q0 122 87.5 208.5t209.5 86.5q124 0 209.5 -85.5t85.5 -209.5t-86.5 -210.5t-210.5 -86.5q-123 0 -209 87t-86 210z" />
    <glyph glyph-name="paragraph" unicode="&#xb6;" horiz-adv-x="1024" 
d="M948 1479v-78h-125v-1401h-94v1401h-182v-1401h-96v783q-164 0 -274 102q-101 94 -101 246q0 166 116 260q107 88 277 88h479z" />
    <glyph glyph-name="germandbls" unicode="&#xdf;" horiz-adv-x="1030" 
d="M463 582q0 -28 110 -89q152 -84 206 -127q110 -89 110 -183q0 -100 -101 -158q-84 -48 -192 -48q-116 0 -196 54q-93 63 -93 168l52 18q54 19 110 68l-16 -31q-17 -33 -17 -76q0 -60 48 -114t122 -54q64 0 112 44.5t48 107.5q0 96 -104 179q-11 8 -193 120
q-104 64 -104 117q57 27 111.5 79.5t54.5 125.5q0 63 -33 120q-41 70 -109 70q-72 0 -118 -72q-23 -37 -34 -71q-12 -38 -12 -84v-729l-106 -85v812q0 53 -37 108q-49 74 -61 74q47 0 73 -8l58 -8q39 0 82 34q100 78 192 78q95 0 161.5 -62t66.5 -157q0 -68 -60 -125z" />
    <glyph glyph-name="acute" unicode="&#xb4;" horiz-adv-x="615" 
d="M443 899q12 6 14 27q0 16 -16 35q-19 18 -37 18q-19 -6 -25 -10q-57 -49 -131 -121q-80 -79 -80 -90q36 9 101 41q108 55 174 100z" />
    <glyph glyph-name="dieresis" unicode="&#xa8;" horiz-adv-x="729" 
d="M57 830q0 67 78 78q70 0 78 -78q0 -70 -78 -78q-70 0 -78 78zM346 830q0 67 78 78q70 0 78 -78q0 -70 -78 -78q-70 0 -78 78z" />
    <glyph glyph-name="AE" unicode="&#xc6;" horiz-adv-x="2147" 
d="M248 201l442 553l-77 158l-113 -52q-105 -92 -182 -227q-97 -170 -97 -336q0 -61 7 -86zM1231 15l21 -14h-218q-25 92 -104 259l-225 467l-594 -748q-23 95 -23 191q0 254 158 477q139 196 346 304q-64 138 -98 180q-68 86 -164 98h240q77 0 90 -29l98 -215l102 -235
q50 229 253.5 354t521.5 125h450l-18 -16q-9 -8 -18 -19t-19 -28q-23 -39 -29 -78l-2 -49q-77 70 -151 100q-98 40 -234 40q-335 0 -502 -224l-43 -80h670q156 0 260 86v-205q-127 86 -260 86h-682l-12 -28q-33 -77 -33 -199q0 -241 106 -402q129 -196 390 -196
q154 0 283.5 72t207.5 204v-164q-91 -62 -215 -108q-146 -54 -276 -54q-158 0 -277 48z" />
    <glyph glyph-name="Oslash" unicode="&#xd8;" horiz-adv-x="1546" 
d="M1088 1202l16 37q3 10 10 37q2 14 7 37v12l-7 13l-16 26l-14 29q12 8 20 8h170l-131 -227q15 0 84 -51q94 -69 156 -175q86 -146 86 -333q0 -309 -215 -488q-189 -157 -465 -157q-162 0 -303 61l-11 -21q-7 -13 -20 -45q-9 -21 -14 -43h-99l56 80l34 56
q-319 173 -319 557q0 294 203 475q191 170 473 170q153 0 299 -58zM277 615q0 -221 98 -375q31 -49 100 -109l582 1006l-74 37q-74 37 -194 37q-238 0 -381 -183q-131 -169 -131 -413zM1102 1102l-582 -1005l74 -39q96 -39 195 -39q220 0 368 170t148 426q0 217 -101 374
q-33 52 -102 113z" />
    <glyph glyph-name="yen" unicode="&#xa5;" horiz-adv-x="1411" 
d="M353 0v74q176 0 221 31q41 28 41 139v356h-551v68h512l-137 234h-375v69h336l-131 225q-55 102 -109 125l-29 12q-19 5 -41 8q-51 10 -86 10v75h619v-75h-29q-107 0 -131 -9q-27 -10 -27 -39l3 -21l10 -20l301 -557l233 422q13 24 18.5 36l18.5 41q10 26 10 54
q0 48 -38.5 70.5t-122.5 22.5v75h516v-75q-120 0 -208 -81q-61 -57 -134 -188l-62 -111h363v-69h-398l-129 -234h527v-68h-551v-356q0 -104 33 -133q53 -37 219 -37v-74h-692z" />
    <glyph glyph-name="ordfeminine" unicode="&#xaa;" horiz-adv-x="586" 
d="M119 748h424l-119 -60h-424zM380 928l-66 131q-52 0 -96 -34q-48 -37 -48 -87q0 -41 17 -61q16 -23 61 -23q43 0 93 37zM228 813q-53 0 -86 29t-33 72q0 70 84 118q68 39 115 39l-25 50q-11 21 -25 30l-26 8l-27 -6l-4 -4q10 19 37 31q24 10 35 43l24 -31l41 -63
l156 -312h-59l-50 99l-51 -51q-52 -52 -106 -52z" />
    <glyph glyph-name="ordmasculine" unicode="&#xba;" horiz-adv-x="549" 
d="M119 748h375l-119 -60h-375zM473 991q0 -84 -49 -133t-133 -49q-81 0 -131.5 50.5t-50.5 131.5q0 83 49.5 133t132.5 50q74 0 128 -48t54 -135zM291 1158q-56 0 -90 -50q-31 -45 -31 -117q0 -64 28 -109q33 -54 93 -54q55 0 88 49.5t33 113.5q0 65 -27 111q-33 56 -94 56
z" />
    <glyph glyph-name="ae" unicode="&#xe6;" horiz-adv-x="1254" 
d="M672 539h338l-12 41q-43 94 -160 94q-74 0 -129 -67zM541 221l-131 263q-103 0 -189 -66q-96 -74 -96 -176q0 -168 156 -168q87 0 184 74q29 22 76 73zM768 1l-116 -1l-99 197l-100 -103q-121 -102 -215 -102q-101 0 -165 49q-71 54 -71 152q0 142 166 239q131 76 230 76
l-50 98q-43 84 -100 84q-20 0 -43 -14l-18 -14q6 11 77 51q48 27 64 98l51 -59q49 -69 80 -129l82 -162q29 115 115.5 180.5t205.5 65.5q150 0 230 -101l37 -100h-467l-4 -22l-11 -74v-47q0 -144 84 -238t197 -94q67 0 147 51l80 51l-61 -82q-94 -69 -223 -69q-50 0 -103 19
z" />
    <glyph glyph-name="oslash" unicode="&#xf8;" horiz-adv-x="836" 
d="M545 602l-307 -528q28 -25 67 -45q43 -14 82 -14q118 0 183 102q59 93 59 227q0 162 -84 258zM201 123l301 516q-47 35 -115 35q-115 0 -178 -96.5t-63 -233.5q0 -129 55 -221zM162 51q-61 45 -100 121t-39 172q0 163 100.5 263t263.5 100q68 0 140 -25l8 17l22 45l11 34
l-7 25l-20 33l-14 29q12 8 20 8h154l-123 -213q174 -91 174 -316q0 -162 -101.5 -262t-263.5 -100q-96 0 -174 39l-47 -83q-24 -42 -24 -65h-98l65 92z" />
    <glyph glyph-name="questiondown" unicode="&#xbf;" horiz-adv-x="760" 
d="M8 309q0 127 82 222q42 48 152 124q82 57 82 91q0 61 -27 96l-59 49q8 10 16 10l64 -12q64 -12 75 -12l41 12l39 12q10 -8 11 -12q0 -69 -89 -165q-163 -177 -164 -179q-89 -117 -89 -236q0 -296 221 -296q106 0 166 88q51 74 51 168q0 53 -4 76t-25 59l33 -8
q102 -78 102 -193q0 -81 -86 -152t-221 -71q-149 0 -257 89q-114 94 -114 240zM465 1077q0 -37 -24.5 -61.5t-61.5 -24.5t-61.5 24.5t-24.5 61.5t24.5 62t61.5 25t61.5 -25t24.5 -62z" />
    <glyph glyph-name="exclamdown" unicode="&#xa1;" horiz-adv-x="402" 
d="M205 160q0 -46 43 -86q58 -53 78 -53q-57 -8 -127 -52l-135 -84l2 31q33 111 33 174v705q0 49 -33 82h172q-33 -33 -33 -82v-635zM238 1037q0 -37 -24.5 -61.5t-61.5 -24.5q-86 0 -86 86q0 37 24.5 61.5t61.5 24.5q36 0 61 -25t25 -61z" />
    <glyph glyph-name="florin" unicode="&#x192;" horiz-adv-x="1010" 
d="M442 853h-225l10 92l227 1q80 545 365 545q78 0 125 -47t47 -129q0 -119 -112 -119q-47 0 -76 25t-29 67q0 34 25 68l27 37q-5 14 -9 16l-18 6q-110 0 -156 -200q-8 -34 -16 -150l-8 -119h248l-9 -93h-247l-13 -221l-14 -254q-9 -139 -25 -233q-31 -181 -88 -332
q-97 -256 -270 -256q-81 0 -132 49.5t-51 129.5q0 51 32 83.5t83 32.5q42 0 70 -27t28 -69q0 -37 -28 -68l-29 -32q10 -21 39 -21q95 0 131 100q41 116 41 390q0 132 12 282q6 62 23 225z" />
    <glyph glyph-name="guillemotleft" unicode="&#xab;" horiz-adv-x="942" 
d="M470 697q-34 -112 -107 -204q-80 -99 -180 -140q80 -61 137 -113q147 -135 178 -223l-125 -32q-40 113 -207 234l-164 119q135 46 230 154q73 84 98 184zM851 697q-34 -112 -107 -204q-80 -99 -180 -140q80 -61 137 -113q147 -135 178 -223l-125 -32q-40 113 -207 234
l-164 119q135 46 230 154q73 84 98 184z" />
    <glyph glyph-name="guillemotright" unicode="&#xbb;" horiz-adv-x="942" 
d="M467 -8q33 111 107 204q80 100 180 140q-80 61 -137 113q-147 135 -179 223l125 31q40 -113 207 -234l164 -119q-135 -46 -229 -153q-73 -84 -99 -184zM86 -8q31 102 100 195q79 105 186 149q-82 62 -137 113q-146 135 -178 223l126 31q39 -113 206 -234l164 -119
q-135 -46 -229 -153q-73 -84 -99 -184z" />
    <glyph glyph-name="ellipsis" unicode="&#x2026;" horiz-adv-x="1106" 
d="M62 72q0 37 24.5 61.5t61.5 24.5q36 0 61 -25t25 -61q0 -37 -24.5 -62t-61.5 -25q-86 0 -86 87zM427 72q0 37 24 61.5t61 24.5t62 -24.5t25 -61.5t-25 -62t-62 -25t-61 25t-24 62zM795 72q0 37 24.5 61.5t61.5 24.5q36 0 61 -25t25 -61q0 -37 -24.5 -62t-61.5 -25
q-86 0 -86 87z" />
    <glyph glyph-name="OE" unicode="&#x152;" horiz-adv-x="2601" 
d="M791 17q209 0 354 147q160 162 160 451q0 282 -160 448q-145 150 -354 150t-355 -148q-159 -162 -159 -450q0 -285 159 -449q144 -149 355 -149zM1383 281q-87 -152 -252 -236q-153 -78 -340 -78q-278 0 -467 162q-211 181 -211 486q0 306 211 485q191 162 467 162
q190 0 348 -83q167 -87 254 -247q188 297 700 297h451l-19 -16q-11 -12 -16 -19q-11 -14 -20 -28q-23 -39 -29 -78l-2 -49q-76 69 -152 100q-98 40 -233 40q-335 0 -502 -224l-43 -80h670q156 0 260 86v-205q-127 86 -260 86h-682l-13 -28q-32 -89 -32 -199q0 -241 106 -402
q129 -196 389 -196q138 0 258 59q149 73 234 217v-164q-91 -62 -215 -108q-146 -54 -277 -54q-411 0 -583 314z" />
    <glyph glyph-name="oe" unicode="&#x153;" horiz-adv-x="1356" 
d="M778 539h338l-12 41q-43 94 -160 94q-73 0 -129 -67zM387 674q-115 0 -178 -96.5t-63 -233.5q0 -128 55 -219q66 -110 186 -110q118 0 183 102q59 93 59 227t-59 226q-67 104 -183 104zM697 140q-52 -79 -131 -118.5t-179 -39.5q-150 0 -252 90q-112 99 -112 272
q0 163 100.5 263t263.5 100q90 0 173 -39.5t128 -108.5q97 148 281 148q149 0 229 -101l37 -100h-467l-4 -22q-4 -33 -10 -74v-47q0 -144 84 -238t196 -94q68 0 148 51l80 51l-62 -82q-94 -69 -223 -69q-82 0 -158 43q-72 41 -122 115z" />
    <glyph glyph-name="endash" unicode="&#x2013;" horiz-adv-x="652" 
d="M0 459h463l86 86h-463z" />
    <glyph glyph-name="emdash" unicode="&#x2014;" horiz-adv-x="1008" 
d="M0 459h821l87 86h-822z" />
    <glyph glyph-name="quotedblleft" unicode="&#x201c;" horiz-adv-x="355" 
d="M102 1116q-12 11 -16 31q0 25 33 82l-43 -33q-58 -69 -58 -116q0 -33 17 -50q16 -12 41 -16q47 0 55 55q0 25 -29 47zM275 1116q-13 10 -17 31q0 25 33 82l-43 -33q-57 -69 -57 -116q0 -33 16 -50q16 -12 41 -16q47 0 55 55q0 26 -28 47z" />
    <glyph glyph-name="quotedblright" unicode="&#x201d;" horiz-adv-x="355" 
d="M242 1133q13 -10 17 -31q0 -25 -33 -82l43 33q57 70 57 117q0 65 -57 65q-47 0 -55 -55q0 -25 28 -47zM70 1133q12 -9 16 -31q0 -25 -33 -82l44 33q57 70 57 117q0 65 -57 65q-48 0 -56 -55q0 -26 29 -47z" />
    <glyph glyph-name="quoteleft" unicode="&#x2018;" horiz-adv-x="207" 
d="M103 1116q-13 10 -17 31q0 25 33 82l-43 -33q-57 -69 -57 -116q0 -33 16 -50q16 -12 41 -16q47 0 55 55q0 24 -28 47z" />
    <glyph glyph-name="quoteright" unicode="&#x2019;" horiz-adv-x="221" 
d="M70 1133q12 -9 16 -31q0 -25 -33 -82l44 33q56 70 56 117q0 30 -16.5 47.5t-39.5 17.5q-48 0 -56 -55q0 -24 29 -47z" />
    <glyph glyph-name="currency" unicode="&#xa4;" horiz-adv-x="1241" 
d="M623 1200q-130 0 -222 -91.5t-92 -221.5q0 -126 92.5 -220.5t221.5 -94.5q131 0 222 92t91 223q0 132 -90.5 222.5t-222.5 90.5zM158 1420l207 -207q130 90 256 90q70 0 136.5 -23.5t123.5 -66.5l205 207l71 -74l-204 -205q24 -33 36 -55q49 -93 49 -201q0 -143 -85 -256
l204 -205l-71 -74l-205 208q-113 -89 -260 -89q-144 0 -256 89l-207 -208l-72 74l207 205q-43 58 -65.5 124.5t-22.5 131.5q0 148 88 256l-207 205z" />
    <glyph glyph-name="guilsinglleft" unicode="&#x2039;" horiz-adv-x="574" 
d="M470 697q-34 -112 -107 -204q-80 -99 -180 -140q80 -61 137 -113q147 -135 178 -223l-125 -32q-40 113 -207 234l-164 119q135 46 230 154q73 84 98 184z" />
    <glyph glyph-name="guilsinglright" unicode="&#x203a;" horiz-adv-x="574" 
d="M80 -8q32 103 100 195q78 105 187 149q-80 61 -137 113q-147 135 -179 223l125 31q40 -113 207 -234l164 -119q-135 -46 -229 -153q-73 -84 -99 -184z" />
    <glyph glyph-name="daggerdbl" unicode="&#x2021;" horiz-adv-x="287" 
d="M164 953h62v-31h-62l12 -62q13 -67 13 -112q0 -66 -17 -107q-14 -47 -53 -104v385h-61v31h61v100h-61v29h61v102h45v-102h62v-29h-62v-100z" />
    <glyph glyph-name="periodcentered" unicode="&#xb7;" horiz-adv-x="389" 
d="M57 512q0 -35 21 -57q25 -21 57 -21q78 0 78 78q0 35 -20.5 56.5t-57.5 21.5q-78 0 -78 -78z" />
    <glyph glyph-name="quotesinglbase" unicode="&#x201a;" horiz-adv-x="221" 
d="M70 113q12 -9 16 -31q0 -24 -33 -82l44 33q56 70 56 117q0 30 -16.5 47.5t-39.5 17.5q-48 0 -56 -55q0 -24 29 -47z" />
    <glyph glyph-name="quotedblbase" unicode="&#x201e;" horiz-adv-x="355" 
d="M242 113q13 -10 17 -31q0 -24 -33 -82l43 33q57 70 57 117q0 65 -57 65q-47 0 -55 -55q0 -25 28 -47zM70 113q12 -9 16 -31q0 -24 -33 -82l44 33q57 70 57 117q0 65 -57 65q-48 0 -56 -55q0 -26 29 -47z" />
    <glyph glyph-name="perthousand" unicode="&#x2030;" horiz-adv-x="2484" 
d="M1691 271q0 77 35 161q37 88 93 160q153 195 334 195q110 0 175.5 -71t65.5 -185q0 -89 -32 -176t-97 -177q-67 -93 -141 -135q-79 -45 -170 -45q-126 0 -194.5 69t-68.5 204zM2190 715q-102 0 -199 -147q-152 -231 -152 -379q0 -59 37 -95t99 -36q55 0 98 22
q19 9 47.5 33t44.5 41q172 182 172 381q0 76 -35 125q-39 55 -112 55zM895 271q0 154 127 321q61 80 147 134q97 61 187 61q110 0 178 -73q65 -72 65 -183q0 -172 -130 -352.5t-312 -180.5q-125 0 -193.5 69.5t-68.5 203.5zM383 -33l738 1317q-99 -73 -218 -73l-57 6l-65 24
l6 -47l2 -43q3 -72 -33 -170q-81 -220 -244 -316q-83 -49 -168 -49q-114 0 -186 72t-72 197q0 163 125 328q66 87 166 147q85 51 176 51q65 0 107.5 -22t79.5 -70q51 -36 112 -43q17 -2 51 -2q98 0 185.5 47t134.5 129h90l-834 -1483h-96zM1393 715q-51 0 -103 -37
q-24 -17 -47 -45q-30 -36 -49 -65q-151 -228 -151 -379q0 -58 34 -97q39 -34 101 -34q101 0 190 96q172 186 172 381q0 76 -35 125q-39 55 -112 55zM711 1262q-54 20 -78 41q-35 23 -51 45q-24 0 -53 -15q-37 -19 -58 -36q-45 -37 -112 -148q-125 -207 -125 -336
q0 -54 36.5 -93.5t96.5 -39.5q71 0 133 45q25 18 65 62q98 108 140 227q29 82 24 141l-4 52q-2 25 -14 55z" />
    <glyph glyph-name="circumflex" unicode="&#x2c6;" horiz-adv-x="819" 
d="M219 756l-23 18l90 74q84 69 124 135l59 -61q57 -59 168 -101l-82 -69q-46 19 -123 84l-63 53q-23 -41 -88 -88z" />
    <glyph glyph-name="tilde" unicode="&#x2dc;" horiz-adv-x="977" 
d="M215 754l47 27q64 26 119 26q42 0 92 -20l58 -23l61 -10q107 0 174 133q-38 -25 -53 -31q-46 -18 -84 -16l-51 2l-115 39l-65 10q-107 0 -183 -137z" />
    <glyph glyph-name="macron" unicode="&#xaf;" horiz-adv-x="854" 
d="M104 754h445l180 65h-442z" />
    <glyph glyph-name="macron" unicode="&#x2c9;" horiz-adv-x="854" 
d="M104 754h445l180 65h-442z" />
    <glyph glyph-name="cedilla" unicode="&#xb8;" horiz-adv-x="819" 
d="M508 0q-43 0 -43 -37q0 -35 62 -100q30 -31 30 -56q0 -37 -78 -63q-58 -19 -120 -19q-9 0 -14 1t-9 3l8 7q49 12 70 34q21 18 22 41q1 28 -44 85q-49 61 -52 79q0 17 15 25h153z" />
    <glyph glyph-name="Scaron" unicode="&#x160;" horiz-adv-x="1020" 
d="M132 66l12 28q21 33 35 76l2 31l-4 57q-1 12 10 21q25 -108 123 -172q91 -60 206 -60q126 0 203 72t77 197q0 145 -190 200l-358 103q-192 80 -192 256q0 174 153 270q134 84 336 84q190 0 385 -82l-39 -88q-22 -50 -22 -108q-34 72 -127 145q-105 83 -238 83
q-137 0 -213 -36q-102 -48 -102 -172q0 -170 191 -242l358 -96q192 -74 192 -256q0 -172 -156 -282q-140 -97 -319 -97q-119 0 -237 35q-41 12 -86 33zM735 1508l23 -19l-90 -74q-85 -70 -123 -135l-59 62q-76 65 -168 100l82 70q49 -23 122 -84l64 -54q22 40 88 89z" />
    <glyph glyph-name="trademark" unicode="&#x2122;" horiz-adv-x="1549" 
d="M2 1121l23 34q24 35 24 66l21 -19q41 -20 94 -20h416l-10 -8l-20 -21l-11 -22l-6 -25q-45 51 -109 51h-74q-81 0 -137 -96q-49 -83 -49 -170q0 -194 176 -194q65 0 115 30q44 26 78 78v-65q-29 -24 -60 -37q-63 -27 -133 -27q-102 0 -168 48q-73 55 -73 153q0 105 90 205
q30 34 90 75h-158q-56 0 -84 -16zM572 936q0 126 90 195q75 57 178 57q86 0 141 -43q19 -12 39 -45q72 84 182 84q103 0 166 -74q59 -69 59 -174q0 -106 -69 -181q-72 -77 -176 -77q-70 0 -109 60l31 -19q47 -20 82 -20q76 0 126 72.5t50 164.5q0 93 -42 156q-49 72 -138 72
q-61 0 -105.5 -35.5t-44.5 -95.5v-340h-53v319q0 156 -139 156q-85 0 -144 -69t-59 -163q0 -123 72 -188q55 -49 127 -49q77 0 108 47q-43 -68 -129 -68q-102 0 -172.5 78t-70.5 180z" />
    <glyph glyph-name="scaron" unicode="&#x161;" horiz-adv-x="697" 
d="M35 146l25 6q25 6 37 20l53 60l33 30q-31 -43 -31 -96q0 -57 41 -102t94 -45q145 0 145 168q0 91 -211 141t-211 174q0 97 100 156q84 49 189 49q120 0 201 -51q94 -59 94 -170q-34 -7 -76 -29q-43 -18 -88 -57l15 30q18 36 18 86q0 71 -46 114.5t-118 43.5
q-74 0 -126 -38q-57 -43 -57 -114q0 -111 211 -153t211 -191q0 -88 -81 -143q-72 -49 -178 -49q-92 0 -158 37q-74 42 -86 123zM510 979l22 -18l-90 -74q-85 -70 -122 -135l-60 61q-58 59 -168 101l82 69q30 -12 56 -30q11 -8 67 -54l64 -53q21 38 88 88z" />
    <glyph glyph-name="Ydieresis" unicode="&#x178;" horiz-adv-x="1362" 
d="M498 1370q0 70 78 78q67 0 78 -78q0 -69 -78 -77q-70 0 -78 77zM787 1370q0 70 78 78q69 0 77 -78q0 -68 -77 -77q-70 0 -78 77zM1204 201q0 -289 -149 -439.5t-434 -150.5q-148 0 -295 36l-114 44q51 15 134 69q27 14 62 47q0 -61 126 -108q104 -39 179 -39
q147 0 244 106q114 125 114 376q-42 -42 -153 -99q-128 -66 -277 -66q-255 0 -401 185q-127 161 -127 403q0 150 98 320l125 178q2 4 2 10q0 23 -29 52l-97 96q7 8 16 8h258q14 0 16 -8q-89 -102 -154 -262q-71 -176 -71 -394q0 -225 93 -364q109 -162 322 -162
q117 0 235 55q144 66 144 170v756q0 74 -43 127l-88 64v18h264v-1028z" />
    <glyph glyph-name="nonbreakingspace" unicode="&#xa0;" horiz-adv-x="488" 
 />
    <glyph glyph-name="brokenbar" unicode="&#xa6;" horiz-adv-x="301" 
d="M70 815v600h106v-600h-106zM70 -4v600h106v-600h-106z" />
    <glyph glyph-name="copyright" unicode="&#xa9;" horiz-adv-x="1024" 
d="M59 615q0 -200 134 -318q120 -106 293 -106q172 0 292 104q134 116 134 320q0 199 -134 317q-121 107 -292 107t-293 -105q-134 -116 -134 -319zM10 615q0 223 148 354q135 119 328 119t325 -117q150 -133 150 -356q0 -225 -148 -355q-134 -118 -327 -118
q-194 0 -326 116q-150 132 -150 357zM525 889h215l-9 -8l-20 -25l-8 -28v-25q-49 63 -178 63q-115 0 -191 -68q-78 -71 -78 -185q0 -111 62 -193q59 -78 168 -78q59 0 118 33t97 90v-74q-84 -72 -226 -72q-127 0 -209.5 78t-82.5 216q0 133 108 209q95 67 234 67z" />
    <glyph glyph-name="logicalnot" unicode="&#xac;" horiz-adv-x="1706" 
d="M254 858h1198v-501h-114v384h-1084v117z" />
    <glyph glyph-name="minus" unicode="&#xad;" horiz-adv-x="776" 
d="M121 545h553l-86 -87h-553z" />
    <glyph glyph-name="minus" unicode="&#x2212;" horiz-adv-x="776" 
d="M121 545h553l-86 -87h-553z" />
    <glyph glyph-name="registered" unicode="&#xae;" horiz-adv-x="1024" 
d="M59 774q0 -199 134 -317q121 -107 293 -107q171 0 292 105q134 116 134 319q0 200 -134 318q-120 106 -292 106t-293 -104q-134 -115 -134 -320zM10 774q0 225 148 355q134 118 328 118q193 0 325 -116q150 -132 150 -357q0 -223 -148 -354q-135 -119 -327 -119
q-194 0 -326 117q-150 133 -150 356zM580 983q0 84 -90 84q-107 0 -118 -73v-216q70 19 103 37q105 58 105 168zM305 551v424q0 32 -19 67q-21 40 -50 46l30 2q51 3 80 -27l17 -29q38 36 77.5 52t86.5 16q54 0 92 -28q43 -31 43 -83q0 -93 -109 -170q-36 -25 -110 -55
q46 -16 162 -144q113 -124 196 -147h-141q-41 23 -115 113l-82 100q-34 41 -67 56q-15 0 -24 -4v-189l3 -43q4 -18 14 -33h-100q10 13 12 33z" />
    <glyph glyph-name="degree" unicode="&#xb0;" horiz-adv-x="422" 
d="M69 1043q0 53 47 91t101 38q51 0 91 -39t40 -90q0 -54 -40.5 -97t-94.5 -43t-99 43t-45 97zM211 936q54 0 74 29q10 14 14 51q0 42 -30.5 82.5t-71.5 40.5q-28 0 -53 -23t-25 -51q0 -41 30 -85t62 -44z" />
    <glyph glyph-name="plusminus" unicode="&#xb1;" horiz-adv-x="1706" 
d="M254 158h1198v-117h-1198v117zM795 1180h119v-344h538v-117h-538v-344h-119v344h-541v117h541v344z" />
    <glyph glyph-name="twosuperior" unicode="&#xb2;" horiz-adv-x="590" 
d="M66 705q127 104 168 144q168 164 168 269q0 76 -43 115t-101 39q-73 0 -73 -45q0 -31 38 -68l-22 5l-45 6l-64 -6q0 32 58 77q69 54 159 54q66 0 109 -30q51 -34 51 -97q0 -121 -131 -263q-38 -41 -172 -151h215q47 0 72 14l49 27l-27 -45q-24 -51 -28 -82
q-37 37 -148 37h-233z" />
    <glyph glyph-name="threesuperior" unicode="&#xb3;" horiz-adv-x="584" 
d="M221 1168l-22 8l-43 14l-64 4q51 99 201 99q60 0 113 -29q49 -27 49 -72q0 -59 -49 -100l-84 -41q153 -67 153 -191q0 -75 -62 -123q-57 -45 -134 -45q-78 0 -146 33l-45 37q40 5 70 21l33 18v-10q0 -33 22.5 -56.5t55.5 -23.5q37 0 75 33q49 42 49 116q0 161 -149 179
l70 24q69 39 69 101q0 49 -44 82q-40 30 -91 30q-53 0 -53 -43q0 -24 26 -65z" />
    <glyph glyph-name="mu" unicode="&#xb5;" horiz-adv-x="1121" 
d="M164 193q-25 -129 -51 -339q-33 -272 -113 -272t-80 88q0 39 65 274q62 222 105 427l109 514h147l-114 -551l-2 -53q-3 -82 40 -128t119 -46q95 0 162 68t96 200l111 510h150l-135 -668q-3 -43 25 -75.5t67 -32.5q30 0 65 18q33 23 51 51q21 32 41 93t39 61q12 0 19 -10
l8 -27q0 -40 -22 -108q-6 -12 -19 -41q-76 -165 -230 -165q-73 0 -114 61q-35 54 -35 130v23q-42 -106 -115 -162t-166 -56q-97 0 -151.5 53t-71.5 163z" />
    <glyph glyph-name="mu" unicode="&#x3bc;" horiz-adv-x="1121" 
d="M164 193q-25 -129 -51 -339q-33 -272 -113 -272t-80 88q0 39 65 274q62 222 105 427l109 514h147l-114 -551l-2 -53q-3 -82 40 -128t119 -46q95 0 162 68t96 200l111 510h150l-135 -668q-3 -43 25 -75.5t67 -32.5q30 0 65 18q33 23 51 51q21 32 41 93t39 61q12 0 19 -10
l8 -27q0 -40 -22 -108q-6 -12 -19 -41q-76 -165 -230 -165q-73 0 -114 61q-35 54 -35 130v23q-42 -106 -115 -162t-166 -56q-97 0 -151.5 53t-71.5 163z" />
    <glyph glyph-name="onesuperior" unicode="&#xb9;" horiz-adv-x="430" 
d="M256 740q0 -12 13 -27h-99q11 13 13 33l4 43v428q0 16 -35 16h-15l-8 -2l54 41q30 22 49 27q22 0 22 -41z" />
    <glyph glyph-name="onequarter" unicode="&#xbc;" horiz-adv-x="609" 
d="M312 842q1 -11 12 -27h-98q10 13 12 33l4 43v428q0 17 -35 17h-14l-8 -3l53 41q28 22 49 27q22 0 22 -41zM99 731h374l-43 -43h-374zM152 453q0 55 -27 82l-59 26l22 9l58 10q8 1 22 4q3 1 33 12q10 -2 12 -4q0 -134 -41 -256q-14 -42 -43 -98h213v234q0 26 -16 43
l-31 26q46 7 88 37l43 31v-15q-13 -45 -17 -88v-268h130l-74 -33h-56v-170q0 -18 15 -35h-98q10 10 12 31l4 45v129h-289l50 72q49 90 49 176z" />
    <glyph glyph-name="onehalf" unicode="&#xbd;" horiz-adv-x="609" 
d="M312 842q1 -11 12 -27h-98q10 13 12 33l4 43v428q0 17 -35 17h-14l-8 -3l53 41q28 22 49 27q22 0 22 -41zM99 731h374l-43 -43h-374zM66 -4q127 104 168 144q168 164 168 270q0 76 -42.5 114.5t-101.5 38.5q-73 0 -73 -45q0 -30 38 -67l-22 4l-45 6l-64 -6q0 33 58 78
q69 53 159 53q63 0 105 -27q55 -35 55 -100q0 -120 -131 -262q-42 -46 -172 -152h215q44 0 72 15l49 26l-27 -45q-24 -51 -28 -82q-41 37 -148 37h-233z" />
    <glyph glyph-name="threequarters" unicode="&#xbe;" horiz-adv-x="584" 
d="M221 1290l-22 9l-43 14l-64 4q50 98 201 98q61 0 113 -28q49 -27 49 -72q0 -59 -49 -100l-84 -41q85 -37 123 -94q30 -43 30 -97q0 -75 -62 -124q-57 -44 -134 -44q-78 0 -146 33l-45 37q35 4 70 20l33 19v-10q0 -80 78 -80q37 0 75 33q49 42 49 116q0 162 -149 178
l70 25q69 39 69 100q0 50 -43 83q-40 30 -92 30q-53 0 -53 -43q0 -25 26 -66zM99 731h374l-43 -43h-374zM152 453q0 55 -27 82l-59 26l22 9l58 10q8 1 22 4q3 1 33 12q10 -2 12 -4q0 -134 -41 -256q-14 -42 -43 -98h213v234q0 26 -16 43l-31 26q46 7 88 37l43 31v-15
q-13 -45 -17 -88v-268h130l-74 -33h-56v-170q0 -18 15 -35h-98q10 10 12 31l4 45v129h-289l50 72q49 90 49 176z" />
    <glyph glyph-name="Agrave" unicode="&#xc0;" horiz-adv-x="1229" 
d="M344 1436q-12 6 -14 27q0 18 17.5 35.5t35.5 17.5q19 -6 25 -10q57 -49 131 -121q80 -79 80 -90q-16 4 -40 13q-32 13 -67 30q-89 44 -168 98zM111 -21q-23 95 -23 191q0 254 158 477q139 196 346 304q-64 138 -98 180q-68 86 -164 98h240q75 0 90 -29q64 -127 213 -477
q139 -326 209 -469q109 -221 170 -254h-218q-24 92 -104 260l-225 467zM248 201l442 553l-77 158l-113 -52q-105 -92 -182 -227q-97 -170 -97 -336q0 -61 7 -86z" />
    <glyph glyph-name="Aacute" unicode="&#xc1;" horiz-adv-x="1229" 
d="M688 1436q13 6 15 27q0 18 -18 35.5t-36 17.5q-18 -6 -24 -10q-57 -49 -131 -121q-80 -79 -80 -90q38 9 100 41q29 14 95 51q52 29 79 49zM111 -21q-23 95 -23 191q0 254 158 477q139 196 346 304q-64 138 -98 180q-68 86 -164 98h240q75 0 90 -29q64 -127 213 -477
q139 -326 209 -469q109 -221 170 -254h-218q-24 92 -104 260l-225 467zM248 201l442 553l-77 158l-113 -52q-105 -92 -182 -227q-97 -170 -97 -336q0 -61 7 -86z" />
    <glyph glyph-name="Acircumflex" unicode="&#xc2;" horiz-adv-x="1229" 
d="M379 1299l-22 18l90 74q82 67 123 135l59 -61q57 -59 168 -101l-82 -69q-44 18 -123 84l-63 53q-23 -41 -88 -88zM111 -21q-23 95 -23 191q0 254 158 477q139 196 346 304q-64 138 -98 180q-68 86 -164 98h240q75 0 90 -29q64 -127 213 -477q139 -326 209 -469
q109 -221 170 -254h-218q-24 92 -104 260l-225 467zM248 201l442 553l-77 158l-113 -52q-105 -92 -182 -227q-97 -170 -97 -336q0 -61 7 -86z" />
    <glyph glyph-name="Atilde" unicode="&#xc3;" horiz-adv-x="1229" 
d="M281 1295l49 28q51 29 115 29q48 0 103 -26.5t108 -26.5q114 0 176 139q-56 -53 -142 -53q-33 0 -47 4q-11 1 -41 12q-102 37 -141 37q-102 0 -180 -143zM111 -21q-23 95 -23 191q0 254 158 477q139 196 346 304q-64 138 -98 180q-68 86 -164 98h240q75 0 90 -29
q64 -127 213 -477q139 -326 209 -469q109 -221 170 -254h-218q-24 92 -104 260l-225 467zM248 201l442 553l-77 158l-113 -52q-105 -92 -182 -227q-97 -170 -97 -336q0 -61 7 -86z" />
    <glyph glyph-name="Adieresis" unicode="&#xc4;" horiz-adv-x="1229" 
d="M303 1370q0 70 78 78q70 0 78 -78q0 -69 -78 -77q-70 0 -78 77zM592 1370q0 70 78 78q70 0 78 -78q0 -69 -78 -77q-70 0 -78 77zM111 -21q-23 95 -23 191q0 254 158 477q139 196 346 304q-64 138 -98 180q-68 86 -164 98h240q75 0 90 -29q64 -127 213 -477
q139 -326 209 -469q109 -221 170 -254h-218q-24 92 -104 260l-225 467zM248 201l442 553l-77 158l-113 -52q-105 -92 -182 -227q-97 -170 -97 -336q0 -61 7 -86z" />
    <glyph glyph-name="Aring" unicode="&#xc5;" horiz-adv-x="1229" 
d="M385 1434q0 54 48 93q45 36 100 36q51 0 91 -39t40 -90q0 -54 -40.5 -96.5t-94.5 -42.5t-99 42.5t-45 96.5zM527 1327q53 0 73 29q11 16 15 51q0 41 -31 82t-72 41q-29 0 -53.5 -22.5t-24.5 -51.5q0 -38 27 -81q30 -48 66 -48zM111 -21q-23 95 -23 191q0 254 158 477
q139 196 346 304q-64 138 -98 180q-68 86 -164 98h240q75 0 90 -29q64 -127 213 -477q139 -326 209 -469q109 -221 170 -254h-218q-24 92 -104 260l-225 467zM248 201l442 553l-77 158l-113 -52q-105 -92 -182 -227q-97 -170 -97 -336q0 -61 7 -86z" />
    <glyph glyph-name="Ccedilla" unicode="&#xc7;" 
d="M838 -31q-45 0 -45 -51q0 -20 51 -62t51 -84q0 -37 -73 -61q-58 -20 -105 -20q-21 0 -27 6l64 43q29 19 29 49q0 10 -54 71q-24 27 -28 58q0 35 8 51q-105 0 -223 48q-375 153 -375 598q0 299 240 466q210 148 522 148h479l-59 -68q-23 -38 -23 -122q-120 140 -401 140
q-245 0 -412 -145q-182 -158 -182 -419q0 -260 145 -428t361 -168q157 0 292 82q110 67 195 192v-162q-65 -69 -223 -121q-125 -41 -207 -41z" />
    <glyph glyph-name="Egrave" unicode="&#xc8;" 
d="M574 1436q-13 6 -15 27q0 18 18 35.5t36 17.5q18 -6 24 -10l64 -54q18 -19 67 -67q80 -79 80 -90q-17 4 -27 8q-32 12 -79 35q-91 44 -168 98zM901 1229h451l-19 -16q-11 -12 -16 -19q-11 -14 -20 -28q-23 -39 -29 -78l-2 -49q-76 69 -152 100q-98 40 -233 40
q-335 0 -502 -224l-43 -80h670q156 0 260 86v-205q-127 86 -260 86h-682l-12 -28q-33 -77 -33 -199q0 -241 106 -402q129 -196 389 -196q138 0 258 59q149 73 234 217v-164q-91 -62 -215 -108q-146 -54 -277 -54q-315 0 -495 191q-164 174 -164 457q0 313 246 476
q210 138 540 138z" />
    <glyph glyph-name="Eacute" unicode="&#xc9;" 
d="M1037 1436q12 6 14 27q0 17 -18 35t-35 18q-19 -6 -25 -10q-57 -49 -131 -121q-80 -79 -80 -90q22 5 35 10q39 13 160 82q55 31 80 49zM901 1229h451l-19 -16q-11 -12 -16 -19q-11 -14 -20 -28q-23 -39 -29 -78l-2 -49q-76 69 -152 100q-98 40 -233 40q-335 0 -502 -224
l-43 -80h670q156 0 260 86v-205q-127 86 -260 86h-682l-12 -28q-33 -77 -33 -199q0 -241 106 -402q129 -196 389 -196q138 0 258 59q149 73 234 217v-164q-91 -62 -215 -108q-146 -54 -277 -54q-315 0 -495 191q-164 174 -164 457q0 313 246 476q210 138 540 138z" />
    <glyph glyph-name="Ecircumflex" unicode="&#xca;" 
d="M649 1299l-22 18l90 74q82 67 123 135l59 -61q57 -59 168 -101l-82 -69q-46 19 -123 84l-63 53q-23 -41 -88 -88zM901 1229h451l-19 -16q-11 -12 -16 -19q-11 -14 -20 -28q-23 -39 -29 -78l-2 -49q-76 69 -152 100q-98 40 -233 40q-335 0 -502 -224l-43 -80h670
q156 0 260 86v-205q-127 86 -260 86h-682l-12 -28q-33 -77 -33 -199q0 -241 106 -402q129 -196 389 -196q138 0 258 59q149 73 234 217v-164q-91 -62 -215 -108q-146 -54 -277 -54q-315 0 -495 191q-164 174 -164 457q0 313 246 476q210 138 540 138z" />
    <glyph glyph-name="Edieresis" unicode="&#xcb;" 
d="M627 1370q0 70 78 78q67 0 78 -78q0 -69 -78 -77q-70 0 -78 77zM916 1370q0 70 78 78q69 0 77 -78q0 -68 -77 -77q-70 0 -78 77zM901 1229h451l-19 -16q-11 -12 -16 -19q-11 -14 -20 -28q-23 -39 -29 -78l-2 -49q-76 69 -152 100q-98 40 -233 40q-335 0 -502 -224
l-43 -80h670q156 0 260 86v-205q-127 86 -260 86h-682l-12 -28q-33 -77 -33 -199q0 -241 106 -402q129 -196 389 -196q138 0 258 59q149 73 234 217v-164q-91 -62 -215 -108q-146 -54 -277 -54q-315 0 -495 191q-164 174 -164 457q0 313 246 476q210 138 540 138z" />
    <glyph glyph-name="Igrave" unicode="&#xcc;" horiz-adv-x="527" 
d="M86 1436q-12 6 -14 27q0 18 17.5 35.5t35.5 17.5q19 -6 25 -10q57 -49 131 -121q80 -79 80 -90q-14 4 -26 8q-34 13 -80 35q-91 44 -169 98zM234 152v842q0 146 -109 182l-78 26q-38 13 -41 23l19 4h342l6 -1163q2 -34 27 -66h-199q16 21 27 64z" />
    <glyph glyph-name="Iacute" unicode="&#xcd;" horiz-adv-x="527" 
d="M443 1436q12 6 14 27q0 18 -17.5 35.5t-35.5 17.5q-19 -6 -25 -10q-57 -49 -131 -121q-80 -79 -80 -90q36 8 101 41q28 14 94 51q55 31 80 49zM234 152v842q0 146 -109 182l-78 26q-38 13 -41 23l19 4h342l6 -1163q2 -34 27 -66h-199q16 21 27 64z" />
    <glyph glyph-name="Icircumflex" unicode="&#xce;" horiz-adv-x="527" 
d="M39 1299l-22 18l90 74q82 67 123 135l59 -61q57 -59 168 -101l-82 -69q-44 18 -123 84l-63 53q-23 -41 -88 -88zM234 152v842q0 146 -109 182l-78 26q-38 13 -41 23l19 4h342l6 -1163q2 -34 27 -66h-199q16 21 27 64z" />
    <glyph glyph-name="Idieresis" unicode="&#xcf;" horiz-adv-x="527" 
d="M25 1370q0 70 78 78q69 0 77 -78q0 -69 -77 -77q-70 0 -78 77zM314 1370q0 69 77 78q70 0 78 -78q0 -69 -78 -77q-69 0 -77 77zM234 152v842q0 146 -109 182l-78 26q-38 13 -41 23l19 4h342l6 -1163q2 -34 27 -66h-199q16 21 27 64z" />
    <glyph glyph-name="Eth" unicode="&#xd0;" horiz-adv-x="1602" 
d="M203 687q44 200 180 329q171 162 457 162q-31 0 -109 -27q-127 -44 -215 -135q-123 -127 -153 -328h276l-86 -87h-198v-34q0 -222 114 -375q130 -175 361 -175q266 0 401 182q119 160 119 416q0 283 -152 428q-195 186 -661 186h-318q60 0 119 71q47 56 72 124
q31 -67 109 -108q72 -38 151 -38q343 0 559 -131q285 -173 285 -532q0 -243 -195 -441q-204 -207 -489 -207q-264 0 -443 152q-196 166 -196 448v34h-191l86 86h117z" />
    <glyph glyph-name="Ntilde" unicode="&#xd1;" horiz-adv-x="1340" 
d="M400 1295l49 28q51 29 114 29q49 0 104 -26.5t107 -26.5q115 0 177 139q-56 -53 -142 -53q-33 0 -47 4q-11 1 -41 12q-102 37 -141 37q-102 0 -180 -143zM154 0q49 86 49 189v938l-98 61l-52 16q-21 7 -28.5 11t-14.5 10l29 4h256l840 -1020v778q0 50 -8 68q-6 25 -33 68
l-103 84v22h189v-1186q0 -47 -12 -51q-2 2 -4 2q-9 5 -21 19l-33 38l-862 1022v-778q0 -158 139 -295h-233z" />
    <glyph glyph-name="Ograve" unicode="&#xd2;" horiz-adv-x="1546" 
d="M652 1436q-13 6 -15 27q0 17 18 35t35 18q19 -6 25 -10q57 -49 131 -121q80 -79 80 -90q-17 4 -27 8q-34 13 -76 33l-4 2q-88 43 -167 98zM791 1262q278 0 467 -162q211 -180 211 -485q0 -307 -211 -486q-191 -162 -467 -162q-278 0 -467 162q-211 181 -211 486
q0 306 211 485q191 162 467 162zM791 17q209 0 354 147q160 162 160 451q0 282 -160 448q-145 150 -354 150t-355 -148q-159 -162 -159 -450q0 -285 159 -449q144 -149 355 -149z" />
    <glyph glyph-name="Oacute" unicode="&#xd3;" horiz-adv-x="1546" 
d="M938 1436q13 6 15 27q0 18 -18 35.5t-36 17.5q-18 -6 -24 -10q-57 -49 -131 -121q-80 -79 -80 -90q38 9 100 41q27 13 94 51q55 31 80 49zM791 1262q278 0 467 -162q211 -180 211 -485q0 -307 -211 -486q-191 -162 -467 -162q-278 0 -467 162q-211 181 -211 486
q0 306 211 485q191 162 467 162zM791 17q209 0 354 147q160 162 160 451q0 282 -160 448q-145 150 -354 150t-355 -148q-159 -162 -159 -450q0 -285 159 -449q144 -149 355 -149z" />
    <glyph glyph-name="Ocircumflex" unicode="&#xd4;" horiz-adv-x="1546" 
d="M617 1299l-23 18l90 74q82 67 123 135l60 -61q59 -60 167 -101l-81 -69q-42 17 -123 84l-64 53q-21 -38 -88 -88zM791 1262q278 0 467 -162q211 -180 211 -485q0 -307 -211 -486q-191 -162 -467 -162q-278 0 -467 162q-211 181 -211 486q0 306 211 485q191 162 467 162z
M791 17q209 0 354 147q160 162 160 451q0 282 -160 448q-145 150 -354 150t-355 -148q-159 -162 -159 -450q0 -285 159 -449q144 -149 355 -149z" />
    <glyph glyph-name="Otilde" unicode="&#xd5;" horiz-adv-x="1546" 
d="M518 1295l50 28q52 29 114 29q48 0 104 -26.5t107 -26.5q114 0 176 139q-17 -17 -37 -27q-52 -26 -104 -26q-33 0 -47 4q-11 1 -41 12q-102 37 -141 37q-103 0 -181 -143zM791 1262q278 0 467 -162q211 -180 211 -485q0 -307 -211 -486q-191 -162 -467 -162
q-278 0 -467 162q-211 181 -211 486q0 306 211 485q191 162 467 162zM791 17q209 0 354 147q160 162 160 451q0 282 -160 448q-145 150 -354 150t-355 -148q-159 -162 -159 -450q0 -285 159 -449q144 -149 355 -149z" />
    <glyph glyph-name="Odieresis" unicode="&#xd6;" horiz-adv-x="1546" 
d="M574 1370q0 70 78 78q69 0 77 -78q0 -68 -77 -77q-70 0 -78 77zM862 1370q0 70 78 78q70 0 78 -78q0 -69 -78 -77q-68 0 -78 77zM791 1262q278 0 467 -162q211 -180 211 -485q0 -307 -211 -486q-191 -162 -467 -162q-278 0 -467 162q-211 181 -211 486q0 306 211 485
q191 162 467 162zM791 17q209 0 354 147q160 162 160 451q0 282 -160 448q-145 150 -354 150t-355 -148q-159 -162 -159 -450q0 -285 159 -449q144 -149 355 -149z" />
    <glyph glyph-name="multiply" unicode="&#xd7;" horiz-adv-x="842" 
d="M629 330l-252 252l-184 -186l-18 75l158 156l-127 127l-62 182l247 -248l205 205l21 -74l-178 -178l131 -129z" />
    <glyph glyph-name="Ugrave" unicode="&#xd9;" horiz-adv-x="1362" 
d="M529 1436q-13 6 -15 27q0 18 18 35.5t36 17.5q18 -6 24 -10l64 -54q18 -19 67 -67q80 -79 80 -90q-17 4 -27 8q-32 12 -79 35q-91 44 -168 98zM113 565q0 150 98 320l125 178q2 4 2 10q0 23 -29 52l-97 96q7 8 16 8h258q14 0 16 -8q-89 -102 -154 -262q-71 -176 -71 -394
q0 -230 94 -367q108 -159 326 -159q116 0 232 55q142 66 142 170v756q0 74 -43 127l-88 64v18h264v-1230h-133v143q-42 -42 -153 -99q-128 -66 -277 -66q-255 0 -401 185q-127 161 -127 403z" />
    <glyph glyph-name="Uacute" unicode="&#xda;" horiz-adv-x="1362" 
d="M848 1436q12 6 14 27q0 18 -17.5 35.5t-35.5 17.5q-18 -6 -24 -10q-57 -49 -131 -121q-80 -79 -80 -90q38 9 100 41q27 13 94 51q55 31 80 49zM113 565q0 150 98 320l125 178q2 4 2 10q0 23 -29 52l-97 96q7 8 16 8h258q14 0 16 -8q-89 -102 -154 -262q-71 -176 -71 -394
q0 -230 94 -367q108 -159 326 -159q116 0 232 55q142 66 142 170v756q0 74 -43 127l-88 64v18h264v-1230h-133v143q-42 -42 -153 -99q-128 -66 -277 -66q-255 0 -401 185q-127 161 -127 403z" />
    <glyph glyph-name="Ucircumflex" unicode="&#xdb;" horiz-adv-x="1362" 
d="M543 1299l-23 18l91 74q82 66 122 135l60 -61q58 -59 168 -101l-82 -69q-42 17 -123 84l-64 53q-21 -38 -88 -88zM113 565q0 150 98 320l125 178q2 4 2 10q0 23 -29 52l-97 96q7 8 16 8h258q14 0 16 -8q-89 -102 -154 -262q-71 -176 -71 -394q0 -230 94 -367
q108 -159 326 -159q116 0 232 55q142 66 142 170v756q0 74 -43 127l-88 64v18h264v-1230h-133v143q-42 -42 -153 -99q-128 -66 -277 -66q-255 0 -401 185q-127 161 -127 403z" />
    <glyph glyph-name="Udieresis" unicode="&#xdc;" horiz-adv-x="1362" 
d="M496 1370q0 70 78 78q67 0 78 -78q0 -69 -78 -77q-70 0 -78 77zM785 1370q0 69 77 78q70 0 78 -78q0 -69 -78 -77q-69 0 -77 77zM113 565q0 150 98 320l125 178q2 4 2 10q0 23 -29 52l-97 96q7 8 16 8h258q14 0 16 -8q-89 -102 -154 -262q-71 -176 -71 -394
q0 -230 94 -367q108 -159 326 -159q116 0 232 55q142 66 142 170v756q0 74 -43 127l-88 64v18h264v-1230h-133v143q-42 -42 -153 -99q-128 -66 -277 -66q-255 0 -401 185q-127 161 -127 403z" />
    <glyph glyph-name="Yacute" unicode="&#xdd;" horiz-adv-x="1362" 
d="M1204 201q0 -289 -149 -439.5t-434 -150.5q-148 0 -295 36l-114 44q51 15 134 69q27 14 62 47q0 -61 126 -108q104 -39 179 -39q147 0 244 106q114 125 114 376q-42 -42 -153 -99q-128 -66 -277 -66q-255 0 -401 185q-127 161 -127 403q0 150 98 320l125 178q2 4 2 10
q0 23 -29 52l-97 96q7 8 16 8h258q14 0 16 -8q-89 -102 -154 -262q-71 -176 -71 -394q0 -225 93 -364q109 -162 322 -162q117 0 235 55q144 66 144 170v756q0 74 -43 127l-88 64v18h264v-1028zM922 1432q12 6 14 26q0 19 -17 36.5t-36 17.5q-19 -6 -25 -11
q-50 -40 -130.5 -119.5t-80.5 -91.5q46 14 101 41l94 52q55 31 80 49z" />
    <glyph glyph-name="Thorn" unicode="&#xde;" horiz-adv-x="1407" 
d="M1165 672q0 265 -149 399q-124 112 -317 112q-133 0 -232 -58q-102 -60 -102 -131v-820q0 -42 93 -83.5t216 -41.5q203 0 332 129q159 160 159 494zM365 1102q163 131 385 131q237 0 399 -141q180 -156 180 -420q0 -292 -213 -489q-197 -183 -452 -183q-166 0 -299 101
v-41q0 -451 -174 -494l20 81q21 85 21 250v1504q0 144 -109 182l-78 27q-39 13 -41 23l19 4h342v-535z" />
    <glyph glyph-name="agrave" unicode="&#xe0;" horiz-adv-x="778" 
d="M172 957q-12 6 -14 26q0 19 17 36.5t36 17.5q19 -7 25 -11q48 -40 131 -121q80 -79 80 -90q-13 3 -27 9q-31 10 -80 34q-87 42 -168 99zM541 221l-131 263q-103 0 -189 -66q-96 -74 -96 -176q0 -168 156 -168q87 0 184 74q29 22 76 73zM238 -8q-101 0 -165 49
q-71 54 -71 152q0 142 166 239q131 76 230 76l-50 98q-23 44 -41 58q-24 14 -57 18q-27 0 -43 -8q-7 -1 -12.5 -5.5t-7.5 -6.5q14 29 76 63q54 29 65 86l51 -59q51 -70 80 -129l311 -623h-118l-99 197l-100 -103q-121 -102 -215 -102z" />
    <glyph glyph-name="aacute" unicode="&#xe1;" horiz-adv-x="778" 
d="M443 953q12 6 14 26q0 19 -17 36t-36 17q-19 -6 -25 -10q-53 -45 -132 -122t-79 -89q17 4 35 10q71 31 160 82q45 25 80 50zM541 221l-131 263q-103 0 -189 -66q-96 -74 -96 -176q0 -168 156 -168q87 0 184 74q29 22 76 73zM238 -8q-101 0 -165 49q-71 54 -71 152
q0 142 166 239q131 76 230 76l-50 98q-23 44 -41 58q-24 14 -57 18q-27 0 -43 -8q-7 -1 -12.5 -5.5t-7.5 -6.5q14 29 76 63q54 29 65 86l51 -59q51 -70 80 -129l311 -623h-118l-99 197l-100 -103q-121 -102 -215 -102z" />
    <glyph glyph-name="acircumflex" unicode="&#xe2;" horiz-adv-x="778" 
d="M166 817l-22 19l90 74q82 67 123 135l59 -62q76 -65 168 -100l-82 -70q-51 23 -123 84l-63 54q-24 -43 -88 -89zM541 221l-131 263q-103 0 -189 -66q-96 -74 -96 -176q0 -168 156 -168q87 0 184 74q29 22 76 73zM238 -8q-101 0 -165 49q-71 54 -71 152q0 142 166 239
q131 76 230 76l-50 98q-23 44 -41 58q-24 14 -57 18q-27 0 -43 -8q-7 -1 -12.5 -5.5t-7.5 -6.5q14 29 76 63q54 29 65 86l51 -59q51 -70 80 -129l311 -623h-118l-99 197l-100 -103q-121 -102 -215 -102z" />
    <glyph glyph-name="atilde" unicode="&#xe3;" horiz-adv-x="778" 
d="M146 811l49 29q61 29 114 29q49 0 105 -27q4 -2 47 -16q34 -11 59 -11q114 0 177 140q-17 -17 -37 -27q-54 -27 -105 -27q-35 0 -47.5 3.5t-40.5 13.5q-102 37 -141 37q-103 0 -180 -144zM541 221l-131 263q-103 0 -189 -66q-96 -74 -96 -176q0 -168 156 -168
q87 0 184 74q29 22 76 73zM238 -8q-101 0 -165 49q-71 54 -71 152q0 142 166 239q131 76 230 76l-50 98q-23 44 -41 58q-24 14 -57 18q-27 0 -43 -8q-7 -1 -12.5 -5.5t-7.5 -6.5q14 29 76 63q54 29 65 86l51 -59q51 -70 80 -129l311 -623h-118l-99 197l-100 -103
q-121 -102 -215 -102z" />
    <glyph glyph-name="adieresis" unicode="&#xe4;" horiz-adv-x="778" 
d="M99 889q0 69 77 78q70 0 78 -78q0 -70 -78 -78q-69 0 -77 78zM385 889q0 70 78 78q70 0 78 -78q0 -70 -78 -78q-70 0 -78 78zM541 221l-131 263q-103 0 -189 -66q-96 -74 -96 -176q0 -168 156 -168q87 0 184 74q29 22 76 73zM238 -8q-101 0 -165 49q-71 54 -71 152
q0 142 166 239q131 76 230 76l-50 98q-23 44 -41 58q-24 14 -57 18q-27 0 -43 -8q-7 -1 -12.5 -5.5t-7.5 -6.5q14 29 76 63q54 29 65 86l51 -59q51 -70 80 -129l311 -623h-118l-99 197l-100 -103q-121 -102 -215 -102z" />
    <glyph glyph-name="aring" unicode="&#xe5;" horiz-adv-x="778" 
d="M76 953q0 54 48 93q44 36 99 36q51 0 91.5 -39t40.5 -90q0 -55 -41 -97.5t-95 -42.5t-98.5 43t-44.5 97zM217 846q55 0 74 29q10 15 14 51q0 42 -30.5 82.5t-71.5 40.5q-28 0 -53 -23t-25 -51q0 -37 27 -81q30 -48 65 -48zM541 221l-131 263q-103 0 -189 -66
q-96 -74 -96 -176q0 -168 156 -168q87 0 184 74q29 22 76 73zM238 -8q-101 0 -165 49q-71 54 -71 152q0 142 166 239q131 76 230 76l-50 98q-23 44 -41 58q-24 14 -57 18q-27 0 -43 -8q-7 -1 -12.5 -5.5t-7.5 -6.5q14 29 76 63q54 29 65 86l51 -59q51 -70 80 -129l311 -623
h-118l-99 197l-100 -103q-121 -102 -215 -102z" />
    <glyph glyph-name="ccedilla" unicode="&#xe7;" horiz-adv-x="758" 
d="M318 -18q-144 20 -222 137q-71 106 -71 258q0 144 113 239q107 91 253 91q90 0 172 -51q70 -44 70 -66q0 -12 -65 -43l-68 -22l4 38q0 95 -125 95q-113 0 -177 -100q-54 -86 -54 -205q0 -129 81.5 -225.5t204.5 -96.5q84 0 170 78l78 71l-65 -102q-103 -96 -232 -96v-39
q0 -13 25 -41.5t26 -57.5q1 -30 -48 -49q-39 -16 -74 -16l-13 2l31 20q37 19 37 47q0 10 -25.5 43t-25.5 52v39z" />
    <glyph glyph-name="egrave" unicode="&#xe8;" horiz-adv-x="729" 
d="M189 899q-13 6 -15 27q0 19 17.5 36t36.5 17q18 -6 24 -10l64 -53l67 -68q80 -79 80 -90q-17 4 -27 8q-32 12 -79 35q-91 44 -168 98zM4 344q0 156 90 257q94 106 248 106q150 0 230 -101l37 -100h-467l-5 -22q-8 -62 -10 -74v-47q0 -144 84 -238t197 -94q67 0 147 51
l80 51l-61 -82q-95 -69 -224 -69q-134 0 -240 109t-106 253zM152 539h338l-13 41q-43 94 -159 94q-74 0 -129 -67z" />
    <glyph glyph-name="eacute" unicode="&#xe9;" horiz-adv-x="729" 
d="M479 899q13 6 15 27q0 17 -18 35t-35 18q-19 -6 -25 -10q-57 -49 -131 -121q-80 -79 -80 -90q37 9 100 41q114 57 174 100zM4 344q0 156 90 257q94 106 248 106q150 0 230 -101l37 -100h-467l-5 -22q-8 -62 -10 -74v-47q0 -144 84 -238t197 -94q67 0 147 51l80 51
l-61 -82q-95 -69 -224 -69q-134 0 -240 109t-106 253zM152 539h338l-13 41q-43 94 -159 94q-74 0 -129 -67z" />
    <glyph glyph-name="ecircumflex" unicode="&#xea;" horiz-adv-x="729" 
d="M174 756l-22 18l90 74q82 67 123 135l59 -61q57 -59 168 -101l-82 -69q-46 19 -123 84l-63 53q-23 -41 -88 -88zM4 344q0 156 90 257q94 106 248 106q150 0 230 -101l37 -100h-467l-5 -22q-8 -62 -10 -74v-47q0 -144 84 -238t197 -94q67 0 147 51l80 51l-61 -82
q-95 -69 -224 -69q-134 0 -240 109t-106 253zM152 539h338l-13 41q-43 94 -159 94q-74 0 -129 -67z" />
    <glyph glyph-name="edieresis" unicode="&#xeb;" horiz-adv-x="729" 
d="M123 830q0 67 78 78q70 0 78 -78q0 -70 -78 -78q-70 0 -78 78zM410 830q0 67 78 78q69 0 77 -78q0 -70 -77 -78q-70 0 -78 78zM4 344q0 156 90 257q94 106 248 106q150 0 230 -101l37 -100h-467l-5 -22q-8 -62 -10 -74v-47q0 -144 84 -238t197 -94q67 0 147 51l80 51
l-61 -82q-95 -69 -224 -69q-134 0 -240 109t-106 253zM152 539h338l-13 41q-43 94 -159 94q-74 0 -129 -67z" />
    <glyph glyph-name="igrave" unicode="&#xec;" horiz-adv-x="463" 
d="M-25 899q-12 6 -14 27q0 18 18 35.5t36 17.5q18 -6 24 -10l64 -53l67 -68q80 -79 80 -90q-17 4 -27 8q-32 12 -79 35q-91 44 -169 98zM241 82q0 -31 7 -47q4 -18 21 -35h-166q32 34 32 82v461q0 51 -17 78q-15 22 -40 35q-27 9 -37 16q-14 6 -22 16h222v-606z" />
    <glyph glyph-name="iacute" unicode="&#xed;" horiz-adv-x="463" 
d="M381 899q12 6 15 27q0 18 -18 35.5t-36 17.5q-18 -6 -24 -10l-62 -53l-69 -68q-80 -79 -80 -90q39 10 100 41q110 56 174 100zM241 82q0 -31 7 -47q4 -18 21 -35h-166q32 34 32 82v461q0 51 -17 78q-15 22 -40 35q-27 9 -37 16q-14 6 -22 16h222v-606z" />
    <glyph glyph-name="icircumflex" unicode="&#xee;" horiz-adv-x="463" 
d="M-10 756l-23 18l91 74q82 66 122 135l60 -61q58 -59 168 -101l-82 -69q-20 8 -53 31q-40 28 -70 53l-63 53q-22 -38 -89 -88zM241 82q0 -31 7 -47q4 -18 21 -35h-166q32 34 32 82v461q0 51 -17 78q-15 22 -40 35q-27 9 -37 16q-14 6 -22 16h222v-606z" />
    <glyph glyph-name="idieresis" unicode="&#xef;" horiz-adv-x="463" 
d="M-49 830q0 67 78 78q70 0 78 -78q0 -70 -78 -78q-33 0 -56 22v-67q0 -25 -4 -35q-1 4 -6 51zM237 830q0 67 79 78q69 0 77 -78q0 -70 -77 -78q-71 0 -79 78zM241 82q0 -31 7 -47q4 -18 21 -35h-166q32 34 32 82v461q0 51 -17 78q-15 22 -40 35q-27 9 -37 16q-14 6 -22 16
h222v-606z" />
    <glyph glyph-name="eth" unicode="&#xf0;" horiz-adv-x="905" 
d="M408 1024q-57 103 -80 160q-33 82 -33 145q0 13 12 17q12 0 33 -10q52 -24 99 -31h38q19 0 43 -4q41 0 97 -31l-68 -35q-90 -46 -90 -121q0 -43 23 -90h368l-188 -95h-123l178 -223q98 -123 98 -274q0 -171 -104 -307q-112 -146 -277 -146q-177 0 -303 136
q-109 118 -109 250q0 177 120 280q100 86 241 86q148 0 185 -92l-84 41q-50 19 -86 19q-29 0 -41 -2q-13 -5 -35 -15q-34 -11 -70 -51q-45 -50 -65 -113q-21 -66 -21 -141q0 -136 71.5 -251.5t186.5 -115.5q117 0 195 121q67 104 67 248q0 143 -104 346q-34 67 -119 204
h-350l188 95h107z" />
    <glyph glyph-name="ntilde" unicode="&#xf1;" horiz-adv-x="832" 
d="M101 754l49 29q61 28 114 28q51 0 106 -26.5t105 -26.5q115 0 177 139q-17 -16 -37 -26q-54 -27 -105 -27q-33 0 -47 4q-11 1 -41 12q-102 37 -141 37q-103 0 -180 -143zM99 498q0 65 -43 119q-52 66 -77 68l29 -2l80 6l92 18q25 0 25 -17v-55l37 2q129 62 242 62
q263 0 263 -383q0 -72 -8 -150q-2 -31 -8 -80q-2 -13 -20 -86h-107q11 44 17 92q4 27 10 74l10 150q1 16 1 32q0 137 -77 228q-62 73 -159 73q-62 0 -127 -36q-74 -42 -74 -99v-432q0 -49 33 -82h-172q33 35 33 82v416z" />
    <glyph glyph-name="ograve" unicode="&#xf2;" horiz-adv-x="836" 
d="M201 899q-12 6 -14 27q0 19 17 36t36 17q18 -6 24 -10l64 -53q18 -19 68 -68q79 -78 79 -90q-15 4 -39 13q-32 13 -67 30q-89 44 -168 98zM752 344q0 -162 -101.5 -262t-263.5 -100q-150 0 -252 90q-112 99 -112 272q0 163 100.5 263t263.5 100q162 0 263.5 -100.5
t101.5 -262.5zM387 674q-115 0 -178 -96.5t-63 -233.5q0 -128 55 -219q66 -110 186 -110q118 0 183 102q59 93 59 227t-59 226q-67 104 -183 104z" />
    <glyph glyph-name="oacute" unicode="&#xf3;" horiz-adv-x="836" 
d="M492 899q12 6 14 27q0 16 -16 35q-19 18 -37 18q-19 -6 -25 -10q-57 -49 -131 -121q-80 -79 -80 -90q38 9 101 41q110 56 174 100zM752 344q0 -162 -101.5 -262t-263.5 -100q-150 0 -252 90q-112 99 -112 272q0 163 100.5 263t263.5 100q162 0 263.5 -100.5t101.5 -262.5
zM387 674q-115 0 -178 -96.5t-63 -233.5q0 -128 55 -219q66 -110 186 -110q118 0 183 102q59 93 59 227t-59 226q-67 104 -183 104z" />
    <glyph glyph-name="ocircumflex" unicode="&#xf4;" horiz-adv-x="836" 
d="M191 756l-23 18l90 74q82 67 123 135l60 -61q59 -60 168 -101l-82 -69q-42 17 -123 84l-64 53q-21 -38 -88 -88zM752 344q0 -162 -101.5 -262t-263.5 -100q-150 0 -252 90q-112 99 -112 272q0 163 100.5 263t263.5 100q162 0 263.5 -100.5t101.5 -262.5zM387 674
q-115 0 -178 -96.5t-63 -233.5q0 -128 55 -219q66 -110 186 -110q118 0 183 102q59 93 59 227t-59 226q-67 104 -183 104z" />
    <glyph glyph-name="otilde" unicode="&#xf5;" horiz-adv-x="836" 
d="M101 754l49 29q61 28 114 28q51 0 106 -26.5t105 -26.5q115 0 177 139q-15 -15 -37 -26q-55 -27 -105 -27q-33 0 -47 4q-11 1 -41 12q-102 37 -141 37q-103 0 -180 -143zM752 344q0 -162 -101.5 -262t-263.5 -100q-150 0 -252 90q-112 99 -112 272q0 163 100.5 263
t263.5 100q162 0 263.5 -100.5t101.5 -262.5zM387 674q-115 0 -178 -96.5t-63 -233.5q0 -128 55 -219q66 -110 186 -110q118 0 183 102q59 93 59 227t-59 226q-67 104 -183 104z" />
    <glyph glyph-name="odieresis" unicode="&#xf6;" horiz-adv-x="836" 
d="M168 830q0 67 78 78q70 0 78 -78q0 -70 -78 -78q-70 0 -78 78zM455 830q0 67 78 78q67 0 78 -78q0 -70 -78 -78q-70 0 -78 78zM752 344q0 -162 -101.5 -262t-263.5 -100q-150 0 -252 90q-112 99 -112 272q0 163 100.5 263t263.5 100q162 0 263.5 -100.5t101.5 -262.5z
M387 674q-115 0 -178 -96.5t-63 -233.5q0 -128 55 -219q66 -110 186 -110q118 0 183 102q59 93 59 227t-59 226q-67 104 -183 104z" />
    <glyph glyph-name="divide" unicode="&#xf7;" horiz-adv-x="776" 
d="M121 688h553l-86 -87h-553zM277 383q0 70 78 78q69 0 77 -78q0 -69 -77 -78q-70 0 -78 78zM277 908q0 69 78 77q68 0 77 -77q0 -69 -77 -78q-70 0 -78 78z" />
    <glyph glyph-name="ugrave" unicode="&#xf9;" horiz-adv-x="832" 
d="M193 899q-13 6 -15 27q0 19 17.5 36t36.5 17q18 -6 24 -10l64 -53l67 -68q80 -79 80 -90q-14 4 -26 8q-34 13 -80 35q-91 44 -168 98zM23 297q0 83 39 152q48 83 53 110q0 43 -71 109l-4 20h206l-8 -43q-92 -147 -92 -348q0 -120 60 -189q64 -73 181 -73q64 0 130 30
q81 37 81 93v405q0 43 -26 76l-52 37l-2 12h220q-34 -32 -34 -82v-524q0 -49 34 -83h-140v85q-42 -42 -121 -71q-75 -28 -137 -28q-147 0 -232 83t-85 229z" />
    <glyph glyph-name="uacute" unicode="&#xfa;" horiz-adv-x="832" 
d="M557 899q13 6 15 27q0 18 -18 35.5t-36 17.5q-18 -6 -24 -10l-62 -53l-69 -68q-80 -79 -80 -90q39 10 100 41q110 56 174 100zM23 297q0 83 39 152q48 83 53 110q0 43 -71 109l-4 20h206l-8 -43q-92 -147 -92 -348q0 -120 60 -189q64 -73 181 -73q64 0 130 30
q81 37 81 93v405q0 43 -26 76l-52 37l-2 12h220q-34 -32 -34 -82v-524q0 -49 34 -83h-140v85q-42 -42 -121 -71q-75 -28 -137 -28q-147 0 -232 83t-85 229z" />
    <glyph glyph-name="ucircumflex" unicode="&#xfb;" horiz-adv-x="832" 
d="M195 756l-23 18l90 74q84 69 123 135l60 -61q59 -60 168 -101l-82 -69q-42 17 -123 84l-64 53q-21 -38 -88 -88zM23 297q0 83 39 152q48 83 53 110q0 43 -71 109l-4 20h206l-8 -43q-92 -147 -92 -348q0 -120 60 -189q64 -73 181 -73q64 0 130 30q81 37 81 93v405
q0 43 -26 76l-52 37l-2 12h220q-34 -32 -34 -82v-524q0 -49 34 -83h-140v85q-42 -42 -121 -71q-75 -28 -137 -28q-147 0 -232 83t-85 229z" />
    <glyph glyph-name="udieresis" unicode="&#xfc;" horiz-adv-x="832" 
d="M172 830q0 67 78 78q70 0 78 -78q0 -70 -78 -78q-70 0 -78 78zM461 830q0 67 78 78q70 0 78 -78q0 -70 -78 -78q-70 0 -78 78zM23 297q0 83 39 152q48 83 53 110q0 43 -71 109l-4 20h206l-8 -43q-92 -147 -92 -348q0 -120 60 -189q64 -73 181 -73q64 0 130 30
q81 37 81 93v405q0 43 -26 76l-52 37l-2 12h220q-34 -32 -34 -82v-524q0 -49 34 -83h-140v85q-42 -42 -121 -71q-75 -28 -137 -28q-147 0 -232 83t-85 229z" />
    <glyph glyph-name="yacute" unicode="&#xfd;" horiz-adv-x="824" 
d="M23 297q0 88 45 172l47 88q0 49 -71 113l-4 18h206l-8 -43q-92 -147 -92 -348q0 -110 57 -183q63 -79 170 -79q67 0 137 29q88 37 88 94v405q0 43 -26 76l-52 37l-2 12h220q-34 -32 -34 -82v-520q0 -221 -153 -359q-133 -120 -299 -120q-135 0 -180 88l111 139l-3 -31
q0 -72 41 -110q44 -41 107 -41q102 0 180 96q90 111 90 303v33q-42 -42 -121 -71q-75 -28 -137 -28q-147 0 -232 83t-85 229zM615 899q12 6 14 27q0 16 -16 35q-19 18 -37 18q-19 -6 -25 -10q-57 -49 -131 -121q-80 -79 -80 -90q36 9 101 41q108 55 174 100z" />
    <glyph glyph-name="thorn" unicode="&#xfe;" horiz-adv-x="885" 
d="M207 518v-315q0 -54 80 -117t152 -63q99 0 174 110q73 107 73 236q0 124 -67.5 211.5t-179.5 87.5q-64 0 -143 -43q-89 -49 -89 -107zM207 633l62 33q66 35 170 35q186 0 278 -90t92 -242q0 -155 -94 -262q-103 -117 -276 -117q-119 0 -203 57q-13 9 -29 25v-234
q0 -36 18 -85q22 -60 52 -60q-38 -10 -91.5 -54t-74.5 -51q-10 12 -10 23v1172q0 47 -43 86q-58 53 -79 53q60 11 126 51l137 84l-2 -31q-33 -110 -33 -174v-219z" />
    <glyph glyph-name="ydieresis" unicode="&#xff;" horiz-adv-x="824" 
d="M172 830q0 67 78 78q70 0 78 -78q0 -70 -78 -78q-70 0 -78 78zM461 830q0 67 78 78q70 0 78 -78q0 -70 -78 -78q-70 0 -78 78zM23 297q0 88 45 172l47 88q0 49 -71 113l-4 18h206l-8 -43q-92 -147 -92 -348q0 -110 57 -183q63 -79 170 -79q67 0 137 29q88 37 88 94v405
q0 43 -26 76l-52 37l-2 12h220q-34 -32 -34 -82v-520q0 -221 -153 -359q-133 -120 -299 -120q-135 0 -180 88l111 139l-3 -31q0 -72 41 -110q44 -41 107 -41q102 0 180 96q90 111 90 303v33q-42 -42 -121 -71q-75 -28 -137 -28q-147 0 -232 83t-85 229z" />
    <glyph glyph-name="HT" horiz-adv-x="488" 
 />
    <glyph glyph-name="nonmarkingreturn" horiz-adv-x="488" 
 />
    <glyph glyph-name="dotoperator" unicode="&#x2219;" horiz-adv-x="389" 
d="M57 512q0 -35 21 -57q25 -21 57 -21q78 0 78 78q0 35 -20.5 56.5t-57.5 21.5q-78 0 -78 -78z" />
  </font>
</defs>
</svg>
