<svg id="Layer_1" data-name="Layer 1" xmlns="http://www.w3.org/2000/svg" viewBox="0 0 512 512"><title>sandwich</title><rect width="512" height="512" fill="#A77337"/><path d="M430.17,222.54c10.77-33.27-34.82-68.49-112.34-93.59s-135.11-23.28-145.88,10c-5,15.45,2.23,29.69,2.23,29.69,5.15,10.15,6.49,27.32,3,38.14L141.09,318.19a20.74,20.74,0,0,0,13.32,26l169.64,54.93a20.76,20.76,0,0,0,26.06-13.3l36.08-111.42c3.5-10.83,14.65-23.94,24.77-29.15C411,245.3,425.17,238,430.17,222.54Z" fill="#fff"/><path d="M151.22,354.07a31.09,31.09,0,0,1-20-39.07l36.08-111.42c2.65-8.18,1.52-22.6-2.37-30.26-.38-.74-9.1-18.29-2.85-37.57a42.5,42.5,0,0,1,17-22.44c-60.57,5.15-98.87,23.58-98.87,53,0,16.23,11.28,27.57,11.28,27.57,8,8.07,14.59,24,14.59,35.35V346.31A20.75,20.75,0,0,0,126.81,367H191.1Z" fill="#fff"/></svg>