<svg id="Layer_1" data-name="Layer 1" xmlns="http://www.w3.org/2000/svg" viewBox="0 0 512 512"><title>melon-flat</title><polygon points="322.01 426.85 323.37 426.07 322.01 426.07 322.01 426.85" fill="#fff" fill-rule="evenodd"/><rect y="9.14" width="512" height="493.72" rx="54.99" ry="54.99" transform="translate(512) rotate(90)" fill="#fff"/><rect x="20.23" y="11.1" width="471.53" height="489.81" rx="43.89" ry="43.89" fill="#A77337"/><path d="M413.57,177l-13.91.07c.26,79.2-64,143.87-143.19,144.1s-143.85-64-144.1-143.2l-13.93,0A157.79,157.79,0,0,0,256.48,335c87-.27,157.39-71.15,157.09-158.08Zm0,0" fill="#fff"/><path d="M124.82,179.29a131.15,131.15,0,1,0,262.31-.83Zm44.42,44.85s-4.64-3.77-5.15-8.94,3.11-9.81,3.11-9.81,4.59,3.76,5.15,8.93S169.24,224.14,169.24,224.14ZM208,235.44s-4.83-3.44-5.77-8.55,2.5-10,2.5-10,4.83,3.43,5.72,8.55S208,235.44,208,235.44ZM229,197.55c3.67-3.69,9.58-3.76,9.58-3.76s0,5.93-3.68,9.62-9.6,3.74-9.6,3.74S225.32,201.24,229,197.55Zm12.15,55.25c-4.87-1.83-7.39-7.2-7.39-7.2s5.43-2.43,10.29-.61,7.37,7.19,7.37,7.19S246,254.57,241.14,252.79Zm20.43-28.95c-3.65,3.68-9.55,3.74-9.55,3.74s0-5.92,3.66-9.6,9.59-3.74,9.59-3.74S265.24,220.15,261.57,223.84ZM275.63,257c-3.58,3.78-9.5,4-9.5,4s-.14-5.92,3.42-9.74,9.5-4,9.5-4S279.18,253.21,275.63,257Zm16.71-42.44s-4.53-3.89-5-9.05,3.37-9.74,3.37-9.74,4.5,3.85,4.94,9S292.34,214.54,292.34,214.54ZM311.21,238s-5.86-.83-9-5-2.36-10-2.36-10,5.88.85,9,5S311.21,238,311.21,238Zm38.86-33.23s5.95,0,9.62,3.68,3.74,9.59,3.74,9.59-5.92,0-9.62-3.68S350.06,204.77,350.06,204.77Z" fill="#fff"/></svg>