<svg id="Layer_1" data-name="Layer 1" xmlns="http://www.w3.org/2000/svg" viewBox="0 0 512 512"><title>fish</title><rect width="512" height="512" fill="#A77337"/><path d="M412.08,262.63a11.83,11.83,0,1,0-11.83-11.83A11.83,11.83,0,0,0,412.08,262.63Z" fill="#fff"/><path d="M356.37,324.6c51.74-4.86,91.5-15.78,104.62-27.27l.22-.22c2.88-2.59,4.44-5.21,4.44-7.8,0-42.57-40-82.6-97.47-101-20,17.23-32.89,44.08-32.92,74.33A100,100,0,0,0,356.37,324.6Z" fill="#fff"/><path d="M412.08,239a11.83,11.83,0,1,1-11.83,11.83A11.84,11.84,0,0,1,412.08,239Z" fill="#A77337"/><path d="M51.33,223.39l10.43,29a26,26,0,0,1,0,17.56l-10.42,29a7.46,7.46,0,0,0,10.29,9.23l60.86-29.69c24.69,17.73,77.73,38.28,134.13,45.85L249.15,339a8.5,8.5,0,0,0,7.62,12.36h7.67a24.42,24.42,0,0,0,16-6l20.8-18.08c11.2-.06,22.13-.38,32.72-.94a120.06,120.06,0,0,1-18-63.68c0-31.22,11.65-59.57,30.42-80.11-4.64-.95-9.33-1.81-14.1-2.49l-3.11-10a20.78,20.78,0,0,0-19.77-14.58H217.88a20.82,20.82,0,0,0-19.77,27L203,198.32c-34.67,13.84-64.08,32-80.67,45.47L61.64,214.13a7.48,7.48,0,0,0-10.32,9.26Z" fill="#fff"/></svg>