<svg id="Layer_1" data-name="Layer 1" xmlns="http://www.w3.org/2000/svg" viewBox="0 0 512 512"><title>pizza</title><rect width="512" height="512" fill="#A77337"/><path d="M244.5,308.94a11.1,11.1,0,1,0-11.1-11.1A11.14,11.14,0,0,0,244.5,308.94Z" fill="#fff"/><path d="M187.64,235.45a18,18,0,1,0,18,18A18.05,18.05,0,0,0,187.64,235.45Z" fill="#A77337"/><path d="M199.25,195.27a11.62,11.62,0,1,0,11.62,11.63A11.65,11.65,0,0,0,199.25,195.27Z" fill="#A77337"/><path d="M251.7,208.51a10,10,0,0,1,10.07,10,11.25,11.25,0,0,1-.4,2.59l33.75-33.75A97.13,97.13,0,1,0,322.6,269l-96.14-13,27.84-27.79a11,11,0,0,1-2.59.32,10,10,0,0,1,0-20Z" fill="#fff"/><path d="M187.64,271.48a18,18,0,1,1,18-18A18,18,0,0,1,187.64,271.48Z" fill="#A77337"/><path d="M199.25,218.52a11.62,11.62,0,1,1,11.62-11.62A11.61,11.61,0,0,1,199.25,218.52Z" fill="#A77337"/><path d="M244.5,286.74a11.1,11.1,0,1,1-11.1,11.1A11.14,11.14,0,0,1,244.5,286.74Z" fill="#A77337"/><path d="M386.73,128.14,368.5,146.66a113.64,113.64,0,0,1,38,108.79c-.47,2.28-1,4.55-1.56,6.83l25.58,4.54c.52-2.08,1-4.22,1.43-6.3A139.58,139.58,0,0,0,386.73,128.14Z" fill="#fff"/><path d="M226.46,405.14c75.43,0,138-56.34,147.81-129.18l-27.52-3.71a121.44,121.44,0,1,1-34.47-102.1l19.59-19.54a148.65,148.65,0,0,0-105.41-43.76c-82.2,0-149.12,66.92-149.12,149.12S144.19,405.14,226.46,405.14Z" fill="#fff"/><path d="M392.38,263.24s10.12-69.4-35.7-109.52l-39.54,36.56a13.62,13.62,0,1,1-19.74,18.23l-37.19,34.35L286.77,247a12.63,12.63,0,0,1-2.08-6.76,12,12,0,0,1,24.08,0,11.89,11.89,0,0,1-4.67,9.42l36.21,5.58a13.1,13.1,0,0,1-.2-1.69,9.74,9.74,0,1,1,19.48,0,9.57,9.57,0,0,1-1.16,4.49Z" fill="#fff"/><path d="M261.37,221l-7.08,7.15A10.08,10.08,0,0,0,261.37,221Z" fill="#fff"/></svg>