<?xml version="1.0" standalone="no"?>
<!DOCTYPE svg PUBLIC "-//W3C//DTD SVG 1.1//EN" "http://www.w3.org/Graphics/SVG/1.1/DTD/svg11.dtd" >
<svg>
<metadata>
Created by FontForge 20090622 at Mon Oct 26 05:38:25 2015
 By deploy user
Copyright 2000, created for Warner Brothers by Hallmark Cards, Inc. All rights reserved. Based on style by Connie Smiley. Font Developer: Bud Braman.
</metadata>
<defs>
<font id="HogwartsWizardBold" horiz-adv-x="464" >
  <font-face 
    font-family="HogwartsWizard"
    font-weight="700"
    font-stretch="normal"
    units-per-em="1000"
    panose-1="0 0 7 0 0 0 0 0 0 0"
    ascent="800"
    descent="-200"
    x-height="448"
    cap-height="622"
    bbox="-143 -364 998 897"
    underline-thickness="20"
    underline-position="-123"
    unicode-range="U+0020-U+F002"
  />
<missing-glyph horiz-adv-x="500" 
d="M63 0v724h375v-724h-375zM125 63h250v599h-250v-599z" />
    <glyph glyph-name=".notdef" horiz-adv-x="500" 
d="M63 0v724h375v-724h-375zM125 63h250v599h-250v-599z" />
    <glyph glyph-name="glyph1" horiz-adv-x="0" 
 />
    <glyph glyph-name="glyph2" horiz-adv-x="259" 
 />
    <glyph glyph-name="space" unicode=" " horiz-adv-x="259" 
 />
    <glyph glyph-name="exclam" unicode="!" horiz-adv-x="272" 
d="M203 665q0 -44 -19 -116q-8 -30 -15 -110q-5 -14 -5 -34q0 -9 1 -25.5t1 -25.5q0 -20 -5 -34q-6 -25 -6 -48v-13v-14q0 -75 -2 -101q-2 -17 -16 -17q-16 0 -15 17v2q2 55 2 66q0 61 -6 171q-7 134 -8 156q-1 17 -5 57t-4 60q0 24 4 42t46 18q46 0 50 -24q2 -13 2 -27z
M173 7q0 -25 -9 -37q-12 -16 -33 -16q-28 0 -37 23q-7 18 -7 34q0 25 18 47q13 10 27 10q30 0 39 -41q2 -9 2 -20z" />
    <glyph glyph-name="quotedbl" unicode="&#x22;" horiz-adv-x="324" 
d="M283 789q0 -4 -28 -101q-29 -100 -33 -126q-2 -12 -18 -12q-15 0 -14 10v2q8 111 8 174v57q0 16 37 16q48 0 48 -20zM130 777v-1q-7 -74 -18 -206q-1 -10 -15 -10q-13 0 -14 7q-2 23 -16 102q-11 65 -11 100q0 20 48 20q27 0 26 -12z" />
    <glyph glyph-name="numbersign" unicode="#" horiz-adv-x="679" 
d="M654 228q0 -17 -15.5 -21t-39.5 -4q-15 0 -55.5 2.5t-65.5 2.5q-30 0 -51 -4q-1 -9 -6 -29q-10 -8 -10 -27q0 -5 1 -15.5t1 -15.5q0 -9 -2 -15q-3 -22 -4 -70q-1 -35 -11 -74q-4 -14 -21 -14q-29 0 -28 23v1q1 34 20 124l24 110q-11 2 -25 2t-34 -2t-23 -2q-3 1 -11 1
q-6 0 -23.5 -1.5t-27.5 -1.5q-7 -8 -7 -24q0 -5 1 -16t1 -16q0 -8 -2 -14q-2 -24 -2 -52v-15v-14q0 -40 -6 -69q-3 -12 -21 -12q-34 0 -33 20v1q1 32 18 103q19 88 22 105q-18 0 -71 -8.5t-72 -8.5q-30 0 -30 26q0 19 15 22t36 3q16 0 52.5 -2.5t53.5 -2.5q12 0 22 1l14 134
q-25 -1 -84 -13q-55 -11 -75 -11q-31 0 -31 25q0 18 15.5 21t46.5 3q14 0 44.5 -1t45.5 -1q25 0 41 2q7 46 7 100v16v15q0 30 4 46.5t26 16.5q31 0 31 -21v-1q0 -18 -16 -77q-18 -66 -22 -94l151 15q6 63 19 159q4 16 24 16q30 0 29 -22v-1q0 -12 -16 -66q-17 -57 -20 -84
q22 1 63 7q38 5 54 5q26 0 26 -26q0 -19 -14.5 -21t-32.5 -2t-54 2.5t-50 2.5q-1 -16 -8 -36q0 -1 -7 -44q-4 -30 -4 -48v-5l67 5q31 1 74 8q39 6 54 6h5q23 0 23 -28zM418 370q-5 0 -15 1h-14q-15 -5 -40 -5q-34 -1 -47 -2.5t-34 -3.5q-6 -47 -15 -135h20q58 0 124 9
q12 45 21 136z" />
    <glyph glyph-name="dollar" unicode="$" horiz-adv-x="392" 
d="M343 219q0 -8 -2 -24.5t-2 -23.5v-3q-4 -8 -6 -29.5t-9 -30.5q-37 -79 -87 -112q0 -8 -2 -28t-2 -32q0 -9 1 -28v-27q0 -31 -4.5 -48t-14.5 -17q-12 0 -12 54q0 13 1 40v39q0 22 -2 35q-21 -9 -43 -9q-20 0 -40 7q-45 15 -54.5 46t-9.5 57q0 22 8 39l30 31q19 18 37 18
q19 0 19 -12q0 -10 -12 -14.5t-31 -17.5q-10 -9 -11 -25q-3 -28 -4 -34q18 -37 48 -52q18 -9 34 -9q15 0 30 7q-1 26 -3 97q-2 56 -2 90q0 40 2 75q-112 56 -113 131q-6 16 -6 36q0 47 29 95q3 5 12 14q29 23 86 33q2 23 2 64v33v25q1 20 18 20q14 0 14 -29q0 -10 -2 -34.5
t-2 -37.5q0 -15 1.5 -27t9.5 -12h5.5h5.5q29 0 41 -11q18 -8 24 -12q12 -7 17 -18v-5q0 -31 -22 -45h-4q-14 0 -23 10q-3 4 -13 30q-7 18 -22 17h-3q-8 6 -19 6l-7 -197l57 -48q31 -29 40 -60q17 -10 17 -37zM208 540v16q-2 5 -8 5t-18 -5q-37 -15 -49 -79q9 -63 68 -97
q7 73 7 160zM304 170q0 47 -70 89q-4 -26 -5 -65q0 -4 1.5 -13t1.5 -13q0 -8 -4 -17q7 -16 7 -40q0 -9 -1.5 -28t-1.5 -28q0 -13 2 -23q30 20 50 60.5t20 77.5z" />
    <glyph glyph-name="percent" unicode="%" horiz-adv-x="595" 
d="M543 117q0 -20 -9 -61q-11 -5 -11.5 -19.5t-4.5 -17.5q-2 -8 -20 -19q-22 -14 -24 -16q-29 -16 -63 -16q-31 0 -47 14q-27 23 -27 78q0 17 3 43q1 6 6 20q46 65 86 71q14 6 31 6q52 0 68 -36q12 -19 12 -47zM515 471v-1q-1 -18 -14 -39t-30 -23q-21 -34 -75 -98l-29 -34
t-22 -39q-10 -9 -28 -41t-29 -42q-28 -34 -109 -169q-5 -8 -15 -8q-21 0 -21 19q0 6 4 12q42 59 145 193q15 19 45 73q26 45 46 65q22 32 46 59q-8 -2 -18 -2q-15 0 -54 9q-20 5 -68 47q-8 6 -21 6l12 -25q2 -11 2 -24q0 -53 -29 -124q-4 -10 -11 -16q-63 -52 -99 -52
q-6 0 -15 3q-65 24 -74 58q-10 24 -10 51q0 69 50 117q40 38 120 38q17 0 30 -3q5 5 22 5q15 0 30 -3q28 -14 83 -38q1 -1 70 -13q14 17 42 48q4 3 9 3q16 0 15 -12zM494 92q0 27 -8 50q-2 2 -12 24q-7 15 -19 15q-35 0 -46 -50q-3 -9 -3 -24v-16q1 -11 1 -15q0 -8 -1 -13
q3 -6 3 -19q6 -17 23 -43q4 -5 24 -7q14 6 23 26q15 34 15 72zM228 358q0 2 -6 47q-4 29 -18 45h-6q-18 0 -21 11q-19 -5 -34 -21q-18 -18 -21.5 -46.5t-6.5 -55.5q-1 -8 -1 -15q0 -43 28 -66q25 -10 31 -10t10 2q28 17 37 50z" />
    <glyph glyph-name="ampersand" unicode="&#x26;" horiz-adv-x="575" 
d="M595 201q0 -16 -13 -18q-6 -1 -17 -1q-10 0 -37 1.5t-42 1.5h-14q12 -35 12 -69q0 -32 -12 -59q-23 -53 -122 -88q-32 -11 -68 -11q-65 0 -129 34q-35 18 -64 48q-33 32 -37 57q-2 10 -2 20q0 24 12 52l20 47q14 7 32 31.5t32 32.5q18 32 54 32q4 3 10 13q-79 30 -103 44
q-61 35 -63 81q-3 16 -3 30q0 34 20.5 70l42.5 72q10 18 28 23q14 4 55 25q36 19 57 21q10 0 39 4q18 5 42 5q47 0 91 -17q49 -19 70 -49q18 -26 18 -61q0 -7 -1 -13q-3 -31 -9 -44q4 -4 4 -7q0 -4 -10.5 -13.5t-10.5 -17.5q1 -2 1 -4q-11 -9 -24 -9q-15 0 -27.5 11.5
t-12.5 24.5q0 7 5 12q46 49 46 77q0 16 -10 31q-36 55 -134 55q-56 0 -86 -17q-81 -45 -107 -170q1 -51 3 -62q6 -31 29 -53q38 -21 97 -21q20 0 50.5 3.5t36.5 3.5h2q17 1 17 -20q0 -19 -12 -19q-4 0 -19 5t-25 5q-18 0 -30 -8h-1q-21 0 -41.5 -18t-38.5 -36
q-30 -26 -48.5 -72.5t-18.5 -89.5q0 -29 9 -48q21 -44 60 -59q47 -18 83 -18q31 0 64 13q19 7 41 38l34 51q12 18 12 40q0 35 -26 59q-20 0 -48 -3t-41 -3h-9q-14 1 -14 17q0 18 31 18q13 0 58.5 -3.5t73.5 -3.5q27 0 66.5 4.5t55.5 4.5h4q12 0 12 -13z" />
    <glyph glyph-name="quotesingle" unicode="'" horiz-adv-x="192" 
d="M146 796q0 -12 -19 -103q-21 -94 -23 -128q-1 -13 -16 -13q-12 0 -12 10v1q1 31 1 36q0 37 -4 105q-5 72 -5 90q0 19 40 19q38 0 38 -17z" />
    <glyph glyph-name="parenleft" unicode="(" horiz-adv-x="304" 
d="M259 814q0 1 -47 -146q-48 -151 -54 -184q-21 -120 -21 -189q0 -50 10 -86v-12q0 -114 79 -279q2 -3 2 -11q0 -20 -7 -20q-28 0 -54 37q-9 12 -36 65q-13 45 -33 73q-22 138 -22 214q0 19 1 37q10 18 10 50q0 7 -1 22v22q0 36 12 57v3q0 16 12.5 42t12.5 39q0 8 -4 16
q7 34 111 252q5 10 14 10q15 0 15 -12z" />
    <glyph glyph-name="parenright" unicode=")" horiz-adv-x="304" 
d="M231 437q0 -20 -1 -39q-10 -19 -10 -55v-17.5v-17.5q0 -40 -12 -61v-4q0 -15 -14 -41t-14 -38q0 -8 4 -16q-6 -32 -42 -112l-66 -143q-4 -9 -13 -9q-14 0 -14 11q0 2 46 148q46 152 52 184q18 107 18 191q0 49 -6 85v3q1 102 -80 290q-1 2 -1 5q0 23 8 23q49 -2 100 -101
q6 -27 24 -73q21 -135 21 -213z" />
    <glyph glyph-name="asterisk" unicode="*" horiz-adv-x="342" 
d="M307 772q0 -8 -6 -10q-31 -11 -96 -41q2 -1 95 -42q6 -2 6 -10q0 -9 -7 -19t-15 -10q-2 0 -4 1q-28 20 -92 59q0 -22 2 -57q3 -44 3 -58q0 -10 -19 -10q-23 0 -22 11v1q6 35 13 112q-5 -2 -84 -54q-2 -1 -4 -1q-8 0 -15 10t-7 19q0 7 5 9q28 10 90 40q-45 22 -115 51
q-6 2 -6 10q0 10 8 21.5t16 11.5q3 0 5 -2q49 -35 107 -69q-4 41 -9 122q-1 13 24 13q23 0 22 -12v-1q-5 -42 -12 -123q14 8 89 59q2 2 5 2q8 0 15.5 -11.5t7.5 -21.5z" />
    <glyph glyph-name="comma" unicode="," horiz-adv-x="209" 
d="M162 32q0 -45 -28 -93q-33 -55 -75 -55q-15 0 -15 15q0 5 5 7q39 13 62 49q18 29 18 60q0 13 -4 21q-19 -30 -43 -30q-8 0 -17 4q-9 10 -9 27q0 13 6 23q21 24 44 24q9 0 17 -3q13 -5 25.5 -17t13.5 -23v-9z" />
    <glyph glyph-name="hyphen" unicode="-" horiz-adv-x="334" 
d="M277 250q0 -27 -21 -32q-9 -2 -22 -2q-11 0 -31 2t-26 2q-14 0 -42.5 -4t-41.5 -4q-43 0 -43 36q0 26 34 26q11 0 36 -2.5t39 -2.5h5q16 0 42 4t37 4q8 0 15 -1q19 -3 19 -26z" />
    <glyph glyph-name="hyphen" unicode="&#x2010;" horiz-adv-x="334" 
d="M277 250q0 -27 -21 -32q-9 -2 -22 -2q-11 0 -31 2t-26 2q-14 0 -42.5 -4t-41.5 -4q-43 0 -43 36q0 26 34 26q11 0 36 -2.5t39 -2.5h5q16 0 42 4t37 4q8 0 15 -1q19 -3 19 -26z" />
    <glyph glyph-name="period" unicode="." horiz-adv-x="172" 
d="M134 31q0 -28 -9 -45q-10 -20 -36 -20q-42 0 -42 54q0 33 14 56q8 13 24 13q23 0 36 -17.5t13 -40.5z" />
    <glyph glyph-name="slash" unicode="/" horiz-adv-x="476" 
d="M481 754q0 -6 -3 -12l-177 -311q-10 -18 -68 -142q-42 -87 -77 -140q-1 -15 -13 -33q-16 -26 -18 -31q-29 -70 -84 -187q-8 -15 -21 -15q-23 0 -23 27q0 7 3 15q7 15 40 66q24 38 24 56v1q62 103 129 233l116 229l124 252q8 16 23 16q25 0 25 -24z" />
    <glyph glyph-name="zero" unicode="0" horiz-adv-x="514" 
d="M477 280q0 -25 -12 -47q-9 -74 -59 -132q-47 -54 -112 -74q-42 -13 -87 -13q-83 0 -142 74q-12 23 -26 72q-2 17 -2 34q0 49 13 98q63 135 146 152q17 18 40 18q6 0 17.5 -1.5t16.5 -1.5q12 0 20 4q47 -1 97 -26.5t71 -60.5q1 -12 11 -47q8 -30 8 -49zM405 264
q0 30 -8 51q-1 1 -32 48q-22 32 -48 45q-32 16 -68 16q-33 0 -78 -15q-21 -18 -46 -45q-8 -17 -10 -36q-2 -23 -6 -35q-4 -24 -4 -47q0 -92 62 -134q6 -4 9.5 -14t23 -15t24.5 -15q39 -13 61 -13q36 0 62 27q40 16 55 89q-1 7 -1 16q0 12 2 38t2 39z" />
    <glyph glyph-name="one" unicode="1" horiz-adv-x="401" 
d="M394 32q0 -14 -12 -14t-37 2t-38 2q3 0 -170 -10q-10 -2 -41 -10q-25 -7 -38 -7q-22 0 -22 13q0 7 7 12q13 8 40 10q21 2 42 3l48 12q0 6 -2.5 18t-2.5 18q0 12 7 19q8 122 8 183q0 51 -4 122v3q0 10 -11 10q-6 0 -13 -3t-47 -22l-29 -17q-20 -12 -28 -12q-13 0 -13 14
q0 6 4 11q7 9 28.5 13t35.5 15q22 10 62 35q36 9 79 9q8 0 8 -6q2 -16 9 -60l-13 -133q-1 -16 -1 -34q0 -32 5 -82q8 -68 9 -83q11 -8 36 -16q16 -1 20 -1q6 0 19.5 2t19.5 2q10 0 25 -3q10 -2 10 -15z" />
    <glyph glyph-name="two" unicode="2" horiz-adv-x="457" 
d="M427 74q0 -56 -38 -77q-3 -8 -21 -14.5t-22 -16.5q-22 -12 -51 -12q-11 0 -31 2q-16 1 -40.5 12t-36.5 11l-32 20q-19 12 -36 12q-8 0 -17 -3q-16 -1 -29 -15q-20 -22 -23 -24q-14 -10 -25 -10q-14 0 -14 19q0 45 74 101q10 10 94 79q60 49 85 83q49 66 49 116
q0 35 -19 77q-49 79 -93 79q-8 0 -19 -4.5t-18 -4.5h-3.5h-3.5q-12 0 -18 -11q-47 -21 -58 -101q-1 -7 -9 -7q-16 0 -26 13q-8 10 -8 29q0 12 4 22q75 92 191 94q13 6 29 6q14 0 20 -4.5t37 -10.5q31 -16 65 -57q4 -15 4 -33q0 -9 -1.5 -29.5t-1.5 -31.5t1 -20
q-9 -4 -12 -14q-4 -14 -5 -15q-31 -61 -76 -111q-24 -27 -90 -79q-73 -57 -93 -76q-36 -35 -42 -51q69 43 108 42h2q34 0 86.5 -28t79.5 -28q17 0 34 7q18 18 18 39q0 8 -2 17q-7 7 -14 15q0 17 23 17q17 0 23 -12q1 -6 1 -12z" />
    <glyph glyph-name="three" unicode="3" horiz-adv-x="450" 
d="M391 121q0 -12 -15 -105q-11 -11 -24 -49q-11 -34 -29 -46q-29 -51 -153 -101q-17 -7 -38 -7q-24 0 -90 20q-43 32 -43 87q0 8 1 15q19 51 45 51q20 0 20 -28q0 -7 -4.5 -20.5t-4.5 -22.5q0 -17 8 -37q26 -40 71 -40q10 0 23.5 3.5t42 23t36.5 32.5q27 21 41 59
q3 8 19 72q2 45 6 66q0 3 2 9.5t2 10.5q0 6 -7 22q-17 54 -19 58q-14 31 -42 43q-8 6 -17 6t-17 -5q-48 -29 -67 -29q-10 0 -23.5 11t-13.5 21q0 8 12 12q38 5 98 14q11 6 37 37q2 9 11 20.5t12 18.5q0 15 7.5 45t7.5 45q0 22 -11 40q-2 4 -2 8v5q1 4 1 5q0 5 -5 9
q-23 16 -27 28q-12 10 -29 10q-12 0 -30 -4q-22 -6 -27 -7q-40 -34 -40 -98q0 -15 -17 -15q-11 0 -20 22q-8 18 -9 31q21 56 54 70q46 20 98 20q34 0 63 -9q8 -3 27.5 -17t23.5 -19q22 -27 22 -64q0 -30 -19 -85q-20 -58 -94 -101l65 -23q45 -18 60 -41q21 -33 21 -77z" />
    <glyph glyph-name="four" unicode="4" horiz-adv-x="540" 
d="M527 172q0 -29 -50 -48q-10 -4 -53 -27q-32 -16 -46 -16h-4q-6 -55 -6 -108q0 -20 1 -48.5t1 -38.5q0 -20 -25 -20q-17 0 -17 14v1q0 12 7 86q5 65 5 106v10q-10 6 -32 10t-30 9q-13 0 -27 6q-22 10 -23 10l-59 20q-37 12 -59 12q-32 0 -79 -40q-4 -4 -10 -4
q-8 0 -15.5 7.5t-7.5 15.5q0 10 32 49q29 36 160 184q98 111 149 186q24 17 44 17q14 0 20 -12q-7 -41 -10 -141q-4 -92 -14 -139q2 -10 2 -20q0 -11 -3 -30.5t-3 -28.5q0 -12 4 -22q49 -26 74 -26q32 0 54 31q4 6 10 6q10 0 10 -11zM351 299q0 4 -11 190q-75 -72 -140 -154
q-10 -24 -35 -46t-70 -96q35 14 80 14q36 0 167 -27q9 51 9 119z" />
    <glyph glyph-name="five" unicode="5" horiz-adv-x="442" 
d="M397 205l-10 -73q-6 -39 -32 -63q-23 -73 -154 -140q-24 -6 -47 -6q-53 0 -92 31q-3 5 -18 21q-11 11 -11 22q0 4 2 9q0 56 40 56q22 0 22 -21q0 -9 -8 -27t-8 -26q0 -9 6 -15q27 -29 59 -29q8 0 16 2q25 6 60 36q31 27 43 46q15 25 24 66l12 75q1 22 1 33q0 33 -10 56
q-6 16 -29 50q-42 34 -83 34q-6 0 -13 -1q-24 -6 -49 -26q-41 -34 -45 -35.5t-8 -1.5q-13 0 -13 21v4v4q9 47 10.5 94t2.5 93q11 22 40 22q7 0 23 -1.5t23 -1.5h8q28 -2 48 -2q21 0 84 7q9 1 13 1q11 0 19.5 -4.5t8.5 -16.5q0 -23 -27 -23q-7 0 -30.5 3.5t-35.5 3.5h-5
q-19 0 -44 -3q-30 -3 -32 -3q-15 -2 -44 -15q-1 -26 -14.5 -65.5t-13.5 -63.5v-8q1 -4 5 -4q3 0 7 4q43 46 102 46q52 0 109 -22q32 -23 59 -63q28 -44 29 -80z" />
    <glyph glyph-name="six" unicode="6" horiz-adv-x="504" 
d="M457 187q0 -55 -28 -103q-18 -24 -55 -66q-43 -39 -103 -53q-10 -2 -18 -2q-10 0 -76 18q-58 28 -91 81t-32 112v5q1 91 31 171q31 87 90 141q52 47 94 65q22 1 66 6q3 1 6 1q17 0 39 -18.5t31 -35.5q3 -6 3 -13q0 -15 -10.5 -28t-22.5 -13q-5 0 -9 3q-10 8 -22 25
q-16 25 -19 29q-16 20 -34 19h-2q-41 -7 -95 -53q-26 -34 -46 -104.5t-20 -125.5v-15q4 5 43 42q58 56 155 56q21 0 40 -4q30 -17 41 -27q24 -19 29 -40q15 -33 15 -73zM379 167q0 37 -12.5 44.5t-24 30t-25.5 29.5q-32 17 -59 17q-32 0 -66 -24q-8 -6 -48 -60
q-2 -15 -15 -49q17 -135 90 -158q20 -6 41 -6q52 0 87 57q8 13 29 92q3 12 3 27z" />
    <glyph glyph-name="seven" unicode="7" horiz-adv-x="422" 
d="M442 543q0 -2 -1 -3l-51 -89q-16 -10 -28 -38q-14 -34 -21 -42q-126 -249 -154 -388q6 -21 6 -51q0 -8 -1 -22v-18v-8q0 -15 -22 -15q-35 0 -35 47v19q1 12 1 18v6q53 173 142 351q21 34 40 74l34 75q-4 3 -10 3t-20.5 -8t-26.5 -8q-21 0 -66.5 23.5t-73.5 23.5
q-8 0 -17 -2q-70 -34 -70 -112v-7q-4 -5 -4 -14q0 -3 1 -7v-7q0 -21 -19 -21q-14 0 -14 23q0 9 9 37q9 51 9 88q0 17 -6 44t-6 31q0 19 19 19q14 0 19 -18q2 -7 2 -16v-10q-1 -7 -1 -10q0 -17 8 -26l54 44q34 29 61 31q14 3 28 3q27 0 72 -21.5t77 -21.5h10q8 11 15 22
q12 15 20 15q20 0 20 -14z" />
    <glyph glyph-name="eight" unicode="8" horiz-adv-x="434" 
d="M390 141q0 -43 -19 -79q-2 -22 -28 -54q-34 -42 -38 -49q-69 -56 -119 -56q-21 0 -39 9h-1q-29 0 -54 28l-39 52q-11 35 -11 74q0 107 75 202q35 35 66 57q-25 17 -69 55q-36 56 -36 97q0 6 1 13q0 91 85 136q26 22 69 23h5q80 1 107 -54q18 -36 18 -69q0 -45 -43 -99
q-9 -21 -53 -67l40 -35q23 -22 33 -42q50 -66 50 -142zM313 540l-4 35q-5 23 -18 34q-20 17 -44 17q-12 0 -64 -19q-20 -14 -42 -37q-5 -20 -5 -45q0 -10 1 -25q14 -34 46 -67q11 -12 61 -56q29 22 56 81q2 27 13 82zM338 112q0 30 -12 57q-29 67 -123 141q-38 -28 -57 -48
q-37 -39 -42 -75q0 -5 -2 -14q-3 -3 -6.5 -9t-3.5 -17q0 -4 1 -11.5t1 -11.5q0 -8 -3 -13v-3q0 -25 12 -57q18 -48 20 -54q25 -48 98 -48q13 0 28 6q55 24 65 56q24 80 24 101z" />
    <glyph glyph-name="nine" unicode="9" horiz-adv-x="492" 
d="M438 319v-18q-7 -10 -10 -32q-5 -39 -5 -40q-33 -165 -123 -271l-55 -47q-34 -29 -65 -39q-36 -12 -67 -12q-35 0 -57 16q-19 21 -22 44l13 26.5t20 13.5h2q19 -5 38 -46q17 -19 54 -19q49 6 102 69q47 55 68 115q34 96 35 159q-2 1 -4 1q-6 0 -13.5 -11t-13.5 -13
q-18 -16 -50 -25q-44 -12 -54 -17h-4q-74 -1 -132 46q-49 65 -49 128q0 37 17 69q7 31 54.5 75.5t89.5 52.5q17 11 43 11q34 0 75 -17q62 -26 61 -49v-1l26 -36.5t16 -37.5q10 -64 10 -95zM372 329q0 72 -34 148q-17 20 -59 50q-14 3 -28 3q-58 0 -93 -50q-2 -10 -13.5 -32
t-11.5 -34q0 -6 2 -12q-6 -24 -6 -38q0 2 3 -27q9 -6 11 -29.5t13 -31.5q22 -56 94 -65q7 -2 13 -2q9 0 23.5 5.5t21.5 6.5q42 28 64 93v15z" />
    <glyph glyph-name="colon" unicode=":" horiz-adv-x="172" 
d="M131 263q-17 -30 -35 -30t-31 24q-11 21 -11 41q0 16 8.5 32t23.5 16q22 0 33.5 -28.5t11.5 -54.5zM134 31q0 -28 -9 -45q-10 -20 -36 -20q-42 0 -42 54q0 33 14 56q8 13 24 13q23 0 36 -17.5t13 -40.5z" />
    <glyph glyph-name="semicolon" unicode=";" horiz-adv-x="197" 
d="M140 263q-18 -30 -34 -30q-11 0 -24 13q-19 19 -19 49q0 31 23 49q5 2 9 2q22 0 34 -29q9 -23 11 -54zM162 41q0 -49 -27 -98q-32 -59 -77 -59q-14 0 -14 15q0 5 5 7q38 12 61 47q19 30 19 61q0 14 -4 22q-19 -30 -43 -30q-8 0 -17 4q-9 10 -9 27q0 13 6 23q21 24 42 24
q9 0 18 -4q36 -16 40 -39z" />
    <glyph glyph-name="question" unicode="?" horiz-adv-x="424" 
d="M377 557q-15 -112 -179 -224q-24 -6 -60 -57q-8 -12 -8 -23q0 -10 6 -20q14 -21 24 -21t15 10.5t10.5 14t11.5 3.5q14 0 14 -15q0 -7 -4 -14q-14 -23 -49 -23q-16 0 -28 7q-28 27 -28 69q0 14 4 26q16 29 62 65.5t61 61.5q3 6 26 38q16 23 16 41q0 5 -1 11q1 5 10 27
q6 17 6 28t-6 21q-2 103 -63 114q-12 2 -20 2t-21 -2q-21 -4 -43 -17q-27 -16 -32 -59q-6 -58 -15 -74q-7 -3 -15 -3q-20 0 -34.5 16.5t-14.5 37.5q0 23 23 49q35 41 36 43q6 4 53 19q2 1 22 10q12 5 24 5q6 0 18 -1.5t18 -1.5h10q70 1 94 -30q3 -4 29 -31q17 -18 17 -35v-4
q4 -8 4 -20v-9v-9q0 -16 7 -26zM187 27q0 -31 -8 -43q-14 -20 -35 -20q-23 0 -34 27q-5 12 -5 28q0 33 15 53q10 14 26 14q20 0 32 -21q9 -17 9 -38z" />
    <glyph glyph-name="at" unicode="@" horiz-adv-x="809" 
d="M750 305q0 -31 -13 -81q-8 -31 -52 -87q-20 -26 -59 -47q-42 -22 -75 -22q-26 0 -50 17q-27 18 -28 43q-15 -20 -77 -63q-10 -7 -25 -7q-47 0 -96 46q-3 3 -22 42q-13 26 -13 46q0 8 2 19q2 19 10 49q7 5 20 26q2 4 2 11v1q0 31 79 78q39 23 79 23q17 0 27 -6
q44 -27 54 -51q6 10 9 20q0 35 28 35q12 0 22.5 -4.5t10.5 -8.5v-1q-3 -11 -16 -42q-10 -24 -10 -42q-2 -6 -8.5 -12.5t-6.5 -10.5q0 -3 3 -8q-2 -25 -19 -77q-12 -23 -12 -61v-7q0 -9 10.5 -22.5t19.5 -13.5q35 0 61 25q17 10 51 39q7 8 15.5 40.5t10.5 36.5q3 11 5 32
t6 34q3 10 3 22q0 25 -16 66q-1 27 -24 56q-21 26 -45 37q-23 43 -66 43q-24 15 -53 15q-8 0 -27 -1.5t-31 -1.5h-8h-8q-24 0 -106 -28q-18 -6 -41 -28t-35 -26q-52 -33 -87 -127q-11 -18 -15 -47q-6 -43 -7 -47q-3 -13 -3 -29q0 -24 8 -64q10 -45 11 -57q13 -25 48 -62
q9 -23 29 -40q3 -3 37 -25q18 -2 39 -12q24 -13 40 -16q64 -14 84 -14q13 0 47.5 11t53.5 12q101 31 141 112q3 5 8 5q12 0 12 -13q0 -4 -2 -7q-30 -53 -76 -82q-24 -20 -73 -40h-3q-22 0 -56 -11.5t-52 -11.5q-61 0 -117 17l-66 20q-12 11 -63 46q-40 27 -57 49
q0 37 -34 56q-20 45 -21 147v3q0 33 30 109q28 71 103 139q42 38 112 66q54 20 154 20q51 0 81 -8q72 -20 124 -69q55 -52 66 -93q18 -69 18 -80zM483 254q0 10 -2 19q1 13 1 24q0 54 -33 77q-7 5 -16 5q-10 0 -23 -9.5t-20 -11.5l-24 -27t-16 -34q-25 -49 -28 -108
q-10 -7 -10 -16q0 -4 5.5 -11t5.5 -13q1 -23 2 -32q4 -17 16 -29q18 -9 28 -9q13 0 26 10l25 19q2 10 22 27q17 16 18 30q7 22 15 43q8 26 8 46z" />
    <glyph glyph-name="A" unicode="A" horiz-adv-x="674" 
d="M724 46q0 -8 -6 -16t-14 -8q-4 0 -15.5 3t-19.5 3t-36 -3q-14 -12 -36 -12q-8 0 -26 2t-28 2q-14 0 -40.5 -6t-40.5 -6q-26 0 -26 17q0 20 21 20q4 0 11 -2t10 -2q42 0 51 8q-1 21 -11 47q-16 42 -18 50t-11 52q-5 27 -14 42q-12 19 -39.5 21t-55.5 2q-101 0 -221 -26
q-22 -17 -35 -53q-17 -46 -25 -57q-2 -20 -9 -35t-9 -31q9 1 19 1q23 0 54 -5q12 -2 12 -13q0 -16 -20 -16q-6 0 -23 3t-27 3q-18 0 -30 -9q-4 -2 -10 -2q-19 0 -28 9q-15 -2 -38 -10q-19 -5 -33 -5h-4q-13 0 -13 14q0 15 12 18q7 2 21 2h4q30 0 52 10l91 176q18 46 65 133
q39 55 59 98q39 84 81 137q11 26 27 79q9 14 26 14q5 0 10 -2q12 -29 44 -141q10 -14 17 -46q8 -37 15 -50q10 -19 33 -83q20 -52 40 -82q3 -21 19.5 -52t19.5 -50q0 -40 22 -53q14 -28 39 -85q34 7 74 7q13 0 13 -12zM446 295q0 5 -4 14t-4 15q-12 13 -22 35q-13 29 -18 36
q3 7 3 14q0 17 -28 55q-11 14 -17.5 42.5t-21.5 49.5q-47 -59 -62 -105q-5 -15 -46 -84q-15 -9 -31 -49q-2 -6 -14 -22q-9 -12 -9 -20q0 -3 1 -5q54 0 134 9q118 13 139 15z" />
    <glyph glyph-name="B" unicode="B" horiz-adv-x="634" 
d="M590 213q0 -31 -15 -73q-14 -34 -27 -69q-6 -3 -18 -12q-2 -7 -12 -17q-2 -1 -61 -40q-37 -24 -64 -25q-14 -17 -41 -17q-6 0 -19.5 1t-20.5 1q-20 0 -35 -7h-9q-22 0 -79 2q-60 3 -85 3q-24 0 -37 -2q-7 2 -13 2q-7 0 -18.5 -4t-19.5 -4q-21 0 -21 17q0 21 32 21
q5 0 16 -1h17q27 0 37 13q10 62 14 178q5 125 12 180q-3 99 -19 295q-9 8 -26 8q-10 0 -19 -2q-10 -9 -31 -9q-34 0 -34 17q0 19 26 19q4 0 13.5 -1t13.5 -1q5 0 8 1q21 3 54 3h40q27 -1 41 -1q58 0 87 10q32 4 54 4q47 0 82 -13q80 -29 97 -69q12 -21 12 -47q0 -18 -6 -43
q-6 -18 -11 -36q-5 -7 -15 -19q-10 -21 -39 -58q-6 -16 -23 -30t-35 -16l-6 -12q18 -2 52 -9q65 -17 85 -27q47 -23 57 -63q9 -23 9 -48zM497 211q-21 89 -65 115q-22 8 -46 8q-26 0 -70 -14.5t-55 -14.5q-17 0 -17 19q0 9 7 13q13 8 35 11q17 3 35 5q35 11 63 45
q53 66 53 155q0 52 -25 86q-19 26 -67 35q-14 3 -28 3q-18 0 -47 -6q-34 -8 -47 -9q-11 -11 -14 -27q-4 -23 -6 -27q-9 -130 -9 -163q0 -20 1 -40q-5 -15 -5 -34q0 -13 3.5 -39.5t3.5 -40.5q0 -21 -6 -38q1 -18 1 -41q0 -21 -1.5 -64.5t-1.5 -64.5q0 -36 3 -63q1 -3 1 -6
t-1 -8.5t-1 -7.5q0 -9 7 -14q37 -4 67 -4q104 0 161 50q67 49 71 181z" />
    <glyph glyph-name="C" unicode="C" horiz-adv-x="604" 
d="M578 177q0 -29 -27 -75q-21 -75 -120 -113q-46 -12 -89 -12q-52 0 -92 18q-2 -1 -4 -1q-22 0 -97 63q-66 55 -79 117q-12 28 -24 83v20q0 83 17 139q14 9 16 32.5t3 25.5q19 30 28 41q17 22 40 35q13 8 24.5 22.5t19.5 20.5q15 12 43.5 24.5t33.5 16.5q16 13 65 22
q16 1 33 1q57 0 111 -16q7 -2 13 -2q14 0 19 11q6 60 14 92q3 11 14 11q17 0 17 -32q0 -16 -10 -50.5t-11 -51.5q11 -11 11 -48q0 -47 -13 -91q-1 -6 -1 -13q0 -11 3.5 -32t3.5 -32q0 -21 -16 -21q-13 0 -16 13t-3 24q0 7 1.5 19.5t1.5 18.5q0 25 -7 62q-33 58 -102 105
q-14 9 -45 9h-15q-11 -8 -66 -28q-41 -15 -59 -45q-23 -38 -25 -41q-11 -22 -12 -45q-1 -11 -10 -35q-11 -28 -14 -43t-3 -33v-14q1 -9 1 -14q0 -19 -4 -34q-4 -18 -4 -49q0 -28 4 -36q8 -15 20 -61q19 -72 60 -103q9 -32 37 -34q5 0 45 -12q22 -6 44 -6q61 0 126 45
q2 4 25 35q17 22 19 40q7 15 10 37.5t7.5 33.5t17.5 11q20 0 20 -25z" />
    <glyph glyph-name="D" unicode="D" horiz-adv-x="709" 
d="M668 424q0 -1 -3 -11q-3 -14 -3 -32q0 -9 1 -27.5t1 -27.5q0 -74 -59 -160t-128 -118q-19 -8 -56 -30q-66 -23 -157 -23q-33 0 -91 3q-9 -10 -23 -10q-10 0 -30 5.5t-31 5.5q-14 0 -39 -9t-35 -9q-22 0 -22 19q0 13 13 16q24 2 72 11q3 10 3 32t3 32q6 16 6 36
q0 9 -1.5 26.5t-1.5 26.5q0 22 9 39q-1 10 -1 22q0 19 4.5 56.5t4.5 57.5q0 10 -1 19q2 2 2 6t-4.5 15.5t-4.5 17.5q0 3 1 5q-2 13 -2 27q0 17 3.5 51t3.5 51q0 29 -7 53q1 5 1 9q0 8 -8 22q-8 2 -15 2q-8 0 -22 -3t-21 -3q-14 0 -29 6q-8 3 -8 11q0 11 11 13q15 3 35 3
q14 0 40.5 -2t36.5 -2q29 0 87 3.5t87 3.5q112 0 188 -14q25 -8 94 -49q23 -24 50 -64q32 -50 32 -73v-3q0 -9 7 -20t7 -16zM583 349q0 65 -23 135q-7 5 -7 15v6q1 4 1 6q0 12 -13 15q-6 1 -16 20t-33 26q-5 15 -24 40h-4q-15 0 -38 10q-28 11 -42 14q-8 1 -18 1
q-8 0 -22 -1t-20 -1q-16 0 -26 6q-31 -5 -98 -14q-6 -59 -23 -177q-10 -55 -10 -155q0 -16 1 -47.5t1 -47.5t-1 -44t-1 -39q0 -35 5 -44.5t5 -21.5v-7.5v-6.5q0 -6 1 -10q49 -7 89 -7q70 0 132 22q106 23 164 195q2 15 11 45t9 67z" />
    <glyph glyph-name="E" unicode="E" horiz-adv-x="577" 
d="M590 148q0 -11 -16 -32q-19 -25 -22 -33q-5 -28 -47 -83q-10 -16 -28 -61q-7 -17 -20 -17q-11 0 -11 12q0 13 16.5 40.5t16.5 30.5q0 7 -10 7v0q-13 0 -41.5 -2t-43.5 -2q-13 0 -38.5 2.5t-38.5 2.5q-38 0 -58 -3t-44 -3h-18.5h-18.5q-15 0 -28 -1q-41 -4 -75 -15
q-30 -10 -50 -11h-1q-13 -1 -13 11q0 7 7 12q11 7 37 10q22 3 32 16q11 23 11 63v24q-1 16 -1 24q0 19 2 33q16 128 16 157q-5 10 -5 26q0 6 1 15q14 16 14 31v13q-1 10 -1 18q0 27 -5 68.5t-5 61.5l1 19q0 6 -7 6.5t-15 0.5t-23 -1.5t-23 -1.5q-11 0 -22 2q-14 2 -14 15
q0 17 18 17q12 0 36.5 -3t42.5 -3h7q46 1 128 8q21 -3 44 -3q39 0 119 16q4 -1 9 -1q17 0 25 8q-1 8 -9.5 23.5t-8.5 26.5v1q0 17 18 17q5 0 9 -3q9 -6 12 -23.5t7 -21.5q9 -12 15 -46.5t12 -43.5q17 -26 17 -46q0 -15 -15 -15q-8 0 -13 7t-9 34q-2 23 -14 30q-42 3 -131 14
q-36 -1 -111 -8q0 -1 -8 -24q-6 -18 -6 -32q0 -5 1 -13.5t1 -13.5q0 -10 -2.5 -37.5t-2.5 -46.5q0 -23 3 -46q23 -3 49 -3q33 0 96 7q68 6 101 7q5 0 15 4t17 4q5 0 5 -4q0 -14 -15 -28t-29 -14h-1q-93 1 -82 1q-83 0 -148 -8q-10 -3 -12.5 -11.5t-2.5 -17.5
q0 -11 2.5 -35.5t2.5 -36.5q0 -8 -1 -14q-13 -11 -13 -24q0 -5 4 -20.5t4 -26.5q0 -13 -3 -40t-3 -39q0 -24 8 -37q34 -5 60 -5q14 0 44 2q7 -2 15 -2q11 0 34 6t35 6q6 0 12 -1q44 13 114 38q39 18 54 66q5 15 17 15q16 0 16 -16z" />
    <glyph glyph-name="F" unicode="F" horiz-adv-x="544" 
d="M555 568q0 -10 -15 -10q-7 0 -12.5 19t-9.5 22q-21 21 -64 26q-64 8 -73 11q-27 -5 -47 -5q-9 0 -28 2t-34 2q-11 0 -22.5 -2t-17.5 -7q-1 -41 -9 -134q-8 -87 -8 -134v-23q17 1 128 7q86 5 135 5q28 0 28 -8q0 -12 -15 -14q-45 -6 -143 -6q-53 -5 -133 -18q0 -45 5 -238
q8 -9 8 -25q0 -4 -1 -14t-1 -15q0 -14 6 -23h10q7 0 24 1t26 1q24 0 36 -8q8 -5 8 -12t-6.5 -7t-21 -2t-24.5 -2t-29.5 3t-29.5 3q-14 0 -46.5 -3t-51.5 -3q-16 0 -31 2q-18 0 -53 -8q-3 -1 -5 -1q-11 0 -11 12q0 13 25 21q8 3 19 3q5 0 13.5 -1t11.5 -1h3q17 -1 27 14
q6 124 6 214q0 42 -1 82q-7 6 -31 10q-19 3 -19 12q0 7 5 10q11 2 35 5q11 2 15 10q4 15 4 35q0 22 -5 51v31q0 48 -7 164q-2 12 -15 17h-4q-13 0 -32 -2.5t-25 -2.5q-5 0 -11.5 2.5t-10.5 2.5t-10.5 -2t-10.5 -2q-19 0 -19 14q0 13 11.5 14t25.5 1q21 0 73.5 -2.5
t78.5 -2.5q16 0 30 1q6 -1 16 -4h5q9 0 26 1.5t25 1.5q13 0 23 -2t19 -2q21 0 50.5 4.5t54.5 4.5q31 8 42 19q1 3 1 5q0 8 -5.5 19.5t-5.5 17.5q0 5 5.5 10t10.5 5q6 0 23 -41q18 -46 26 -55q27 -41 30 -76z" />
    <glyph glyph-name="G" unicode="G" horiz-adv-x="764" 
d="M767 376q0 -4 -14 -18.5t-19 -16.5q-12 -6 -20 -6q-4 0 -13.5 1.5t-16.5 1.5q-47 0 -47 -30q0 -5 1 -11q-5 -30 -6 -79q0 -57 -3 -85q-6 -57 -11 -181q0 -11 -11 -11q-47 0 -63 26q0 27 -7 42q-55 -37 -77 -37q-39 -14 -94 -14q-65 0 -117 17q-13 4 -30.5 18.5
t-34.5 19.5q-54 39 -99 103q-9 13 -14 34q-4 18 -10 24q-15 15 -15 41q0 8 2 24.5t2 24.5q0 9 -3.5 27t-3.5 29q0 74 49 163q52 94 130 148q117 62 194 62h9q14 8 34 8q12 0 36 -4.5t33 -4.5q31 0 42 53q2 12 14 12q14 0 14 -12q0 -50 -8 -108q-2 -13 -2 -31q0 -16 2 -46.5
t2 -40.5q0 -15 -2 -22q-4 -11 -15 -11t-14.5 12.5t-3.5 33.5q0 8 2 22.5t2 22.5q0 14 -5 38q-30 28 -59 41h-3q-18 -1 -43 17h-7q-73 1 -135.5 -29.5t-99.5 -86.5q-12 -2 -16 -19q-5 -23 -6 -25q-14 -21 -29 -64q-15 -48 -15 -79v-11v-10q0 -16 -5 -59q-2 -17 -2 -26
q0 -7 4 -19q4 -15 6 -44q2 -32 18 -67l30 -59q26 -30 31 -35q17 -18 34 -29q10 -7 23.5 -10t19.5 -6q26 -15 68 -15q96 0 157 59q20 19 20 39v6q0 5 11 110q0 23 -4 70q-4 44 -4 67q-10 3 -23 3t-49 -6q-124 -20 -133 -20q-12 0 -12 12q0 8 11.5 11.5t27.5 15t25 15.5
q16 2 33 2q16 0 43 -2.5t39 -2.5q22 0 41 5q11 7 25 7q8 0 24.5 -3t23.5 -3h32q19 0 54.5 7.5t50.5 7.5q4 0 4 -4z" />
    <glyph glyph-name="H" unicode="H" horiz-adv-x="809" 
d="M789 691q0 -18 -34 -18q-12 0 -26 2q-12 -10 -12 -30q0 -6 1 -19t1 -20q0 -33 -5 -51q-6 -23 -11 -76q-3 -33 -3 -77v-18v-15q15 -8 15 -20q0 -13 -13 -28q-5 -27 -5 -68q0 -16 1 -46t1 -44q0 -19 -1 -33q5 -11 5 -24q0 -10 -3 -29.5t-3 -29.5q0 -6 2 -17t2 -17
q0 -3 -1 -7v-7q0 -20 8 -26h7t14 1h16q29 0 29 -16q0 -14 -36 -14q-11 0 -36.5 2.5t-38.5 2.5h-4q-26 0 -63 -4t-51 -4q-23 0 -23 13q0 9 10 12.5t24 3.5h10q7 -1 10 -1q12 0 20 4q33 168 33 337q0 7 -6 16q-58 1 -113 1q-162 0 -281 -10q-4 -1 -11 -1h-7h-8q-19 0 -23 -11
q9 -16 9 -38q0 -13 -4 -38.5t-4 -37.5q0 -15 4 -26q3 -58 3 -79q0 -35 -4 -62q1 -12 11 -14q15 -2 18 -4q7 -6 18 -6q5 0 13 1t12 1q16 0 16 -10q0 -17 -27 -17q-16 0 -30 5q-7 0 -52 2t-61 2q-15 0 -41 -5.5t-35 -5.5q-17 0 -17 12q0 7 6 12t36 9q27 3 37 18q1 13 6.5 44
t5.5 48q0 6 -1.5 17t-1.5 17q0 17 6.5 38.5t6.5 53.5q0 23 -4 41q5 46 5 98q0 33 -3 99.5t-3 102.5q0 22 1 43q-8 12 -18 12q-4 0 -11.5 -1t-11.5 -1q-16 0 -48 7q-9 2 -9 10q0 10 7 11q11 2 24 2q6 0 79 -7q30 -3 52 -3q16 0 47 3t46 3h11q11 -1 11 -13q0 -16 -26 -16
q-5 0 -16.5 1t-16.5 1q-13 0 -21 -4q-3 -7 -3 -18q0 -5 1 -16t1 -16q0 -16 -9 -26q-2 -7 -2 -17q0 -6 1 -19.5t1 -20.5q0 -9 -8 -36q-4 -13 -4 -26q0 -8 1.5 -22t1.5 -21q0 -15 -4 -27q2 -10 13 -12.5t21 -5.5q27 -1 57 -1q94 0 345 17q11 81 11 180q0 65 -5 126q-6 3 -19 3
q-10 0 -31 -2t-28 -2q-21 0 -21 15q0 16 36 16q19 0 57 -4t57 -4q16 0 30 2q7 1 18.5 4t17.5 3h4h5q4 0 12 1t12 1q15 0 15 -12z" />
    <glyph glyph-name="I" unicode="I" horiz-adv-x="329" 
d="M302 26q0 -15 -26 -15q-12 0 -36 4t-33 4h-5q-6 -5 -26 -5q-21 0 -42 5q-4 1 -11 1q-13 0 -35 -3q-3 0 -21 -5q-14 -3 -26 -3q-21 0 -21 14q0 10 10 15q6 3 23 3h9h9q27 0 38 8q13 27 13 54q0 6 -1 19t-1 20q0 21 6 41q3 11 4 43q0 29 6 42v19q0 32 -1.5 69t-1.5 48
q0 10 2 29.5t2 29.5t-2 25.5t-2 19.5l-2 43t-7 35q-7 6 -21 6q-8 0 -22.5 -2.5t-22.5 -2.5q-21 0 -21 12q0 9 10.5 14t28.5 5t35 -4h18.5h20.5q38 0 62 2q65 6 66 6q23 0 23 -14q0 -18 -18 -18q-4 0 -14 2t-15 2q-24 0 -26 -16q-1 -25 -4 -74q0 -3 -4 -21t-4 -30q0 -4 1 -12
t1 -12q0 -14 -6.5 -41.5t-6.5 -48.5v-41q0 -147 12 -247q18 -9 46 -9h10q7 1 9 1q20 0 20 -17z" />
    <glyph glyph-name="J" unicode="J" horiz-adv-x="451" 
d="M432 694q0 -7 -7 -10q-24 -9 -50 -9q-9 0 -18 1q-7 -12 -7 -30q0 -8 2 -16q2 -3 2 -8q0 -13 -7 -21q-1 -5 -1 -10q0 -13 6 -41t6 -41q0 -14 -4 -23q6 -29 6 -59q0 -12 -4.5 -35t-4.5 -34q0 -7 4 -20.5t4 -19.5q0 -9 -6 -16q2 -10 2 -20q0 -24 -11 -56q-18 -53 -19 -57
q-5 -9 -16 -44q-9 -31 -20 -42q-10 -16 -33 -41q-15 -35 -63 -62q-53 -29 -88 -29q-22 0 -40 10q-46 5 -73 61q-8 29 -8 55q0 37 16 71q6 12 13 17q37 32 74 32q12 0 23 -4q29 -10 36 -45q3 -6 3 -14q0 -4 -8 -33q-1 -6 -9 -18q-17 -14 -32 -14q-27 0 -27 19q0 16 15 16
q3 0 7 -1h6q18 0 21 22q1 8 1 13q0 30 -23 37q-7 2 -18 2q-14 0 -37 -27t-23 -54q-7 -12 -7 -26q0 -20 18 -56q5 -9 11 -14q35 -26 68 -26q17 0 28 8q56 17 87 65q26 42 47 159q7 88 7 154q0 90 -13 170q3 7 3 17q0 17 -14.5 59t-14.5 57q-11 10 -29 10h-3q-7 0 -21.5 -1.5
t-20.5 -1.5q-20 0 -20 12q0 6 6 11q3 3 36 8q3 2 6 2t11 -3q27 -5 40 -5q14 0 27 4q36 13 43 13q1 0 17 -9q8 -3 17 -3h6q34 8 54 8q21 0 21 -14z" />
    <glyph glyph-name="K" unicode="K" horiz-adv-x="667" 
d="M679 -6q0 -17 -26 -29q-22 -11 -40 -10h-4q-36 1 -76 32t-53 65q-7 20 -21 90q-10 54 -32 85q-14 59 -16 64q-13 33 -41 48q-55 15 -67 15q-13 0 -25 -4q-61 -18 -92 -53q-15 -57 -15 -160q0 -37 2 -80q-2 -8 -2 -16q0 -9 3 -20q8 -3 19 -3q5 0 15 1t14 1q28 0 28 -15
q0 -13 -25 -13q-9 0 -35.5 3t-39.5 3h-1q-7 0 -20.5 -3t-20.5 -3h-9h-9q-7 0 -15 -1q-20 -6 -59 -13q-13 0 -13 13q0 8 8 11q20 3 61 12q14 32 17 91q3 65 11 92q1 32 8 157q5 97 5 157q0 99 -8 196q-6 11 -35 11h-9h-7q-12 -3 -24 -3q-28 0 -28 17t16 17q6 0 20.5 -4
t25.5 -4h4q29 -5 70 -5q20 0 60 4.5t60 4.5q11 0 11 -11q0 -19 -26 -19h-9q-7 1 -10 1q-14 0 -25 -15q-2 -7 -3 -65q-1 -52 -6.5 -66t-5.5 -34q0 -6 1 -19.5t1 -20.5q0 -19 -4 -33q5 -14 5 -28t-5 -37t-5 -34q0 -8 1 -14q35 53 114 161q21 19 59 71q35 50 55 66q37 31 84 31
q12 0 28 -2q12 -1 22.5 -19.5t10.5 -31.5q0 -22 -22 -22q-11 0 -33 4t-34 4q-41 0 -64 -24q-51 -54 -74 -81q-47 -54 -75 -97q-2 -13 -18 -33q-23 -30 -24 -31q18 10 54 21q26 15 62 15q40 0 93 -16q9 -2 15 -5t16 -10q13 -10 40 -33q6 -6 17 -24q6 -10 9 -27.5t17 -34.5
q4 -4 4 -14q0 -4 -2 -16.5t-2 -20.5q0 -19 12 -57t12 -61v-7l18 -48q13 -29 35 -29h1q30 1 43 29q3 7 10 7q18 0 18 -21z" />
    <glyph glyph-name="L" unicode="L" horiz-adv-x="574" 
d="M587 125q0 -16 -37 -52q-4 -4 -59 -81q-35 -82 -53 -82q-10 0 -10 11q0 3 1 7q5 16 19 36t15 30q-22 1 -68 9q-24 0 -93 1q-59 2 -94 2q-92 0 -165 -7q-15 -9 -33 -9q-31 0 -31 17q0 8 8 11q21 2 61 8q14 2 44 8v6q0 15 7 45t7 48v9q1 20 6 54q4 58 6 290v13q0 51 -8 144
q-8 7 -23 7q-6 0 -12.5 -1t-19 -4t-20.5 -3q-24 0 -24 15q0 17 33 17q8 0 26 -1.5t28 -1.5q11 0 38 6t47 6q26 0 51 -9h3q9 0 23.5 3t19.5 3q17 0 17 -13q0 -16 -24 -16h-13q-9 1 -13 1q-25 0 -28 -19q-29 -190 -29 -267q0 -32 3 -63q-5 -11 -5 -36q0 -20 4 -64t4 -60
q0 -18 -3 -26q6 -58 12 -81q13 -3 55 -4q9 6 28 6q7 0 22 -1.5t22 -1.5q23 0 72 13.5t78 13.5h2q20 0 45 26q10 16 36 45q7 6 13 6q9 0 9 -14z" />
    <glyph glyph-name="M" unicode="M" horiz-adv-x="922" 
d="M910 19q0 -17 -13 -17q-8 0 -24.5 3.5t-26.5 3.5q-15 0 -49 -4.5t-51 -4.5q-18 0 -29 3q-14 -5 -42 -5q-37 0 -37 14q0 16 23 16q5 0 15 -1.5t15 -1.5q20 0 26 11q9 49 9 95q0 5 -1 15v15v6q0 17 -7 23q-5 42 -5 105v32q0 56 -6 123q-2 25 -3 49q-4 42 -10 42
q-5 0 -12 -9.5t-7 -18t-10.5 -17t-10.5 -19.5v-4q-59 -82 -97 -160q-13 -37 -43 -70q-6 -26 -29 -60q-21 -30 -25 -61q-14 -41 -46 -41q-5 0 -10 2l-97 182l-130 195q-11 -38 -20 -109t-23 -115q-1 -28 -14 -88q-12 -55 -12 -86q0 -12 1 -23h9q12 0 28 2.5t22 2.5
q19 0 19 -14q0 -10 -13 -14t-47 -6t-54 -7q-8 -2 -28 -11q-15 -7 -26 -7q-35 -20 -47 -20q-13 0 -13 12q0 5 3 11q7 11 37 20q36 11 49 20q17 44 36 131q20 98 33 138q8 16 9 57q1 36 14 53q9 63 30 187q-1 3 -1 7q0 6 13 49q2 7 6 7q5 0 7 -7q2 -14 13 -33.5l22 -37.5
q13 -23 15 -41l79 -154q16 -30 56.5 -84.5t55.5 -84.5q1 -1 4 -17q2 -11 11 -12q18 39 62 110q111 175 194 336q1 17 35 34q29 14 47 14q3 0 3 -2q-7 -42 -14 -97q6 -10 6 -26q0 -5 -1 -14.5t-1 -14.5q0 -10 3 -17q5 -28 8 -168q6 -71 16 -211q6 -32 23 -94q11 1 23 1
q55 0 55 -18z" />
    <glyph glyph-name="N" unicode="N" horiz-adv-x="742" 
d="M731 692q0 -18 -26 -18q-5 0 -15.5 1.5t-16.5 1.5q-12 0 -21 -6q-5 -10 -5 -32v-3q0 -23 -6 -32q3 -12 3 -30q0 -6 -1 -20v-19q0 -26 6 -43q-1 -16 -9 -69q-6 -44 -6 -69q0 -27 6 -49q1 -8 1 -18q0 -13 -3.5 -39.5t-3.5 -38.5q0 -7 2.5 -20t2.5 -20t-1 -25.5t-1 -27.5
q0 -7 2 -19.5t2 -18.5q0 -10 -5 -23q0 -1 -2 -42q-1 -37 -10 -50q-3 -3 -10 -3q-28 0 -39 15q-74 106 -101 141q-58 77 -102 116q-82 73 -94.5 100.5t-27.5 30.5q-33 27 -58 62l-51 67q-4 -10 -4 -32q-1 -26 -3 -39q2 -6 2 -12q0 -5 -3 -14.5t-3 -14.5q0 -9 7 -19
q-6 -27 -6 -51q0 -11 1.5 -33.5t1.5 -35.5q0 -20 -3 -40q9 -32 13 -83q5 -71 8 -89q19 -14 57 -14h8q11 0 16 -1q13 -2 13 -14q0 -18 -24 -18q-9 0 -28.5 4.5t-29.5 4.5q-9 -4 -27 -8h-2q-34 2 -31 2q-21 0 -49 -5q-10 -2 -31 -9q-17 -5 -30 -5h-2q-13 0 -13 12q0 7 6 14.5
t29 9.5q34 2 40 4q13 3 25 15q15 68 15 83q0 8 -1 15q0 4 -2.5 11t-2.5 11q0 9 5 28.5t5 30.5v5q0 23 3 36q1 34 1 78q0 108 -4 136q-1 9 -1 20q0 27 7 41q-2 9 -2 19q0 11 3 35t3 36q0 20 -6 35q2 2 10 28q7 22 14 22q2 0 4 -5q11 -33 39 -71l47 -62q12 -9 23.5 -35.5
t29.5 -34.5q11 -11 28 -43t30 -44q62 -58 94 -111q14 -16 64 -56q37 -29 45 -55q5 -16 25 -31t25 -26q9 -15 23 -21q3 12 3 27q0 13 -2 37.5t-2 37.5v21q1 13 1 19q0 10 -2.5 31t-2.5 31v20q1 13 1 19q8 31 8 72q0 39 -9 107q-9 73 -10 95q-2 4 -6 31q-3 19 -12 28
q-11 4 -23 4q-5 0 -16.5 -1t-18.5 -1q-11 0 -21 2q-14 3 -14 14t14 14q11 3 25 3q26 0 52 -7q15 -4 29 -4q7 0 17.5 1.5t14.5 1.5q3 0 7 -1h7q6 0 31 4.5t42 4.5q15 0 15 -15z" />
    <glyph glyph-name="O" unicode="O" horiz-adv-x="614" 
d="M574 346q0 -86 -33 -142q-7 -12 -15 -38t-16 -39q-11 -19 -42 -46t-38 -38q-66 -48 -147 -48q-42 0 -76 15q-78 35 -116 91q-12 17 -22 47.5t-20 45.5q-8 37 -8 64q0 4 1 12t1 11q0 7 -2 20.5t-2 20.5q0 27 14 57q8 16 11 41.5t10 41.5q7 10 47 80q19 33 46 48
q25 32 69 47l69 22q16 1 30 1q86 0 126 -47q25 -18 35 -28q17 -17 24 -40q5 -16 30 -38q11 -28 11 -45v-6v-2q0 -6 5.5 -19t5.5 -18q2 -81 2 -71zM486 353q0 31 -9 72q-7 34 -26 102q-29 81 -79 104q-14 7 -30 7q-24 0 -63 -18h-2q-21 0 -38 -18q-23 -26 -27 -28
q-26 -33 -34 -62q-7 -18 -23 -54q-1 -24 -10.5 -68t-9.5 -66q0 -11 5 -32.5t5 -33.5q0 -11 -5 -32.5t-5 -31.5q0 -13 6 -21q9 -12 11 -25q10 -54 34 -74l35 -34q24 -20 54 -19h4q76 1 97 32q23 13 41 43l28 53q2 13 13.5 40t11.5 44q0 3 -1 9t-1 9q0 11 7 32q11 36 11 70z
" />
    <glyph glyph-name="P" unicode="P" horiz-adv-x="589" 
d="M577 495q0 -3 -1 -6q-1 -16 -12.5 -49t-12.5 -48q-96 -143 -194 -150q-24 -18 -70 -18q-30 0 -50 9q-12 6 -12 16q0 11 9 11q7 0 23.5 -4t25.5 -4q29 0 64 14q80 53 100 106q11 2 17 24q6 28 13 36q7 35 7 67q0 29 -6 57l-23 41q-6 11 -31 28q-32 22 -90 22q-18 0 -37 -8
q-6 -2 -14 -2q-6 0 -17.5 1t-16.5 1q-19 0 -27 -11q-12 -29 -13 -77q-2 -55 -7 -77q0 -4 1 -13.5t1 -14.5q0 -12 -7.5 -28t-7.5 -29q0 -14 6 -28q-3 -63 -3 -136q0 -108 6 -178q-5 -6 -5 -14t8 -22q11 -2 25 -2q10 0 27 1.5t25 1.5q36 0 36 -21q0 -15 -32 -15q-6 0 -66 6
q-32 3 -55 3t-50 -3q-66 -7 -68 -7h-18q-16 1 -16 16q0 17 27 17q4 0 14 -1t16 -1q11 0 22 2q11 40 17 123l8 124q2 59 8 177q1 18 1 38q0 -13 -10 157q-11 7 -29 7q-8 0 -22.5 -2t-20.5 -2q-21 0 -21 16q0 10 9 12q20 5 36 5q12 0 47 -5q5 -1 12 -1q20 0 79.5 6t75.5 6h3
q20 7 47 7q22 0 57 -5q57 -9 104 -34q60 -31 74 -78q-3 -7 -3 -13q0 -10 8.5 -26.5t8.5 -24.5z" />
    <glyph glyph-name="Q" unicode="Q" horiz-adv-x="672" 
d="M633 368q0 -44 -10 -79q1 -4 1 -8q0 -24 -26 -72q-27 -51 -29 -67q-13 -13 -25 -27q-15 -16 -19 -30q-6 -4 -32 -33q-19 -22 -38 -23q-78 -54 -159 -54q-44 0 -84 17q-90 38 -135 112q-38 77 -38 183q0 60 13 120q10 14 20 41q12 31 18 41q66 112 137 143q74 44 149 44
q37 0 69 -12q38 -15 40 -16q24 -10 40 -25q48 -44 54 -73l25.5 -36.5t12.5 -41.5q16 -48 16 -104zM668 -101q1 -20 -36 -52q-8 -1 -17 -1q-46 0 -78 23q-14 9 -36 33q-12 10 -28 32q-5 13 -36 32q-5 1 -10 1q-19 0 -37 -28q-4 -7 -13 -7q-11 0 -11 8q0 12 31 37q23 18 60 18
q29 0 71 -12q22 -6 30 -17.5t18.5 -38t20.5 -38t14 -14.5q7 -6 18 -7q9 8 11.5 22.5t5.5 28.5q2 5 6 5q15 0 16 -24v-1zM545 346q0 8 -2.5 18.5t-2.5 16.5q0 49 -27 124q-8 24 -15 48q-8 21 -22 33q-8 6 -21 24q-4 10 -20 19l-21 11q-6 4 -16 4h-7h-6q-7 0 -21.5 2t-21.5 2
q-11 0 -20 -2l-78 -36l-29 -20q-21 -16 -22 -27q-57 -69 -64 -194q-9 -19 -9 -40q0 -15 6.5 -44t6.5 -44q0 -5 -1.5 -13t-1.5 -12q0 -10 9 -28.5t9 -29.5q17 -25 20 -45q35 -58 62 -82q34 -29 79 -29q18 0 39 4q58 12 102 61t54 109q17 29 24 67q4 33 9 66q1 4 5 18
q3 11 3 19z" />
    <glyph glyph-name="R" unicode="R" horiz-adv-x="595" 
d="M641 -36q0 -23 -36 -23q-50 9 -56 10q-34 10 -57 31q-28 26 -40 92q-14 73 -28 94v1q0 9 -7 19q-5 7 -11 14q-19 62 -49 80q-10 2 -21 2q-14 0 -40.5 -5t-37.5 -5q-14 0 -25 5q-7 3 -7 13t7.5 13.5t51.5 9.5q35 4 49 23q51 24 78 85q24 53 24 115q0 35 -31 79
q-52 42 -89 42q-8 0 -17 -2q-16 1 -25 1q-39 0 -63 -10q1 -6 1 -11q0 -16 -10 -30q2 -15 2 -30q0 -22 -5.5 -67t-5.5 -71v-5q-5 -7 -5 -19q0 -4 1 -12.5t1 -12.5q0 -12 -6 -19q2 -13 8 -136q-2 -6 -5 -21q2 -10 2 -22q0 -9 -1.5 -26.5t-1.5 -25.5q0 -22 7 -38q-5 -33 -5 -50
q0 -27 9 -48q6 -3 15 -3q8 0 25.5 3.5t25.5 3.5q17 0 17 -13t-21 -17q-8 -2 -21 -2q-6 0 -21 1h-22h-24q-16 -1 -24 -1h-17q-50 0 -77 -10q-12 -6 -29 -6q-19 0 -19 17q0 12 15 15q21 0 63 7q4 22 8 62.5t7 62.5q-4 10 -4 20t4 18q6 12 6 29v7v7v3q0 20 6.5 91.5t6.5 116.5
q0 43 -5 78q4 14 4 26t-4 21v7q0 17 -2 47q-4 35 -4 48q-53 -3 -65 -8.5t-24 -5.5q-24 0 -24 17q0 9 9 13q6 2 77 7q45 0 112 5q80 14 130 14q139 0 183 -87q5 -14 5 -29q0 -10 -3 -29t-3 -29q0 -6 1 -12q-1 -7 -10.5 -21.5t-9.5 -24.5q0 -2 1 -5q-16 -30 -72 -80l-63 -54
l83 -24q52 -20 63 -53q13 -40 13 -46v-5q0 -12 6.5 -27l12.5 -29q-1 -7 -1 -20q7 -38 28 -101q8 -14 15 -29q11 -14 29 -13h3q7 0 15.5 6.5t10.5 6.5q13 0 13 -16z" />
    <glyph glyph-name="S" unicode="S" horiz-adv-x="407" 
d="M371 191q0 -7 -17 -66q-1 -7 -6 -19q-1 -2 -9 -12q-10 -16 -36 -49q-51 -53 -82 -62q-49 -14 -77 -14q-16 0 -32 3q-8 -6 -27 -7q-14 -1 -15 -10q-2 -29 -10 -40q-4 -6 -11 -6q-13 0 -13 18q0 15 9 31q11 47 23 152q0 14 4 39q3 12 15 12q15 0 15 -24q0 -1 -13 -47
q3 -9 3 -16q0 -3 -1 -8.5t-1 -7.5q0 -7 6 -16q64 -36 93 -36q51 0 93 55q40 52 40 104q0 21 -6 40q-12 40 -79 80t-70 59v3q0 10 -42.5 32t-43.5 45q-47 33 -47 112q0 26 6 53q3 39 37 76q29 33 69 51q21 9 44 9q16 0 47 -5.5t49 -5.5h10q9 11 9 37q0 32 5 46q3 10 14 10
q15 0 15 -28q0 -12 -6 -40q-7 -33 -9 -54q-7 -69 -7 -81v-5q0 -10 2 -20.5t2 -15.5q0 -19 -16 -19q-11 0 -14 12t-3 35q0 8 1 39q-42 72 -108 72q-47 0 -78 -52q-9 -16 -9 -39q0 -51 36 -111q17 -23 52 -49q38 -29 53 -45q56 -29 93 -78q3 -8 22 -40q15 -27 15 -40
q0 -3 -1 -9t-1 -10q0 -7 4 -19t4 -19z" />
    <glyph glyph-name="T" unicode="T" horiz-adv-x="544" 
d="M560 508q0 -15 -13 -15q-6 0 -11 5q-8 8 -10 37q-6 18 -6 19q-5 10 -14 15q-49 2 -163 13q-7 -5 -9 -21q-8 -48 -15 -95t-7 -99q2 -6 5 -18q-1 -79 -1 -104q0 -156 14 -243q10 -6 24 -6h2q9 0 18.5 2.5t13.5 2.5q22 0 22 -15q0 -17 -40 -17q-23 0 -42 8q-13 -5 -50 -5
q-26 0 -33 2q-3 1 -9 1q-8 0 -25 -3q-21 -3 -26 -4q-13 -7 -24 -7q-22 0 -22 16q0 10 10.5 13.5t24.5 3.5h6q4 -1 6 -1q34 0 36 25q11 43 15 130q4 100 9 130q1 17 1 35q0 52 -7 126q-8 93 -9 111q-1 2 -1 5v6q1 4 1 6q0 9 -6 14q-59 -5 -61 -5q-14 0 -30 2q-24 -12 -62 -19
q-12 -10 -31 -12q-12 -10 -21 -33.5t-13 -27.5q-7 -5 -13 -5q-9 0 -9 9q0 12 18.5 47t18.5 50v6q-1 3 -1 5q0 7 5 13.5t6 9.5q2 21 13 54q4 7 12 7q13 0 13 -15q0 -8 -6 -25.5t-6 -27.5q46 -1 119 -11q10 4 24 4q8 0 21.5 -1.5t17.5 -1.5q7 0 25 7t27 7q6 0 12 -4
q19 -11 22 -11t15 3.5t20 3.5q7 0 14 -3q14 4 32 4h13q9 -1 14 -1q29 0 48 14v3q0 6 -9.5 17t-9.5 19q0 15 12 15q11 0 27 -32l21 -45q37 -63 37 -93z" />
    <glyph glyph-name="U" unicode="U" horiz-adv-x="695" 
d="M684 16q0 -17 -28 -17q-8 0 -32 1.5t-37 1.5q-12 0 -36 -4.5t-35 -4.5q-24 0 -26 15q-1 10 -1 21q0 12 1.5 34t1.5 33q0 15 -2 28q-82 -109 -198 -109q-22 0 -45 5q-42 9 -72 35q-12 10 -42 48q-26 33 -26 51v6v6q0 14 -6.5 33.5t-7.5 31.5q-1 17 -1 36t1.5 54.5
t1.5 52.5q0 5 -3 17.5t-3 18.5q0 10 3 30.5t3 30.5v20v22q0 19 1 39q-4 12 -31 12q-6 0 -16.5 -1t-14.5 -1q-25 0 -25 17q0 13 18 13q12 0 30 -3.5t24 -3.5q3 0 32.5 -1t46.5 -1q19 0 27 1q46 6 53 6q21 0 21 -13q0 -16 -17 -16q-3 0 -11 1t-13 1q-13 0 -22 -6v-7
q0 -9 -3 -23q-5 -18 -6 -26l-16.5 -101t-8.5 -91q0 -39 7 -85q6 -14 14 -42q7 -42 7 -43q5 -24 19 -41q16 -34 54 -45q23 -7 74 -7l50 21q109 51 109 214v15q7 10 7 32v10.5v8.5q0 13 2.5 38t2.5 38q0 10 -3 30t-3 30q0 6 1.5 16.5t1.5 16.5q0 24 -10 100q-12 4 -25 4
q-7 0 -21 -1.5t-23 -1.5q-7 0 -14 1q-18 2 -18 16q0 9 7 11q11 3 25 3q11 0 34 -3t34 -3h6q6 5 48.5 6.5t47.5 2.5q9 -8 9 -17q0 -6 -5 -19t-5 -21q0 -4 1 -11t1 -10q0 -8 -4.5 -19.5t-4.5 -18.5q0 -4 1 -14t1 -15q0 -13 -6 -23q2 -12 2 -24q0 -15 -5.5 -43.5t-5.5 -46.5
q0 -8 1 -16q-6 -4 -6 -11q0 -5 3.5 -13.5t3.5 -11.5v0q0 -14 -2 -59q-2 -37 -2 -59q0 -95 17 -170q13 -4 21 -4q4 0 10.5 2t13.5 2q4 0 14.5 1.5t14.5 1.5q18 0 18 -16z" />
    <glyph glyph-name="V" unicode="V" horiz-adv-x="604" 
d="M695 656q0 -9 -7 -13.5t-21 -4.5l-7 1q-8 0 -12 -2q-23 0 -33.5 -6t-23.5 -27q-25 -38 -42 -82l-31 -80q-8 -10 -26 -55t-27 -58q-23 -30 -22 -56v-3q-9 -15 -24 -43q-7 -32 -22 -46q-4 -15 -20.5 -43t-19.5 -45q-13 -16 -28.5 -58.5t-33.5 -62.5q-32 7 -54 26
q-13 42 -44 158q-21 78 -50 158v1q0 12 -32 71t-31 75v1q-13 36 -19 49q-14 28 -32 40q-9 0 -22.5 -2.5t-20.5 -2.5q-8 0 -17 2t-9 13t9 13.5t22 2.5q10 0 35.5 -1.5t39.5 -1.5q65 0 122 5q6 6 18 6t19.5 -4.5t7.5 -12.5q0 -9 -7 -11q-22 -8 -58 -8q-8 -4 -8 -13q0 -4 4 -16
q3 -8 5 -30q1 -16 10 -27q5 -27 11 -54q9 -40 20 -54q15 -80 40 -114q13 -40 27 -79t38 -76q7 10 37 73q34 71 59 143q40 66 83 218q11 38 25 110h-11h-12q-46 0 -62 8q-7 4 -7 13t7 11t14 2t18.5 -2.5t18.5 -2.5h3q12 -2 28 -2t49.5 4t48.5 4q12 0 22 -2q21 9 36 9
q19 0 19 -16z" />
    <glyph glyph-name="W" unicode="W" horiz-adv-x="879" 
d="M941 639q0 -9 -10 -14q-1 -1 -47 -6q-33 -4 -36 -29q-4 -18 -18 -50.5t-18 -49.5q-9 -42 -11 -50q-5 -16 -19 -46v-2q0 -8 -5 -21q-7 -16 -8 -23q-6 -44 -18 -71q-5 -7 -13 -25q-2 -6 -2 -14.5t-1 -12.5q-5 -14 -13 -44l-40 -178q-25 -28 -54 -30q-18 19 -31 41
q-13 19 -25 39q-2 6 -7 19q-7 17 -28 50t-25 42q-26 44 -68.5 104t-57.5 85q-25 -39 -51 -98q-24 -21 -23 -40v-1q-11 -13 -21 -39q-11 -29 -18 -39q-3 -11 -11 -36q-21 -37 -46 -95q-11 -9 -29 -9q-9 0 -17 2q0 1 -12 59q-6 34 -6 57q0 12 1 23q-22 125 -24 193
q-9 30 -15 83q-5 47 -17 78q-3 7 -3 17q0 3 1 8v8q0 21 -17 23q-10 1 -24 1h-20q-13 -1 -19 -1q-21 0 -32.5 3.5t-11.5 14.5q0 18 22 18q6 0 19.5 -4t21.5 -4h4q20 -4 51 -4q32 0 65 4q14 2 52 8q28 4 40 4h4q14 0 14 -11q0 -13 -21 -19q-13 -4 -36 -4q-13 -23 -13 -62
q0 -9 1.5 -19.5t1.5 -19.5q0 -6 -2 -16t-2 -17q0 -9 3 -20q3 -41 5 -82q4 -45 16 -82q7 -33 25 -104q14 25 26.5 58.5t28.5 62t53 110.5q33 76 55 110q2 1 12 13q3 3 5 3q3 0 5 -5q12 -31 25 -61q18 -43 40 -71q13 -17 58 -102q24 -45 52 -85l56 -78q23 52 43 123.5
t38 113.5q18 138 37 213q7 5 7 12q0 4 -5.5 13.5t-5.5 15.5q0 15 8 35h-7q-9 0 -29 -3t-27 -3q-21 0 -21 13q0 8 8 13t21 5q8 0 23.5 -2t24.5 -2q10 0 23 1q13 8 47 8q4 0 13 -1t13 -1q10 0 29.5 4.5t29.5 4.5q13 0 13 -10z" />
    <glyph glyph-name="X" unicode="X" horiz-adv-x="664" 
d="M710 -5q0 -9 -11 -11q-23 -4 -80 -4q-19 0 -55.5 2.5t-54.5 2.5q-8 0 -27.5 -3t-29.5 -3q-24 0 -24 14q0 9 10 11q2 0 30 2q19 1 29 9q-12 29 -47 88q-11 6 -18 22q-8 20 -11 23q-23 30 -51 82.5t-51 81.5q-25 -21 -39.5 -45t-30.5 -38q-4 -10 -35 -51q-27 -36 -28 -49
q-15 -14 -26 -40t-21 -37t-14 -24q13 -6 29 -6q6 0 18.5 1.5t18.5 1.5q13 0 23.5 -5t10.5 -14q0 -10 -10.5 -11t-20.5 -1q-14 0 -38 2.5t-40 2.5q10 0 -73 -3q-10 0 -27.5 -2.5t-24.5 -2.5q-25 0 -25 16t18 16q4 0 13.5 -1.5t14.5 -1.5h2q6 0 20.5 2t20.5 2l44 57
q57 79 100 123q6 15 26 41t26 44q14 11 24 30t21 29q-28 31 -64 86q-14 40 -93 123v4q0 8 -11 12q-14 4 -16 7q-9 3 -24 3h-17q-11 -1 -16 -1q-14 0 -24 3.5t-10 13.5q0 13 24 13q8 0 26 -2.5t27 -2.5q8 0 14 2q9 -1 21 -1q22 0 74 4.5t74 4.5q47 0 47 -15q0 -13 -18 -13
q-4 0 -14 1.5t-17 1.5q-34 0 -34 -16q0 -6 8 -18q53 -81 53 -92v-1q1 -6 9.5 -12.5t9.5 -9.5q6 -11 17 -33q17 19 98 131q15 28 46 80q-2 2 -8 2q5 0 -17 -2q-6 -4 -12 -4q-23 0 -23 14q0 9 8 12q13 5 56 5q28 0 51 -2q18 -5 21 -5q46 5 36 5h6q25 4 20 4q19 0 19 -18
q0 -14 -21 -14q-6 0 -17.5 1.5t-17.5 1.5q-38 0 -53 -32q-12 -9 -32.5 -36.5t-33.5 -35.5q-3 -14 -23 -28.5t-22 -29.5q-30 -27 -57 -84q7 -6 18 -30q8 -19 23 -26q13 -23 45 -71q2 -9 5 -17q4 -13 17 -17q13 -25 52 -67q8 -9 9 -26.5t14 -24t25 -31.5t24 -34q18 -14 24 -17
q12 -7 27 -8q4 -1 9 -1q6 0 17 1t16 1q19 0 19 -12z" />
    <glyph glyph-name="Y" unicode="Y" horiz-adv-x="572" 
d="M673 706q0 -13 -19 -17q-5 -1 -12 -1q-4 0 -11 1h-12q-31 0 -40 -27q-2 -15 -23.5 -38.5t-23.5 -41.5l-97 -174q-12 -22 -85 -170q-12 -67 -12 -99q0 -11 2.5 -34t2.5 -35q0 -6 -1.5 -18.5t-1.5 -19.5q0 -22 11 -50q5 -2 9 -2t11.5 2.5t12.5 2.5q6 0 13 -4q3 1 9 1
q14 0 25 -3.5t11 -12.5q0 -15 -22 -15q-7 0 -27 3t-31 3q-9 0 -24.5 -4t-24.5 -4q-8 0 -23 3.5t-26 3.5q-18 0 -47 -5.5t-41 -5.5q-11 0 -19.5 2.5t-8.5 12.5q0 14 13 17q6 1 15 1h17q12 -1 18 -1q26 0 41 13q0 6 5 39q7 13 14 42v1q-2 9 -4 23v1q4 63 4 54q0 35 -8 68
q-9 23 -33 76v3q0 9 -7 18q-10 13 -10 14q-13 31 -46 96q-12 15 -32 45q-58 105 -119 158q-8 1 -15 1q-4 0 -11 -1h-8q-12 0 -22 3.5t-10 12.5q0 13 21 13q7 0 78 -10q13 -2 43 -2q33 0 63 2q7 0 18.5 3t18.5 3q29 0 29 -18q0 -13 -31 -13h-10q-7 1 -10 1q-12 0 -20 -3
q7 -19 17 -61q11 -9 18 -29t14 -27t13 -30q5 -19 20 -28q17 -26 42 -81q4 -14 25.5 -46t33.5 -40q18 28 48 84q13 35 34 65q13 19 26 46q20 43 20 44q14 50 49 149q-2 19 -11 26q-14 -1 -21 -1q-26 0 -40 8q-7 4 -7 11q0 11 26 11q3 0 54 -7q24 -3 59 -3q18 0 31 1
q51 5 49 5q23 0 23 -11z" />
    <glyph glyph-name="Z" unicode="Z" horiz-adv-x="554" 
d="M536 106q0 -47 -32 -81q-6 -22 -43 -38q-29 -9 -58 -19h-6q-57 -1 -110 26l-24.5 10t-17.5 14q-3 5 -15 11q-9 3 -18 7q-35 18 -80 18q-6 0 -16 -8q-13 -12 -15 -13q-13 -12 -30 -53q-12 -13 -27 -13q-17 0 -17 20q0 34 53 75q27 43 90 133q82 114 105 149q17 26 73 96
q42 53 61 90q-23 -10 -57 -10q-26 0 -38 7q-22 10 -62 58q-35 41 -68 45q-8 4 -20 4q-16 0 -31 -7q-14 -12 -23 -31q-14 -30 -16 -33v-6q0 -13 -8 -32t-8 -30q0 -3 1 -8t1 -8q0 -13 -15 -13q-19 0 -19 18v4q0 4 17 96q0 48 -9 72q0 46 20 46q18 0 18 -16q0 -8 -3 -24.5
t-3 -25.5q0 -16 3 -28q29 44 97 68q17 3 33 3q92 0 138 -73l28 -22q18 -11 34 -11h6q14 10 33 34t34 33q6 3 10 3q9 0 9 -11q0 -26 -19 -52.5t-46 -40.5v-1q0 -9 -8.5 -21t-15.5 -23t-28 -39q-11 -24 -44 -58q-23 -24 -57 -76q-31 -48 -54 -70q-10 -33 -57 -88
q-50 -58 -60 -84q71 35 99 35q18 0 45 -5q21 -4 36 -14l62 -46q37 -28 65 -35q8 -2 14 -2q8 0 31 16q32 23 32 56q0 5 2.5 17t2.5 17q0 17 -17 29q-12 1 -19 1q-34 0 -42 -21q-7 -5 -7 -15q0 -3 1.5 -9.5t1.5 -9.5q0 -8 -11 -8q-21 0 -21 21q0 31 29 57q8 7 24.5 8t21.5 1
q45 0 57 -29q7 -17 7 -37z" />
    <glyph glyph-name="grave" unicode="`" horiz-adv-x="374" 
d="M301 674q0 -14 -16 -14q-5 0 -9 2q-20 11 -72 36l-109 42q-11 5 -11 17t9 23t21 11q7 0 13 -4q33 -24 110 -73q20 -8 57 -28q7 -5 7 -12z" />
    <glyph glyph-name="a" unicode="a" horiz-adv-x="490" 
d="M462 32q0 -10 -12.5 -14t-24.5 -4q-6 0 -17.5 1.5t-16.5 1.5q-24 0 -45 -16q-7 -5 -15 -5q-28 0 -28 31q0 5 2 16t2 16q0 4 -1 8q-23 -35 -52 -53q-32 -13 -64 -13q-20 0 -37 5q-22 6 -34 6h-5.5h-4.5q-20 0 -51 18q-22 22 -30 64q21 106 80 121l44.5 19t60.5 12
q47 0 91 -26q11 15 11 40q0 6 -1 19.5t-1 20.5q0 9 1 16q-23 140 -77 140q-26 0 -49 -19q-24 -25 -32 -64q-3 -27 -7 -54q-2 -13 -13 -13q-14 0 -14 27q0 7 8 52q2 29 2 26q0 10 -4.5 30.5t-4.5 31.5q0 21 15 21q13 0 13 -18v-5q-1 -12 4 -21q27 30 82 30q21 0 51 -5
q76 -19 93 -56q9 -20 22 -102q0 -43 -22 -73v-35v-34q0 -76 -11 -123q0 -7 8 -15q37 7 61 7q23 0 23 -12zM309 168q-16 8 -44 33q-34 23 -65 23q-18 0 -33.5 -9t-43.5 -44q-9 -14 -9 -30q0 -26 34 -78q44 -30 72 -30q13 0 25 6q62 41 64 129z" />
    <glyph glyph-name="b" unicode="b" horiz-adv-x="540" 
d="M506 262q0 -29 -6 -85q-19 -25 -22 -51q-1 -9 -28 -43q-3 -4 -8 -12q-1 -7 -4 -20q-14 -46 -75 -89q-31 -22 -75 -22q-10 0 -18 2q-28 8 -48 26q-23 20 -24 42q-10 11 -10 29q0 30 23 62q7 10 45 24q18 3 32 3q26 0 38 -10q5 -10 5 -21q0 -14 -9.5 -36t-10.5 -29t-9 -7
q-14 0 -14 17q0 6 3.5 15t3.5 14q0 22 -24 22q-9 0 -20.5 -3.5t-28.5 -16.5q-6 -10 -6 -27q0 -30 20 -56t50 -26q38 0 68 30q59 59 59 199q0 29 -3 56q-6 54 -22 85q-12 21 -52 67q-14 7 -27 7q-16 0 -38 -12q-18 -11 -37 -21q-28 -20 -42 -60q-19 -56 -26 -67
q-2 -18 -2 -46v-24q0 -44 -7 -67q2 -10 2 -23q0 -9 -2 -30t-2 -32q0 -13 2 -25q-1 -6 -1 -12q0 -13 4.5 -36t4.5 -33t-12 -15q-15 -6 -38 -6q-12 0 -36.5 2t-35.5 2q-14 0 -22.5 -1.5t-22 -6.5t-19.5 -5q-17 0 -17 13q0 7 8 14t61 8q48 1 52 17v22q0 42 7.5 122.5t7.5 122.5
q0 33 -3 64q0 4 6 68q4 46 4 76q0 49 -10 80q1 18 1 37q0 72 -13 133q-25 3 -68 3q-50 -11 -57 -11q-16 0 -16 12q0 23 93 23q22 0 36 -3q12 5 39 5h24q17 -1 25 -1q5 0 15 1t15 1t5 -6q0 -21 -7 -71t-13 -67q7 -22 7 -53q0 -20 -4 -58t-4 -53v-4q-4 -6 -4 -12q0 -4 7 -22
q7 5 36 33q22 21 38 27q40 23 100 23q52 0 81 -21q75 -56 75 -151z" />
    <glyph glyph-name="c" unicode="c" horiz-adv-x="444" 
d="M429 583q0 -25 -15.5 -92t-15.5 -103q0 -11 2 -34t2 -35q0 -27 -14 -27q-12 0 -16 16q-2 9 -2 18q0 7 1.5 21t1.5 22v7q-1 4 -10 24q-8 17 -8 28q0 27 -20 52.5t-47 25.5q-14 0 -36 -6q-7 -10 -20 -18q-17 -10 -22 -14q-8 -13 -26 -33q-14 -9 -14 -32q0 -4 1 -11v-10
q0 -12 -5 -15q-17 -11 -18 -41q-2 -41 -5 -48q-1 -20 -1 -37q0 -82 30 -142q30 -87 90 -89h2q14 -1 39 16q22 15 28 26q19 34 20 63v2v9q-1 6 -1 11q0 36 16 36t16 -25t-8.5 -59.5t-18.5 -49.5q-15 -36 -56 -48q-27 -8 -59 -8q-59 0 -96 28q-26 20 -37 38l-21 35
q-26 39 -26 73v7.5v6.5q0 9 -2 25t-2 25q0 5 1 11q-2 10 -2 20q0 24 9 56q7 26 15 53q20 80 151 156q29 10 63 10q59 0 90 -31q9 14 11.5 48t9 43.5t15.5 9.5q10 0 10 -14z" />
    <glyph glyph-name="d" unicode="d" horiz-adv-x="519" 
d="M533 12q0 -5 -4 -8l-133 -117q-63 -61 -99 -122q-3 -6 -11 -6q-16 0 -16 12q0 10 8.5 24t17.5 19q6 4 10 12t9 12q33 30 37 62q1 44 10 121l-34 -32q-23 -20 -43 -19h-3q-23 -9 -49 -9q-19 0 -33 6q-51 14 -95 46q-51 38 -57 80q-8 56 -8 96q0 94 46 153q16 29 57 65
q37 34 73.5 54t79.5 20q45 0 75 -24q10 23 10 59q0 20 -5 68t-5 75v9q13 26 13 40q0 11 -6 15.5t-8 26.5q-2 19 -19 25q-16 0 -41.5 -4.5t-36.5 -4.5h-5q-29 -1 -29 14q0 19 18 19q6 0 17 -4.5t14 -4.5v0q10 0 31 6t32 6h5q52 9 74 9q9 0 15 -1q9 -10 9 -24q0 -7 -2 -16
q0 -62 -9 -193.5t-9 -202.5q-8 -17 -8 -42q0 -7 1 -21.5t1 -21.5q0 -27 -9 -45l11 -127q-3 -22 -3 -45q0 -22 3 -42q-5 -10 -5 -20q0 -5 1.5 -14.5t1.5 -14.5t-1 -10q3 -4 8 -4q16 0 36 23q29 35 49 35q13 0 13 -13zM382 287q-12 128 -68 164q-12 5 -26 5q-23 0 -58 -17
q-38 -33 -79 -112q-12 -24 -13 -72q0 -55 -6 -74q6 -15 19 -65q10 -41 23 -61q32 -52 91 -64q61 1 96 77q16 127 21 219z" />
    <glyph glyph-name="e" unicode="e" horiz-adv-x="427" 
d="M425 357q0 -16 -52 -16q-25 0 -35 5q-24 0 -63 -5q-51 0 -110 -8q-6 -54 -6 -71v-13q4 -19 4 -45q0 -10 -1 -30v-30q0 -46 12 -70q13 -72 46 -88q40 3 56 46q6 15 8 43t9 41q4 9 15 9q14 0 14 -12v-3q1 -21 -14 -64.5t-31 -61.5q-33 -28 -51 -28t-42.5 8.5t-33.5 16.5
q-73 92 -73 283q0 9 5.5 27.5t5.5 26.5t-4 14q-9 0 -26.5 -3.5t-27.5 -3.5q-18 0 -18 15q0 11 12 13q6 1 14 1h15q10 -1 14 -1q13 0 22 4q38 139 150 199q21 11 41 11h2q96 -1 120 -63q14 -37 14 -58v-9v-9q0 -13 4.5 -37.5t4.5 -33.5zM341 376q-15 38 -15 60q0 3 1 9v8
q0 10 -4 22q-8 17 -8 18q-14 50 -39 50q-45 0 -71 -58q-3 -22 -19.5 -62.5t-19.5 -61.5q4 -1 12 -1q9 0 32 2t30 2h3q46 4 98 12z" />
    <glyph glyph-name="f" unicode="f" horiz-adv-x="401" 
d="M477 685q0 -15 -9 -35q-11 -23 -25 -23q-7 0 -15 5q-12 69 -56 75q-9 3 -19 3q-16 0 -59 -17q-32 -13 -50 -51l-26 -69q-10 -37 -10 -77q0 -30 6 -77q10 -70 11 -83q6 1 12 1t17.5 -1t16.5 -1h3q15 4 46 10q59 4 72 4q15 0 15 -14t-27 -14q-6 0 -19 1t-21 1q-9 0 -18 -1
t-27 -7.5t-28 -6.5q-5 0 -14 1t-14 1q-17 -7 -17 -21q0 -7 5 -21.5t5 -22.5q0 -7 -3 -13q4 -51 4 -100q0 -229 -89 -387q-67 -76 -141 -76q-16 0 -31 4q-40 12 -63 48q-10 16 -27 64q-1 11 -1 20q0 34 20 54q10 11 61 41q21 13 49 13q13 0 27 -3q6 -1 19 -6q3 -2 15 -17
q29 -36 29 -60q0 -11 -5 -22l-21 -20q-14 -12 -27 -12t-13 10q0 7 7.5 10.5t20.5 17.5q-1 4 -5 30q-3 20 -8 30q-7 15 -22 21q-10 3 -19 3q-37 0 -66 -42q-18 -75 -18 -85q0 -36 31 -66q14 -13 33 -13q10 0 28 4q22 5 30 6q46 22 72 62q36 57 36 173q0 18 -1 57t-1 58v27
q1 48 -23 214q-14 5 -19 5q-7 0 -21 -6h-4q-5 0 -14 1.5t-13 1.5q-6 0 -19.5 -5t-20.5 -5q-6 0 -13 2t-7 13q0 8 5 10.5t48 7.5h11h13q5 0 50 10q-1 17 -1 35q0 132 78 280q54 67 107 86h5q14 0 44 7.5t45 7.5q18 0 32 -8q26 -15 41 -46v-2z" />
    <glyph glyph-name="g" unicode="g" horiz-adv-x="411" 
d="M454 583q0 -46 -26 -72q-30 -36 -58 -45q10 -38 10 -72q0 -11 -1 -18q1 -5 1 -10q0 -27 -16 -68q1 -4 1 -8q0 -12 -19.5 -34.5t-18.5 -38.5v-2l-44 -36q-26 -19 -47 -29q-17 -6 -54 -6q-51 0 -73 10q-72 50 -72 140q0 37 16 114q12 26 43 58t59 47q50 27 94 28h4
q9 0 19 -3q6 -3 21 -9q31 -10 34 -12q19 -8 27 -21q37 5 62 35q7 11 14 39q0 15 -12 18q-6 -4 -18 -14q-2 -4 -2 -7t1.5 -6t1.5 -4q0 -13 -22 -13q-18 0 -18 33q0 13 5 31q12 10 35 10q42 0 53 -27v-8zM330 -135q0 -15 -5 -75q-62 -131 -154 -151q-15 -3 -19 -3q-6 0 -28 11
q-32 16 -37 20q-20 13 -19 29v2q-12 24 -12 37q0 14 10 29q7 11 35 30t39 22q19 10 38 10q13 0 21 -5q25 -16 25 -58q0 -13 -4 -24t-19 -22.5t-26 -11.5q-15 0 -15 11q0 8 11.5 8t20.5 19v4q0 4 1 13v13q0 14 -6 23q-5 6 -21 6q-10 0 -16 -3q-30 -26 -39 -58v-10
q0 -57 33 -68q9 -2 19 -2q32 0 62 28q17 16 45 56q26 37 26 69q0 23 -13 51q-20 57 -132 98q-42 24 -42 54q0 17 20 51q24 40 26 47q24 19 39 19q23 0 23 -22q0 -23 -13 -23q-3 0 -10 3.5t-12 3.5q5 -44 70 -83.5t70 -84.5q8 -29 8 -63zM300 330q0 112 -34 161
q-18 25 -32 25q-5 0 -10 -1q-63 -6 -78 -69q-1 -18 -17 -48q4 -12 4 -25q0 -17 -9 -53v-5q0 -17 8 -41q9 -29 10 -38q19 -32 30 -43q21 -21 48 -21h5q51 21 68 76q7 37 7 82z" />
    <glyph glyph-name="h" unicode="h" horiz-adv-x="624" 
d="M608 -37q0 -13 -12 -15q-8 -1 -19 -1q-13 0 -40.5 2.5t-36.5 2.5q-7 0 -11 -1q-8 1 -17 1q-15 0 -47 -5t-47 -5q-8 0 -15.5 1t-7.5 17q0 5 2 7q10 9 28 9h6.5h6.5q22 0 33 14l14 159q8 31 14 83q1 9 1 22q0 75 -24 158q-4 47 -9 62q-11 32 -40 43q-23 14 -45 14
q-18 0 -69 -19q-104 -68 -122 -130q-4 -27 -4 -64q0 -11 1 -34v-34q0 -56 -10 -95q9 -37 9 -107v-32q0 -40 2 -65q8 -4 17 -4t24 4.5t21 4.5q18 0 18 -19q0 -15 -12 -17q-59 -1 -169 -11q-6 1 -12 1q-10 0 -22 -5t-20 -5q-17 0 -17 15q0 11 6 15q16 11 73 16q10 26 12 69
q11 33 11 97v25q0 60 9 91q0 27 1 129q1 81 1 131q0 212 -13 348q-2 2 -7 2q-6 0 -22 -4q-19 -5 -22 -6q-9 -1 -27.5 -11t-30.5 -9h-3q-16 1 -16 22q0 12 6.5 14t93.5 20q40 13 116 13q12 0 13 -11q6 -52 6 -67q0 -23 -6 -48q2 -11 2 -23q0 -24 -8.5 -72t-8.5 -72v-9
q-7 -32 -7 -71q0 -21 2 -50q11 16 38 39q3 1 62 40q36 23 69 23q5 0 11 -1q17 3 33 3q59 0 104 -30q15 -12 27 -39q15 -33 21 -41q2 -52 16 -152v-20q0 -26 -3 -83t-3 -86q-6 -23 -6 -56q0 -8 1 -25v-24.5v-15.5q10 -7 25 -7q5 0 15.5 1t15.5 1q9 0 16.5 -3.5t7.5 -14.5z
" />
    <glyph glyph-name="i" unicode="i" horiz-adv-x="309" 
d="M249 632q-7 -36 -49 -66q-5 -2 -10 -2q-17 0 -29 15.5t-12 32.5q0 23 15 39t37 16q44 0 48 -35zM296 40q0 -14 -33 -14q-11 0 -42 2.5t-49 2.5h-5q-7 0 -18 -3t-17 -3h-8q-6 1 -9 1q-14 0 -36 -7t-35 -7q-22 0 -22 12q0 7 9 13.5t43 9t49 10.5q6 87 6 176q0 88 -6 122
q-4 22 -27 22h-5q-8 0 -25 -3t-26 -3q-24 0 -24 13q0 9 25 15q19 4 34 4h11q7 -1 11 -1q6 0 17 1t16 1t13 -1t12 -1q25 0 52 18q4 1 8 1q15 0 17 -20q-18 -37 -22 -90l-4 -97q-6 -16 -6 -33q0 -13 5 -38.5t5 -38.5q0 -15 -4 -28q0 -14 9 -18.5t19 -4.5q6 0 16.5 1.5
t16.5 1.5q29 0 29 -16z" />
    <glyph glyph-name="j" unicode="j" horiz-adv-x="274" 
d="M205 676q0 -24 -30 -45q-51 0 -57 25q-3 8 -3 14q0 16 17 29q14 10 28 19h3q26 1 37 -24q5 -9 5 -18zM198 299q0 -16 -3 -30q0 -7 1 -24.5t1 -27.5q0 -16 -2 -32q-2 -6 -2 -14q0 -6 2 -19.5t2 -19.5q0 -10 -9 -25q-4 -8 -4 -18q0 -5 1.5 -14.5t1.5 -14.5q0 -6 -1 -11
q-12 -49 -25 -97q-17 -59 -42 -88q-29 -55 -81 -86q-31 -27 -90 -27q-34 0 -51 10q-37 38 -37 64q0 8 2 16q28 71 77 90q14 4 28 4q25 0 40 -11q17 -25 17 -41q0 -6 -2 -13q-3 -13 -19 -23.5t-27 -10.5q-18 0 -18 11q0 3 3.5 7.5t20.5 12.5q14 7 18 18q-7 22 -30 30
q-29 -3 -48 -27q-8 -10 -27 -49l10 -30q7 -19 25 -27q15 -4 29 -4q26 0 58 16q52 33 79 82q29 53 29 237q0 94 -5 121q-19 94 -22 162q-8 5 -13 26q-6 26 -7 28q-22 2 -32 2h-12q-9 -1 -14 -1q-15 0 -21 3t-6 12q0 10 8 11.5t33 1.5q15 0 18 -2q16 -2 38 -2q58 0 92 11
q15 -18 15 -35q0 -13 -9 -29q-1 -7 -1 -14q0 -18 5.5 -54.5t5.5 -54.5z" />
    <glyph glyph-name="k" unicode="k" horiz-adv-x="519" 
d="M539 42q0 -9 -7.5 -15.5t-15.5 -6.5q-19 -15 -59 -15q-68 0 -89 43q-30 38 -44 103l-21 102q-6 8 -16 36q-7 18 -20.5 21.5t-23.5 3.5q-41 0 -73 -41q-3 -15 -18 -47q-1 -11 -1 -23q0 -10 1 -28.5t1 -26.5q0 -30 -8 -54q7 -22 9 -53q2 -41 4 -52q8 -7 24 -7q7 0 22 2.5
t21 2.5q18 0 18 -16q0 -12 -16 -14q-12 -2 -33 -2q-11 0 -35 1h-37q-22 0 -67 -6t-67 -6q-25 0 -25 13q0 11 11 14t42 4t48 5q9 18 11 48q0 24 1 48q37 452 37 598q0 43 -16 163q-10 1 -20 1q-14 0 -37.5 -3t-33.5 -3q-31 0 -31 14q0 12 14 15t32 3q9 0 29 -1t32 -1
q18 0 51.5 3t49.5 3h2q10 0 14 -6q5 -9 5 -21q0 -7 -3 -22t-3 -22q0 -16 11 -26q-17 -32 -23 -95q-7 -78 -12 -95q2 -7 2 -14q0 -13 -9 -37t-10 -36q-2 -41 -2 -68q0 -28 2 -49q57 93 164 126q5 2 11 2q3 0 39 -14q24 -19 24 -62q0 -6 -1 -13q-1 -10 -17 -10q-8 0 -10 5
q-4 11 -19 21l-29 20h-8q-43 0 -80 -28q-22 -16 -57 -59q-5 -14 -11 -27q-7 -18 -7 -29q0 -5 2 -9q81 54 135 54q19 0 37 -6l47 -36q24 -22 27 -47q10 -17 13.5 -77t15.5 -80q3 -40 8 -54q7 -23 34 -23q21 0 42 21q4 5 10 5q12 0 12 -15z" />
    <glyph glyph-name="l" unicode="l" horiz-adv-x="282" 
d="M265 -21q0 -7 -8 -9.5t-25 -2.5q-8 0 -43 2h-9q-13 0 -43 -2q-37 -2 -44 -2t-31 -3t-37 -3q-32 0 -32 12q0 10 10 14q6 3 19 3q3 0 8 -1h9q35 0 47 22q15 120 36 376q1 28 1 60q0 60 -4 129q0 5 -2 18t-2 20q0 5 2 14.5t2 15.5q0 10 -2.5 31t-2.5 32v12q0 46 -12 64
q-5 0 -31 -3q-21 -3 -33 -3q-15 0 -25 2.5t-10 12.5q0 9 9 12q15 5 32 5q6 0 19.5 -1t20.5 -1q22 0 63 9t62 9q7 0 7 -7q0 -45 -11 -149q-12 -119 -14 -157q-8 -161 -8 -222q-7 -8 -7 -21q0 -8 3.5 -24t3.5 -23q0 -5 -1 -8q0 -14 2 -89q1 -56 1 -90v-28q4 -15 20 -15
q5 0 17 2t18 2q25 0 25 -15z" />
    <glyph glyph-name="m" unicode="m" horiz-adv-x="855" 
d="M850 -16q0 -5 -3 -10q-6 -10 -23 -21l-30 -20q-38 -31 -86 -81q-13 -19 -52 -54q-5 -3 -10 -3q-13 0 -13 13q0 5 2 9q7 13 20 22.5t21 21.5q1 22 7 76q6 50 6 78q0 14 -4 40.5t-4 40.5q0 15 4.5 48t4.5 50q0 24 -6 43q-9 30 -14 79.5t-13 72.5q-30 54 -67 68
q-86 -4 -156 -116q-2 -4 -2 -8t2 -10t2 -10q0 -6 -5 -11q5 -37 5 -57q0 -21 -4 -41q1 -13 1 -30q0 -19 -2 -59.5t-2 -59.5q0 -17 1 -30q9 -2 21 -2q7 0 20 1t19 1q8 0 14 -1q10 -2 10 -13q0 -14 -23 -14q-6 0 -23.5 1.5t-28.5 1.5q-39 0 -81 -3q-11 -1 -27 -4t-22 -3
q-25 0 -25 17q0 14 22 14q4 0 11.5 -1t11.5 -1q18 0 20 9t12 108q7 66 7 108q0 79 -22 134q-9 13 -17 27q-11 13 -26 13q-66 0 -109 -113q-13 -100 -13 -155q0 -51 9 -92q11 -52 11 -53q0 -9 -3 -17q10 -8 33.5 -8.5t29.5 -5.5t6 -11q0 -13 -16 -13q-13 0 -38.5 2.5
t-38.5 2.5q-80 0 -115 -5q-5 0 -14 -2t-14 -2q-18 0 -18 15q0 17 20 17q6 0 18 -1.5t18 -1.5q20 0 32 11q0 47 8 135.5t8 128.5q0 39 -5 72q4 14 4 31q0 14 -4 43t-4 44q-8 -2 -13 -2q-4 0 -12 1.5t-15 1.5h-4q-8 0 -28.5 -4.5t-31.5 -4.5q-17 0 -17 12q0 8 7 13q11 8 39 8
h11q8 -1 12 -1q18 0 29 3q4 -1 11 -1q9 0 34 2.5t38 2.5q39 0 39 -11q0 -1 -4 -6q-7 -8 -7 -20q0 -7 2.5 -20t2.5 -19q8 9 25 22q33 25 75 25q37 0 71 -19q21 -16 45 -53q45 56 73 79q45 35 94 35q15 0 31 -3q68 -1 136 -114q19 -64 19 -151q0 -40 -5.5 -116.5t-5.5 -110.5
q0 -17 1 -32q1 -11 5 -11q1 0 2 1q16 9 36 29q15 14 29 17q4 1 7 1q11 0 11 -10z" />
    <glyph glyph-name="n" unicode="n" horiz-adv-x="569" 
d="M569 47q0 -9 -28 -26l-38 -20l-46 -34q-33 -25 -51 -30q-29 -17 -65 -54q-3 -1 -10 -5.5t-12 -4.5q-10 0 -10 12q0 7 14 19.5t15 22.5q20 19 41 30l8 9q17 91 17 194q0 99 -16 171q-3 31 -6.5 63.5t-28.5 48.5q-21 3 -32 3q-17 0 -37 -6l-58 -58q-30 -37 -30 -78v-7
q-7 -22 -9 -106q0 -1 3 -21t3 -28q5 -18 6 -58q1 -36 10 -58q7 -4 17 -4q5 0 15.5 1.5t14.5 1.5q18 0 18 -13q0 -5 -5 -9.5t-17 -4.5q-5 0 -19.5 1.5t-21.5 1.5q-12 0 -34 -4t-38 -4q-4 0 -13 1h-13q-19 0 -39 -6t-32 -6q-15 0 -15 12q0 15 29 19q13 1 28 2.5t22 10.5v17
q0 37 5 110.5t5 110.5v36q-1 23 -1 35q0 20 1 35l-6 32.5t-20 22.5q-19 -5 -35 -5q-12 0 -27 3q-7 1 -7 10q0 17 17 17q4 0 13.5 -2.5t14.5 -2.5q4 0 11 2.5t14 2.5q8 0 27 -3t27 -3q14 0 19.5 5.5t21.5 5.5q21 0 21 -21v-7q-1 -6 -1 -8q0 -10 2 -16q12 5 31.5 29t36.5 31
q56 15 77 15q34 0 69 -25q30 -22 50 -54q3 -19 20 -61q2 -3 2 -11q0 -9 -3 -28q-4 -22 -4 -26q-7 -93 -7 -78q0 -10 1.5 -29.5t1.5 -29.5v-27q-1 -18 -1 -28q0 -34 5 -57q3 -2 7 -2q7 0 16 11.5t15 13.5q18 11 32 11q12 0 12 -11z" />
    <glyph glyph-name="o" unicode="o" 
d="M430 282q0 -56 -15 -84q-13 -23 -18 -44q-14 -51 -72 -121q-12 -8 -39.5 -29.5t-70.5 -22.5h-5q-20 -1 -70 22q-13 5 -25.5 10.5t-21.5 15.5q-60 70 -60 160q0 55 23 125q24 53 127 126q21 15 60 15q20 0 39 -5l60 -16q32 -11 44 -22q44 -41 44 -130zM342 255
q0 27 -10 43q-5 8 -8.5 32t-5.5 28q-19 47 -55 71q-12 4 -25 4q-42 0 -85 -51q-2 -6 -13 -35q-9 -20 -9 -34q0 -9 3 -18q0 -24 -7 -71q-4 -11 -4 -23q0 -25 17 -55q19 -113 78 -138q6 -1 12 -1q33 0 67 34q9 9 22 42q15 39 14 66v4v6q0 14 4.5 47t4.5 49z" />
    <glyph glyph-name="p" unicode="p" horiz-adv-x="524" 
d="M489 338q0 -32 -19 -108q-5 -19 -41 -57.5t-42 -53.5q-46 -63 -99 -62h-2q-12 -4 -24 -4q-44 0 -69 40q-2 10 -2 21q0 50 44 100q23 14 43 14q11 0 20 -5q24 -9 24 -45q0 -8 -1 -19q-7 -22 -22 -28q-3 -1 -6 -1q-11 0 -11 9q0 4 4 7q9 7 12 18v3q0 5 -1.5 12.5t-1.5 11.5
q-12 18 -24 18q-7 0 -12 -7l-34 -40q-1 -9 -1 -17q0 -40 36 -62q16 -6 28 -6q21 0 42 19q67 61 67 174q0 16 -4 60q-10 119 -72 152q-8 2 -17 2q-30 0 -64 -25q-15 -14 -29.5 -36l-27.5 -42l-2 -34q-3 -21 -11 -35q3 -15 3 -34q0 -14 -2.5 -43t-2.5 -43q0 -18 3 -33
q-4 -37 -4 -82q0 -25 1.5 -75.5t1.5 -77.5v-24q10 -27 11 -78q1 -58 6 -79q9 -4 22 -4q12 0 37.5 4.5t35.5 4.5q23 0 23 -18q0 -17 -21 -17q-6 0 -17.5 2t-15.5 2q-18 -3 -28 -3h-13q-9 1 -14 1q-8 0 -21 -4t-20 -4q-5 0 -15.5 1t-16.5 1q-45 0 -80.5 -7.5t-58.5 -7.5
t-23 14q0 18 23 18q3 0 11 -1t12 -1q9 0 16 3q9 -1 17 -1q28 0 43 16q21 203 21 412q0 181 -16 339q-7 1 -23.5 4t-26.5 3q-13 0 -35 -3.5t-28 -3.5q-20 0 -20 14q0 18 21 18q2 0 7.5 -1.5t10.5 -1.5h3q4 0 14.5 1t15.5 1q10 0 18 -2h12q21 0 63 5.5t62 5.5q10 0 10 -32
q0 -7 -2 -13q-6 -3 -6 -23q0 -12 4 -16q58 58 131 58q31 0 59 -11q58 -22 82 -43q9 -8 9 -19v-4.5v-3.5v-1q0 -7 8.5 -15.5t8.5 -16.5v-4q3 -30 3 -51z" />
    <glyph glyph-name="q" unicode="q" horiz-adv-x="490" 
d="M522 -57q0 -18 -43 -66q-39 -42 -98 -117q-11 -18 -63 -91l-4 -14.5t-8 -10t-10 -2.5q-12 0 -12 13q0 17 21 47q31 40 33 45q2 43 13 171q9 107 9 170q0 11 -1 30v29q-65 -80 -136 -94q-133 19 -160 77q-23 49 -23 107q0 93 54 183q19 48 77 80q54 29 110 29q6 1 13 1
q17 0 43 -9l40 -14q2 7 2 20v11q-1 21 4 31q6 14 22 14q7 0 9 -21t2 -40q0 -8 -1 -37q15 -5 15 -26q0 -12 -21 -83q-8 -81 -8 -110q0 -15 1 -31q4 -4 4 -13q0 -19 -11 -35q-3 -20 -3 -43q0 -32 9.5 -91t9.5 -85q0 -20 -3 -36v-2q0 -15 11 -30t11 -21.5t5 -6.5q3 0 24 23
l24 35q17 25 29 25q10 0 10 -12zM372 380q0 15 -1 30q-5 28 -31 59q-25 28 -48 38q-10 2 -19 2q-25 0 -45 -17q-3 -2 -37 -37q-2 -5 -17 -37q-11 -23 -11 -41q0 -5 1 -10q-17 -18 -17 -44q0 -6 1 -12l-4 -52q-4 -33 -4 -53q0 -74 45 -106q9 0 24.5 -6.5t22.5 -6.5q10 0 18 8
q63 8 112 95q-1 14 -1 29q0 28 5.5 80.5t5.5 80.5z" />
    <glyph glyph-name="r" unicode="r" horiz-adv-x="401" 
d="M393 389q0 -13 -4 -38q-2 -12 -12.5 -21.5t-20.5 -9.5q-7 0 -11 4q-8 7 -17 40q-7 28 -32 37q-25 -3 -59 -38q-35 -38 -48 -80v-7q0 -12 -8 -32t-8 -32q0 -3 1 -7v-7q0 -6 -3.5 -15.5t-3.5 -15.5q0 -4 3.5 -15t3.5 -19q0 -6 -1.5 -18t-1.5 -17q0 -6 2 -11q4 -20 15 -58
q6 -19 27 -19q5 0 12 1h2q3 0 13.5 4t22.5 4q19 0 19 -12q0 -6 -5 -10q-19 -15 -121 -15q-14 0 -43 -4q-38 -5 -49 -6q-1 0 -20 -4t-28 -4h-3q-10 0 -10 10q0 7 7 11q14 7 50 10q25 12 25 29q0 3 -1 5q10 111 10 173q0 39 -3 113q-5 9 -7 40q-1 25 -15 31h-3q-10 0 -30 -5
t-32 -5t-12 11q0 10 11.5 14.5t28.5 5.5q30 0 35 1q88 9 101 9q23 0 23 -8v-2q-18 -59 -18 -75v-5q73 96 136 112q2 7 13 14q7 1 13 1q30 0 48 -25q8 -18 8 -40z" />
    <glyph glyph-name="s" unicode="s" horiz-adv-x="342" 
d="M323 575q0 -11 -10 -48.5t-12 -59.5q-1 -14 -1 -24q0 3 -4 -11q-1 -5 -1 -11q0 -10 4.5 -29t4.5 -27q0 -13 -13 -13q-11 0 -14 9q0 19 -13 77l-16 32q-11 21 -26 29q-7 8 -16 8q-5 0 -17.5 -5t-20.5 -5q-12 -7 -24 -24t-25 -24q-6 -11 -6 -32q0 -10 1 -20
q29 -68 108 -112q58 -33 58 -146q0 -22 -2 -51q-1 -18 -21 -56q-22 -41 -41 -57q-35 -24 -61 -24q-22 0 -54 14q-37 16 -37 36q0 15 24 32l37 22q5 4 16 4q17 0 17 -7q0 -2 -1 -3q-11 -11 -21 -22.5t-11 -19.5q9 -32 27 -32q19 0 40 15q46 32 46 98q0 18 -4 37
q-26 70 -138 119q-53 38 -54 88v2q-1 76 92 171q35 26 90 26q30 0 59 -8q6 8 9.5 30t9 29.5t12.5 7.5q9 0 9 -15z" />
    <glyph glyph-name="t" unicode="t" horiz-adv-x="390" 
d="M369 438q0 -12 -13 -12v0h-38q-78 0 -126 -13q-8 -63 -8 -139q0 -93 13 -231q9 -26 26 -45q9 -10 19 -10q5 0 10 2q24 24 39 66q15 39 15 75v5v5q0 9 6 18t15 9q18 0 18 -16q0 -3 -2 -6q-6 -11 -24 -88q-9 -38 -40 -79q-25 -17 -56 -17q-15 0 -27 4q-56 40 -81 128
q-15 55 -21 156q6 36 6 42t-1.5 16.5t-1.5 16.5q0 15 5 32q1 20 5 56q-12 2 -25 2q-15 0 -40 -2.5t-35 -2.5q-23 0 -23 12q0 8 9 9q16 2 110 10q7 0 9 7l27 118q17 68 35 105q7 13 27 13q19 0 18 -14v-2q-2 -46 -12 -75t-10 -58v-17q1 -11 1 -17t-3 -12t-3 -10q0 -6 1 -15
v-13v-6q15 -1 31 -1q23 0 62.5 3t54.5 3q10 0 17 -1q11 -1 11 -11z" />
    <glyph glyph-name="u" unicode="u" horiz-adv-x="559" 
d="M539 -28q0 -7 -6 -16q-4 -5 -21 -15q-12 -6 -24 -13q-25 -28 -36 -39q-27 -25 -43 -26q-2 -1 -40 -37q-29 -27 -42 -27t-13 12q0 6 4 12q8 11 44 36q33 23 38 38q2 64 11 195q-35 -102 -126 -125q-26 -7 -52 -7q-80 0 -118 55q-18 25 -22 58l-4 46q-3 19 -3 38
q0 37 13 103.5t13 100.5v9q-9 3 -22 3q-9 0 -28 -2t-28 -2q-32 0 -32 16q0 17 31 17q8 0 21.5 -3t18.5 -3q8 0 22.5 2t22.5 2h8.5h8.5q9 0 24 2t19 2q13 0 16 -10q4 -14 4 -28q0 -20 -11 -58.5t-11 -59.5q0 -6 1.5 -19t1.5 -19q0 -19 -6 -53.5t-6 -48.5q0 -22 8 -37
q20 -39 21 -39q15 -24 39 -37q12 -4 27 -4q46 0 80 34q37 38 56 110q17 59 17 118q0 10 -1 19q-3 18 -4 71q-2 43 -10 71q-8 0 -24.5 -1.5t-24.5 -1.5q-17 0 -30.5 4.5t-13.5 13.5q0 17 23 17l38 -6q13 -2 22 -2q13 0 28 3q36 7 62 7q18 0 18 -17q0 -4 -5.5 -16t-5.5 -20v-3
q-9 -32 -16 -89q-8 -64 -13 -87q0 -21 -3 -73q-3 -46 -3 -72q0 -71 16 -124q6 3 29 22q19 15 29 15q13 0 13 -12z" />
    <glyph glyph-name="v" unicode="v" horiz-adv-x="514" 
d="M186 375q16 -42 19 -111q4 -73 16 -111q6 -27 26 -85q4 -5 5 -22q0 -13 11 -17q21 46 71 148q51 99 108 302q-12 8 -33 8q-9 0 -25.5 -1.5t-23.5 -1.5q-29 0 -29 15q0 17 20 17q5 0 16.5 -2.5t16.5 -2.5h4q14 0 69 2q46 1 73 1q42 0 65 -3q9 -1 9 -10q0 -16 -20 -16
q-5 0 -16 2.5t-17 2.5q-16 0 -29 -19q-17 -18 -35 -55q-21 -39 -33 -54q-14 -39 -66 -139q0 -12 -12 -28.5t-12 -27.5q-16 -16 -30.5 -58t-27.5 -58t-20 -42l-14 -50q-17 -12 -37 -12q-5 0 -9 1q0 16 -12 18q-14 22 -14 64q-24 52 -66 182q-38 116 -72 177zM62 389
q-9 7 -28 7q-6 0 -19 -1t-20 -1q-28 0 -28 13q0 18 28 18q11 0 23 -3q54 -7 119 -7q12 0 33 1h31q22 0 41 -2q11 -1 11 -14q0 -15 -15 -15q-5 0 -15.5 2t-15.5 2q-17 0 -21 -14z" />
    <glyph glyph-name="w" unicode="w" horiz-adv-x="704" 
d="M665 408q0 -89 -20 -112q-4 -29 -7 -57q-5 -35 -17 -57q-14 -64 -41 -108q-4 -16 -35 -59q-5 -6 -10 -6h-1q-36 1 -57 48q-38 58 -122 173q-11 -9 -21.5 -33t-19.5 -33q-14 -28 -41 -63l-47 -60l-28 -50q-8 -5 -23 -34q-13 -25 -28 -25q-7 0 -7 7v0v10q1 109 -27 232
l-51 203q-2 8 -9 8.5t-17 1.5t-16 1q-4 0 -14 -2.5t-16 -2.5q-18 0 -18 14t15 16q8 1 18 1t32 -2t32 -2t39 -2t42 -2q12 0 19 1q31 5 52 5q26 0 26 -12q0 -17 -27 -17h-13q-8 1 -13 1q-10 0 -17 -3q-5 -13 -5 -44v-31q1 -21 1 -29.5t6.5 -26t6.5 -28.5t-5 -22q3 -20 13 -40
q12 -23 14 -30t2 -13q0 -1 -1 -4v-5q0 -8 4.5 -19.5t5.5 -16.5q30 29 79 113q59 98 83 129q9 11 20 11q17 -4 42 -26q5 -5 6.5 -12.5t7 -19t5.5 -17.5q0 -17 12 -34q7 -10 24 -66q19 -35 56 -71q23 23 41 95q2 7 26 132q4 21 4 53q0 27 -15.5 47t-15.5 21q0 11 11 34.5
t18 23.5h2q19 1 38 -39q2 -17 2 -45z" />
    <glyph glyph-name="x" unicode="x" horiz-adv-x="490" 
d="M500 -12q0 -21 -23 -21q-6 0 -19 4t-20 4q-4 0 -10.5 -2t-10.5 -2t-11.5 1t-12.5 1q-19 0 -61 -8t-63 -7h-3q-15 1 -15 11q0 8 10 12q2 1 35 2q30 1 36 8q-18 44 -67 142q-12 5 -19 26t-13 25l-21 -36q-13 -20 -29 -33q-1 -6 -19 -27q-9 -14 -23 -50q-12 -10 -12 -24v-9
q1 -5 1 -8q0 -6 -2.5 -11t-10 -16t-7.5 -16q0 -3 2 -6q6 0 24.5 1.5t28.5 1.5t17 -1q15 -3 15 -17q0 -12 -12 -11h-2q-5 0 -33 3q-22 1 -37 1q-21 0 -38 -2q-4 0 -11.5 -2.5t-12.5 -2.5t-11.5 1t-10.5 1q-17 0 -42 -6.5t-28 -6.5q-13 0 -13 17q0 13 10 15q19 1 48 4
q35 10 40 32q25 29 71 94q43 62 71 93l22 35q3 4 8 14q-15 25 -160 247q-19 4 -35 4q6 0 -27 -2h-2q-13 -1 -13 16q0 13 13 13q7 0 20 -2.5t20 -2.5h1q23 0 84 8t80 8q28 0 28 -12q0 -7 -10 -12q-19 -1 -46 -7q-2 -3 -2 -5q0 -5 9 -14.5t10 -14.5v-1q0 -11 12.5 -27
t12.5 -26v-4q14 -17 26 -53t26 -55q68 91 91 182h-5.5h-6.5h-5.5h-4.5h-5q-4 0 -11.5 -1t-10.5 -1q-7 0 -14 5t-7 14q0 11 11 11h3q8 0 43 -3q41 -3 57 -4h20q9 0 27 2t27 2q13 0 13 -14q0 -15 -21 -15q-4 0 -13 1h-14h-7q-6 -11 -26.5 -32t-27.5 -34q-1 -7 -7 -22
q-6 -5 -17 -17l-70 -99q29 -45 80 -131q4 -12 20 -30.5t20 -30.5q7 -5 18 -26q8 -16 23 -19q15 -11 31 -11h8q6 1 8 1q10 0 10 -10z" />
    <glyph glyph-name="y" unicode="y" horiz-adv-x="477" 
d="M493 516q0 -28 -20 -74q-29 -62 -30 -67q-11 -15 -25.5 -54t-28.5 -57l-55 -100q-37 -65 -62 -96q-11 -26 -53 -85q-32 -45 -40 -92q0 -1 11 -53q7 -32 7 -53q0 -10 -1 -18t-11.5 -14.5t-20.5 -6.5q-6 0 -9 3q-48 35 -48 72q0 8 3 18q15 54 36 81l52 79l-25 107
q-15 64 -35 98q-2 20 -19.5 59.5t-20.5 57.5q-6 16 -22.5 43.5t-22.5 46.5q-6 10 -17 11h-2q-4 0 -16.5 -2t-18.5 -2q-19 0 -19 13q0 18 40 18q11 0 34 -4t35 -4q18 0 54.5 5.5t55.5 5.5q40 0 40 -16q0 -14 -25 -14q-4 0 -14 1h-14q-16 0 -23 -5q15 -22 17 -66t18 -67
q13 -30 32 -90q12 -16 13 -52t12 -52q10 5 19 21q6 13 13 26q66 105 90 154q43 88 54 173q0 12 -7 26q-7 11 -13 23q-22 5 -22 13q0 26 50 46q3 1 7 1q9 0 28 -6q4 -1 11.5 -22t7.5 -30z" />
    <glyph glyph-name="z" unicode="z" horiz-adv-x="469" 
d="M477 54q0 -29 -29.5 -63.5t-59.5 -42.5l-50.5 -17t-44.5 -9q-17 0 -34 7l-54 35q-37 26 -52 43q-29 12 -44 12q-18 0 -36 -14q-40 -61 -72 -93q-6 -6 -12 -6q-12 0 -12 13v1q-1 27 32 71q13 17 48 39q17 15 30.5 38.5l27.5 48.5q24 39 64 85q47 54 60 73q19 27 28 42
q14 26 21 53h-4q-9 0 -27.5 -6t-28.5 -6h-1q-17 0 -41 24.5t-36 24.5q-31 0 -31 -45q0 -9 2 -25t2 -24q0 -18 -8 -32q-2 -4 -8 -4t-7 4q0 19 -9 62q-1 12 -1 17q0 22 10 30v8q0 16 -5 53.5t-5 55.5q0 9 1 16.5t13 7.5q10 0 11.5 -6t1.5 -11v-7.5v-6.5q0 -9 7 -52
q-1 -2 -1 -13q0 -16 1 -21l17 23q23 45 69 50q16 -2 60 -23q39 -18 61 -17h4q24 1 41 19q13 29 26 29q12 0 12 -16q0 -9 -103 -150l-116 -148l-56 -71q-28 -38 -44 -72q60 13 72 13q10 0 17 -3q65 0 120.5 -36t90.5 -38q48 21 48 55q0 12 -13.5 37t-13.5 31q0 7 15 7
q30 0 34 -17q2 -7 8 -19q4 -7 4 -14z" />
    <glyph glyph-name="Adieresis" unicode="&#xc4;" horiz-adv-x="674" 
d="M457 782q0 -34 -31 -34t-31 43q0 38 23 38v0q18 0 28.5 -14.5t10.5 -32.5zM332 777q0 -31 -25 -31q-15 0 -24.5 14t-9.5 30q0 31 26 31q15 0 24 -14t9 -30zM724 46q0 -8 -6 -16t-14 -8q-4 0 -15.5 3t-19.5 3t-36 -3q-14 -12 -36 -12q-8 0 -26 2t-28 2q-14 0 -40.5 -6
t-40.5 -6q-26 0 -26 17q0 20 21 20q4 0 11 -2t10 -2q42 0 51 8q-1 21 -11 47q-16 42 -18 50t-11 52q-5 27 -14 42q-12 19 -39.5 21t-55.5 2q-101 0 -221 -26q-22 -17 -35 -53q-17 -46 -25 -57q-2 -20 -9 -35t-9 -31q9 1 19 1q23 0 54 -5q12 -2 12 -13q0 -16 -20 -16
q-6 0 -23 3t-27 3q-18 0 -30 -9q-4 -2 -10 -2q-19 0 -28 9q-15 -2 -38 -10q-19 -5 -33 -5h-4q-13 0 -13 14q0 15 12 18q7 2 21 2h4q30 0 52 10l91 176q18 46 65 133q39 55 59 98q39 84 81 137q11 26 27 79q9 14 26 14q5 0 10 -2q12 -29 44 -141q10 -14 17 -46q8 -37 15 -50
q10 -19 33 -83q20 -52 40 -82q3 -21 19.5 -52t19.5 -50q0 -40 22 -53q14 -28 39 -85q34 7 74 7q13 0 13 -12zM446 295q0 5 -4 14t-4 15q-12 13 -22 35q-13 29 -18 36q3 7 3 14q0 17 -28 55q-11 14 -17.5 42.5t-21.5 49.5q-47 -59 -62 -105q-5 -15 -46 -84q-15 -9 -31 -49
q-2 -6 -14 -22q-9 -12 -9 -20q0 -3 1 -5q54 0 134 9q118 13 139 15z" />
    <glyph glyph-name="Aring" unicode="&#xc5;" horiz-adv-x="674" 
d="M445 818q0 -33 -23 -55.5t-55 -22.5q-33 0 -56.5 22.5t-23.5 55.5t23.5 56t56.5 23q32 0 55 -23t23 -56zM724 46q0 -8 -6 -16t-14 -8q-4 0 -15.5 3t-19.5 3t-36 -3q-14 -12 -36 -12q-8 0 -26 2t-28 2q-14 0 -40.5 -6t-40.5 -6q-26 0 -26 17q0 20 21 20q4 0 11 -2t10 -2
q42 0 51 8q-1 21 -11 47q-16 42 -18 50t-11 52q-5 27 -14 42q-12 19 -39.5 21t-55.5 2q-101 0 -221 -26q-22 -17 -35 -53q-17 -46 -25 -57q-2 -20 -9 -35t-9 -31q9 1 19 1q23 0 54 -5q12 -2 12 -13q0 -16 -20 -16q-6 0 -23 3t-27 3q-18 0 -30 -9q-4 -2 -10 -2q-19 0 -28 9
q-15 -2 -38 -10q-19 -5 -33 -5h-4q-13 0 -13 14q0 15 12 18q7 2 21 2h4q30 0 52 10l91 176q18 46 65 133q39 55 59 98q39 84 81 137q11 26 27 79q9 14 26 14q5 0 10 -2q12 -29 44 -141q10 -14 17 -46q8 -37 15 -50q10 -19 33 -83q20 -52 40 -82q3 -21 19.5 -52t19.5 -50
q0 -40 22 -53q14 -28 39 -85q34 7 74 7q13 0 13 -12zM419 818q0 21 -16 37t-36 16q-22 0 -38 -16t-16 -37q0 -20 16 -36t38 -16q20 0 36 16t16 36zM446 295q0 5 -4 14t-4 15q-12 13 -22 35q-13 29 -18 36q3 7 3 14q0 17 -28 55q-11 14 -17.5 42.5t-21.5 49.5
q-47 -59 -62 -105q-5 -15 -46 -84q-15 -9 -31 -49q-2 -6 -14 -22q-9 -12 -9 -20q0 -3 1 -5q54 0 134 9q118 13 139 15z" />
    <glyph glyph-name="Ccedilla" unicode="&#xc7;" horiz-adv-x="604" 
d="M578 177q0 -29 -27 -75q-21 -75 -120 -113q-53 -13 -91 -13h-9q0 -6 -5 -20t-5 -23v-3q0 -14 46 -31q30 -11 30 -39t-31 -45q-46 -24 -82 -25h-1q-16 0 -16 12q0 7 8 9q42 9 57.5 21.5t15.5 26.5q0 15 -20 25q-36 18 -36 39q0 11 6 29.5t6 26.5q-26 3 -54 16q-2 -1 -4 -1
q-22 0 -97 63q-66 55 -79 117q-12 28 -24 83v20q0 83 17 139q14 9 16 32.5t3 25.5q19 30 28 41q17 22 40 35q13 8 24.5 22.5t19.5 20.5q15 12 43.5 24.5t33.5 16.5q16 13 65 22q16 1 33 1q57 0 111 -16q7 -2 13 -2q14 0 19 11q6 60 14 92q3 11 14 11q17 0 17 -32
q0 -16 -10 -50.5t-11 -51.5q11 -11 11 -48q0 -47 -13 -91q-1 -6 -1 -13q0 -11 3.5 -32t3.5 -32q0 -21 -16 -21q-13 0 -16 13t-3 24q0 7 1.5 19.5t1.5 18.5q0 25 -7 62q-33 58 -102 105q-14 9 -45 9h-15q-11 -8 -66 -28q-41 -15 -59 -45q-23 -38 -25 -41q-11 -22 -12 -45
q-1 -11 -10 -35q-11 -28 -14 -43t-3 -33v-14q1 -9 1 -14q0 -19 -4 -34q-4 -18 -4 -49q0 -28 4 -36q8 -15 20 -61q19 -72 60 -103q9 -32 37 -34q5 0 45 -12q22 -6 44 -6q61 0 126 45q2 4 25 35q17 22 19 40q7 15 10 37.5t7.5 33.5t17.5 11q20 0 20 -25z" />
    <glyph glyph-name="Eacute" unicode="&#xc9;" horiz-adv-x="577" 
d="M392 798q0 -12 -11 -17q-43 -15 -109 -42l-72 -36q-4 -2 -9 -2q-16 0 -16 14q0 7 7 12l57 28l110 73q6 4 13 4q12 0 21 -11t9 -23zM590 148q0 -11 -16 -32q-19 -25 -22 -33q-5 -28 -47 -83q-10 -16 -28 -61q-7 -17 -20 -17q-11 0 -11 12q0 13 16.5 40.5t16.5 30.5
q0 7 -10 7v0q-13 0 -41.5 -2t-43.5 -2q-13 0 -38.5 2.5t-38.5 2.5q-38 0 -58 -3t-44 -3h-18.5h-18.5q-15 0 -28 -1q-41 -4 -75 -15q-30 -10 -50 -11h-1q-13 -1 -13 11q0 7 7 12q11 7 37 10q22 3 32 16q11 23 11 63v24q-1 16 -1 24q0 19 2 33q16 128 16 157q-5 10 -5 26
q0 6 1 15q14 16 14 31v13q-1 10 -1 18q0 27 -5 68.5t-5 61.5l1 19q0 6 -7 6.5t-15 0.5t-23 -1.5t-23 -1.5q-11 0 -22 2q-14 2 -14 15q0 17 18 17q12 0 36.5 -3t42.5 -3h7q46 1 128 8q21 -3 44 -3q39 0 119 16q4 -1 9 -1q17 0 25 8q-1 8 -9.5 23.5t-8.5 26.5v1q0 17 18 17
q5 0 9 -3q9 -6 12 -23.5t7 -21.5q9 -12 15 -46.5t12 -43.5q17 -26 17 -46q0 -15 -15 -15q-8 0 -13 7t-9 34q-2 23 -14 30q-42 3 -131 14q-36 -1 -111 -8q0 -1 -8 -24q-6 -18 -6 -32q0 -5 1 -13.5t1 -13.5q0 -10 -2.5 -37.5t-2.5 -46.5q0 -23 3 -46q23 -3 49 -3q33 0 96 7
q68 6 101 7q5 0 15 4t17 4q5 0 5 -4q0 -14 -15 -28t-29 -14h-1q-93 1 -82 1q-83 0 -148 -8q-10 -3 -12.5 -11.5t-2.5 -17.5q0 -11 2.5 -35.5t2.5 -36.5q0 -8 -1 -14q-13 -11 -13 -24q0 -5 4 -20.5t4 -26.5q0 -13 -3 -40t-3 -39q0 -24 8 -37q34 -5 60 -5q14 0 44 2
q7 -2 15 -2q11 0 34 6t35 6q6 0 12 -1q44 13 114 38q39 18 54 66q5 15 17 15q16 0 16 -16z" />
    <glyph glyph-name="Ntilde" unicode="&#xd1;" horiz-adv-x="742" 
d="M513 818q-2 -21 -13 -40q-11 -22 -27 -26q-9 -3 -18 -3q-28 0 -69 33.5t-58 33.5q-11 0 -27.5 -11.5t-16.5 -22.5q0 -2 1.5 -6t1.5 -5v-1q-2 -8 -12 -8t-13 6t-3 13q0 4 1 10q6 16 25 34.5t36 24.5q12 4 23 4q27 0 62 -35t57 -38q20 7 26 24q2 3 2 5t-3 6t-3 6v2
q-1 11 10 11q4 0 7 -2q4 -6 11 -15zM731 692q0 -18 -26 -18q-5 0 -15.5 1.5t-16.5 1.5q-12 0 -21 -6q-5 -10 -5 -32v-3q0 -23 -6 -32q3 -12 3 -30q0 -6 -1 -20v-19q0 -26 6 -43q-1 -16 -9 -69q-6 -44 -6 -69q0 -27 6 -49q1 -8 1 -18q0 -13 -3.5 -39.5t-3.5 -38.5
q0 -7 2.5 -20t2.5 -20t-1 -25.5t-1 -27.5q0 -7 2 -19.5t2 -18.5q0 -10 -5 -23q0 -1 -2 -42q-1 -37 -10 -50q-3 -3 -10 -3q-28 0 -39 15q-74 106 -101 141q-58 77 -102 116q-82 73 -94.5 100.5t-27.5 30.5q-33 27 -58 62l-51 67q-4 -10 -4 -32q-1 -26 -3 -39q2 -6 2 -12
q0 -5 -3 -14.5t-3 -14.5q0 -9 7 -19q-6 -27 -6 -51q0 -11 1.5 -33.5t1.5 -35.5q0 -20 -3 -40q9 -32 13 -83q5 -71 8 -89q19 -14 57 -14h8q11 0 16 -1q13 -2 13 -14q0 -18 -24 -18q-9 0 -28.5 4.5t-29.5 4.5q-9 -4 -27 -8h-2q-34 2 -31 2q-21 0 -49 -5q-10 -2 -31 -9
q-17 -5 -30 -5h-2q-13 0 -13 12q0 7 6 14.5t29 9.5q34 2 40 4q13 3 25 15q15 68 15 83q0 8 -1 15q0 4 -2.5 11t-2.5 11q0 9 5 28.5t5 30.5v5q0 23 3 36q1 34 1 78q0 108 -4 136q-1 9 -1 20q0 27 7 41q-2 9 -2 19q0 11 3 35t3 36q0 20 -6 35q2 2 10 28q7 22 14 22q2 0 4 -5
q11 -33 39 -71l47 -62q12 -9 23.5 -35.5t29.5 -34.5q11 -11 28 -43t30 -44q62 -58 94 -111q14 -16 64 -56q37 -29 45 -55q5 -16 25 -31t25 -26q9 -15 23 -21q3 12 3 27q0 13 -2 37.5t-2 37.5v21q1 13 1 19q0 10 -2.5 31t-2.5 31v20q1 13 1 19q8 31 8 72q0 39 -9 107
q-9 73 -10 95q-2 4 -6 31q-3 19 -12 28q-11 4 -23 4q-5 0 -16.5 -1t-18.5 -1q-11 0 -21 2q-14 3 -14 14t14 14q11 3 25 3q26 0 52 -7q15 -4 29 -4q7 0 17.5 1.5t14.5 1.5q3 0 7 -1h7q6 0 31 4.5t42 4.5q15 0 15 -15z" />
    <glyph glyph-name="Odieresis" unicode="&#xd6;" horiz-adv-x="614" 
d="M417 743q0 -34 -31 -34t-31 43q0 38 23 38v0q18 0 28.5 -14.5t10.5 -32.5zM292 738q0 -31 -25 -31q-15 0 -24.5 14t-9.5 30q0 31 26 31q15 0 24 -14t9 -30zM574 346q0 -86 -33 -142q-7 -12 -15 -38t-16 -39q-11 -19 -42 -46t-38 -38q-66 -48 -147 -48q-42 0 -76 15
q-78 35 -116 91q-12 17 -22 47.5t-20 45.5q-8 37 -8 64q0 4 1 12t1 11q0 7 -2 20.5t-2 20.5q0 27 14 57q8 16 11 41.5t10 41.5q7 10 47 80q19 33 46 48q25 32 69 47l69 22q16 1 30 1q86 0 126 -47q25 -18 35 -28q17 -17 24 -40q5 -16 30 -38q11 -28 11 -45v-6v-2
q0 -6 5.5 -19t5.5 -18q2 -81 2 -71zM486 353q0 31 -9 72q-7 34 -26 102q-29 81 -79 104q-14 7 -30 7q-24 0 -63 -18h-2q-21 0 -38 -18q-23 -26 -27 -28q-26 -33 -34 -62q-7 -18 -23 -54q-1 -24 -10.5 -68t-9.5 -66q0 -11 5 -32.5t5 -33.5q0 -11 -5 -32.5t-5 -31.5
q0 -13 6 -21q9 -12 11 -25q10 -54 34 -74l35 -34q24 -20 54 -19h4q76 1 97 32q23 13 41 43l28 53q2 13 13.5 40t11.5 44q0 3 -1 9t-1 9q0 11 7 32q11 36 11 70z" />
    <glyph glyph-name="Udieresis" unicode="&#xdc;" horiz-adv-x="695" 
d="M427 713q0 -34 -31 -34t-31 43q0 38 23 38v0q18 0 28.5 -14.5t10.5 -32.5zM302 708q0 -31 -25 -31q-15 0 -24.5 14t-9.5 30q0 31 26 31q15 0 24 -14t9 -30zM684 16q0 -17 -28 -17q-8 0 -32 1.5t-37 1.5q-12 0 -36 -4.5t-35 -4.5q-24 0 -26 15q-1 10 -1 21q0 12 1.5 34
t1.5 33q0 15 -2 28q-82 -109 -198 -109q-22 0 -45 5q-42 9 -72 35q-12 10 -42 48q-26 33 -26 51v6v6q0 14 -6.5 33.5t-7.5 31.5q-1 17 -1 36t1.5 54.5t1.5 52.5q0 5 -3 17.5t-3 18.5q0 10 3 30.5t3 30.5v20v22q0 19 1 39q-4 12 -31 12q-6 0 -16.5 -1t-14.5 -1q-25 0 -25 17
q0 13 18 13q12 0 30 -3.5t24 -3.5q3 0 32.5 -1t46.5 -1q19 0 27 1q46 6 53 6q21 0 21 -13q0 -16 -17 -16q-3 0 -11 1t-13 1q-13 0 -22 -6v-7q0 -9 -3 -23q-5 -18 -6 -26l-16.5 -101t-8.5 -91q0 -39 7 -85q6 -14 14 -42q7 -42 7 -43q5 -24 19 -41q16 -34 54 -45q23 -7 74 -7
l50 21q109 51 109 214v15q7 10 7 32v10.5v8.5q0 13 2.5 38t2.5 38q0 10 -3 30t-3 30q0 6 1.5 16.5t1.5 16.5q0 24 -10 100q-12 4 -25 4q-7 0 -21 -1.5t-23 -1.5q-7 0 -14 1q-18 2 -18 16q0 9 7 11q11 3 25 3q11 0 34 -3t34 -3h6q6 5 48.5 6.5t47.5 2.5q9 -8 9 -17
q0 -6 -5 -19t-5 -21q0 -4 1 -11t1 -10q0 -8 -4.5 -19.5t-4.5 -18.5q0 -4 1 -14t1 -15q0 -13 -6 -23q2 -12 2 -24q0 -15 -5.5 -43.5t-5.5 -46.5q0 -8 1 -16q-6 -4 -6 -11q0 -5 3.5 -13.5t3.5 -11.5v0q0 -14 -2 -59q-2 -37 -2 -59q0 -95 17 -170q13 -4 21 -4q4 0 10.5 2
t13.5 2q4 0 14.5 1.5t14.5 1.5q18 0 18 -16z" />
    <glyph glyph-name="aacute" unicode="&#xe1;" horiz-adv-x="479" 
d="M371 636q0 -12 -11 -17q-43 -15 -109 -42l-72 -36q-4 -2 -9 -2q-16 0 -16 14q0 7 7 12l57 28l110 73q6 4 13 4q12 0 21 -11t9 -23zM462 32q0 -10 -12.5 -14t-24.5 -4q-6 0 -17.5 1.5t-16.5 1.5q-24 0 -45 -16q-7 -5 -15 -5q-28 0 -28 31q0 5 2 16t2 16q0 4 -1 8
q-23 -35 -52 -53q-32 -13 -64 -13q-20 0 -37 5q-22 6 -34 6h-5.5h-4.5q-20 0 -51 18q-22 22 -30 64q21 106 80 121l44.5 19t60.5 12q47 0 91 -26q11 15 11 40q0 6 -1 19.5t-1 20.5q0 9 1 16q-23 140 -77 140q-26 0 -49 -19q-24 -25 -32 -64q-3 -27 -7 -54q-2 -13 -13 -13
q-14 0 -14 27q0 7 8 52q2 29 2 26q0 10 -4.5 30.5t-4.5 31.5q0 21 15 21q13 0 13 -18v-5q-1 -12 4 -21q27 30 82 30q21 0 51 -5q76 -19 93 -56q9 -20 22 -102q0 -43 -22 -73v-35v-34q0 -76 -11 -123q0 -7 8 -15q37 7 61 7q23 0 23 -12zM309 168q-16 8 -44 33q-34 23 -65 23
q-18 0 -33.5 -9t-43.5 -44q-9 -14 -9 -30q0 -26 34 -78q44 -30 72 -30q13 0 25 6q62 41 64 129z" />
    <glyph glyph-name="agrave" unicode="&#xe0;" horiz-adv-x="479" 
d="M369 543q0 -14 -16 -14q-5 0 -9 2q-20 11 -72 36l-109 42q-11 5 -11 17t9 23t21 11q7 0 13 -4q33 -24 110 -73q20 -8 57 -28q7 -5 7 -12zM462 32q0 -10 -12.5 -14t-24.5 -4q-6 0 -17.5 1.5t-16.5 1.5q-24 0 -45 -16q-7 -5 -15 -5q-28 0 -28 31q0 5 2 16t2 16q0 4 -1 8
q-23 -35 -52 -53q-32 -13 -64 -13q-20 0 -37 5q-22 6 -34 6h-5.5h-4.5q-20 0 -51 18q-22 22 -30 64q21 106 80 121l44.5 19t60.5 12q47 0 91 -26q11 15 11 40q0 6 -1 19.5t-1 20.5q0 9 1 16q-23 140 -77 140q-26 0 -49 -19q-24 -25 -32 -64q-3 -27 -7 -54q-2 -13 -13 -13
q-14 0 -14 27q0 7 8 52q2 29 2 26q0 10 -4.5 30.5t-4.5 31.5q0 21 15 21q13 0 13 -18v-5q-1 -12 4 -21q27 30 82 30q21 0 51 -5q76 -19 93 -56q9 -20 22 -102q0 -43 -22 -73v-35v-34q0 -76 -11 -123q0 -7 8 -15q37 7 61 7q23 0 23 -12zM309 168q-16 8 -44 33q-34 23 -65 23
q-18 0 -33.5 -9t-43.5 -44q-9 -14 -9 -30q0 -26 34 -78q44 -30 72 -30q13 0 25 6q62 41 64 129z" />
    <glyph glyph-name="acircumflex" unicode="&#xe2;" horiz-adv-x="479" 
d="M371 561q0 -6 -7 -12t-15 -6q-4 0 -8 2q-11 10 -46 38q-31 23 -64 37q-31 -18 -52 -34.5t-41 -38.5q-3 -3 -8 -3q-17 0 -17 14q0 4 4 6q11 7 53 44q28 27 76 68q24 -24 66 -62l57 -48q2 -2 2 -5zM462 32q0 -10 -12.5 -14t-24.5 -4q-6 0 -17.5 1.5t-16.5 1.5
q-24 0 -45 -16q-7 -5 -15 -5q-28 0 -28 31q0 5 2 16t2 16q0 4 -1 8q-23 -35 -52 -53q-32 -13 -64 -13q-20 0 -37 5q-22 6 -34 6h-5.5h-4.5q-20 0 -51 18q-22 22 -30 64q21 106 80 121l44.5 19t60.5 12q47 0 91 -26q11 15 11 40q0 6 -1 19.5t-1 20.5q0 9 1 16
q-23 140 -77 140q-26 0 -49 -19q-24 -25 -32 -64q-3 -27 -7 -54q-2 -13 -13 -13q-14 0 -14 27q0 7 8 52q2 29 2 26q0 10 -4.5 30.5t-4.5 31.5q0 21 15 21q13 0 13 -18v-5q-1 -12 4 -21q27 30 82 30q21 0 51 -5q76 -19 93 -56q9 -20 22 -102q0 -43 -22 -73v-35v-34
q0 -76 -11 -123q0 -7 8 -15q37 7 61 7q23 0 23 -12zM309 168q-16 8 -44 33q-34 23 -65 23q-18 0 -33.5 -9t-43.5 -44q-9 -14 -9 -30q0 -26 34 -78q44 -30 72 -30q13 0 25 6q62 41 64 129z" />
    <glyph glyph-name="adieresis" unicode="&#xe4;" horiz-adv-x="479" 
d="M341 593q0 -34 -31 -34t-31 43q0 38 23 38v0q18 0 28.5 -14.5t10.5 -32.5zM216 588q0 -31 -25 -31q-15 0 -24.5 14t-9.5 30q0 31 26 31q15 0 24 -14t9 -30zM462 32q0 -10 -12.5 -14t-24.5 -4q-6 0 -17.5 1.5t-16.5 1.5q-24 0 -45 -16q-7 -5 -15 -5q-28 0 -28 31q0 5 2 16
t2 16q0 4 -1 8q-23 -35 -52 -53q-32 -13 -64 -13q-20 0 -37 5q-22 6 -34 6h-5.5h-4.5q-20 0 -51 18q-22 22 -30 64q21 106 80 121l44.5 19t60.5 12q47 0 91 -26q11 15 11 40q0 6 -1 19.5t-1 20.5q0 9 1 16q-23 140 -77 140q-26 0 -49 -19q-24 -25 -32 -64q-3 -27 -7 -54
q-2 -13 -13 -13q-14 0 -14 27q0 7 8 52q2 29 2 26q0 10 -4.5 30.5t-4.5 31.5q0 21 15 21q13 0 13 -18v-5q-1 -12 4 -21q27 30 82 30q21 0 51 -5q76 -19 93 -56q9 -20 22 -102q0 -43 -22 -73v-35v-34q0 -76 -11 -123q0 -7 8 -15q37 7 61 7q23 0 23 -12zM309 168q-16 8 -44 33
q-34 23 -65 23q-18 0 -33.5 -9t-43.5 -44q-9 -14 -9 -30q0 -26 34 -78q44 -30 72 -30q13 0 25 6q62 41 64 129z" />
    <glyph glyph-name="atilde" unicode="&#xe3;" horiz-adv-x="479" 
d="M385 614q-2 -21 -13 -40q-11 -22 -27 -26q-9 -3 -18 -3q-28 0 -69 33.5t-58 33.5q-11 0 -27.5 -11.5t-16.5 -22.5q0 -2 1.5 -6t1.5 -5v-1q-2 -8 -12 -8t-13 6t-3 13q0 4 1 10q6 16 25 34.5t36 24.5q12 4 23 4q27 0 62 -35t57 -38q20 7 26 24q2 3 2 5t-3 6t-3 6v2
q-1 11 10 11q4 0 7 -2q4 -6 11 -15zM462 32q0 -10 -12.5 -14t-24.5 -4q-6 0 -17.5 1.5t-16.5 1.5q-24 0 -45 -16q-7 -5 -15 -5q-28 0 -28 31q0 5 2 16t2 16q0 4 -1 8q-23 -35 -52 -53q-32 -13 -64 -13q-20 0 -37 5q-22 6 -34 6h-5.5h-4.5q-20 0 -51 18q-22 22 -30 64
q21 106 80 121l44.5 19t60.5 12q47 0 91 -26q11 15 11 40q0 6 -1 19.5t-1 20.5q0 9 1 16q-23 140 -77 140q-26 0 -49 -19q-24 -25 -32 -64q-3 -27 -7 -54q-2 -13 -13 -13q-14 0 -14 27q0 7 8 52q2 29 2 26q0 10 -4.5 30.5t-4.5 31.5q0 21 15 21q13 0 13 -18v-5q-1 -12 4 -21
q27 30 82 30q21 0 51 -5q76 -19 93 -56q9 -20 22 -102q0 -43 -22 -73v-35v-34q0 -76 -11 -123q0 -7 8 -15q37 7 61 7q23 0 23 -12zM309 168q-16 8 -44 33q-34 23 -65 23q-18 0 -33.5 -9t-43.5 -44q-9 -14 -9 -30q0 -26 34 -78q44 -30 72 -30q13 0 25 6q62 41 64 129z" />
    <glyph glyph-name="aring" unicode="&#xe5;" horiz-adv-x="479" 
d="M336 610q0 -33 -23 -55.5t-55 -22.5q-33 0 -56.5 22.5t-23.5 55.5t23.5 56t56.5 23q32 0 55 -23t23 -56zM462 32q0 -10 -12.5 -14t-24.5 -4q-6 0 -17.5 1.5t-16.5 1.5q-24 0 -45 -16q-7 -5 -15 -5q-28 0 -28 31q0 5 2 16t2 16q0 4 -1 8q-23 -35 -52 -53q-32 -13 -64 -13
q-20 0 -37 5q-22 6 -34 6h-5.5h-4.5q-20 0 -51 18q-22 22 -30 64q21 106 80 121l44.5 19t60.5 12q47 0 91 -26q11 15 11 40q0 6 -1 19.5t-1 20.5q0 9 1 16q-23 140 -77 140q-26 0 -49 -19q-24 -25 -32 -64q-3 -27 -7 -54q-2 -13 -13 -13q-14 0 -14 27q0 7 8 52q2 29 2 26
q0 10 -4.5 30.5t-4.5 31.5q0 21 15 21q13 0 13 -18v-5q-1 -12 4 -21q27 30 82 30q21 0 51 -5q76 -19 93 -56q9 -20 22 -102q0 -43 -22 -73v-35v-34q0 -76 -11 -123q0 -7 8 -15q37 7 61 7q23 0 23 -12zM310 610q0 21 -16 37t-36 16q-22 0 -38 -16t-16 -37q0 -20 16 -36
t38 -16q20 0 36 16t16 36zM309 168q-16 8 -44 33q-34 23 -65 23q-18 0 -33.5 -9t-43.5 -44q-9 -14 -9 -30q0 -26 34 -78q44 -30 72 -30q13 0 25 6q62 41 64 129z" />
    <glyph glyph-name="ccedilla" unicode="&#xe7;" horiz-adv-x="444" 
d="M429 583q0 -25 -15.5 -92t-15.5 -103q0 -11 2 -34t2 -35q0 -27 -14 -27q-12 0 -16 16q-2 9 -2 18q0 7 1.5 21t1.5 22v7q-1 4 -10 24q-8 17 -8 28q0 27 -20 52.5t-47 25.5q-14 0 -36 -6q-7 -10 -20 -18q-17 -10 -22 -14q-8 -13 -26 -33q-15 -9 -16 -34q-1 -29 -6 -37
q-15 -21 -15 -50v-8q0 -17 -4 -28q-1 -20 -1 -37q0 -82 30 -142q30 -87 90 -89h2q14 -1 39 16q22 15 28 26q19 34 20 63v2v9q-1 6 -1 11q0 36 16 36t16 -25t-8.5 -59.5t-18.5 -49.5q-15 -36 -56 -48q-27 -8 -56 -8q0 -4 -3 -13t-3 -16q0 -18 46 -35q30 -11 30 -39t-31 -45
q-47 -25 -85 -25q-14 0 -14 12q0 7 8 9q42 9 57.5 21.5t15.5 26.5q0 15 -20 25q-36 18 -36 39q0 10 3.5 23t3.5 18q-40 3 -71 27q-26 20 -37 38l-21 35q-26 39 -26 73v7.5v6.5q0 9 -2 25t-2 25q0 5 1 11q-2 10 -2 20q0 24 9 56q7 26 15 53q20 80 151 156q29 10 63 10
q59 0 90 -31q9 14 11.5 48t9 43.5t15.5 9.5q10 0 10 -14z" />
    <glyph glyph-name="eacute" unicode="&#xe9;" horiz-adv-x="430" 
d="M398 707q0 -12 -11 -17q-43 -15 -109 -42l-72 -36q-4 -2 -9 -2q-16 0 -16 14q0 7 7 12l57 28l110 73q6 4 13 4q12 0 21 -11t9 -23zM425 357q0 -16 -52 -16q-25 0 -35 5q-24 0 -63 -5q-51 0 -110 -8q-6 -54 -6 -71v-13q4 -19 4 -45q0 -10 -1 -30v-30q0 -46 12 -70
q13 -72 46 -88q40 3 56 46q6 15 8 43t9 41q4 9 15 9q14 0 14 -12v-3q1 -21 -14 -64.5t-31 -61.5q-33 -28 -51 -28t-42.5 8.5t-33.5 16.5q-73 92 -73 283q0 9 5.5 27.5t5.5 26.5t-4 14q-9 0 -26.5 -3.5t-27.5 -3.5q-18 0 -18 15q0 11 12 13q6 1 14 1h15q10 -1 14 -1
q13 0 22 4q38 139 150 199q21 11 41 11h2q96 -1 120 -63q14 -37 14 -58v-9v-9q0 -13 4.5 -37.5t4.5 -33.5zM341 376q-15 38 -15 60q0 3 1 9v8q0 10 -4 22q-8 17 -8 18q-14 50 -39 50q-45 0 -71 -58q-3 -22 -19.5 -62.5t-19.5 -61.5q4 -1 12 -1q9 0 32 2t30 2h3q46 4 98 12z
" />
    <glyph glyph-name="egrave" unicode="&#xe8;" horiz-adv-x="430" 
d="M388 622q0 -14 -16 -14q-5 0 -9 2q-20 11 -72 36l-109 42q-11 5 -11 17t9 23t21 11q7 0 13 -4q33 -24 110 -73q20 -8 57 -28q7 -5 7 -12zM425 357q0 -16 -52 -16q-25 0 -35 5q-24 0 -63 -5q-51 0 -110 -8q-6 -54 -6 -71v-13q4 -19 4 -45q0 -10 -1 -30v-30q0 -46 12 -70
q13 -72 46 -88q40 3 56 46q6 15 8 43t9 41q4 9 15 9q14 0 14 -12v-3q1 -21 -14 -64.5t-31 -61.5q-33 -28 -51 -28t-42.5 8.5t-33.5 16.5q-73 92 -73 283q0 9 5.5 27.5t5.5 26.5t-4 14q-9 0 -26.5 -3.5t-27.5 -3.5q-18 0 -18 15q0 11 12 13q6 1 14 1h15q10 -1 14 -1
q13 0 22 4q38 139 150 199q21 11 41 11h2q96 -1 120 -63q14 -37 14 -58v-9v-9q0 -13 4.5 -37.5t4.5 -33.5zM341 376q-15 38 -15 60q0 3 1 9v8q0 10 -4 22q-8 17 -8 18q-14 50 -39 50q-45 0 -71 -58q-3 -22 -19.5 -62.5t-19.5 -61.5q4 -1 12 -1q9 0 32 2t30 2h3q46 4 98 12z
" />
    <glyph glyph-name="ecircumflex" unicode="&#xea;" horiz-adv-x="430" 
d="M400 636q0 -6 -7 -12t-15 -6q-4 0 -8 2q-11 10 -46 38q-31 23 -64 37q-31 -18 -52 -34.5t-41 -38.5q-3 -3 -8 -3q-17 0 -17 14q0 4 4 6q11 7 53 44q28 27 76 68q24 -24 66 -62l57 -48q2 -2 2 -5zM425 357q0 -16 -52 -16q-25 0 -35 5q-24 0 -63 -5q-51 0 -110 -8
q-6 -54 -6 -71v-13q4 -19 4 -45q0 -10 -1 -30v-30q0 -46 12 -70q13 -72 46 -88q40 3 56 46q6 15 8 43t9 41q4 9 15 9q14 0 14 -12v-3q1 -21 -14 -64.5t-31 -61.5q-33 -28 -51 -28t-42.5 8.5t-33.5 16.5q-73 92 -73 283q0 9 5.5 27.5t5.5 26.5t-4 14q-9 0 -26.5 -3.5
t-27.5 -3.5q-18 0 -18 15q0 11 12 13q6 1 14 1h15q10 -1 14 -1q13 0 22 4q38 139 150 199q21 11 41 11h2q96 -1 120 -63q14 -37 14 -58v-9v-9q0 -13 4.5 -37.5t4.5 -33.5zM341 376q-15 38 -15 60q0 3 1 9v8q0 10 -4 22q-8 17 -8 18q-14 50 -39 50q-45 0 -71 -58
q-3 -22 -19.5 -62.5t-19.5 -61.5q4 -1 12 -1q9 0 32 2t30 2h3q46 4 98 12z" />
    <glyph glyph-name="edieresis" unicode="&#xeb;" horiz-adv-x="430" 
d="M364 655q0 -34 -31 -34t-31 43q0 38 23 38v0q18 0 28.5 -14.5t10.5 -32.5zM239 650q0 -31 -25 -31q-15 0 -24.5 14t-9.5 30q0 31 26 31q15 0 24 -14t9 -30zM425 357q0 -16 -52 -16q-25 0 -35 5q-24 0 -63 -5q-51 0 -110 -8q-6 -54 -6 -71v-13q4 -19 4 -45q0 -10 -1 -30
v-30q0 -46 12 -70q13 -72 46 -88q40 3 56 46q6 15 8 43t9 41q4 9 15 9q14 0 14 -12v-3q1 -21 -14 -64.5t-31 -61.5q-33 -28 -51 -28t-42.5 8.5t-33.5 16.5q-73 92 -73 283q0 9 5.5 27.5t5.5 26.5t-4 14q-9 0 -26.5 -3.5t-27.5 -3.5q-18 0 -18 15q0 11 12 13q6 1 14 1h15
q10 -1 14 -1q13 0 22 4q38 139 150 199q21 11 41 11h2q96 -1 120 -63q14 -37 14 -58v-9v-9q0 -13 4.5 -37.5t4.5 -33.5zM341 376q-15 38 -15 60q0 3 1 9v8q0 10 -4 22q-8 17 -8 18q-14 50 -39 50q-45 0 -71 -58q-3 -22 -19.5 -62.5t-19.5 -61.5q4 -1 12 -1q9 0 32 2t30 2h3
q46 4 98 12z" />
    <glyph glyph-name="iacute" unicode="&#xed;" horiz-adv-x="309" 
d="M264 578q0 -12 -11 -17q-43 -15 -109 -42l-72 -36q-4 -2 -9 -2q-16 0 -16 14q0 7 7 12l57 28l110 73q6 4 13 4q12 0 21 -11t9 -23zM296 40q0 -14 -33 -14q-11 0 -42 2.5t-49 2.5h-5q-7 0 -18 -3t-17 -3h-8q-6 1 -9 1q-14 0 -36 -7t-35 -7q-22 0 -22 12q0 7 9 13.5t43 9
t49 10.5q6 87 6 176q0 88 -6 122q-4 22 -27 22h-5q-8 0 -25 -3t-26 -3q-24 0 -24 13q0 9 25 15q19 4 34 4h11q7 -1 11 -1q6 0 17 1t16 1t13 -1t12 -1q25 0 52 18q4 1 8 1q15 0 17 -20q-18 -37 -22 -90l-4 -97q-6 -16 -6 -33q0 -13 5 -38.5t5 -38.5q0 -15 -4 -28
q0 -14 9 -18.5t19 -4.5q6 0 16.5 1.5t16.5 1.5q29 0 29 -16z" />
    <glyph glyph-name="igrave" unicode="&#xec;" horiz-adv-x="309" 
d="M255 491q0 -14 -16 -14q-5 0 -9 2q-20 11 -72 36l-109 42q-11 5 -11 17t9 23t21 11q7 0 13 -4q33 -24 110 -73q20 -8 57 -28q7 -5 7 -12zM296 40q0 -14 -33 -14q-11 0 -42 2.5t-49 2.5h-5q-7 0 -18 -3t-17 -3h-8q-6 1 -9 1q-14 0 -36 -7t-35 -7q-22 0 -22 12q0 7 9 13.5
t43 9t49 10.5q6 87 6 176q0 88 -6 122q-4 22 -27 22h-5q-8 0 -25 -3t-26 -3q-24 0 -24 13q0 9 25 15q19 4 34 4h11q7 -1 11 -1q6 0 17 1t16 1t13 -1t12 -1q25 0 52 18q4 1 8 1q15 0 17 -20q-18 -37 -22 -90l-4 -97q-6 -16 -6 -33q0 -13 5 -38.5t5 -38.5q0 -15 -4 -28
q0 -14 9 -18.5t19 -4.5q6 0 16.5 1.5t16.5 1.5q29 0 29 -16z" />
    <glyph glyph-name="icircumflex" unicode="&#xee;" horiz-adv-x="309" 
d="M278 489q0 -6 -7 -12t-15 -6q-4 0 -8 2q-11 10 -46 38q-31 23 -64 37q-31 -18 -52 -34.5t-41 -38.5q-3 -3 -8 -3q-17 0 -17 14q0 4 4 6q11 7 53 44q28 27 76 68q24 -24 66 -62l57 -48q2 -2 2 -5zM296 40q0 -14 -33 -14q-11 0 -42 2.5t-49 2.5h-5q-7 0 -18 -3t-17 -3h-8
q-6 1 -9 1q-14 0 -36 -7t-35 -7q-22 0 -22 12q0 7 9 13.5t43 9t49 10.5q6 87 6 176q0 88 -6 122q-4 22 -27 22h-5q-8 0 -25 -3t-26 -3q-24 0 -24 13q0 9 25 15q19 4 34 4h11q7 -1 11 -1q6 0 17 1t16 1t13 -1t12 -1q25 0 52 18q4 1 8 1q15 0 17 -20q-18 -37 -22 -90l-4 -97
q-6 -16 -6 -33q0 -13 5 -38.5t5 -38.5q0 -15 -4 -28q0 -14 9 -18.5t19 -4.5q6 0 16.5 1.5t16.5 1.5q29 0 29 -16z" />
    <glyph glyph-name="idieresis" unicode="&#xef;" horiz-adv-x="309" 
d="M247 523q0 -34 -31 -34t-31 43q0 38 23 38v0q18 0 28.5 -14.5t10.5 -32.5zM122 518q0 -31 -25 -31q-15 0 -24.5 14t-9.5 30q0 31 26 31q15 0 24 -14t9 -30zM296 40q0 -14 -33 -14q-11 0 -42 2.5t-49 2.5h-5q-7 0 -18 -3t-17 -3h-8q-6 1 -9 1q-14 0 -36 -7t-35 -7
q-22 0 -22 12q0 7 9 13.5t43 9t49 10.5q6 87 6 176q0 88 -6 122q-4 22 -27 22h-5q-8 0 -25 -3t-26 -3q-24 0 -24 13q0 9 25 15q19 4 34 4h11q7 -1 11 -1q6 0 17 1t16 1t13 -1t12 -1q25 0 52 18q4 1 8 1q15 0 17 -20q-18 -37 -22 -90l-4 -97q-6 -16 -6 -33q0 -13 5 -38.5
t5 -38.5q0 -15 -4 -28q0 -14 9 -18.5t19 -4.5q6 0 16.5 1.5t16.5 1.5q29 0 29 -16z" />
    <glyph glyph-name="ntilde" unicode="&#xf1;" horiz-adv-x="569" 
d="M423 597q-2 -21 -13 -40q-11 -22 -27 -26q-9 -3 -18 -3q-28 0 -69 33.5t-58 33.5q-11 0 -27.5 -11.5t-16.5 -22.5q0 -2 1.5 -6t1.5 -5v-1q-2 -8 -12 -8t-13 6t-3 13q0 4 1 10q6 16 25 34.5t36 24.5q12 4 23 4q27 0 62 -35t57 -38q20 7 26 24q2 3 2 5t-3 6t-3 6v2
q-1 11 10 11q4 0 7 -2q4 -6 11 -15zM569 47q0 -2 -1 -4q-10 -13 -28.5 -23l-35.5 -19l-46 -34q-33 -25 -51 -30q-32 -18 -66 -54q-3 -1 -10 -5.5t-12 -4.5q-10 0 -10 12q0 7 14 19.5t15 22.5q20 19 41 30l8 9q17 91 17 194q0 99 -16 171q-3 31 -6.5 63.5t-28.5 48.5
q-21 3 -32 3q-17 0 -37 -6l-58 -58q-30 -37 -30 -78v-7q-7 -22 -9 -106q0 -1 3 -21t3 -28q5 -18 6 -58q1 -36 10 -58q7 -4 17 -4q5 0 15.5 1.5t14.5 1.5q18 0 18 -13q0 -5 -5 -9.5t-17 -4.5q-5 0 -19.5 1.5t-21.5 1.5q-12 0 -34 -4t-38 -4q-4 0 -13 1h-13q-19 0 -39 -6
t-32 -6q-15 0 -15 12q0 15 29 19q13 1 28 2.5t22 10.5v17q0 37 5 110.5t5 110.5v36q-1 23 -1 35q0 20 1 35l-6 32.5t-20 22.5q-19 -5 -35 -5q-12 0 -27 3q-7 1 -7 10q0 18 18 18q5 0 14.5 -2.5t15.5 -2.5q3 0 8 2.5t16 2.5q8 0 27 -3t27 -3q13 0 18 5t21 5q21 0 21 -21v-7
q-1 -6 -1 -8q0 -10 2 -16q12 5 31.5 29t36.5 31q56 15 77 15q34 0 69 -25q30 -22 50 -54q3 -19 20 -61q2 -3 2 -11q0 -9 -3 -28q-4 -22 -4 -26q-7 -93 -7 -78q0 -10 1.5 -29.5t1.5 -29.5v-27q-1 -18 -1 -28q0 -34 5 -57q3 -2 7 -2q7 0 16 11.5t15 13.5q18 11 32 11
q12 0 12 -11z" />
    <glyph glyph-name="oacute" unicode="&#xf3;" 
d="M340 588q0 -12 -11 -17q-43 -15 -109 -42l-72 -36q-4 -2 -9 -2q-16 0 -16 14q0 7 7 12l57 28l110 73q6 4 13 4q12 0 21 -11t9 -23zM430 282q0 -56 -15 -84q-13 -23 -18 -44q-14 -51 -72 -121q-12 -8 -39.5 -29.5t-70.5 -22.5h-5q-20 -1 -70 22q-13 5 -25.5 10.5
t-21.5 15.5q-60 70 -60 160q0 55 23 125q24 53 127 126q21 15 60 15q20 0 39 -5l60 -16q32 -11 44 -22q44 -41 44 -130zM342 255q0 27 -10 43q-5 8 -8.5 32t-5.5 28q-19 47 -55 71q-12 4 -25 4q-42 0 -85 -51q-2 -6 -13 -35q-9 -20 -9 -34q0 -9 3 -18q0 -24 -7 -71
q-4 -11 -4 -23q0 -25 17 -55q19 -113 78 -138q6 -1 12 -1q33 0 67 34q9 9 22 42q15 39 14 66v4v6q0 14 4.5 47t4.5 49z" />
    <glyph glyph-name="ograve" unicode="&#xf2;" 
d="M360 505q0 -14 -16 -14q-5 0 -9 2q-20 11 -72 36l-109 42q-11 5 -11 17t9 23t21 11q7 0 13 -4q33 -24 110 -73q20 -8 57 -28q7 -5 7 -12zM430 282q0 -56 -15 -84q-13 -23 -18 -44q-14 -51 -72 -121q-12 -8 -39.5 -29.5t-70.5 -22.5h-5q-20 -1 -70 22q-13 5 -25.5 10.5
t-21.5 15.5q-60 70 -60 160q0 55 23 125q24 53 127 126q21 15 60 15q20 0 39 -5l60 -16q32 -11 44 -22q44 -41 44 -130zM342 255q0 27 -10 43q-5 8 -8.5 32t-5.5 28q-19 47 -55 71q-12 4 -25 4q-42 0 -85 -51q-2 -6 -13 -35q-9 -20 -9 -34q0 -9 3 -18q0 -24 -7 -71
q-4 -11 -4 -23q0 -25 17 -55q19 -113 78 -138q6 -1 12 -1q33 0 67 34q9 9 22 42q15 39 14 66v4v6q0 14 4.5 47t4.5 49z" />
    <glyph glyph-name="ocircumflex" unicode="&#xf4;" 
d="M366 516q0 -6 -7 -12t-15 -6q-4 0 -8 2q-11 10 -46 38q-31 23 -64 37q-31 -18 -52 -34.5t-41 -38.5q-3 -3 -8 -3q-17 0 -17 14q0 4 4 6q11 7 53 44q28 27 76 68q24 -24 66 -62l57 -48q2 -2 2 -5zM430 282q0 -56 -15 -84q-13 -23 -18 -44q-14 -51 -72 -121
q-12 -8 -39.5 -29.5t-70.5 -22.5h-5q-20 -1 -70 22q-13 5 -25.5 10.5t-21.5 15.5q-60 70 -60 160q0 55 23 125q24 53 127 126q21 15 60 15q20 0 39 -5l60 -16q32 -11 44 -22q44 -41 44 -130zM342 255q0 27 -10 43q-5 8 -8.5 32t-5.5 28q-19 47 -55 71q-12 4 -25 4
q-42 0 -85 -51q-2 -6 -13 -35q-9 -20 -9 -34q0 -9 3 -18q0 -24 -7 -71q-4 -11 -4 -23q0 -25 17 -55q19 -113 78 -138q6 -1 12 -1q33 0 67 34q9 9 22 42q15 39 14 66v4v6q0 14 4.5 47t4.5 49z" />
    <glyph glyph-name="odieresis" unicode="&#xf6;" 
d="M327 543q0 -34 -31 -34t-31 43q0 38 23 38v0q18 0 28.5 -14.5t10.5 -32.5zM202 538q0 -31 -25 -31q-15 0 -24.5 14t-9.5 30q0 31 26 31q15 0 24 -14t9 -30zM430 282q0 -56 -15 -84q-13 -23 -18 -44q-14 -51 -72 -121q-12 -8 -39.5 -29.5t-70.5 -22.5h-5q-20 -1 -70 22
q-13 5 -25.5 10.5t-21.5 15.5q-60 70 -60 160q0 55 23 125q24 53 127 126q21 15 60 15q20 0 39 -5l60 -16q32 -11 44 -22q44 -41 44 -130zM342 255q0 27 -10 43q-5 8 -8.5 32t-5.5 28q-19 47 -55 71q-12 4 -25 4q-42 0 -85 -51q-2 -6 -13 -35q-9 -20 -9 -34q0 -9 3 -18
q0 -24 -7 -71q-4 -11 -4 -23q0 -25 17 -55q19 -113 78 -138q6 -1 12 -1q33 0 67 34q9 9 22 42q15 39 14 66v4v6q0 14 4.5 47t4.5 49z" />
    <glyph glyph-name="otilde" unicode="&#xf5;" 
d="M377 571q-2 -21 -13 -40q-11 -22 -27 -26q-9 -3 -18 -3q-28 0 -69 33.5t-58 33.5q-11 0 -27.5 -11.5t-16.5 -22.5q0 -2 1.5 -6t1.5 -5v-1q-2 -8 -12 -8t-13 6t-3 13q0 4 1 10q6 16 25 34.5t36 24.5q12 4 23 4q27 0 62 -35t57 -38q20 7 26 24q2 3 2 5t-3 6t-3 6v2
q-1 11 10 11q4 0 7 -2q4 -6 11 -15zM430 282q0 -56 -15 -84q-13 -23 -18 -44q-14 -51 -72 -121q-12 -8 -39.5 -29.5t-70.5 -22.5h-5q-20 -1 -70 22q-13 5 -25.5 10.5t-21.5 15.5q-60 70 -60 160q0 55 23 125q24 53 127 126q21 15 60 15q20 0 39 -5l60 -16q32 -11 44 -22
q44 -41 44 -130zM342 255q0 27 -10 43q-5 8 -8.5 32t-5.5 28q-19 47 -55 71q-12 4 -25 4q-42 0 -85 -51q-2 -6 -13 -35q-9 -20 -9 -34q0 -9 3 -18q0 -24 -7 -71q-4 -11 -4 -23q0 -25 17 -55q19 -113 78 -138q6 -1 12 -1q33 0 67 34q9 9 22 42q15 39 14 66v4v6q0 14 4.5 47
t4.5 49z" />
    <glyph glyph-name="uacute" unicode="&#xfa;" horiz-adv-x="559" 
d="M391 583q0 -3 -1 -5l-122 -51q-21 -10 -76 -39q-8 0 -15.5 6.5t-7.5 12.5l66 36q23 11 55 35q45 33 63 44q14 -4 26 -16.5t12 -22.5zM539 -28q0 -7 -6 -16q-4 -5 -21 -15q-12 -6 -24 -13q-25 -28 -36 -39q-27 -25 -43 -26q-2 -1 -40 -37q-29 -27 -42 -27t-13 12q0 6 4 12
q8 11 44 36q33 23 38 38q2 64 11 195q-35 -102 -126 -125q-26 -7 -52 -7q-80 0 -118 55q-18 25 -22 58l-4 46q-3 19 -3 38q0 37 13 103.5t13 100.5v9q-9 3 -22 3q-9 0 -28 -2t-28 -2q-32 0 -32 16q0 17 31 17q8 0 21.5 -3t18.5 -3q8 0 22.5 2t22.5 2h8.5h8.5q9 0 24 2t19 2
q13 0 16 -10q4 -14 4 -28q0 -20 -11 -58.5t-11 -59.5q0 -6 1.5 -19t1.5 -19q0 -19 -6 -53.5t-6 -48.5q0 -22 8 -37q20 -39 21 -39q15 -24 39 -37q12 -4 27 -4q46 0 80 34q37 38 56 110q17 59 17 118q0 10 -1 19q-3 18 -4 71q-2 43 -10 71q-8 0 -24.5 -1.5t-24.5 -1.5
q-17 0 -30.5 4.5t-13.5 13.5q0 17 23 17l38 -6q13 -2 22 -2q13 0 28 3q36 7 62 7q18 0 18 -17q0 -4 -5.5 -16t-5.5 -20v-3q-9 -32 -16 -89q-8 -64 -13 -87q0 -21 -3 -73q-3 -46 -3 -72q0 -71 16 -124q6 3 29 22q19 15 29 15q13 0 13 -12z" />
    <glyph glyph-name="ugrave" unicode="&#xf9;" horiz-adv-x="559" 
d="M382 527q0 -6 -7 -12.5t-15 -6.5q-14 8 -75 39l-123 51q-1 3 -1 6q0 10 11.5 22t24.5 16q40 -29 121 -79zM539 -28q0 -7 -6 -16q-4 -5 -21 -15q-12 -6 -24 -13q-25 -28 -36 -39q-27 -25 -43 -26q-2 -1 -40 -37q-29 -27 -42 -27t-13 12q0 6 4 12q8 11 44 36q33 23 38 38
q2 64 11 195q-35 -102 -126 -125q-26 -7 -52 -7q-80 0 -118 55q-18 25 -22 58l-4 46q-3 19 -3 38q0 37 13 103.5t13 100.5v9q-9 3 -22 3q-9 0 -28 -2t-28 -2q-32 0 -32 16q0 17 31 17q8 0 21.5 -3t18.5 -3q8 0 22.5 2t22.5 2h8.5h8.5q9 0 24 2t19 2q13 0 16 -10q4 -14 4 -28
q0 -20 -11 -58.5t-11 -59.5q0 -6 1.5 -19t1.5 -19q0 -19 -6 -53.5t-6 -48.5q0 -22 8 -37q20 -39 21 -39q15 -24 39 -37q12 -4 27 -4q46 0 80 34q37 38 56 110q17 59 17 118q0 10 -1 19q-3 18 -4 71q-2 43 -10 71q-8 0 -24.5 -1.5t-24.5 -1.5q-17 0 -30.5 4.5t-13.5 13.5
q0 17 23 17l38 -6q13 -2 22 -2q13 0 28 3q36 7 62 7q18 0 18 -17q0 -4 -5.5 -16t-5.5 -20v-3q-9 -32 -16 -89q-8 -64 -13 -87q0 -21 -3 -73q-3 -46 -3 -72q0 -71 16 -124q6 3 29 22q19 15 29 15q13 0 13 -12z" />
    <glyph glyph-name="ucircumflex" unicode="&#xfb;" horiz-adv-x="559" 
d="M401 518q-18 -20 -28 -20l-53 40q-31 23 -64 37q-30 -17 -51 -35q-2 -1 -47 -41h-1q-15 -1 -20 16q15 10 59 49l75 67q24 -24 65 -61zM539 -28q0 -7 -6 -16q-4 -5 -21 -15q-12 -6 -24 -13q-25 -28 -36 -39q-27 -25 -43 -26q-2 -1 -40 -37q-29 -27 -42 -27t-13 12
q0 6 4 12q8 11 44 36q33 23 38 38q2 64 11 195q-35 -102 -126 -125q-26 -7 -52 -7q-80 0 -118 55q-18 25 -22 58l-4 46q-3 19 -3 38q0 37 13 103.5t13 100.5v9q-9 3 -22 3q-9 0 -28 -2t-28 -2q-32 0 -32 16q0 17 31 17q8 0 21.5 -3t18.5 -3q8 0 22.5 2t22.5 2h8.5h8.5
q9 0 24 2t19 2q13 0 16 -10q4 -14 4 -28q0 -20 -11 -58.5t-11 -59.5q0 -6 1.5 -19t1.5 -19q0 -19 -6 -53.5t-6 -48.5q0 -22 8 -37q20 -39 21 -39q15 -24 39 -37q12 -4 27 -4q46 0 80 34q37 38 56 110q17 59 17 118q0 10 -1 19q-3 18 -4 71q-2 43 -10 71q-8 0 -24.5 -1.5
t-24.5 -1.5q-17 0 -30.5 4.5t-13.5 13.5q0 17 23 17l38 -6q13 -2 22 -2q13 0 28 3q36 7 62 7q18 0 18 -17q0 -4 -5.5 -16t-5.5 -20v-3q-9 -32 -16 -89q-8 -64 -13 -87q0 -21 -3 -73q-3 -46 -3 -72q0 -71 16 -124q6 3 29 22q19 15 29 15q13 0 13 -12z" />
    <glyph glyph-name="udieresis" unicode="&#xfc;" horiz-adv-x="559" 
d="M368 547q0 -34 -31 -34t-31 43q0 38 23 38v0q18 0 28.5 -14.5t10.5 -32.5zM243 542q0 -31 -25 -31q-15 0 -24.5 14t-9.5 30q0 31 26 31q15 0 24 -14t9 -30zM539 -28q0 -7 -6 -16q-4 -5 -21 -15q-12 -6 -24 -13q-25 -28 -36 -39q-27 -25 -43 -26q-2 -1 -40 -37
q-29 -27 -42 -27t-13 12q0 6 4 12q8 11 44 36q33 23 38 38q2 64 11 195q-35 -102 -126 -125q-26 -7 -52 -7q-80 0 -118 55q-18 25 -22 58l-4 46q-3 19 -3 38q0 37 13 103.5t13 100.5v9q-9 3 -22 3q-9 0 -28 -2t-28 -2q-32 0 -32 16q0 17 31 17q8 0 21.5 -3t18.5 -3
q8 0 22.5 2t22.5 2h8.5h8.5q9 0 24 2t19 2q13 0 16 -10q4 -14 4 -28q0 -20 -11 -58.5t-11 -59.5q0 -6 1.5 -19t1.5 -19q0 -19 -6 -53.5t-6 -48.5q0 -22 8 -37q20 -39 21 -39q15 -24 39 -37q12 -4 27 -4q46 0 80 34q37 38 56 110q17 59 17 118q0 10 -1 19q-3 18 -4 71
q-2 43 -10 71q-8 0 -24.5 -1.5t-24.5 -1.5q-17 0 -30.5 4.5t-13.5 13.5q0 17 23 17l38 -6q13 -2 22 -2q13 0 28 3q36 7 62 7q18 0 18 -17q0 -4 -5.5 -16t-5.5 -20v-3q-9 -32 -16 -89q-8 -64 -13 -87q0 -21 -3 -73q-3 -46 -3 -72q0 -71 16 -124q6 3 29 22q19 15 29 15
q13 0 13 -12z" />
    <glyph glyph-name="cent" unicode="&#xa2;" horiz-adv-x="401" 
d="M362 178q0 -7 -3 -16q-12 -37 -42 -63q-26 -22 -76 -39q-2 -17 -2 -43q0 -18 1 -49q2 -36 2 -49q0 -12 -17 -12q-12 0 -12 8q-3 96 -3 145q-92 14 -133 80q-31 49 -31 104q0 68 48 140q36 44 131 90q3 16 3 38q0 11 -1 31.5t-1 30.5q0 40 13 40q18 0 17 -10v-1
q-2 -29 -2 -39q0 -46 4 -83q80 -7 100 -39q-1 -5 -1 -11q0 -3 1 -10v-10q0 -16 -14 -25q-32 3 -57 47q-3 12 -31 19q-2 -9 -2 -21q0 -5 1 -15v-14v-2q0 -26 -14 -312q2 -1 4 -1q16 0 43 25q21 15 43 70q7 16 17 16q14 0 14 -20zM227 436q0 7 -1 11q-49 -21 -79 -64
q-34 -48 -34 -113q0 -56 24 -106q27 -60 73 -74q15 250 15 306q0 5 1 19t1 21z" />
    <glyph glyph-name="sterling" unicode="&#xa3;" horiz-adv-x="574" 
d="M578 46q0 -3 -1 -6q-28 -63 -30 -65q-29 -46 -74 -45h-4q-16 -3 -32 -3q-39 0 -94 19q-130 44 -203 44q-16 0 -32 -1t-44 -12.5t-37 -11.5q-15 0 -15 14q0 6 6.5 12.5t56.5 17.5q17 4 45 6q11 41 13 93q0 8 2.5 26t2.5 28q0 7 -4 21t-4.5 21t-0.5 20v7v19q-6 0 -19 -2
q-16 -2 -20 -2t-17.5 -3t-25.5 -3h-4q-12 0 -12 14t12 16q6 1 14 1q5 0 13 -1h11q25 0 47 2q-1 24 -1 47q0 71 9 119q11 58 47 111q40 58 92 81q34 15 59 15q22 0 43 -11q53 -28 99 -100q18 -28 18 -53q0 -30 -25 -54q-20 -19 -49 -19q-21 0 -39 10q-36 20 -36 48q0 7 3 13
q12 27 30 27q11 0 11 -14q0 -6 -3 -18t-3 -18q0 -25 36 -25q23 0 30.5 13t7.5 31q0 39 -29 79q-26 37 -63 56q-19 10 -40 10q-19 0 -38 -8q-46 -19 -68 -71q-12 -29 -25 -106q-2 -11 -2 -26q0 -25 6 -70q7 -56 8 -63q35 2 45 2h6.5h7.5q10 0 24.5 3t24.5 3q6 0 12 -1
q13 -1 13 -14q0 -16 -34 -16q-10 0 -30 1.5t-30 1.5q-14 0 -35 -1q1 -15 1 -39q0 -63 -4 -94q-9 -65 -44 -108l48 -3q83 -5 115 -12q89 -19 114 -19q30 0 60 9q4 -1 8 -1q12 0 31 27q5 8 8 24q3 13 10 18q3 2 7 2q14 0 14 -13z" />
    <glyph glyph-name="bullet" unicode="&#x2022;" horiz-adv-x="377" 
d="M308 259q-1 -31 -19 -56l-36 -41q-11 -18 -46 -24q-13 -2 -23 -2q-29 0 -61 19q-17 10 -29 44q-12 31 -12 58q0 10 2 16q7 47 64 74q13 14 49 14q15 0 41.5 -3t45.5 -26q11 -18 16 -38q7 -31 8 -35z" />
    <glyph glyph-name="germandbls" unicode="&#xdf;" horiz-adv-x="662" 
d="M589 217q0 -51 -25 -83q-1 -24 -21.5 -42.5l-42.5 -37.5q-82 -80 -151 -80q-29 0 -62 10q-10 3 -16 10q-48 52 -53 89q16 104 65 117q32 9 59 9q61 0 77 -33q4 -8 4 -19q0 -5 -1.5 -16t-1.5 -16q-29 -46 -69 -46q-25 0 -25 18q0 9 14 20q16 -5 25 -5q17 0 25 19
q0 6 3 15.5t3 14.5q0 26 -31 26q-9 0 -26 -3.5t-24 -3.5q-14 -1 -47 -42q-5 -62 -5 -56q0 -32 17 -57q9 -13 24 -18.5t31 -10.5q40 7 56 11q26 8 45 25q30 26 42 52q27 60 27 106q0 35 -12.5 74.5l-24.5 77.5q-20 37 -67 37q-18 0 -52.5 -8t-48.5 -8q-39 0 -39 20
q0 15 18 23q5 1 10 1h10q7 -1 11 -1q57 0 101 39q38 72 38 155q0 41 -13 69q-21 44 -61 62q-12 1 -22 1q-83 0 -124 -59q-21 -30 -30 -85q-11 -61 -22 -82q8 -17 8 -45q0 -22 -6.5 -69t-6.5 -66q0 -16 3 -27q-16 -60 -16 -204q0 -132 13 -298q1 -10 5.5 -36.5t4.5 -40.5
t-3 -21q-7 -20 -35 -20q-21 0 -36 8q0 30 15 60q-8 137 -9 353q-1 237 -2 270q-7 1 -15 1q-9 0 -25.5 -1.5t-24.5 -1.5h-9q-9 1 -9 12q0 10 8 12q30 7 75 15q3 44 26 124q31 110 73 157q39 44 102 66q20 4 39 4q60 0 106 -31q49 -34 68 -97q3 -10 3 -24q0 -52 -37 -113
q-39 -66 -94 -91q22 0 58 -7q79 -37 85 -41q37 -27 44 -86q4 -31 4 -51z" />
    <glyph glyph-name="acute" unicode="&#xb4;" horiz-adv-x="374" 
d="M302 756q0 -12 -11 -17q-43 -15 -109 -42l-72 -36q-4 -2 -9 -2q-16 0 -16 14q0 7 7 12l57 28l110 73q6 4 13 4q12 0 21 -11t9 -23z" />
    <glyph glyph-name="dieresis" unicode="&#xa8;" horiz-adv-x="342" 
d="M272 703q0 -34 -31 -34t-31 43q0 38 23 38v0q18 0 28.5 -14.5t10.5 -32.5zM147 698q0 -31 -25 -31q-15 0 -24.5 14t-9.5 30q0 31 26 31q15 0 24 -14t9 -30z" />
    <glyph glyph-name="AE" unicode="&#xc6;" horiz-adv-x="985" 
d="M998 138q0 -11 -16 -32q-19 -25 -22 -33q-5 -28 -47 -83q-10 -16 -28 -61q-7 -17 -20 -17q-11 0 -11 12q0 13 16.5 40.5t16.5 30.5q0 7 -10 7v0q-13 0 -41.5 -2t-43.5 -2q-13 0 -38.5 2.5t-38.5 2.5q-38 0 -58 -3t-42 -3h-17h-16q-14 0 -27 -1q-41 -4 -75 -15
q-30 -10 -50 -11h-1q-13 -1 -13 11q0 7 7 12q11 7 37 10q22 3 32 16q12 25 14 68q4 74 4 76q7 56 7 105q-126 -4 -264 -19q-20 -17 -61 -76q-47 -69 -59.5 -85.5t-41.5 -63.5q10 -3 22 -3h13q9 1 14 1q14 0 26 -3q8 -2 8 -12q0 -14 -21 -14q-9 0 -30.5 4t-31.5 4
q-11 0 -24 -5.5t-21 -5.5q-10 0 -27 6q-15 -2 -41 -8q-21 -5 -32 -5q-20 0 -20 15q0 13 10.5 15t23.5 2h8.5h8.5q22 0 39 7q37 37 86 95q64 77 80 94l303 350q11 12 32 39q43 11 84 11q13 0 38 -3t38 -3q31 0 127 20q4 -1 9 -1q17 0 25 8q-1 8 -9.5 23.5t-8.5 26.5v1
q0 17 18 17q5 0 9 -3q9 -6 12 -23.5t7 -21.5q9 -12 15 -46.5t12 -43.5q17 -26 17 -46q0 -15 -15 -15q-8 0 -13 7t-9 34q-2 23 -14 30q-42 3 -131 14q-36 -1 -111 -8q0 -1 -8 -24q-6 -18 -6 -32q0 -4 1 -11t1 -11q0 -16 -7.5 -76.5t-7.5 -93.5q0 -20 2 -36h13q39 0 114 8
q79 8 119 9q5 0 15 4t17 4q5 0 5 -4q0 -14 -15 -28t-29 -14h-1q-74 1 -77 1q-74 0 -154 -4q-7 -3 -13 -19q-1 -6 -1 -11q0 -6 3 -15t3 -19v-10q-11 -9 -11 -19q0 -6 7.5 -23t7.5 -29q0 -14 -3 -35.5t-3 -29.5q0 -18 8 -31q34 -5 60 -5q14 0 44 2q7 -2 15 -2q11 0 34 6t35 6
q6 0 12 -1q44 13 114 38q39 18 54 66q5 15 17 15q16 0 16 -16zM526 373q0 6 -5 16t-5 16t4 12q-6 21 -6 63t-5 61q-10 -8 -22 -20l-112 -119q-22 -35 -60 -75q-7 -6 -29 -40q23 -1 46 -1q44 0 181 6v6q0 13 6 60q7 8 7 15z" />
    <glyph glyph-name="Oslash" unicode="&#xd8;" horiz-adv-x="614" 
d="M574 346q0 -86 -33 -142q-7 -12 -15 -38t-16 -39q-11 -19 -42 -46t-38 -38q-66 -48 -147 -48q-42 0 -76 15q-13 6 -35 19q-4 -8 -12 -21q-5 -19 -24 -50q-6 -5 -13 -5q-17 0 -17 15q0 9 13 27.5t15 26.5q1 2 13 22q-32 21 -56 57q-12 17 -22 47t-20 46q-8 37 -8 64
q0 4 1 12t1 11q0 7 -2 20.5t-2 20.5q0 27 14 57q8 16 11 41.5t10 41.5q7 10 47 80q19 33 46 48q25 32 69 47l69 22q10 1 21 1q70 0 116 -29q7 19 27 56q7 9 17 9q16 0 16 -17q0 -13 -15 -35l-22 -34q45 -34 55 -65q5 -16 30 -38q14 -36 14 -56v-5v-2q0 -5 4 -13t4 -14
q2 -81 2 -71zM422 588q-23 30 -50 43q-14 7 -30 7q-24 0 -63 -18h-2q-21 0 -38 -18q-23 -26 -27 -28q-26 -33 -34 -62q-7 -18 -23 -54q-1 -24 -10.5 -68t-9.5 -66q0 -11 5 -32.5t5 -33.5q0 -11 -5 -32.5t-5 -31.5q0 -13 6 -21q8 -11 11 -25q8 -41 22 -57q103 193 248 497z
M486 353q0 31 -9 72q-7 34 -26 102q-3 11 -12 30l-236 -469l-10 -20q31 -48 81 -47h5q76 1 97 32q23 13 41 43l28 53q2 13 13.5 40t11.5 44q0 3 -1 9t-1 9q0 11 7 32q11 36 11 70z" />
    <glyph glyph-name="ae" unicode="&#xe6;" horiz-adv-x="667" 
d="M663 357q0 -16 -52 -16q-25 0 -35 5q-24 0 -63 -5q-51 0 -110 -8q-6 -54 -6 -71v-13q4 -19 4 -45q0 -10 -1 -30v-30q0 -46 12 -70q13 -72 46 -88q40 3 56 46q6 15 8 43t9 41q4 9 15 9q14 0 14 -12v-3q1 -21 -14 -64.5t-31 -61.5q-33 -28 -51 -28t-42.5 8.5t-33.5 16.5
q-42 54 -60 129q-20 -62 -74 -96q-32 -13 -64 -13q-20 0 -37 5q-22 6 -34 6h-5.5h-4.5q-20 0 -51 18q-22 22 -30 64q21 106 80 121l44.5 19t60.5 12q47 0 91 -26q11 15 11 40v17q-1 11 -1 17q0 9 1 17q-23 145 -78 145q-26 0 -49 -19q-24 -25 -32 -64q-3 -27 -7 -54
q-2 -13 -13 -13q-14 0 -14 27q0 7 8 52q2 29 2 26q0 10 -4.5 30.5t-4.5 31.5q0 21 15 21q13 0 13 -18v-5q-1 -12 4 -21q27 30 82 30q21 0 51 -5q59 -15 73 -38q50 83 116 119q21 11 41 11h2q96 -1 120 -63q14 -37 14 -58v-9v-9q0 -13 4.5 -37.5t4.5 -33.5zM579 376
q-15 38 -15 60q0 3 1 9v8q0 10 -4 22q-8 17 -8 18q-14 50 -39 50q-45 0 -71 -58q-3 -22 -19.5 -62.5t-19.5 -61.5q4 -1 12 -1q9 0 32 2t30 2h3q46 4 98 12zM309 168q-16 8 -44 33q-34 23 -65 23q-18 0 -33.5 -9t-43.5 -44q-9 -14 -9 -30q0 -26 34 -78q44 -30 72 -30
q13 0 25 6q62 41 64 129z" />
    <glyph glyph-name="oslash" unicode="&#xf8;" 
d="M430 283v0v-1q0 -56 -15 -84q-13 -23 -18 -44q-14 -51 -72 -121q-12 -8 -39.5 -29.5t-70.5 -22.5h-4q-18 0 -37 8.5l-38 17.5q-7 -19 -24 -46q-6 -6 -14 -6q-11 0 -11 12q0 9 10 26q15 24 16 25q-18 8 -27 19q-55 68 -55 149q0 54 25 128q24 53 127 126q20 14 60 14
q18 0 36.5 -3t48.5 -11q4 12 18 38q5 8 14 8q13 0 13 -13q0 -7 -8 -21q-11 -18 -12 -21q77 -19 77 -148zM303 388q-14 17 -40 41q-12 4 -25 4q-42 0 -85 -51q-2 -6 -13 -35q-9 -20 -9 -34q0 -9 3 -18q0 -24 -7 -71q-3 -10 -3 -21q0 -23 16 -57q6 -39 13 -54q47 85 150 296z
M342 255q0 27 -10 43q-4 7 -6.5 30t-8.5 32q-104 -201 -127 -251q-8 -17 -25 -50q18 -35 53 -51q6 -1 12 -1q33 0 67 34q9 9 22 42q15 39 14 66v4v6q0 14 4.5 47t4.5 49z" />
    <glyph glyph-name="questiondown" unicode="&#xbf;" horiz-adv-x="4024" 
d="M294 462q0 -33 -15 -53q-10 -14 -26 -14q-20 0 -32 21q-9 17 -9 38q0 31 8 43q14 20 35 20q23 0 34 -27q5 -12 5 -28zM377 -117q0 -23 -23 -49q-35 -41 -36 -43q-6 -4 -53 -19q-2 -1 -22 -10q-12 -5 -24 -5q-6 0 -18 1.5t-18 1.5h-10q-70 -1 -94 30q-3 4 -29 31
q-17 18 -17 35v4q-4 8 -4 20v9v9q0 16 -7 26q15 112 179 224q24 6 60 57q8 12 8 23q0 10 -6 20q-14 21 -24 21t-14 -9q-6 -12 -10 -15q-7 -4 -13 -4q-14 0 -14 15q0 7 4 14q14 23 49 23q16 0 28 -7q28 -27 28 -69q0 -14 -4 -26q-16 -29 -62 -65.5t-61 -61.5q-3 -6 -26 -38
q-16 -23 -16 -41q0 -5 1 -11q-1 -5 -10 -27q-6 -17 -6 -28t6 -21q2 -103 63 -114q12 -2 20 -2t21 2q21 4 43 17q27 16 32 59q6 58 15 74q7 3 15 3q20 0 34.5 -16.5t14.5 -37.5z" />
    <glyph glyph-name="exclamdown" unicode="&#xa1;" horiz-adv-x="272" 
d="M197 457q0 -26 -18 -47q-13 -10 -28 -10q-30 0 -38 41q-2 9 -2 18q0 26 11 40t31 14q29 0 37 -22q7 -18 7 -34zM183 -188q0 -24 -4 -42t-46 -18q-46 0 -50 24q-2 13 -2 27q0 44 19 116q8 30 15 110q5 14 5 34q0 9 -1 25.5t-1 25.5q0 20 5 34q6 25 6 48v13v14q0 75 2 101
q2 17 16 17q16 0 15 -17v-2q-2 -55 -2 -66q0 -61 6 -171q7 -134 8 -156q1 -17 5 -57t4 -60z" />
    <glyph glyph-name="logicalnot" unicode="&#xac;" horiz-adv-x="1004" 
d="M968 66q0 -6 -4 -11q-10 -14 -33 -32q-30 -24 -45 -38q-6 -19 -29 -39l-38 -28q-15 -12 -33 -36.5t-32 -34.5q-7 -5 -13 -5q-11 0 -11 12q0 6 3 13q5 11 16 22l19 17q10 11 26 40q21 67 21 125q0 19 -3 60q-3 47 -4 75l-10 96q-7 56 -23 88q-22 41 -65 57q-11 4 -29 4
q-47 -5 -95 -36t-65 -68q-19 -29 -24 -77q-1 -40 -3 -80q-2 -43 -2 -65q0 -28 8 -111q8 -4 17 -4t24 4.5t21 4.5q18 0 18 -16q0 -13 -13 -16.5t-77 -4.5t-91 -6q-7 1 -13 1q-10 0 -23 -5t-23 -5q-17 0 -17 11q0 8 10.5 14.5t37 9.5t36.5 7q8 20 9.5 46.5t8.5 47.5
q0 131 6 391q-66 -19 -159 -23q-88 -4 -97 -7q-7 -56 -7 -122q0 -106 19 -247q8 -15 24 -42q12 -16 22 -16q8 0 19 11q16 16 21 36q2 15 5.5 29.5t16.5 14.5q16 0 16 -17v-1q0 -16 -13.5 -40.5t-29.5 -39.5q-28 -18 -62 -18q-21 0 -34 9q-55 37 -71 125q-2 13 -11 156
q4 59 14 166q-15 5 -39 5q-5 0 -15 -1h-16q-33 0 -52 10q-11 5 -11 14q0 13 21 13q12 0 45 -5.5t56 -5.5h5q7 2 9 12q4 19 4 43q0 13 -1.5 38t-1.5 38q0 33 7.5 57t56.5 24q37 0 36 -20v-1q-1 -20 -13.5 -59.5t-12.5 -57.5v-8q1 -5 1 -8q0 -7 -4.5 -17.5t-4.5 -17.5
q0 -4 1 -11.5t1 -10.5v-4q25 -3 65 -3q105 0 191 24q4 99 17 157q5 23 48 64q30 30 58 50q46 34 91 34q37 0 60.5 -22.5t23.5 -59.5q0 -35 -22 -74q-51 -93 -203 -152q-1 -16 -1 -36q0 -53 5 -95q73 82 144 90q31 13 85 13q33 0 58 -6q17 -6 25 -15q45 -48 60 -124
q5 -10 10 -32q2 -69 2 -94q0 -50 -5 -142q-6 -16 -6 -35q0 -12 3 -18q17 9 31.5 29.5t27.5 27.5q6 3 11 3q13 0 13 -13zM693 742q0 55 -51 55q-34 0 -70 -29q-13 -11 -30.5 -44.5t-20.5 -52.5q-12 -74 -14 -135q120 46 168 142q18 36 18 64z" />
    <glyph glyph-name="guillemotleft" unicode="&#xab;" 
d="M415 407q0 -3 -2 -5q-21 -20 -60 -65l-49 -68q13 -29 40 -83q3 -6 37 -47q29 -34 29 -44q0 -8 -8 -15.5t-15 -7.5q-6 0 -9 4q-1 1 -66 86q-24 24 -84 95q10 16 40 42q36 30 49 45l72 79q3 3 6 3q7 0 13.5 -6.5t6.5 -12.5zM225 395q0 -2 -1 -4q-20 -18 -56 -60l-45 -62
q12 -27 37 -76q3 -5 34 -43q27 -32 27 -40t-8 -14.5t-16 -6.5q-5 0 -8 4q-8 11 -59 77q-22 23 -77 88q9 15 37 38q33 29 45 42l64 71q3 3 7 3q6 0 12.5 -6t6.5 -11z" />
    <glyph glyph-name="guillemotright" unicode="&#xbb;" 
d="M412 244q-9 -15 -37 -38q-33 -29 -45 -42l-64 -71q-3 -3 -7 -3q-6 0 -12.5 6t-6.5 11q0 2 1 4q20 18 56 60q13 19 45 62q-12 27 -37 76q-3 5 -34 43q-27 32 -27 40t8 14.5t16 6.5q5 0 8 -4q8 -11 59 -77q23 -22 77 -88zM238 245q-10 -16 -40 -42q-36 -30 -49 -45l-72 -79
q-3 -3 -6 -3q-7 0 -13.5 6.5t-6.5 12.5q0 3 2 5q21 20 60 65l49 68q-13 29 -40 83q-3 6 -37 47q-29 34 -29 44q0 8 8 15.5t15 7.5q6 0 8 -2.5l67 -87.5q25 -24 84 -95z" />
    <glyph glyph-name="ellipsis" unicode="&#x2026;" horiz-adv-x="504" 
d="M461 39q0 -31 -7 -51q-14 -18 -36 -18q-24 0 -31.5 21t-7.5 41q0 26 13 42q10 12 24 12q32 0 45 -41v-6zM294 39q0 -31 -7 -51q-15 -19 -36 -19q-26 0 -35 27q-5 14 -5 32q0 27 13 45q9 13 25 13q32 0 45 -41v-6zM126 40q0 -35 -6 -52q-15 -19 -35 -19q-42 0 -42 57
q0 60 39 60q32 0 44 -38v-8z" />
    <glyph glyph-name="nonbreakingspace" unicode="&#xa0;" horiz-adv-x="259" 
 />
    <glyph glyph-name="Agrave" unicode="&#xc0;" horiz-adv-x="674" 
d="M470 755q0 -14 -16 -14q-5 0 -9 2q-20 11 -72 36l-109 42q-11 5 -11 17t9 23t21 11q7 0 13 -4q33 -24 110 -73q20 -8 57 -28q7 -5 7 -12zM724 46q0 -8 -6 -16t-14 -8q-4 0 -15.5 3t-19.5 3t-36 -3q-14 -12 -36 -12q-8 0 -26 2t-28 2q-14 0 -40.5 -6t-40.5 -6
q-26 0 -26 17q0 20 21 20q4 0 11 -2t10 -2q42 0 51 8q-1 21 -11 47q-16 42 -18 50t-11 52q-5 27 -14 42q-12 19 -39.5 21t-55.5 2q-101 0 -221 -26q-22 -17 -35 -53q-17 -46 -25 -57q-2 -20 -9 -35t-9 -31q9 1 19 1q23 0 54 -5q12 -2 12 -13q0 -16 -20 -16q-6 0 -23 3t-27 3
q-18 0 -30 -9q-4 -2 -10 -2q-19 0 -28 9q-15 -2 -38 -10q-19 -5 -33 -5h-4q-13 0 -13 14q0 15 12 18q7 2 21 2h4q30 0 52 10l91 176q18 46 65 133q39 55 59 98q39 84 81 137q11 26 27 79q9 14 26 14q5 0 10 -2q12 -29 44 -141q10 -14 17 -46q8 -37 15 -50q10 -19 33 -83
q20 -52 40 -82q3 -21 19.5 -52t19.5 -50q0 -40 22 -53q14 -28 39 -85q34 7 74 7q13 0 13 -12zM446 295q0 5 -4 14t-4 15q-12 13 -22 35q-13 29 -18 36q3 7 3 14q0 17 -28 55q-11 14 -17.5 42.5t-21.5 49.5q-47 -59 -62 -105q-5 -15 -46 -84q-15 -9 -31 -49q-2 -6 -14 -22
q-9 -12 -9 -20q0 -3 1 -5q54 0 134 9q118 13 139 15z" />
    <glyph glyph-name="Atilde" unicode="&#xc3;" horiz-adv-x="674" 
d="M495 811q-2 -21 -13 -40q-11 -22 -27 -26q-9 -3 -18 -3q-28 0 -69 33.5t-58 33.5q-11 0 -27.5 -11.5t-16.5 -22.5q0 -2 1.5 -6t1.5 -5v-1q-2 -8 -12 -8t-13 6t-3 13q0 4 1 10q6 16 25 34.5t36 24.5q12 4 23 4q27 0 62 -35t57 -38q20 7 26 24q2 3 2 5t-3 6t-3 6v2
q-1 11 10 11q4 0 7 -2q4 -6 11 -15zM724 46q0 -8 -6 -16t-14 -8q-4 0 -15.5 3t-19.5 3t-36 -3q-14 -12 -36 -12q-8 0 -26 2t-28 2q-14 0 -40.5 -6t-40.5 -6q-26 0 -26 17q0 20 21 20q4 0 11 -2t10 -2q42 0 51 8q-1 21 -11 47q-16 42 -18 50t-11 52q-5 27 -14 42
q-12 19 -39.5 21t-55.5 2q-101 0 -221 -26q-22 -17 -35 -53q-17 -46 -25 -57q-2 -20 -9 -35t-9 -31q9 1 19 1q23 0 54 -5q12 -2 12 -13q0 -16 -20 -16q-6 0 -23 3t-27 3q-18 0 -30 -9q-4 -2 -10 -2q-19 0 -28 9q-15 -2 -38 -10q-19 -5 -33 -5h-4q-13 0 -13 14q0 15 12 18
q7 2 21 2h4q30 0 52 10l91 176q18 46 65 133q39 55 59 98q39 84 81 137q11 26 27 79q9 14 26 14q5 0 10 -2q12 -29 44 -141q10 -14 17 -46q8 -37 15 -50q10 -19 33 -83q20 -52 40 -82q3 -21 19.5 -52t19.5 -50q0 -40 22 -53q14 -28 39 -85q34 7 74 7q13 0 13 -12zM446 295
q0 5 -4 14t-4 15q-12 13 -22 35q-13 29 -18 36q3 7 3 14q0 17 -28 55q-11 14 -17.5 42.5t-21.5 49.5q-47 -59 -62 -105q-5 -15 -46 -84q-15 -9 -31 -49q-2 -6 -14 -22q-9 -12 -9 -20q0 -3 1 -5q54 0 134 9q118 13 139 15z" />
    <glyph glyph-name="Otilde" unicode="&#xd5;" horiz-adv-x="614" 
d="M467 761q-2 -21 -13 -40q-11 -22 -27 -26q-9 -3 -18 -3q-28 0 -69 33.5t-58 33.5q-11 0 -27.5 -11.5t-16.5 -22.5q0 -2 1.5 -6t1.5 -5v-1q-2 -8 -12 -8t-13 6t-3 13q0 4 1 10q6 16 25 34.5t36 24.5q12 4 23 4q27 0 62 -35t57 -38q20 7 26 24q2 3 2 5t-3 6t-3 6v2
q-1 11 10 11q4 0 7 -2q4 -6 11 -15zM574 346q0 -86 -33 -142q-7 -12 -15 -38t-16 -39q-11 -19 -42 -46t-38 -38q-66 -48 -147 -48q-42 0 -76 15q-78 35 -116 91q-12 17 -22 47.5t-20 45.5q-8 37 -8 64q0 4 1 12t1 11q0 7 -2 20.5t-2 20.5q0 27 14 57q8 16 11 41.5t10 41.5
q7 10 47 80q19 33 46 48q25 32 69 47l69 22q16 1 30 1q86 0 126 -47q25 -18 35 -28q17 -17 24 -40q5 -16 30 -38q11 -28 11 -45v-6v-2q0 -6 5.5 -19t5.5 -18q2 -81 2 -71zM486 353q0 31 -9 72q-7 34 -26 102q-29 81 -79 104q-14 7 -30 7q-24 0 -63 -18h-2q-21 0 -38 -18
q-23 -26 -27 -28q-26 -33 -34 -62q-7 -18 -23 -54q-1 -24 -10.5 -68t-9.5 -66q0 -11 5 -32.5t5 -33.5q0 -11 -5 -32.5t-5 -31.5q0 -13 6 -21q9 -12 11 -25q10 -54 34 -74l35 -34q24 -20 54 -19h4q76 1 97 32q23 13 41 43l28 53q2 13 13.5 40t11.5 44q0 3 -1 9t-1 9
q0 11 7 32q11 36 11 70z" />
    <glyph glyph-name="OE" unicode="&#x152;" horiz-adv-x="950" 
d="M976 136q0 -11 -16 -32q-19 -25 -22 -33q-5 -28 -47 -83q-10 -16 -28 -61q-7 -17 -20 -17q-11 0 -11 12q0 13 16.5 40.5t16.5 30.5q0 7 -10 7v0q-13 0 -41.5 -2t-43.5 -2q-12 0 -36 2t-36 2q-62 0 -91 -4q-96 -15 -114 -15q-22 0 -22 10q0 3 2 7q8 17 17 83
q-22 -21 -60 -68q-66 -48 -147 -48q-42 0 -76 15q-78 35 -116 91q-12 17 -22 47.5t-20 45.5q-8 37 -8 64q0 4 1 12t1 11q0 7 -2 20.5t-2 20.5q0 27 14 57q8 16 11 41.5t10 41.5q7 10 47 80q19 33 46 48q25 32 69 47l69 22q16 1 30 1q86 0 126 -47q21 -15 41 -40v6
q0 10 -4 29t-4 28t11.5 11.5t22.5 2.5q16 0 43 -5t39 -5h6q18 -1 37 -1q56 0 126 14q4 -1 9 -1q17 0 25 8q-1 8 -9.5 23.5t-8.5 26.5v1q0 17 18 17q5 0 9 -3q9 -6 12 -23.5t7 -21.5q9 -12 15 -46.5t12 -43.5q17 -26 17 -46q0 -15 -15 -15q-8 0 -13 7t-9 34q-2 23 -14 30
q-42 3 -131 14q-36 -1 -111 -8q0 -1 -8 -24q-6 -18 -6 -32q0 -3 1 -9t1 -9q0 -13 -10.5 -49.5t-10.5 -63.5q0 -13 2 -26q23 -3 49 -3q33 0 96 7q68 6 101 7q5 0 15 4t17 4q5 0 5 -4q0 -14 -15 -28t-29 -14h-1q-93 1 -82 1q-83 0 -148 -8q-10 -3 -14 -13q-1 -5 -1 -10
q0 -12 5 -40.5t5 -42.5v-9q-13 -11 -13 -24q0 -5 4 -20.5t4 -26.5v-13q0 -77 16 -103q34 -5 60 -5q14 0 44 2q7 -2 15 -2q11 0 34 6t35 6q6 0 12 -1q44 13 114 38q39 18 54 66q5 15 17 15q16 0 16 -16zM486 323q0 31 -9 72q-7 34 -26 102q-29 81 -79 104q-14 7 -30 7
q-24 0 -63 -18h-2q-21 0 -38 -18q-23 -26 -27 -28q-26 -33 -34 -62q-7 -18 -23 -54q-1 -24 -10.5 -68t-9.5 -66q0 -11 5 -32.5t5 -33.5q0 -11 -5 -32.5t-5 -31.5q0 -13 6 -21q9 -12 11 -25q10 -54 34 -74l35 -34q24 -20 54 -19h4q76 1 97 32q23 13 41 43l28 53q2 13 13.5 40
t11.5 44q0 3 -1 9t-1 9q0 11 7 32q11 36 11 70z" />
    <glyph glyph-name="oe" unicode="&#x153;" horiz-adv-x="692" 
d="M690 357q0 -16 -52 -16q-25 0 -35 5q-24 0 -63 -5q-51 0 -110 -8q-6 -54 -6 -71v-13q4 -19 4 -45q0 -10 -1 -30v-30q0 -46 12 -70q13 -72 46 -88q40 3 56 46q6 15 8 43t9 41q4 9 15 9q14 0 14 -12v-3q1 -21 -14 -64.5t-31 -61.5q-33 -28 -51 -28t-42.5 8.5t-33.5 16.5
q-40 48 -52 100q-5 -8 -38 -48q-12 -8 -39.5 -29.5t-70.5 -22.5h-5q-20 -1 -70 22q-13 5 -25.5 10.5t-21.5 15.5q-60 70 -60 160q0 55 23 125q24 53 127 126q21 15 60 15q20 0 39 -5l55.5 -15.5t40.5 -17.5q44 94 126 139q21 11 41 11h2q96 -1 120 -63q14 -37 14 -58v-9v-9
q0 -13 4.5 -37.5t4.5 -33.5zM606 376q-15 38 -15 60q0 3 1 9v8q0 10 -4 22q-8 17 -8 18q-14 50 -39 50q-45 0 -71 -58q-3 -22 -19.5 -62.5t-19.5 -61.5q4 -1 12 -1q9 0 32 2t30 2h3q46 4 98 12zM342 255q0 27 -10 43q-5 8 -8.5 32t-5.5 28q-19 47 -55 71q-12 4 -25 4
q-42 0 -85 -51q-2 -6 -13 -35q-9 -20 -9 -34q0 -9 3 -18q0 -24 -7 -71q-4 -11 -4 -23q0 -25 17 -55q19 -113 78 -138q6 -1 12 -1q33 0 67 34q9 9 22 42q15 39 14 66v4v6q0 14 4.5 47t4.5 49z" />
    <glyph glyph-name="endash" unicode="&#x2013;" horiz-adv-x="514" 
d="M452 246q0 -21 -23 -21q-14 0 -79 3t-101 3h-12q-38 0 -88.5 -5t-78.5 -5h-6q-16 0 -16 20q0 22 17 23q12 1 28 1q27 0 90 -3t91 -3q25 0 76.5 4t71.5 4h15q15 -1 15 -21z" />
    <glyph glyph-name="emdash" unicode="&#x2014;" horiz-adv-x="754" 
d="M716 241q0 -21 -15 -22t-39 -1q-30 0 -126 4t-145 4h-13q-47 0 -151 -5.5t-141 -5.5h-19q-15 0 -15 22q0 21 16 22h25q43 0 170.5 -3t153.5 -3q20 0 118.5 5t139.5 5q15 0 26 -1q15 -1 15 -21z" />
    <glyph glyph-name="quotedblleft" unicode="&#x201c;" horiz-adv-x="377" 
d="M327 756q0 -5 -3 -7q-74 -39 -74 -99q0 -13 5 -20q16 16 32 16q10 0 20 -6q13 -11 13 -27q0 -9 -5 -17q0 -3 -15 -21l-30 2q-19 2 -28 10q-21 15 -21 55q0 36 28 82q32 50 67 50q11 0 11 -18zM201 760q0 -5 -4 -6q-38 -5 -69 -36t-31 -70q0 -5 2 -8q21 22 41 22
q12 0 23 -7q5 -8 5 -19q0 -19 -10 -30q-19 -17 -39 -17q-13 0 -24 8q-32 22 -33 45q9 51 37 88q35 44 86 47h1q15 1 15 -17z" />
    <glyph glyph-name="quotedblright" unicode="&#x201d;" horiz-adv-x="377" 
d="M312 710q0 -36 -21 -80q-24 -52 -56 -52q-6 0 -11.5 5.5t-5.5 10.5q0 2 2 3q62 34 62 104q0 14 -3 26q0 4 -5 11q-20 -38 -45 -38q-5 0 -11 2q-14 9 -14 33q0 8 2 14q18 32 45 32q15 0 33.5 -9.5t23.5 -22.5q4 -19 4 -39zM162 701q0 -36 -28 -82q-32 -50 -67 -50
q-11 0 -11 18q0 5 3 7q74 39 74 99q0 13 -5 20q-16 -16 -32 -16q-10 0 -20 6q-13 11 -13 27q0 9 5 17q0 3 15 21q15 -1 32 -2.5t26 -9.5q21 -15 21 -55z" />
    <glyph glyph-name="quoteleft" unicode="&#x2018;" horiz-adv-x="222" 
d="M172 757q0 -4 -3 -5q-39 -13 -61 -47q-19 -29 -19 -62q0 -11 3 -21q20 31 44 31q9 0 17 -4q9 -10 9 -27q0 -14 -6 -24q-20 -23 -42 -23q-9 0 -18 4q-36 16 -40 39q0 48 26 97q31 58 75 58q15 0 15 -16z" />
    <glyph glyph-name="quoteright" unicode="&#x2019;" horiz-adv-x="222" 
d="M173 725q0 -47 -27 -97q-31 -59 -74 -59q-17 0 -17 15q0 5 4 6q39 13 61 44q19 29 19 62q0 12 -3 24q-19 -30 -43 -30q-8 0 -17 4q-11 9 -11 26q0 18 15.5 33t33.5 15q9 0 18 -4q36 -16 41 -39z" />
    <glyph glyph-name="ydieresis" unicode="&#xff;" horiz-adv-x="477" 
d="M347 583q0 -34 -31 -34t-31 43q0 38 23 38v0q18 0 28.5 -14.5t10.5 -32.5zM222 578q0 -31 -25 -31q-15 0 -24.5 14t-9.5 30q0 31 26 31q15 0 24 -14t9 -30zM493 516q0 -28 -20 -74q-29 -62 -30 -67q-11 -15 -25.5 -54t-28.5 -57l-55 -100q-37 -65 -62 -96
q-11 -26 -53 -85q-32 -45 -40 -92q0 -1 11 -53q7 -32 7 -53q0 -10 -1 -18t-11.5 -14.5t-20.5 -6.5q-6 0 -9 3q-48 35 -48 72q0 8 3 18q15 54 36 81l52 79l-25 107q-15 64 -35 98q-2 20 -19.5 59.5t-20.5 57.5q-6 16 -22.5 43.5t-22.5 46.5q-6 10 -17 11h-2q-4 0 -16.5 -2
t-18.5 -2q-19 0 -19 13q0 18 40 18q11 0 34 -4t35 -4q18 0 54.5 5.5t55.5 5.5q40 0 40 -16q0 -14 -25 -14q-4 0 -14 1h-14q-16 0 -23 -5q15 -22 17 -66t18 -67q13 -30 32 -90q12 -16 13 -52t12 -52q10 5 19 21q6 13 13 26q66 105 90 154q43 88 54 173q0 12 -7 26
q-7 11 -13 23q-22 5 -22 13q0 26 50 46q3 1 7 1q9 0 28 -6q4 -1 11.5 -22t7.5 -30z" />
    <glyph glyph-name="Ydieresis" unicode="&#x178;" horiz-adv-x="572" 
d="M407 773q0 -34 -31 -34t-31 43q0 38 23 38v0q18 0 28.5 -14.5t10.5 -32.5zM282 768q0 -31 -25 -31q-15 0 -24.5 14t-9.5 30q0 31 26 31q15 0 24 -14t9 -30zM673 706q0 -13 -19 -17q-5 -1 -12 -1q-4 0 -11 1h-12q-31 0 -40 -27q-2 -15 -23.5 -38.5t-23.5 -41.5l-97 -174
q-12 -22 -85 -170q-12 -67 -12 -99q0 -11 2.5 -34t2.5 -35q0 -6 -1.5 -18.5t-1.5 -19.5q0 -22 11 -50q5 -2 9 -2t11.5 2.5t12.5 2.5q6 0 13 -4q3 1 9 1q14 0 25 -3.5t11 -12.5q0 -15 -22 -15q-7 0 -27 3t-31 3q-9 0 -24.5 -4t-24.5 -4q-8 0 -23 3.5t-26 3.5q-18 0 -47 -5.5
t-41 -5.5q-11 0 -19.5 2.5t-8.5 12.5q0 14 13 17q6 1 15 1h17q12 -1 18 -1q26 0 41 13q0 6 5 39q7 13 14 42v1q-2 9 -4 23v1q4 63 4 54q0 35 -8 68q-8 22 -31 74v3q0 10 -8 20q-11 13 -11 14q-13 31 -46 96q-12 15 -32 45q-58 105 -119 158q-8 1 -15 1q-4 0 -11 -1h-8
q-12 0 -22 3.5t-10 12.5q0 13 21 13q7 0 78 -10q13 -2 43 -2q33 0 63 2q7 0 18.5 3t18.5 3q29 0 29 -18q0 -13 -31 -13h-10q-7 1 -10 1q-12 0 -20 -3q7 -19 17 -61q11 -9 18 -29t14 -27t13 -30q5 -19 20 -28q17 -26 42 -81q4 -14 25.5 -46t33.5 -40q18 28 48 84q13 35 34 65
q13 19 26 46q20 43 20 44q14 50 49 149q-2 19 -11 26q-14 -1 -21 -1q-26 0 -40 8q-7 4 -7 11q0 11 26 11q3 0 54 -7q24 -3 59 -3q18 0 31 1q51 5 49 5q23 0 23 -11z" />
    <glyph glyph-name="guilsinglleft" unicode="&#x2039;" horiz-adv-x="290" 
d="M240 407q0 -3 -2 -5q-21 -20 -60 -65l-49 -68q13 -29 40 -83q3 -6 37 -47q29 -34 29 -44q0 -8 -8 -15.5t-15 -7.5q-6 0 -9 4q-1 1 -66 86q-24 24 -84 95q10 16 40 42q36 30 49 45l72 79q3 3 6 3q7 0 13.5 -6.5t6.5 -12.5zM290 23z" />
    <glyph glyph-name="guilsinglright" unicode="&#x203a;" horiz-adv-x="290" 
d="M248 240q-10 -16 -40 -42q-36 -30 -49 -45l-72 -79q-3 -3 -6 -3q-7 0 -13.5 6.5t-6.5 12.5q0 3 2 5q21 20 60 65l49 68q-13 29 -40 83q-3 6 -37 47q-29 34 -29 44q0 8 8 15.5t15 7.5q6 0 8 -2.5l67 -87.5q25 -24 84 -95z" />
    <glyph glyph-name="quotesinglbase" unicode="&#x201a;" horiz-adv-x="209" 
d="M162 41q0 -122 -99 -156q-16 4 -16 15q0 3 2 6q41 14 63 48q19 31 18 66v5q0 6 -5 11q-19 -30 -43 -30q-8 0 -17 4q-9 10 -9 27q0 13 6 23q21 24 42 24q9 0 18 -4q36 -16 40 -39z" />
    <glyph glyph-name="quotedblbase" unicode="&#x201e;" horiz-adv-x="377" 
d="M312 21q0 -94 -74 -132h-2q-17 -1 -17 13v3q64 35 64 107q0 29 -9 35q-16 -37 -44 -37q-5 0 -11 2q-16 9 -16 37q0 8 2 14q17 28 44 28q16 0 34.5 -9.5t25.5 -22.5q3 -20 3 -38zM162 11q0 -43 -26.5 -80t-67.5 -52q-12 8 -12 25q76 35 76 100q0 13 -3 21q-16 -17 -32 -17
q-10 0 -22 8.5t-12 24.5q0 10 6 20q5 6 15 19q7 1 15 1q24 0 43 -14q20 -17 20 -56z" />
    <glyph glyph-name="Acircumflex" unicode="&#xc2;" horiz-adv-x="674" 
d="M496 746q0 -6 -7 -12t-15 -6q-4 0 -8 2q-11 10 -46 38q-31 23 -64 37q-31 -18 -52 -34.5t-41 -38.5q-3 -3 -8 -3q-17 0 -17 14q0 4 4 6q11 7 53 44q28 27 76 68q24 -24 66 -62l57 -48q2 -2 2 -5zM724 46q0 -8 -6 -16t-14 -8q-4 0 -15.5 3t-19.5 3t-36 -3q-14 -12 -36 -12
q-8 0 -26 2t-28 2q-14 0 -40.5 -6t-40.5 -6q-26 0 -26 17q0 20 21 20q4 0 11 -2t10 -2q42 0 51 8q-1 21 -11 47q-16 42 -18 50t-11 52q-5 27 -14 42q-12 19 -39.5 21t-55.5 2q-101 0 -221 -26q-22 -17 -35 -53q-17 -46 -25 -57q-2 -20 -9 -35t-9 -31q9 1 19 1q23 0 54 -5
q12 -2 12 -13q0 -16 -20 -16q-6 0 -23 3t-27 3q-18 0 -30 -9q-4 -2 -10 -2q-19 0 -28 9q-15 -2 -38 -10q-19 -5 -33 -5h-4q-13 0 -13 14q0 15 12 18q7 2 21 2h4q30 0 52 10l91 176q18 46 65 133q39 55 59 98q39 84 81 137q11 26 27 79q9 14 26 14q5 0 10 -2q12 -29 44 -141
q10 -14 17 -46q8 -37 15 -50q10 -19 33 -83q20 -52 40 -82q3 -21 19.5 -52t19.5 -50q0 -40 22 -53q14 -28 39 -85q34 7 74 7q13 0 13 -12zM446 295q0 5 -4 14t-4 15q-12 13 -22 35q-13 29 -18 36q3 7 3 14q0 17 -28 55q-11 14 -17.5 42.5t-21.5 49.5q-47 -59 -62 -105
q-5 -15 -46 -84q-15 -9 -31 -49q-2 -6 -14 -22q-9 -12 -9 -20q0 -3 1 -5q54 0 134 9q118 13 139 15z" />
    <glyph glyph-name="Ecircumflex" unicode="&#xca;" horiz-adv-x="577" 
d="M382 721q0 -6 -7 -12t-15 -6q-4 0 -8 2q-11 10 -46 38q-31 23 -64 37q-31 -18 -52 -34.5t-41 -38.5q-3 -3 -8 -3q-17 0 -17 14q0 4 4 6q11 7 53 44q28 27 76 68q24 -24 66 -62l57 -48q2 -2 2 -5zM590 148q0 -11 -16 -32q-19 -25 -22 -33q-5 -28 -47 -83q-10 -16 -28 -61
q-7 -17 -20 -17q-11 0 -11 12q0 13 16.5 40.5t16.5 30.5q0 7 -10 7v0q-13 0 -41.5 -2t-43.5 -2q-13 0 -38.5 2.5t-38.5 2.5q-38 0 -58 -3t-44 -3h-18.5h-18.5q-15 0 -28 -1q-41 -4 -75 -15q-30 -10 -50 -11h-1q-13 -1 -13 11q0 7 7 12q11 7 37 10q22 3 32 16q11 23 11 63v24
q-1 16 -1 24q0 19 2 33q16 128 16 157q-5 10 -5 26q0 6 1 15q14 16 14 31v13q-1 10 -1 18q0 27 -5 68.5t-5 61.5l1 19q0 6 -7 6.5t-15 0.5t-23 -1.5t-23 -1.5q-11 0 -22 2q-14 2 -14 15q0 17 18 17q12 0 36.5 -3t42.5 -3h7q46 1 128 8q21 -3 44 -3q39 0 119 16q4 -1 9 -1
q17 0 25 8q-1 8 -9.5 23.5t-8.5 26.5v1q0 17 18 17q5 0 9 -3q9 -6 12 -23.5t7 -21.5q9 -12 15 -46.5t12 -43.5q17 -26 17 -46q0 -15 -15 -15q-8 0 -13 7t-9 34q-2 23 -14 30q-42 3 -131 14q-36 -1 -111 -8q0 -1 -8 -24q-6 -18 -6 -32q0 -5 1 -13.5t1 -13.5q0 -10 -2.5 -37.5
t-2.5 -46.5q0 -23 3 -46q23 -3 49 -3q33 0 96 7q68 6 101 7q5 0 15 4t17 4q5 0 5 -4q0 -14 -15 -28t-29 -14h-1q-93 1 -82 1q-83 0 -148 -8q-10 -3 -12.5 -11.5t-2.5 -17.5q0 -11 2.5 -35.5t2.5 -36.5q0 -8 -1 -14q-13 -11 -13 -24q0 -5 4 -20.5t4 -26.5q0 -13 -3 -40
t-3 -39q0 -24 8 -37q34 -5 60 -5q14 0 44 2q7 -2 15 -2q11 0 34 6t35 6q6 0 12 -1q44 13 114 38q39 18 54 66q5 15 17 15q16 0 16 -16z" />
    <glyph glyph-name="Aacute" unicode="&#xc1;" horiz-adv-x="674" 
d="M472 830q0 -12 -11 -17q-43 -15 -109 -42l-72 -36q-4 -2 -9 -2q-16 0 -16 14q0 7 7 12l57 28l110 73q6 4 13 4q12 0 21 -11t9 -23zM724 46q0 -8 -6 -16t-14 -8q-4 0 -15.5 3t-19.5 3t-36 -3q-14 -12 -36 -12q-8 0 -26 2t-28 2q-14 0 -40.5 -6t-40.5 -6q-26 0 -26 17
q0 20 21 20q4 0 11 -2t10 -2q42 0 51 8q-1 21 -11 47q-16 42 -18 50t-11 52q-5 27 -14 42q-12 19 -39.5 21t-55.5 2q-101 0 -221 -26q-22 -17 -35 -53q-17 -46 -25 -57q-2 -20 -9 -35t-9 -31q9 1 19 1q23 0 54 -5q12 -2 12 -13q0 -16 -20 -16q-6 0 -23 3t-27 3q-18 0 -30 -9
q-4 -2 -10 -2q-19 0 -28 9q-15 -2 -38 -10q-19 -5 -33 -5h-4q-13 0 -13 14q0 15 12 18q7 2 21 2h4q30 0 52 10l91 176q18 46 65 133q39 55 59 98q39 84 81 137q11 26 27 79q9 14 26 14q5 0 10 -2q12 -29 44 -141q10 -14 17 -46q8 -37 15 -50q10 -19 33 -83q20 -52 40 -82
q3 -21 19.5 -52t19.5 -50q0 -40 22 -53q14 -28 39 -85q34 7 74 7q13 0 13 -12zM446 295q0 5 -4 14t-4 15q-12 13 -22 35q-13 29 -18 36q3 7 3 14q0 17 -28 55q-11 14 -17.5 42.5t-21.5 49.5q-47 -59 -62 -105q-5 -15 -46 -84q-15 -9 -31 -49q-2 -6 -14 -22q-9 -12 -9 -20
q0 -3 1 -5q54 0 134 9q118 13 139 15z" />
    <glyph glyph-name="Edieresis" unicode="&#xcb;" horiz-adv-x="577" 
d="M357 733q0 -34 -31 -34t-31 43q0 38 23 38v0q18 0 28.5 -14.5t10.5 -32.5zM232 728q0 -31 -25 -31q-15 0 -24.5 14t-9.5 30q0 31 26 31q15 0 24 -14t9 -30zM590 148q0 -11 -16 -32q-19 -25 -22 -33q-5 -28 -47 -83q-10 -16 -28 -61q-7 -17 -20 -17q-11 0 -11 12
q0 13 16.5 40.5t16.5 30.5q0 7 -10 7v0q-13 0 -41.5 -2t-43.5 -2q-13 0 -38.5 2.5t-38.5 2.5q-38 0 -58 -3t-44 -3h-18.5h-18.5q-15 0 -28 -1q-41 -4 -75 -15q-30 -10 -50 -11h-1q-13 -1 -13 11q0 7 7 12q11 7 37 10q22 3 32 16q11 23 11 63v24q-1 16 -1 24q0 19 2 33
q16 128 16 157q-5 10 -5 26q0 6 1 15q14 16 14 31v13q-1 10 -1 18q0 27 -5 68.5t-5 61.5l1 19q0 6 -7 6.5t-15 0.5t-23 -1.5t-23 -1.5q-11 0 -22 2q-14 2 -14 15q0 17 18 17q12 0 36.5 -3t42.5 -3h7q46 1 128 8q21 -3 44 -3q39 0 119 16q4 -1 9 -1q17 0 25 8q-1 8 -9.5 23.5
t-8.5 26.5v1q0 17 18 17q5 0 9 -3q9 -6 12 -23.5t7 -21.5q9 -12 15 -46.5t12 -43.5q17 -26 17 -46q0 -15 -15 -15q-8 0 -13 7t-9 34q-2 23 -14 30q-42 3 -131 14q-36 -1 -111 -8q0 -1 -8 -24q-6 -18 -6 -32q0 -5 1 -13.5t1 -13.5q0 -10 -2.5 -37.5t-2.5 -46.5q0 -23 3 -46
q23 -3 49 -3q33 0 96 7q68 6 101 7q5 0 15 4t17 4q5 0 5 -4q0 -14 -15 -28t-29 -14h-1q-93 1 -82 1q-83 0 -148 -8q-10 -3 -12.5 -11.5t-2.5 -17.5q0 -11 2.5 -35.5t2.5 -36.5q0 -8 -1 -14q-13 -11 -13 -24q0 -5 4 -20.5t4 -26.5q0 -13 -3 -40t-3 -39q0 -24 8 -37
q34 -5 60 -5q14 0 44 2q7 -2 15 -2q11 0 34 6t35 6q6 0 12 -1q44 13 114 38q39 18 54 66q5 15 17 15q16 0 16 -16z" />
    <glyph glyph-name="Egrave" unicode="&#xc8;" horiz-adv-x="577" 
d="M369 719q0 -14 -16 -14q-5 0 -9 2q-20 11 -72 36l-109 42q-11 5 -11 17t9 23t21 11q7 0 13 -4q33 -24 110 -73q20 -8 57 -28q7 -5 7 -12zM590 148q0 -11 -16 -32q-19 -25 -22 -33q-5 -28 -47 -83q-10 -16 -28 -61q-7 -17 -20 -17q-11 0 -11 12q0 13 16.5 40.5t16.5 30.5
q0 7 -10 7v0q-13 0 -41.5 -2t-43.5 -2q-13 0 -38.5 2.5t-38.5 2.5q-38 0 -58 -3t-44 -3h-18.5h-18.5q-15 0 -28 -1q-41 -4 -75 -15q-30 -10 -50 -11h-1q-13 -1 -13 11q0 7 7 12q11 7 37 10q22 3 32 16q11 23 11 63v24q-1 16 -1 24q0 19 2 33q16 128 16 157q-5 10 -5 26
q0 6 1 15q14 16 14 31v13q-1 10 -1 18q0 27 -5 68.5t-5 61.5l1 19q0 6 -7 6.5t-15 0.5t-23 -1.5t-23 -1.5q-11 0 -22 2q-14 2 -14 15q0 17 18 17q12 0 36.5 -3t42.5 -3h7q46 1 128 8q21 -3 44 -3q39 0 119 16q4 -1 9 -1q17 0 25 8q-1 8 -9.5 23.5t-8.5 26.5v1q0 17 18 17
q5 0 9 -3q9 -6 12 -23.5t7 -21.5q9 -12 15 -46.5t12 -43.5q17 -26 17 -46q0 -15 -15 -15q-8 0 -13 7t-9 34q-2 23 -14 30q-42 3 -131 14q-36 -1 -111 -8q0 -1 -8 -24q-6 -18 -6 -32q0 -5 1 -13.5t1 -13.5q0 -10 -2.5 -37.5t-2.5 -46.5q0 -23 3 -46q23 -3 49 -3q33 0 96 7
q68 6 101 7q5 0 15 4t17 4q5 0 5 -4q0 -14 -15 -28t-29 -14h-1q-93 1 -82 1q-83 0 -148 -8q-10 -3 -12.5 -11.5t-2.5 -17.5q0 -11 2.5 -35.5t2.5 -36.5q0 -8 -1 -14q-13 -11 -13 -24q0 -5 4 -20.5t4 -26.5q0 -13 -3 -40t-3 -39q0 -24 8 -37q34 -5 60 -5q14 0 44 2
q7 -2 15 -2q11 0 34 6t35 6q6 0 12 -1q44 13 114 38q39 18 54 66q5 15 17 15q16 0 16 -16z" />
    <glyph glyph-name="Iacute" unicode="&#xcd;" horiz-adv-x="329" 
d="M291 763q0 -3 -1 -5l-122 -51q-21 -10 -76 -39q-8 0 -15.5 6.5t-7.5 12.5l66 36q23 11 55 35q45 33 63 44q14 -4 26 -16.5t12 -22.5zM302 26q0 -15 -26 -15q-12 0 -36 4t-33 4h-5q-6 -5 -26 -5q-21 0 -42 5q-4 1 -11 1q-13 0 -35 -3q-3 0 -21 -5q-14 -3 -26 -3
q-21 0 -21 14q0 10 10 15q6 3 23 3h9h9q27 0 38 8q13 27 13 54q0 6 -1 19t-1 20q0 21 6 41q3 11 4 43q0 29 6 42v19q0 32 -1.5 69t-1.5 48q0 10 2 29.5t2 29.5t-2 25.5t-2 19.5l-2 43t-7 35q-7 6 -21 6q-8 0 -22.5 -2.5t-22.5 -2.5q-21 0 -21 12q0 9 10.5 14t28.5 5t35 -4
h18.5h20.5q38 0 62 2q65 6 66 6q23 0 23 -14q0 -18 -18 -18q-4 0 -14 2t-15 2q-24 0 -26 -16q-1 -25 -4 -74q0 -3 -4 -21t-4 -30q0 -4 1 -12t1 -12q0 -14 -6.5 -41.5t-6.5 -48.5v-41q0 -147 12 -247q18 -9 46 -9h10q7 1 9 1q20 0 20 -17z" />
    <glyph glyph-name="Icircumflex" unicode="&#xce;" horiz-adv-x="329" 
d="M301 698q-18 -20 -28 -20l-53 40q-31 23 -64 37q-30 -17 -51 -35q-2 -1 -47 -41h-1q-15 -1 -20 16q15 10 59 49l75 67q24 -24 65 -61zM302 26q0 -15 -26 -15q-12 0 -36 4t-33 4h-5q-6 -5 -26 -5q-21 0 -42 5q-4 1 -11 1q-13 0 -35 -3q-3 0 -21 -5q-14 -3 -26 -3
q-21 0 -21 14q0 10 10 15q6 3 23 3h9h9q27 0 38 8q13 27 13 54q0 6 -1 19t-1 20q0 21 6 41q3 11 4 43q0 29 6 42v19q0 32 -1.5 69t-1.5 48q0 10 2 29.5t2 29.5t-2 25.5t-2 19.5l-2 43t-7 35q-7 6 -21 6q-8 0 -22.5 -2.5t-22.5 -2.5q-21 0 -21 12q0 9 10.5 14t28.5 5t35 -4
h18.5h20.5q38 0 62 2q65 6 66 6q23 0 23 -14q0 -18 -18 -18q-4 0 -14 2t-15 2q-24 0 -26 -16q-1 -25 -4 -74q0 -3 -4 -21t-4 -30q0 -4 1 -12t1 -12q0 -14 -6.5 -41.5t-6.5 -48.5v-41q0 -147 12 -247q18 -9 46 -9h10q7 1 9 1q20 0 20 -17z" />
    <glyph glyph-name="Idieresis" unicode="&#xcf;" horiz-adv-x="329" 
d="M267 721q0 -34 -31 -34t-31 43q0 38 23 38v0q18 0 28.5 -14.5t10.5 -32.5zM142 716q0 -31 -25 -31q-15 0 -24.5 14t-9.5 30q0 31 26 31q15 0 24 -14t9 -30zM302 26q0 -15 -26 -15q-12 0 -36 4t-33 4h-5q-6 -5 -26 -5q-21 0 -42 5q-4 1 -11 1q-13 0 -35 -3q-3 0 -21 -5
q-14 -3 -26 -3q-21 0 -21 14q0 10 10 15q6 3 23 3h9h9q27 0 38 8q13 27 13 54q0 6 -1 19t-1 20q0 21 6 41q3 11 4 43q0 29 6 42v19q0 32 -1.5 69t-1.5 48q0 10 2 29.5t2 29.5t-2 25.5t-2 19.5l-2 43t-7 35q-7 6 -21 6q-8 0 -22.5 -2.5t-22.5 -2.5q-21 0 -21 12q0 9 10.5 14
t28.5 5t35 -4h18.5h20.5q38 0 62 2q65 6 66 6q23 0 23 -14q0 -18 -18 -18q-4 0 -14 2t-15 2q-24 0 -26 -16q-1 -25 -4 -74q0 -3 -4 -21t-4 -30q0 -4 1 -12t1 -12q0 -14 -6.5 -41.5t-6.5 -48.5v-41q0 -147 12 -247q18 -9 46 -9h10q7 1 9 1q20 0 20 -17z" />
    <glyph glyph-name="Igrave" unicode="&#xcc;" horiz-adv-x="329" 
d="M282 697q0 -6 -7 -12.5t-15 -6.5q-14 8 -75 39l-123 51q-1 3 -1 6q0 10 11.5 22t24.5 16q40 -29 121 -79zM302 26q0 -15 -26 -15q-12 0 -36 4t-33 4h-5q-6 -5 -26 -5q-21 0 -42 5q-4 1 -11 1q-13 0 -35 -3q-3 0 -21 -5q-14 -3 -26 -3q-21 0 -21 14q0 10 10 15q6 3 23 3h9
h9q27 0 38 8q13 27 13 54q0 6 -1 19t-1 20q0 21 6 41q3 11 4 43q0 29 6 42v19q0 32 -1.5 69t-1.5 48q0 10 2 29.5t2 29.5t-2 25.5t-2 19.5l-2 43t-7 35q-7 6 -21 6q-8 0 -22.5 -2.5t-22.5 -2.5q-21 0 -21 12q0 9 10.5 14t28.5 5t35 -4h18.5h20.5q38 0 62 2q65 6 66 6
q23 0 23 -14q0 -18 -18 -18q-4 0 -14 2t-15 2q-24 0 -26 -16q-1 -25 -4 -74q0 -3 -4 -21t-4 -30q0 -4 1 -12t1 -12q0 -14 -6.5 -41.5t-6.5 -48.5v-41q0 -147 12 -247q18 -9 46 -9h10q7 1 9 1q20 0 20 -17z" />
    <glyph glyph-name="Oacute" unicode="&#xd3;" horiz-adv-x="614" 
d="M439 808q0 -12 -11 -17q-43 -15 -109 -42l-72 -36q-4 -2 -9 -2q-16 0 -16 14q0 7 7 12l57 28l110 73q6 4 13 4q12 0 21 -11t9 -23zM574 346q0 -86 -33 -142q-7 -12 -15 -38t-16 -39q-11 -19 -42 -46t-38 -38q-66 -48 -147 -48q-42 0 -76 15q-78 35 -116 91
q-12 17 -22 47.5t-20 45.5q-8 37 -8 64q0 4 1 12t1 11q0 7 -2 20.5t-2 20.5q0 27 14 57q8 16 11 41.5t10 41.5q7 10 47 80q19 33 46 48q25 32 69 47l69 22q16 1 30 1q86 0 126 -47q25 -18 35 -28q17 -17 24 -40q5 -16 30 -38q11 -28 11 -45v-6v-2q0 -6 5.5 -19t5.5 -18
q2 -81 2 -71zM486 353q0 31 -9 72q-7 34 -26 102q-29 81 -79 104q-14 7 -30 7q-24 0 -63 -18h-2q-21 0 -38 -18q-23 -26 -27 -28q-26 -33 -34 -62q-7 -18 -23 -54q-1 -24 -10.5 -68t-9.5 -66q0 -11 5 -32.5t5 -33.5q0 -11 -5 -32.5t-5 -31.5q0 -13 6 -21q9 -12 11 -25
q10 -54 34 -74l35 -34q24 -20 54 -19h4q76 1 97 32q23 13 41 43l28 53q2 13 13.5 40t11.5 44q0 3 -1 9t-1 9q0 11 7 32q11 36 11 70z" />
    <glyph glyph-name="Ocircumflex" unicode="&#xd4;" horiz-adv-x="614" 
d="M456 717q0 -6 -7 -12t-15 -6q-4 0 -8 2q-11 10 -46 38q-31 23 -64 37q-31 -18 -52 -34.5t-41 -38.5q-3 -3 -8 -3q-17 0 -17 14q0 4 4 6q11 7 53 44q28 27 76 68q24 -24 66 -62l57 -48q2 -2 2 -5zM574 346q0 -86 -33 -142q-7 -12 -15 -38t-16 -39q-11 -19 -42 -46t-38 -38
q-66 -48 -147 -48q-42 0 -76 15q-78 35 -116 91q-12 17 -22 47.5t-20 45.5q-8 37 -8 64q0 4 1 12t1 11q0 7 -2 20.5t-2 20.5q0 27 14 57q8 16 11 41.5t10 41.5q7 10 47 80q19 33 46 48q25 32 69 47l69 22q16 1 30 1q86 0 126 -47q25 -18 35 -28q17 -17 24 -40q5 -16 30 -38
q11 -28 11 -45v-6v-2q0 -6 5.5 -19t5.5 -18q2 -81 2 -71zM486 353q0 31 -9 72q-7 34 -26 102q-29 81 -79 104q-14 7 -30 7q-24 0 -63 -18h-2q-21 0 -38 -18q-23 -26 -27 -28q-26 -33 -34 -62q-7 -18 -23 -54q-1 -24 -10.5 -68t-9.5 -66q0 -11 5 -32.5t5 -33.5
q0 -11 -5 -32.5t-5 -31.5q0 -13 6 -21q9 -12 11 -25q10 -54 34 -74l35 -34q24 -20 54 -19h4q76 1 97 32q23 13 41 43l28 53q2 13 13.5 40t11.5 44q0 3 -1 9t-1 9q0 11 7 32q11 36 11 70z" />
    <glyph glyph-name="Ograve" unicode="&#xd2;" horiz-adv-x="614" 
d="M431 722q0 -14 -16 -14q-5 0 -9 2q-20 11 -72 36l-109 42q-11 5 -11 17t9 23t21 11q7 0 13 -4q33 -24 110 -73q20 -8 57 -28q7 -5 7 -12zM574 346q0 -86 -33 -142q-7 -12 -15 -38t-16 -39q-11 -19 -42 -46t-38 -38q-66 -48 -147 -48q-42 0 -76 15q-78 35 -116 91
q-12 17 -22 47.5t-20 45.5q-8 37 -8 64q0 4 1 12t1 11q0 7 -2 20.5t-2 20.5q0 27 14 57q8 16 11 41.5t10 41.5q7 10 47 80q19 33 46 48q25 32 69 47l69 22q16 1 30 1q86 0 126 -47q25 -18 35 -28q17 -17 24 -40q5 -16 30 -38q11 -28 11 -45v-6v-2q0 -6 5.5 -19t5.5 -18
q2 -81 2 -71zM486 353q0 31 -9 72q-7 34 -26 102q-29 81 -79 104q-14 7 -30 7q-24 0 -63 -18h-2q-21 0 -38 -18q-23 -26 -27 -28q-26 -33 -34 -62q-7 -18 -23 -54q-1 -24 -10.5 -68t-9.5 -66q0 -11 5 -32.5t5 -33.5q0 -11 -5 -32.5t-5 -31.5q0 -13 6 -21q9 -12 11 -25
q10 -54 34 -74l35 -34q24 -20 54 -19h4q76 1 97 32q23 13 41 43l28 53q2 13 13.5 40t11.5 44q0 3 -1 9t-1 9q0 11 7 32q11 36 11 70z" />
    <glyph glyph-name="Uacute" unicode="&#xda;" horiz-adv-x="695" 
d="M451 763q0 -3 -1 -5l-122 -51q-21 -10 -76 -39q-8 0 -15.5 6.5t-7.5 12.5l66 36q23 11 55 35q45 33 63 44q14 -4 26 -16.5t12 -22.5zM684 16q0 -17 -28 -17q-8 0 -32 1.5t-37 1.5q-12 0 -36 -4.5t-35 -4.5q-24 0 -26 15q-1 10 -1 21q0 12 1.5 34t1.5 33q0 15 -2 28
q-82 -109 -198 -109q-22 0 -45 5q-42 9 -72 35q-12 10 -42 48q-26 33 -26 51v6v6q0 14 -6.5 33.5t-7.5 31.5q-1 17 -1 36t1.5 54.5t1.5 52.5q0 5 -3 17.5t-3 18.5q0 10 3 30.5t3 30.5v20v22q0 19 1 39q-4 12 -31 12q-6 0 -16.5 -1t-14.5 -1q-25 0 -25 17q0 13 18 13
q12 0 30 -3.5t24 -3.5q3 0 32.5 -1t46.5 -1q19 0 27 1q46 6 53 6q21 0 21 -13q0 -16 -17 -16q-3 0 -11 1t-13 1q-13 0 -22 -6v-7q0 -9 -3 -23q-5 -18 -6 -26l-16.5 -101t-8.5 -91q0 -39 7 -85q6 -14 14 -42q7 -42 7 -43q5 -24 19 -41q16 -34 54 -45q23 -7 74 -7l50 21
q109 51 109 214v15q7 10 7 32v10.5v8.5q0 13 2.5 38t2.5 38q0 10 -3 30t-3 30q0 6 1.5 16.5t1.5 16.5q0 24 -10 100q-12 4 -25 4q-7 0 -21 -1.5t-23 -1.5q-7 0 -14 1q-18 2 -18 16q0 9 7 11q11 3 25 3q11 0 34 -3t34 -3h6q6 5 48.5 6.5t47.5 2.5q9 -8 9 -17q0 -6 -5 -19
t-5 -21q0 -4 1 -11t1 -10q0 -8 -4.5 -19.5t-4.5 -18.5q0 -4 1 -14t1 -15q0 -13 -6 -23q2 -12 2 -24q0 -15 -5.5 -43.5t-5.5 -46.5q0 -8 1 -16q-6 -4 -6 -11q0 -5 3.5 -13.5t3.5 -11.5v0q0 -14 -2 -59q-2 -37 -2 -59q0 -95 17 -170q13 -4 21 -4q4 0 10.5 2t13.5 2
q4 0 14.5 1.5t14.5 1.5q18 0 18 -16z" />
    <glyph glyph-name="Ucircumflex" unicode="&#xdb;" horiz-adv-x="695" 
d="M477 720q-18 -20 -28 -20l-53 40q-31 23 -64 37q-30 -17 -51 -35q-2 -1 -47 -41h-1q-15 -1 -20 16q15 10 59 49l75 67q24 -24 65 -61zM684 16q0 -17 -28 -17q-8 0 -32 1.5t-37 1.5q-12 0 -36 -4.5t-35 -4.5q-24 0 -26 15q-1 10 -1 21q0 12 1.5 34t1.5 33q0 15 -2 28
q-82 -109 -198 -109q-22 0 -45 5q-42 9 -72 35q-12 10 -42 48q-26 33 -26 51v6v6q0 14 -6.5 33.5t-7.5 31.5q-1 17 -1 36t1.5 54.5t1.5 52.5q0 5 -3 17.5t-3 18.5q0 10 3 30.5t3 30.5v20v22q0 19 1 39q-4 12 -31 12q-6 0 -16.5 -1t-14.5 -1q-25 0 -25 17q0 13 18 13
q12 0 30 -3.5t24 -3.5q3 0 32.5 -1t46.5 -1q19 0 27 1q46 6 53 6q21 0 21 -13q0 -16 -17 -16q-3 0 -11 1t-13 1q-13 0 -22 -6v-7q0 -9 -3 -23q-5 -18 -6 -26l-16.5 -101t-8.5 -91q0 -39 7 -85q6 -14 14 -42q7 -42 7 -43q5 -24 19 -41q16 -34 54 -45q23 -7 74 -7l50 21
q109 51 109 214v15q7 10 7 32v10.5v8.5q0 13 2.5 38t2.5 38q0 10 -3 30t-3 30q0 6 1.5 16.5t1.5 16.5q0 24 -10 100q-12 4 -25 4q-7 0 -21 -1.5t-23 -1.5q-7 0 -14 1q-18 2 -18 16q0 9 7 11q11 3 25 3q11 0 34 -3t34 -3h6q6 5 48.5 6.5t47.5 2.5q9 -8 9 -17q0 -6 -5 -19
t-5 -21q0 -4 1 -11t1 -10q0 -8 -4.5 -19.5t-4.5 -18.5q0 -4 1 -14t1 -15q0 -13 -6 -23q2 -12 2 -24q0 -15 -5.5 -43.5t-5.5 -46.5q0 -8 1 -16q-6 -4 -6 -11q0 -5 3.5 -13.5t3.5 -11.5v0q0 -14 -2 -59q-2 -37 -2 -59q0 -95 17 -170q13 -4 21 -4q4 0 10.5 2t13.5 2
q4 0 14.5 1.5t14.5 1.5q18 0 18 -16z" />
    <glyph glyph-name="Ugrave" unicode="&#xd9;" horiz-adv-x="695" 
d="M422 701q0 -6 -7 -12.5t-15 -6.5q-14 8 -75 39l-123 51q-1 3 -1 6q0 10 11.5 22t24.5 16q40 -29 121 -79zM684 16q0 -17 -28 -17q-8 0 -32 1.5t-37 1.5q-12 0 -36 -4.5t-35 -4.5q-24 0 -26 15q-1 10 -1 21q0 12 1.5 34t1.5 33q0 15 -2 28q-82 -109 -198 -109q-22 0 -45 5
q-42 9 -72 35q-12 10 -42 48q-26 33 -26 51v6v6q0 14 -6.5 33.5t-7.5 31.5q-1 17 -1 36t1.5 54.5t1.5 52.5q0 5 -3 17.5t-3 18.5q0 10 3 30.5t3 30.5v20v22q0 19 1 39q-4 12 -31 12q-6 0 -16.5 -1t-14.5 -1q-25 0 -25 17q0 13 18 13q12 0 30 -3.5t24 -3.5q3 0 32.5 -1
t46.5 -1q19 0 27 1q46 6 53 6q21 0 21 -13q0 -16 -17 -16q-3 0 -11 1t-13 1q-13 0 -22 -6v-7q0 -9 -3 -23q-5 -18 -6 -26l-16.5 -101t-8.5 -91q0 -39 7 -85q6 -14 14 -42q7 -42 7 -43q5 -24 19 -41q16 -34 54 -45q23 -7 74 -7l50 21q109 51 109 214v15q7 10 7 32v10.5v8.5
q0 13 2.5 38t2.5 38q0 10 -3 30t-3 30q0 6 1.5 16.5t1.5 16.5q0 24 -10 100q-12 4 -25 4q-7 0 -21 -1.5t-23 -1.5q-7 0 -14 1q-18 2 -18 16q0 9 7 11q11 3 25 3q11 0 34 -3t34 -3h6q6 5 48.5 6.5t47.5 2.5q9 -8 9 -17q0 -6 -5 -19t-5 -21q0 -4 1 -11t1 -10q0 -8 -4.5 -19.5
t-4.5 -18.5q0 -4 1 -14t1 -15q0 -13 -6 -23q2 -12 2 -24q0 -15 -5.5 -43.5t-5.5 -46.5q0 -8 1 -16q-6 -4 -6 -11q0 -5 3.5 -13.5t3.5 -11.5v0q0 -14 -2 -59q-2 -37 -2 -59q0 -95 17 -170q13 -4 21 -4q4 0 10.5 2t13.5 2q4 0 14.5 1.5t14.5 1.5q18 0 18 -16z" />
    <glyph glyph-name="circumflex" unicode="&#x2c6;" horiz-adv-x="414" 
d="M342 676q0 -6 -7 -12t-15 -6q-4 0 -8 2q-11 10 -46 38q-31 23 -64 37q-31 -18 -52 -34.5t-41 -38.5q-3 -3 -8 -3q-17 0 -17 14q0 4 4 6q11 7 53 44q28 27 76 68q24 -24 66 -62l57 -48q2 -2 2 -5z" />
    <glyph glyph-name="tilde" unicode="&#x2dc;" horiz-adv-x="401" 
d="M337 731q-2 -21 -13 -40q-11 -22 -27 -26q-9 -3 -18 -3q-28 0 -69 33.5t-58 33.5q-11 0 -27.5 -11.5t-16.5 -22.5q0 -2 1.5 -6t1.5 -5v-1q-2 -8 -12 -8t-13 6t-3 13q0 4 1 10q6 16 25 34.5t36 24.5q12 4 23 4q27 0 62 -35t57 -38q20 7 26 24q2 3 2 5t-3 6t-3 6v2
q-1 11 10 11q4 0 7 -2q4 -6 11 -15z" />
    <glyph glyph-name="cedilla" unicode="&#xb8;" horiz-adv-x="414" 
d="M283 -120q0 -28 -31 -45q-46 -24 -82 -25h-1q-16 0 -16 12q0 7 8 9q42 9 57.5 21.5t15.5 26.5q0 15 -20 25q-36 18 -36 39q0 23 12 57h28q-11 -45 -11 -47v-3q0 -14 46 -31q30 -11 30 -39z" />
    <glyph glyph-name=".null" horiz-adv-x="0" 
 />
    <glyph glyph-name="HT" horiz-adv-x="0" 
 />
    <glyph glyph-name="nonmarkingreturn" horiz-adv-x="0" 
 />
    <glyph glyph-name="fi" unicode="&#xf001;" horiz-adv-x="634" 
d="M574 610q-7 -36 -49 -66q-5 -2 -10 -2q-17 0 -29 15.5t-12 32.5q0 23 15 39t37 16q44 0 48 -35zM621 18q0 -14 -33 -14q-11 0 -42 2.5t-49 2.5h-5q-7 0 -18 -3t-17 -3h-8q-6 1 -9 1q-14 0 -36 -7t-35 -7q-22 0 -22 12q0 7 9 13.5t43 9t49 10.5q6 87 6 176q0 88 -6 122
q-3 19 -22.5 20t-34.5 1h-19q-33 0 -79 -9.5t-78 -9.5q-17 -7 -17 -21q0 -7 5 -21.5t5 -22.5q0 -7 -3 -13q4 -51 4 -102q0 -252 -89 -410q-67 -76 -141 -76q-16 0 -31 4q-40 12 -63 48q-10 16 -27 64q-1 9 -1 16q0 59 67 99q21 13 59 13q28 0 43 -6q10 -4 17 -15
q34 -42 34 -65q0 -11 -5 -22q-19 -34 -50 -34q-13 0 -13 11q0 6 8 12q9 3 22 17q-1 4 -5 30q-3 20 -8 30q-7 15 -22 21q-10 3 -19 3q-37 0 -66 -42q-18 -75 -18 -85q0 -36 31 -66q14 -13 33 -13q10 0 28 4q22 5 30 6q46 22 72 62q36 57 36 173q0 18 -1 57t-1 58v27
q1 74 -23 242q-18 7 -25 7q-8 0 -19 -5q-47 -8 -63 -8q-28 0 -28 13q0 8 9 12.5t50.5 6t71.5 11.5q-1 17 -1 34q0 123 78 271q54 67 107 86h4q14 0 44.5 7.5t44.5 7.5q19 0 33 -8q26 -15 41 -46q-5 -21 -21 -55q-6 -8 -16 -8t-12 8q-16 69 -56 75q-9 3 -19 3q-16 0 -59 -17
q-32 -13 -50 -51l-26 -69q-10 -37 -10 -76q0 -28 6 -74q9 -66 11 -82q48 3 164 14l96.5 8t70.5 15q3 1 6 1q19 0 19 -18v-2q-18 -37 -22 -90l-4 -97q-6 -16 -6 -33q0 -13 5 -38.5t5 -38.5q0 -15 -4 -28q0 -14 9 -18.5t19 -4.5q6 0 16.5 1.5t16.5 1.5q29 0 29 -16z" />
    <glyph glyph-name="fl" unicode="&#xf002;" horiz-adv-x="647" 
d="M619 -21q0 -7 -8 -9.5t-25 -2.5q-8 0 -43 2h-9q-13 0 -43 -2q-37 -2 -44 -2t-31 -3t-37 -3q-32 0 -32 12q0 10 10 14q6 3 19 3q3 0 8 -1h9q17 0 27 4t16.5 8t9.5 12q13 108 32 332q-86 -12 -233 -25q-17 -7 -17 -21q0 -7 5 -21.5t5 -22.5q0 -7 -3 -13q4 -44 4 -89
q0 -238 -95 -406q-67 -76 -141 -76q-16 0 -31 4q-40 12 -63 48q-10 16 -27 64q-1 11 -1 20q0 34 20 54q10 11 61 41q22 13 51 13q14 0 28.5 -3.5t24.5 -16.5q35 -45 35 -66q0 -11 -5 -22q-35 -35 -49 -35q-13 0 -13 11q0 4 2.5 9t12 7.5t14.5 13.5q-1 4 -5 30q-3 20 -8 30
q-7 15 -22 21q-10 3 -19 3q-37 0 -66 -42q-18 -75 -18 -85q0 -36 31 -66q14 -13 33 -13q10 0 28 4q22 5 30 6q46 22 72 62q36 57 36 173q0 18 -1 57t-1 58v27q1 58 -23 225q-12 5 -25 5q-12 0 -24 -4q-37 -11 -58 -11q-30 0 -30 15q0 9 10.5 14.5t56.5 8.5q52 3 66 7
q-2 21 -2 42q0 121 71 254q29 37 67 72q9 2 43 14q25 9 41 9q17 0 32 -8q26 -15 41 -46q-3 -21 -20 -55q-8 -8 -18 -8q-9 0 -11 8q-14 76 -63 76q-37 0 -57 -35q-11 -18 -16 -39q-9 -29 -16 -47q-9 -32 -9 -65q0 -29 9 -78q11 -61 13 -86q90 6 248 20q1 25 1 57q0 22 -1 59
q-2 48 -2 59v4q3 18 6 54v1q0 15 -4.5 40.5t-4.5 35.5q-1 6 -3 56q-1 34 -12 51q-5 0 -31 -3q-21 -3 -33 -3q-15 0 -25 2.5t-10 12.5q0 9 9 12q15 5 32 5q6 0 19.5 -1t20.5 -1q22 0 63 9t62 9q7 0 7 -7q0 -45 -12 -149q-14 -116 -16 -157q-8 -163 -8 -222q-7 -8 -7 -21
q0 -8 3.5 -24t3.5 -23q0 -5 -1 -8q0 -14 2 -89q1 -56 1 -90v-28q6 -15 20 -15q5 0 17 2t18 2q25 0 25 -15z" />
    <glyph glyph-name="dotlessi" unicode="&#x131;" horiz-adv-x="309" 
d="M296 40q0 -14 -33 -14q-11 0 -42 2.5t-49 2.5h-5q-7 0 -18 -3t-17 -3h-8q-6 1 -9 1q-14 0 -36 -7t-35 -7q-22 0 -22 12q0 7 9 13.5t43 9t49 10.5q6 87 6 176q0 88 -6 122q-4 22 -27 22h-5q-8 0 -25 -3t-26 -3q-24 0 -24 13q0 9 25 15q19 4 34 4h11q7 -1 11 -1q6 0 17 1
t16 1t13 -1t12 -1q25 0 52 18q4 1 8 1q15 0 17 -20q-18 -37 -22 -90l-4 -97q-6 -16 -6 -33q0 -13 5 -38.5t5 -38.5q0 -15 -4 -28q0 -14 9 -18.5t19 -4.5q6 0 16.5 1.5t16.5 1.5q29 0 29 -16z" />
    <glyph glyph-name="ring" unicode="&#x2da;" horiz-adv-x="314" 
d="M240 714q0 -32 -23.5 -55t-54.5 -23q-32 0 -56 23t-24 55t24 55.5t56 23.5q31 0 54.5 -23.5t23.5 -55.5zM214 714q0 22 -15.5 37.5t-36.5 15.5q-22 0 -38 -15.5t-16 -37.5q0 -21 16 -36.5t38 -15.5q21 0 36.5 15.5t15.5 36.5z" />
    <glyph glyph-name="hungarumlaut" unicode="&#x2dd;" horiz-adv-x="314" 
d="M288 768q0 -3 -1 -5q-45 -78 -92 -140q-4 -6 -15 -6q-16 0 -16 8v2q24 68 53 139q6 16 38 16q33 0 33 -14zM148 748q0 -2 -1 -4q-34 -68 -68 -119q-4 -7 -16 -7q-13 0 -13 8v1q6 30 31 116q5 17 41 17q26 0 26 -12z" />
    <glyph glyph-name="caron" unicode="&#x2c7;" horiz-adv-x="414" 
d="M338 777q0 -4 -4 -6q-11 -7 -53 -44l-76 -68q-24 24 -66 62l-57 48q-2 2 -2 5q0 6 7 12t15 6q4 0 8 -2q11 -10 46 -38q31 -23 64 -37q31 18 52 34.5t41 38.5q3 3 8 3q17 0 17 -14z" />
    <glyph glyph-name="glyph178" horiz-adv-x="259" 
 />
  </font>
</defs>
</svg>
