<?xml version="1.0" standalone="no"?>
<!DOCTYPE svg PUBLIC "-//W3C//DTD SVG 1.1//EN" "http://www.w3.org/Graphics/SVG/1.1/DTD/svg11.dtd" >
<svg>
<metadata>
Created by FontForge 20090622 at Mon Oct 26 05:40:40 2015
 By deploy user
Copyright &#194;&#169; 1995, 2002 Adobe Systems Incorporated.  All Rights Reserved.
</metadata>
<defs>
<font id="NeueHammerUnzialeLTStd" horiz-adv-x="722" >
  <font-face 
    font-family="Neue Hammer Unziale LT Std"
    font-weight="400"
    font-stretch="normal"
    units-per-em="1000"
    panose-1="0 0 5 0 0 0 0 0 0 0"
    ascent="711"
    descent="-289"
    x-height="455"
    cap-height="709"
    bbox="-167 -241 1253 917"
    underline-thickness="50"
    underline-position="-50"
    unicode-range="U+0020-U+FB02"
  />
<missing-glyph horiz-adv-x="500" 
d="M0 0v700h500v-700h-500zM250 395l170 255h-340zM280 350l170 -255v510zM80 50h340l-170 255zM50 605v-510l170 255z" />
    <glyph glyph-name="f_f.alt" unicode="&#xe068;&#xe068;" horiz-adv-x="1037" 
d="M1021 77v-3q-19 -36 -33 -78q-32 2 -81 3q-38 1 -238 1q0 -71 5 -216q-87 -4 -120 -7q9 101 9 223h-340q1 -135 7 -216q-79 -2 -121 -7q5 94 7 211v6q1 5 1 6q-81 0 -94 -1q-6 0 -42 -3l-3 4l25 62q13 -1 55.5 -1.5t58.5 0.5q0 187 -5 250q0 6 -5 53t-5 56
q0 20 14.5 33.5t37 18.5t34 6t21.5 1q3 0 19.5 -1t19.5 -1q12 0 31 15q57 44 123 44q59 0 146 -42q-40 -55 -54 -87q-106 53 -171 53q-51 0 -68.5 -18.5t-21.5 -50.5q-10 -65 -10 -219q0 -102 -1 -111h341q-1 14 -1 85.5v82.5q-1 76 -10 149q-3 42 -3 43q0 22 16 34
q31 24 84 24q4 0 25 -1t23 -1q10 0 19 6q23 17 38.5 26t46.5 18t68 9q79 0 166 -42l-54 -87q-111 54 -201 54q-57 0 -78 -20t-26 -75q-5 -46 -7 -154t0 -152q160 -3 253 3q53 3 99 14z" />
    <glyph glyph-name="t_t" unicode="tt" horiz-adv-x="926" 
d="M273 456h301q20 43 53.5 89.5t53.5 69.5l220 14l3 -5q-50 -27 -75.5 -42.5t-63 -49t-68.5 -76.5q34 -3 93 0q86 1 105.5 2t38.5 7l2 -4l-38 -58q-29 2 -113 2.5t-117 -0.5q-35 -89 -35 -169q0 -84 37 -143t96 -59q66 0 147 73l5 -2l-43 -105h-250q-27 0 -39 10
q-31 26 -51.5 79.5t-20.5 122.5q0 99 37 193h-305q-37 -66 -37 -174q0 -78 36.5 -137.5t97.5 -59.5q43 0 102 39q25 17 44 34l5 -2l-44 -105h-249q-27 0 -41 11q-5 4 -10.5 10t-17.5 24.5t-21 39.5t-16 56t-7 74q0 84 39 190q-48 0 -72 -1q-31 0 -48 -7l-4 2l32 59
q32 -2 115 -2q55 103 106 159l221 14l2 -5q-44 -19 -103.5 -62.5t-102.5 -105.5z" />
    <glyph glyph-name="t_t.alt" unicode="&#xe0ad;&#xe0ad;" horiz-adv-x="926" 
d="M939 461l-46 -56q-6 0 -97.5 0.5t-107.5 -0.5q-62 -107 -62 -210q0 -46 13 -80t33 -51t39.5 -25t38.5 -8q64 0 158 88h5l-42 -119h-73q-43 2 -72 0q-70 -7 -73 -7q-79 0 -110 45q-35 45 -35 132q0 106 60 235h-305q-31 -42 -47 -101.5t-16 -107.5q0 -42 11 -74t26 -48.5
t34.5 -27t31.5 -13t21 -2.5q35 0 83 29.5t75 58.5h5l-40 -119h-120q-3 0 -11.5 -0.5t-20.5 -1.5t-21 -1q-44 -4 -51 -4q-141 0 -141 177q0 112 60 235q-101 0 -152 -5l-4 5l47 56q59 -9 134 -4q19 34 62 92q12 0 81.5 5.5t88.5 8.5v-3q-37 -30 -53 -48q-47 -53 -49 -55h297
q32 58 61 92l171 14v-3q-21 -14 -51.5 -45t-51.5 -58q14 -1 84.5 -0.5t75.5 0.5q27 1 55 7z" />
    <glyph glyph-name="f_f" unicode="ff" horiz-adv-x="1037" 
d="M657 91h161q60 0 95 9l4 -4l-35 -59q-28 2 -118 2h-107q-1 -20 -0.5 -61t1 -78t1.5 -68t1 -32q-79 -6 -133 -21l-4 4q22 76 26 256h-317q0 -19 1.5 -120.5t1.5 -118.5q-66 -2 -134 -21l-4 4q31 98 26 256q-80 0 -114 -10l-4 4l27 59q11 0 48 -0.5t45 -0.5q-1 12 -1 74v73
q-5 145 -5 207q0 70 12.5 90.5t53.5 20.5q31 0 60 -7q32 -8 37 -8q3 0 52 19q34 17 75 17q31 0 69.5 -20.5t38.5 -34.5q0 -5 -23 -36t-28 -31t-14 9q-75 60 -112 60q-8 0 -18 -3.5t-25.5 -13t-28.5 -34t-20 -59.5q-4 -19 -6.5 -43t-4 -42t-2.5 -54.5t-1.5 -52.5t-1 -65
t-0.5 -66h317q1 73 -3 197q-3 124 -3 146q0 75 10 98t55 23q25 0 87 -13q1 0 5 -0.5t5 -0.5q5 0 38 13q55 22 86 22q26 0 53 -11.5t42.5 -24t15.5 -18.5q0 -5 -22 -36t-30 -31q-3 0 -31 22q-56 47 -94 47q-6 0 -12.5 -1t-20.5 -8.5t-25 -21t-22.5 -42t-16.5 -68.5
q-6 -48 -8 -159t-1 -133z" />
    <glyph glyph-name="f_i" unicode="fi" horiz-adv-x="776" 
d="M690 2l-4 -3q-70 5 -72 5q-28 0 -71 -5l-3 3q12 49 17 110q8 100 8 159q0 75 -6.5 100t-26.5 45q-2 1 -10.5 8l-15.5 13t-9 8l1 5q16 1 93.5 10t97.5 13q-11 -103 -11 -288q0 -123 12 -183zM743 651v-4q-10 -7 -29.5 -19l-33.5 -21l-20 -13q-39 -29 -50 -36l-64 19l-1 4
q22 22 54 51l59 52zM230 90h104q108 0 141 7l3 -3l-35 -58q-101 3 -213 3q-1 -25 3 -239q-66 -6 -135 -21l-3 3q27 119 27 257q-6 0 -39 -1t-39 -2q-23 -2 -38 -8l-4 4l27 59q18 -1 93 -1q1 25 -0.5 109.5t-3.5 163.5t-2 81q0 71 13 91.5t56 20.5q26 0 67 -10q23 -5 27 -5
q6 0 52 19q38 16 63 16q27 0 54.5 -11t42.5 -23.5t15 -19.5q0 -6 -33 -48q-15 -19 -21 -19t-16 10q-57 59 -99 59q-6 0 -13 -1.5t-20 -9t-24 -20.5t-21.5 -39.5t-16.5 -62.5q-12 -74 -12 -301z" />
    <glyph glyph-name="f_l" unicode="fl" horiz-adv-x="801" 
d="M799 73l-33 -73q-40 -3 -94 4q-6 1 -34 9t-31 9q-40 -10 -80 -37l-14 8q22 112 22 391q0 197 -12 248q-7 27 -22 46l4 5l166 20l5 -4q-14 -50 -23 -196q-6 -102 -6 -244q0 -136 8 -172q6 -25 44 -25q37 0 96 15zM230 90h104q108 0 141 7l3 -3l-35 -58q-101 3 -213 3
q-1 -25 3 -239q-66 -6 -135 -21l-3 3q27 119 27 257q-6 0 -39 -1t-39 -2q-23 -2 -38 -8l-4 4l27 59q18 -1 93 -1q1 25 -0.5 109.5t-3.5 163.5t-2 81q0 71 13 91.5t56 20.5q26 0 67 -10q23 -5 27 -5q6 0 52 19q38 16 63 16q27 0 54.5 -11t42.5 -23.5t15 -19.5q0 -6 -33 -48
q-15 -19 -21 -19t-16 10q-57 59 -99 59q-6 0 -13 -1.5t-20 -9t-24 -20.5t-21.5 -39.5t-16.5 -62.5q-12 -74 -12 -301z" />
    <glyph glyph-name=".notdef" horiz-adv-x="500" 
d="M0 0v700h500v-700h-500zM250 395l170 255h-340zM280 350l170 -255v510zM80 50h340l-170 255zM50 605v-510l170 255z" />
    <glyph glyph-name=".null" horiz-adv-x="0" 
 />
    <glyph glyph-name="nonmarkingreturn" horiz-adv-x="333" 
 />
    <glyph glyph-name="space" unicode=" " horiz-adv-x="389" 
 />
    <glyph glyph-name="exclam" unicode="!" horiz-adv-x="407" 
d="M109 163l-2 4q30 105 60 257q38 200 38 249q0 18 -3 33l4 3q40 -2 82 -2q23 0 53 2l2 -3q-13 -50 -133 -543q-27 3 -56 3q-18 0 -45 -3zM268 2l-4 -6q-35 5 -90 5q-33 0 -60 -3q-15 53 -32 85l3 3q30 -7 94 -7q24 0 54 2q3 -14 16 -42.5t19 -36.5z" />
    <glyph glyph-name="quotedbl" unicode="&#x22;" horiz-adv-x="444" 
d="M118 398l-27 189q-8 57 -8 67q0 32 17 46t39 14q23 0 39 -15.5t16 -45.5q0 -16 -7 -63l-28 -192h-41zM285 397l-27 190q-8 54 -8 68q0 34 18 47t38 13q23 0 39 -15t16 -46q0 -17 -7 -65l-28 -192h-41z" />
    <glyph glyph-name="numbersign" unicode="#" horiz-adv-x="632" 
d="M200 0h-100l35 193h-86v85h102l26 142h-86v86h102l36 195h100l-36 -195h108l36 195h100l-36 -195h86l1 -86h-103l-26 -142h87v-85h-103l-35 -193h-101l36 193h-108zM251 278h108l26 142h-108z" />
    <glyph glyph-name="dollar" unicode="$" horiz-adv-x="741" 
d="M394 679v-266q105 10 133 10q66 0 100 -25q56 -39 56 -128q0 -74 -37.5 -134.5t-100.5 -96.5q-46 -27 -151 -40q0 -55 4 -103h-56q1 10 6 104l-83 -3q-21 -1 -38 -1q-95 0 -131 39q-30 34 -30 79q0 43 16 85q60 -2 144 6l4 -6q-23 -36 -23 -67q0 -39 33.5 -72t107.5 -30
v314q-8 0 -52.5 -1.5t-51.5 -1.5q-14 0 -30 1.5t-43.5 10t-47.5 22.5t-35.5 43t-15.5 67q0 23 6.5 49t25.5 57t48.5 55.5t80.5 41.5t116 18q0 64 -5 99h54q-3 -39 -4 -97q4 0 71 4h15.5t12 0.5t5.5 0.5q24 0 39 -1t42.5 -7t43.5 -17.5t29.5 -36t13.5 -58.5q0 -13 -2 -27
q-123 -1 -140 -3l-4 5q4 20 4 28q0 28 -17.5 49.5t-41.5 27.5q-25 6 -71 6zM348 411v263q-58 -12 -100.5 -59t-42.5 -106q0 -107 143 -98zM394 348v-313q67 15 110 77.5t43 132.5q0 105 -112 105q-13 0 -41 -2z" />
    <glyph glyph-name="percent" unicode="%" horiz-adv-x="1199" 
d="M273 706q6 1 40 8q22 4 43 4q86 0 140.5 -57.5t54.5 -142.5q0 -74 -42.5 -131t-105.5 -79q-25 -9 -68.5 -15t-72 -8t-37.5 -2q-57 0 -97.5 21.5t-59.5 54.5t-27 62.5t-8 56.5q0 52 25.5 104.5t83.5 84.5q46 27 131 39zM125 485q0 -72 36 -116q52 -63 124 -63
q68 0 121 59.5t53 143.5q0 82 -51 131t-108 49q-76 0 -125.5 -66t-49.5 -138zM888 417q6 1 40 8q22 4 43 4q86 0 140.5 -57.5t54.5 -142.5q0 -74 -42.5 -131.5t-105.5 -79.5q-25 -9 -69 -14.5t-71.5 -7.5t-37.5 -2q-57 0 -97.5 21.5t-59.5 54.5t-27 62.5t-8 56.5
q0 52 25.5 105t83.5 86q43 24 131 37zM740 196q0 -73 36 -117q52 -63 124 -63q68 0 121 60t53 144q0 82 -51 131t-108 49q-76 0 -125.5 -66t-49.5 -138zM437 -18h-82l-5 4q8 12 70.5 117l78.5 133l165.5 302.5t97.5 189.5h86l4 -6q-46 -66 -183 -305.5t-232 -434.5z" />
    <glyph glyph-name="ampersand" unicode="&#x26;" horiz-adv-x="1018" 
d="M1004 481l-56 -104q-45 6 -132 6q-16 0 -23.5 -1t-15 -7t-11.5 -18q-12 -35 -20 -84.5t-8 -75.5q0 -67 32.5 -116t85.5 -49q44 0 112 49l5 -3l-43 -78l-85 -1q-7 0 -42 -2.5t-40 -2.5q-50 0 -80 24.5t-34 70.5q-55 -81 -227 -90q-16 0 -51 -5q-48 -3 -66 -3
q-75 0 -119.5 20t-71.5 62q-39 60 -39 162q0 22 3 50t13 81.5t38 103.5t69 81q63 48 154 55q8 0 64 5t67 5q43 0 72 -12t40.5 -30.5t15.5 -31.5t4 -23q0 -50 -53 -83q115 0 199 3q111 4 153.5 12.5t83.5 34.5zM229 413q264 -8 264 91q0 33 -29 54.5t-68 21.5q-56 0 -100 -48
t-67 -119zM659 383h-440q-16 -64 -16 -125q0 -59 16 -104t38.5 -68t51.5 -37.5t49.5 -18t38.5 -3.5q51 0 105 28t88 85q43 72 69 243z" />
    <glyph glyph-name="quotesingle" unicode="'" horiz-adv-x="278" 
d="M118 398l-27 189q-8 53 -8 68q0 33 17.5 46.5t38.5 13.5q23 0 39 -15.5t16 -44.5q0 -11 -8 -66l-27 -191h-41z" />
    <glyph glyph-name="parenleft" unicode="(" horiz-adv-x="370" 
d="M317 -139l-86 1q-1 2 -38 61q-106 173 -106 368q0 219 150 435h85q-45 -61 -90 -163q-53 -125 -53 -275q0 -72 12 -135.5t36.5 -120.5t41.5 -89t48 -82z" />
    <glyph glyph-name="parenright" unicode=")" horiz-adv-x="370" 
d="M53 727l86 -1q68 -103 105.5 -204.5t37.5 -223.5q0 -221 -149 -435h-86q53 75 89 160q55 126 55 276q0 149 -60 288q-38 84 -78 140z" />
    <glyph glyph-name="asterisk" unicode="*" horiz-adv-x="611" 
d="M518 344l-2 -4h-122q-26 38 -98 134l-123 -134h-100l-2 4q24 17 89 75.5t77 70.5q-114 0 -196 -11l-4 4l55 83q10 -1 37 -3t32 -2q62 -3 76 -3q-17 21 -66 74.5t-69 72.5l2 4h124q39 -60 94 -131q16 16 121 131h19.5h31h30.5h15l2 -4q-34 -24 -82 -70l-84 -78
q116 2 201 9l3 -4l-28.5 -41t-26.5 -39q-120 7 -141 8q77 -89 135 -146z" />
    <glyph glyph-name="plus" unicode="+" horiz-adv-x="593" 
d="M242 0v209h-205v101h205v209h109v-209h205v-101h-205v-209h-109z" />
    <glyph glyph-name="comma" unicode="," horiz-adv-x="389" 
d="M31 -18l-5 6q54 71 126 217q43 86 93 228l119 30l5 -5q-78 -133 -158 -307q-5 -10 -18.5 -42l-28.5 -67.5l-17 -40.5q-11 -2 -60.5 -10z" />
    <glyph glyph-name="hyphen" unicode="-" horiz-adv-x="444" 
d="M383 321l4 -6q-27 -47 -44 -83q-40 6 -133 6q-111 0 -149 -9l-3 4q23 38 44 88q66 -6 134 -6q88 0 147 6z" />
    <glyph glyph-name="period" unicode="." horiz-adv-x="389" 
d="M309 80l2 -6q-46 -44 -67 -89q-74 31 -154 44l-2 6q42 45 71 91q47 -23 150 -46z" />
    <glyph glyph-name="slash" unicode="/" horiz-adv-x="444" 
d="M101 0h-101l-4 3q5 10 34 58l33 55q86 150 162.5 298t110 219t34.5 77l101 -1l3 -4q-217 -358 -373 -705z" />
    <glyph glyph-name="zero" unicode="0" horiz-adv-x="963" 
d="M451 697q5 1 66 14q32 7 72 7q144 0 234.5 -96t90.5 -238q0 -124 -76 -226.5t-212 -136.5q-42 -10 -132.5 -19.5t-123.5 -9.5q-77 0 -136.5 25t-92.5 61t-54.5 83t-28.5 84.5t-7 71.5q0 54 14.5 107t57.5 113t110 97q33 19 73.5 32t64 17.5t80.5 13.5zM194 331
q0 -118 62 -195q40 -49 95.5 -77t116.5 -28q130 0 216.5 102.5t86.5 236.5q0 131 -82 216t-196 85q-58 0 -108.5 -23t-84.5 -59.5t-58.5 -82t-36 -90.5t-11.5 -85z" />
    <glyph glyph-name="one" unicode="1" horiz-adv-x="537" 
d="M533 69l-24 -70q-104 4 -229 4q-211 0 -265 -4l21 70q47 -7 175 -7q14 67 14 378q0 137 -7 187q-40 -3 -47 -4q-115 -16 -137 -18l-6 6l23 65q227 15 310 34l10 -8q-13 -53 -20 -195t-7 -253q0 -130 8 -193q18 1 172 7h6z" />
    <glyph glyph-name="two" unicode="2" horiz-adv-x="704" 
d="M699 113l4 -6l-65 -109q-172 7 -352 7q-38 0 -318 -7l-4 10q197 80 326 194t166 207q-51 -35 -119.5 -62t-108.5 -27q-72 0 -121 52.5t-49 124.5q0 88 66 141.5t146 62.5q130 17 142 17q25 0 52 -5.5t56 -20.5t52 -37t37.5 -58.5t14.5 -81.5q0 -121 -108 -237.5
t-275 -208.5q163 3 303 15q101 9 155 29zM194 514q0 -39 33.5 -82.5t90.5 -43.5q31 0 77.5 20.5t69.5 45.5q14 15 14 61q0 72 -41.5 118t-102.5 46q-17 0 -36 -5.5t-45 -20.5t-43 -51t-17 -88z" />
    <glyph glyph-name="three" unicode="3" horiz-adv-x="704" 
d="M78 10l-20 106l8 5q47 -38 117 -60t122 -22q80 0 134 49t54 123q0 82 -56 117q-50 31 -129 31q-35 0 -103 -11.5t-122 -35.5l-5 9q53 40 171 155t157 163q-17 0 -65.5 -1.5t-132 -8.5t-130.5 -17l-5 5l50 86q1 0 55 -0.5t97 -0.5q165 0 195 1q89 3 197 15l4 -9
q-51 -34 -161.5 -137t-173.5 -168q60 6 78 6q123 0 179 -54q47 -44 47 -113q0 -104 -106 -178.5t-266 -74.5q-101 0 -190 20z" />
    <glyph glyph-name="four" unicode="4" horiz-adv-x="778" 
d="M749 250l3 -5l-44 -97q-19 0 -67 2t-67 2q0 -107 10 -147l-3 -6q-38 4 -73 4q-41 0 -79 -4l-4 6q20 58 23 149q-19 0 -118 0.5t-116 0.5q-4 0 -205 -8l-6 10q38 37 188 228.5l246 323.5q3 0 53 -2t63 -2q38 0 61 4l4 -4q-18 -99 -28 -221v-9q-1 -9 -2.5 -24t-2.5 -34.5
t-2.5 -42.5l-3 -46.5t-2.5 -47.5t-1 -44q111 0 173 14zM166 231q66 -3 107 -3q13 0 90 1.5t92 1.5q15 290 12 396q-101 -113 -147 -173t-154 -223z" />
    <glyph glyph-name="five" unicode="5" horiz-adv-x="685" 
d="M23 3l-11 101l5 4q84 -64 188 -64q72 0 129.5 42t57.5 124q0 43 -20.5 72t-50.5 41q-42 18 -98 18q-65 0 -163 -28l-5 6q69 70 153.5 195t113.5 180l5 3q16 1 83 1q55 2 81 4l4 -3q61 -107 171 -245l-3 -5l-143 -2l-108 170l-149 -229q38 6 82 6q55 0 95.5 -17t59 -38
t29.5 -49.5t12 -41t1 -24.5q0 -128 -143 -193q-80 -37 -225 -37q-100 0 -151 9z" />
    <glyph glyph-name="six" unicode="6" horiz-adv-x="778" 
d="M263 429l-2 15q50 26 114 46t110 20q82 0 154.5 -68.5t72.5 -175.5q0 -38 -11.5 -75t-36.5 -73.5t-73 -65.5t-113 -43q-100 -20 -164 -20q-61 0 -109 18.5t-77 46.5t-48 65t-26 71.5t-7 69.5q0 59 18.5 112t47.5 91.5t72.5 74.5t85 60t94.5 49q44 21 70.5 30.5
t134.5 42.5q107 -57 181 -87l42 -17l-2 -8q-230 0 -386 -43q-127 -35 -178 -134q-36 -69 -36 -152q0 -61 20.5 -112t51.5 -80t63.5 -45t60.5 -16q70 0 126 61t56 149q0 91 -59 153.5t-149 62.5q-45 0 -98 -23z" />
    <glyph glyph-name="seven" unicode="7" 
d="M28 -1l-3 10q45 42 140.5 155t205.5 266l71 101.5t71 100.5q-326 0 -453 -36l-4 5l61 105q100 -5 225 -5q168 0 258 6h42q66 3 109 7l6 -10q-115 -104 -301.5 -357t-234.5 -348q-38 4 -110 4q-53 0 -83 -4z" />
    <glyph glyph-name="eight" unicode="8" horiz-adv-x="704" 
d="M473 339q50 -10 85 -30q32 -19 52.5 -53t20.5 -74q0 -64 -50 -114.5t-151 -63.5q-114 -13 -156 -13q-18 0 -34 1t-51 8t-58.5 19.5t-43 40t-19.5 65.5q0 101 157 151q-169 38 -169 200q0 70 38 121t95 76.5t130 33.5q9 2 65 6t77 4q93 0 144 -50.5t51 -123.5
q0 -128 -183 -204zM279 265q-89 -40 -89 -117q0 -57 41.5 -90.5t101.5 -33.5q61 0 109.5 34.5t48.5 91.5q0 73 -89 95q-9 2 -61.5 10t-61.5 10zM418 350v-1q20 11 35 22.5t34.5 31.5t30 49t10.5 64q0 74 -44.5 119.5t-117.5 45.5t-123.5 -48.5t-50.5 -127.5q0 -82 60 -116
q26 -15 55 -21.5t111 -17.5z" />
    <glyph glyph-name="nine" unicode="9" horiz-adv-x="796" 
d="M536 291l3 -19q-51 -40 -110.5 -56.5t-105.5 -16.5q-108 0 -170.5 75.5t-62.5 168.5q0 87 55.5 154.5t147.5 92.5q105 28 189 28q61 0 108.5 -18t76.5 -45.5t48.5 -65t26.5 -73t7 -71.5q0 -57 -17.5 -108t-40 -84t-57.5 -64.5t-53.5 -44.5t-45.5 -29q-149 -91 -304 -127
q-24 13 -136 67q-4 2 -86 36l2 9q101 -5 242 13t220 60q43 23 72.5 60t41.5 78t16 69t4 53q0 111 -62.5 179.5t-132.5 68.5q-68 0 -124 -60.5t-56 -151.5q0 -92 56.5 -153.5t128.5 -61.5q71 0 119 37z" />
    <glyph glyph-name="colon" unicode=":" horiz-adv-x="407" 
d="M340 425l1 -7q-35 -29 -66 -79q-63 27 -150 48v7q34 29 65 77q73 -33 150 -46zM292 78l1 -7q-42 -40 -63 -80q-115 41 -149 48l-2 7q45 48 65 79q61 -32 148 -47z" />
    <glyph glyph-name="semicolon" unicode=";" horiz-adv-x="407" 
d="M45 -10l-2 6q33 27 99 111t99 158q8 2 57 10t57 10l4 -6l-63 -90q-19 -27 -72 -95.5l-73 -95.5q-8 -1 -53 -4t-53 -4zM376 416l1 -6q-64 -33 -98 -58q-70 35 -132 51l-2 6q58 36 84 62q60 -31 147 -55z" />
    <glyph glyph-name="less" unicode="&#x3c;" horiz-adv-x="593" 
d="M37 207v105l519 200v-112l-382 -140l382 -140v-113z" />
    <glyph glyph-name="equal" unicode="=" horiz-adv-x="593" 
d="M37 319v101h519v-101h-519zM37 100v101h519v-101h-519z" />
    <glyph glyph-name="greater" unicode="&#x3e;" horiz-adv-x="593" 
d="M556 207l-519 -200v113l382 140l-382 140v112l519 -200v-105z" />
    <glyph glyph-name="question" unicode="?" horiz-adv-x="463" 
d="M84 584l-5 2l-3 37q46 32 72.5 48.5t65 31.5t71.5 15q38 0 70 -24t32 -68q0 -33 -21 -63.5t-105 -124.5q-52 -59 -52 -105q0 -36 25 -57t56 -21q50 0 107 37l6 -4l-6 -38q-59 -29 -84.5 -40.5t-61 -22t-65.5 -10.5q-51 0 -79 24t-28 59q0 22 13 47t27 42.5t49 57.5
q47 54 66.5 85t19.5 60q0 30 -22 51t-58 21q-39 0 -90 -40zM332 67v-6q-62 -47 -86 -71q-67 30 -142 43l-2 6q43 28 79 68q27 -12 75.5 -24.5t75.5 -15.5z" />
    <glyph glyph-name="at" unicode="@" horiz-adv-x="748" 
d="M634 118l20 -33q-135 -92 -278 -92q-150 0 -257.5 98t-107.5 244q0 74 31 143.5t83.5 122.5t129 85t161.5 32q143 0 232.5 -82.5t89.5 -207.5q0 -106 -63.5 -190t-145.5 -84q-35 0 -61 18.5t-31 61.5q-41 -80 -115 -80q-55 0 -90.5 42t-35.5 103q0 85 63 158.5t139 73.5
q73 0 89 -61l15 49h94q-52 -176 -70 -242q-7 -26 -7 -39q0 -40 38 -40q48 0 95 70t47 157q0 111 -77 180t-195 69q-142 0 -243.5 -102t-101.5 -240q0 -127 87 -211t214 -84q131 0 251 81zM421 487q-13 0 -22.5 -3t-28.5 -23.5t-38 -59.5q-38 -78 -38 -139q0 -63 47 -63
q48 0 82 82q14 33 27.5 80t13.5 72q0 26 -13 40t-30 14z" />
    <glyph glyph-name="A" unicode="A" 
d="M711 3l-2 -4q-57 3 -90 3q-26 0 -92 -3l-3 4q-11 69 -24 112l-34 115q-25 0 -125 2q-13 0 -65 -1.5t-67 -0.5q-2 -7 -26.5 -79t-27.5 -86q-7 -28 -12 -62l-4 -3q-48 4 -75 4q-14 0 -54 -4l-3 4q34 39 92 170q27 61 73 180l79.5 209t33.5 93q0 10 -33 47l3 6
q8 0 63.5 -1.5t66.5 -1.5q10 0 29 1.5t32 1.5l4 -5q43 -192 149 -478q42 -112 63 -154t49 -69zM342 575l-50 -126.5t-63 -165.5q34 -2 122 -2q75 0 98 2q-67 205 -107 292z" />
    <glyph glyph-name="B" unicode="B" horiz-adv-x="704" 
d="M80 0l-2 4q15 31 19 82q8 91 8 360q0 167 -9 208q-6 27 -39 52l2 5q54 -6 123 -6q31 0 140.5 3t124.5 3q52 0 74.5 -3.5t41.5 -17.5q61 -44 61 -127q0 -44 -18.5 -79t-50 -57t-61 -35t-64.5 -22q201 -22 201 -174q0 -53 -27.5 -97t-71.5 -69q-57 -33 -135 -33q-7 0 -91 3
q-136 4 -140 4q-54 0 -86 -4zM225 376q28 -2 50 -2q71 0 116 20q38 16 60 47t26.5 53t4.5 44q0 12 -1.5 24.5t-10 34.5t-23 38.5t-44 29t-69.5 12.5q-52 0 -85 -27q-15 -13 -20 -106q-1 -12 -2.5 -83.5t-1.5 -84.5zM225 340q0 -155 2 -205.5t11 -69.5q16 -31 89 -31
q48 0 82 17.5t50.5 44.5t23.5 52.5t7 49.5q0 34 -9.5 60.5t-29 41t-37.5 24t-46 13t-43 4.5t-40 1q-30 0 -60 -2z" />
    <glyph glyph-name="C" unicode="C" horiz-adv-x="870" 
d="M851 609l-130 -49l-4 1q-31 45 -78.5 71.5t-79.5 32.5t-61 6q-46 0 -96 -21.5t-95.5 -61t-75 -106.5t-29.5 -147q0 -142 82 -223.5t202 -81.5q72 0 166 43t169 101l3 -3q-30 -82 -59 -172h-247q-4 0 -50 -2t-50 -2q-110 0 -168.5 18.5t-110.5 79.5q-78 92 -78 231
q0 30 4.5 61.5t19.5 75.5t39.5 81t70 71.5t104.5 52.5q53 16 154 34t147 18q152 0 252 -104z" />
    <glyph glyph-name="D" unicode="D" horiz-adv-x="870" 
d="M62 -1l-3 8q26 26 32 44q15 42 15 381q0 182 -11 225q-6 19 -35 46l2 6q6 0 52 -2t60 -2q16 0 76 2t80 2q44 1 91 2.5l76 2.5t39 1q27 0 43 -1.5t43 -7.5t52 -21.5t49 -40.5q87 -90 87 -250q0 -71 -23 -136.5t-44.5 -96.5t-43.5 -54q-29 -31 -63 -52t-62 -32t-67 -16.5
t-63.5 -6.5t-65.5 -1q-34 0 -121 2t-121 2q-2 0 -74 -4zM669 395q0 124 -79 205t-186 81q-105 0 -141.5 -48.5t-36.5 -148.5q0 -47 -1 -140t-1 -103q0 -124 10 -154q9 -27 48 -40.5t77 -13.5q125 0 217.5 99.5t92.5 262.5z" />
    <glyph glyph-name="E" unicode="E" horiz-adv-x="611" 
d="M557 736l-37 -108q-33 5 -238 5q-16 0 -23 -0.5t-14.5 -4.5t-10.5 -12q-7 -22 -7 -233q10 -1 107 0t110 2q22 2 37.5 6.5t23.5 9.5t24 17l4 -3l-10 -105q-45 5 -108 7q-14 0 -94 0.5t-94 1.5q-4 -176 2 -225q2 -14 12.5 -16.5t55.5 -2.5q141 0 175 7q30 6 60 33l5 -3
l-6 -118q-1 0 -71 5q-60 4 -253 4q-98 0 -125 -4l-4 5q14 26 20 77q8 83 8 264q0 248 -5 291q-6 49 -21 68l2 5q63 -4 206 -4q139 0 176 4q50 6 88 30z" />
    <glyph glyph-name="F" unicode="F" horiz-adv-x="593" 
d="M562 736l-37 -109q-1 0 -12 1t-41.5 2t-79.5 1h-110q-23 0 -30 -5t-10 -22q-8 -51 -10 -235q181 0 200 1q66 2 101 34l5 -3l-14 -104q-83 6 -293 8q-1 -37 -0.5 -69t1.5 -67.5t1 -36.5q4 -85 22 -129l-3 -4q-42 4 -96 4q-46 0 -72 -4l-2 3q14 39 19 77q9 78 9 357
q0 172 -10 227q-5 22 -18 42l3 4q68 -4 176 -4q181 0 213 4q41 5 83 30z" />
    <glyph glyph-name="G" unicode="G" horiz-adv-x="944" 
d="M860 591l-141 -21l-6 4q-46 99 -170 99q-64 0 -124 -21.5t-108.5 -61.5t-78 -105t-29.5 -146q0 -75 27 -135.5t70.5 -96.5t95 -54.5t104.5 -18.5q57 0 108.5 20t74.5 50q32 42 32 146q0 70 -15 99l3 4q29 -5 74 -5q55 0 82 5l2 -4q-15 -20 -21.5 -49.5t-6.5 -95.5
q0 -87 9.5 -115.5t39.5 -58.5l-9 -14q-41 8 -93 8q-59 0 -272 -24q-62 -6 -124 -6q-86 0 -135 17.5t-99 71.5q-89 96 -89 241q0 43 8.5 84.5t29.5 85.5t52.5 79t82 63.5t114.5 41.5q59 13 161.5 25.5t154.5 12.5q76 0 124.5 -26t74.5 -95z" />
    <glyph glyph-name="H" unicode="H" horiz-adv-x="852" 
d="M227 326v-98q0 -71 3 -116t7 -64t13 -47l-4 -3q-23 4 -77 4q-49 0 -85 -4l-4 3q13 40 17 89q9 104 9 275q0 107 -1 156t-6.5 102t-16.5 83l3 3q41 -4 99 -4q39 0 66 4l3 -3q-23 -90 -26 -310h292q71 0 108 3q5 231 -23 308l4 2q26 -4 77 -4q57 0 84 4l3 -4
q-25 -67 -25 -315q0 -193 4 -269t21 -119l-3 -4q-21 4 -90 4q-57 0 -77 -4l-2 4q16 47 20.5 104.5t6.5 221.5h-201q-16 0 -100.5 -1t-98.5 -1z" />
    <glyph glyph-name="I" unicode="I" horiz-adv-x="333" 
d="M82 0l-2 2q16 50 21 134q6 88 6 275q0 83 -1 122t-6.5 88t-16.5 86l2 2q60 -4 91 -4q12 0 76 4l4 -2q-13 -51 -18 -110q-9 -121 -9 -325q0 -136 7 -202q3 -33 16 -67l-3 -3q-68 4 -96 4q-29 0 -71 -4z" />
    <glyph glyph-name="J" unicode="J" horiz-adv-x="352" 
d="M-126 -103l-3 5l21 63l6 2q39 -33 65 -33q49 0 99 78q47 73 58.5 151.5t11.5 242.5q0 237 -21 302l3 1q32 -4 87 -4q35 0 75 4l2 -2q-10 -33 -16 -109q-9 -106 -9 -267q0 -12 1 -74.5t1 -72.5q0 -40 -2.5 -63t-21 -61.5t-54.5 -72.5q-44 -41 -111.5 -67.5t-135.5 -26.5
q-34 0 -56 4z" />
    <glyph glyph-name="K" unicode="K" horiz-adv-x="778" 
d="M760 6l-1 -7q-72 3 -106 3q-28 0 -109 -3q-38 49 -135 162t-139 158q-24 27 -44 38q3 -232 7 -272q4 -30 18 -83l-2 -4q-38 4 -80 4q-60 0 -84 -4l-3 3q15 45 20 133q5 82 5 307q0 117 -4.5 171.5t-18.5 94.5l3 3q32 -4 84 -4q44 0 80 4l2 -5q-26 -89 -26 -331
q20 10 47 35l78 72.5l63.5 58.5l46.5 43.5l38 35.5l27 25.5t23.5 23.5l18 19l20.5 22q2 0 31 -1.5t41 -1.5q51 0 84 3l1 -7q-31 -12 -80 -48q-15 -12 -63 -54l-95.5 -85l-91.5 -82.5t-47 -42.5l56 -64.5l116.5 -131t99.5 -105.5q26 -25 60.5 -50t58.5 -33z" />
    <glyph glyph-name="L" unicode="L" horiz-adv-x="574" 
d="M561 96l-53 -97q-6 0 -38 -1t-37 -1q-20 0 -51 2q-132 6 -145 6q-87 0 -148 -6l-2 3q12 38 17 93q6 82 6 406q0 129 -21 205l3 3q22 -4 70 -4q53 0 92 4l4 -4q-27 -114 -27 -462q0 -130 10 -160q9 -23 46 -23q24 0 49 1.5t46.5 3.5t41.5 5t37.5 6.5l32 6.5t26.5 6t20 5.5
t13 3.5l5 2z" />
    <glyph glyph-name="M" unicode="M" horiz-adv-x="1093" 
d="M835 706l3 3q16 -4 68 -4q91 0 133 4l2 -7q-38 -25 -46 -45q-11 -31 -11 -158q0 -316 13 -413q7 -47 34 -83l-3 -4q-24 4 -69 4q-57 0 -102 -4l-3 3q17 66 17 172q0 221 -8 386q-48 -88 -106.5 -209.5t-96.5 -207.5t-38 -95q0 -19 31 -45l-2 -4q-38 4 -81 4q-22 0 -86 -4
l-4 2q-11 36 -43 104q-99 206 -228 448q-2 -88 -2 -209q0 -275 14 -342l-2 -3q-76 4 -80 4q-18 0 -74 -4l-4 5q32 30 40 113q6 59 6 291q0 187 -7 237q-2 15 -8 27t-11 17l-17 17l3 3q64 -4 99 -4q75 0 114 4l3 -2q23 -80 132 -294.5t149 -279.5l228 472q23 48 43 101z" />
    <glyph glyph-name="N" unicode="N" horiz-adv-x="907" 
d="M688 705l3 4q32 -4 68 -4t87 4l2 -3q-29 -32 -37 -72q-12 -65 -12 -321q0 -228 8 -259q7 -23 34 -51l-3 -4q-9 0 -54.5 2t-49.5 2q-8 0 -88 -4l-317 406l-58 70.5t-62 77.5q-4 -113 -2 -214l2 -209q0 -96 12 -128l-3 -3q-54 4 -95 4q-21 0 -65 -4l-3 5q40 43 47 114
q6 63 6 280q0 239 -8 258q-8 20 -42 49l3 4q2 0 49 -2t60 -2q46 0 80 4q19 -26 158 -204l291 -365q2 347 0 431t-11 134z" />
    <glyph glyph-name="O" unicode="O" horiz-adv-x="1000" 
d="M941 385q0 -69 -22.5 -129.5t-60 -103t-79 -71t-85.5 -44.5q-55 -19 -158.5 -31.5t-157.5 -12.5q-144 0 -230.5 94t-86.5 231q0 43 11 87.5t36 94.5t75.5 93t119.5 68q57 20 215 48q46 9 94 9q145 0 237 -95.5t92 -237.5zM796 402q-1 40 -20 86.5t-48 80.5
q-44 53 -108 77t-120 24q-117 0 -206 -104.5t-89 -241.5q0 -69 26 -126t68 -92t91 -54t98 -19q61 0 123 29t102 76q31 37 50 76t25 78.5t7.5 59t0.5 50.5z" />
    <glyph glyph-name="P" unicode="P" 
d="M253 4l-3 -5q-30 4 -73 4q-61 0 -93 -4l-3 5q14 29 20.5 99.5t7.5 139t1 222.5q0 169 -12 201q-6 15 -29 38l2 5q39 -4 112 -4q39 0 115 4q194 7 199 7q70 0 119.5 -47.5t49.5 -128.5q0 -110 -86 -181t-224 -71q-58 0 -125 15q-3 -134 4 -218q4 -44 18 -81zM230 337
q47 -13 85 -13q92 0 150 62t58 147q0 63 -36.5 104.5t-106.5 41.5q-63 0 -101 -35q-42 -37 -46 -129q-1 -13 -2 -88.5t-1 -89.5z" />
    <glyph glyph-name="Q" unicode="Q" horiz-adv-x="1000" 
d="M1083 -123l4 -3l-24 -45q-43 -2 -192 -0.5t-177 4.5q-65 8 -136 100q-2 3 -21 29t-23 31q-9 10 -17 10q-2 0 -12 -2t-12 -2q-36 -6 -91 -6q-151 0 -237 95t-86 228q0 28 4.5 58t19.5 73.5t40 81t71.5 73.5t107.5 58q55 19 159.5 38.5t151.5 19.5q133 0 229.5 -91.5
t96.5 -246.5q0 -75 -30.5 -146t-101.5 -131.5t-172 -81.5q19 -8 33 -17.5t71 -51.5q61 -47 112 -69t128 -22q67 0 104 16zM795 402q0 11 -2.5 29t-19.5 60.5t-46 76.5q-45 53 -108 77.5t-120 24.5q-116 0 -206 -104t-90 -242q0 -69 26.5 -126.5t68 -92t90.5 -53.5t98 -19
q59 0 116 25.5t102 71t70.5 117t20.5 155.5z" />
    <glyph glyph-name="R" unicode="R" horiz-adv-x="741" 
d="M772 3l-1 -5h-174q-30 22 -84 109l-64 105q-66 107 -150 107q-43 0 -70 -7q-1 -28 0 -99.5t2 -100.5q4 -63 21 -110l-2 -3q-20 4 -69 4q-72 0 -99 -4l-3 4q15 29 21 92q7 72 7 353q0 147 -6 194q-5 31 -36 62l3 5q24 -4 81 -4q130 0 189 4q119 7 145 7q84 0 128.5 -43
t44.5 -105q0 -85 -58.5 -142.5t-139.5 -80.5q44 -14 69 -41t74 -108t79 -120t45.5 -50t46.5 -23zM230 474l-2 -118q36 -6 66 -6q67 0 114 20.5t67.5 53t28.5 59t8 52.5q0 65 -36.5 104.5t-100.5 39.5q-76 0 -119 -57q-25 -36 -26 -148z" />
    <glyph glyph-name="S" unicode="S" horiz-adv-x="741" 
d="M229 202l4 -5q-23 -37 -23 -67q0 -38 30.5 -70t94.5 -32q90 0 149 70t59 141q0 31 -9 52.5t-20.5 32t-30.5 16.5t-29.5 6.5t-26.5 0.5q-2 0 -77.5 -4t-90.5 -4q-90 0 -135 34q-52 38 -52 110q0 81 58 143t141 76q77 13 213 13q36 0 54.5 -1t48.5 -8.5t45 -22t25 -44
t7 -71.5q-67 1 -145 -4l-3 5q3 18 3 25q0 87 -108 87q-90 0 -145 -55t-55 -120q0 -93 113 -93q17 0 105.5 6.5t103.5 6.5q75 0 112 -42q39 -45 39 -116q0 -101 -68 -173t-151 -88q-69 -14 -247 -14q-77 0 -111 28q-42 34 -42 101q0 42 16 74q47 -1 148 6z" />
    <glyph glyph-name="T" unicode="T" 
d="M714 740l-40 -110q-112 7 -162 7q-46 0 -56.5 -3t-14.5 -14q-17 -54 -17 -329q0 -140 4.5 -188.5t19.5 -100.5l-3 -4q-26 6 -78 6t-88 -6l-3 4q26 68 26 328q0 250 -13 291q-4 15 -30 15q-56 0 -89 -1.5t-78 -10t-77 -25.5l-4 4l39 106q232 -4 317 -4q183 0 251 4
q30 1 41.5 6.5t44.5 31.5z" />
    <glyph glyph-name="U" unicode="U" horiz-adv-x="852" 
d="M74 706l3 3q35 -4 80 -4q64 0 85 4l4 -3q-27 -75 -27 -363q0 -101 6.5 -151.5t25.5 -81.5q35 -61 133 -61q65 0 125.5 43t91.5 105q19 39 25 87.5t6 146.5q0 219 -22 277l4 1q46 -4 95 -4q39 0 61 4l4 -4q-25 -82 -25 -337q0 -248 7 -294q6 -40 28 -72l-2 -3q-29 4 -67 4
q-66 0 -94 -4l-3 3q1 6 2.5 23.5t3 38t1.5 22.5q-50 -27 -189.5 -62t-192.5 -35q-40 0 -68.5 11.5t-43.5 27.5t-23 41.5t-9.5 43.5t-1.5 43q0 31 1.5 112.5t1.5 113.5q0 175 -7 245q-5 51 -19 79z" />
    <glyph glyph-name="V" unicode="V" 
d="M579 704l3 5q26 -4 82 -4q49 0 61 4l2 -7q-14 -14 -23.5 -26t-33 -56t-58.5 -121q-32 -71 -107.5 -257.5t-75.5 -196.5q0 -4 4 -12q4 -9 18 -27l-3 -7q-23 4 -77 4q-72 0 -97 -4l-3 5q2 24 -6.5 58t-52.5 177q-29 97 -74 223t-68 177q-17 36 -53 66l2 4q1 0 37 -2t50 -2
q28 0 92 4l4 -2q10 -66 77.5 -281.5t99.5 -280.5q5 15 53 129q69 173 112 295q30 89 35 135z" />
    <glyph glyph-name="W" unicode="W" horiz-adv-x="1248" 
d="M1095 703l2 3q3 0 24.5 -1t41.5 -1q44 0 88 2l2 -5q-24 -18 -44.5 -46t-30.5 -48.5t-25 -55.5l-82 -203.5l-81 -210.5t-33 -92q0 -12 30 -42l-2 -4q-36 4 -106 4q-40 0 -80 -4l-4 2q3 14 0 32.5t-29.5 105t-82.5 240.5q-1 2 -32 84.5t-36 99.5q-18 -35 -112 -269
t-94 -249q0 -16 26 -42l-4 -4q-32 4 -108 4q-42 0 -66 -4l-4 4q6 30 -40 194t-80 268q-46 144 -62.5 177.5t-53.5 61.5l2 5q44 -4 108 -4q52 0 76 4l2 -5q12 -72 54.5 -229.5t97.5 -323.5q21 45 112.5 271t91.5 237q0 18 -30 44l4 6q58 -4 100 -4q54 0 78 4l2 -4
q14 -84 69.5 -249.5t116.5 -318.5l31 76l67 172.5t60 169.5q34 105 36 148z" />
    <glyph glyph-name="X" unicode="X" 
d="M733 709l3 -6q-54 -39 -252 -274q-48 -56 -65 -80q2 -5 34 -58.5l74.5 -120.5t64.5 -94q35 -44 80 -72l-2 -5q-68 4 -112 4q-50 0 -86 -4q-43 93 -57 120l-36.5 66.5l-37.5 68.5q-20 -23 -85.5 -111t-101.5 -144q-37 4 -91 4q-50 0 -78 -4l-3 6q112 84 196 174
q11 12 63 73l60 70q-10 15 -53 87t-44 74q-60 97 -98 147.5t-75 74.5l3 4q48 -4 87 -4q63 0 107 4q28 -80 150 -289q75 97 107.5 147t84.5 142q46 -4 99 -4q34 0 64 4z" />
    <glyph glyph-name="Y" unicode="Y" horiz-adv-x="667" 
d="M534 706l4 3q51 -4 85 -4t58 4l2 -6q-79 -68 -246 -373q-40 -73 -48.5 -101.5t-8.5 -72.5q0 -98 20 -155l-2 -2q-34 4 -79 4t-79 -4l-3 3q19 57 19 160q0 50 -18 97t-111 229q-80 159 -129 217l3 4q40 -5 78 -4q6 0 86 4l3 -3q17 -62 84 -203t90 -181q78 137 137 257
q26 53 55 127z" />
    <glyph glyph-name="Z" unicode="Z" horiz-adv-x="741" 
d="M712 126l5 -5q-2 -2 -31 -52.5t-37 -66.5q-55 -5 -128 -5q-27 0 -137 3q-168 5 -210 5q-96 0 -161 -5l-4 7q74 55 183 209q71 99 155 229.5t118 192.5q-74 0 -213.5 -12t-195.5 -34l-5 5q7 9 36 55.5l32 51.5q52 -4 195 -4q134 0 208 4q120 7 180 24l5 -6
q-69 -63 -218 -279t-232 -368q327 -7 455 51z" />
    <glyph glyph-name="bracketleft" unicode="[" horiz-adv-x="389" 
d="M363 -62l3 -5l-26 -56q-33 3 -115 3q-95 0 -133 -3l-4 4q11 224 11 493q0 230 -8 334l4 4q78 -3 98 -3q19 -1 38 -1q87 0 135 4l3 -4l-26 -54q-65 11 -134 8q-12 -108 -12 -381q0 -259 12 -355q74 -3 154 12z" />
    <glyph glyph-name="backslash" unicode="\" horiz-adv-x="444" 
d="M444 0h-101q-156 347 -373 705l3 4l101 1q1 -6 34.5 -77t110 -219t162.5 -298l33 -55t34 -58z" />
    <glyph glyph-name="bracketright" unicode="]" horiz-adv-x="389" 
d="M38 655l-4 4l25 53q20 0 68 -2l45 -2q73 0 116 4l4 -5q-2 -17 -5 -133q-4 -128 -5 -414q-2 -220 8 -280l-4 -4q-79 4 -110 4q-105 0 -141 -4l-3 4l24 50q53 -10 124 -7q11 113 11 389q0 238 -10 354q-65 2 -143 -11z" />
    <glyph glyph-name="asciicircum" unicode="^" horiz-adv-x="593" 
d="M73 274l176 427h95l176 -427h-109l-117 292l-112 -292h-109z" />
    <glyph glyph-name="underscore" unicode="_" horiz-adv-x="500" 
d="M0 -125v50h500v-50h-500z" />
    <glyph glyph-name="grave" unicode="`" horiz-adv-x="278" 
d="M178 532l-208 115v5l87 39l171 -128z" />
    <glyph glyph-name="a" unicode="a" 
d="M663 471l3 -4q-39 -112 -39 -297q0 -107 20 -164l-3 -5q-75 3 -135 -5l-2 54q-38 -19 -126.5 -39.5t-128.5 -20.5q-92 0 -143 50q-54 53 -54 155q0 95 56.5 164t131.5 89q43 12 112 12q10 0 28 3q56 7 69 7q56 0 116 -25q86 23 95 26zM533 338q-66 95 -151 95
q-25 0 -57 -14t-65 -41t-55 -75t-22 -107q0 -46 15 -81t37 -53t43 -26t38 -8q60 0 127 71q31 33 49.5 74t25 71.5t15.5 93.5z" />
    <glyph glyph-name="b" unicode="b" horiz-adv-x="704" 
d="M227 702l4 -4q-20 -52 -20 -292q48 33 140.5 52.5t141.5 19.5q37 0 66.5 -12.5t45.5 -34t27 -42.5t15 -46t5 -36t1 -21q0 -78 -47.5 -150.5t-149.5 -105.5q-23 -7 -49.5 -12.5t-32.5 -7.5q-65 -19 -100 -19q-66 0 -124 40q-40 -15 -82 -35l-5 3q32 68 32 348
q0 176 -9 256q-6 47 -24 74l3 5q121 11 162 20zM201 108q38 -32 66 -46q50 -25 92 -25q67 0 117.5 71.5t50.5 151.5q0 47 -16.5 82.5t-42 53.5t-51 27t-48.5 9q-22 0 -55 -27t-57 -59q-38 -54 -48 -110.5t-8 -127.5z" />
    <glyph glyph-name="c" unicode="c" horiz-adv-x="648" 
d="M631 136l-78 -137h-14l-94 -1h-81q-8 0 -54 -2q-34 -3 -53 -3q-99 0 -156.5 61t-57.5 153q0 93 65.5 163.5t191.5 83.5q65 6 94 12q74 13 126 13q62 0 120 -16l-94 -88q-74 56 -154 56q-84 0 -152.5 -62.5t-68.5 -156.5q0 -77 53.5 -128.5t147.5 -51.5q42 0 85.5 15
t74.5 32.5t96 59.5z" />
    <glyph glyph-name="d" unicode="d" horiz-adv-x="704" 
d="M336 667l167 -167q82 -82 116 -134t34 -123q0 -19 -3 -39.5t-17 -54.5t-37 -61t-69.5 -50.5t-108.5 -30.5q-58 -7 -74 -10q-38 -7 -70 -7q-96 0 -161 67t-65 166q0 59 23.5 105t61 71t76.5 37.5t76 12.5q76 0 166 -39q-77 93 -163 149q-121 76 -222 98v6zM177 217
q0 -81 51 -134.5t117 -53.5q64 0 122 60.5t58 151.5q0 76 -45.5 117.5t-120.5 41.5q-81 0 -129 -45q-53 -47 -53 -138z" />
    <glyph glyph-name="e" unicode="e" horiz-adv-x="667" 
d="M615 139l4 -3l-81 -137q-43 -1 -117 -1h-31q-5 0 -31 0.5t-30 0.5h-31q-83 0 -105.5 2t-47.5 14q-38 18 -60.5 56t-28 69t-5.5 63q0 33 8 67.5t28.5 75t65 71.5t107.5 42q10 2 81.5 8t75.5 6q99 0 148 -45t49 -95q0 -31 -22 -83h-411q-4 -20 -4 -41q0 -104 60 -145
q49 -33 115 -33q104 0 263 108zM186 284h295q6 22 6 39q0 55 -40.5 85t-89.5 30q-60 0 -109 -41.5t-62 -112.5z" />
    <glyph glyph-name="f" unicode="f" horiz-adv-x="482" 
d="M230 90h104q108 0 141 7l3 -3l-35 -58q-101 3 -213 3q-1 -25 3 -239q-66 -6 -135 -21l-3 3q27 119 27 257q-6 0 -39 -1t-39 -2q-23 -2 -38 -8l-4 4l27 59q18 -1 93 -1q1 25 -0.5 109.5t-3.5 163.5t-2 81q0 71 13 91.5t56 20.5q26 0 67 -10q23 -5 27 -5q6 0 52 19
q38 16 63 16q27 0 54.5 -11t42.5 -23.5t15 -19.5q0 -6 -33 -48q-15 -19 -21 -19t-16 10q-57 59 -99 59q-6 0 -13 -1.5t-20 -9t-24 -20.5t-21.5 -39.5t-16.5 -62.5q-12 -74 -12 -301z" />
    <glyph glyph-name="g" unicode="g" horiz-adv-x="667" 
d="M599 473l4 -4q-14 -28 -19.5 -67t-5.5 -131q0 -15 0.5 -82.5t0.5 -113.5v-79q-2 -69 -46.5 -127.5t-146.5 -74.5q-5 -1 -41.5 -6l-43.5 -6q-81 -17 -131 -17q-138 0 -138 95q0 96 182 176q-46 3 -80.5 22t-50.5 41t-25.5 51.5t-11 44t-1.5 27.5q0 25 6 51t22 58.5t51 61
t86 45.5q27 9 66 15q81 30 131 30q60 0 106 -32q2 1 86 22zM432 97l-7 -33q-15 0 -50 -6t-88.5 -21t-92 -50.5t-38.5 -84.5q0 -52 34 -73.5t78 -21.5q86 0 143 65q26 29 38 65.5t14 67.5t2 99q0 212 -3 256q-67 70 -153 70q-55 0 -98 -51t-43 -136q0 -70 35.5 -118
t115.5 -48q38 0 113 20z" />
    <glyph glyph-name="h" unicode="h" horiz-adv-x="759" 
d="M705 69l-30 -66q-49 -3 -146 -3q-156 0 -193 -4l-1 5q67 30 114.5 73t69.5 86.5t31 76.5t9 60q0 37 -13 65t-33.5 42t-40 20.5t-37.5 6.5q-22 0 -50.5 -10.5t-62 -38t-61 -68t-46 -107t-18.5 -148.5q0 -35 7 -56l-3 -4q-27 4 -57 4q-52 0 -76 -4l-4 4q17 49 24 129
q15 142 15 302q0 98 -7 149.5t-16 66t-30 30.5l3 5q13 1 90 8t91 9l4 -3q-9 -45 -17 -146q-8 -114 -11 -171q54 36 139 59t133 28.5t68 5.5q80 0 115 -54q27 -44 27 -103q0 -52 -22 -101.5t-55.5 -84t-61 -56t-50.5 -32.5q60 -1 202 25z" />
    <glyph glyph-name="i" unicode="i" horiz-adv-x="315" 
d="M229 3l-4 -4q-28 4 -72 4q-48 0 -71 -4l-3 4q12 49 17 110q8 100 8 159q0 75 -6.5 100t-26.5 44q-2 1 -10.5 8l-15.5 13t-9 8l1 5q16 1 93.5 10t97.5 13q-11 -103 -11 -287q0 -123 12 -183zM282 651v-4q-59 -36 -83 -53q-39 -29 -50 -36l-64 19l-1 4q12 12 54 51
q33 31 59 52z" />
    <glyph glyph-name="j" unicode="j" horiz-adv-x="333" 
d="M-71 -227l42 42q33 -20 46 -20q11 0 28 18t36 59.5t26 93.5q11 78 18 303q1 22 1 140q-41 -10 -122 -25l29 64q138 0 233 22l6 -5q-24 -48 -29 -132.5t-6 -314.5q0 -61 -4.5 -83t-18.5 -43q-45 -65 -110.5 -99t-115.5 -34q-36 0 -59 14zM305 652v-7q-68 -41 -132 -89
l-64 20v6q51 44 111 101z" />
    <glyph glyph-name="k" unicode="k" horiz-adv-x="630" 
d="M600 454v-5q-30 -7 -91 -51q-99 -72 -187 -144q11 -10 101 -97.5t109 -101.5q52 -42 94 -52v-5q-155 0 -211 8q-145 150 -177 179q-1 1 -34 25q0 -150 13 -207l-4 -4q-26 4 -70 4q-39 0 -63 -4l-4 4q7 21 12 85q10 133 10 426q0 70 -5 106t-23 59l3 4l163 20l3 -3
q-14 -42 -23 -158q-13 -226 -12 -313q138 101 262 220q35 -1 134 5z" />
    <glyph glyph-name="l" unicode="l" horiz-adv-x="352" 
d="M349 73l-33 -73q-40 -3 -94 4q-6 1 -34 9t-31 9q-40 -10 -80 -37l-14 8q22 112 22 391q0 198 -12 248q-7 27 -22 46l3 5l167 20l5 -4q-14 -50 -23 -196q-6 -102 -6 -244q0 -136 8 -172q6 -25 44 -25q37 0 96 15z" />
    <glyph glyph-name="m" unicode="m" horiz-adv-x="1130" 
d="M207 467l5 -64q47 21 172 47q87 24 115 24q79 0 102 -67q77 29 119 38q16 3 41 7q87 24 144 24q74 0 112 -44q43 -50 43 -125q0 -49 -20.5 -95t-53 -79.5t-57.5 -53.5t-49 -34q63 3 92.5 6.5t102.5 17.5l-29 -67q-72 -3 -180 -3q-8 0 -49.5 0.5t-48.5 0.5q-5 0 -32 -1
t-31 -1l-2 4q108 46 166 128t58 154q0 63 -37 103t-91 40q-45 0 -87.5 -30t-72.5 -72q-60 -85 -60 -256q0 -39 7 -66l-3 -4q-52 4 -75 4q-31 0 -61 -4l-3 4q19 51 29.5 139t10.5 129q0 148 -93 148q-42 0 -80 -29t-60 -61q-51 -75 -51 -238q0 -43 9 -88l-3 -4q-23 4 -64 4
q-36 0 -74 -4l-3 4q35 113 35 272q0 36 -2 57.5t-15.5 55t-40.5 56.5l1 4z" />
    <glyph glyph-name="n" unicode="n" horiz-adv-x="759" 
d="M209 468l8 -70q57 28 148.5 51.5t173.5 23.5q75 0 110 -34q42 -40 42 -119q0 -80 -48.5 -152t-134.5 -123q48 0 196 24l-29 -66q-27 -3 -54 -3h-149q-71 1 -138 -3l-2 3q73 42 102 63t58 58q65 83 65 172q0 62 -35.5 100t-91.5 38q-52 0 -97.5 -34.5t-75.5 -76.5
q-56 -79 -56 -224q0 -41 6 -93l-2 -4q-39 4 -55 4q-7 0 -42.5 -2t-41.5 -2l-2 4q14 37 25.5 115.5t11.5 144.5q0 61 -8.5 98.5t-18 50.5t-31.5 33l2 4z" />
    <glyph glyph-name="o" unicode="o" horiz-adv-x="704" 
d="M402 18q-9 -2 -26 -6.5l-23 -6t-18.5 -4l-17.5 -3.5l-14.5 -3t-14 -2.5t-12.5 -1.5t-14 -1h-14q-93 0 -147.5 61t-54.5 148q0 53 18.5 95.5t41 67t58 44t53.5 25.5t43 13q145 38 202 38q53 0 93 -20t61.5 -52.5t31.5 -68.5t10 -75q0 -49 -22 -98t-63 -81
q-51 -39 -171 -69zM172 219q0 -85 56.5 -134t123.5 -49q62 0 117 54q19 19 30 34t21.5 52.5t10.5 90.5q0 59 -41 107q-52 64 -136 64q-59 0 -120.5 -64t-61.5 -155z" />
    <glyph glyph-name="p" unicode="p" horiz-adv-x="685" 
d="M74 -228l-3 4q11 47 17.5 205t6.5 289q0 65 -8 104t-32 72l3 3l155 18l2 -49q64 23 128 36q90 25 122 25q70 0 121 -51t51 -141q0 -61 -26 -117.5t-72 -90.5q-65 -47 -175 -65q-81 -30 -159 -24q-1 -37 1 -114.5t7 -99.5l-5 -4q-23 5 -64 5q-48 0 -70 -5zM206 107
q51 -65 142 -65q52 0 106.5 62.5t54.5 152.5q0 85 -46 127t-104 42q-34 0 -79.5 -41.5t-60.5 -94.5q-8 -27 -12 -93.5t-1 -89.5z" />
    <glyph glyph-name="q" unicode="q" horiz-adv-x="685" 
d="M626 -217l-2 -4q-23 1 -81.5 -2.5t-80.5 -10.5l-4 3q9 36 13 254q-79 -13 -155 -15q-4 0 -34 -1.5t-36 -1.5q-57 0 -90.5 11t-60.5 47q-48 64 -48 145q0 59 30.5 115t90.5 86q26 13 121 44q58 20 111 20q32 0 79.5 -9.5t73.5 -23.5l81 42l4 -5q-51 -112 -51 -405
q0 -188 11 -235q8 -34 28 -54zM476 174l4 185q-73 69 -153 69q-49 0 -101.5 -59.5t-52.5 -145.5q0 -82 51 -133t93 -51q32 0 74.5 23.5t68.5 55.5q11 14 13 21.5t3 34.5z" />
    <glyph glyph-name="r" unicode="r" 
d="M209 465l7 -50q74 28 107.5 36t94.5 15q38 9 86 9q15 0 27.5 -1t39 -7.5t44 -18.5t32 -37.5t14.5 -60.5q0 -26 -9.5 -53t-32 -57.5t-68 -56t-109.5 -38.5q16 -4 34 -14t82 -52q60 -40 112 -64q18 -8 34 -12v-5q-10 0 -61.5 -1.5t-59.5 -1.5h-89q-15 2 -73 41
q-86 57 -117.5 68.5t-97.5 14.5q-2 -80 2 -118l-3 -2q-48 4 -67 4q-32 0 -58 -4l-4 3q14 45 20.5 136t6.5 149q0 66 -9.5 98.5t-46.5 58.5l1 4zM206 142q104 -2 165 19q78 26 115 74t37 98q0 38 -27 63t-52.5 32t-45.5 7q-25 0 -59.5 -22t-60.5 -55q-31 -39 -47.5 -82.5
t-20 -69t-4.5 -64.5z" />
    <glyph glyph-name="s" unicode="s" horiz-adv-x="630" 
d="M565 372h-125q-2 28 -22.5 45t-39 21t-37.5 4q-53 0 -104.5 -28.5t-51.5 -77.5q0 -64 104 -64q48 0 127 8q45 4 62 4q99 0 99 -97q0 -44 -21.5 -85.5t-61.5 -63.5q-71 -40 -162 -40h-4.5t-4.5 0.5t-5.5 1t-6.5 0.5q-40 -10 -91 -10q-24 0 -40 1t-44 8.5t-45 21.5
t-30.5 42.5t-13.5 68.5l3 3h129q0 -45 15 -67q30 -43 86 -43q58 0 114 37t56 94q0 74 -101 74q-13 0 -84 -4.5t-83 -4.5q-126 0 -126 100q0 140 265 148q58 16 113 16q36 0 62.5 -8.5t39.5 -19.5t21 -28t9.5 -26.5t2.5 -23.5z" />
    <glyph glyph-name="t" unicode="t" horiz-adv-x="519" 
d="M513 461l-38 -59q-19 3 -71 3h-158q-37 -77 -37 -172q0 -43 12.5 -86t45 -77.5t77.5 -34.5q63 0 146 73l4 -3l-43 -104h-251q-27 0 -41 12q-12 11 -25 28.5t-28.5 63t-15.5 99.5q0 98 38 201h-75q-29 0 -46 -8l-3 3l32 58q17 -1 59 -2t56 0q36 75 106 158q5 0 222 14
l2 -4q-140 -68 -206 -168q147 0 183 1t53 8z" />
    <glyph glyph-name="u" unicode="u" horiz-adv-x="759" 
d="M691 453l3 -3q-20 -50 -31.5 -166t-11.5 -182q0 -40 6 -57.5t26 -37.5l-1 -4q-4 0 -148 -12l-2 59q-48 -16 -72.5 -23t-60 -13.5t-73.5 -7.5q-37 -16 -98 -16q-78 0 -120 55t-42 125q0 43 14 81t43.5 70.5t48.5 49t53 42.5q-47 -3 -86 -8q-7 -1 -41 -6.5t-39 -5.5l36 62
q52 -2 94 -2q35 -1 95 -1q97 0 136 2l1 -5q-103 -43 -164 -110t-61 -142q0 -64 38.5 -111.5t103.5 -47.5q57 0 102.5 36.5t69.5 76.5q47 76 47 201q0 55 -7 97l4 4q20 -3 68 -3q33 0 69 3z" />
    <glyph glyph-name="v" unicode="v" 
d="M341 456l2 -5q-70 -41 -117.5 -107.5t-47.5 -142.5q0 -72 39 -120.5t95 -48.5q78 0 152 76q49 51 75.5 117t26.5 108q0 113 -135 110l-1 7l160 46q51 -15 75.5 -47t24.5 -96q0 -33 -8 -70t-29.5 -81t-54.5 -80.5t-88.5 -67t-125.5 -43.5q-37 -6 -71 -8q-45 -12 -86 -12
q-80 0 -126.5 47t-46.5 123q0 73 41.5 138.5t106.5 113.5q-104 -3 -166 -19l36 61q26 0 92 -1t91 -1q24 0 86 3z" />
    <glyph glyph-name="w" unicode="w" horiz-adv-x="1130" 
d="M68 394l39 61q238 -2 272 3l2 -5q-73 -35 -134.5 -108t-61.5 -164q0 -67 37 -107.5t88 -40.5q95 0 164.5 122t60.5 295l4 4q20 -5 55 -5q46 0 78 5l4 -4q-19 -43 -32.5 -109.5t-13.5 -113.5q0 -85 38 -135t89 -50q77 0 145.5 85t68.5 186q0 122 -159 131v6l178 46
q48 -25 77.5 -63.5t29.5 -109.5q0 -31 -7 -63.5t-29 -73.5t-56 -74.5t-94 -62t-138 -39.5q-71 -17 -121 -17q-29 0 -50.5 8.5t-34 26.5t-19 31.5t-13.5 36.5q-30 -27 -52 -42.5t-71 -32.5t-113 -21q-44 -8 -99 -8q-40 0 -69.5 14.5t-45 39t-22.5 50t-7 52.5q0 139 179 264
q-56 -3 -85 -7q-70 -9 -82 -11z" />
    <glyph glyph-name="x" unicode="x" horiz-adv-x="667" 
d="M58 450l202 7q13 -13 23 -36q27 -63 62 -156l57 55q62 66 83 90.5t43 56.5l131 21l3 -6l-291 -273q17 -52 62 -124q29 -44 93 -44q32 0 75 5l-9 -36q-39 -7 -127 -12q-9 0 -58.5 -1.5t-57.5 -2.5q-15 17 -22 27.5t-20.5 37t-29.5 68.5q-12 -12 -72 -66.5t-68 -62.5
q-7 -1 -42 -8t-38 -8q-2 0 -16.5 -2.5t-37 -6t-39.5 -5.5l-3 7q9 6 53 32.5t48 28.5q21 14 94 68.5t95 76.5q-53 149 -91 196q-27 36 -59 36q-15 0 -55 -10z" />
    <glyph glyph-name="y" unicode="y" horiz-adv-x="667" 
d="M38 375l50 75l147 5q19 1 26 -3.5t22 -29.5q41 -69 60 -255q1 -10 4.5 -69t4.5 -69q20 58 94 219.5l102 218.5l126 10l4 -4q-125 -184 -218 -437l-24.5 -70.5t-28.5 -76.5q-14 -28 -40.5 -49t-65.5 -33.5t-57 -16.5t-52 -10q-83 -16 -107 -16q-53 0 -86 32.5t-33 89.5
q0 83 90 198l84 19q-36 -48 -38 -52q-46 -70 -46 -129q0 -50 30.5 -82.5t76.5 -32.5q87 0 127 77q21 41 57 131q-77 -12 -124 -22l-4 4q0 5 4.5 53.5t4.5 57.5q0 158 -43 246q-11 22 -20 33t-13.5 12.5t-11.5 1.5q-13 0 -39 -7q-2 -1 -17.5 -5.5l-28.5 -8.5t-17 -5z" />
    <glyph glyph-name="z" unicode="z" horiz-adv-x="593" 
d="M554 90l7 -7l-47 -81q-106 -6 -148 -6q-19 0 -117 4t-114 4q-83 0 -133 -8l-7 15q86 72 208.5 212t154.5 190q-46 0 -148 -12q-75 -9 -169 -31l43 81q47 9 332 14q77 1 151 17l8 -12q-44 -40 -158 -164.5t-208 -249.5q98 -4 190 1q92 4 155 33z" />
    <glyph glyph-name="braceleft" unicode="{" horiz-adv-x="377" 
d="M343 712v-39q-31 -3 -52.5 -13.5t-32.5 -22t-16 -33.5t-6 -36t-1 -42v-48q0 -97 -24 -137.5t-96 -53.5q16 -2 26 -4.5t27.5 -10t30.5 -22t22 -36.5q14 -36 14 -118v-34q0 -32 3 -52.5t12.5 -43t32.5 -35t60 -15.5v-39q-60 2 -101 14.5t-70 48.5q-22 27 -28.5 61t-6.5 95
v50q0 68 -21 95t-84 44v5q62 17 83.5 43.5t21.5 95.5v64q0 44 1 64.5t9 46t24 45.5q50 59 172 63z" />
    <glyph glyph-name="bar" unicode="|" horiz-adv-x="222" 
d="M58 -214v1000h106v-1000h-106z" />
    <glyph glyph-name="braceright" unicode="}" horiz-adv-x="377" 
d="M238 493v-64q0 -69 21.5 -95.5t82.5 -43.5l1 -5q-63 -17 -84 -44t-21 -95v-50q0 -63 -7 -95.5t-29 -60.5q-49 -60 -170 -63v39q30 2 51 12t32 22t16.5 33t7 37.5t1.5 42.5v34q0 43 3.5 70t14.5 55t36.5 44t65.5 22q-69 8 -94.5 49t-25.5 142v47q0 28 -1 42t-6 36
t-16 33.5t-32.5 22t-52.5 13.5v39q38 -1 68 -6.5t51 -16.5t36.5 -21.5t25 -29t15 -31.5t7.5 -37t2.5 -37.5t0.5 -39.5z" />
    <glyph glyph-name="asciitilde" unicode="~" horiz-adv-x="593" 
d="M97 176h-68q8 82 47 125t96 43q20 0 41.5 -6t106.5 -33q87 -28 113 -28q51 0 64 66h68q-9 -78 -44.5 -122.5t-100.5 -44.5q-43 0 -158 40q-84 29 -100 29q-22 0 -40.5 -17t-24.5 -52z" />
    <glyph glyph-name="uni00A0" unicode="&#xa0;" horiz-adv-x="389" 
 />
    <glyph glyph-name="exclamdown" unicode="&#xa1;" horiz-adv-x="407" 
d="M285 318l2 -4q-33 -116 -60 -257q-34 -178 -34 -249q0 -5 -1.5 -18t0.5 -15l-4 -3q-40 2 -82 2q-23 0 -53 -2l-2 3q13 50 133 543q27 -3 56 -3q18 0 45 3zM126 479l4 5q32 -4 84 -4q47 0 66 4q13 -47 33 -85l-4 -5q-23 5 -81.5 6t-66.5 -1q-16 47 -35 80z" />
    <glyph glyph-name="cent" unicode="&#xa2;" horiz-adv-x="685" 
d="M382 437v-406q75 3 136 36q80 44 119 73l4 -3l-80 -137q-105 0 -122 -1q-25 0 -57 1q0 -74 4 -105h-51q4 52 4 104q-40 -2 -46 -2q-12 -1 -32 -1q-98 0 -153.5 60t-55.5 151q0 109 79 176.5t208 79.5q3 46 -4 119h51q0 -9 -1.5 -57.5t-2.5 -56.5q95 16 151 16t113 -15
q-54 -48 -91 -85q-77 60 -173 53zM339 36v391q-64 -28 -95 -59q-65 -65 -65 -155q0 -71 44 -120t116 -57z" />
    <glyph glyph-name="sterling" unicode="&#xa3;" horiz-adv-x="741" 
d="M696 139l-80 -142q-30 -5 -56 -5q-32 0 -216 30q-62 11 -123 11q-77 0 -154 -37l-5 4l41 65q50 24 107 42q27 21 48 51t21 51q0 38 -48 110h-93q-38 0 -62 -8l-4 4l31 54h92q-31 43 -42 60.5t-19 40t-8 46.5q0 61 48 115.5t145 70.5q28 5 108.5 10.5t97.5 5.5
q63 0 100.5 -28t37.5 -84q0 -23 -8 -52l-141 -15l-4 5q14 39 14 61q0 33 -25.5 54t-71.5 21q-68 0 -113 -44.5t-45 -102.5q0 -47 43 -110l19 -28l15 -23q48 0 178 5q20 1 39 6l4 -4l-39 -58q-26 2 -70 2q-47 0 -81 2q23 -34 23 -66q0 -42 -57 -89q-1 0 -36 -26t-40 -31
q36 8 88 8q45 0 142 -11q57 -6 83 -6q62 0 112 40z" />
    <glyph glyph-name="currency" unicode="&#xa4;" horiz-adv-x="630" 
d="M69 170l66 66q-36 56 -36 119t36 119l-66 66l61 61l66 -66q57 36 119 36q58 0 120 -36l65 66l61 -61l-66 -66q36 -50 36 -120q0 -60 -36 -118l66 -66l-61 -61l-66 66q-55 -36 -118 -36q-66 0 -119 36l-67 -66zM315 479q-51 0 -87.5 -36t-36.5 -88t36.5 -88t87.5 -36
t87.5 36t36.5 88t-36.5 88t-87.5 36z" />
    <glyph glyph-name="yen" unicode="&#xa5;" horiz-adv-x="670" 
d="M166 714l3 -3q18 -70 173 -388q5 8 48 86l52 95q59 116 94 205l5 2q64 -3 85 -3q34 0 58 4l2 -6q-38 -32 -88.5 -108t-166.5 -267q90 1 141 4l4 -6q-8 -7 -28 -54q-90 5 -147 5q-17 -30 -18 -73q117 1 189 6l4 -7q-12 -15 -28 -54q-100 5 -166 5q-2 -89 20 -155l-2 -3
q-45 5 -80 5q-38 0 -78 -5l-3 4q15 52 21 154q-127 0 -199 -5l-5 5q13 17 33 56q54 -5 169 -6q-1 31 -21 73q-112 -1 -176 -5l-5 4q12 17 33 57q42 -5 116 -6q-61 131 -137 272q-38 69 -70 107l3 5q13 -2 31 -3q26 -2 47 -2q37 0 87 5z" />
    <glyph glyph-name="brokenbar" unicode="&#xa6;" horiz-adv-x="222" 
d="M58 -89v250h106v-250h-106zM58 411v250h106v-250h-106z" />
    <glyph glyph-name="section" unicode="&#xa7;" horiz-adv-x="630" 
d="M31 -74l3 4l129 -1q-2 -58 15 -83q30 -43 86 -43q58 0 114 37t56 93q0 20 -7 33.5t-23.5 23.5t-29.5 14.5t-40 12.5q-65 18 -105 31t-82 32t-64.5 39t-37 48t-14.5 63q0 147 250 162q-218 50 -218 161q0 11 2 22.5t10.5 29t22 31.5t40.5 28t62 22q55 14 128 15
q58 16 113 16q47 0 77 -12.5t41 -35t14 -37.5t3 -37l-5 -7h-125q0 47 -29 68q-27 18 -69 18q-57 0 -106.5 -29.5t-49.5 -72.5q0 -33 20.5 -47.5t79.5 -34.5q114 -38 164 -58t82 -47q51 -45 51 -113q0 -63 -49.5 -112t-152.5 -63q174 -27 174 -135q0 -42 -21.5 -82.5
t-61.5 -62.5q-71 -40 -162 -40q-10 0 -22 1q-38 -10 -91 -10q-88 0 -130.5 33t-41.5 125zM163 231q8 -55 70 -83q53 -25 87 -25q7 0 27 6.5t46.5 19.5t46.5 40.5t20 62.5q0 36 -32 63.5t-62.5 37.5t-46.5 10q-61 0 -112.5 -37.5t-43.5 -94.5z" />
    <glyph glyph-name="dieresis" unicode="&#xa8;" horiz-adv-x="278" 
d="M176 568l-3 6q8 10 49 56t46 53q9 -5 37.5 -15t37.5 -12l3 -4q-47 -36 -108 -102q-35 14 -62 18zM-8 569l-3 5q75 80 95 109q37 -17 75 -26l3 -6q-76 -66 -108 -102q-20 10 -62 20z" />
    <glyph glyph-name="copyright" unicode="&#xa9;" horiz-adv-x="769" 
d="M384 718q150 0 256.5 -106t106.5 -257q0 -150 -106 -256t-257 -106q-149 0 -255.5 106t-106.5 256q0 151 106.5 257t255.5 106zM384 668q-128 0 -220 -91.5t-92 -221.5q0 -129 91.5 -220.5t220.5 -91.5q130 0 221.5 91.5t91.5 220.5q0 130 -92 221.5t-221 91.5zM521 560
h24l4 -145h-27q-9 22 -15.5 35t-21.5 33.5t-37 30.5t-51 10q-36 0 -61.5 -17t-37.5 -46.5t-16.5 -58t-4.5 -61.5q0 -22 3 -43t13 -56t37.5 -56.5t68.5 -21.5q71 0 135 73l25 -22q-75 -91 -174 -91q-87 0 -152 60t-65 159q0 102 65.5 160.5t150.5 58.5q36 0 100 -22
q15 -5 20 -5q14 0 17 25z" />
    <glyph glyph-name="ordfeminine" unicode="&#xaa;" horiz-adv-x="421" 
d="M413 719l2 -3q-25 -68 -25 -178q0 -67 13 -98l-2 -3q-49 1 -92 -3l-5 32q-19 -11 -75 -23.5t-83 -12.5q-60 0 -93 30q-35 31 -35 93q0 57 36.5 98.5t85.5 53.5q28 7 73 7q10 0 18 2q42 4 45 4q34 0 71 -15q45 9 66 16zM117 554q0 -85 71 -85q43 0 78 34q17 16 27 38.5
t14 41.5t10 56q-32 45 -86 45q-39 0 -76.5 -33t-37.5 -97z" />
    <glyph glyph-name="guillemotleft" unicode="&#xab;" horiz-adv-x="593" 
d="M333 76v-4q-48 3 -61 3q-21 0 -72 -3l-95 99q-35 35 -68 63v5q115 77 234 178q1 0 11.5 -0.5t18.5 -0.5q31 0 47 1l2 -4q-86 -60 -207 -156q83 -89 190 -181zM550 76l-2 -4q-56 3 -83 3q-21 0 -48 -3q-38 48 -172 174v4q65 38 230 167q11 -1 45 -1q24 0 36 1l2 -3
l-79.5 -56.5t-60.5 -42.5l-66 -49q139 -145 198 -190z" />
    <glyph glyph-name="logicalnot" unicode="&#xac;" horiz-adv-x="593" 
d="M37 318v101h519v-320h-103v219h-416z" />
    <glyph glyph-name="uni00AD" unicode="&#xad;" horiz-adv-x="444" 
d="M383 321l4 -6q-27 -47 -44 -83q-40 6 -133 6q-111 0 -149 -9l-3 4q23 38 44 88q66 -6 134 -6q88 0 147 6z" />
    <glyph glyph-name="registered" unicode="&#xae;" horiz-adv-x="366" 
d="M183 718q73 0 127 -53t54 -128t-53 -128.5t-128 -53.5q-74 0 -127.5 53.5t-53.5 128.5q0 76 54 128.5t127 52.5zM183 686q-61 0 -105 -43.5t-44 -105.5t44 -106t105 -44q62 0 105.5 44.5t43.5 105.5q0 62 -44 105.5t-105 43.5zM86 442v15q17 0 21 5t4 19v115
q0 13 -4.5 18t-20.5 6v15h92q81 0 81 -51q0 -17 -9.5 -29t-16.5 -15t-19 -6l52 -70q6 -8 18 -8v-14h-59l-60 84h-6v-45q0 -15 4.5 -19.5t20.5 -4.5v-15h-98zM159 610v-66q17 -1 25.5 0.5t16.5 10t8 26.5q0 39 -35 39q-7 0 -10.5 -1t-4 -3t-0.5 -6z" />
    <glyph glyph-name="macron" unicode="&#xaf;" horiz-adv-x="278" 
d="M341 634l-49 -74q-56 -2 -102 -2q-133 0 -166 -1t-53 -7l-4 4l48 72q32 2 88 2q196 0 217 3q9 2 17 7z" />
    <glyph glyph-name="degree" unicode="&#xb0;" horiz-adv-x="400" 
d="M200 718q68 0 115.5 -47.5t47.5 -114.5q0 -68 -47.5 -115.5t-115.5 -47.5t-115.5 47.5t-47.5 115.5t48 115t115 47zM200 632q-32 0 -54.5 -22.5t-22.5 -53.5q0 -32 22.5 -54.5t54.5 -22.5t54.5 22.5t22.5 54.5t-22.5 54t-54.5 22z" />
    <glyph glyph-name="plusminus" unicode="&#xb1;" horiz-adv-x="593" 
d="M242 118v157h-205v101h205v160h109v-160h205v-101h-205v-157h-109zM37 -17v101h519v-101h-519z" />
    <glyph glyph-name="two.superior" unicode="&#xb2;" horiz-adv-x="460" 
d="M468 359l2 -4l-42 -69q-128 4 -229 4q-51 0 -207 -4l-2 6q127 48 210.5 117t97.5 116q-31 -17 -71.5 -31.5t-65.5 -14.5q-47 0 -78.5 31.5t-31.5 74.5q0 53 43 85.5t95 37.5q75 10 92 10q55 0 100.5 -29t45.5 -93q0 -72 -72 -141t-177 -122q105 2 189 9q64 5 101 17z
M317 596q0 40 -24.5 65.5t-61.5 25.5q-9 0 -19.5 -2.5t-26 -10.5t-25 -28t-9.5 -50q0 -22 18 -43t51 -21q48 0 87 28q10 7 10 36z" />
    <glyph glyph-name="three.superior" unicode="&#xb3;" horiz-adv-x="379" 
d="M5 293l-13 64l5 3q56 -41 156 -41q47 0 78.5 25.5t31.5 69.5q0 49 -36 70q-35 19 -72 19q-23 0 -67.5 -7.5t-79.5 -21.5l-3 6q35 24 110.5 92t98.5 95q-27 2 -95 -2.5t-114 -14.5l-3 3l32 56q1 0 36 -0.5t63 -0.5q89 0 127 1q54 2 128 9l3 -5q-35 -21 -106.5 -83
t-103.5 -96q39 3 51 3q68 0 108 -36q30 -27 30 -68q0 -63 -68.5 -107.5t-172.5 -44.5q-63 0 -124 12z" />
    <glyph glyph-name="acute" unicode="&#xb4;" horiz-adv-x="278" 
d="M82 529l-43 36q1 1 2.5 2t2.5 3l2 1l157 119l90 -38v-5z" />
    <glyph glyph-name="mu" unicode="&#xb5;" horiz-adv-x="593" 
d="M456 453v-325q0 -35 4.5 -53.5t10.5 -23.5t16 -5q38 0 38 92h29q0 -17 -1 -26.5t-3.5 -30.5t-9 -34t-16.5 -28t-27.5 -22.5t-40.5 -7.5q-25 0 -43 10.5t-27.5 24t-15.5 36t-7.5 35t-2.5 33.5q-41 -138 -132 -138q-54 0 -85 54q1 -10 7.5 -56t7.5 -50q11 -74 11 -99
q0 -30 -11 -47.5t-21 -21t-19 -3.5q-48 0 -48 78q0 16 5 89.5t5 79.5q3 43 3 141v298h102v-285q0 -32 1 -48t6 -37.5t18.5 -31t34.5 -9.5q45 0 77 67.5t32 177.5v166h102z" />
    <glyph glyph-name="paragraph" unicode="&#xb6;" horiz-adv-x="611" 
d="M593 710v-30h-32q-19 0 -31 -8.5t-17 -26.5t-6 -32.5t-1 -41.5v-399q0 -72 -2 -109.5t-14.5 -84t-37.5 -79.5q-90 -115 -256 -115q-74 0 -113 23.5t-39 62.5q0 26 18 45t46 19q27 0 44.5 -18.5t17.5 -43.5q0 -22 -13 -37q60 -7 89 70q11 30 13.5 79t2.5 172v101
q-79 -3 -140 25q-57 26 -89.5 79.5t-32.5 119.5q0 69 34 119.5t88 77.5q66 32 188 32h283zM451 680h-97q-36 -19 -45 -67q-7 -37 -7 -170v-272q0 -153 -4 -203.5t-22 -84.5q-32 -59 -99 -69q59 -3 111.5 22t80.5 80q15 29 23 78t9 83.5t1 94.5v208q0 204 5 234q6 42 44 66z
" />
    <glyph glyph-name="periodcentered" unicode="&#xb7;" horiz-adv-x="389" 
d="M304 310l3 -7q-47 -43 -68 -88q-67 28 -154 44l-2 6q42 45 71 91q53 -27 150 -46z" />
    <glyph glyph-name="cedilla" unicode="&#xb8;" horiz-adv-x="278" 
d="M117 -205l-2 5q60 60 60 98q0 19 -13.5 36.5t-48.5 17.5q-54 0 -129 -49l-4 2l11 44q75 51 149 51q50 0 90.5 -26t40.5 -81q0 -57 -59 -106q-48 8 -95 8z" />
    <glyph glyph-name="one.superior" unicode="&#xb9;" horiz-adv-x="346" 
d="M340 329l-16 -45q-100 2 -149 2q-137 0 -172 -2l14 45q30 -4 102 -4q0 17 4.5 116t4.5 107q0 82 -5 112q-17 0 -30 -2q-5 0 -38 -5l-40 -6l-3 4l15 39q155 9 209 20l7 -5q-18 -66 -18 -269q0 -75 5 -111q10 0 53 2t51 2h6z" />
    <glyph glyph-name="ordmasculine" unicode="&#xba;" horiz-adv-x="421" 
d="M237 440q-73 -17 -100 -17q-61 0 -96 36.5t-35 88.5q0 113 139 147q97 23 131 23q66 0 96.5 -39t30.5 -91q0 -68 -55 -107q-30 -22 -111 -41zM96 560q0 -48 33.5 -73t75.5 -25q39 0 72 29q12 11 17.5 17.5t12 27.5t6.5 53q0 42 -19 60q-34 31 -88 31q-36 0 -73 -34
t-37 -86z" />
    <glyph glyph-name="guillemotright" unicode="&#xbb;" horiz-adv-x="593" 
d="M261 413l1 5q24 -3 64 -3q44 0 69 3q72 -85 163 -164v-5q-8 -4 -45 -30l-93 -68.5t-96 -78.5q-4 0 -24 0.5t-23 0.5q-24 0 -30 -1l-3 4q39 26 113 82.5t94 73.5q-133 137 -190 181zM45 413l2 5q18 -3 64 -3q47 0 67 3q27 -33 68.5 -75.5l69 -68.5t34.5 -31v-4
q-62 -39 -231 -167q-9 1 -39 1q-29 0 -40 -1l-3 3l180 128q6 4 14.5 11t10.5 8q-94 97 -124 125q-3 3 -73 66z" />
    <glyph glyph-name="onequarter" unicode="&#xbc;" horiz-adv-x="920" 
d="M890 154l2 -3l-28 -62q-14 0 -43 1t-37 1q0 -69 3 -88l-2 -3q-16 1 -51 1q-39 0 -52 -1l-2 3q7 25 11 89q-10 0 -73.5 0.5t-75.5 0.5q-21 -1 -133 -5l-4 6q24 22 121.5 136.5l160.5 194.5q2 0 34.5 -1t41.5 -1q13 0 43 2l3 -2q-12 -69 -16 -133q0 -4 -2 -32t-3.5 -58
t-1.5 -54q67 0 104 8zM699 372l-63 -69.5l-46.5 -56.5t-78.5 -103q30 -2 70 -2q8 0 56 1t58 1q0 30 1.5 81t2 90t0.5 58zM290 -18h-83l-4 4l72 120.5l77 129.5l165.5 302.5t97.5 189.5h86l4 -6q-46 -65 -183 -305t-232 -435zM340 329l-16 -45q-100 2 -149 2q-137 0 -172 -2
l14 45q30 -4 102 -4q0 17 4.5 116t4.5 107q0 82 -5 112q-17 0 -30 -2q-5 0 -38 -5l-40 -6l-3 4l15 39q155 9 209 20l7 -5q-18 -66 -18 -269q0 -75 5 -111q10 0 53 2t51 2h6z" />
    <glyph glyph-name="onehalf" unicode="&#xbd;" horiz-adv-x="940" 
d="M938 69l2 -4l-42 -69q-128 4 -229 4q-51 0 -207 -4l-2 6q127 48 210.5 117t97.5 116q-31 -17 -71.5 -31.5t-65.5 -14.5q-47 0 -78.5 31.5t-31.5 74.5q0 53 43 85.5t95 37.5q75 10 92 10q55 0 100.5 -29t45.5 -93q0 -72 -72 -141t-177 -122q105 2 189 9q64 5 101 17z
M787 306q0 40 -24.5 65.5t-61.5 25.5q-9 0 -19.5 -2.5t-26 -10.5t-25 -28t-9.5 -50q0 -22 18 -43t51 -21q48 0 87 28q10 7 10 36zM290 -18h-83l-4 4l72 120.5l77 129.5l165.5 302.5t97.5 189.5h86l4 -6q-46 -65 -183 -305t-232 -435zM340 329l-16 -45q-100 2 -149 2
q-137 0 -172 -2l14 45q30 -4 102 -4q0 17 4.5 116t4.5 107q0 82 -5 112q-17 0 -30 -2q-5 0 -38 -5l-40 -6l-3 4l15 39q155 9 209 20l7 -5q-18 -66 -18 -269q0 -75 5 -111q10 0 53 2t51 2h6z" />
    <glyph glyph-name="threequarters" unicode="&#xbe;" horiz-adv-x="920" 
d="M890 154l2 -3l-28 -62q-14 0 -43 1t-37 1q0 -69 3 -88l-2 -3q-16 1 -51 1q-39 0 -52 -1l-2 3q7 25 11 89q-10 0 -73.5 0.5t-75.5 0.5q-21 -1 -133 -5l-4 6q24 22 121.5 136.5l160.5 194.5q2 0 34.5 -1t41.5 -1q13 0 43 2l3 -2q-12 -69 -16 -133q0 -4 -2 -32t-3.5 -58
t-1.5 -54q67 0 104 8zM699 372l-63 -69.5l-46.5 -56.5t-78.5 -103q30 -2 70 -2q8 0 56 1t58 1q0 30 1.5 81t2 90t0.5 58zM290 -18h-83l-4 4l72 120.5l77 129.5l165.5 302.5t97.5 189.5h86l4 -6q-46 -65 -183 -305t-232 -435zM5 293l-13 64l5 3q56 -41 156 -41
q47 0 78.5 25.5t31.5 69.5q0 49 -36 70q-35 19 -72 19q-23 0 -67.5 -7.5t-79.5 -21.5l-3 6q35 24 110.5 92t98.5 95q-27 2 -95 -2.5t-114 -14.5l-3 3l32 56q1 0 36 -0.5t63 -0.5q89 0 127 1q54 2 128 9l3 -5q-35 -21 -106.5 -83t-103.5 -96q39 3 51 3q68 0 108 -36
q30 -27 30 -68q0 -63 -68.5 -107.5t-172.5 -44.5q-63 0 -124 12z" />
    <glyph glyph-name="questiondown" unicode="&#xbf;" horiz-adv-x="463" 
d="M376 -102l5 -3l3 -37q-8 -5 -62 -42q-78 -53 -147 -53q-38 0 -69.5 24.5t-31.5 68.5q0 32 19 60t85 102q24 27 35.5 42t25 41t13.5 47q0 37 -24 57.5t-57 20.5q-56 0 -108 -37l-5 4l5 38q50 26 74.5 37t65.5 23.5t76 12.5q34 0 57 -10.5t31.5 -27.5t11 -27t2.5 -19
q0 -22 -14 -48.5t-28.5 -44.5t-45.5 -53q-47 -53 -66.5 -83t-19.5 -61q0 -30 21.5 -51.5t57.5 -21.5q38 0 90 41zM130 414l-1 6q52 39 86 71q68 -31 142 -43l2 -6q-20 -12 -45.5 -35.5t-33.5 -32.5q-96 33 -150 40z" />
    <glyph glyph-name="Agrave" unicode="&#xc0;" 
d="M711 3l-2 -4q-57 3 -90 3q-26 0 -92 -3l-3 4q-11 69 -24 112l-34 115q-25 0 -125 2q-13 0 -65 -1.5t-67 -0.5q-2 -7 -26.5 -79t-27.5 -86q-7 -28 -12 -62l-4 -3q-48 4 -75 4q-14 0 -54 -4l-3 4q34 39 92 170q27 61 73 180l79.5 209t33.5 93q0 10 -33 47l3 6
q8 0 63.5 -1.5t66.5 -1.5q10 0 29 1.5t32 1.5l4 -5q43 -192 149 -478q42 -112 63 -154t49 -69zM342 575l-50 -126.5t-63 -165.5q34 -2 122 -2q75 0 98 2q-67 205 -107 292zM415 728l-208 115v5l87 39l171 -128z" />
    <glyph glyph-name="Aacute" unicode="&#xc1;" 
d="M711 3l-2 -4q-57 3 -90 3q-26 0 -92 -3l-3 4q-11 69 -24 112l-34 115q-25 0 -125 2q-13 0 -65 -1.5t-67 -0.5q-2 -7 -26.5 -79t-27.5 -86q-7 -28 -12 -62l-4 -3q-48 4 -75 4q-14 0 -54 -4l-3 4q34 39 92 170q27 61 73 180l79.5 209t33.5 93q0 10 -33 47l3 6
q8 0 63.5 -1.5t66.5 -1.5q10 0 29 1.5t32 1.5l4 -5q43 -192 149 -478q42 -112 63 -154t49 -69zM342 575l-50 -126.5t-63 -165.5q34 -2 122 -2q75 0 98 2q-67 205 -107 292zM339 725l-43 36q1 1 2.5 2t3.5 3l1 1l157 119l90 -38v-5z" />
    <glyph glyph-name="Acircumflex" unicode="&#xc2;" 
d="M711 3l-2 -4q-57 3 -90 3q-26 0 -92 -3l-3 4q-11 69 -24 112l-34 115q-25 0 -125 2q-13 0 -65 -1.5t-67 -0.5q-2 -7 -26.5 -79t-27.5 -86q-7 -28 -12 -62l-4 -3q-48 4 -75 4q-14 0 -54 -4l-3 4q34 39 92 170q27 61 73 180l79.5 209t33.5 93q0 10 -33 47l3 6
q8 0 63.5 -1.5t66.5 -1.5q10 0 29 1.5t32 1.5l4 -5q43 -192 149 -478q42 -112 63 -154t49 -69zM342 575l-50 -126.5t-63 -165.5q34 -2 122 -2q75 0 98 2q-67 205 -107 292zM221 713l-40 19v5q31 20 99 73q63 50 100 77q27 -17 99.5 -57.5t102.5 -53.5v-5l-75 -42
q-79 40 -153 85z" />
    <glyph glyph-name="Atilde" unicode="&#xc3;" 
d="M711 3l-2 -4q-57 3 -90 3q-26 0 -92 -3l-3 4q-11 69 -24 112l-34 115q-25 0 -125 2q-13 0 -65 -1.5t-67 -0.5q-2 -7 -26.5 -79t-27.5 -86q-7 -28 -12 -62l-4 -3q-48 4 -75 4q-14 0 -54 -4l-3 4q34 39 92 170q27 61 73 180l79.5 209t33.5 93q0 10 -33 47l3 6
q8 0 63.5 -1.5t66.5 -1.5q10 0 29 1.5t32 1.5l4 -5q43 -192 149 -478q42 -112 63 -154t49 -69zM342 575l-50 -126.5t-63 -165.5q34 -2 122 -2q75 0 98 2q-67 205 -107 292zM545 876l21 -11q-19 -45 -60 -91q-25 -27 -51 -27q-19 0 -93 25q-49 17 -75 17q-14 0 -25.5 -7.5
t-19 -16.5t-22.5 -31l-23 11q2 3 4 7.5t9 16.5l17 30q37 67 82 67q25 0 88 -22q60 -21 82 -21q19 0 37 18q1 0 5.5 6l12 15.5t11.5 13.5z" />
    <glyph glyph-name="Adieresis" unicode="&#xc4;" 
d="M711 3l-2 -4q-57 3 -90 3q-26 0 -92 -3l-3 4q-11 69 -24 112l-34 115q-25 0 -125 2q-13 0 -65 -1.5t-67 -0.5q-2 -7 -26.5 -79t-27.5 -86q-7 -28 -12 -62l-4 -3q-48 4 -75 4q-14 0 -54 -4l-3 4q34 39 92 170q27 61 73 180l79.5 209t33.5 93q0 10 -33 47l3 6
q8 0 63.5 -1.5t66.5 -1.5q10 0 29 1.5t32 1.5l4 -5q43 -192 149 -478q42 -112 63 -154t49 -69zM342 575l-50 -126.5t-63 -165.5q34 -2 122 -2q75 0 98 2q-67 205 -107 292zM398 753l-3 6q8 10 49 56t46 53q9 -5 37.5 -15t37.5 -12l3 -4q-47 -36 -108 -102q-35 14 -62 18z
M214 754l-3 5q75 80 95 109q37 -17 75 -26l3 -6q-76 -66 -108 -102q-20 10 -62 20z" />
    <glyph glyph-name="Aring" unicode="&#xc5;" 
d="M711 3l-2 -4q-57 3 -90 3q-26 0 -92 -3l-3 4q-11 69 -24 112l-34 115q-25 0 -125 2q-13 0 -65 -1.5t-67 -0.5q-2 -7 -26.5 -79t-27.5 -86q-7 -28 -12 -62l-4 -3q-48 4 -75 4q-14 0 -54 -4l-3 4q34 39 92 170q27 61 73 180l79.5 209t33.5 93q0 10 -33 47l3 6
q8 0 63.5 -1.5t66.5 -1.5q10 0 29 1.5t32 1.5l4 -5q43 -192 149 -478q42 -112 63 -154t49 -69zM342 575l-50 -126.5t-63 -165.5q34 -2 122 -2q75 0 98 2q-67 205 -107 292zM478 829q0 -103 -162 -103q-84 0 -84 76q0 97 160 97q47 0 70 -26q16 -19 16 -44zM296 809
q0 -58 52 -58q36 0 51 22t15 46q0 25 -13 41q-12 15 -37 15q-22 0 -37 -8.5t-21 -21t-8 -21t-2 -15.5z" />
    <glyph glyph-name="AE" unicode="&#xc6;" horiz-adv-x="926" 
d="M874 735l-37 -106q-73 5 -186 5q-45 0 -52 -6q-11 -9 -11 -107q0 -69 -2 -143q25 -2 86.5 -0.5t80.5 2.5q58 3 93 32h4q-7 -50 -13 -107q-60 7 -184 9l-60 1h-8v-112q0 -102 3 -113q4 -10 14 -12t56 -2q97 0 130.5 6t61.5 33h4l-8 -120q-10 1 -68 4q-96 4 -235 4
q-61 0 -105 -4v4q18 40 21 101q5 85 5 211h-198l-49 -105q-68 -153 -80 -211q-20 4 -71 4q-57 0 -76 -4v4q54 58 91.5 123.5t147.5 286.5q31 62 109 231q8 18 8 29q0 17 -16 32v4q112 -4 252 -4q150 0 200 4q55 4 87 29zM296 374h168q1 50 0.5 91.5t-1 90.5t-0.5 51
q0 31 -14 31q-23 0 -153 -264z" />
    <glyph glyph-name="Ccedilla" unicode="&#xc7;" horiz-adv-x="870" 
d="M851 609l-130 -49l-4 1q-31 45 -78.5 71.5t-79.5 32.5t-61 6q-46 0 -96 -21.5t-95.5 -61t-75 -106.5t-29.5 -147q0 -142 82 -223.5t202 -81.5q72 0 166 43t169 101l3 -3q-30 -82 -59 -172h-247q-4 0 -50 -2t-50 -2q-110 0 -168.5 18.5t-110.5 79.5q-78 92 -78 231
q0 30 4.5 61.5t19.5 75.5t39.5 81t70 71.5t104.5 52.5q53 16 154 34t147 18q152 0 252 -104zM457 -225l-2 5q60 60 60 98q0 19 -13.5 36.5t-48.5 17.5q-54 0 -129 -49l-4 2l11 44q75 51 149 51q50 0 90.5 -26t40.5 -81q0 -57 -59 -106q-48 8 -95 8z" />
    <glyph glyph-name="Egrave" unicode="&#xc8;" horiz-adv-x="611" 
d="M557 736l-37 -108q-33 5 -238 5q-16 0 -23 -0.5t-14.5 -4.5t-10.5 -12q-7 -22 -7 -233q10 -1 107 0t110 2q22 2 37.5 6.5t23.5 9.5t24 17l4 -3l-10 -105q-45 5 -108 7q-14 0 -94 0.5t-94 1.5q-4 -176 2 -225q2 -14 12.5 -16.5t55.5 -2.5q141 0 175 7q30 6 60 33l5 -3
l-6 -118q-1 0 -71 5q-60 4 -253 4q-98 0 -125 -4l-4 5q14 26 20 77q8 83 8 264q0 248 -5 291q-6 49 -21 68l2 5q63 -4 206 -4q139 0 176 4q50 6 88 30zM360 728l-208 115v5l87 39l171 -128z" />
    <glyph glyph-name="Eacute" unicode="&#xc9;" horiz-adv-x="611" 
d="M557 736l-37 -108q-33 5 -238 5q-16 0 -23 -0.5t-14.5 -4.5t-10.5 -12q-7 -22 -7 -233q10 -1 107 0t110 2q22 2 37.5 6.5t23.5 9.5t24 17l4 -3l-10 -105q-45 5 -108 7q-14 0 -94 0.5t-94 1.5q-4 -176 2 -225q2 -14 12.5 -16.5t55.5 -2.5q141 0 175 7q30 6 60 33l5 -3
l-6 -118q-1 0 -71 5q-60 4 -253 4q-98 0 -125 -4l-4 5q14 26 20 77q8 83 8 264q0 248 -5 291q-6 49 -21 68l2 5q63 -4 206 -4q139 0 176 4q50 6 88 30zM284 725l-43 36q1 1 2.5 2t2.5 3l2 1l157 119l90 -38v-5z" />
    <glyph glyph-name="Ecircumflex" unicode="&#xca;" horiz-adv-x="611" 
d="M557 736l-37 -108q-33 5 -238 5q-16 0 -23 -0.5t-14.5 -4.5t-10.5 -12q-7 -22 -7 -233q10 -1 107 0t110 2q22 2 37.5 6.5t23.5 9.5t24 17l4 -3l-10 -105q-45 5 -108 7q-14 0 -94 0.5t-94 1.5q-4 -176 2 -225q2 -14 12.5 -16.5t55.5 -2.5q141 0 175 7q30 6 60 33l5 -3
l-6 -118q-1 0 -71 5q-60 4 -253 4q-98 0 -125 -4l-4 5q14 26 20 77q8 83 8 264q0 248 -5 291q-6 49 -21 68l2 5q63 -4 206 -4q139 0 176 4q50 6 88 30zM166 713l-40 19v5q31 20 99 73q63 50 100 77q27 -17 99.5 -57.5t102.5 -53.5v-5l-75 -42q-79 40 -153 85z" />
    <glyph glyph-name="Edieresis" unicode="&#xcb;" horiz-adv-x="611" 
d="M557 736l-37 -108q-33 5 -238 5q-16 0 -23 -0.5t-14.5 -4.5t-10.5 -12q-7 -22 -7 -233q10 -1 107 0t110 2q22 2 37.5 6.5t23.5 9.5t24 17l4 -3l-10 -105q-45 5 -108 7q-14 0 -94 0.5t-94 1.5q-4 -176 2 -225q2 -14 12.5 -16.5t55.5 -2.5q141 0 175 7q30 6 60 33l5 -3
l-6 -118q-1 0 -71 5q-60 4 -253 4q-98 0 -125 -4l-4 5q14 26 20 77q8 83 8 264q0 248 -5 291q-6 49 -21 68l2 5q63 -4 206 -4q139 0 176 4q50 6 88 30zM378 764l-3 6q8 10 49 56t46 53q9 -5 37.5 -15t37.5 -12l3 -4q-47 -36 -108 -102q-35 14 -62 18zM194 765l-3 5
q75 80 95 109q37 -17 75 -26l3 -6q-76 -66 -108 -102q-20 10 -62 20z" />
    <glyph glyph-name="Igrave" unicode="&#xcc;" horiz-adv-x="333" 
d="M82 0l-2 2q16 50 21 134q6 88 6 275q0 83 -1 122t-6.5 88t-16.5 86l2 2q60 -4 91 -4q12 0 76 4l4 -2q-13 -51 -18 -110q-9 -121 -9 -325q0 -136 7 -202q3 -33 16 -67l-3 -3q-68 4 -96 4q-29 0 -71 -4zM221 728l-208 115v5l87 39l171 -128z" />
    <glyph glyph-name="Iacute" unicode="&#xcd;" horiz-adv-x="333" 
d="M82 0l-2 2q16 50 21 134q6 88 6 275q0 83 -1 122t-6.5 88t-16.5 86l2 2q60 -4 91 -4q12 0 76 4l4 -2q-13 -51 -18 -110q-9 -121 -9 -325q0 -136 7 -202q3 -33 16 -67l-3 -3q-68 4 -96 4q-29 0 -71 -4zM145 725l-43 36q1 1 2.5 2t3.5 3l1 1l157 119l90 -38v-5z" />
    <glyph glyph-name="Icircumflex" unicode="&#xce;" horiz-adv-x="333" 
d="M82 0l-2 2q16 50 21 134q6 88 6 275q0 83 -1 122t-6.5 88t-16.5 86l2 2q60 -4 91 -4q12 0 76 4l4 -2q-13 -51 -18 -110q-9 -121 -9 -325q0 -136 7 -202q3 -33 16 -67l-3 -3q-68 4 -96 4q-29 0 -71 -4zM27 713l-40 19v5q31 20 99 73q63 50 100 77q27 -17 99.5 -57.5
t102.5 -53.5v-5l-75 -42q-79 40 -153 85z" />
    <glyph glyph-name="Idieresis" unicode="&#xcf;" horiz-adv-x="333" 
d="M82 0l-2 2q16 50 21 134q6 88 6 275q0 83 -1 122t-6.5 88t-16.5 86l2 2q60 -4 91 -4q12 0 76 4l4 -2q-13 -51 -18 -110q-9 -121 -9 -325q0 -136 7 -202q3 -33 16 -67l-3 -3q-68 4 -96 4q-29 0 -71 -4zM239 764l-3 6q8 10 49 56t46 53q9 -5 37.5 -15t37.5 -12l3 -4
q-47 -36 -108 -102q-35 14 -62 18zM55 765l-3 5q75 80 95 109q37 -17 75 -26l3 -6q-76 -66 -108 -102q-20 10 -62 20z" />
    <glyph glyph-name="Eth" unicode="&#xd0;" horiz-adv-x="870" 
d="M-47 313l54 85q42 -4 99 -4v38q0 182 -11 225q-6 19 -35 46l2 6q6 0 52 -2t60 -2q16 0 76 2t80 2q44 1 91 2.5l76 2.5t39 1q27 0 43 -1.5t43 -7.5t52 -21.5t49 -40.5q87 -90 87 -250q0 -71 -23 -136.5t-44.5 -96.5t-43.5 -54q-29 -31 -63 -52t-62 -32t-67 -16.5
t-63.5 -6.5t-65.5 -1q-34 0 -121 2t-121 2q-2 0 -74 -4l-3 8q26 26 32 44q12 32 14 272q-102 5 -148 -15zM493 399l-51 -86q-65 11 -200 11h-17q-1 -54 -1 -83q0 -124 10 -154q9 -27 48 -40.5t77 -13.5q125 0 217.5 99.5t92.5 262.5q0 124 -79 205t-186 81
q-105 0 -141.5 -48.5t-36.5 -148.5q0 -69 -1 -93q21 -1 49 -1q159 0 215 14z" />
    <glyph glyph-name="Ntilde" unicode="&#xd1;" horiz-adv-x="907" 
d="M688 705l3 4q32 -4 68 -4t87 4l2 -3q-29 -32 -37 -72q-12 -65 -12 -321q0 -228 8 -259q7 -23 34 -51l-3 -4q-9 0 -54.5 2t-49.5 2q-8 0 -88 -4l-317 406l-58 70.5t-62 77.5q-4 -113 -2 -214l2 -209q0 -96 12 -128l-3 -3q-54 4 -95 4q-21 0 -65 -4l-3 5q40 43 47 114
q6 63 6 280q0 239 -8 258q-8 20 -42 49l3 4q2 0 49 -2t60 -2q46 0 80 4q19 -26 158 -204l291 -365q2 347 0 431t-11 134zM638 876l21 -11q-19 -45 -60 -91q-25 -27 -51 -27q-19 0 -93 25q-49 17 -75 17q-14 0 -25.5 -7.5t-19 -16.5t-22.5 -31l-23 11q2 3 4 7.5t9 16.5l17 30
q37 67 82 67q25 0 88 -22q60 -21 82 -21q19 0 37 18q1 0 5.5 6l12 15.5t11.5 13.5z" />
    <glyph glyph-name="Ograve" unicode="&#xd2;" horiz-adv-x="1000" 
d="M941 385q0 -69 -22.5 -129.5t-60 -103t-79 -71t-85.5 -44.5q-55 -19 -158.5 -31.5t-157.5 -12.5q-144 0 -230.5 94t-86.5 231q0 43 11 87.5t36 94.5t75.5 93t119.5 68q57 20 215 48q46 9 94 9q145 0 237 -95.5t92 -237.5zM796 402q-1 40 -20 86.5t-48 80.5
q-44 53 -108 77t-120 24q-117 0 -206 -104.5t-89 -241.5q0 -69 26 -126t68 -92t91 -54t98 -19q61 0 123 29t102 76q31 37 50 76t25 78.5t7.5 59t0.5 50.5zM554 728l-208 115v5l87 39l171 -128z" />
    <glyph glyph-name="Oacute" unicode="&#xd3;" horiz-adv-x="1000" 
d="M941 385q0 -69 -22.5 -129.5t-60 -103t-79 -71t-85.5 -44.5q-55 -19 -158.5 -31.5t-157.5 -12.5q-144 0 -230.5 94t-86.5 231q0 43 11 87.5t36 94.5t75.5 93t119.5 68q57 20 215 48q46 9 94 9q145 0 237 -95.5t92 -237.5zM796 402q-1 40 -20 86.5t-48 80.5
q-44 53 -108 77t-120 24q-117 0 -206 -104.5t-89 -241.5q0 -69 26 -126t68 -92t91 -54t98 -19q61 0 123 29t102 76q31 37 50 76t25 78.5t7.5 59t0.5 50.5zM478 725l-43 36q1 1 2.5 2t2.5 3l2 1l157 119l90 -38v-5z" />
    <glyph glyph-name="Ocircumflex" unicode="&#xd4;" horiz-adv-x="1000" 
d="M941 385q0 -69 -22.5 -129.5t-60 -103t-79 -71t-85.5 -44.5q-55 -19 -158.5 -31.5t-157.5 -12.5q-144 0 -230.5 94t-86.5 231q0 43 11 87.5t36 94.5t75.5 93t119.5 68q57 20 215 48q46 9 94 9q145 0 237 -95.5t92 -237.5zM796 402q-1 40 -20 86.5t-48 80.5
q-44 53 -108 77t-120 24q-117 0 -206 -104.5t-89 -241.5q0 -69 26 -126t68 -92t91 -54t98 -19q61 0 123 29t102 76q31 37 50 76t25 78.5t7.5 59t0.5 50.5zM360 713l-40 19v5q31 20 99 73q63 50 100 77q27 -17 99.5 -57.5t102.5 -53.5v-5l-75 -42q-79 40 -153 85z" />
    <glyph glyph-name="Otilde" unicode="&#xd5;" horiz-adv-x="1000" 
d="M941 385q0 -69 -22.5 -129.5t-60 -103t-79 -71t-85.5 -44.5q-55 -19 -158.5 -31.5t-157.5 -12.5q-144 0 -230.5 94t-86.5 231q0 43 11 87.5t36 94.5t75.5 93t119.5 68q57 20 215 48q46 9 94 9q145 0 237 -95.5t92 -237.5zM796 402q-1 40 -20 86.5t-48 80.5
q-44 53 -108 77t-120 24q-117 0 -206 -104.5t-89 -241.5q0 -69 26 -126t68 -92t91 -54t98 -19q61 0 123 29t102 76q31 37 50 76t25 78.5t7.5 59t0.5 50.5zM684 876l21 -11q-19 -45 -60 -91q-25 -27 -51 -27q-19 0 -93 25q-49 17 -75 17q-14 0 -25.5 -7.5t-19 -16.5
t-22.5 -31l-23 11q2 3 4 7.5t9 16.5l17 30q37 67 82 67q25 0 88 -22q60 -21 82 -21q19 0 37 18q1 0 5.5 6l12 15.5t11.5 13.5z" />
    <glyph glyph-name="Odieresis" unicode="&#xd6;" horiz-adv-x="1000" 
d="M941 385q0 -69 -22.5 -129.5t-60 -103t-79 -71t-85.5 -44.5q-55 -19 -158.5 -31.5t-157.5 -12.5q-144 0 -230.5 94t-86.5 231q0 43 11 87.5t36 94.5t75.5 93t119.5 68q57 20 215 48q46 9 94 9q145 0 237 -95.5t92 -237.5zM796 402q-1 40 -20 86.5t-48 80.5
q-44 53 -108 77t-120 24q-117 0 -206 -104.5t-89 -241.5q0 -69 26 -126t68 -92t91 -54t98 -19q61 0 123 29t102 76q31 37 50 76t25 78.5t7.5 59t0.5 50.5zM521 753l-3 6q8 10 49 56t46 53q9 -5 37.5 -15t37.5 -12l3 -4q-47 -36 -108 -102q-35 14 -62 18zM337 754l-3 5
q75 80 95 109q37 -17 75 -26l3 -6q-76 -66 -108 -102q-20 10 -62 20z" />
    <glyph glyph-name="multiply" unicode="&#xd7;" horiz-adv-x="593" 
d="M45 83l177 176l-177 177l74 74l177 -176l177 177l74 -75l-177 -176l177 -177l-74 -75l-177 177l-177 -176z" />
    <glyph glyph-name="Oslash" unicode="&#xd8;" horiz-adv-x="1000" 
d="M157 -56l-47 30q6 7 39 40l37 37q-126 107 -126 266q0 43 11 88t36.5 95t76 93t119.5 67q41 14 149 36q116 22 168 22q76 0 149 -38q50 53 70 81l48 -29q-20 -18 -75 -77q128 -107 128 -273q0 -122 -75 -220.5t-199 -133.5q-49 -13 -148 -24t-136 -11q-88 0 -152 33
q-7 -7 -39 -43t-34 -39zM729 564l-428 -461q80 -70 185 -70q125 0 217.5 96.5t92.5 242.5q0 112 -67 192zM267 138l428 461q-85 71 -198 71q-112 0 -203 -103t-91 -242q0 -110 64 -187z" />
    <glyph glyph-name="Ugrave" unicode="&#xd9;" horiz-adv-x="852" 
d="M74 706l3 3q35 -4 80 -4q64 0 85 4l4 -3q-27 -75 -27 -363q0 -101 6.5 -151.5t25.5 -81.5q35 -61 133 -61q65 0 125.5 43t91.5 105q19 39 25 87.5t6 146.5q0 219 -22 277l4 1q46 -4 95 -4q39 0 61 4l4 -4q-25 -82 -25 -337q0 -248 7 -294q6 -40 28 -72l-2 -3q-29 4 -67 4
q-66 0 -94 -4l-3 3q1 6 2.5 23.5t3 38t1.5 22.5q-50 -27 -189.5 -62t-192.5 -35q-40 0 -68.5 11.5t-43.5 27.5t-23 41.5t-9.5 43.5t-1.5 43q0 31 1.5 112.5t1.5 113.5q0 175 -7 245q-5 51 -19 79zM480 728l-208 115v5l87 39l171 -128z" />
    <glyph glyph-name="Uacute" unicode="&#xda;" horiz-adv-x="852" 
d="M74 706l3 3q35 -4 80 -4q64 0 85 4l4 -3q-27 -75 -27 -363q0 -101 6.5 -151.5t25.5 -81.5q35 -61 133 -61q65 0 125.5 43t91.5 105q19 39 25 87.5t6 146.5q0 219 -22 277l4 1q46 -4 95 -4q39 0 61 4l4 -4q-25 -82 -25 -337q0 -248 7 -294q6 -40 28 -72l-2 -3q-29 4 -67 4
q-66 0 -94 -4l-3 3q1 6 2.5 23.5t3 38t1.5 22.5q-50 -27 -189.5 -62t-192.5 -35q-40 0 -68.5 11.5t-43.5 27.5t-23 41.5t-9.5 43.5t-1.5 43q0 31 1.5 112.5t1.5 113.5q0 175 -7 245q-5 51 -19 79zM404 725l-43 36q1 1 2.5 2t2.5 3l2 1l157 119l90 -38v-5z" />
    <glyph glyph-name="Ucircumflex" unicode="&#xdb;" horiz-adv-x="852" 
d="M74 706l3 3q35 -4 80 -4q64 0 85 4l4 -3q-27 -75 -27 -363q0 -101 6.5 -151.5t25.5 -81.5q35 -61 133 -61q65 0 125.5 43t91.5 105q19 39 25 87.5t6 146.5q0 219 -22 277l4 1q46 -4 95 -4q39 0 61 4l4 -4q-25 -82 -25 -337q0 -248 7 -294q6 -40 28 -72l-2 -3q-29 4 -67 4
q-66 0 -94 -4l-3 3q1 6 2.5 23.5t3 38t1.5 22.5q-50 -27 -189.5 -62t-192.5 -35q-40 0 -68.5 11.5t-43.5 27.5t-23 41.5t-9.5 43.5t-1.5 43q0 31 1.5 112.5t1.5 113.5q0 175 -7 245q-5 51 -19 79zM286 713l-40 19v5q31 20 99 73q63 50 100 77q27 -17 99.5 -57.5t102.5 -53.5
v-5l-75 -42q-79 40 -153 85z" />
    <glyph glyph-name="Udieresis" unicode="&#xdc;" horiz-adv-x="852" 
d="M74 706l3 3q35 -4 80 -4q64 0 85 4l4 -3q-27 -75 -27 -363q0 -101 6.5 -151.5t25.5 -81.5q35 -61 133 -61q65 0 125.5 43t91.5 105q19 39 25 87.5t6 146.5q0 219 -22 277l4 1q46 -4 95 -4q39 0 61 4l4 -4q-25 -82 -25 -337q0 -248 7 -294q6 -40 28 -72l-2 -3q-29 4 -67 4
q-66 0 -94 -4l-3 3q1 6 2.5 23.5t3 38t1.5 22.5q-50 -27 -189.5 -62t-192.5 -35q-40 0 -68.5 11.5t-43.5 27.5t-23 41.5t-9.5 43.5t-1.5 43q0 31 1.5 112.5t1.5 113.5q0 175 -7 245q-5 51 -19 79zM493 754l-3 6q8 10 49 56t46 53q9 -5 37.5 -15t37.5 -12l3 -4
q-47 -36 -108 -102q-35 14 -62 18zM309 755l-3 5q75 80 95 109q37 -17 75 -26l3 -6q-76 -66 -108 -102q-20 10 -62 20z" />
    <glyph glyph-name="Yacute" unicode="&#xdd;" horiz-adv-x="667" 
d="M534 706l4 3q51 -4 85 -4t58 4l2 -6q-79 -68 -246 -373q-40 -73 -48.5 -101.5t-8.5 -72.5q0 -98 20 -155l-2 -2q-34 4 -79 4t-79 -4l-3 3q19 57 19 160q0 50 -18 97t-111 229q-80 159 -129 217l3 4q40 -5 78 -4q6 0 86 4l3 -3q17 -62 84 -203t90 -181q78 137 137 257
q26 53 55 127zM312 725l-43 36q1 1 2.5 2t2.5 3l2 1l157 119l90 -38v-5z" />
    <glyph glyph-name="Thorn" unicode="&#xde;" 
d="M523 403q0 63 -36.5 104.5t-106.5 41.5q-63 0 -101 -35q-42 -37 -46 -129q-1 -13 -2 -88.5t-1 -89.5q47 -13 85 -13q92 0 150 62t58 147zM238 597l-1 -19q3 0 105 3q112 5 155 5q70 0 119.5 -47.5t49.5 -128.5q0 -110 -86 -181t-224 -71q-45 0 -127 15q-1 -31 7 -103
q3 -33 16 -67l-3 -4q-68 4 -96 4q-29 0 -71 -4l-2 3q14 45 21 134q9 113 9 275q0 210 -27 294l2 4q30 -4 91 -4q12 0 76 4l4 -3q-15 -55 -18 -109z" />
    <glyph glyph-name="germandbls" unicode="&#xdf;" horiz-adv-x="704" 
d="M696 659l12 -78q-27 10 -53 10q-33 0 -57.5 -17.5t-37 -44t-18.5 -52t-6 -47.5q0 -63 38 -117q50 -68 59 -84.5t9 -35.5q0 -29 -18 -63t-51 -66t-88 -53t-120 -21q-53 0 -96 10l21 90h9q19 -25 35 -40q27 -24 54 -24q41 0 74.5 45t33.5 104q0 33 -9.5 54.5t-43.5 74.5
q-31 49 -31 101q0 94 97 175q-20 27 -52 43t-48 18t-28 2q-44 0 -86 -25t-60 -69q-15 -35 -22 -91.5t-7 -198.5q0 -186 13 -256l-4 -3q-42 3 -69 3q-40 0 -61 -3l-5 3q15 62 15 294q0 25 -1 90.5t-1 91.5q0 62 6.5 94.5t33.5 59.5q46 46 153 46q33 0 89 -4l14 -1l16 1
q25 2 51.5 3.5t38.5 2.5t14 1q34 0 57.5 -8.5t30.5 -15.5t16 -19q19 8 83 20z" />
    <glyph glyph-name="agrave" unicode="&#xe0;" 
d="M663 471l3 -4q-39 -112 -39 -297q0 -107 20 -164l-3 -5q-75 3 -135 -5l-2 54q-38 -19 -126.5 -39.5t-128.5 -20.5q-92 0 -143 50q-54 53 -54 155q0 95 56.5 164t131.5 89q43 12 112 12q10 0 28 3q56 7 69 7q56 0 116 -25q86 23 95 26zM533 338q-66 95 -151 95
q-25 0 -57 -14t-65 -41t-55 -75t-22 -107q0 -46 15 -81t37 -53t43 -26t38 -8q60 0 127 71q31 33 49.5 74t25 71.5t15.5 93.5zM400 532l-208 115v5l87 39l171 -128z" />
    <glyph glyph-name="aacute" unicode="&#xe1;" 
d="M663 471l3 -4q-39 -112 -39 -297q0 -107 20 -164l-3 -5q-75 3 -135 -5l-2 54q-38 -19 -126.5 -39.5t-128.5 -20.5q-92 0 -143 50q-54 53 -54 155q0 95 56.5 164t131.5 89q43 12 112 12q10 0 28 3q56 7 69 7q56 0 116 -25q86 23 95 26zM533 338q-66 95 -151 95
q-25 0 -57 -14t-65 -41t-55 -75t-22 -107q0 -46 15 -81t37 -53t43 -26t38 -8q60 0 127 71q31 33 49.5 74t25 71.5t15.5 93.5zM324 529l-43 36q1 1 2.5 2t2.5 3l2 1l157 119l90 -38v-5z" />
    <glyph glyph-name="acircumflex" unicode="&#xe2;" 
d="M663 471l3 -4q-39 -112 -39 -297q0 -107 20 -164l-3 -5q-75 3 -135 -5l-2 54q-38 -19 -126.5 -39.5t-128.5 -20.5q-92 0 -143 50q-54 53 -54 155q0 95 56.5 164t131.5 89q43 12 112 12q10 0 28 3q56 7 69 7q56 0 116 -25q86 23 95 26zM533 338q-66 95 -151 95
q-25 0 -57 -14t-65 -41t-55 -75t-22 -107q0 -46 15 -81t37 -53t43 -26t38 -8q60 0 127 71q31 33 49.5 74t25 71.5t15.5 93.5zM226 517l-40 19v5q31 21 99 73q63 50 100 77q27 -17 99.5 -57.5t102.5 -53.5v-5l-75 -42q-79 40 -153 85z" />
    <glyph glyph-name="atilde" unicode="&#xe3;" 
d="M663 471l3 -4q-39 -112 -39 -297q0 -107 20 -164l-3 -5q-75 3 -135 -5l-2 54q-38 -19 -126.5 -39.5t-128.5 -20.5q-92 0 -143 50q-54 53 -54 155q0 95 56.5 164t131.5 89q43 12 112 12q10 0 28 3q56 7 69 7q56 0 116 -25q86 23 95 26zM533 338q-66 95 -151 95
q-25 0 -57 -14t-65 -41t-55 -75t-22 -107q0 -46 15 -81t37 -53t43 -26t38 -8q60 0 127 71q31 33 49.5 74t25 71.5t15.5 93.5zM530 680l21 -11q-19 -45 -60 -91q-25 -27 -51 -27q-19 0 -93 25q-49 17 -75 17q-14 0 -25.5 -7.5t-19 -16.5t-22.5 -31l-23 11q2 3 4 7.5t9 16.5
l17 30q37 67 82 67q25 0 88 -22q60 -21 82 -21q19 0 37 18q1 0 5.5 6l12 15.5t11.5 13.5z" />
    <glyph glyph-name="adieresis" unicode="&#xe4;" 
d="M663 471l3 -4q-39 -112 -39 -297q0 -107 20 -164l-3 -5q-75 3 -135 -5l-2 54q-38 -19 -126.5 -39.5t-128.5 -20.5q-92 0 -143 50q-54 53 -54 155q0 95 56.5 164t131.5 89q43 12 112 12q10 0 28 3q56 7 69 7q56 0 116 -25q86 23 95 26zM533 338q-66 95 -151 95
q-25 0 -57 -14t-65 -41t-55 -75t-22 -107q0 -46 15 -81t37 -53t43 -26t38 -8q60 0 127 71q31 33 49.5 74t25 71.5t15.5 93.5zM428 569l-3 6q8 10 49 56t46 53q9 -5 37.5 -15t37.5 -12l3 -4q-47 -36 -108 -102q-35 14 -62 18zM244 570l-3 5q75 80 95 109q37 -17 75 -26l3 -6
q-76 -66 -108 -102q-20 10 -62 20z" />
    <glyph glyph-name="aring" unicode="&#xe5;" 
d="M663 471l3 -4q-39 -112 -39 -297q0 -107 20 -164l-3 -5q-75 3 -135 -5l-2 54q-38 -19 -126.5 -39.5t-128.5 -20.5q-92 0 -143 50q-54 53 -54 155q0 95 56.5 164t131.5 89q43 12 112 12q10 0 28 3q56 7 69 7q56 0 116 -25q86 23 95 26zM533 338q-66 95 -151 95
q-25 0 -57 -14t-65 -41t-55 -75t-22 -107q0 -46 15 -81t37 -53t43 -26t38 -8q60 0 127 71q31 33 49.5 74t25 71.5t15.5 93.5zM523 628q0 -103 -162 -103q-84 0 -84 76q0 97 160 97q47 0 70 -26q16 -19 16 -44zM341 608q0 -58 52 -58q36 0 51 22t15 46q0 25 -13 41
q-12 15 -37 15q-22 0 -37 -8.5t-21 -21t-8 -21t-2 -15.5z" />
    <glyph glyph-name="ae" unicode="&#xe6;" horiz-adv-x="1037" 
d="M963 251h-391q-3 -17 -3 -40q0 -47 15 -82.5t34.5 -53t45.5 -28t41 -12.5t28 -2q100 0 252 106l4 -2l-80 -136q-44 -2 -141 -2h-104q-29 0 -43 0.5t-41 5t-43 14t-35.5 28.5t-32.5 47q-52 -33 -81.5 -49.5t-83 -33.5t-105.5 -17q-61 0 -105 33.5t-44 95.5q0 53 34 87.5
t96.5 50.5t126.5 21t147 4q2 38 -5 68q-9 45 -43.5 64.5t-72.5 19.5q-65 0 -103 -44q-11 -13 -22 -37l-129 -17q6 14 12 24.5t20.5 27t32 28.5t47.5 24t66 18q22 4 85 8.5t79 4.5q87 0 118 -63q42 43 167 53q3 0 39.5 4t42.5 4q82 0 138 -40t56 -101q0 -44 -19 -81zM576 285
h276q5 17 5 35q0 58 -39 87t-80 29q-58 0 -105.5 -42t-56.5 -109zM459 129q-5 15 -6 32t0 90q-273 0 -273 -114q0 -44 32 -64t68 -20q73 0 179 76z" />
    <glyph glyph-name="ccedilla" unicode="&#xe7;" horiz-adv-x="648" 
d="M631 136l-78 -137h-14l-94 -1h-81q-8 0 -54 -2q-34 -3 -53 -3q-99 0 -156.5 61t-57.5 153q0 93 65.5 163.5t191.5 83.5q65 6 94 12q74 13 126 13q62 0 120 -16l-94 -88q-74 56 -154 56q-84 0 -152.5 -62.5t-68.5 -156.5q0 -77 53.5 -128.5t147.5 -51.5q42 0 85.5 15
t74.5 32.5t96 59.5zM337 -225l-2 5q60 60 60 98q0 19 -13.5 36.5t-48.5 17.5q-54 0 -129 -49l-4 2l11 44q75 51 149 51q50 0 90.5 -26t40.5 -81q0 -57 -59 -106q-48 8 -95 8z" />
    <glyph glyph-name="egrave" unicode="&#xe8;" horiz-adv-x="667" 
d="M615 139l4 -3l-81 -137q-43 -1 -117 -1h-31q-5 0 -31 0.5t-30 0.5h-31q-83 0 -105.5 2t-47.5 14q-38 18 -60.5 56t-28 69t-5.5 63q0 33 8 67.5t28.5 75t65 71.5t107.5 42q10 2 81.5 8t75.5 6q99 0 148 -45t49 -95q0 -31 -22 -83h-411q-4 -20 -4 -41q0 -104 60 -145
q49 -33 115 -33q104 0 263 108zM186 284h295q6 22 6 39q0 55 -40.5 85t-89.5 30q-60 0 -109 -41.5t-62 -112.5zM373 532l-208 115v5l87 39l171 -128z" />
    <glyph glyph-name="eacute" unicode="&#xe9;" horiz-adv-x="667" 
d="M615 139l4 -3l-81 -137q-43 -1 -117 -1h-31q-5 0 -31 0.5t-30 0.5h-31q-83 0 -105.5 2t-47.5 14q-38 18 -60.5 56t-28 69t-5.5 63q0 33 8 67.5t28.5 75t65 71.5t107.5 42q10 2 81.5 8t75.5 6q99 0 148 -45t49 -95q0 -31 -22 -83h-411q-4 -20 -4 -41q0 -104 60 -145
q49 -33 115 -33q104 0 263 108zM186 284h295q6 22 6 39q0 55 -40.5 85t-89.5 30q-60 0 -109 -41.5t-62 -112.5zM297 529l-43 36q1 1 2.5 2t3.5 3l1 1l157 119l90 -38v-5z" />
    <glyph glyph-name="ecircumflex" unicode="&#xea;" horiz-adv-x="667" 
d="M615 139l4 -3l-81 -137q-43 -1 -117 -1h-31q-5 0 -31 0.5t-30 0.5h-31q-83 0 -105.5 2t-47.5 14q-38 18 -60.5 56t-28 69t-5.5 63q0 33 8 67.5t28.5 75t65 71.5t107.5 42q10 2 81.5 8t75.5 6q99 0 148 -45t49 -95q0 -31 -22 -83h-411q-4 -20 -4 -41q0 -104 60 -145
q49 -33 115 -33q104 0 263 108zM186 284h295q6 22 6 39q0 55 -40.5 85t-89.5 30q-60 0 -109 -41.5t-62 -112.5zM179 517l-40 19v5q31 21 99 73q63 50 100 77q27 -17 99.5 -57.5t102.5 -53.5v-5l-75 -42q-79 40 -153 85z" />
    <glyph glyph-name="edieresis" unicode="&#xeb;" horiz-adv-x="667" 
d="M615 139l4 -3l-81 -137q-43 -1 -117 -1h-31q-5 0 -31 0.5t-30 0.5h-31q-83 0 -105.5 2t-47.5 14q-38 18 -60.5 56t-28 69t-5.5 63q0 33 8 67.5t28.5 75t65 71.5t107.5 42q10 2 81.5 8t75.5 6q99 0 148 -45t49 -95q0 -31 -22 -83h-411q-4 -20 -4 -41q0 -104 60 -145
q49 -33 115 -33q104 0 263 108zM186 284h295q6 22 6 39q0 55 -40.5 85t-89.5 30q-60 0 -109 -41.5t-62 -112.5zM371 568l-3 6q8 10 49 56t46 53q9 -5 37.5 -15t37.5 -12l3 -4q-47 -36 -108 -102q-35 14 -62 18zM187 569l-3 5q75 80 95 109q37 -17 75 -26l3 -6
q-76 -66 -108 -102q-20 10 -62 20z" />
    <glyph glyph-name="igrave" unicode="&#xec;" horiz-adv-x="315" 
d="M229 3l-4 -4q-28 4 -72 4q-48 0 -71 -4l-3 4q12 49 17 110q8 100 8 159q0 75 -6.5 100t-26.5 44q-2 1 -10.5 8l-15.5 13t-9 8l1 5q16 1 93.5 10t97.5 13q-11 -103 -11 -287q0 -123 12 -183zM197 532l-208 115v5l87 39l171 -128z" />
    <glyph glyph-name="iacute" unicode="&#xed;" horiz-adv-x="315" 
d="M229 3l-4 -4q-28 4 -72 4q-48 0 -71 -4l-3 4q12 49 17 110q8 100 8 159q0 75 -6.5 100t-26.5 44q-2 1 -10.5 8l-15.5 13t-9 8l1 5q16 1 93.5 10t97.5 13q-11 -103 -11 -287q0 -123 12 -183zM121 529l-43 36q1 1 2.5 2t3.5 3l1 1l157 119l90 -38v-5z" />
    <glyph glyph-name="icircumflex" unicode="&#xee;" horiz-adv-x="315" 
d="M229 3l-4 -4q-28 4 -72 4q-48 0 -71 -4l-3 4q12 49 17 110q8 100 8 159q0 75 -6.5 100t-26.5 44q-2 1 -10.5 8l-15.5 13t-9 8l1 5q16 1 93.5 10t97.5 13q-11 -103 -11 -287q0 -123 12 -183zM3 517l-40 19v5q31 21 99 73q63 50 100 77q27 -17 99.5 -57.5t102.5 -53.5v-5
l-75 -42q-79 40 -153 85z" />
    <glyph glyph-name="idieresis" unicode="&#xef;" horiz-adv-x="315" 
d="M229 3l-4 -4q-28 4 -72 4q-48 0 -71 -4l-3 4q12 49 17 110q8 100 8 159q0 75 -6.5 100t-26.5 44q-2 1 -10.5 8l-15.5 13t-9 8l1 5q16 1 93.5 10t97.5 13q-11 -103 -11 -287q0 -123 12 -183zM195 568l-3 6q8 10 49 56t46 53q9 -5 37.5 -15t37.5 -12l3 -4
q-47 -36 -108 -102q-35 14 -62 18zM11 569l-3 5q75 80 95 109q37 -17 75 -26l3 -6q-76 -66 -108 -102q-20 10 -62 20z" />
    <glyph glyph-name="eth" unicode="&#xf0;" horiz-adv-x="704" 
d="M177 217q0 -81 51 -134.5t117 -53.5q64 0 122 60.5t58 151.5q0 76 -45.5 117.5t-120.5 41.5q-81 0 -129 -45q-53 -47 -53 -138zM586 630l-165 -50l82 -80q81 -78 115.5 -132t34.5 -125q0 -19 -3 -39.5t-17 -54.5t-37 -61t-69.5 -50.5t-108.5 -30.5q-58 -7 -74 -10
q-38 -7 -70 -7q-96 0 -161 67t-65 166q0 59 23.5 105t61 71t76.5 37.5t76 12.5q76 0 166 -39q-65 78 -144 136l-177 -54l-45 42l164 49q-109 58 -183 74v6l270 4l45 -45l161 48z" />
    <glyph glyph-name="ntilde" unicode="&#xf1;" horiz-adv-x="759" 
d="M209 468l8 -70q57 28 148.5 51.5t173.5 23.5q75 0 110 -34q42 -40 42 -119q0 -80 -48.5 -152t-134.5 -123q48 0 196 24l-29 -66q-27 -3 -54 -3h-149q-71 1 -138 -3l-2 3q73 42 102 63t58 58q65 83 65 172q0 62 -35.5 100t-91.5 38q-52 0 -97.5 -34.5t-75.5 -76.5
q-56 -79 -56 -224q0 -41 6 -93l-2 -4q-39 4 -55 4q-7 0 -42.5 -2t-41.5 -2l-2 4q14 37 25.5 115.5t11.5 144.5q0 61 -8.5 98.5t-18 50.5t-31.5 33l2 4zM549 680l21 -11q-19 -45 -60 -91q-25 -27 -51 -27q-19 0 -93 25q-49 17 -75 17q-14 0 -25.5 -7.5t-19 -16.5t-22.5 -31
l-23 11q2 3 4 7.5t9 16.5l17 30q37 67 82 67q25 0 88 -22q60 -21 82 -21q19 0 37 18q1 0 5.5 6l12 15.5t11.5 13.5z" />
    <glyph glyph-name="ograve" unicode="&#xf2;" horiz-adv-x="704" 
d="M402 18q-9 -2 -26 -6.5l-23 -6t-18.5 -4l-17.5 -3.5l-14.5 -3t-14 -2.5t-12.5 -1.5t-14 -1h-14q-93 0 -147.5 61t-54.5 148q0 53 18.5 95.5t41 67t58 44t53.5 25.5t43 13q145 38 202 38q53 0 93 -20t61.5 -52.5t31.5 -68.5t10 -75q0 -49 -22 -98t-63 -81
q-51 -39 -171 -69zM172 219q0 -85 56.5 -134t123.5 -49q62 0 117 54q19 19 30 34t21.5 52.5t10.5 90.5q0 59 -41 107q-52 64 -136 64q-59 0 -120.5 -64t-61.5 -155zM391 532l-208 115v5l87 39l171 -128z" />
    <glyph glyph-name="oacute" unicode="&#xf3;" horiz-adv-x="704" 
d="M402 18q-9 -2 -26 -6.5l-23 -6t-18.5 -4l-17.5 -3.5l-14.5 -3t-14 -2.5t-12.5 -1.5t-14 -1h-14q-93 0 -147.5 61t-54.5 148q0 53 18.5 95.5t41 67t58 44t53.5 25.5t43 13q145 38 202 38q53 0 93 -20t61.5 -52.5t31.5 -68.5t10 -75q0 -49 -22 -98t-63 -81
q-51 -39 -171 -69zM172 219q0 -85 56.5 -134t123.5 -49q62 0 117 54q19 19 30 34t21.5 52.5t10.5 90.5q0 59 -41 107q-52 64 -136 64q-59 0 -120.5 -64t-61.5 -155zM315 529l-43 36q1 1 2.5 2t3.5 3l1 1l157 119l90 -38v-5z" />
    <glyph glyph-name="ocircumflex" unicode="&#xf4;" horiz-adv-x="704" 
d="M402 18q-9 -2 -26 -6.5l-23 -6t-18.5 -4l-17.5 -3.5l-14.5 -3t-14 -2.5t-12.5 -1.5t-14 -1h-14q-93 0 -147.5 61t-54.5 148q0 53 18.5 95.5t41 67t58 44t53.5 25.5t43 13q145 38 202 38q53 0 93 -20t61.5 -52.5t31.5 -68.5t10 -75q0 -49 -22 -98t-63 -81
q-51 -39 -171 -69zM172 219q0 -85 56.5 -134t123.5 -49q62 0 117 54q19 19 30 34t21.5 52.5t10.5 90.5q0 59 -41 107q-52 64 -136 64q-59 0 -120.5 -64t-61.5 -155zM197 517l-40 19v5q31 21 99 73q63 50 100 77q27 -17 99.5 -57.5t102.5 -53.5v-5l-75 -42q-79 40 -153 85z
" />
    <glyph glyph-name="otilde" unicode="&#xf5;" horiz-adv-x="704" 
d="M402 18q-9 -2 -26 -6.5l-23 -6t-18.5 -4l-17.5 -3.5l-14.5 -3t-14 -2.5t-12.5 -1.5t-14 -1h-14q-93 0 -147.5 61t-54.5 148q0 53 18.5 95.5t41 67t58 44t53.5 25.5t43 13q145 38 202 38q53 0 93 -20t61.5 -52.5t31.5 -68.5t10 -75q0 -49 -22 -98t-63 -81
q-51 -39 -171 -69zM172 219q0 -85 56.5 -134t123.5 -49q62 0 117 54q19 19 30 34t21.5 52.5t10.5 90.5q0 59 -41 107q-52 64 -136 64q-59 0 -120.5 -64t-61.5 -155zM521 680l21 -11q-19 -45 -60 -91q-25 -27 -51 -27q-19 0 -93 25q-49 17 -75 17q-14 0 -25.5 -7.5t-19 -16.5
t-22.5 -31l-23 11q2 3 4 7.5t9 16.5l17 30q37 67 82 67q25 0 88 -22q60 -21 82 -21q19 0 37 18q1 0 5.5 6l12 15.5t11.5 13.5z" />
    <glyph glyph-name="odieresis" unicode="&#xf6;" horiz-adv-x="704" 
d="M402 18q-9 -2 -26 -6.5l-23 -6t-18.5 -4l-17.5 -3.5l-14.5 -3t-14 -2.5t-12.5 -1.5t-14 -1h-14q-93 0 -147.5 61t-54.5 148q0 53 18.5 95.5t41 67t58 44t53.5 25.5t43 13q145 38 202 38q53 0 93 -20t61.5 -52.5t31.5 -68.5t10 -75q0 -49 -22 -98t-63 -81
q-51 -39 -171 -69zM172 219q0 -85 56.5 -134t123.5 -49q62 0 117 54q19 19 30 34t21.5 52.5t10.5 90.5q0 59 -41 107q-52 64 -136 64q-59 0 -120.5 -64t-61.5 -155zM406 568l-3 6q8 10 49 56t46 53q9 -5 37.5 -15t37.5 -12l3 -4q-47 -36 -108 -102q-35 14 -62 18zM222 569
l-3 5q75 80 95 109q37 -17 75 -26l3 -6q-76 -66 -108 -102q-20 10 -62 20z" />
    <glyph glyph-name="divide" unicode="&#xf7;" horiz-adv-x="593" 
d="M37 209v101h519v-101h-519zM235 8v134h123v-134h-123zM235 377v134h123v-134h-123z" />
    <glyph glyph-name="oslash" unicode="&#xf8;" horiz-adv-x="704" 
d="M110 -70l-42 23q6 6 33 35.5t31 33.5q-44 32 -63 71q-25 50 -25 107q0 49 16 89.5t37 64.5t50.5 43t46 25.5t34.5 12.5q141 47 237 47q35 0 59 -8l33 39.5t27 34.5l43 -24q-40 -46 -62 -68q31 -19 52 -48t28.5 -60t9.5 -48t2 -31q0 -62 -32.5 -122t-109.5 -92
q-48 -21 -134 -42l-29 -7.5t-30 -7.5q-45 -8 -82 -8q-40 0 -70 12zM492 372l-257 -295q53 -42 114 -42q63 0 122.5 57.5t59.5 152.5q0 84 -39 127zM206 107l256 294q-46 37 -105 37q-64 0 -125.5 -64t-61.5 -152q0 -67 36 -115z" />
    <glyph glyph-name="ugrave" unicode="&#xf9;" horiz-adv-x="759" 
d="M691 453l3 -3q-20 -50 -31.5 -166t-11.5 -182q0 -40 6 -57.5t26 -37.5l-1 -4q-4 0 -148 -12l-2 59q-48 -16 -72.5 -23t-60 -13.5t-73.5 -7.5q-37 -16 -98 -16q-78 0 -120 55t-42 125q0 43 14 81t43.5 70.5t48.5 49t53 42.5q-47 -3 -86 -8q-7 -1 -41 -6.5t-39 -5.5l36 62
q52 -2 94 -2q35 -1 95 -1q97 0 136 2l1 -5q-103 -43 -164 -110t-61 -142q0 -64 38.5 -111.5t103.5 -47.5q57 0 102.5 36.5t69.5 76.5q47 76 47 201q0 55 -7 97l4 4q20 -3 68 -3q33 0 69 3zM419 532l-208 115v5l87 39l171 -128z" />
    <glyph glyph-name="uacute" unicode="&#xfa;" horiz-adv-x="759" 
d="M691 453l3 -3q-20 -50 -31.5 -166t-11.5 -182q0 -40 6 -57.5t26 -37.5l-1 -4q-4 0 -148 -12l-2 59q-48 -16 -72.5 -23t-60 -13.5t-73.5 -7.5q-37 -16 -98 -16q-78 0 -120 55t-42 125q0 43 14 81t43.5 70.5t48.5 49t53 42.5q-47 -3 -86 -8q-7 -1 -41 -6.5t-39 -5.5l36 62
q52 -2 94 -2q35 -1 95 -1q97 0 136 2l1 -5q-103 -43 -164 -110t-61 -142q0 -64 38.5 -111.5t103.5 -47.5q57 0 102.5 36.5t69.5 76.5q47 76 47 201q0 55 -7 97l4 4q20 -3 68 -3q33 0 69 3zM423 529l-43 36q1 1 2.5 2t3.5 3l1 1l157 119l90 -38v-5z" />
    <glyph glyph-name="ucircumflex" unicode="&#xfb;" horiz-adv-x="759" 
d="M691 453l3 -3q-20 -50 -31.5 -166t-11.5 -182q0 -40 6 -57.5t26 -37.5l-1 -4q-4 0 -148 -12l-2 59q-48 -16 -72.5 -23t-60 -13.5t-73.5 -7.5q-37 -16 -98 -16q-78 0 -120 55t-42 125q0 43 14 81t43.5 70.5t48.5 49t53 42.5q-47 -3 -86 -8q-7 -1 -41 -6.5t-39 -5.5l36 62
q52 -2 94 -2q35 -1 95 -1q97 0 136 2l1 -5q-103 -43 -164 -110t-61 -142q0 -64 38.5 -111.5t103.5 -47.5q57 0 102.5 36.5t69.5 76.5q47 76 47 201q0 55 -7 97l4 4q20 -3 68 -3q33 0 69 3zM245 517l-40 19v5q31 21 99 73q63 50 100 77q27 -17 99.5 -57.5t102.5 -53.5v-5
l-75 -42q-79 40 -153 85z" />
    <glyph glyph-name="udieresis" unicode="&#xfc;" horiz-adv-x="759" 
d="M691 453l3 -3q-20 -50 -31.5 -166t-11.5 -182q0 -40 6 -57.5t26 -37.5l-1 -4q-4 0 -148 -12l-2 59q-48 -16 -72.5 -23t-60 -13.5t-73.5 -7.5q-37 -16 -98 -16q-78 0 -120 55t-42 125q0 43 14 81t43.5 70.5t48.5 49t53 42.5q-47 -3 -86 -8q-7 -1 -41 -6.5t-39 -5.5l36 62
q52 -2 94 -2q35 -1 95 -1q97 0 136 2l1 -5q-103 -43 -164 -110t-61 -142q0 -64 38.5 -111.5t103.5 -47.5q57 0 102.5 36.5t69.5 76.5q47 76 47 201q0 55 -7 97l4 4q20 -3 68 -3q33 0 69 3zM457 568l-3 6q8 10 49 56t46 53q9 -5 37.5 -15t37.5 -12l3 -4q-47 -36 -108 -102
q-35 14 -62 18zM273 569l-3 5q75 80 95 109q37 -17 75 -26l3 -6q-76 -66 -108 -102q-20 10 -62 20z" />
    <glyph glyph-name="yacute" unicode="&#xfd;" horiz-adv-x="667" 
d="M38 375l50 75l147 5q19 1 26 -3.5t22 -29.5q41 -69 60 -255q1 -10 4.5 -69t4.5 -69q20 58 94 219.5l102 218.5l126 10l4 -4q-125 -184 -218 -437l-24.5 -70.5t-28.5 -76.5q-14 -28 -40.5 -49t-65.5 -33.5t-57 -16.5t-52 -10q-83 -16 -107 -16q-53 0 -86 32.5t-33 89.5
q0 83 90 198l84 19q-36 -48 -38 -52q-46 -70 -46 -129q0 -50 30.5 -82.5t76.5 -32.5q87 0 127 77q21 41 57 131q-77 -12 -124 -22l-4 4q0 5 4.5 53.5t4.5 57.5q0 158 -43 246q-11 22 -20 33t-13.5 12.5t-11.5 1.5q-13 0 -39 -7q-2 -1 -17.5 -5.5l-28.5 -8.5t-17 -5zM377 529
l-43 36q1 1 2.5 2t3.5 3l1 1l157 119l90 -38v-5z" />
    <glyph glyph-name="thorn" unicode="&#xfe;" horiz-adv-x="685" 
d="M509 257q0 85 -46 127t-104 42q-34 0 -79 -41.5t-61 -94.5q-8 -28 -12 -97q-3 -59 -1 -86q51 -65 142 -65q52 0 106.5 62.5t54.5 152.5zM65 682l162 20l4 -6q-8 -13 -13.5 -64.5t-5.5 -109.5q0 -73 3 -104q64 23 128 36q90 25 122 25q70 0 121 -51t51 -141
q0 -61 -26 -117.5t-72 -90.5q-65 -47 -175 -65q-81 -30 -159 -24q-1 -37 1 -114.5t7 -99.5l-4 -4q-18 5 -65 5q-48 0 -70 -5l-3 4q12 49 19 213t5 281q0 38 -0.5 95.5t-1 84t-1.5 65.5t-3 58.5t-5.5 42.5t-8.5 37.5t-13 26.5z" />
    <glyph glyph-name="ydieresis" unicode="&#xff;" horiz-adv-x="667" 
d="M38 375l50 75l147 5q19 1 26 -3.5t22 -29.5q41 -69 60 -255q1 -10 4.5 -69t4.5 -69q20 58 94 219.5l102 218.5l126 10l4 -4q-125 -184 -218 -437l-24.5 -70.5t-28.5 -76.5q-14 -28 -40.5 -49t-65.5 -33.5t-57 -16.5t-52 -10q-83 -16 -107 -16q-53 0 -86 32.5t-33 89.5
q0 83 90 198l84 19q-36 -48 -38 -52q-46 -70 -46 -129q0 -50 30.5 -82.5t76.5 -32.5q87 0 127 77q21 41 57 131q-77 -12 -124 -22l-4 4q0 5 4.5 53.5t4.5 57.5q0 158 -43 246q-11 22 -20 33t-13.5 12.5t-11.5 1.5q-13 0 -39 -7q-2 -1 -17.5 -5.5l-28.5 -8.5t-17 -5zM451 568
l-3 6q8 10 49 56t46 53q9 -5 37.5 -15t37.5 -12l3 -4q-47 -36 -108 -102q-35 14 -62 18zM267 569l-3 5q75 80 95 109q37 -17 75 -26l3 -6q-76 -66 -108 -102q-20 10 -62 20z" />
    <glyph glyph-name="dotlessi" unicode="&#x131;" horiz-adv-x="315" 
d="M229 3l-4 -4q-28 4 -72 4q-48 0 -71 -4l-3 4q12 49 17 110q8 100 8 159q0 75 -6.5 100t-26.5 44q-2 1 -10.5 8l-15.5 13t-9 8l1 5q16 1 93.5 10t97.5 13q-11 -103 -11 -287q0 -123 12 -183z" />
    <glyph glyph-name="Lslash" unicode="&#x141;" horiz-adv-x="574" 
d="M109 330l-65 -34v84l66 34v87q0 129 -21 205l3 3q22 -4 70 -4q53 0 92 4l4 -4q-18 -73 -23 -225l123 64v-84l-126 -66q-1 -47 -1 -151q0 -130 10 -160q9 -23 46 -23q24 0 49 1.5t46.5 3.5t41.5 5t37.5 6.5l32 6.5t26.5 6t20 5.5t13 3.5l5 2l3 -4l-53 -97q-6 0 -38 -1
t-37 -1q-20 0 -51 2q-132 6 -145 6q-87 0 -148 -6l-2 3q12 38 17 93q5 58 5 235z" />
    <glyph glyph-name="lslash" unicode="&#x142;" horiz-adv-x="352" 
d="M349 73l-33 -73q-40 -3 -94 4q-6 1 -34 9t-31 9q-40 -10 -80 -37l-14 8q21 110 21 338l-74 -38v66l75 39q0 182 -12 234q-7 27 -22 46l3 5l167 20l5 -4q-14 -50 -23 -196q0 -1 -0.5 -14.5t-0.5 -30.5l126 65v-65l-129 -67q-2 -36 -2 -132q0 -136 8 -172q6 -25 44 -25
q37 0 96 15z" />
    <glyph glyph-name="OE" unicode="&#x152;" horiz-adv-x="1167" 
d="M1119 737l-39 -107q-87 8 -322 3q40 -31 66.5 -71t36.5 -77.5t13.5 -61t2.5 -40.5q120 0 150.5 4.5t61.5 30.5l4 -3l-13 -106q-35 8 -96 8q-69 0 -109 3q-7 -51 -24 -94t-39 -72t-39.5 -46t-35.5 -29l107 -2q117 -2 168 2q44 4 81 36l5 -2l-9 -117q-198 9 -410 9
q-77 0 -117 -6q-60 -9 -145 -9q-97 0 -159.5 20t-110.5 71q-91 95 -91 249q0 88 36 175t117 143q107 74 271 74q13 0 80 -6t90 -7q67 -4 226 -4q120 0 154 4q55 6 84 31zM200 342q0 -148 78.5 -229.5t184.5 -81.5q125 0 200 100t75 247q0 133 -65.5 218t-176.5 85
q-117 0 -206.5 -93t-89.5 -246z" />
    <glyph glyph-name="oe" unicode="&#x153;" horiz-adv-x="1093" 
d="M1043 134l-79 -135q-186 0 -217 -1q-73 -1 -113.5 7t-58 22t-38.5 46q-46 -39 -175 -62q-3 -1 -27 -5.5t-44.5 -7t-41.5 -2.5q-92 0 -147.5 55.5t-55.5 146.5q0 110 76.5 179t208.5 83q53 11 90 11q24 0 50.5 -4t62 -21t50.5 -46q48 54 182 65q2 0 36.5 3.5t41.5 3.5
q75 0 133.5 -35t58.5 -105q0 -38 -19 -83h-389q-3 -24 -3 -53q0 -44 14.5 -76t34 -48t46 -25.5t43 -11.5t31.5 -2q43 0 100.5 24t87.5 43.5t55 38.5zM633 283h274q5 23 5 37q0 63 -37 90t-79 27q-65 0 -114 -50q-34 -35 -49 -104zM170 217q0 -71 48 -124.5t119 -53.5
q27 0 55.5 11t57.5 34t47 67.5t18 103.5q0 47 -14 81.5t-32.5 52t-42.5 28t-39 13t-27 2.5q-41 0 -83 -22.5t-74.5 -73.5t-32.5 -119z" />
    <glyph glyph-name="Scaron" unicode="&#x160;" horiz-adv-x="741" 
d="M229 202l4 -5q-23 -37 -23 -67q0 -38 30.5 -70t94.5 -32q90 0 149 70t59 141q0 31 -9 52.5t-20.5 32t-30.5 16.5t-29.5 6.5t-26.5 0.5q-2 0 -77.5 -4t-90.5 -4q-90 0 -135 34q-52 38 -52 110q0 81 58 143t141 76q77 13 213 13q36 0 54.5 -1t48.5 -8.5t45 -22t25 -44
t7 -71.5q-67 1 -145 -4l-3 5q3 18 3 25q0 87 -108 87q-90 0 -145 -55t-55 -120q0 -93 113 -93q17 0 105.5 6.5t103.5 6.5q75 0 112 -42q39 -45 39 -116q0 -101 -68 -173t-151 -88q-69 -14 -247 -14q-77 0 -111 28q-42 34 -42 101q0 42 16 74q47 -1 148 6zM430 796l145 100
l39 -22v-4q-17 -10 -110 -73.5t-103 -71.5q-16 10 -87 58q-38 26 -97 62v5l77 35q47 -28 136 -89z" />
    <glyph glyph-name="scaron" unicode="&#x161;" horiz-adv-x="630" 
d="M565 372h-125q-2 28 -22.5 45t-39 21t-37.5 4q-53 0 -104.5 -28.5t-51.5 -77.5q0 -64 104 -64q48 0 127 8q45 4 62 4q99 0 99 -97q0 -44 -21.5 -85.5t-61.5 -63.5q-71 -40 -162 -40h-4.5t-4.5 0.5t-5.5 1t-6.5 0.5q-40 -10 -91 -10q-24 0 -40 1t-44 8.5t-45 21.5
t-30.5 42.5t-13.5 68.5l3 3h129q0 -45 15 -67q30 -43 86 -43q58 0 114 37t56 94q0 74 -101 74q-13 0 -84 -4.5t-83 -4.5q-126 0 -126 100q0 140 265 148q58 16 113 16q36 0 62.5 -8.5t39.5 -19.5t21 -28t9.5 -26.5t2.5 -23.5zM339 600l145 100l39 -22v-4q-17 -10 -110 -73.5
t-103 -71.5q-16 10 -87 58q-38 26 -97 62v5l77 35q47 -28 136 -89z" />
    <glyph glyph-name="Ydieresis" unicode="&#x178;" horiz-adv-x="667" 
d="M534 706l4 3q51 -4 85 -4t58 4l2 -6q-79 -68 -246 -373q-40 -73 -48.5 -101.5t-8.5 -72.5q0 -98 20 -155l-2 -2q-34 4 -79 4t-79 -4l-3 3q19 57 19 160q0 50 -18 97t-111 229q-80 159 -129 217l3 4q40 -5 78 -4q6 0 86 4l3 -3q17 -62 84 -203t90 -181q78 137 137 257
q26 53 55 127zM406 764l-3 6q8 10 49 56t46 53q9 -5 37.5 -15t37.5 -12l3 -4q-47 -36 -108 -102q-35 14 -62 18zM222 765l-3 5q75 80 95 109q37 -17 75 -26l3 -6q-76 -66 -108 -102q-20 10 -62 20z" />
    <glyph glyph-name="Zcaron" unicode="&#x17d;" horiz-adv-x="741" 
d="M712 126l5 -5q-2 -2 -31 -52.5t-37 -66.5q-55 -5 -128 -5q-27 0 -137 3q-168 5 -210 5q-96 0 -161 -5l-4 7q74 55 183 209q71 99 155 229.5t118 192.5q-74 0 -213.5 -12t-195.5 -34l-5 5q7 9 36 55.5l32 51.5q52 -4 195 -4q134 0 208 4q120 7 180 24l5 -6
q-69 -63 -218 -279t-232 -368q327 -7 455 51zM410 796l145 100l39 -22v-4q-17 -10 -110 -73.5t-103 -71.5q-16 10 -87 58q-38 26 -97 62v5l77 35q47 -28 136 -89z" />
    <glyph glyph-name="zcaron" unicode="&#x17e;" horiz-adv-x="593" 
d="M554 90l7 -7l-47 -81q-106 -6 -148 -6q-19 0 -117 4t-114 4q-83 0 -133 -8l-7 15q86 72 208.5 212t154.5 190q-46 0 -148 -12q-75 -9 -169 -31l43 81q47 9 332 14q77 1 151 17l8 -12q-44 -40 -158 -164.5t-208 -249.5q98 -4 190 1q92 4 155 33zM321 600l145 100l39 -22
v-4q-17 -10 -110 -73.5t-103 -71.5q-16 10 -87 58q-38 26 -97 62v5l77 35q47 -28 136 -89z" />
    <glyph glyph-name="florin" unicode="&#x192;" horiz-adv-x="667" 
d="M111 -220l-4 5q17 41 26.5 79.5t31.5 159.5q2 13 19.5 117.5l27.5 160.5q-101 3 -138 -10l-5 5q10 15 35 60q45 -3 116 -3l27 212q11 91 22 115.5t46 24.5q21 0 63 -12l14 -4q14 -4 15 -4q3 0 15 4.5l26 10t18 6.5q36 12 56 12q24 0 48 -11.5t37 -23t13 -15.5
q0 -6 -25.5 -35t-34.5 -29q-10 0 -26 19q-10 13 -29.5 28.5t-38.5 15.5q-26 0 -49.5 -24t-36.5 -75q-5 -19 -22 -114t-18 -101q27 -2 89 1t82 9l5 -4q-22 -22 -38 -59q-124 3 -147 1q-41 -225 -58 -337q-15 -100 -17 -166q-74 3 -145 -19z" />
    <glyph glyph-name="circumflex" unicode="&#x2c6;" horiz-adv-x="278" 
d="M-16 517l-40 19v5q31 21 99 73q63 50 100 77q27 -17 99.5 -57.5t102.5 -53.5v-5l-75 -42q-79 40 -153 85z" />
    <glyph glyph-name="caron" unicode="&#x2c7;" horiz-adv-x="278" 
d="M163 600l145 100l39 -22v-4q-17 -10 -110 -73.5t-103 -71.5q-16 10 -87 58q-38 26 -97 62v5l77 35q47 -28 136 -89z" />
    <glyph glyph-name="uni02C9" unicode="&#x2c9;" horiz-adv-x="278" 
d="M341 634l-49 -74q-56 -2 -102 -2q-133 0 -166 -1t-53 -7l-4 4l48 72q32 2 88 2q196 0 217 3q9 2 17 7z" />
    <glyph glyph-name="breve" unicode="&#x2d8;" horiz-adv-x="278" 
d="M272 695l42 4q-4 -24 -17 -52t-36 -56.5t-61 -47.5t-84 -19q-72 0 -107.5 46t-30.5 109l40 4q2 -35 31 -58.5t76 -23.5q66 0 112 39q22 19 35 55z" />
    <glyph glyph-name="dotaccent" unicode="&#x2d9;" horiz-adv-x="278" 
d="M55 570l-2 4q80 88 95 110q40 -17 75 -27l3 -5q-71 -62 -108 -102q-16 8 -63 20z" />
    <glyph glyph-name="ring" unicode="&#x2da;" horiz-adv-x="278" 
d="M256 628q0 -103 -162 -103q-84 0 -84 76q0 97 160 97q47 0 70 -26q16 -19 16 -44zM74 608q0 -58 52 -58q36 0 51 22t15 46q0 25 -13 41q-12 15 -37 15q-22 0 -37 -8.5t-21 -21t-8 -21t-2 -15.5z" />
    <glyph glyph-name="ogonek" unicode="&#x2db;" horiz-adv-x="278" 
d="M450 -118l-11 -44q-75 -51 -149 -51q-50 0 -90.5 26t-40.5 81q0 57 59 106q48 -8 95 -8l2 -5q-60 -60 -60 -98q0 -19 13.5 -36.5t48.5 -17.5q54 0 129 49z" />
    <glyph glyph-name="tilde" unicode="&#x2dc;" horiz-adv-x="278" 
d="M308 680l21 -11q-19 -45 -60 -91q-25 -27 -51 -27q-19 0 -93 25q-49 17 -75 17q-14 0 -25.5 -7.5t-19 -16.5t-22.5 -31l-23 11q2 3 4 7.5t9 16.5l17 30q37 67 82 67q25 0 88 -22q60 -21 82 -21q19 0 37 18q1 0 5.5 6l12 15.5t11.5 13.5z" />
    <glyph glyph-name="hungarumlaut" unicode="&#x2dd;" horiz-adv-x="278" 
d="M7 560l-35 29q6 3 6 5l127 96l73 -31v-4zM189 560l-35 29q6 3 6 5l127 96l73 -31v-4z" />
    <glyph glyph-name="uni03A9" unicode="&#x3a9;" horiz-adv-x="953" 
d="M908 168l-35 -168h-318l-9 27q79 93 112 156q53 99 52 198q-1 147 -67.5 218.5t-168.5 71.5q-106 0 -169 -73.5t-63 -222.5q0 -55 14.5 -106t44.5 -100t48 -73.5t54 -68.5l-9 -27h-318l-32 168l33 1q21 -51 40 -66.5t60 -15.5h128q-40 25 -69.5 47.5t-65 59.5t-55 85
t-19.5 104q0 147 107 237t274 90q170 0 273.5 -85t103.5 -231q0 -48 -18.5 -93.5t-52.5 -84.5t-66.5 -67.5t-76.5 -61.5h137q41 0 58.5 14.5t38.5 67.5z" />
    <glyph glyph-name="uni03BC" unicode="&#x3bc;" horiz-adv-x="593" 
d="M456 453v-325q0 -35 4.5 -53.5t10.5 -23.5t16 -5q38 0 38 92h29q0 -17 -1 -26.5t-3.5 -30.5t-9 -34t-16.5 -28t-27.5 -22.5t-40.5 -7.5q-25 0 -43 10.5t-27.5 24t-15.5 36t-7.5 35t-2.5 33.5q-41 -138 -132 -138q-54 0 -85 54q1 -10 7.5 -56t7.5 -50q11 -74 11 -99
q0 -30 -11 -47.5t-21 -21t-19 -3.5q-48 0 -48 78q0 16 5 89.5t5 79.5q3 43 3 141v298h102v-285q0 -32 1 -48t6 -37.5t18.5 -31t34.5 -9.5q45 0 77 67.5t32 177.5v166h102z" />
    <glyph glyph-name="pi" unicode="&#x3c0;" horiz-adv-x="718" 
d="M655 512l30 -12q-5 -33 -19.5 -67.5t-27.5 -47.5q-28 -6 -84 -6q-5 -51 -5 -229q1 -91 55 -91q23 0 57 27l15 -27q-23 -34 -60.5 -52.5t-77.5 -18.5q-55 0 -85.5 30t-30.5 104q0 119 12 259q-83 2 -185 2v-16q0 -105 -17 -192t-33.5 -123t-27.5 -47q-52 -16 -72 -17
l-9 21q57 64 84.5 174.5t27.5 201.5q-54 0 -86.5 -11.5t-72.5 -37.5l-19 28q44 54 67 72q54 41 143 40q44 0 164 -2q122 -2 182 -2q50 0 75 40z" />
    <glyph glyph-name="endash" unicode="&#x2013;" horiz-adv-x="500" 
d="M58 232l-4 4q32 47 42 84q127 -10 192 -10q96 0 154 10l4 -4q-33 -41 -44 -84q-39 11 -150 11q-114 0 -194 -11z" />
    <glyph glyph-name="emdash" unicode="&#x2014;" horiz-adv-x="1000" 
d="M867 320l4 -4q-33 -41 -44 -84q-161 11 -295 11q-319 0 -399 -11l-4 4q32 47 42 84q127 -10 310 -10q265 0 386 10z" />
    <glyph glyph-name="quoteleft" unicode="&#x2018;" horiz-adv-x="278" 
d="M222 478h-113q-46 49 -46 96q0 23 12.5 48.5t24.5 40.5t39 46h77l2 -6q-30 -27 -45.5 -57.5t-15.5 -50.5q0 -50 68 -111z" />
    <glyph glyph-name="quoteright" unicode="&#x2019;" horiz-adv-x="278" 
d="M152 479l-76 -1l-3 6q28 25 44.5 57.5t16.5 53.5q0 19 -10 37.5t-21 31t-38 40.5l3 5h114q45 -55 45 -98q0 -22 -14 -49t-25.5 -41z" />
    <glyph glyph-name="quotesinglbase" unicode="&#x201a;" horiz-adv-x="278" 
d="M52 119h112q25 -30 35.5 -50t10.5 -49q0 -31 -14.5 -55t-59.5 -76h-76l-3 5q61 67 61 109q0 23 -15.5 49t-29 39.5t-24.5 22.5z" />
    <glyph glyph-name="quotedblleft" unicode="&#x201c;" horiz-adv-x="444" 
d="M381 480h-113q-47 51 -47 96q0 31 24.5 69.5t51.5 64.5h75l3 -6q-20 -23 -30.5 -37t-20 -35t-9.5 -40q0 -29 24 -60.5t45 -46.5zM205 480h-113q-26 33 -36.5 52.5t-10.5 43.5q0 59 77 134h76l3 -5q-62 -65 -62 -111q0 -29 23.5 -60t45.5 -49z" />
    <glyph glyph-name="quotedblright" unicode="&#x201d;" horiz-adv-x="444" 
d="M61 708h113q26 -32 36 -51.5t10 -45.5q0 -32 -16 -57.5t-59 -75.5h-76l-3 5q26 24 43.5 56.5t17.5 52.5q0 21 -13 44t-23.5 34.5t-33.5 33.5zM237 708h112q18 -22 26 -33t14.5 -28t6.5 -36q0 -23 -11.5 -46.5t-23.5 -39t-40 -47.5h-76l-4 5q61 61 61 109q0 38 -34 76
q-31 32 -34 36z" />
    <glyph glyph-name="quotedblbase" unicode="&#x201e;" horiz-adv-x="444" 
d="M52 119h112q25 -30 35.5 -50t10.5 -49q0 -31 -14.5 -55t-59.5 -76h-76l-3 5q61 67 61 109q0 23 -15.5 49t-29 39.5t-24.5 22.5zM228 119h112q47 -54 47 -96q0 -31 -15 -56t-60 -78h-77l-3 5q32 30 47 60.5t15 49.5q0 26 -24 61q-4 5 -24 26.5t-21 22.5z" />
    <glyph glyph-name="dagger" unicode="&#x2020;" horiz-adv-x="630" 
d="M597 501l4 -5l-47 -90q-48 6 -87 7q-7 0 -45.5 1t-45.5 2q0 -30 -1 -104.5t5 -173.5t19 -133l-4 -6q-40 4 -86 4q-37 0 -71 -4l-5 4q14 64 18 144q1 24 2.5 140.5t1.5 127.5q-8 0 -53.5 -0.5t-53.5 -1.5q-76 -6 -111 -12l-5 5l45 92q32 -8 178 -11q3 157 -17 218l4 4
q32 -4 65 -4q48 0 84 4l3 -4q-18 -62 -18 -218q151 2 221 14z" />
    <glyph glyph-name="daggerdbl" unicode="&#x2021;" horiz-adv-x="630" 
d="M594 262l5 -3l-44 -92q-44 7 -177 9q6 -132 21 -172l-4 -5q-40 4 -86 4q-37 0 -71 -4l-5 3q13 60 19 176q-66 -2 -144 -5q-25 -1 -69 -6l-7 4l45 87q92 -9 176 -9q0 41 0.5 81t1 67.5t0.5 65.5q-59 0 -81 -1q-96 -4 -128 -9q-4 -2 -11 -2l-3 3l45 92q32 -8 178 -11
q0 5 -2.5 51.5t-3.5 55.5q-5 42 -11 63l4 4q56 -4 64 -4q49 0 84 4l4 -5q-9 -26 -13 -72q-5 -38 -5 -97q151 2 220 14l5 -5l-47 -90q-48 6 -87 7q-7 0 -45.5 0.5t-45.5 1.5q-1 -162 0 -214q168 4 218 13z" />
    <glyph glyph-name="bullet" unicode="&#x2022;" horiz-adv-x="500" 
d="M250 533q73 0 125.5 -52t52.5 -126q0 -73 -52 -125.5t-126 -52.5t-126 52.5t-52 125.5q0 74 52.5 126t125.5 52z" />
    <glyph glyph-name="ellipsis" unicode="&#x2026;" horiz-adv-x="1000" 
d="M277 80l2 -6q-46 -44 -67 -89q-74 31 -154 44l-2 6q42 45 71 91q47 -23 150 -46zM610 80l2 -6q-46 -44 -67 -89q-74 31 -154 44l-2 6q42 45 71 91q47 -23 150 -46zM943 80l2 -6q-46 -44 -67 -89q-74 31 -154 44l-2 6q42 45 71 91q47 -23 150 -46z" />
    <glyph glyph-name="perthousand" unicode="&#x2030;" horiz-adv-x="1114" 
d="M188 708q2 0 26 7q13 3 29 3q57 0 93 -46t36 -115q0 -60 -30.5 -109t-83.5 -65q-48 -14 -103 -14q-36 0 -62 16.5t-39 42t-18.5 50t-5.5 47.5q0 42 17 84.5t55 68.5q25 18 86 30zM98 534q0 -62 29 -103t70 -41q48 0 77 51t29 108q0 61 -31.5 101.5t-67.5 40.5
q-48 0 -77 -52t-29 -105zM519 334q2 0 26 7q13 3 29 3q57 0 93 -46t36 -115q0 -60 -30.5 -109t-83.5 -65q-48 -14 -103 -14q-36 0 -62 16.5t-39 42t-18.5 50t-5.5 47.5q0 42 17 84.5t55 68.5q25 18 86 30zM429 160q0 -62 29 -103t70 -41q48 0 77 51t29 108q0 61 -31.5 101.5
t-67.5 40.5q-48 0 -77 -52t-29 -105zM901 334q2 0 4.5 1t8 2.5t13.5 3.5q13 3 29 3q57 0 93 -46t36 -115q0 -60 -30.5 -109t-84.5 -65q-48 -14 -103 -14q-36 0 -62 16.5t-39 42t-18.5 50t-5.5 47.5q0 42 17 84.5t55 68.5q26 18 87 30zM810 160q0 -62 29 -103t70 -41
q49 0 78 51t29 108q0 62 -31.5 102t-68.5 40q-47 0 -76.5 -52.5t-29.5 -104.5zM199 -19h-77l-4 4q103 166 245.5 426.5t165.5 315.5h81l4 -5q-45 -65 -182.5 -305.5t-232.5 -435.5z" />
    <glyph glyph-name="guilsinglleft" unicode="&#x2039;" horiz-adv-x="370" 
d="M330 76v-4q-87 3 -89 3q-6 0 -45 -3q-93 103 -162 162v5q21 13 117 84q42 31 117 94q21 -1 48 -1q7 0 16 0.5t12 0.5l2 -5l-122 -90q-63 -48 -84 -66q132 -135 190 -180z" />
    <glyph glyph-name="guilsinglright" unicode="&#x203a;" horiz-adv-x="370" 
d="M43 413v4q49 -3 87 -3q18 0 46 3q18 -22 80.5 -85t81.5 -78v-4q-174 -119 -234 -179q-16 2 -35 2q-9 0 -41 -2l-3 5q144 104 207 156q-6 7 -30 31.5t-67.5 65.5l-84.5 77z" />
    <glyph glyph-name="fraction" unicode="&#x2044;" horiz-adv-x="167" 
d="M-80 -18h-83l-4 4l72 120.5l77 129.5l165.5 302.5t97.5 189.5h86l4 -6q-46 -65 -183 -305t-232 -435z" />
    <glyph glyph-name="Euro" unicode="&#x20ac;" horiz-adv-x="966" 
d="M885 607l-130 -49l-4 1q-77 110 -199 110q-85 0 -165 -66.5t-103 -185.5h251q117 1 189 6l4 -7q-12 -15 -28 -54q-100 5 -166 5h-258q-1 -11 -1 -34q0 -22 1 -32h209q117 1 189 6l4 -7q-12 -15 -28 -54q-100 5 -166 5h-201q20 -107 89 -165t168 -58q80 0 137 19t123 71
l3 -3q-26 -71 -41 -118h-190q-4 0 -50 -2q-9 0 -20.5 -0.5t-17 -1t-7.5 -0.5q-108 0 -162.5 18t-106.5 80q-54 63 -68 160q-44 -1 -96 -5l-5 5q13 17 33 56q53 -5 63 -5v20q0 28 2 45q-43 -1 -93 -5l-5 5q13 17 33 56q31 -4 72 -5q38 191 219 246q54 17 149.5 34.5
t141.5 17.5q74 0 126 -24t106 -80z" />
    <glyph glyph-name="afii61289" unicode="&#x2113;" horiz-adv-x="524" 
d="M477 152l24 -24q-84 -135 -218 -135q-83 0 -129 43q-47 49 -47 162v58l-78 -49l-15 31l92 63v128q0 125 13 183.5t52 98.5q50 58 124 58q60 0 90 -43.5t30 -102.5q0 -84 -48.5 -156t-144.5 -149v-79q0 -94 28.5 -135t85.5 -41q76 0 141 89zM222 496v-125q56 62 85.5 119
t29.5 131q0 42 -14 75.5t-43 33.5q-34 0 -46 -53t-12 -181z" />
    <glyph glyph-name="trademark" unicode="&#x2122;" horiz-adv-x="1000" 
d="M88 597l1 107h311l2 -107h-24q-6 46 -26.5 63.5t-58.5 17.5h-14v-260q0 -33 11.5 -40.5t45.5 -7.5v-22h-182v22q17 0 25 1t16.5 5.5t11.5 14.5t3 28v259h-15q-17 0 -28 -2t-24.5 -9.5t-21.5 -25t-10 -44.5h-23zM428 348v22q17 0 27.5 3.5t14.5 11.5t5 13.5t1 16.5v229
q0 21 -10 29t-36 9v22h135l96 -255l108 255h131v-22q-33 0 -41.5 -10t-8.5 -38v-214q0 -31 8.5 -40.5t41.5 -9.5v-22h-169v22q31 -1 40.5 9.5t9.5 38.5v240l-132 -310h-15l-126 305v-229q0 -12 1 -19t5.5 -16.5t16.5 -14t30 -4.5v-22h-133z" />
    <glyph glyph-name="Omega" unicode="&#x2126;" horiz-adv-x="953" 
d="M908 168l-35 -168h-318l-9 27q79 93 112 156q53 99 52 198q-1 147 -67.5 218.5t-168.5 71.5q-106 0 -169 -73.5t-63 -222.5q0 -55 14.5 -106t44.5 -100t48 -73.5t54 -68.5l-9 -27h-318l-32 168l33 1q21 -51 40 -66.5t60 -15.5h128q-40 25 -69.5 47.5t-65 59.5t-55 85
t-19.5 104q0 147 107 237t274 90q170 0 273.5 -85t103.5 -231q0 -48 -18.5 -93.5t-52.5 -84.5t-66.5 -67.5t-76.5 -61.5h137q41 0 58.5 14.5t38.5 67.5z" />
    <glyph glyph-name="estimated" unicode="&#x212e;" horiz-adv-x="874" 
d="M839 344h-652q-5 0 -5 -4v-197q0 -12 8 -23q105 -107 247 -107q155 0 260 120h57q-54 -65 -138 -102.5t-180 -37.5q-166 0 -284 106t-118 255q0 150 117.5 256t284.5 106t285 -106t118 -256v-10zM691 370v198q0 15 -9 24q-106 103 -245 103q-140 0 -246 -106
q-9 -11 -9 -25v-194q0 -6 5 -6h500q4 0 4 6z" />
    <glyph glyph-name="partialdiff" unicode="&#x2202;" horiz-adv-x="671" 
d="M321 460h1q49 0 96.5 -21t72.5 -57q9 56 9 107q2 94 -33 163q-20 38 -58.5 65t-79.5 27q-80 0 -181 -79q-18 -1 -38 31t-9 54q88 45 183 45q168 0 264 -147q63 -96 63 -231q0 -158 -62 -264q-90 -159 -262 -159q-107 0 -171 61t-64 160q0 104 72 172q78 73 197 73z
M359 410h-1q-82 0 -129 -59q-50 -65 -50 -174q-1 -62 29 -102.5t83 -40.5q81 0 132 99q37 71 59 200q-16 28 -49.5 52.5t-73.5 24.5z" />
    <glyph glyph-name="Delta" unicode="&#x2206;" horiz-adv-x="802" 
d="M758 0h-715v32l322 663l63 14l330 -677v-32zM601 59l-244 522l-239 -522h483z" />
    <glyph glyph-name="product" unicode="&#x220f;" horiz-adv-x="865" 
d="M830 714v-32q-76 -5 -92 -17.5t-16 -61.5v-566q0 -55 17 -69t91 -19v-32h-337v32q73 5 87.5 17.5t14.5 71.5v598q0 23 -7.5 29t-33.5 6h-245q-26 0 -32.5 -5.5t-6.5 -27.5v-600q0 -58 13.5 -71t80.5 -18v-32h-327v32q73 5 89.5 19t16.5 70v565q0 49 -16.5 61.5
t-93.5 17.5v32h797z" />
    <glyph glyph-name="summation" unicode="&#x2211;" horiz-adv-x="698" 
d="M668 137l-55 -226h-582v34l266 347l-257 388v34h570q3 -48 16 -191l-34 -9q-21 88 -47 124q-14 21 -36.5 29t-85.5 8h-226l208 -319l-265 -348h321q46 0 64.5 1.5t39 17.5t32.5 40t36 80z" />
    <glyph glyph-name="minus" unicode="&#x2212;" horiz-adv-x="593" 
d="M37 209v101h519v-101h-519z" />
    <glyph glyph-name="uni2215" unicode="&#x2215;" horiz-adv-x="167" 
d="M-80 -18h-83l-4 4l72 120.5l77 129.5l165.5 302.5t97.5 189.5h86l4 -6q-46 -65 -183 -305t-232 -435z" />
    <glyph glyph-name="uni2219" unicode="&#x2219;" horiz-adv-x="389" 
d="M304 310l3 -7q-47 -43 -68 -88q-67 28 -154 44l-2 6q42 45 71 91q53 -27 150 -46z" />
    <glyph glyph-name="radical" unicode="&#x221a;" horiz-adv-x="661" 
d="M648 905l-198 -1046l-32 -16l-264 562l-102 -52l-15 40l199 98l200 -444h2l159 870z" />
    <glyph glyph-name="infinity" unicode="&#x221e;" horiz-adv-x="865" 
d="M811 290v-1q0 -83 -52.5 -134t-123.5 -51q-100 0 -203 128q-53 -62 -99.5 -95t-106.5 -33q-71 0 -122 51.5t-51 128.5q0 80 52 132t130 52q103 0 204 -126q58 64 84 85q56 42 119 41q74 -1 121.5 -50t47.5 -128zM234 173h2q30 0 63.5 21t48 36.5l46.5 51.5
q-24 31 -36 44.5t-34 35t-45 30t-49 8.5q-46 0 -75 -33t-29 -83q0 -46 30.5 -78.5t77.5 -32.5zM634 400h-1q-14 0 -27.5 -3.5t-27.5 -12.5l-24 -15t-24 -20.5l-19.5 -20.5t-19.5 -22.5t-16 -18.5q53 -63 88.5 -88.5t73.5 -25.5q46 0 74 34.5t28 76.5q0 53 -29.5 84.5
t-75.5 31.5z" />
    <glyph glyph-name="integral" unicode="&#x222b;" horiz-adv-x="449" 
d="M189 5l-22 414q-6 106 2.5 187.5t26.5 130t45 79t53.5 41t56.5 10.5q28 0 51.5 -15t24.5 -39q0 -26 -15.5 -40.5t-37.5 -14.5q-13 0 -22.5 9.5t-14.5 21t-12 21t-16 9.5q-50 0 -41 -173l21 -398q7 -134 -6 -229.5t-41.5 -144.5t-62.5 -70t-76 -21q-32 0 -54.5 17
t-22.5 40q-1 23 20 40t45 17q18 0 32 -32.5t25 -32.5q24 0 35 47t6 126z" />
    <glyph glyph-name="approxequal" unicode="&#x2248;" horiz-adv-x="666" 
d="M570 463l48 -50q-69 -104 -161 -104q-24 0 -48.5 7t-39.5 14t-50 25q-68 34 -105 34q-61 0 -122 -78l-48 49q29 46 76.5 75t98.5 29q54 0 127 -41q3 -2 9 -5q24 -14 35.5 -19.5t28.5 -10t35 -4.5q61 0 116 79zM570 263l48 -50q-70 -104 -162 -104q-24 0 -49 7t-39 14
l-49 25q-68 34 -104 34q-38 0 -66 -20.5t-57 -58.5l-48 50q29 46 76.5 75t98.5 29q53 0 126 -40q6 -3 20 -11t21.5 -11.5t19.5 -8.5t23.5 -7t24.5 -2q34 0 60 18.5t56 60.5z" />
    <glyph glyph-name="notequal" unicode="&#x2260;" horiz-adv-x="666" 
d="M483 531l-47 -99h173v-73h-207l-71 -150h278v-73h-312l-62 -133l-61 30l49 103h-166v73h200l71 150h-271v73h304l61 129z" />
    <glyph glyph-name="lessequal" unicode="&#x2264;" horiz-adv-x="666" 
d="M607 110l-545 239v78l544 238v-81l-461 -194v-2l462 -196v-82zM609 -4h-552v74h552v-74z" />
    <glyph glyph-name="greaterequal" unicode="&#x2265;" horiz-adv-x="666" 
d="M62 665l545 -238v-78l-545 -239v82l461 195v2l-461 195v81zM605 -4h-547v74h547v-74z" />
    <glyph glyph-name="lozenge" unicode="&#x25ca;" horiz-adv-x="691" 
d="M638 337l-250 -419h-86l-251 419l252 422h85zM550 337l-202 347h-5l-203 -346l204 -349h3z" />
    <glyph glyph-name="A.alt" unicode="&#xe000;" 
d="M711 3l-2 -4q-57 3 -90 3q-26 0 -92 -3l-3 4q-11 69 -24 112l-34 115q-25 0 -125 2q-13 0 -65 -1.5t-67 -0.5q-2 -7 -26.5 -79t-27.5 -86q-7 -28 -12 -62l-4 -3q-48 4 -75 4q-14 0 -54 -4l-3 4q34 39 92 170q27 61 73 180l79.5 209t33.5 93q0 10 -33 47l3 6
q8 0 63.5 -1.5t66.5 -1.5q10 0 29 1.5t32 1.5l4 -5q43 -192 149 -478q42 -112 63 -154t49 -69zM342 575l-50 -126.5t-63 -165.5q34 -2 122 -2q75 0 98 2q-67 205 -107 292z" />
    <glyph glyph-name="AE.alt" unicode="&#xe001;" horiz-adv-x="926" 
d="M874 735l-37 -106q-73 5 -186 5q-45 0 -52 -6q-11 -9 -11 -107q0 -69 -2 -143q25 -2 86.5 -0.5t80.5 2.5q58 3 93 32h4q-7 -50 -13 -107q-60 7 -184 9l-60 1h-8v-112q0 -102 3 -113q4 -10 14 -12t56 -2q97 0 130.5 6t61.5 33h4l-8 -120q-10 1 -68 4q-96 4 -235 4
q-61 0 -105 -4v4q18 40 21 101q5 85 5 211h-198l-49 -105q-68 -153 -80 -211q-20 4 -71 4q-57 0 -76 -4v4q54 58 91.5 123.5t147.5 286.5q31 62 109 231q8 18 8 29q0 17 -16 32v4q112 -4 252 -4q150 0 200 4q55 4 87 29zM296 374h168q1 50 0.5 91.5t-1 90.5t-0.5 51
q0 31 -14 31q-23 0 -153 -264z" />
    <glyph glyph-name="Aacute.alt" unicode="&#xe002;" 
d="M711 3l-2 -4q-57 3 -90 3q-26 0 -92 -3l-3 4q-11 69 -24 112l-34 115q-25 0 -125 2q-13 0 -65 -1.5t-67 -0.5q-2 -7 -26.5 -79t-27.5 -86q-7 -28 -12 -62l-4 -3q-48 4 -75 4q-14 0 -54 -4l-3 4q34 39 92 170q27 61 73 180l79.5 209t33.5 93q0 10 -33 47l3 6
q8 0 63.5 -1.5t66.5 -1.5q10 0 29 1.5t32 1.5l4 -5q43 -192 149 -478q42 -112 63 -154t49 -69zM342 575l-50 -126.5t-63 -165.5q34 -2 122 -2q75 0 98 2q-67 205 -107 292zM304 736l-43 35l7 6q52 44 96.5 75.5t60.5 44.5l90 -39v-4z" />
    <glyph glyph-name="Acircumflex.alt" unicode="&#xe003;" 
d="M711 3l-2 -4q-57 3 -90 3q-26 0 -92 -3l-3 4q-11 69 -24 112l-34 115q-25 0 -125 2q-13 0 -65 -1.5t-67 -0.5q-2 -7 -26.5 -79t-27.5 -86q-7 -28 -12 -62l-4 -3q-48 4 -75 4q-14 0 -54 -4l-3 4q34 39 92 170q27 61 73 180l79.5 209t33.5 93q0 10 -33 47l3 6
q8 0 63.5 -1.5t66.5 -1.5q10 0 29 1.5t32 1.5l4 -5q43 -192 149 -478q42 -112 63 -154t49 -69zM342 575l-50 -126.5t-63 -165.5q34 -2 122 -2q75 0 98 2q-67 205 -107 292zM206 724l-40 19v4q30 21 99 74l100 77q25 -17 98 -58t104 -54v-5l-75 -41q-97 50 -153 85z" />
    <glyph glyph-name="Adieresis.alt" unicode="&#xe004;" 
d="M711 3l-2 -4q-57 3 -90 3q-26 0 -92 -3l-3 4q-11 69 -24 112l-34 115q-25 0 -125 2q-13 0 -65 -1.5t-67 -0.5q-2 -7 -26.5 -79t-27.5 -86q-7 -28 -12 -62l-4 -3q-48 4 -75 4q-14 0 -54 -4l-3 4q34 39 92 170q27 61 73 180l79.5 209t33.5 93q0 10 -33 47l3 6
q8 0 63.5 -1.5t66.5 -1.5q10 0 29 1.5t32 1.5l4 -5q43 -192 149 -478q42 -112 63 -154t49 -69zM342 575l-50 -126.5t-63 -165.5q34 -2 122 -2q75 0 98 2q-67 205 -107 292zM398 775l-3 5q8 10 49 56.5t46 53.5q9 -6 38.5 -16t36.5 -11l3 -5q-44 -32 -108 -102q-34 14 -62 19
zM214 776l-3 4q80 88 95 110q34 -15 75 -27l3 -5q-71 -62 -108 -102q-16 8 -62 20z" />
    <glyph glyph-name="Agrave.alt" unicode="&#xe005;" 
d="M711 3l-2 -4q-57 3 -90 3q-26 0 -92 -3l-3 4q-11 69 -24 112l-34 115q-25 0 -125 2q-13 0 -65 -1.5t-67 -0.5q-2 -7 -26.5 -79t-27.5 -86q-7 -28 -12 -62l-4 -3q-48 4 -75 4q-14 0 -54 -4l-3 4q34 39 92 170q27 61 73 180l79.5 209t33.5 93q0 10 -33 47l3 6
q8 0 63.5 -1.5t66.5 -1.5q10 0 29 1.5t32 1.5l4 -5q43 -192 149 -478q42 -112 63 -154t49 -69zM342 575l-50 -126.5t-63 -165.5q34 -2 122 -2q75 0 98 2q-67 205 -107 292zM400 738l-208 115v6l87 38l171 -128z" />
    <glyph glyph-name="Aring.alt" unicode="&#xe006;" 
d="M711 3l-2 -4q-57 3 -90 3q-26 0 -92 -3l-3 4q-11 69 -24 112l-34 115q-25 0 -125 2q-13 0 -65 -1.5t-67 -0.5q-2 -7 -26.5 -79t-27.5 -86q-7 -28 -12 -62l-4 -3q-48 4 -75 4q-14 0 -54 -4l-3 4q34 39 92 170q27 61 73 180l79.5 209t33.5 93q0 10 -33 47l3 6
q8 0 63.5 -1.5t66.5 -1.5q10 0 29 1.5t32 1.5l4 -5q43 -192 149 -478q42 -112 63 -154t49 -69zM342 575l-50 -126.5t-63 -165.5q34 -2 122 -2q75 0 98 2q-67 205 -107 292zM478 834q0 -102 -162 -102q-84 0 -84 76q0 96 160 96q47 0 70 -26q16 -19 16 -44zM296 815
q0 -58 52 -58q36 0 51 22t15 45q0 25 -13 41q-12 15 -37 15q-22 0 -37 -8.5t-21 -21t-8 -21t-2 -14.5z" />
    <glyph glyph-name="Atilde.alt" unicode="&#xe007;" 
d="M711 3l-2 -4q-57 3 -90 3q-26 0 -92 -3l-3 4q-11 69 -24 112l-34 115q-25 0 -125 2q-13 0 -65 -1.5t-67 -0.5q-2 -7 -26.5 -79t-27.5 -86q-7 -28 -12 -62l-4 -3q-48 4 -75 4q-14 0 -54 -4l-3 4q34 39 92 170q27 61 73 180l79.5 209t33.5 93q0 10 -33 47l3 6
q8 0 63.5 -1.5t66.5 -1.5q10 0 29 1.5t32 1.5l4 -5q43 -192 149 -478q42 -112 63 -154t49 -69zM342 575l-50 -126.5t-63 -165.5q34 -2 122 -2q75 0 98 2q-67 205 -107 292zM530 886l21 -11q-19 -45 -60 -91q-25 -27 -51 -27q-19 0 -93 25q-49 17 -75 17q-14 0 -25.5 -7.5
t-19 -16.5t-22.5 -31l-23 11q2 3 4 7.5t9 16.5l17 30q37 67 82 67q25 0 88 -22q60 -21 82 -21q19 0 37 18q1 0 5.5 6l12 15.5t11.5 13.5z" />
    <glyph glyph-name="B.alt" unicode="&#xe008;" horiz-adv-x="704" 
d="M80 0l-2 4q15 31 19 82q8 91 8 360q0 167 -9 208q-6 27 -39 52l2 5q54 -6 123 -6q31 0 140.5 3t124.5 3q52 0 74.5 -3.5t41.5 -17.5q61 -44 61 -127q0 -44 -18.5 -79t-50 -57t-61 -35t-64.5 -22q201 -22 201 -174q0 -53 -27.5 -97t-71.5 -69q-57 -33 -135 -33q-7 0 -91 3
q-136 4 -140 4q-54 0 -86 -4zM225 376q28 -2 50 -2q71 0 116 20q38 16 60 47t26.5 53t4.5 44q0 12 -1.5 24.5t-10 34.5t-23 38.5t-44 29t-69.5 12.5q-52 0 -85 -27q-15 -13 -20 -106q-1 -12 -2.5 -83.5t-1.5 -84.5zM225 340q0 -155 2 -205.5t11 -69.5q16 -31 89 -31
q48 0 82 17.5t50.5 44.5t23.5 52.5t7 49.5q0 34 -9.5 60.5t-29 41t-37.5 24t-46 13t-43 4.5t-40 1q-30 0 -60 -2z" />
    <glyph glyph-name="C.alt" unicode="&#xe009;" horiz-adv-x="870" 
d="M851 609l-130 -49l-4 1q-31 45 -78.5 71.5t-79.5 32.5t-61 6q-46 0 -96 -21.5t-95.5 -61t-75 -106.5t-29.5 -147q0 -142 82 -223.5t202 -81.5q72 0 166 43t169 101l3 -3q-30 -82 -59 -172h-247q-4 0 -50 -2t-50 -2q-110 0 -168.5 18.5t-110.5 79.5q-78 92 -78 231
q0 30 4.5 61.5t19.5 75.5t39.5 81t70 71.5t104.5 52.5q53 16 154 34t147 18q152 0 252 -104z" />
    <glyph glyph-name="Ccedilla.alt" unicode="&#xe00a;" horiz-adv-x="870" 
d="M851 609l-130 -49l-4 1q-31 45 -78.5 71.5t-79.5 32.5t-61 6q-46 0 -96 -21.5t-95.5 -61t-75 -106.5t-29.5 -147q0 -142 82 -223.5t202 -81.5q72 0 166 43t169 101l3 -3q-30 -82 -59 -172h-247q-4 0 -50 -2t-50 -2q-110 0 -168.5 18.5t-110.5 79.5q-78 92 -78 231
q0 30 4.5 61.5t19.5 75.5t39.5 81t70 71.5t104.5 52.5q53 16 154 34t147 18q152 0 252 -104zM457 -225l-2 5q60 60 60 98q0 19 -13.5 36.5t-48.5 17.5q-54 0 -129 -49l-4 2l11 44q75 51 149 51q50 0 90.5 -26t40.5 -81q0 -57 -59 -106q-48 8 -95 8z" />
    <glyph glyph-name="D.alt" unicode="&#xe00b;" horiz-adv-x="870" 
d="M62 -1l-3 8q26 26 32 44q15 42 15 381q0 182 -11 225q-6 19 -35 46l2 6q6 0 52 -2t60 -2q16 0 76 2t80 2q44 1 91 2.5l76 2.5t39 1q27 0 43 -1.5t43 -7.5t52 -21.5t49 -40.5q87 -90 87 -250q0 -71 -23 -136.5t-44.5 -96.5t-43.5 -54q-29 -31 -63 -52t-62 -32t-67 -16.5
t-63.5 -6.5t-65.5 -1q-34 0 -121 2t-121 2q-2 0 -74 -4zM669 395q0 124 -79 205t-186 81q-105 0 -141.5 -48.5t-36.5 -148.5q0 -47 -1 -140t-1 -103q0 -124 10 -154q9 -27 48 -40.5t77 -13.5q125 0 217.5 99.5t92.5 262.5z" />
    <glyph glyph-name="E.alt" unicode="&#xe00c;" horiz-adv-x="611" 
d="M557 736l-37 -108q-33 5 -238 5q-16 0 -23 -0.5t-14.5 -4.5t-10.5 -12q-7 -22 -7 -233q10 -1 107 0t110 2q22 2 37.5 6.5t23.5 9.5t24 17l4 -3l-10 -105q-45 5 -108 7q-14 0 -94 0.5t-94 1.5q-4 -176 2 -225q2 -14 12.5 -16.5t55.5 -2.5q141 0 175 7q30 6 60 33l5 -3
l-6 -118q-1 0 -71 5q-60 4 -253 4q-98 0 -125 -4l-4 5q14 26 20 77q8 83 8 264q0 248 -5 291q-6 49 -21 68l2 5q63 -4 206 -4q139 0 176 4q50 6 88 30z" />
    <glyph glyph-name="Eacute.alt" unicode="&#xe00d;" horiz-adv-x="611" 
d="M557 736l-37 -108q-33 5 -238 5q-16 0 -23 -0.5t-14.5 -4.5t-10.5 -12q-7 -22 -7 -233q10 -1 107 0t110 2q22 2 37.5 6.5t23.5 9.5t24 17l4 -3l-10 -105q-45 5 -108 7q-14 0 -94 0.5t-94 1.5q-4 -176 2 -225q2 -14 12.5 -16.5t55.5 -2.5q141 0 175 7q30 6 60 33l5 -3
l-6 -118q-1 0 -71 5q-60 4 -253 4q-98 0 -125 -4l-4 5q14 26 20 77q8 83 8 264q0 248 -5 291q-6 49 -21 68l2 5q63 -4 206 -4q139 0 176 4q50 6 88 30zM249 736l-43 35l7 6q52 44 96.5 75.5t60.5 44.5l90 -39v-4z" />
    <glyph glyph-name="Ecircumflex.alt" unicode="&#xe00e;" horiz-adv-x="611" 
d="M557 736l-37 -108q-33 5 -238 5q-16 0 -23 -0.5t-14.5 -4.5t-10.5 -12q-7 -22 -7 -233q10 -1 107 0t110 2q22 2 37.5 6.5t23.5 9.5t24 17l4 -3l-10 -105q-45 5 -108 7q-14 0 -94 0.5t-94 1.5q-4 -176 2 -225q2 -14 12.5 -16.5t55.5 -2.5q141 0 175 7q30 6 60 33l5 -3
l-6 -118q-1 0 -71 5q-60 4 -253 4q-98 0 -125 -4l-4 5q14 26 20 77q8 83 8 264q0 248 -5 291q-6 49 -21 68l2 5q63 -4 206 -4q139 0 176 4q50 6 88 30zM151 724l-40 19v4q30 21 99 74l100 77q25 -17 98 -58t104 -54v-5l-75 -41q-97 50 -153 85z" />
    <glyph glyph-name="Edieresis.alt" unicode="&#xe00f;" horiz-adv-x="611" 
d="M557 736l-37 -108q-33 5 -238 5q-16 0 -23 -0.5t-14.5 -4.5t-10.5 -12q-7 -22 -7 -233q10 -1 107 0t110 2q22 2 37.5 6.5t23.5 9.5t24 17l4 -3l-10 -105q-45 5 -108 7q-14 0 -94 0.5t-94 1.5q-4 -176 2 -225q2 -14 12.5 -16.5t55.5 -2.5q141 0 175 7q30 6 60 33l5 -3
l-6 -118q-1 0 -71 5q-60 4 -253 4q-98 0 -125 -4l-4 5q14 26 20 77q8 83 8 264q0 248 -5 291q-6 49 -21 68l2 5q63 -4 206 -4q139 0 176 4q50 6 88 30zM343 775l-3 5q8 10 49 56.5t46 53.5q9 -6 38.5 -16t36.5 -11l3 -5q-44 -32 -108 -102q-34 14 -62 19zM159 776l-3 4
q80 88 95 110q34 -15 75 -27l3 -5q-71 -62 -108 -102q-16 8 -62 20z" />
    <glyph glyph-name="Egrave.alt" unicode="&#xe010;" horiz-adv-x="611" 
d="M557 736l-37 -108q-33 5 -238 5q-16 0 -23 -0.5t-14.5 -4.5t-10.5 -12q-7 -22 -7 -233q10 -1 107 0t110 2q22 2 37.5 6.5t23.5 9.5t24 17l4 -3l-10 -105q-45 5 -108 7q-14 0 -94 0.5t-94 1.5q-4 -176 2 -225q2 -14 12.5 -16.5t55.5 -2.5q141 0 175 7q30 6 60 33l5 -3
l-6 -118q-1 0 -71 5q-60 4 -253 4q-98 0 -125 -4l-4 5q14 26 20 77q8 83 8 264q0 248 -5 291q-6 49 -21 68l2 5q63 -4 206 -4q139 0 176 4q50 6 88 30zM345 738l-208 115v6l87 38l171 -128z" />
    <glyph glyph-name="Eth.alt" unicode="&#xe011;" horiz-adv-x="870" 
d="M-47 313l54 85q42 -4 99 -4v38q0 182 -11 225q-6 19 -35 46l2 6q6 0 52 -2t60 -2q16 0 76 2t80 2q44 1 91 2.5l76 2.5t39 1q27 0 43 -1.5t43 -7.5t52 -21.5t49 -40.5q87 -90 87 -250q0 -71 -23 -136.5t-44.5 -96.5t-43.5 -54q-29 -31 -63 -52t-62 -32t-67 -16.5
t-63.5 -6.5t-65.5 -1q-34 0 -121 2t-121 2q-2 0 -74 -4l-3 8q26 26 32 44q12 32 14 272q-102 5 -148 -15zM493 399l-51 -86q-65 11 -200 11h-17q-1 -54 -1 -83q0 -124 10 -154q9 -27 48 -40.5t77 -13.5q125 0 217.5 99.5t92.5 262.5q0 124 -79 205t-186 81
q-105 0 -141.5 -48.5t-36.5 -148.5q0 -69 -1 -93q21 -1 49 -1q159 0 215 14z" />
    <glyph glyph-name="F.alt" unicode="&#xe012;" horiz-adv-x="593" 
d="M562 736l-37 -109q-1 0 -12 1t-41.5 2t-79.5 1h-110q-23 0 -30 -5t-10 -22q-8 -51 -10 -235q181 0 200 1q66 2 101 34l5 -3l-14 -104q-83 6 -293 8q-1 -37 -0.5 -69t1.5 -67.5t1 -36.5q4 -85 22 -129l-3 -4q-42 4 -96 4q-46 0 -72 -4l-2 3q14 39 19 77q9 78 9 357
q0 172 -10 227q-5 22 -18 42l3 4q68 -4 176 -4q181 0 213 4q41 5 83 30z" />
    <glyph glyph-name="G.alt" unicode="&#xe013;" horiz-adv-x="944" 
d="M860 591l-141 -21l-6 4q-46 99 -170 99q-64 0 -124 -21.5t-108.5 -61.5t-78 -105t-29.5 -146q0 -75 27 -135.5t70.5 -96.5t95 -54.5t104.5 -18.5q57 0 108.5 20t74.5 50q32 42 32 146q0 70 -15 99l3 4q29 -5 74 -5q55 0 82 5l2 -4q-15 -20 -21.5 -49.5t-6.5 -95.5
q0 -87 9.5 -115.5t39.5 -58.5l-9 -14q-41 8 -93 8q-59 0 -272 -24q-62 -6 -124 -6q-86 0 -135 17.5t-99 71.5q-89 96 -89 241q0 43 8.5 84.5t29.5 85.5t52.5 79t82 63.5t114.5 41.5q59 13 161.5 25.5t154.5 12.5q76 0 124.5 -26t74.5 -95z" />
    <glyph glyph-name="H.alt" unicode="&#xe014;" horiz-adv-x="852" 
d="M227 326v-98q0 -71 3 -116t7 -64t13 -47l-4 -3q-23 4 -77 4q-49 0 -85 -4l-4 3q13 40 17 89q9 104 9 275q0 107 -1 156t-6.5 102t-16.5 83l3 3q41 -4 99 -4q39 0 66 4l3 -3q-23 -90 -26 -310h292q71 0 108 3q5 231 -23 308l4 2q26 -4 77 -4q57 0 84 4l3 -4
q-25 -67 -25 -315q0 -193 4 -269t21 -119l-3 -4q-21 4 -90 4q-57 0 -77 -4l-2 4q16 47 20.5 104.5t6.5 221.5h-201q-16 0 -100.5 -1t-98.5 -1z" />
    <glyph glyph-name="I.alt" unicode="&#xe015;" horiz-adv-x="333" 
d="M82 0l-2 2q16 50 21 134q6 88 6 275q0 83 -1 122t-6.5 88t-16.5 86l2 2q60 -4 91 -4q12 0 76 4l4 -2q-13 -51 -18 -110q-9 -121 -9 -325q0 -136 7 -202q3 -33 16 -67l-3 -3q-68 4 -96 4q-29 0 -71 -4z" />
    <glyph glyph-name="Iacute.alt" unicode="&#xe016;" horiz-adv-x="333" 
d="M82 0l-2 2q16 50 21 134q6 88 6 275q0 83 -1 122t-6.5 88t-16.5 86l2 2q60 -4 91 -4q12 0 76 4l4 -2q-13 -51 -18 -110q-9 -121 -9 -325q0 -136 7 -202q3 -33 16 -67l-3 -3q-68 4 -96 4q-29 0 -71 -4zM110 736l-43 35l7 6q52 44 96.5 75.5t60.5 44.5l90 -39v-4z" />
    <glyph glyph-name="Icircumflex.alt" unicode="&#xe017;" horiz-adv-x="333" 
d="M82 0l-2 2q16 50 21 134q6 88 6 275q0 83 -1 122t-6.5 88t-16.5 86l2 2q60 -4 91 -4q12 0 76 4l4 -2q-13 -51 -18 -110q-9 -121 -9 -325q0 -136 7 -202q3 -33 16 -67l-3 -3q-68 4 -96 4q-29 0 -71 -4zM12 724l-40 19v4q30 21 99 74l100 77q25 -17 98 -58t104 -54v-5
l-75 -41q-97 50 -153 85z" />
    <glyph glyph-name="Idieresis.alt" unicode="&#xe018;" horiz-adv-x="333" 
d="M82 0l-2 2q16 50 21 134q6 88 6 275q0 83 -1 122t-6.5 88t-16.5 86l2 2q60 -4 91 -4q12 0 76 4l4 -2q-13 -51 -18 -110q-9 -121 -9 -325q0 -136 7 -202q3 -33 16 -67l-3 -3q-68 4 -96 4q-29 0 -71 -4zM204 775l-3 5q8 10 49 56.5t46 53.5q9 -6 38.5 -16t36.5 -11l3 -5
q-44 -32 -108 -102q-34 14 -62 19zM20 776l-3 4q80 88 95 110q34 -15 75 -27l3 -5q-71 -62 -108 -102q-16 8 -62 20z" />
    <glyph glyph-name="Igrave.alt" unicode="&#xe019;" horiz-adv-x="333" 
d="M82 0l-2 2q16 50 21 134q6 88 6 275q0 83 -1 122t-6.5 88t-16.5 86l2 2q60 -4 91 -4q12 0 76 4l4 -2q-13 -51 -18 -110q-9 -121 -9 -325q0 -136 7 -202q3 -33 16 -67l-3 -3q-68 4 -96 4q-29 0 -71 -4zM206 738l-208 115v6l87 38l171 -128z" />
    <glyph glyph-name="J.alt" unicode="&#xe01a;" horiz-adv-x="352" 
d="M-126 -103l-3 5l21 63l6 2q39 -33 65 -33q49 0 99 78q47 73 58.5 151.5t11.5 242.5q0 237 -21 302l3 1q32 -4 87 -4q35 0 75 4l2 -2q-10 -33 -16 -109q-9 -106 -9 -267q0 -12 1 -74.5t1 -72.5q0 -40 -2.5 -63t-21 -61.5t-54.5 -72.5q-44 -41 -111.5 -67.5t-135.5 -26.5
q-34 0 -56 4z" />
    <glyph glyph-name="K.alt" unicode="&#xe01b;" horiz-adv-x="778" 
d="M760 6l-1 -7q-72 3 -106 3q-28 0 -109 -3q-38 49 -135 162t-139 158q-24 27 -44 38q3 -232 7 -272q4 -30 18 -83l-2 -4q-38 4 -80 4q-60 0 -84 -4l-3 3q15 45 20 133q5 82 5 307q0 117 -4.5 171.5t-18.5 94.5l3 3q32 -4 84 -4q44 0 80 4l2 -5q-26 -89 -26 -331
q20 10 47 35l78 72.5l63.5 58.5l46.5 43.5l38 35.5l27 25.5t23.5 23.5l18 19l20.5 22q2 0 31 -1.5t41 -1.5q51 0 84 3l1 -7q-31 -12 -80 -48q-15 -12 -63 -54l-95.5 -85l-91.5 -82.5t-47 -42.5l56 -64.5l116.5 -131t99.5 -105.5q26 -25 60.5 -50t58.5 -33z" />
    <glyph glyph-name="L.alt" unicode="&#xe01c;" horiz-adv-x="574" 
d="M561 96l-53 -97q-6 0 -38 -1t-37 -1q-20 0 -51 2q-132 6 -145 6q-87 0 -148 -6l-2 3q12 38 17 93q6 82 6 406q0 129 -21 205l3 3q22 -4 70 -4q53 0 92 4l4 -4q-27 -114 -27 -462q0 -130 10 -160q9 -23 46 -23q24 0 49 1.5t46.5 3.5t41.5 5t37.5 6.5l32 6.5t26.5 6t20 5.5
t13 3.5l5 2z" />
    <glyph glyph-name="Lslash.alt" unicode="&#xe01d;" horiz-adv-x="574" 
d="M109 330l-65 -34v84l66 34v87q0 129 -21 205l3 3q22 -4 70 -4q53 0 92 4l4 -4q-18 -73 -23 -225l123 64v-84l-126 -66q-1 -47 -1 -151q0 -130 10 -160q9 -23 46 -23q24 0 49 1.5t46.5 3.5t41.5 5t37.5 6.5l32 6.5t26.5 6t20 5.5t13 3.5l5 2l3 -4l-53 -97q-6 0 -38 -1
t-37 -1q-20 0 -51 2q-132 6 -145 6q-87 0 -148 -6l-2 3q12 38 17 93q5 58 5 235z" />
    <glyph glyph-name="M.alt" unicode="&#xe01e;" horiz-adv-x="1093" 
d="M835 706l3 3q16 -4 68 -4q91 0 133 4l2 -7q-38 -25 -46 -45q-11 -31 -11 -158q0 -316 13 -413q7 -47 34 -83l-3 -4q-24 4 -69 4q-57 0 -102 -4l-3 3q17 66 17 172q0 221 -8 386q-48 -88 -106.5 -209.5t-96.5 -207.5t-38 -95q0 -19 31 -45l-2 -4q-38 4 -81 4q-22 0 -86 -4
l-4 2q-11 36 -43 104q-99 206 -228 448q-2 -88 -2 -209q0 -275 14 -342l-2 -3q-76 4 -80 4q-18 0 -74 -4l-4 5q32 30 40 113q6 59 6 291q0 187 -7 237q-2 15 -8 27t-11 17l-17 17l3 3q64 -4 99 -4q75 0 114 4l3 -2q23 -80 132 -294.5t149 -279.5l228 472q23 48 43 101z" />
    <glyph glyph-name="N.alt" unicode="&#xe01f;" horiz-adv-x="907" 
d="M688 705l3 4q32 -4 68 -4t87 4l2 -3q-29 -32 -37 -72q-12 -65 -12 -321q0 -228 8 -259q7 -23 34 -51l-3 -4q-9 0 -54.5 2t-49.5 2q-8 0 -88 -4l-317 406l-58 70.5t-62 77.5q-4 -113 -2 -214l2 -209q0 -96 12 -128l-3 -3q-54 4 -95 4q-21 0 -65 -4l-3 5q40 43 47 114
q6 63 6 280q0 239 -8 258q-8 20 -42 49l3 4q2 0 49 -2t60 -2q46 0 80 4q19 -26 158 -204l291 -365q2 347 0 431t-11 134z" />
    <glyph glyph-name="Ntilde.alt" unicode="&#xe020;" horiz-adv-x="907" 
d="M688 705l3 4q32 -4 68 -4t87 4l2 -3q-29 -32 -37 -72q-12 -65 -12 -321q0 -228 8 -259q7 -23 34 -51l-3 -4q-9 0 -54.5 2t-49.5 2q-8 0 -88 -4l-317 406l-58 70.5t-62 77.5q-4 -113 -2 -214l2 -209q0 -96 12 -128l-3 -3q-54 4 -95 4q-21 0 -65 -4l-3 5q40 43 47 114
q6 63 6 280q0 239 -8 258q-8 20 -42 49l3 4q2 0 49 -2t60 -2q46 0 80 4q19 -26 158 -204l291 -365q2 347 0 431t-11 134zM623 886l21 -11q-19 -45 -60 -91q-25 -27 -51 -27q-19 0 -93 25q-49 17 -75 17q-14 0 -25.5 -7.5t-19 -16.5t-22.5 -31l-23 11q2 3 4 7.5t9 16.5l17 30
q37 67 82 67q25 0 88 -22q60 -21 82 -21q19 0 37 18q1 0 5.5 6l12 15.5t11.5 13.5z" />
    <glyph glyph-name="O.alt" unicode="&#xe021;" horiz-adv-x="1000" 
d="M941 385q0 -69 -22.5 -129.5t-60 -103t-79 -71t-85.5 -44.5q-55 -19 -158.5 -31.5t-157.5 -12.5q-144 0 -230.5 94t-86.5 231q0 43 11 87.5t36 94.5t75.5 93t119.5 68q57 20 215 48q46 9 94 9q145 0 237 -95.5t92 -237.5zM796 402q-1 40 -20 86.5t-48 80.5
q-44 53 -108 77t-120 24q-117 0 -206 -104.5t-89 -241.5q0 -69 26 -126t68 -92t91 -54t98 -19q61 0 123 29t102 76q31 37 50 76t25 78.5t7.5 59t0.5 50.5z" />
    <glyph glyph-name="OE.alt" unicode="&#xe022;" horiz-adv-x="1167" 
d="M1119 737l-39 -107q-87 8 -322 3q40 -31 66.5 -71t36.5 -77.5t13.5 -61t2.5 -40.5q120 0 150.5 4.5t61.5 30.5l4 -3l-13 -106q-35 8 -96 8q-69 0 -109 3q-7 -51 -24 -94t-39 -72t-39.5 -46t-35.5 -29l107 -2q117 -2 168 2q44 4 81 36l5 -2l-9 -117q-198 9 -410 9
q-77 0 -117 -6q-60 -9 -145 -9q-97 0 -159.5 20t-110.5 71q-91 95 -91 249q0 88 36 175t117 143q107 74 271 74q13 0 80 -6t90 -7q67 -4 226 -4q120 0 154 4q55 6 84 31zM200 342q0 -148 78.5 -229.5t184.5 -81.5q125 0 200 100t75 247q0 133 -65.5 218t-176.5 85
q-117 0 -206.5 -93t-89.5 -246z" />
    <glyph glyph-name="Oacute.alt" unicode="&#xe023;" horiz-adv-x="1000" 
d="M941 385q0 -69 -22.5 -129.5t-60 -103t-79 -71t-85.5 -44.5q-55 -19 -158.5 -31.5t-157.5 -12.5q-144 0 -230.5 94t-86.5 231q0 43 11 87.5t36 94.5t75.5 93t119.5 68q57 20 215 48q46 9 94 9q145 0 237 -95.5t92 -237.5zM796 402q-1 40 -20 86.5t-48 80.5
q-44 53 -108 77t-120 24q-117 0 -206 -104.5t-89 -241.5q0 -69 26 -126t68 -92t91 -54t98 -19q61 0 123 29t102 76q31 37 50 76t25 78.5t7.5 59t0.5 50.5zM443 736l-43 35l7 6q52 44 96.5 75.5t60.5 44.5l90 -39v-4z" />
    <glyph glyph-name="Ocircumflex.alt" unicode="&#xe024;" horiz-adv-x="1000" 
d="M941 385q0 -69 -22.5 -129.5t-60 -103t-79 -71t-85.5 -44.5q-55 -19 -158.5 -31.5t-157.5 -12.5q-144 0 -230.5 94t-86.5 231q0 43 11 87.5t36 94.5t75.5 93t119.5 68q57 20 215 48q46 9 94 9q145 0 237 -95.5t92 -237.5zM796 402q-1 40 -20 86.5t-48 80.5
q-44 53 -108 77t-120 24q-117 0 -206 -104.5t-89 -241.5q0 -69 26 -126t68 -92t91 -54t98 -19q61 0 123 29t102 76q31 37 50 76t25 78.5t7.5 59t0.5 50.5zM345 724l-40 19v4q30 21 99 74l100 77q25 -17 98 -58t104 -54v-5l-75 -41q-97 50 -153 85z" />
    <glyph glyph-name="Odieresis.alt" unicode="&#xe025;" horiz-adv-x="1000" 
d="M941 385q0 -69 -22.5 -129.5t-60 -103t-79 -71t-85.5 -44.5q-55 -19 -158.5 -31.5t-157.5 -12.5q-144 0 -230.5 94t-86.5 231q0 43 11 87.5t36 94.5t75.5 93t119.5 68q57 20 215 48q46 9 94 9q145 0 237 -95.5t92 -237.5zM796 402q-1 40 -20 86.5t-48 80.5
q-44 53 -108 77t-120 24q-117 0 -206 -104.5t-89 -241.5q0 -69 26 -126t68 -92t91 -54t98 -19q61 0 123 29t102 76q31 37 50 76t25 78.5t7.5 59t0.5 50.5zM537 775l-3 5q8 10 49 56.5t46 53.5q9 -6 38.5 -16t36.5 -11l3 -5q-44 -32 -108 -102q-34 14 -62 19zM353 776l-3 4
q80 88 95 110q34 -15 75 -27l3 -5q-71 -62 -108 -102q-16 8 -62 20z" />
    <glyph glyph-name="Ograve.alt" unicode="&#xe026;" horiz-adv-x="1000" 
d="M941 385q0 -69 -22.5 -129.5t-60 -103t-79 -71t-85.5 -44.5q-55 -19 -158.5 -31.5t-157.5 -12.5q-144 0 -230.5 94t-86.5 231q0 43 11 87.5t36 94.5t75.5 93t119.5 68q57 20 215 48q46 9 94 9q145 0 237 -95.5t92 -237.5zM796 402q-1 40 -20 86.5t-48 80.5
q-44 53 -108 77t-120 24q-117 0 -206 -104.5t-89 -241.5q0 -69 26 -126t68 -92t91 -54t98 -19q61 0 123 29t102 76q31 37 50 76t25 78.5t7.5 59t0.5 50.5zM539 738l-208 115v6l87 38l171 -128z" />
    <glyph glyph-name="Oslash.alt" unicode="&#xe027;" horiz-adv-x="1000" 
d="M157 -56l-47 30q6 7 39 40l37 37q-126 107 -126 266q0 43 11 88t36.5 95t76 93t119.5 67q41 14 149 36q116 22 168 22q76 0 149 -38q50 53 70 81l48 -29q-20 -18 -75 -77q128 -107 128 -273q0 -122 -75 -220.5t-199 -133.5q-49 -13 -148 -24t-136 -11q-88 0 -152 33
q-7 -7 -39 -43t-34 -39zM729 564l-428 -461q80 -70 185 -70q125 0 217.5 96.5t92.5 242.5q0 112 -67 192zM267 138l428 461q-85 71 -198 71q-112 0 -203 -103t-91 -242q0 -110 64 -187z" />
    <glyph glyph-name="Otilde.alt" unicode="&#xe028;" horiz-adv-x="1000" 
d="M941 385q0 -69 -22.5 -129.5t-60 -103t-79 -71t-85.5 -44.5q-55 -19 -158.5 -31.5t-157.5 -12.5q-144 0 -230.5 94t-86.5 231q0 43 11 87.5t36 94.5t75.5 93t119.5 68q57 20 215 48q46 9 94 9q145 0 237 -95.5t92 -237.5zM796 402q-1 40 -20 86.5t-48 80.5
q-44 53 -108 77t-120 24q-117 0 -206 -104.5t-89 -241.5q0 -69 26 -126t68 -92t91 -54t98 -19q61 0 123 29t102 76q31 37 50 76t25 78.5t7.5 59t0.5 50.5zM669 886l21 -11q-19 -45 -60 -91q-25 -27 -51 -27q-19 0 -93 25q-49 17 -75 17q-14 0 -25.5 -7.5t-19 -16.5
t-22.5 -31l-23 11q2 3 4 7.5t9 16.5l17 30q37 67 82 67q25 0 88 -22q60 -21 82 -21q19 0 37 18q1 0 5.5 6l12 15.5t11.5 13.5z" />
    <glyph glyph-name="P.alt" unicode="&#xe029;" 
d="M253 4l-3 -5q-30 4 -73 4q-61 0 -93 -4l-3 5q14 29 20.5 99.5t7.5 139t1 222.5q0 169 -12 201q-6 15 -29 38l2 5q39 -4 112 -4q39 0 115 4q194 7 199 7q70 0 119.5 -47.5t49.5 -128.5q0 -110 -86 -181t-224 -71q-58 0 -125 15q-3 -134 4 -218q4 -44 18 -81zM230 337
q47 -13 85 -13q92 0 150 62t58 147q0 63 -36.5 104.5t-106.5 41.5q-63 0 -101 -35q-42 -37 -46 -129q-1 -13 -2 -88.5t-1 -89.5z" />
    <glyph glyph-name="Q.alt" unicode="&#xe02a;" horiz-adv-x="1000" 
d="M1083 -123l4 -3l-24 -45q-43 -2 -192 -0.5t-177 4.5q-65 8 -136 100q-2 3 -21 29t-23 31q-9 10 -17 10q-2 0 -12 -2t-12 -2q-36 -6 -91 -6q-151 0 -237 95t-86 228q0 28 4.5 58t19.5 73.5t40 81t71.5 73.5t107.5 58q55 19 159.5 38.5t151.5 19.5q133 0 229.5 -91.5
t96.5 -246.5q0 -75 -30.5 -146t-101.5 -131.5t-172 -81.5q19 -8 33 -17.5t71 -51.5q61 -47 112 -69t128 -22q67 0 104 16zM795 402q0 11 -2.5 29t-19.5 60.5t-46 76.5q-45 53 -108 77.5t-120 24.5q-116 0 -206 -104t-90 -242q0 -69 26.5 -126.5t68 -92t90.5 -53.5t98 -19
q59 0 116 25.5t102 71t70.5 117t20.5 155.5z" />
    <glyph glyph-name="R.alt" unicode="&#xe02b;" horiz-adv-x="741" 
d="M772 3l-1 -5h-174q-30 22 -84 109l-64 105q-66 107 -150 107q-43 0 -70 -7q-1 -28 0 -99.5t2 -100.5q4 -63 21 -110l-2 -3q-20 4 -69 4q-72 0 -99 -4l-3 4q15 29 21 92q7 72 7 353q0 147 -6 194q-5 31 -36 62l3 5q24 -4 81 -4q130 0 189 4q119 7 145 7q84 0 128.5 -43
t44.5 -105q0 -85 -58.5 -142.5t-139.5 -80.5q44 -14 69 -41t74 -108t79 -120t45.5 -50t46.5 -23zM230 474l-2 -118q36 -6 66 -6q67 0 114 20.5t67.5 53t28.5 59t8 52.5q0 65 -36.5 104.5t-100.5 39.5q-76 0 -119 -57q-25 -36 -26 -148z" />
    <glyph glyph-name="S.alt" unicode="&#xe02c;" horiz-adv-x="741" 
d="M229 202l4 -5q-23 -37 -23 -67q0 -38 30.5 -70t94.5 -32q90 0 149 70t59 141q0 31 -9 52.5t-20.5 32t-30.5 16.5t-29.5 6.5t-26.5 0.5q-2 0 -77.5 -4t-90.5 -4q-90 0 -135 34q-52 38 -52 110q0 81 58 143t141 76q77 13 213 13q36 0 54.5 -1t48.5 -8.5t45 -22t25 -44
t7 -71.5q-67 1 -145 -4l-3 5q3 18 3 25q0 87 -108 87q-90 0 -145 -55t-55 -120q0 -93 113 -93q17 0 105.5 6.5t103.5 6.5q75 0 112 -42q39 -45 39 -116q0 -101 -68 -173t-151 -88q-69 -14 -247 -14q-77 0 -111 28q-42 34 -42 101q0 42 16 74q47 -1 148 6z" />
    <glyph glyph-name="Scaron.alt" unicode="&#xe02d;" horiz-adv-x="741" 
d="M229 202l4 -5q-23 -37 -23 -67q0 -38 30.5 -70t94.5 -32q90 0 149 70t59 141q0 31 -9 52.5t-20.5 32t-30.5 16.5t-29.5 6.5t-26.5 0.5q-2 0 -77.5 -4t-90.5 -4q-90 0 -135 34q-52 38 -52 110q0 81 58 143t141 76q77 13 213 13q36 0 54.5 -1t48.5 -8.5t45 -22t25 -44
t7 -71.5q-67 1 -145 -4l-3 5q3 18 3 25q0 87 -108 87q-90 0 -145 -55t-55 -120q0 -93 113 -93q17 0 105.5 6.5t103.5 6.5q75 0 112 -42q39 -45 39 -116q0 -101 -68 -173t-151 -88q-69 -14 -247 -14q-77 0 -111 28q-42 34 -42 101q0 42 16 74q47 -1 148 6zM395 807l145 99
l39 -21v-5q-16 -9 -108.5 -72.5t-104.5 -72.5q-2 2 -87 59q-25 17 -97 61v5l77 35q35 -20 136 -88z" />
    <glyph glyph-name="T.alt" unicode="&#xe02e;" 
d="M714 740l-40 -110q-112 7 -162 7q-46 0 -56.5 -3t-14.5 -14q-17 -54 -17 -329q0 -140 4.5 -188.5t19.5 -100.5l-3 -4q-26 6 -78 6t-88 -6l-3 4q26 68 26 328q0 250 -13 291q-4 15 -30 15q-56 0 -89 -1.5t-78 -10t-77 -25.5l-4 4l39 106q232 -4 317 -4q183 0 251 4
q30 1 41.5 6.5t44.5 31.5z" />
    <glyph glyph-name="Thorn.alt" unicode="&#xe02f;" 
d="M523 403q0 63 -36.5 104.5t-106.5 41.5q-63 0 -101 -35q-42 -37 -46 -129q-1 -13 -2 -88.5t-1 -89.5q47 -13 85 -13q92 0 150 62t58 147zM238 597l-1 -19q3 0 105 3q112 5 155 5q70 0 119.5 -47.5t49.5 -128.5q0 -110 -86 -181t-224 -71q-45 0 -127 15q-1 -31 7 -103
q3 -33 16 -67l-3 -4q-68 4 -96 4q-29 0 -71 -4l-2 3q14 45 21 134q9 113 9 275q0 210 -27 294l2 4q30 -4 91 -4q12 0 76 4l4 -3q-15 -55 -18 -109z" />
    <glyph glyph-name="U.alt" unicode="&#xe030;" horiz-adv-x="852" 
d="M74 706l3 3q35 -4 80 -4q64 0 85 4l4 -3q-27 -75 -27 -363q0 -101 6.5 -151.5t25.5 -81.5q35 -61 133 -61q65 0 125.5 43t91.5 105q19 39 25 87.5t6 146.5q0 219 -22 277l4 1q46 -4 95 -4q39 0 61 4l4 -4q-25 -82 -25 -337q0 -248 7 -294q6 -40 28 -72l-2 -3q-29 4 -67 4
q-66 0 -94 -4l-3 3q1 6 2.5 23.5t3 38t1.5 22.5q-50 -27 -189.5 -62t-192.5 -35q-40 0 -68.5 11.5t-43.5 27.5t-23 41.5t-9.5 43.5t-1.5 43q0 31 1.5 112.5t1.5 113.5q0 175 -7 245q-5 51 -19 79z" />
    <glyph glyph-name="Uacute.alt" unicode="&#xe031;" horiz-adv-x="852" 
d="M74 706l3 3q35 -4 80 -4q64 0 85 4l4 -3q-27 -75 -27 -363q0 -101 6.5 -151.5t25.5 -81.5q35 -61 133 -61q65 0 125.5 43t91.5 105q19 39 25 87.5t6 146.5q0 219 -22 277l4 1q46 -4 95 -4q39 0 61 4l4 -4q-25 -82 -25 -337q0 -248 7 -294q6 -40 28 -72l-2 -3q-29 4 -67 4
q-66 0 -94 -4l-3 3q1 6 2.5 23.5t3 38t1.5 22.5q-50 -27 -189.5 -62t-192.5 -35q-40 0 -68.5 11.5t-43.5 27.5t-23 41.5t-9.5 43.5t-1.5 43q0 31 1.5 112.5t1.5 113.5q0 175 -7 245q-5 51 -19 79zM369 736l-43 35l7 6q52 44 96.5 75.5t60.5 44.5l90 -39v-4z" />
    <glyph glyph-name="Ucircumflex.alt" unicode="&#xe032;" horiz-adv-x="852" 
d="M74 706l3 3q35 -4 80 -4q64 0 85 4l4 -3q-27 -75 -27 -363q0 -101 6.5 -151.5t25.5 -81.5q35 -61 133 -61q65 0 125.5 43t91.5 105q19 39 25 87.5t6 146.5q0 219 -22 277l4 1q46 -4 95 -4q39 0 61 4l4 -4q-25 -82 -25 -337q0 -248 7 -294q6 -40 28 -72l-2 -3q-29 4 -67 4
q-66 0 -94 -4l-3 3q1 6 2.5 23.5t3 38t1.5 22.5q-50 -27 -189.5 -62t-192.5 -35q-40 0 -68.5 11.5t-43.5 27.5t-23 41.5t-9.5 43.5t-1.5 43q0 31 1.5 112.5t1.5 113.5q0 175 -7 245q-5 51 -19 79zM271 724l-40 19v4q30 21 99 74l100 77q25 -17 98 -58t104 -54v-5l-75 -41
q-97 50 -153 85z" />
    <glyph glyph-name="Udieresis.alt" unicode="&#xe033;" horiz-adv-x="852" 
d="M74 706l3 3q35 -4 80 -4q64 0 85 4l4 -3q-27 -75 -27 -363q0 -101 6.5 -151.5t25.5 -81.5q35 -61 133 -61q65 0 125.5 43t91.5 105q19 39 25 87.5t6 146.5q0 219 -22 277l4 1q46 -4 95 -4q39 0 61 4l4 -4q-25 -82 -25 -337q0 -248 7 -294q6 -40 28 -72l-2 -3q-29 4 -67 4
q-66 0 -94 -4l-3 3q1 6 2.5 23.5t3 38t1.5 22.5q-50 -27 -189.5 -62t-192.5 -35q-40 0 -68.5 11.5t-43.5 27.5t-23 41.5t-9.5 43.5t-1.5 43q0 31 1.5 112.5t1.5 113.5q0 175 -7 245q-5 51 -19 79zM463 775l-3 5q8 10 49 56.5t46 53.5q9 -6 38.5 -16t36.5 -11l3 -5
q-44 -32 -108 -102q-34 14 -62 19zM279 776l-3 4q80 88 95 110q34 -15 75 -27l3 -5q-71 -62 -108 -102q-16 8 -62 20z" />
    <glyph glyph-name="Ugrave.alt" unicode="&#xe034;" horiz-adv-x="852" 
d="M74 706l3 3q35 -4 80 -4q64 0 85 4l4 -3q-27 -75 -27 -363q0 -101 6.5 -151.5t25.5 -81.5q35 -61 133 -61q65 0 125.5 43t91.5 105q19 39 25 87.5t6 146.5q0 219 -22 277l4 1q46 -4 95 -4q39 0 61 4l4 -4q-25 -82 -25 -337q0 -248 7 -294q6 -40 28 -72l-2 -3q-29 4 -67 4
q-66 0 -94 -4l-3 3q1 6 2.5 23.5t3 38t1.5 22.5q-50 -27 -189.5 -62t-192.5 -35q-40 0 -68.5 11.5t-43.5 27.5t-23 41.5t-9.5 43.5t-1.5 43q0 31 1.5 112.5t1.5 113.5q0 175 -7 245q-5 51 -19 79zM465 738l-208 115v6l87 38l171 -128z" />
    <glyph glyph-name="V.alt" unicode="&#xe035;" 
d="M579 704l3 5q26 -4 82 -4q49 0 61 4l2 -7q-14 -14 -23.5 -26t-33 -56t-58.5 -121q-32 -71 -107.5 -257.5t-75.5 -196.5q0 -4 4 -12q4 -9 18 -27l-3 -7q-23 4 -77 4q-72 0 -97 -4l-3 5q2 24 -6.5 58t-52.5 177q-29 97 -74 223t-68 177q-17 36 -53 66l2 4q1 0 37 -2t50 -2
q28 0 92 4l4 -2q10 -66 77.5 -281.5t99.5 -280.5q5 15 53 129q69 173 112 295q30 89 35 135z" />
    <glyph glyph-name="W.alt" unicode="&#xe036;" horiz-adv-x="1248" 
d="M1095 703l2 3q3 0 24.5 -1t41.5 -1q44 0 88 2l2 -5q-24 -18 -44.5 -46t-30.5 -48.5t-25 -55.5l-82 -203.5l-81 -210.5t-33 -92q0 -12 30 -42l-2 -4q-36 4 -106 4q-40 0 -80 -4l-4 2q3 14 0 32.5t-29.5 105t-82.5 240.5q-1 2 -32 84.5t-36 99.5q-18 -35 -112 -269
t-94 -249q0 -16 26 -42l-4 -4q-32 4 -108 4q-42 0 -66 -4l-4 4q6 30 -40 194t-80 268q-46 144 -62.5 177.5t-53.5 61.5l2 5q44 -4 108 -4q52 0 76 4l2 -5q12 -72 54.5 -229.5t97.5 -323.5q21 45 112.5 271t91.5 237q0 18 -30 44l4 6q58 -4 100 -4q54 0 78 4l2 -4
q14 -84 69.5 -249.5t116.5 -318.5l31 76l67 172.5t60 169.5q34 105 36 148z" />
    <glyph glyph-name="X.alt" unicode="&#xe037;" 
d="M733 709l3 -6q-54 -39 -252 -274q-48 -56 -65 -80q2 -5 34 -58.5l74.5 -120.5t64.5 -94q35 -44 80 -72l-2 -5q-68 4 -112 4q-50 0 -86 -4q-43 93 -57 120l-36.5 66.5l-37.5 68.5q-20 -23 -85.5 -111t-101.5 -144q-37 4 -91 4q-50 0 -78 -4l-3 6q112 84 196 174
q11 12 63 73l60 70q-10 15 -53 87t-44 74q-60 97 -98 147.5t-75 74.5l3 4q48 -4 87 -4q63 0 107 4q28 -80 150 -289q75 97 107.5 147t84.5 142q46 -4 99 -4q34 0 64 4z" />
    <glyph glyph-name="Y.alt" unicode="&#xe038;" horiz-adv-x="667" 
d="M534 706l4 3q51 -4 85 -4t58 4l2 -6q-79 -68 -246 -373q-40 -73 -48.5 -101.5t-8.5 -72.5q0 -98 20 -155l-2 -2q-34 4 -79 4t-79 -4l-3 3q19 57 19 160q0 50 -18 97t-111 229q-80 159 -129 217l3 4q40 -5 78 -4q6 0 86 4l3 -3q17 -62 84 -203t90 -181q78 137 137 257
q26 53 55 127z" />
    <glyph glyph-name="Yacute.alt" unicode="&#xe039;" horiz-adv-x="667" 
d="M534 706l4 3q51 -4 85 -4t58 4l2 -6q-79 -68 -246 -373q-40 -73 -48.5 -101.5t-8.5 -72.5q0 -98 20 -155l-2 -2q-34 4 -79 4t-79 -4l-3 3q19 57 19 160q0 50 -18 97t-111 229q-80 159 -129 217l3 4q40 -5 78 -4q6 0 86 4l3 -3q17 -62 84 -203t90 -181q78 137 137 257
q26 53 55 127zM307 736l-43 35l7 6q52 44 96.5 75.5t60.5 44.5l90 -39v-4z" />
    <glyph glyph-name="Ydieresis.alt" unicode="&#xe03a;" horiz-adv-x="667" 
d="M534 706l4 3q51 -4 85 -4t58 4l2 -6q-79 -68 -246 -373q-40 -73 -48.5 -101.5t-8.5 -72.5q0 -98 20 -155l-2 -2q-34 4 -79 4t-79 -4l-3 3q19 57 19 160q0 50 -18 97t-111 229q-80 159 -129 217l3 4q40 -5 78 -4q6 0 86 4l3 -3q17 -62 84 -203t90 -181q78 137 137 257
q26 53 55 127zM371 775l-3 5q8 10 49 56.5t46 53.5q9 -6 38.5 -16t36.5 -11l3 -5q-44 -32 -108 -102q-34 14 -62 19zM187 776l-3 4q80 88 95 110q34 -15 75 -27l3 -5q-71 -62 -108 -102q-16 8 -62 20z" />
    <glyph glyph-name="Z.alt" unicode="&#xe03b;" horiz-adv-x="741" 
d="M712 126l5 -5q-2 -2 -31 -52.5t-37 -66.5q-55 -5 -128 -5q-27 0 -137 3q-168 5 -210 5q-96 0 -161 -5l-4 7q74 55 183 209q71 99 155 229.5t118 192.5q-74 0 -213.5 -12t-195.5 -34l-5 5q7 9 36 55.5l32 51.5q52 -4 195 -4q134 0 208 4q120 7 180 24l5 -6
q-69 -63 -218 -279t-232 -368q327 -7 455 51z" />
    <glyph glyph-name="Zcaron.alt" unicode="&#xe03c;" horiz-adv-x="741" 
d="M712 126l5 -5q-2 -2 -31 -52.5t-37 -66.5q-55 -5 -128 -5q-27 0 -137 3q-168 5 -210 5q-96 0 -161 -5l-4 7q74 55 183 209q71 99 155 229.5t118 192.5q-74 0 -213.5 -12t-195.5 -34l-5 5q7 9 36 55.5l32 51.5q52 -4 195 -4q134 0 208 4q120 7 180 24l5 -6
q-69 -63 -218 -279t-232 -368q327 -7 455 51zM395 807l145 99l39 -21v-5q-16 -9 -108.5 -72.5t-104.5 -72.5q-2 2 -87 59q-25 17 -97 61v5l77 35q35 -20 136 -88z" />
    <glyph glyph-name="a.alt" unicode="&#xe03d;" horiz-adv-x="778" 
d="M699 9l-3 -5q-23 1 -119 -11l-10 84q-79 -64 -211 -73q-76 -13 -103 -13q-94 0 -146 50q-55 55 -55 149q0 43 16 88t48.5 88t91.5 70.5t136 27.5q21 0 81 -5q89 -4 91 -4q5 -1 39 -9t37 -8q29 0 104 30q-7 -26 -14 -114t-7 -177q0 -113 24 -168zM569 326q-8 28 -54 67
t-102 39q-45 0 -98 -27.5t-95.5 -85t-42.5 -126.5q0 -75 48.5 -120t113.5 -45q36 0 84.5 34t83.5 84q26 37 42 79.5t19 67.5t1 33z" />
    <glyph glyph-name="aacute.alt" unicode="&#xe03e;" horiz-adv-x="778" 
d="M699 9l-3 -5q-23 1 -119 -11l-10 84q-79 -64 -211 -73q-76 -13 -103 -13q-94 0 -146 50q-55 55 -55 149q0 43 16 88t48.5 88t91.5 70.5t136 27.5q21 0 81 -5q89 -4 91 -4q5 -1 39 -9t37 -8q29 0 104 30q-7 -26 -14 -114t-7 -177q0 -113 24 -168zM569 326q-8 28 -54 67
t-102 39q-45 0 -98 -27.5t-95.5 -85t-42.5 -126.5q0 -75 48.5 -120t113.5 -45q36 0 84.5 34t83.5 84q26 37 42 79.5t19 67.5t1 33zM332 498l-43 35l7 6q52 44 96.5 75.5t60.5 44.5l90 -39v-4z" />
    <glyph glyph-name="acircumflex.alt" unicode="&#xe03f;" horiz-adv-x="778" 
d="M699 9l-3 -5q-23 1 -119 -11l-10 84q-79 -64 -211 -73q-76 -13 -103 -13q-94 0 -146 50q-55 55 -55 149q0 43 16 88t48.5 88t91.5 70.5t136 27.5q21 0 81 -5q89 -4 91 -4q5 -1 39 -9t37 -8q29 0 104 30q-7 -26 -14 -114t-7 -177q0 -113 24 -168zM569 326q-8 28 -54 67
t-102 39q-45 0 -98 -27.5t-95.5 -85t-42.5 -126.5q0 -75 48.5 -120t113.5 -45q36 0 84.5 34t83.5 84q26 37 42 79.5t19 67.5t1 33zM234 486l-40 19v4q30 21 99 74l100 77q25 -17 98 -58t104 -54v-5l-75 -41q-97 50 -153 85z" />
    <glyph glyph-name="acute.alt" unicode="&#xe040;" horiz-adv-x="278" 
d="M82 474l-43 35l7 6q52 44 96.5 75.5t60.5 44.5l90 -39v-4z" />
    <glyph glyph-name="adieresis.alt" unicode="&#xe041;" horiz-adv-x="778" 
d="M699 9l-3 -5q-23 1 -119 -11l-10 84q-79 -64 -211 -73q-76 -13 -103 -13q-94 0 -146 50q-55 55 -55 149q0 43 16 88t48.5 88t91.5 70.5t136 27.5q21 0 81 -5q89 -4 91 -4q5 -1 39 -9t37 -8q29 0 104 30q-7 -26 -14 -114t-7 -177q0 -113 24 -168zM569 326q-8 28 -54 67
t-102 39q-45 0 -98 -27.5t-95.5 -85t-42.5 -126.5q0 -75 48.5 -120t113.5 -45q36 0 84.5 34t83.5 84q26 37 42 79.5t19 67.5t1 33zM426 537l-3 5q8 10 49 56.5t46 53.5q9 -6 38.5 -16t36.5 -11l3 -5q-44 -32 -108 -102q-34 14 -62 19zM242 538l-3 4q80 88 95 110
q34 -15 75 -27l3 -5q-71 -62 -108 -102q-16 8 -62 20z" />
    <glyph glyph-name="ae.alt" unicode="&#xe042;" horiz-adv-x="1056" 
d="M1046 287l1 -4l-40 -49h-442q-3 -54 2.5 -84.5t27.5 -59.5q49 -65 142 -65q42 0 114.5 30.5t134.5 75.5h4l-84 -131h-142q-1 0 -14.5 -1.5t-29.5 -3.5t-20 -2q-33 -5 -64 -5q-130 0 -172 101q-63 -41 -109 -61q-87 -36 -150 -36q-74 0 -115.5 37t-41.5 91q0 41 20.5 69
t57 43.5t87.5 24t111.5 9t128.5 -0.5q0 79 -16 110q-14 26 -43 39.5t-62 13.5q-38 0 -76 -20.5t-53 -68.5l-129 -17q15 43 42.5 71.5t65 41t60 16.5t56.5 6q7 0 55.5 5t57.5 5q101 0 130 -67q34 45 143 55q2 0 42 2t48 3q48 6 77 6q45 0 76.5 -10t45 -26t18.5 -29t5 -27
q0 -22 -10.5 -39.5t-33 -31t-38.5 -20.5t-47 -18q28 2 94 10t85 12zM570 265q120 -2 169 6l22.5 4.5t26.5 6t30 11t24.5 16t20 23.5t6.5 31q0 28 -22.5 49t-70.5 21q-64 0 -128 -44t-78 -124zM450 234q-117 -1 -175 -13q-37 -8 -67 -29.5t-30 -59.5q0 -31 23.5 -55.5
t74.5 -24.5q29 0 60.5 10t52.5 20.5t67 36.5q-9 33 -6 115z" />
    <glyph glyph-name="agrave.alt" unicode="&#xe043;" horiz-adv-x="778" 
d="M699 9l-3 -5q-23 1 -119 -11l-10 84q-79 -64 -211 -73q-76 -13 -103 -13q-94 0 -146 50q-55 55 -55 149q0 43 16 88t48.5 88t91.5 70.5t136 27.5q21 0 81 -5q89 -4 91 -4q5 -1 39 -9t37 -8q29 0 104 30q-7 -26 -14 -114t-7 -177q0 -113 24 -168zM569 326q-8 28 -54 67
t-102 39q-45 0 -98 -27.5t-95.5 -85t-42.5 -126.5q0 -75 48.5 -120t113.5 -45q36 0 84.5 34t83.5 84q26 37 42 79.5t19 67.5t1 33zM428 500l-208 115v6l87 38l171 -128z" />
    <glyph glyph-name="ampersand.alt" unicode="&#xe044;" horiz-adv-x="981" 
d="M929 439l4 -3l-41 -67h-192q-37 -80 -37 -180q0 -93 47 -135q31 -29 74 -29q62 0 150 80l5 -3l-47 -102h-102q-21 0 -49 -4q-8 -1 -19 -2t-18.5 -2t-10.5 -1q-88 0 -118 76q-37 -45 -77 -59t-87 -14q-6 0 -36 2t-32 2q-15 0 -41 -3q-8 0 -22.5 -1.5t-17.5 -1.5
q-57 0 -82.5 8t-45.5 26q-69 64 -69 191q0 47 10.5 93.5t32.5 90t60.5 75t89.5 42.5q25 6 113 15q51 8 79 8q66 0 93 -27q22 -22 22 -49q0 -28 -14 -50h181q94 0 123.5 3.5t73.5 20.5zM240 411h189q9 18 9 37q0 26 -21 41t-49 15q-67 0 -128 -93zM571 369h-354
q-14 -28 -22.5 -72t-8.5 -75q0 -87 48.5 -141.5t106.5 -54.5q39 0 85.5 27.5t83.5 82.5q28 41 42.5 88.5t16.5 74t2 70.5z" />
    <glyph glyph-name="aring.alt" unicode="&#xe045;" horiz-adv-x="778" 
d="M699 9l-3 -5q-23 1 -119 -11l-10 84q-79 -64 -211 -73q-76 -13 -103 -13q-94 0 -146 50q-55 55 -55 149q0 43 16 88t48.5 88t91.5 70.5t136 27.5q21 0 81 -5q89 -4 91 -4q5 -1 39 -9t37 -8q29 0 104 30q-7 -26 -14 -114t-7 -177q0 -113 24 -168zM569 326q-8 28 -54 67
t-102 39q-45 0 -98 -27.5t-95.5 -85t-42.5 -126.5q0 -75 48.5 -120t113.5 -45q36 0 84.5 34t83.5 84q26 37 42 79.5t19 67.5t1 33zM506 596q0 -102 -162 -102q-84 0 -84 76q0 96 160 96q47 0 70 -26q16 -19 16 -44zM324 577q0 -58 52 -58q36 0 51 22t15 45q0 25 -13 41
q-12 15 -37 15q-22 0 -37 -8.5t-21 -21t-8 -21t-2 -14.5z" />
    <glyph glyph-name="asciicircum.alt" unicode="&#xe046;" horiz-adv-x="593" 
d="M73 274l176 427h95l176 -427h-109l-117 292l-112 -292h-109z" />
    <glyph glyph-name="asciitilde.alt" unicode="&#xe047;" horiz-adv-x="593" 
d="M97 176h-68q8 82 47 125t96 43q20 0 41.5 -6t106.5 -33q87 -28 113 -28q51 0 64 66h68q-9 -78 -44.5 -122.5t-100.5 -44.5q-43 0 -158 40q-84 29 -100 29q-22 0 -40.5 -17t-24.5 -52z" />
    <glyph glyph-name="asterisk.alt" unicode="&#xe048;" horiz-adv-x="611" 
d="M518 344l-2 -4h-122q-26 38 -98 134l-123 -134h-100l-2 4q24 17 89 75.5t77 70.5q-114 0 -196 -11l-4 4l55 83q10 -1 37 -3t32 -2q62 -3 76 -3q-17 21 -66 74.5t-69 72.5l2 4h124q39 -60 94 -131q16 16 121 131h19.5h31h30.5h15l2 -4q-34 -24 -82 -70l-84 -78
q116 2 201 9l3 -4l-28.5 -41t-26.5 -39q-120 7 -141 8q77 -89 135 -146z" />
    <glyph glyph-name="at.alt" unicode="&#xe049;" horiz-adv-x="748" 
d="M634 118l20 -33q-135 -92 -278 -92q-150 0 -257.5 98t-107.5 244q0 74 31 143.5t83.5 122.5t129 85t161.5 32q143 0 232.5 -82.5t89.5 -207.5q0 -106 -63.5 -190t-145.5 -84q-35 0 -61 18.5t-31 61.5q-41 -80 -115 -80q-55 0 -90.5 42t-35.5 103q0 85 63 158.5t139 73.5
q73 0 89 -61l15 49h94q-52 -176 -70 -242q-7 -26 -7 -39q0 -40 38 -40q48 0 95 70t47 157q0 111 -77 180t-195 69q-142 0 -243.5 -102t-101.5 -240q0 -127 87 -211t214 -84q131 0 251 81zM421 487q-13 0 -22.5 -3t-28.5 -23.5t-38 -59.5q-38 -78 -38 -139q0 -63 47 -63
q48 0 82 82q14 33 27.5 80t13.5 72q0 26 -13 40t-30 14z" />
    <glyph glyph-name="atilde.alt" unicode="&#xe04a;" horiz-adv-x="778" 
d="M699 9l-3 -5q-23 1 -119 -11l-10 84q-79 -64 -211 -73q-76 -13 -103 -13q-94 0 -146 50q-55 55 -55 149q0 43 16 88t48.5 88t91.5 70.5t136 27.5q21 0 81 -5q89 -4 91 -4q5 -1 39 -9t37 -8q29 0 104 30q-7 -26 -14 -114t-7 -177q0 -113 24 -168zM569 326q-8 28 -54 67
t-102 39q-45 0 -98 -27.5t-95.5 -85t-42.5 -126.5q0 -75 48.5 -120t113.5 -45q36 0 84.5 34t83.5 84q26 37 42 79.5t19 67.5t1 33zM558 648l21 -11q-19 -45 -60 -91q-25 -27 -51 -27q-19 0 -93 25q-49 17 -75 17q-14 0 -25.5 -7.5t-19 -16.5t-22.5 -31l-23 11q2 3 4 7.5
t9 16.5l17 30q37 67 82 67q25 0 88 -22q60 -21 82 -21q19 0 37 18q1 0 5.5 6l12 15.5t11.5 13.5z" />
    <glyph glyph-name="b.alt" unicode="&#xe04b;" horiz-adv-x="630" 
d="M202 491v-33l24 7.5t23.5 6t20.5 4.5t23 3.5t21.5 2t27 2.5t28.5 3q44 7 70 7q76 0 106 -34t30 -73q0 -99 -168 -145q66 -8 93 -25q47 -31 47 -81q0 -11 -3 -24t-15.5 -33.5t-33.5 -36.5t-61.5 -28t-94.5 -12q-4 0 -24 1t-22 1q-13 -1 -15 -2q-38 -4 -199 -8l-8 -1l-5 4
q14 18 17 48q9 81 9 244q0 144 -4 161q-2 9 -17 26v3zM195 252q109 -8 184.5 25.5t75.5 95.5q0 37 -24.5 61.5t-61.5 24.5q-19 0 -45.5 -9.5t-58.5 -30t-52.5 -64.5t-17.5 -103zM194 208q0 -110 6 -135q1 -5 12 -14t34 -18t49 -9q19 0 46 8t54 33.5t27 61.5q0 41 -31 65
q-29 23 -83 23q-71 0 -114 -15z" />
    <glyph glyph-name="backslash.alt" unicode="&#xe04c;" horiz-adv-x="444" 
d="M444 0h-101q-156 347 -373 705l3 4l101 1q1 -6 34.5 -77t110 -219t162.5 -298l33 -55t34 -58z" />
    <glyph glyph-name="breve.alt" unicode="&#xe04d;" horiz-adv-x="278" 
d="M272 639l42 4q-4 -24 -17 -52t-36 -56.5t-61 -47.5t-84 -19q-72 0 -107.5 46t-30.5 109l40 4q2 -35 31 -58.5t76 -23.5q66 0 112 39q22 19 35 55z" />
    <glyph glyph-name="bullet.alt" unicode="&#xe04e;" horiz-adv-x="778" 
d="M739 519l4 -4q0 -2 -1 -25.5t-2 -64t-1 -81.5q0 -64 4 -152l-4 -4q-96 42 -194 75q-6 2 -97 28q29 -114 105 -287l-4 -4q-68 4 -152 4q-86 0 -170 -4l-4 4q27 54 58 143t45 143q-65 -14 -165.5 -51.5t-122.5 -50.5l-5 6q4 64 4 172q0 91 -4 149l5 4q50 -26 138 -57.5
t150 -45.5q-11 51 -45 146.5t-58 140.5l5 5q113 -5 155 -4q93 0 166 4l4 -4q-47 -93 -103 -288q27 4 117 34.5t172 68.5z" />
    <glyph glyph-name="c.alt" unicode="&#xe04f;" horiz-adv-x="648" 
d="M628 443l-46 -93q-32 27 -87 53.5t-114 26.5q-52 0 -93 -21t-64.5 -54.5t-35.5 -71t-12 -76.5q0 -88 53 -136t134 -48q115 0 251 102l3 -3l-60 -123q-22 1 -131.5 -2.5t-123.5 -3.5q-70 0 -109.5 8.5t-73.5 36.5q-66 54 -66 160q0 51 13.5 93.5t35 69.5t38.5 42t34 25
q33 18 68.5 24t103.5 6q111 0 282 -15z" />
    <glyph glyph-name="caron.alt" unicode="&#xe050;" horiz-adv-x="278" 
d="M163 545l145 99l39 -21v-5q-16 -9 -108.5 -72.5t-104.5 -72.5q-2 2 -87 59q-25 17 -97 61v5l77 35q35 -20 136 -88z" />
    <glyph glyph-name="ccedilla.alt" unicode="&#xe051;" horiz-adv-x="648" 
d="M628 443l-46 -93q-32 27 -87 53.5t-114 26.5q-52 0 -93 -21t-64.5 -54.5t-35.5 -71t-12 -76.5q0 -88 53 -136t134 -48q115 0 251 102l3 -3l-60 -123q-22 1 -131.5 -2.5t-123.5 -3.5q-70 0 -109.5 8.5t-73.5 36.5q-66 54 -66 160q0 51 13.5 93.5t35 69.5t38.5 42t34 25
q33 18 68.5 24t103.5 6q111 0 282 -15zM317 -225l-2 5q60 60 60 98q0 19 -13.5 36.5t-48.5 17.5q-54 0 -129 -49l-4 2l11 44q75 51 149 51q50 0 90.5 -26t40.5 -81q0 -57 -59 -106q-48 8 -95 8z" />
    <glyph glyph-name="cedilla.alt" unicode="&#xe052;" horiz-adv-x="278" 
d="M117 -205l-2 5q60 60 60 98q0 19 -13.5 36.5t-48.5 17.5q-54 0 -129 -49l-4 2l11 44q75 51 149 51q50 0 90.5 -26t40.5 -81q0 -57 -59 -106q-48 8 -95 8z" />
    <glyph glyph-name="cent.alt" unicode="&#xe053;" horiz-adv-x="685" 
d="M382 437v-406q75 3 136 36q80 44 119 73l4 -3l-80 -137q-105 0 -122 -1q-25 0 -57 1q0 -74 4 -105h-51q4 52 4 104q-40 -2 -46 -2q-12 -1 -32 -1q-98 0 -153.5 60t-55.5 151q0 109 79 176.5t208 79.5q3 46 -4 119h51q0 -9 -1.5 -57.5t-2.5 -56.5q95 16 151 16t113 -15
q-54 -48 -91 -85q-77 60 -173 53zM339 36v391q-64 -28 -95 -59q-65 -65 -65 -155q0 -71 44 -120t116 -57z" />
    <glyph glyph-name="circumflex.alt" unicode="&#xe054;" horiz-adv-x="278" 
d="M-16 462l-40 19v4q30 21 99 74l100 77q25 -17 98 -58t104 -54v-5l-75 -41q-97 50 -153 85z" />
    <glyph glyph-name="copyright.alt" unicode="&#xe055;" horiz-adv-x="769" 
d="M384 718q150 0 256.5 -106t106.5 -257q0 -150 -106 -256t-257 -106q-149 0 -255.5 106t-106.5 256q0 151 106.5 257t255.5 106zM384 668q-128 0 -220 -91.5t-92 -221.5q0 -129 91.5 -220.5t220.5 -91.5q130 0 221.5 91.5t91.5 220.5q0 130 -92 221.5t-221 91.5zM521 560
h24l4 -145h-27q-9 22 -15.5 35t-21.5 33.5t-37 30.5t-51 10q-36 0 -61.5 -17t-37.5 -46.5t-16.5 -58t-4.5 -61.5q0 -22 3 -43t13 -56t37.5 -56.5t68.5 -21.5q71 0 135 73l25 -22q-75 -91 -174 -91q-87 0 -152 60t-65 159q0 102 65.5 160.5t150.5 58.5q36 0 100 -22
q15 -5 20 -5q14 0 17 25z" />
    <glyph glyph-name="currency.alt" unicode="&#xe056;" horiz-adv-x="630" 
d="M69 170l66 66q-36 56 -36 119t36 119l-66 66l61 61l66 -66q57 36 119 36q58 0 120 -36l65 66l61 -61l-66 -66q36 -50 36 -120q0 -60 -36 -118l66 -66l-61 -61l-66 66q-55 -36 -118 -36q-66 0 -119 36l-67 -66zM315 479q-51 0 -87.5 -36t-36.5 -88t36.5 -88t87.5 -36
t87.5 36t36.5 88t-36.5 88t-87.5 36z" />
    <glyph glyph-name="d.alt" unicode="&#xe057;" horiz-adv-x="759" 
d="M-41 458l96 80l186 -26q288 -38 341 -54q38 -12 64.5 -35t39.5 -52t18.5 -55t5.5 -53q0 -48 -16.5 -93.5t-49 -85t-90 -63t-131.5 -23.5q-10 0 -60.5 -3t-58.5 -3q-100 0 -154 37q-87 60 -87 173q0 53 24 103.5t70 79.5q42 28 181 58q-134 12 -268 12q-9 0 -56 -0.5
t-55 -0.5v4zM401 433q-31 -3 -65 -18t-68 -42t-56 -72.5t-22 -100.5q0 -87 55 -132t117 -45q89 0 156.5 71t67.5 156q0 82 -60 135q-44 40 -125 48z" />
    <glyph glyph-name="dagger.alt" unicode="&#xe058;" horiz-adv-x="630" 
d="M597 501l4 -5l-47 -90q-48 6 -87 7q-7 0 -45.5 1t-45.5 2q0 -30 -1 -104.5t5 -173.5t19 -133l-4 -6q-40 4 -86 4q-37 0 -71 -4l-5 4q14 64 18 144q1 24 2.5 140.5t1.5 127.5q-8 0 -53.5 -0.5t-53.5 -1.5q-76 -6 -111 -12l-5 5l45 92q32 -8 178 -11q3 157 -17 218l4 4
q32 -4 65 -4q48 0 84 4l3 -4q-18 -62 -18 -218q151 2 221 14z" />
    <glyph glyph-name="daggerdbl.alt" unicode="&#xe059;" horiz-adv-x="630" 
d="M594 262l5 -3l-44 -92q-44 7 -177 9q6 -132 21 -172l-4 -5q-40 4 -86 4q-37 0 -71 -4l-5 3q13 60 19 176q-66 -2 -144 -5q-25 -1 -69 -6l-7 4l45 87q92 -9 176 -9q0 41 0.5 81t1 67.5t0.5 65.5q-59 0 -81 -1q-96 -4 -128 -9q-4 -2 -11 -2l-3 3l45 92q32 -8 178 -11
q0 5 -2.5 51.5t-3.5 55.5q-5 42 -11 63l4 4q56 -4 64 -4q49 0 84 4l4 -5q-9 -26 -13 -72q-5 -38 -5 -97q151 2 220 14l5 -5l-47 -90q-48 6 -87 7q-7 0 -45.5 0.5t-45.5 1.5q-1 -162 0 -214q168 4 218 13z" />
    <glyph glyph-name="degree.alt" unicode="&#xe05a;" horiz-adv-x="400" 
d="M200 718q68 0 115.5 -47.5t47.5 -114.5q0 -68 -47.5 -115.5t-115.5 -47.5t-115.5 47.5t-47.5 115.5t48 115t115 47zM200 632q-32 0 -54.5 -22.5t-22.5 -53.5q0 -32 22.5 -54.5t54.5 -22.5t54.5 22.5t22.5 54.5t-22.5 54t-54.5 22z" />
    <glyph glyph-name="dieresis.alt" unicode="&#xe05b;" horiz-adv-x="278" 
d="M176 513l-3 5q8 10 49 56.5t46 53.5q9 -6 38.5 -16t36.5 -11l3 -5q-44 -32 -108 -102q-34 14 -62 19zM-8 514l-3 4q80 88 95 110q34 -15 75 -27l3 -5q-71 -62 -108 -102q-16 8 -62 20z" />
    <glyph glyph-name="divide.alt" unicode="&#xe05c;" horiz-adv-x="704" 
d="M312 486q47 -23 150 -46l2 -6q-46 -44 -67 -89q-74 31 -154 44l-2 6q42 45 71 91zM312 121q47 -23 150 -46l2 -6q-46 -44 -67 -89q-74 31 -154 44l-2 6q42 45 71 91zM649 279l-56 -94q-74 11 -231 11q-155 0 -207.5 -3.5t-81.5 -12.5l-4 5l58 93q89 -8 253 -8
q196 0 265 14z" />
    <glyph glyph-name="dollar.alt" unicode="&#xe05d;" horiz-adv-x="741" 
d="M394 679v-266q105 10 133 10q66 0 100 -25q56 -39 56 -128q0 -74 -37.5 -134.5t-100.5 -96.5q-46 -27 -151 -40q0 -55 4 -103h-56q1 10 6 104l-83 -3q-21 -1 -38 -1q-95 0 -131 39q-30 34 -30 79q0 43 16 85q60 -2 144 6l4 -6q-23 -36 -23 -67q0 -39 33.5 -72t107.5 -30
v314q-8 0 -52.5 -1.5t-51.5 -1.5q-14 0 -30 1.5t-43.5 10t-47.5 22.5t-35.5 43t-15.5 67q0 23 6.5 49t25.5 57t48.5 55.5t80.5 41.5t116 18q0 64 -5 99h54q-3 -39 -4 -97q4 0 71 4h15.5t12 0.5t5.5 0.5q24 0 39 -1t42.5 -7t43.5 -17.5t29.5 -36t13.5 -58.5q0 -13 -2 -27
q-123 -1 -140 -3l-4 5q4 20 4 28q0 28 -17.5 49.5t-41.5 27.5q-25 6 -71 6zM348 411v263q-58 -12 -100.5 -59t-42.5 -106q0 -107 143 -98zM394 348v-313q67 15 110 77.5t43 132.5q0 105 -112 105q-13 0 -41 -2z" />
    <glyph glyph-name="dotaccent.alt" unicode="&#xe05e;" horiz-adv-x="278" 
d="M55 515l-2 4q80 88 95 110q40 -17 75 -27l3 -5q-71 -62 -108 -102q-16 8 -63 20z" />
    <glyph glyph-name="dotlessi.alt" unicode="&#xe05f;" horiz-adv-x="315" 
d="M232 458l2 -4q-12 -18 -15.5 -57.5t-3.5 -132.5v-77q0 -144 11 -186l-2 -4q-27 4 -72 4q-47 0 -70 -4l-3 4q23 79 23 247q0 101 -10.5 137t-50.5 63l1 4q81 -3 190 6z" />
    <glyph glyph-name="e.alt" unicode="&#xe060;" horiz-adv-x="667" 
d="M655 238l-41 -50q-16 0 -98.5 2t-96.5 2q-39 1 -247 1q-4 -72 50 -119.5t126 -47.5q39 0 91.5 21t82 38.5t75.5 47.5l4 -3q-22 -37 -84 -130q-9 0 -55.5 -1t-54.5 -1q-66 0 -84 -2q-74 -6 -78 -6q-55 0 -95.5 20t-61 52t-29.5 64t-9 64q0 47 16 96.5t61 98t112 63.5
q22 5 45 7.5t60 3.5t46 2l60 4q74 0 112 -29q40 -30 40 -78q0 -89 -159 -132q130 0 210 16zM173 215q79 3 127.5 11t98.5 30q43 20 62 48t19 53q0 33 -23.5 55t-58.5 22q-17 0 -40.5 -6t-54 -21.5t-57 -39t-47.5 -63.5t-26 -89z" />
    <glyph glyph-name="eacute.alt" unicode="&#xe061;" horiz-adv-x="667" 
d="M655 238l-41 -50q-16 0 -98.5 2t-96.5 2q-39 1 -247 1q-4 -72 50 -119.5t126 -47.5q39 0 91.5 21t82 38.5t75.5 47.5l4 -3q-22 -37 -84 -130q-9 0 -55.5 -1t-54.5 -1q-66 0 -84 -2q-74 -6 -78 -6q-55 0 -95.5 20t-61 52t-29.5 64t-9 64q0 47 16 96.5t61 98t112 63.5
q22 5 45 7.5t60 3.5t46 2l60 4q74 0 112 -29q40 -30 40 -78q0 -89 -159 -132q130 0 210 16zM173 215q79 3 127.5 11t98.5 30q43 20 62 48t19 53q0 33 -23.5 55t-58.5 22q-17 0 -40.5 -6t-54 -21.5t-57 -39t-47.5 -63.5t-26 -89zM277 498l-43 35l7 6q52 44 96.5 75.5
t60.5 44.5l90 -39v-4z" />
    <glyph glyph-name="ecircumflex.alt" unicode="&#xe062;" horiz-adv-x="667" 
d="M655 238l-41 -50q-16 0 -98.5 2t-96.5 2q-39 1 -247 1q-4 -72 50 -119.5t126 -47.5q39 0 91.5 21t82 38.5t75.5 47.5l4 -3q-22 -37 -84 -130q-9 0 -55.5 -1t-54.5 -1q-66 0 -84 -2q-74 -6 -78 -6q-55 0 -95.5 20t-61 52t-29.5 64t-9 64q0 47 16 96.5t61 98t112 63.5
q22 5 45 7.5t60 3.5t46 2l60 4q74 0 112 -29q40 -30 40 -78q0 -89 -159 -132q130 0 210 16zM173 215q79 3 127.5 11t98.5 30q43 20 62 48t19 53q0 33 -23.5 55t-58.5 22q-17 0 -40.5 -6t-54 -21.5t-57 -39t-47.5 -63.5t-26 -89zM179 486l-40 19v4q30 21 99 74l100 77
q25 -17 98 -58t104 -54v-5l-75 -41q-97 50 -153 85z" />
    <glyph glyph-name="edieresis.alt" unicode="&#xe063;" horiz-adv-x="667" 
d="M655 238l-41 -50q-16 0 -98.5 2t-96.5 2q-39 1 -247 1q-4 -72 50 -119.5t126 -47.5q39 0 91.5 21t82 38.5t75.5 47.5l4 -3q-22 -37 -84 -130q-9 0 -55.5 -1t-54.5 -1q-66 0 -84 -2q-74 -6 -78 -6q-55 0 -95.5 20t-61 52t-29.5 64t-9 64q0 47 16 96.5t61 98t112 63.5
q22 5 45 7.5t60 3.5t46 2l60 4q74 0 112 -29q40 -30 40 -78q0 -89 -159 -132q130 0 210 16zM173 215q79 3 127.5 11t98.5 30q43 20 62 48t19 53q0 33 -23.5 55t-58.5 22q-17 0 -40.5 -6t-54 -21.5t-57 -39t-47.5 -63.5t-26 -89zM371 537l-3 5q8 10 49 56.5t46 53.5
q9 -6 38.5 -16t36.5 -11l3 -5q-44 -32 -108 -102q-34 14 -62 19zM187 538l-3 4q80 88 95 110q34 -15 75 -27l3 -5q-71 -62 -108 -102q-16 8 -62 20z" />
    <glyph glyph-name="egrave.alt" unicode="&#xe064;" horiz-adv-x="667" 
d="M655 238l-41 -50q-16 0 -98.5 2t-96.5 2q-39 1 -247 1q-4 -72 50 -119.5t126 -47.5q39 0 91.5 21t82 38.5t75.5 47.5l4 -3q-22 -37 -84 -130q-9 0 -55.5 -1t-54.5 -1q-66 0 -84 -2q-74 -6 -78 -6q-55 0 -95.5 20t-61 52t-29.5 64t-9 64q0 47 16 96.5t61 98t112 63.5
q22 5 45 7.5t60 3.5t46 2l60 4q74 0 112 -29q40 -30 40 -78q0 -89 -159 -132q130 0 210 16zM173 215q79 3 127.5 11t98.5 30q43 20 62 48t19 53q0 33 -23.5 55t-58.5 22q-17 0 -40.5 -6t-54 -21.5t-57 -39t-47.5 -63.5t-26 -89zM373 500l-208 115v6l87 38l171 -128z" />
    <glyph glyph-name="eight.alt" unicode="&#xe065;" horiz-adv-x="556" 
d="M387 260q108 -22 108 -117q0 -15 -4 -31t-16.5 -39t-42 -41.5t-73.5 -26.5q-17 -3 -75.5 -9t-82.5 -6q-66 0 -100 30.5t-34 76.5q0 27 8.5 47t28.5 35.5t33.5 23t43.5 20.5q-136 23 -136 140q0 53 35.5 99t117.5 62l24 4q24 3 49 7t54.5 7t43.5 3q73 0 112 -34
q38 -35 38 -94q0 -104 -132 -157zM281 508q-45 0 -81 -37t-36 -89q0 -44 28 -77.5t86 -33.5q52 0 90.5 33t38.5 88q0 15 -4.5 32t-16.5 37.5t-39.5 33.5t-65.5 13zM275 222q-39 0 -67.5 -30.5t-28.5 -72.5q0 -40 25.5 -67.5t67.5 -27.5q48 0 76 32t28 75q0 42 -27 68
q-25 23 -74 23z" />
    <glyph glyph-name="equal.alt" unicode="&#xe066;" horiz-adv-x="704" 
d="M649 179l-56 -94q-74 11 -231 11q-155 0 -207.5 -3.5t-81.5 -12.5l-4 5l58 93q89 -8 253 -8q196 0 265 14zM649 379l-56 -94q-74 11 -231 11q-155 0 -207.5 -3.5t-81.5 -12.5l-4 5l58 93q89 -8 253 -8q196 0 265 14z" />
    <glyph glyph-name="eth.alt" unicode="&#xe067;" horiz-adv-x="704" 
d="M177 217q0 -81 51 -134.5t117 -53.5q64 0 122 60.5t58 151.5q0 76 -45.5 117.5t-120.5 41.5q-81 0 -129 -45q-53 -47 -53 -138zM586 630l-165 -50l82 -80q81 -78 115.5 -132t34.5 -125q0 -19 -3 -39.5t-17 -54.5t-37 -61t-69.5 -50.5t-108.5 -30.5q-58 -7 -74 -10
q-38 -7 -70 -7q-96 0 -161 67t-65 166q0 59 23.5 105t61 71t76.5 37.5t76 12.5q76 0 166 -39q-65 78 -144 136l-177 -54l-45 42l164 49q-109 58 -183 74v6l270 4l45 -45l161 48z" />
    <glyph glyph-name="f.alt" unicode="&#xe068;" horiz-adv-x="574" 
d="M571 79l2 -1q-1 -2 -2 -5.5t-5.5 -13t-9.5 -22.5q-12 -29 -16 -41q-90 5 -218 5q-96 0 -106 1q3 -166 8 -219q-68 0 -120 -7q8 121 8 225q-63 0 -74 -1q-27 0 -63 -4l-2 4q3 5 12.5 31t11.5 32q46 -3 114 -3q2 16 0.5 99t-4.5 136q0 8 -4.5 62t-4.5 62q0 31 33 47
q29 13 63 13q16 0 26 -1q5 0 13.5 -1t11.5 -1q6 0 22 10q73 51 147 51q70 0 168 -43l-54 -88q-43 27 -104 42q-52 13 -98 13q-31 0 -51 -6.5t-29.5 -19.5t-13 -23.5t-5.5 -28.5q-12 -82 -9 -323q187 1 229 4q83 5 124 15z" />
    <glyph glyph-name="f_i.alt" unicode="&#xe06a;" horiz-adv-x="776" 
d="M690 2l-4 -3q-70 5 -72 5q-28 0 -71 -5l-3 3q12 49 17 110q8 100 8 159q0 75 -6.5 100t-26.5 45q-2 1 -10.5 8l-15.5 13t-9 8l1 5q16 1 93.5 10t97.5 13q-11 -103 -11 -288q0 -123 12 -183zM743 651v-4q-10 -7 -29.5 -19l-33.5 -21l-20 -13q-39 -29 -50 -36l-64 19l-1 4
q22 22 54 51l59 52zM230 90h104q108 0 141 7l3 -3l-35 -58q-101 3 -213 3q-1 -25 3 -239q-66 -6 -135 -21l-3 3q27 119 27 257q-6 0 -39 -1t-39 -2q-23 -2 -38 -8l-4 4l27 59q18 -1 93 -1q1 25 -0.5 109.5t-3.5 163.5t-2 81q0 71 13 91.5t56 20.5q26 0 67 -10q23 -5 27 -5
q6 0 52 19q38 16 63 16q27 0 54.5 -11t42.5 -23.5t15 -19.5q0 -6 -33 -48q-15 -19 -21 -19t-16 10q-57 59 -99 59q-6 0 -13 -1.5t-20 -9t-24 -20.5t-21.5 -39.5t-16.5 -62.5q-12 -74 -12 -301z" />
    <glyph glyph-name="f_l.alt" unicode="&#xe06b;" horiz-adv-x="801" 
d="M799 73l-33 -73q-40 -3 -94 4q-6 1 -34 9t-31 9q-40 -10 -80 -37l-14 8q22 112 22 391q0 197 -12 248q-7 27 -22 46l4 5l166 20l5 -4q-14 -50 -23 -196q-6 -102 -6 -244q0 -136 8 -172q6 -25 44 -25q37 0 96 15zM230 90h104q108 0 141 7l3 -3l-35 -58q-101 3 -213 3
q-1 -25 3 -239q-66 -6 -135 -21l-3 3q27 119 27 257q-6 0 -39 -1t-39 -2q-23 -2 -38 -8l-4 4l27 59q18 -1 93 -1q1 25 -0.5 109.5t-3.5 163.5t-2 81q0 71 13 91.5t56 20.5q26 0 67 -10q23 -5 27 -5q6 0 52 19q38 16 63 16q27 0 54.5 -11t42.5 -23.5t15 -19.5q0 -6 -33 -48
q-15 -19 -21 -19t-16 10q-57 59 -99 59q-6 0 -13 -1.5t-20 -9t-24 -20.5t-21.5 -39.5t-16.5 -62.5q-12 -74 -12 -301z" />
    <glyph glyph-name="five.alt" unicode="&#xe06c;" horiz-adv-x="574" 
d="M400 462l143 -197h-126l-92 133q-62 -87 -111 -171q30 3 38 3q68 0 110.5 -34.5t42.5 -92.5q0 -18 -5 -37.5t-21.5 -46t-43.5 -46.5t-75.5 -34t-112.5 -14q-44 0 -99 10l-22 87l4 3q67 -49 129 -49q55 0 87 33t32 79q0 39 -31.5 69.5t-97.5 30.5q-47 0 -90 -16l-4 4
q32 37 97.5 138.5t87.5 140.5z" />
    <glyph glyph-name="florin.alt" unicode="&#xe06d;" horiz-adv-x="667" 
d="M111 -220l-4 5q17 41 26.5 79.5t31.5 159.5q2 13 19.5 117.5l27.5 160.5q-101 3 -138 -10l-5 5q10 15 35 60q45 -3 116 -3l27 212q11 91 22 115.5t46 24.5q21 0 63 -12l14 -4q14 -4 15 -4q3 0 15 4.5l26 10t18 6.5q36 12 56 12q24 0 48 -11.5t37 -23t13 -15.5
q0 -6 -25.5 -35t-34.5 -29q-10 0 -26 19q-10 13 -29.5 28.5t-38.5 15.5q-26 0 -49.5 -24t-36.5 -75q-5 -19 -22 -114t-18 -101q27 -2 89 1t82 9l5 -4q-22 -22 -38 -59q-124 3 -147 1q-41 -225 -58 -337q-15 -100 -17 -166q-74 3 -145 -19z" />
    <glyph glyph-name="four.alt" unicode="&#xe06e;" horiz-adv-x="574" 
d="M446 462l4 -4q-13 -60 -24 -384q114 3 152 10l4 -4l-31 -80q-57 4 -125 4v-151q-27 5 -59 5q-33 0 -63 -5l-5 5q14 60 18 146q-265 0 -324 -4l-6 11q61 63 119 141t153 218q6 8 31.5 47.5t29.5 44.5q24 -2 69 -2q31 0 57 2zM123 74h197l8 294z" />
    <glyph glyph-name="fraction.alt" unicode="&#xe06f;" horiz-adv-x="167" 
d="M-80 -18h-83l-4 4l72 120.5l77 129.5l165.5 302.5t97.5 189.5h86l4 -6q-46 -65 -183 -305t-232 -435z" />
    <glyph glyph-name="g.alt" unicode="&#xe070;" horiz-adv-x="667" 
d="M656 442l-66 -84q-31 25 -87 49.5t-103 24.5q-22 0 -49.5 -6.5t-60 -23.5t-59 -41t-44 -62.5t-17.5 -85.5q0 -89 59 -140t128 -51q52 0 97 31.5t45 87.5q0 23 -9.5 39t-24.5 23.5t-27 10t-23 2.5q-55 0 -91 -40l-5 3q20 32 34 49.5t47 36t76 18.5q57 0 101 -34.5
t44 -98.5q0 -14 -3 -28.5t-13 -38.5t-37 -44t-67 -30q-55 -15 -131 -15q-3 0 -16.5 1t-18.5 0q-25 -5 -85 -5q-77 0 -138.5 55.5t-61.5 161.5q0 92 50 160t146 84q62 10 130 10q4 0 27 -1t27 -1q6 0 21 2t16 2q27 2 56 2q83 0 133 -23z" />
    <glyph glyph-name="germandbls.alt" unicode="&#xe071;" horiz-adv-x="704" 
d="M696 659l12 -78q-27 10 -53 10q-33 0 -57.5 -17.5t-37 -44t-18.5 -52t-6 -47.5q0 -63 38 -117q50 -68 59 -84.5t9 -35.5q0 -29 -18 -63t-51 -66t-88 -53t-120 -21q-53 0 -96 10l21 90h9q19 -25 35 -40q27 -24 54 -24q41 0 74.5 45t33.5 104q0 33 -9.5 54.5t-43.5 74.5
q-31 49 -31 101q0 94 97 175q-20 27 -52 43t-48 18t-28 2q-44 0 -86 -25t-60 -69q-15 -35 -22 -91.5t-7 -198.5q0 -186 13 -256l-4 -3q-42 3 -69 3q-40 0 -61 -3l-5 3q15 62 15 294q0 25 -1 90.5t-1 91.5q0 62 6.5 94.5t33.5 59.5q46 46 153 46q33 0 89 -4l14 -1l16 1
q25 2 51.5 3.5t38.5 2.5t14 1q34 0 57.5 -8.5t30.5 -15.5t16 -19q19 8 83 20z" />
    <glyph glyph-name="grave.alt" unicode="&#xe072;" horiz-adv-x="278" 
d="M178 476l-208 115v6l87 38l171 -128z" />
    <glyph glyph-name="greater.alt" unicode="&#xe073;" horiz-adv-x="593" 
d="M556 207l-519 -200v113l382 140l-382 140v112l519 -200v-105z" />
    <glyph glyph-name="h.alt" unicode="&#xe074;" horiz-adv-x="778" 
d="M724 63l3 -3l-42 -60h-193q-67 0 -125 1.5t-67 1.5q-18 0 -34 -3v9q140 18 228.5 91t88.5 184q0 66 -38.5 106.5t-94.5 40.5q-28 0 -60 -12t-73 -48.5t-74 -92.5q-51 -88 -51 -244q0 -25 1 -34q-55 4 -71 4q-30 0 -52 -4l-3 4q17 47 24 132q18 211 18 362q0 50 -5.5 80
t-25.5 56l3 4q49 1 152 7q-11 -81 -19 -258q76 48 166 62q84 14 128 14q102 0 152 -47t50 -128q0 -169 -203 -251q65 0 150 13q4 0 67 13z" />
    <glyph glyph-name="hungarumlaut.alt" unicode="&#xe075;" horiz-adv-x="278" 
d="M191 474l-43 35l7 6q52 44 96.5 75.5t60.5 44.5l90 -39v-4zM-29 474l-43 35l7 6q52 44 96.5 75.5t60.5 44.5l90 -39v-4z" />
    <glyph glyph-name="i.alt" unicode="&#xe076;" horiz-adv-x="315" 
d="M286 552v-4q-35 -12 -176 -70q-36 15 -62 24v4l168 76zM232 458l2 -4q-12 -18 -15.5 -57.5t-3.5 -132.5v-77q0 -144 11 -186l-2 -4q-27 4 -72 4q-47 0 -70 -4l-3 4q23 79 23 247q0 101 -10.5 137t-50.5 63l1 4q81 -3 190 6z" />
    <glyph glyph-name="iacute.alt" unicode="&#xe077;" horiz-adv-x="315" 
d="M232 458l2 -4q-12 -18 -15.5 -57.5t-3.5 -132.5v-77q0 -144 11 -186l-2 -4q-27 4 -72 4q-47 0 -70 -4l-3 4q23 79 23 247q0 101 -10.5 137t-50.5 63l1 4q81 -3 190 6zM101 498l-43 35l7 6q52 44 96.5 75.5t60.5 44.5l90 -39v-4z" />
    <glyph glyph-name="icircumflex.alt" unicode="&#xe078;" horiz-adv-x="315" 
d="M232 458l2 -4q-12 -18 -15.5 -57.5t-3.5 -132.5v-77q0 -144 11 -186l-2 -4q-27 4 -72 4q-47 0 -70 -4l-3 4q23 79 23 247q0 101 -10.5 137t-50.5 63l1 4q81 -3 190 6zM3 486l-40 19v4q30 21 99 74l100 77q25 -17 98 -58t104 -54v-5l-75 -41q-97 50 -153 85z" />
    <glyph glyph-name="idieresis.alt" unicode="&#xe079;" horiz-adv-x="315" 
d="M232 458l2 -4q-12 -18 -15.5 -57.5t-3.5 -132.5v-77q0 -144 11 -186l-2 -4q-27 4 -72 4q-47 0 -70 -4l-3 4q23 79 23 247q0 101 -10.5 137t-50.5 63l1 4q81 -3 190 6zM195 537l-3 5q8 10 49 56.5t46 53.5q9 -6 38.5 -16t36.5 -11l3 -5q-44 -32 -108 -102q-34 14 -62 19z
M11 538l-3 4q80 88 95 110q34 -15 75 -27l3 -5q-71 -62 -108 -102q-16 8 -62 20z" />
    <glyph glyph-name="igrave.alt" unicode="&#xe07a;" horiz-adv-x="315" 
d="M232 458l2 -4q-12 -18 -15.5 -57.5t-3.5 -132.5v-77q0 -144 11 -186l-2 -4q-27 4 -72 4q-47 0 -70 -4l-3 4q23 79 23 247q0 101 -10.5 137t-50.5 63l1 4q81 -3 190 6zM197 500l-208 115v6l87 38l171 -128z" />
    <glyph glyph-name="j.alt" unicode="&#xe07b;" horiz-adv-x="556" 
d="M484 455l3 -4q-22 -37 -22 -126v-187q-4 -125 -141 -141q-46 -6 -141 -6q-42 0 -70.5 12.5t-39 32t-13.5 31.5t-3 24q0 28 25 80l98 31l3 -4q-33 -46 -33 -83q0 -42 27 -70.5t48 -28.5t56.5 24t53.5 60q23 43 23 160q0 104 -7 144q-108 0 -262 -16l-4 4l41 63
q23 0 108 -1l113 -1h92q28 0 45 2z" />
    <glyph glyph-name="k.alt" unicode="&#xe07c;" horiz-adv-x="648" 
d="M627 452v-7q-39 -12 -91 -50q-19 -14 -109 -86.5t-101 -80.5q39 -27 148 -122q67 -58 98.5 -75t76.5 -24v-7h-215q-14 11 -77 67.5t-68 60.5q-45 38 -86 63q1 -9 1.5 -52.5t2 -81.5t4.5 -46q0 -1 0.5 -3.5t1.5 -3.5l-4 -4q-24 3 -73 3q-39 0 -60 -3l-4 4q17 52 20 111
q4 128 4 254q0 221 -24 265l4 5q9 -1 142 6q-12 -70 -14 -323l-1 -98v-11q100 52 294 239h130z" />
    <glyph glyph-name="l.alt" unicode="&#xe07d;" horiz-adv-x="426" 
d="M67 -12l-3 4q38 71 38 388q0 135 -8 202q-3 25 -13 52v4l148 8q-23 -174 -23 -477q0 -67 3 -112q91 -1 190 21l4 -4l-59 -106l-11 7q7 14 7 20q0 12 -78 12q-126 0 -195 -19z" />
    <glyph glyph-name="less.alt" unicode="&#xe07e;" horiz-adv-x="593" 
d="M37 207v105l519 200v-112l-382 -140l382 -140v-113z" />
    <glyph glyph-name="logicalnot.alt" unicode="&#xe07f;" horiz-adv-x="593" 
d="M37 318v101h519v-320h-103v219h-416z" />
    <glyph glyph-name="lslash.alt" unicode="&#xe080;" horiz-adv-x="426" 
d="M67 -12l-3 4q32 60 37 309l-61 -33v66l62 33v13q0 135 -8 202q-3 25 -13 52v4l148 8q-14 -108 -17 -220l122 66v-66l-125 -67q-3 -80 -3 -190q0 -67 3 -112q91 -1 190 21l4 -4l-59 -106l-11 7q7 14 7 20q0 12 -78 12q-126 0 -195 -19z" />
    <glyph glyph-name="m.alt" unicode="&#xe081;" horiz-adv-x="1167" 
d="M208 454l6 -55q9 8 19.5 15t18.5 11.5t22.5 9t20.5 6.5t23 4.5l20.5 3t23 2.5t20.5 2q38 12 106 12q60 0 82 -20.5t27 -60.5q21 20 38.5 32t64.5 27t107 15q10 0 34 2q14 2 67 2q80 0 133.5 -49.5t53.5 -132.5q0 -99 -75 -172q-18 -18 -40 -32t-35 -20.5t-44 -19.5
q48 1 109.5 10.5t87.5 16.5l3 -4l-41 -61q-32 2 -268 2q-74 0 -137 -2l2 8q122 11 217 87t95 180q0 50 -27.5 88.5t-59 54.5t-55.5 16q-39 0 -90 -39q-69 -52 -100 -115.5t-41 -143.5q-11 -83 -9 -132l-2 -4q-15 3 -54 3q-45 0 -64 -3l-3 4q10 35 21 111.5t11 131.5
q0 56 -12 98.5t-51 69.5q-21 15 -42 15q-32 0 -81 -41t-76 -97q-28 -59 -35 -149t-4 -139l-4 -4q-56 3 -72 3t-49 -3l-3 3q16 51 20 93q12 100 12 208q0 106 -38 142l2 3z" />
    <glyph glyph-name="macron.alt" unicode="&#xe082;" horiz-adv-x="278" 
d="M341 579l-49 -74q-56 -2 -102 -2q-133 0 -166 -1t-53 -7l-4 4l48 72q32 2 88 2q196 0 217 3q9 2 17 7z" />
    <glyph glyph-name="minus.alt" unicode="&#xe083;" horiz-adv-x="704" 
d="M649 279l-56 -94q-74 11 -231 11q-155 0 -207.5 -3.5t-81.5 -12.5l-4 5l58 93q89 -8 253 -8q196 0 265 14z" />
    <glyph glyph-name="mu.alt" unicode="&#xe084;" horiz-adv-x="593" 
d="M456 453v-325q0 -35 4.5 -53.5t10.5 -23.5t16 -5q38 0 38 92h29q0 -17 -1 -26.5t-3.5 -30.5t-9 -34t-16.5 -28t-27.5 -22.5t-40.5 -7.5q-25 0 -43 10.5t-27.5 24t-15.5 36t-7.5 35t-2.5 33.5q-41 -138 -132 -138q-54 0 -85 54q1 -10 7.5 -56t7.5 -50q11 -74 11 -99
q0 -30 -11 -47.5t-21 -21t-19 -3.5q-48 0 -48 78q0 16 5 89.5t5 79.5q3 43 3 141v298h102v-285q0 -32 1 -48t6 -37.5t18.5 -31t34.5 -9.5q45 0 77 67.5t32 177.5v166h102z" />
    <glyph glyph-name="multiply.alt" unicode="&#xe085;" horiz-adv-x="704" 
d="M634 8l-2 -5q-30 4 -75 4q-65 0 -95 -4q-16 24 -61 80t-65 77q-27 -23 -84 -80.5t-71 -76.5q-26 4 -75 4q-41 0 -59 -4l-3 5l245 204q-111 123 -237 243l2 5q12 0 40 -1.5t41 -1.5t45.5 1.5t41.5 1.5q60 -82 147 -175q92 82 175 175q9 0 31.5 -1.5t30.5 -1.5q40 0 65 3
l3 -5q-4 -4 -62.5 -53l-119 -100.5t-77.5 -68.5q1 -1 25 -26.5l53 -56l69 -71.5z" />
    <glyph glyph-name="n.alt" unicode="&#xe086;" horiz-adv-x="796" 
d="M207 454l9 -62q30 26 90 45.5t126 18.5q6 0 40 2.5t40 2.5q60 0 90 -6.5t58 -27.5q65 -49 65 -143q0 -50 -17.5 -92.5t-39 -67.5t-53.5 -46t-48.5 -28.5t-36.5 -14.5q43 1 100 8q54 7 97 19l4 -3l-40 -61h-91h-319l2 8q145 17 231 94.5t86 176.5q0 67 -45.5 111
t-111.5 44q-22 0 -50.5 -10t-64.5 -37.5t-65.5 -69.5t-50 -114.5t-20.5 -162.5q0 -23 2 -36l-3 -4q-57 3 -77 3q-22 0 -45 -3l-3 3q14 37 22 104q11 85 11 191q0 113 -38 148l2 3z" />
    <glyph glyph-name="nine.alt" unicode="&#xe087;" horiz-adv-x="648" 
d="M140 -120l-136 81v6q59 1 117 8.5t123 27.5t113.5 50t80.5 80t32 113q0 74 -43 123.5t-111 49.5q-61 0 -98 -44t-37 -99q0 -64 44 -109t112 -45q28 0 63 10l3 -7q-83 -50 -159 -50q-81 0 -133 50t-52 121q0 45 20 81t55 58.5t72.5 36.5t82.5 23q6 1 29 6.5t40.5 8
t35.5 2.5q94 0 147.5 -61t53.5 -142q0 -140 -167 -251q-113 -74 -288 -128z" />
    <glyph glyph-name="ntilde.alt" unicode="&#xe088;" horiz-adv-x="796" 
d="M207 454l9 -62q30 26 90 45.5t126 18.5q6 0 40 2.5t40 2.5q60 0 90 -6.5t58 -27.5q65 -49 65 -143q0 -50 -17.5 -92.5t-39 -67.5t-53.5 -46t-48.5 -28.5t-36.5 -14.5q43 1 100 8q54 7 97 19l4 -3l-40 -61h-91h-319l2 8q145 17 231 94.5t86 176.5q0 67 -45.5 111
t-111.5 44q-22 0 -50.5 -10t-64.5 -37.5t-65.5 -69.5t-50 -114.5t-20.5 -162.5q0 -23 2 -36l-3 -4q-57 3 -77 3q-22 0 -45 -3l-3 3q14 37 22 104q11 85 11 191q0 113 -38 148l2 3zM567 648l21 -11q-19 -45 -60 -91q-25 -27 -51 -27q-19 0 -93 25q-49 17 -75 17
q-14 0 -25.5 -7.5t-19 -16.5t-22.5 -31l-23 11q2 3 4 7.5t9 16.5l17 30q37 67 82 67q25 0 88 -22q60 -21 82 -21q19 0 37 18q1 0 5.5 6l12 15.5t11.5 13.5z" />
    <glyph glyph-name="numbersign.alt" unicode="&#xe089;" horiz-adv-x="632" 
d="M200 0h-100l35 193h-86v85h102l26 142h-86v86h102l36 195h100l-36 -195h108l36 195h100l-36 -195h86l1 -86h-103l-26 -142h87v-85h-103l-35 -193h-101l36 193h-108zM251 278h108l26 142h-108z" />
    <glyph glyph-name="o.alt" unicode="&#xe08a;" 
d="M355 458q6 0 20 2t31 3t34 1q107 0 163 -47q72 -60 72 -172q0 -26 -5.5 -53t-18 -58.5t-39 -60t-64.5 -47.5q-52 -27 -162 -27q-17 0 -30 -2q-37 -7 -79 -7q-62 0 -108 19.5t-71 52.5t-37 69.5t-12 76.5q0 77 40 140t117 89q46 16 149 21zM551 252q0 71 -52 125.5
t-131 54.5q-13 0 -34.5 -7t-50 -23.5t-52.5 -40.5t-41 -63t-17 -85q0 -50 21 -88.5t52.5 -58.5t59.5 -30t49 -10q25 0 55.5 12t63.5 36.5t55 71t22 106.5z" />
    <glyph glyph-name="oacute.alt" unicode="&#xe08b;" 
d="M355 458q6 0 20 2t31 3t34 1q107 0 163 -47q72 -60 72 -172q0 -26 -5.5 -53t-18 -58.5t-39 -60t-64.5 -47.5q-52 -27 -162 -27q-17 0 -30 -2q-37 -7 -79 -7q-62 0 -108 19.5t-71 52.5t-37 69.5t-12 76.5q0 77 40 140t117 89q46 16 149 21zM551 252q0 71 -52 125.5
t-131 54.5q-13 0 -34.5 -7t-50 -23.5t-52.5 -40.5t-41 -63t-17 -85q0 -50 21 -88.5t52.5 -58.5t59.5 -30t49 -10q25 0 55.5 12t63.5 36.5t55 71t22 106.5zM304 498l-43 35l7 6q52 44 96.5 75.5t60.5 44.5l90 -39v-4z" />
    <glyph glyph-name="ocircumflex.alt" unicode="&#xe08c;" 
d="M355 458q6 0 20 2t31 3t34 1q107 0 163 -47q72 -60 72 -172q0 -26 -5.5 -53t-18 -58.5t-39 -60t-64.5 -47.5q-52 -27 -162 -27q-17 0 -30 -2q-37 -7 -79 -7q-62 0 -108 19.5t-71 52.5t-37 69.5t-12 76.5q0 77 40 140t117 89q46 16 149 21zM551 252q0 71 -52 125.5
t-131 54.5q-13 0 -34.5 -7t-50 -23.5t-52.5 -40.5t-41 -63t-17 -85q0 -50 21 -88.5t52.5 -58.5t59.5 -30t49 -10q25 0 55.5 12t63.5 36.5t55 71t22 106.5zM206 486l-40 19v4q30 21 99 74l100 77q25 -17 98 -58t104 -54v-5l-75 -41q-97 50 -153 85z" />
    <glyph glyph-name="odieresis.alt" unicode="&#xe08d;" 
d="M355 458q6 0 20 2t31 3t34 1q107 0 163 -47q72 -60 72 -172q0 -26 -5.5 -53t-18 -58.5t-39 -60t-64.5 -47.5q-52 -27 -162 -27q-17 0 -30 -2q-37 -7 -79 -7q-62 0 -108 19.5t-71 52.5t-37 69.5t-12 76.5q0 77 40 140t117 89q46 16 149 21zM551 252q0 71 -52 125.5
t-131 54.5q-13 0 -34.5 -7t-50 -23.5t-52.5 -40.5t-41 -63t-17 -85q0 -50 21 -88.5t52.5 -58.5t59.5 -30t49 -10q25 0 55.5 12t63.5 36.5t55 71t22 106.5zM398 537l-3 5q8 10 49 56.5t46 53.5q9 -6 38.5 -16t36.5 -11l3 -5q-44 -32 -108 -102q-34 14 -62 19zM214 538l-3 4
q80 88 95 110q34 -15 75 -27l3 -5q-71 -62 -108 -102q-16 8 -62 20z" />
    <glyph glyph-name="oe.alt" unicode="&#xe08e;" horiz-adv-x="1148" 
d="M1134 242v-5l-39 -49q-49 3 -249 3h-187q0 -81 50 -123t118 -42q95 0 251 108l4 -3l-84 -131h-77q-46 0 -77 -3q-5 0 -53.5 -4t-57.5 -4q-104 0 -151 79q-17 -18 -31 -29t-56 -25t-96 -14q-10 0 -62.5 -5t-61.5 -5q-110 0 -168 61t-58 156q0 28 5 55.5t21 61t41.5 59.5
t70.5 46t104 26q6 1 69 5.5t80 4.5q124 0 179 -89q36 42 84.5 63t136.5 21q29 0 37 1q30 4 56 4q46 0 78 -11.5t46.5 -29.5t20.5 -33.5t6 -30.5q0 -24 -12 -45t-26.5 -33.5t-40.5 -25.5t-40.5 -18t-40.5 -13q172 8 210 17zM364 431q-20 0 -50 -13t-63 -37.5t-56.5 -68.5
t-23.5 -98q0 -38 13 -70.5t33 -53.5t44.5 -36t47.5 -21.5t42 -6.5q29 0 61 13t63 37.5t51.5 69t20.5 99.5q0 88 -52.5 137t-130.5 49zM660 216q16 -2 47.5 0t76 10.5t83.5 23.5t66.5 43t27.5 65t-26 56.5t-58 19.5q-67 0 -137 -61q-42 -36 -57.5 -73t-22.5 -84z" />
    <glyph glyph-name="ogonek.alt" unicode="&#xe08f;" horiz-adv-x="278" 
d="M450 -118l-11 -44q-75 -51 -149 -51q-50 0 -90.5 26t-40.5 81q0 57 59 106q48 -8 95 -8l2 -5q-60 -60 -60 -98q0 -19 13.5 -36.5t48.5 -17.5q54 0 129 49z" />
    <glyph glyph-name="ograve.alt" unicode="&#xe090;" 
d="M355 458q6 0 20 2t31 3t34 1q107 0 163 -47q72 -60 72 -172q0 -26 -5.5 -53t-18 -58.5t-39 -60t-64.5 -47.5q-52 -27 -162 -27q-17 0 -30 -2q-37 -7 -79 -7q-62 0 -108 19.5t-71 52.5t-37 69.5t-12 76.5q0 77 40 140t117 89q46 16 149 21zM551 252q0 71 -52 125.5
t-131 54.5q-13 0 -34.5 -7t-50 -23.5t-52.5 -40.5t-41 -63t-17 -85q0 -50 21 -88.5t52.5 -58.5t59.5 -30t49 -10q25 0 55.5 12t63.5 36.5t55 71t22 106.5zM400 500l-208 115v6l87 38l171 -128z" />
    <glyph glyph-name="one.alt" unicode="&#xe091;" horiz-adv-x="482" 
d="M337 476l7 -7q-17 -51 -25 -209t-5 -207q74 0 137 6l-24 -59q-125 4 -162 4q-145 0 -217 -4l21 59q62 -9 124 -6q1 10 5 61.5t4 60.5q7 138 5 232q-27 -1 -78.5 -10t-75.5 -17l-5 5l21 62q184 6 268 29z" />
    <glyph glyph-name="one.superioralt" unicode="&#xe092;" horiz-adv-x="346" 
d="M340 329l-16 -45q-100 2 -149 2q-137 0 -172 -2l14 45q30 -4 102 -4q0 17 4.5 116t4.5 107q0 82 -5 112q-17 0 -30 -2q-5 0 -38 -5l-40 -6l-3 4l15 39q155 9 209 20l7 -5q-18 -66 -18 -269q0 -75 5 -111q10 0 53 2t51 2h6z" />
    <glyph glyph-name="onehalf.alt" unicode="&#xe093;" horiz-adv-x="940" 
d="M938 69l2 -4l-42 -69q-128 4 -229 4q-51 0 -207 -4l-2 6q127 48 210.5 117t97.5 116q-31 -17 -71.5 -31.5t-65.5 -14.5q-47 0 -78.5 31.5t-31.5 74.5q0 53 43 85.5t95 37.5q75 10 92 10q55 0 100.5 -29t45.5 -93q0 -72 -72 -141t-177 -122q105 2 189 9q64 5 101 17z
M787 306q0 40 -24.5 65.5t-61.5 25.5q-9 0 -19.5 -2.5t-26 -10.5t-25 -28t-9.5 -50q0 -22 18 -43t51 -21q48 0 87 28q10 7 10 36zM290 -18h-83l-4 4l72 120.5l77 129.5l165.5 302.5t97.5 189.5h86l4 -6q-46 -65 -183 -305t-232 -435zM340 329l-16 -45q-100 2 -149 2
q-137 0 -172 -2l14 45q30 -4 102 -4q0 17 4.5 116t4.5 107q0 82 -5 112q-17 0 -30 -2q-5 0 -38 -5l-40 -6l-3 4l15 39q155 9 209 20l7 -5q-18 -66 -18 -269q0 -75 5 -111q10 0 53 2t51 2h6z" />
    <glyph glyph-name="onequarter.alt" unicode="&#xe094;" horiz-adv-x="920" 
d="M890 154l2 -3l-28 -62q-14 0 -43 1t-37 1q0 -69 3 -88l-2 -3q-16 1 -51 1q-39 0 -52 -1l-2 3q7 25 11 89q-10 0 -73.5 0.5t-75.5 0.5q-21 -1 -133 -5l-4 6q24 22 121.5 136.5l160.5 194.5q2 0 34.5 -1t41.5 -1q13 0 43 2l3 -2q-12 -69 -16 -133q0 -4 -2 -32t-3.5 -58
t-1.5 -54q67 0 104 8zM699 372l-63 -69.5l-46.5 -56.5t-78.5 -103q30 -2 70 -2q8 0 56 1t58 1q0 30 1.5 81t2 90t0.5 58zM290 -18h-83l-4 4l72 120.5l77 129.5l165.5 302.5t97.5 189.5h86l4 -6q-46 -65 -183 -305t-232 -435zM340 329l-16 -45q-100 2 -149 2q-137 0 -172 -2
l14 45q30 -4 102 -4q0 17 4.5 116t4.5 107q0 82 -5 112q-17 0 -30 -2q-5 0 -38 -5l-40 -6l-3 4l15 39q155 9 209 20l7 -5q-18 -66 -18 -269q0 -75 5 -111q10 0 53 2t51 2h6z" />
    <glyph glyph-name="ordfeminine.alt" unicode="&#xe095;" horiz-adv-x="390" 
d="M413 719l2 -3q-25 -68 -25 -178q0 -67 13 -98l-2 -3q-49 1 -92 -3l-5 32q-19 -11 -75 -23.5t-83 -12.5q-60 0 -93 30q-35 31 -35 93q0 57 36.5 98.5t85.5 53.5q28 7 73 7q10 0 18 2q42 4 45 4q34 0 71 -15q45 9 66 16zM117 554q0 -85 71 -85q43 0 78 34q17 16 27 38.5
t14 41.5t10 56q-32 45 -86 45q-39 0 -76.5 -33t-37.5 -97z" />
    <glyph glyph-name="ordmasculine.alt" unicode="&#xe096;" horiz-adv-x="390" 
d="M237 440q-73 -17 -100 -17q-61 0 -96 36.5t-35 88.5q0 113 139 147q97 23 131 23q66 0 96.5 -39t30.5 -91q0 -68 -55 -107q-30 -22 -111 -41zM96 560q0 -48 33.5 -73t75.5 -25q39 0 72 29q12 11 17.5 17.5t12 27.5t6.5 53q0 42 -19 60q-34 31 -88 31q-36 0 -73 -34
t-37 -86z" />
    <glyph glyph-name="oslash.alt" unicode="&#xe097;" horiz-adv-x="704" 
d="M110 -70l-42 23q6 6 33 35.5t31 33.5q-44 32 -63 71q-25 50 -25 107q0 49 16 89.5t37 64.5t50.5 43t46 25.5t34.5 12.5q141 47 237 47q35 0 59 -8l33 39.5t27 34.5l43 -24q-40 -46 -62 -68q31 -19 52 -48t28.5 -60t9.5 -48t2 -31q0 -62 -32.5 -122t-109.5 -92
q-48 -21 -134 -42l-29 -7.5t-30 -7.5q-45 -8 -82 -8q-40 0 -70 12zM492 372l-257 -295q53 -42 114 -42q63 0 122.5 57.5t59.5 152.5q0 84 -39 127zM206 107l256 294q-46 37 -105 37q-64 0 -125.5 -64t-61.5 -152q0 -67 36 -115z" />
    <glyph glyph-name="otilde.alt" unicode="&#xe098;" 
d="M355 458q6 0 20 2t31 3t34 1q107 0 163 -47q72 -60 72 -172q0 -26 -5.5 -53t-18 -58.5t-39 -60t-64.5 -47.5q-52 -27 -162 -27q-17 0 -30 -2q-37 -7 -79 -7q-62 0 -108 19.5t-71 52.5t-37 69.5t-12 76.5q0 77 40 140t117 89q46 16 149 21zM551 252q0 71 -52 125.5
t-131 54.5q-13 0 -34.5 -7t-50 -23.5t-52.5 -40.5t-41 -63t-17 -85q0 -50 21 -88.5t52.5 -58.5t59.5 -30t49 -10q25 0 55.5 12t63.5 36.5t55 71t22 106.5zM530 648l21 -11q-19 -45 -60 -91q-25 -27 -51 -27q-19 0 -93 25q-49 17 -75 17q-14 0 -25.5 -7.5t-19 -16.5
t-22.5 -31l-23 11q2 3 4 7.5t9 16.5l17 30q37 67 82 67q25 0 88 -22q60 -21 82 -21q19 0 37 18q1 0 5.5 6l12 15.5t11.5 13.5z" />
    <glyph glyph-name="p.alt" unicode="&#xe099;" 
d="M212 456v-46q51 31 128 38q7 1 39 4.5l61 6.5t37 3q101 0 148 -58q49 -60 49 -154q0 -101 -63.5 -175t-169.5 -78q-12 0 -73 -2.5t-82 -2.5q-29 0 -89 5q0 -187 10 -218l-3 -3q-24 3 -130 3q18 85 18 462q0 104 -4.5 145t-21.5 60l3 5zM198 101q24 -31 66 -55.5t78 -24.5
q68 0 137 64.5t69 165.5q0 82 -47 129t-98 47q-71 0 -138 -79q-40 -47 -52.5 -94.5t-14.5 -152.5z" />
    <glyph glyph-name="paragraph.alt" unicode="&#xe09a;" horiz-adv-x="778" 
d="M534 -207l-3 -3q-45 5 -76 5q-41 0 -66 -5l-4 5q16 37 21 123q2 29 2 78q-184 -6 -262 36q-107 58 -107 186q0 103 77 169q52 45 132.5 61.5t219.5 16.5q127 0 296 -13l4 -5l-51 -59q-64 19 -186 23q-15 -100 -12 -354q162 14 245 39l4 -4l-11 -16l-24.5 -35l-20.5 -29
q-96 -7 -193 -11q2 -163 15 -208zM407 46q2 30 2 83q0 189 -7 283q-62 4 -139 -11q-6 -88 -6 -192q0 -111 6 -159q21 -3 72 -4.5t72 0.5z" />
    <glyph glyph-name="parenleft.alt" unicode="&#xe09b;" horiz-adv-x="370" 
d="M317 -139l-86 1q-1 2 -38 61q-106 173 -106 368q0 219 150 435h85q-45 -61 -90 -163q-53 -125 -53 -275q0 -72 12 -135.5t36.5 -120.5t41.5 -89t48 -82z" />
    <glyph glyph-name="parenright.alt" unicode="&#xe09c;" horiz-adv-x="370" 
d="M53 727l86 -1q68 -103 105.5 -204.5t37.5 -223.5q0 -221 -149 -435h-86q53 75 89 160q55 126 55 276q0 149 -60 288q-38 84 -78 140z" />
    <glyph glyph-name="percent.alt" unicode="&#xe09d;" horiz-adv-x="1199" 
d="M273 706q6 1 40 8q22 4 43 4q86 0 140.5 -57.5t54.5 -142.5q0 -74 -42.5 -131t-105.5 -79q-25 -9 -68.5 -15t-72 -8t-37.5 -2q-57 0 -97.5 21.5t-59.5 54.5t-27 62.5t-8 56.5q0 52 25.5 104.5t83.5 84.5q46 27 131 39zM125 485q0 -72 36 -116q52 -63 124 -63
q68 0 121 59.5t53 143.5q0 82 -51 131t-108 49q-76 0 -125.5 -66t-49.5 -138zM888 417q6 1 40 8q22 4 43 4q86 0 140.5 -57.5t54.5 -142.5q0 -74 -42.5 -131.5t-105.5 -79.5q-25 -9 -69 -14.5t-71.5 -7.5t-37.5 -2q-57 0 -97.5 21.5t-59.5 54.5t-27 62.5t-8 56.5
q0 52 25.5 105t83.5 86q43 24 131 37zM740 196q0 -73 36 -117q52 -63 124 -63q68 0 121 60t53 144q0 82 -51 131t-108 49q-76 0 -125.5 -66t-49.5 -138zM437 -18h-82l-5 4q8 12 70.5 117l78.5 133l165.5 302.5t97.5 189.5h86l4 -6q-46 -66 -183 -305.5t-232 -434.5z" />
    <glyph glyph-name="perthousand.alt" unicode="&#xe09e;" horiz-adv-x="1114" 
d="M188 708q2 0 26 7q13 3 29 3q57 0 93 -46t36 -115q0 -60 -30.5 -109t-83.5 -65q-48 -14 -103 -14q-36 0 -62 16.5t-39 42t-18.5 50t-5.5 47.5q0 42 17 84.5t55 68.5q25 18 86 30zM98 534q0 -62 29 -103t70 -41q48 0 77 51t29 108q0 61 -31.5 101.5t-67.5 40.5
q-48 0 -77 -52t-29 -105zM519 334q2 0 26 7q13 3 29 3q57 0 93 -46t36 -115q0 -60 -30.5 -109t-83.5 -65q-48 -14 -103 -14q-36 0 -62 16.5t-39 42t-18.5 50t-5.5 47.5q0 42 17 84.5t55 68.5q25 18 86 30zM429 160q0 -62 29 -103t70 -41q48 0 77 51t29 108q0 61 -31.5 101.5
t-67.5 40.5q-48 0 -77 -52t-29 -105zM901 334q2 0 4.5 1t8 2.5t13.5 3.5q13 3 29 3q57 0 93 -46t36 -115q0 -60 -30.5 -109t-84.5 -65q-48 -14 -103 -14q-36 0 -62 16.5t-39 42t-18.5 50t-5.5 47.5q0 42 17 84.5t55 68.5q26 18 87 30zM810 160q0 -62 29 -103t70 -41
q49 0 78 51t29 108q0 62 -31.5 102t-68.5 40q-47 0 -76.5 -52.5t-29.5 -104.5zM199 -19h-77l-4 4q103 166 245.5 426.5t165.5 315.5h81l4 -5q-45 -65 -182.5 -305.5t-232.5 -435.5z" />
    <glyph glyph-name="plus.alt" unicode="&#xe09f;" horiz-adv-x="704" 
d="M74 182l-5 4q38 66 56 91q109 -10 170 -6q-3 145 -14 189l6 5q25 -4 64 -4q42 0 70 4l4 -5q-13 -58 -13 -189q32 -2 113.5 1t118.5 12l3 -5l-54 -92q-51 10 -181 10q-2 -107 13 -193l-4 -4q-33 3 -70 3q-34 0 -64 -3l-4 4q12 60 12 193q-40 3 -133 -1q-49 -1 -88 -14z
" />
    <glyph glyph-name="plusminus.alt" unicode="&#xe0a0;" horiz-adv-x="593" 
d="M242 118v157h-205v101h205v160h109v-160h205v-101h-205v-157h-109zM37 -17v101h519v-101h-519z" />
    <glyph glyph-name="q.alt" unicode="&#xe0a1;" 
d="M664 459l4 -3q-13 -39 -33 -212q-10 -88 -10 -260q0 -142 6 -163q6 -17 37 -40v-5q-9 0 -56.5 1.5t-55.5 1.5q-28 0 -53 -3q6 139 8 168q1 20 1.5 36.5t1 23t1 12t0.5 10.5q-68 -27 -143 -31q-10 0 -61 -2.5t-59 -2.5q-38 0 -72 10.5t-64 33t-47.5 64t-17.5 98.5
q0 116 73.5 192.5t191.5 76.5q9 0 56 -3t54 -3q96 -2 158 -33zM533 347q-22 30 -63 57.5t-89 27.5q-72 0 -139 -69t-67 -171q0 -82 43.5 -127t98.5 -45q43 0 88.5 31t76.5 77q27 40 36 85t15 134z" />
    <glyph glyph-name="q.alt2" unicode="&#xe0a2;" 
d="M885 -61v-43l-70.5 -43.5t-48.5 -23t-51 -11.5q-30 0 -64 12.5t-153 63.5q-87 39 -125 51.5t-67 12.5q-75 0 -158 -77h-4v40q57 41 155 74q-92 2 -141 24q-56 25 -83 77t-27 110q0 33 8.5 66.5t28 69t58.5 63.5t93 39q27 6 95 11q84 9 111 9q122 0 181 -66
q52 -57 52 -153q0 -42 -10.5 -76.5t-26 -57.5t-39 -41.5t-43 -28.5t-46 -18t-39 -10l-30.5 -5q50 -12 159 -58q143 -63 187 -63q54 0 93 52h5zM359 430q-22 0 -52.5 -13.5t-61.5 -38.5t-52 -69t-21 -96q0 -91 58 -141t125 -50q80 0 138 66t58 155q0 87 -57 139
q-24 22 -52 33.5t-43.5 13t-39.5 1.5z" />
    <glyph glyph-name="r.alt" unicode="&#xe0a3;" horiz-adv-x="704" 
d="M200 453l6 -49q29 24 84 38t82.5 16t40.5 2q22 0 28 1q24 3 46 3q72 0 111 -35q36 -33 36 -88q0 -40 -20 -74t-51.5 -56t-63 -36t-61.5 -19q26 -6 65 -36l27 -19l55.5 -39t42.5 -28q39 -22 81 -27l-2 -7q-1 0 -43 -2t-89.5 -4t-61.5 -2q-17 0 -32 9t-62 46
q-84 69 -142 84q-16 4 -79 9q-1 -19 -1 -66q0 -35 2 -71l-2 -4q-23 3 -62 3q-42 0 -66 -3l-3 5q18 33 26 140q6 88 6 185q0 79 -36 115l1 3q51 0 137 6zM200 162q76 -5 142 15q80 25 122.5 72.5t42.5 93.5q0 40 -28.5 65.5t-61.5 25.5q-28 0 -67.5 -18.5t-74.5 -56.5
q-30 -32 -47 -70t-21 -62t-7 -65z" />
    <glyph glyph-name="registered.alt" unicode="&#xe0a4;" horiz-adv-x="366" 
d="M183 718q73 0 127 -53t54 -128t-53 -128.5t-128 -53.5q-74 0 -127.5 53.5t-53.5 128.5q0 76 54 128.5t127 52.5zM183 686q-61 0 -105 -43.5t-44 -105.5t44 -106t105 -44q62 0 105.5 44.5t43.5 105.5q0 62 -44 105.5t-105 43.5zM86 442v15q17 0 21 5t4 19v115
q0 13 -4.5 18t-20.5 6v15h92q81 0 81 -51q0 -17 -9.5 -29t-16.5 -15t-19 -6l52 -70q6 -8 18 -8v-14h-59l-60 84h-6v-45q0 -15 4.5 -19.5t20.5 -4.5v-15h-98zM159 610v-66q17 -1 25.5 0.5t16.5 10t8 26.5q0 39 -35 39q-7 0 -10.5 -1t-4 -3t-0.5 -6z" />
    <glyph glyph-name="ring.alt" unicode="&#xe0a5;" horiz-adv-x="278" 
d="M256 572q0 -102 -162 -102q-84 0 -84 76q0 96 160 96q47 0 70 -26q16 -19 16 -44zM74 553q0 -58 52 -58q36 0 51 22t15 45q0 25 -13 41q-12 15 -37 15q-22 0 -37 -8.5t-21 -21t-8 -21t-2 -14.5z" />
    <glyph glyph-name="s.alt" unicode="&#xe0a6;" horiz-adv-x="593" 
d="M400 342l-4 4q4 14 4 27q0 25 -20 44t-60 19q-47 0 -90 -25.5t-43 -73.5q0 -24 9.5 -38.5t27 -20t29 -7t28.5 -1.5q10 0 65 2.5t64 2.5q68 0 99 -34q30 -33 30 -80q0 -42 -25.5 -84.5t-74.5 -61.5q-57 -21 -128 -21q-33 0 -55 1q-54 -8 -70 -8q-70 0 -104 43
q-22 27 -22 90q56 2 134 15l3 -3q-7 -14 -7 -32q0 -76 86 -76q69 0 104.5 36t35.5 81q0 80 -99 80q-11 0 -65.5 -4t-63.5 -4q-120 0 -120 101q0 61 57 104.5t170 43.5q30 0 38 1q40 6 68 6q40 0 65.5 -8.5t37.5 -27.5t16.5 -35t7.5 -43z" />
    <glyph glyph-name="scaron.alt" unicode="&#xe0a7;" horiz-adv-x="593" 
d="M400 342l-4 4q4 14 4 27q0 25 -20 44t-60 19q-47 0 -90 -25.5t-43 -73.5q0 -24 9.5 -38.5t27 -20t29 -7t28.5 -1.5q10 0 65 2.5t64 2.5q68 0 99 -34q30 -33 30 -80q0 -42 -25.5 -84.5t-74.5 -61.5q-57 -21 -128 -21q-33 0 -55 1q-54 -8 -70 -8q-70 0 -104 43
q-22 27 -22 90q56 2 134 15l3 -3q-7 -14 -7 -32q0 -76 86 -76q69 0 104.5 36t35.5 81q0 80 -99 80q-11 0 -65.5 -4t-63.5 -4q-120 0 -120 101q0 61 57 104.5t170 43.5q30 0 38 1q40 6 68 6q40 0 65.5 -8.5t37.5 -27.5t16.5 -35t7.5 -43zM321 569l145 99l39 -21v-5
q-16 -9 -108.5 -72.5t-104.5 -72.5q-2 2 -87 59q-25 17 -97 61v5l77 35q35 -20 136 -88z" />
    <glyph glyph-name="section.alt" unicode="&#xe0a8;" horiz-adv-x="630" 
d="M31 -74l3 4l129 -1q-2 -58 15 -83q30 -43 86 -43q58 0 114 37t56 93q0 20 -7 33.5t-23.5 23.5t-29.5 14.5t-40 12.5q-65 18 -105 31t-82 32t-64.5 39t-37 48t-14.5 63q0 147 250 162q-218 50 -218 161q0 11 2 22.5t10.5 29t22 31.5t40.5 28t62 22q55 14 128 15
q58 16 113 16q47 0 77 -12.5t41 -35t14 -37.5t3 -37l-5 -7h-125q0 47 -29 68q-27 18 -69 18q-57 0 -106.5 -29.5t-49.5 -72.5q0 -33 20.5 -47.5t79.5 -34.5q114 -38 164 -58t82 -47q51 -45 51 -113q0 -63 -49.5 -112t-152.5 -63q174 -27 174 -135q0 -42 -21.5 -82.5
t-61.5 -62.5q-71 -40 -162 -40q-10 0 -22 1q-38 -10 -91 -10q-88 0 -130.5 33t-41.5 125zM163 231q8 -55 70 -83q53 -25 87 -25q7 0 27 6.5t46.5 19.5t46.5 40.5t20 62.5q0 36 -32 63.5t-62.5 37.5t-46.5 10q-61 0 -112.5 -37.5t-43.5 -94.5z" />
    <glyph glyph-name="seven.alt" unicode="&#xe0a9;" horiz-adv-x="482" 
d="M495 454l7 -9q-112 -143 -214 -326l-31.5 -59.5l-31.5 -59.5q-57 3 -76 3q-30 0 -72 -3l-4 5q113 143 259 390q-69 1 -159 -9t-131 -25l-5 5l47 88q4 0 94 -2t119 -2q138 0 198 4z" />
    <glyph glyph-name="six.alt" unicode="&#xe0aa;" horiz-adv-x="648" 
d="M507 570l137 -81l-3 -6q-59 -1 -117.5 -8.5t-123 -27.5t-113 -50t-80 -79.5t-31.5 -112.5q0 -69 40.5 -120.5t115.5 -51.5q60 0 97 43.5t37 99.5q0 62 -44.5 107t-114.5 45q-31 0 -61 -10l-3 7q56 28 89 39t69 11q82 0 134 -49.5t52 -121.5q0 -51 -26 -90.5t-67.5 -60.5
t-73.5 -31.5t-64 -15.5q-59 -16 -97 -16q-57 0 -99.5 20t-64.5 52t-32.5 64.5t-10.5 64.5q0 143 166 251q57 37 117.5 65t92 38.5t79.5 24.5z" />
    <glyph glyph-name="slash.alt" unicode="&#xe0ab;" horiz-adv-x="444" 
d="M101 0h-101l-4 3q5 10 34 58l33 55q86 150 162.5 298t110 219t34.5 77l101 -1l3 -4q-217 -358 -373 -705z" />
    <glyph glyph-name="sterling.alt" unicode="&#xe0ac;" horiz-adv-x="741" 
d="M696 139l-80 -142q-30 -5 -56 -5q-32 0 -216 30q-62 11 -123 11q-77 0 -154 -37l-5 4l41 65q50 24 107 42q27 21 48 51t21 51q0 38 -48 110h-93q-38 0 -62 -8l-4 4l31 54h92q-31 43 -42 60.5t-19 40t-8 46.5q0 61 48 115.5t145 70.5q28 5 108.5 10.5t97.5 5.5
q63 0 100.5 -28t37.5 -84q0 -23 -8 -52l-141 -15l-4 5q14 39 14 61q0 33 -25.5 54t-71.5 21q-68 0 -113 -44.5t-45 -102.5q0 -47 43 -110l19 -28l15 -23q48 0 178 5q20 1 39 6l4 -4l-39 -58q-26 2 -70 2q-47 0 -81 2q23 -34 23 -66q0 -42 -57 -89q-1 0 -36 -26t-40 -31
q36 8 88 8q45 0 142 -11q57 -6 83 -6q62 0 112 40z" />
    <glyph glyph-name="t.alt" unicode="&#xe0ad;" horiz-adv-x="500" 
d="M512 462l2 -4l-47 -55q-91 5 -205 3q-62 -110 -62 -208q0 -48 13.5 -83t34 -52.5t39.5 -25t36 -7.5q29 0 72.5 22.5t87.5 67.5l4 -3q-10 -32 -42 -117q-12 0 -64.5 -0.5t-67.5 -0.5q-7 0 -44 -3.5t-43 -3.5q-144 0 -144 175q0 103 59 238q-42 1 -152 -7l-3 3l47 57
q6 0 39 -1t38 -1h57q23 43 62 92q112 8 170 15l1 -3q-52 -39 -104 -105q12 1 73 1h72q32 1 71 6z" />
    <glyph glyph-name="thorn.alt" unicode="&#xe0b0;" 
d="M548 251q0 82 -47 129t-98 47q-71 0 -138 -79q-40 -47 -52.5 -94.5t-14.5 -152.5q24 -31 66 -55.5t78 -24.5q68 0 137 64.5t69 165.5zM81 638l148 8q-17 -126 -17 -236q48 30 128 38q7 1 39 4.5l61 6.5t37 3q101 0 148 -58q49 -60 49 -154q0 -101 -63.5 -175t-169.5 -78
q-12 0 -73 -2.5t-82 -2.5q-29 0 -89 5q0 -187 10 -218l-3 -3q-24 3 -130 3q8 39 15 207t7 277q0 28 2 85t2 78q-2 95 -10 156q-6 42 -9 52v4z" />
    <glyph glyph-name="three.alt" unicode="&#xe0b1;" horiz-adv-x="556" 
d="M515 455l3 -7q-17 -11 -42 -32.5t-55 -50l-52 -50l-51.5 -50.5l-34.5 -34q45 3 52 3q85 0 123.5 -37.5t38.5 -87.5q0 -82 -86.5 -133t-220.5 -51q-71 0 -143 19l26 92h5q23 -25 63.5 -43.5t83.5 -18.5q65 0 104.5 36t39.5 84q0 22 -11.5 44t-31.5 34q-34 19 -87 19
q-68 0 -153 -34l-4 6q50 45 64 59l171 177q-147 -7 -247 -39l-5 4l47 91q42 -3 142 -3q210 0 261 3z" />
    <glyph glyph-name="three.superioralt" unicode="&#xe0b2;" horiz-adv-x="379" 
d="M5 293l-13 64l5 3q56 -41 156 -41q47 0 78.5 25.5t31.5 69.5q0 49 -36 70q-35 19 -72 19q-23 0 -67.5 -7.5t-79.5 -21.5l-3 6q35 24 110.5 92t98.5 95q-27 2 -95 -2.5t-114 -14.5l-3 3l32 56q1 0 36 -0.5t63 -0.5q89 0 127 1q54 2 128 9l3 -5q-35 -21 -106.5 -83
t-103.5 -96q39 3 51 3q68 0 108 -36q30 -27 30 -68q0 -63 -68.5 -107.5t-172.5 -44.5q-63 0 -124 12z" />
    <glyph glyph-name="threequarters.alt" unicode="&#xe0b3;" horiz-adv-x="920" 
d="M890 154l2 -3l-28 -62q-14 0 -43 1t-37 1q0 -69 3 -88l-2 -3q-16 1 -51 1q-39 0 -52 -1l-2 3q7 25 11 89q-10 0 -73.5 0.5t-75.5 0.5q-21 -1 -133 -5l-4 6q24 22 121.5 136.5l160.5 194.5q2 0 34.5 -1t41.5 -1q13 0 43 2l3 -2q-12 -69 -16 -133q0 -4 -2 -32t-3.5 -58
t-1.5 -54q67 0 104 8zM699 372l-63 -69.5l-46.5 -56.5t-78.5 -103q30 -2 70 -2q8 0 56 1t58 1q0 30 1.5 81t2 90t0.5 58zM290 -18h-83l-4 4l72 120.5l77 129.5l165.5 302.5t97.5 189.5h86l4 -6q-46 -65 -183 -305t-232 -435zM5 293l-13 64l5 3q56 -41 156 -41
q47 0 78.5 25.5t31.5 69.5q0 49 -36 70q-35 19 -72 19q-23 0 -67.5 -7.5t-79.5 -21.5l-3 6q35 24 110.5 92t98.5 95q-27 2 -95 -2.5t-114 -14.5l-3 3l32 56q1 0 36 -0.5t63 -0.5q89 0 127 1q54 2 128 9l3 -5q-35 -21 -106.5 -83t-103.5 -96q39 3 51 3q68 0 108 -36
q30 -27 30 -68q0 -63 -68.5 -107.5t-172.5 -44.5q-63 0 -124 12z" />
    <glyph glyph-name="tilde.alt" unicode="&#xe0b4;" horiz-adv-x="278" 
d="M308 624l21 -11q-19 -45 -60 -91q-25 -27 -51 -27q-19 0 -93 25q-49 17 -75 17q-14 0 -25.5 -7.5t-19 -16.5t-22.5 -31l-23 11q2 3 4 7.5t9 16.5l17 30q37 67 82 67q25 0 88 -22q60 -21 82 -21q19 0 37 18q1 0 5.5 6l12 15.5t11.5 13.5z" />
    <glyph glyph-name="trademark.alt" unicode="&#xe0b5;" horiz-adv-x="1000" 
d="M88 597l1 107h311l2 -107h-24q-6 46 -26.5 63.5t-58.5 17.5h-14v-260q0 -33 11.5 -40.5t45.5 -7.5v-22h-182v22q17 0 25 1t16.5 5.5t11.5 14.5t3 28v259h-15q-17 0 -28 -2t-24.5 -9.5t-21.5 -25t-10 -44.5h-23zM428 348v22q17 0 27.5 3.5t14.5 11.5t5 13.5t1 16.5v229
q0 21 -10 29t-36 9v22h135l96 -255l108 255h131v-22q-33 0 -41.5 -10t-8.5 -38v-214q0 -31 8.5 -40.5t41.5 -9.5v-22h-169v22q31 -1 40.5 9.5t9.5 38.5v240l-132 -310h-15l-126 305v-229q0 -12 1 -19t5.5 -16.5t16.5 -14t30 -4.5v-22h-133z" />
    <glyph glyph-name="two.alt" unicode="&#xe0b6;" horiz-adv-x="537" 
d="M504 96l4 -4l-59 -92q-26 3 -119 3.5t-127 -0.5q-16 0 -103 -1.5t-101 -1.5v9q50 26 89 50.5t63.5 42.5t83.5 65q33 26 58 51q-64 -17 -106 -17q-63 0 -96 34.5t-33 82.5q0 106 132 135q15 3 49.5 6t60 4.5t28.5 1.5q80 0 117 -46q29 -36 29 -88q0 -69 -60 -131.5
t-210 -146.5q22 0 63.5 2.5t114 13t122.5 27.5zM267 434q-33 0 -64.5 -28t-31.5 -78q0 -38 23 -65t64 -27q43 0 69 30.5t26 72.5q0 18 -5.5 37.5t-26.5 38.5t-54 19z" />
    <glyph glyph-name="two.superioralt" unicode="&#xe0b7;" horiz-adv-x="460" 
d="M468 359l2 -4l-42 -69q-128 4 -229 4q-51 0 -207 -4l-2 6q127 48 210.5 117t97.5 116q-31 -17 -71.5 -31.5t-65.5 -14.5q-47 0 -78.5 31.5t-31.5 74.5q0 53 43 85.5t95 37.5q75 10 92 10q55 0 100.5 -29t45.5 -93q0 -72 -72 -141t-177 -122q105 2 189 9q64 5 101 17z
M317 596q0 40 -24.5 65.5t-61.5 25.5q-9 0 -19.5 -2.5t-26 -10.5t-25 -28t-9.5 -50q0 -22 18 -43t51 -21q48 0 87 28q10 7 10 36z" />
    <glyph glyph-name="u.alt" unicode="&#xe0b8;" horiz-adv-x="778" 
d="M710 453l3 -3q-29 -85 -29 -267q0 -68 6 -126q4 -33 18 -52l-2 -3q-63 0 -133 -8l-4 79q-40 -32 -107.5 -54t-121.5 -22h-26q-16 -3 -40 -3q-13 -1 -26 -1q-26 0 -43.5 2t-46.5 16.5t-49 42.5q-37 50 -37 119q0 97 70 166q48 48 126 77q-104 1 -199 -26l-3 3l43 61
q24 0 194 -0.5t184 0.5l-2 -9q-26 -3 -59 -13.5t-73.5 -32.5t-74 -51.5t-56 -75.5t-22.5 -99q0 -70 40.5 -109t91.5 -39q49 0 103 39.5t90 90.5q30 43 44.5 100.5t14.5 157.5q0 9 -0.5 21.5t-0.5 16.5l3 3q38 -2 65 -2q9 0 28.5 0.5t30.5 0.5z" />
    <glyph glyph-name="uacute.alt" unicode="&#xe0b9;" horiz-adv-x="778" 
d="M710 453l3 -3q-29 -85 -29 -267q0 -68 6 -126q4 -33 18 -52l-2 -3q-63 0 -133 -8l-4 79q-40 -32 -107.5 -54t-121.5 -22h-26q-16 -3 -40 -3q-13 -1 -26 -1q-26 0 -43.5 2t-46.5 16.5t-49 42.5q-37 50 -37 119q0 97 70 166q48 48 126 77q-104 1 -199 -26l-3 3l43 61
q24 0 194 -0.5t184 0.5l-2 -9q-26 -3 -59 -13.5t-73.5 -32.5t-74 -51.5t-56 -75.5t-22.5 -99q0 -70 40.5 -109t91.5 -39q49 0 103 39.5t90 90.5q30 43 44.5 100.5t14.5 157.5q0 9 -0.5 21.5t-0.5 16.5l3 3q38 -2 65 -2q9 0 28.5 0.5t30.5 0.5zM362 498l-43 35l7 6
q52 44 96.5 75.5t60.5 44.5l90 -39v-4z" />
    <glyph glyph-name="ucircumflex.alt" unicode="&#xe0ba;" horiz-adv-x="778" 
d="M710 453l3 -3q-29 -85 -29 -267q0 -68 6 -126q4 -33 18 -52l-2 -3q-63 0 -133 -8l-4 79q-40 -32 -107.5 -54t-121.5 -22h-26q-16 -3 -40 -3q-13 -1 -26 -1q-26 0 -43.5 2t-46.5 16.5t-49 42.5q-37 50 -37 119q0 97 70 166q48 48 126 77q-104 1 -199 -26l-3 3l43 61
q24 0 194 -0.5t184 0.5l-2 -9q-26 -3 -59 -13.5t-73.5 -32.5t-74 -51.5t-56 -75.5t-22.5 -99q0 -70 40.5 -109t91.5 -39q49 0 103 39.5t90 90.5q30 43 44.5 100.5t14.5 157.5q0 9 -0.5 21.5t-0.5 16.5l3 3q38 -2 65 -2q9 0 28.5 0.5t30.5 0.5zM234 486l-40 19v4q30 21 99 74
l100 77q25 -17 98 -58t104 -54v-5l-75 -41q-97 50 -153 85z" />
    <glyph glyph-name="udieresis.alt" unicode="&#xe0bb;" horiz-adv-x="778" 
d="M710 453l3 -3q-29 -85 -29 -267q0 -68 6 -126q4 -33 18 -52l-2 -3q-63 0 -133 -8l-4 79q-40 -32 -107.5 -54t-121.5 -22h-26q-16 -3 -40 -3q-13 -1 -26 -1q-26 0 -43.5 2t-46.5 16.5t-49 42.5q-37 50 -37 119q0 97 70 166q48 48 126 77q-104 1 -199 -26l-3 3l43 61
q24 0 194 -0.5t184 0.5l-2 -9q-26 -3 -59 -13.5t-73.5 -32.5t-74 -51.5t-56 -75.5t-22.5 -99q0 -70 40.5 -109t91.5 -39q49 0 103 39.5t90 90.5q30 43 44.5 100.5t14.5 157.5q0 9 -0.5 21.5t-0.5 16.5l3 3q38 -2 65 -2q9 0 28.5 0.5t30.5 0.5zM456 537l-3 5q8 10 49 56.5
t46 53.5q9 -6 38.5 -16t36.5 -11l3 -5q-44 -32 -108 -102q-34 14 -62 19zM272 538l-3 4q80 88 95 110q34 -15 75 -27l3 -5q-71 -62 -108 -102q-16 8 -62 20z" />
    <glyph glyph-name="ugrave.alt" unicode="&#xe0bc;" horiz-adv-x="778" 
d="M710 453l3 -3q-29 -85 -29 -267q0 -68 6 -126q4 -33 18 -52l-2 -3q-63 0 -133 -8l-4 79q-40 -32 -107.5 -54t-121.5 -22h-26q-16 -3 -40 -3q-13 -1 -26 -1q-26 0 -43.5 2t-46.5 16.5t-49 42.5q-37 50 -37 119q0 97 70 166q48 48 126 77q-104 1 -199 -26l-3 3l43 61
q24 0 194 -0.5t184 0.5l-2 -9q-26 -3 -59 -13.5t-73.5 -32.5t-74 -51.5t-56 -75.5t-22.5 -99q0 -70 40.5 -109t91.5 -39q49 0 103 39.5t90 90.5q30 43 44.5 100.5t14.5 157.5q0 9 -0.5 21.5t-0.5 16.5l3 3q38 -2 65 -2q9 0 28.5 0.5t30.5 0.5zM428 500l-208 115v6l87 38
l171 -128z" />
    <glyph glyph-name="underscore.alt" unicode="&#xe0bd;" horiz-adv-x="500" 
d="M0 -125v50h500v-50h-500z" />
    <glyph glyph-name="v.alt" unicode="&#xe0be;" 
d="M405 453l2 -4q-96 -38 -152 -106q-73 -89 -73 -186q0 -54 33.5 -93.5t94.5 -39.5q63 0 125.5 48t98.5 112.5t36 118.5q0 45 -24 71t-55 26q-27 0 -56 -6l-2 5l61.5 31.5t58.5 29.5q16 8 27 8q34 0 72 -44t38 -124q0 -45 -16.5 -91t-49 -90t-91 -75.5t-133.5 -41.5
q-5 -1 -21.5 -2.5t-35.5 -3t-21 -1.5q-50 -7 -78 -7q-92 0 -141 46q-51 49 -51 123q0 38 14.5 75t32.5 61.5t49 52t47.5 39l45.5 30.5q-104 -3 -181 -26l-3 3l43 62q48 -1 175 -1h130z" />
    <glyph glyph-name="w.alt" unicode="&#xe0bf;" horiz-adv-x="1130" 
d="M663 453l3 -4q-40 -89 -40 -223q0 -52 14.5 -91t33.5 -58.5t42.5 -31t36.5 -14t20 -2.5q67 0 129 70.5t62 168.5q0 61 -29.5 106t-87.5 45q-48 0 -115 -32l-3 5q8 5 57 39.5l58 40.5q35 24 46.5 29.5t25.5 5.5q21 0 47.5 -12t54 -36t46.5 -69.5t19 -102.5q0 -24 -3.5 -48
t-17.5 -59.5t-36.5 -64.5t-65.5 -56t-100 -41l-34 -7t-34 -8q-52 -15 -94 -15q-62 0 -104 26.5t-58 69.5q-34 -33 -102 -57q-25 -9 -93.5 -24t-107.5 -15q-47 0 -82.5 14.5t-53 34.5t-28 46t-13 42.5t-2.5 30.5q0 45 17.5 86.5t49.5 74t60 54.5t65 45q-129 -9 -183 -29l-3 5
l43 61h336v-4q-60 -16 -107.5 -44t-75 -58.5t-45.5 -66t-24 -63t-6 -52.5q0 -67 40 -103.5t83 -36.5q21 0 45.5 7.5t62.5 37.5t66 78q52 88 52 250q0 24 -3 51l4 4q72 -4 86 -4q30 0 46 4z" />
    <glyph glyph-name="x.alt" unicode="&#xe0c0;" horiz-adv-x="667" 
d="M687 455v-6q-72 -27 -120 -67q-13 -11 -49 -46l-76 -74l-46 -45q31 -104 49 -137t54 -33q35 0 108 43h4l-12 -41q-77 -34 -116 -44.5t-102 -10.5q-21 0 -28.5 4t-14.5 23q-14 36 -32 105q-34 -36 -76 -75.5t-53 -44.5q-14 -8 -61 -8q-115 0 -160 4l18 47q42 -17 69 -17
q46 0 114 57q55 47 126 117q-35 121 -56 163t-57 42q-28 0 -85 -35h-4l26 60q94 29 160 29q49 0 63 -22q7 -13 44 -145q25 27 77 77l77 80q30 -2 75 -2q46 0 84 2z" />
    <glyph glyph-name="y.alt" unicode="&#xe0c1;" horiz-adv-x="685" 
d="M664 458l1 -4q-47 -53 -124 -283q-57 -171 -76 -220t-41 -77q-29 -37 -70 -52.5t-111 -21.5q-75 -15 -101 -15q-25 0 -51.5 10t-51 42t-24.5 81q0 35 18.5 76t34 62.5t30.5 37.5l110 27l3 -6q-96 -85 -96 -163q0 -55 37 -91t73 -36q69 0 150 175h-111q27 44 27 117
q0 101 -32.5 199t-58.5 98q-13 0 -61 -19q-36 -16 -58 -27l-4 4l62 81q64 15 123 15q36 0 53 -16.5t38 -68.5q44 -113 44 -249q0 -27 -7 -101q27 62 78.5 211.5t67.5 209.5q32 0 128 4z" />
    <glyph glyph-name="yacute.alt" unicode="&#xe0c2;" horiz-adv-x="685" 
d="M664 458l1 -4q-47 -53 -124 -283q-57 -171 -76 -220t-41 -77q-29 -37 -70 -52.5t-111 -21.5q-75 -15 -101 -15q-25 0 -51.5 10t-51 42t-24.5 81q0 35 18.5 76t34 62.5t30.5 37.5l110 27l3 -6q-96 -85 -96 -163q0 -55 37 -91t73 -36q69 0 150 175h-111q27 44 27 117
q0 101 -32.5 199t-58.5 98q-13 0 -61 -19q-36 -16 -58 -27l-4 4l62 81q64 15 123 15q36 0 53 -16.5t38 -68.5q44 -113 44 -249q0 -27 -7 -101q27 62 78.5 211.5t67.5 209.5q32 0 128 4zM386 498l-43 35l7 6q52 44 96.5 75.5t60.5 44.5l90 -39v-4z" />
    <glyph glyph-name="ydieresis.alt" unicode="&#xe0c3;" horiz-adv-x="685" 
d="M664 458l1 -4q-47 -53 -124 -283q-57 -171 -76 -220t-41 -77q-29 -37 -70 -52.5t-111 -21.5q-75 -15 -101 -15q-25 0 -51.5 10t-51 42t-24.5 81q0 35 18.5 76t34 62.5t30.5 37.5l110 27l3 -6q-96 -85 -96 -163q0 -55 37 -91t73 -36q69 0 150 175h-111q27 44 27 117
q0 101 -32.5 199t-58.5 98q-13 0 -61 -19q-36 -16 -58 -27l-4 4l62 81q64 15 123 15q36 0 53 -16.5t38 -68.5q44 -113 44 -249q0 -27 -7 -101q27 62 78.5 211.5t67.5 209.5q32 0 128 4zM480 537l-3 5q8 10 49 56.5t46 53.5q9 -6 38.5 -16t36.5 -11l3 -5q-44 -32 -108 -102
q-34 14 -62 19zM296 538l-3 4q80 88 95 110q34 -15 75 -27l3 -5q-71 -62 -108 -102q-16 8 -62 20z" />
    </font>
</defs>
</svg>
