<?xml version="1.0" standalone="no"?>
<!DOCTYPE svg PUBLIC "-//W3C//DTD SVG 1.1//EN" "http://www.w3.org/Graphics/SVG/1.1/DTD/svg11.dtd" >
<svg>
<metadata>
Created by FontForge 20090622 at Mon Oct 26 05:46:14 2015
 By deploy user
URW Software, Copyright 1993 by URW
</metadata>
<defs>
<font id="Vivaldii" horiz-adv-x="1024" >
  <font-face 
    font-family="Vivaldi"
    font-weight="400"
    font-style="italic"
    font-stretch="condensed"
    units-per-em="2048"
    panose-1="3 2 6 2 5 5 6 9 8 4"
    ascent="1638"
    descent="-410"
    x-height="810"
    cap-height="1365"
    bbox="-802 -586 3214 1851"
    underline-thickness="77"
    underline-position="-179"
    slope="-20"
    unicode-range="U+0020-U+F002"
  />
<missing-glyph horiz-adv-x="512" 
d="M51 0v1365h410v-1365h-410zM410 51v1263h-308v-1263h308z" />
    <glyph glyph-name=".notdef" horiz-adv-x="512" 
d="M51 0v1365h410v-1365h-410zM410 51v1263h-308v-1263h308z" />
    <glyph glyph-name=".null" horiz-adv-x="0" 
 />
    <glyph glyph-name="nonmarkingreturn" horiz-adv-x="512" 
 />
    <glyph glyph-name="space" unicode=" " horiz-adv-x="512" 
 />
    <glyph glyph-name="space" unicode="&#xa0;" horiz-adv-x="512" 
 />
    <glyph glyph-name="exclam" unicode="!" horiz-adv-x="407" 
d="M650 1336q-51 -164 -195.5 -534.5t-234.5 -568.5q-20 50 -20 109q0 115 81 326l96 251q102 265 102 309q0 69 -116 69l10 32h23h117q76 0 137 7zM180 114q46 0 46 -46q0 -26 -20.5 -47t-46.5 -21q-47 0 -47 46q0 26 20.5 47t47.5 21z" />
    <glyph glyph-name="quotedbl" unicode="&#x22;" horiz-adv-x="352" 
d="M525 1343l-72 -148l-57 -124l-12 -24h-26q-11 0 -41 -2q25 54 59 147q7 20 37 99l18 48h19q31 0 75 4zM689 1343l-72 -148l-58 -124l-11 -24h-27q-10 0 -40 -2q25 54 59 147q7 20 37 99l18 48h19q31 0 75 4z" />
    <glyph glyph-name="numbersign" unicode="#" horiz-adv-x="819" 
d="M735 851l8 19q113 279 113 350q0 57 -96 57v33h17l98 1l102 7q12 1 19 1q-13 -35 -15 -42l-68 -197q-24 -69 -83 -203l-12 -26h141v-33h-156l-9 -19q-63 -137 -106 -222l-9 -18h172v-33h-190l-10 -18q-133 -249 -323 -508h-53l34 52q166 250 280 474h-229l-10 -18
q-136 -254 -323 -508h-53l34 52q169 256 280 474h-167v33h183l12 25q51 106 97 216l7 18h-191v33h205l8 19l12 30q101 253 101 320q0 57 -96 57v33h17l97 1l102 7q12 1 19 1q-12 -35 -15 -42l-68 -197q-24 -69 -83 -203l-11 -26h218zM721 818h-219l-8 -19
q-50 -110 -107 -222l-9 -18h227l12 25q52 108 97 216z" />
    <glyph glyph-name="dollar" unicode="$" horiz-adv-x="874" 
d="M1124 1337l-7 -20q-37 -96 -100 -242l-13 -28h-35q38 96 38 137q0 61 -101 61q-194 0 -327 -105t-133 -260q0 -71 33.5 -129t120.5 -138l5 15l31 83q58 161 58 214q0 56 -93 56v30l14 1h88l91 7h17l-5 -14q-64 -201 -155 -412l-7 -16l9 -9l62 -63q83 -87 83 -167
q0 -155 -177 -281q-128 -91 -290 -91l-106 -152h-38l101 154q-256 37 -256 245q0 134 143 312l11 14q42 -7 65 -7h22l13 1l-5 -14q-17 -42 -37 -84l-7 -16q-13 -1 -15 -1l-41 3q-8 0 -21 -4q-77 -29 -77 -145q0 -92 64 -158t174 -88q96 147 213 429l10 23l-16 15
q-99 89 -136.5 154.5t-37.5 147.5q0 111 69.5 221.5t192.5 195.5q186 128 437 128q38 0 71 -3zM588 444l-18 -38q-110 -236 -205 -385q23 -1 34 -1q119 0 216.5 74.5t97.5 165.5q0 66 -125 184z" />
    <glyph glyph-name="percent" unicode="%" horiz-adv-x="1447" 
d="M1308 1341l-837 -1341l-43 20l839 1339zM1179 526q80 0 135.5 -57t55.5 -139q0 -117 -114.5 -237t-226.5 -120q-91 0 -154.5 60t-63.5 148q0 125 117 235t251 110zM1131 460q-100 0 -176 -67.5t-76 -156.5q0 -85 50.5 -135.5t134.5 -50.5q96 0 163 67t67 162
q0 79 -45.5 130t-117.5 51zM729 1392q80 0 135.5 -57t55.5 -140q0 -116 -114.5 -236t-225.5 -120q-92 0 -155.5 60t-63.5 147q0 126 117 236t251 110zM681 1326q-100 0 -176 -67.5t-76 -156.5q0 -84 50.5 -135t134.5 -51q96 0 163 67t67 162q0 79 -45.5 130t-117.5 51z" />
    <glyph glyph-name="ampersand" unicode="&#x26;" horiz-adv-x="1873" 
d="M1499 689q-49 -127 -136 -246l-14 -19l8 -8l81 -69l115 -105q122 -114 163 -114q35 0 116 88l24 -21q-25 -30 -100 -108l-90 -98l-15 -17l-20 20q-173 174 -351 332l-17 14q-170 -163 -374.5 -256t-393.5 -93q-199 0 -317.5 85t-118.5 228q0 225 233 341q96 47 203 66.5
t325 29.5q79 4 104 48q-238 0 -343 46.5t-105 150.5q0 140 181 254q194 122 406 122q41 0 91 -6q-52 -115 -98 -265l-31 10q19 58 19 94q0 41 -23 57t-80 16q-168 0 -267.5 -60.5t-99.5 -162.5q0 -158 213 -207q134 -30 618 -30q337 0 436 57q111 63 111 188q0 23 -12 58
q66 -22 66 -85q0 -51 -84 -140.5t-176 -137.5q-110 -57 -247 -57zM1399 689l-50 1l-240 6l-275 6q-333 0 -480 -71q-181 -87 -181 -262q0 -135 116.5 -216t310.5 -81q179 0 342 77t283 219q-96 94 -221 157t-214 63q-102 0 -162.5 -64t-60.5 -172q0 -27 7 -74
q-61 36 -61 105q0 98 120 192t245 94q159 0 399 -187l20 -16q62 85 102 223z" />
    <glyph glyph-name="quotesingle" unicode="'" horiz-adv-x="188" 
d="M518 1343l-72 -148l-57 -124l-12 -24h-26q-11 0 -41 -2q25 54 59 147q7 20 37 99l18 48h19q31 0 75 4z" />
    <glyph glyph-name="parenleft" unicode="(" horiz-adv-x="508" 
d="M887 1502l4 -22q-286 -121 -444 -411q-87 -159 -137.5 -372t-50.5 -418q0 -204 57 -415q-174 121 -174 483q0 381 213.5 712t531.5 443z" />
    <glyph glyph-name="parenright" unicode=")" horiz-adv-x="506" 
d="M-55 -137l-6 22q281 159 437 514q72 164 115.5 370.5t43.5 384.5q0 193 -48 307l-12 29q-1 2 -4 12q81 -43 129 -158.5t48 -269.5q0 -380 -201.5 -727.5t-501.5 -483.5z" />
    <glyph glyph-name="asterisk" unicode="*" horiz-adv-x="920" 
d="M686 1059l-11 6l-72 41l-81 45l-68 38q-4 3 -13 8l56 86l9 -7l63 -50q61 -49 155 -113l10 51l8 40l19 91l15 76l3 16l99 -28l-4 -10l-28 -75q-21 -57 -54 -160l-3 -12q27 4 82 10l92 11q61 7 93 10l4 -102h-11q-119 6 -191 6h-57h-20l6 -14l34 -75l39 -84l32 -71l7 -14
l-97 -37l-3 11q-33 122 -71 238l-5 15l-37 -34l-30 -28l-68 -63l-57 -52l-12 -11l-64 81l9 6q109 71 204 141z" />
    <glyph glyph-name="plus" unicode="+" horiz-adv-x="874" 
d="M883 615l-23 -56h-313l-121 -314h-55l119 314h-314l23 56h313l120 314h56l-120 -314h315z" />
    <glyph glyph-name="comma" unicode="," horiz-adv-x="341" 
d="M98 136q1 -20 1 -29q0 -93 -55.5 -196.5t-146.5 -180.5l11 24q79 168 79 249z" />
    <glyph glyph-name="hyphen" unicode="-" horiz-adv-x="311" 
d="M61 466h136h40q80 0 133 27q1 1 4 2l-3 -6l-7 -16q-40 -93 -170 -93h-47h-50q-35 0 -48 -6.5t-27 -29.5l-6 -10h-18z" />
    <glyph glyph-name="hyphen" unicode="&#xad;" horiz-adv-x="311" 
d="M61 466h136h40q80 0 133 27q1 1 4 2l-3 -6l-7 -16q-40 -93 -170 -93h-47h-50q-35 0 -48 -6.5t-27 -29.5l-6 -10h-18z" />
    <glyph glyph-name="period" unicode="." horiz-adv-x="341" 
d="M69 114q46 0 46 -46q0 -26 -20.5 -47t-46.5 -21q-47 0 -47 46q0 27 20.5 47.5t47.5 20.5z" />
    <glyph glyph-name="slash" unicode="/" horiz-adv-x="679" 
d="M-43 -142h-42l1082 1650h45z" />
    <glyph glyph-name="zero" unicode="0" horiz-adv-x="874" 
d="M804 1343q203 0 203 -280q0 -170 -68 -381t-184 -402q-176 -290 -386 -290q-107 0 -167 83t-60 232q0 327 195 667q103 179 224 275t243 96zM723 1246q-178 0 -330.5 -273t-152.5 -594q0 -267 187 -267q195 0 331 279q144 297 144 599q0 256 -179 256z" />
    <glyph glyph-name="one" unicode="1" horiz-adv-x="874" 
d="M507 1180l-6 31q22 5 26 6l116 27l88 20q83 21 146 54q-33 -78 -98 -259q-239 -666 -399 -980l-13 -25l-15 -8q-94 -47 -155 -55q71 108 168 321t175 431l104 291q41 113 42 139q2 33 -31 33q-18 0 -74 -12q-50 -10 -74 -14z" />
    <glyph glyph-name="two" unicode="2" horiz-adv-x="874" 
d="M667 0h-778l48 84q146 76 333.5 223.5t317.5 287.5q130 139 212 278t82 219q0 82 -62 138.5t-153 56.5q-103 0 -178 -79.5t-93 -208.5q-61 30 -61 98q0 94 134.5 166.5t308.5 72.5q105 0 168.5 -62t63.5 -165q0 -106 -105 -248q-231 -313 -760 -726l-54 -42h373l57 1
q95 0 122.5 15.5t83.5 101.5q3 3 8 11h51q-83 -127 -119 -222z" />
    <glyph glyph-name="three" unicode="3" horiz-adv-x="874" 
d="M477 683q325 -35 325 -270q0 -176 -143.5 -303.5t-341.5 -127.5q-131 0 -213.5 51.5t-82.5 132.5q0 36 16 85q23 -76 107.5 -119.5t208.5 -43.5q171 0 283.5 97t112.5 245q0 228 -380 228q-20 0 -72 -5q56 74 96 154q38 -3 55 -3q180 0 313 93.5t133 219.5
q0 62 -49 102.5t-124 40.5q-102 0 -178.5 -70t-100.5 -186q-44 24 -44 77q0 95 132 159q156 75 312 75q83 0 133 -44t50 -118q0 -135 -145 -251q-100 -80 -261 -109q-56 -10 -81.5 -29t-54.5 -71z" />
    <glyph glyph-name="four" unicode="4" horiz-adv-x="874" 
d="M511 1286l-3 33q40 -3 56 -3q87 0 171 8q0 -76 -46 -184q-67 -158 -175 -296t-273 -276l-16 -13q36 -3 39 -3l282 -4l18 -1l60 166q54 148 94 208.5t121 115.5q126 86 194 86q30 0 30 -45q0 -4 -1 -16q-28 9 -67 9q-78 0 -134 -75t-129 -279l-63 -174q24 -2 34 -2
q191 0 222 149q37 -16 37 -40q0 -47 -101.5 -109.5t-226.5 -93.5l-156 -428q-43 -3 -63 -7l-40 -9q-5 -1 -13 -3l165 447l-55 1l-232 3l-180 -4q42 57 66 112q185 67 339 340q127 224 127 338q0 43 -81 49z" />
    <glyph glyph-name="five" unicode="5" horiz-adv-x="874" 
d="M1038 1190h-414l-71 -156q-70 -155 -70 -200q0 -76 91 -177l56 -62q85 -95 85 -190q0 -123 -127 -264q-144 -159 -318 -159q-89 0 -147 41.5t-58 104.5q0 49 22 97q36 -162 247 -162q116 0 200.5 72.5t84.5 172.5q0 77 -74 165l-95 113q-54 64 -54 127q0 37 38 129
l52 128l138 338l29 2q178 8 355 8l100 -1q-6 -10 -7 -12l-29 -50q-2 -4 -27 -50z" />
    <glyph glyph-name="six" unicode="6" horiz-adv-x="874" 
d="M1241 1284q-398 -84 -644 -318q-166 -158 -281 -363t-115 -344q0 -92 52 -148t137 -56q123 0 217.5 118t94.5 272q0 79 -40 128t-106 49q-157 0 -263 -286q-10 31 -10 57q0 105 107.5 195t232.5 90q87 0 141 -52.5t54 -137.5q0 -187 -167 -340q-82 -76 -177.5 -122
t-170.5 -46q-97 0 -157 71.5t-60 186.5q0 203 163 432.5t440 416.5q133 90 274.5 153.5t209.5 63.5q24 0 68 -20z" />
    <glyph glyph-name="seven" unicode="7" horiz-adv-x="874" 
d="M1121 1320l-5 -15q-64 -205 -173 -365q-75 -109 -156.5 -191t-279.5 -245q-343 -284 -343 -402q0 -64 105 -73q-22 -48 -66 -48q-34 0 -55.5 26t-21.5 67q0 117 97.5 261.5t258.5 267.5l211 162q277 211 344 437h-393h-59q-86 0 -116.5 -26t-63.5 -129h-34q59 163 84 273
h666z" />
    <glyph glyph-name="eight" unicode="8" horiz-adv-x="874" 
d="M490 689q-99 122 -99 268q0 141 130.5 259t285.5 118q96 0 155 -55.5t59 -146.5q0 -143 -102 -245t-245 -102q-79 0 -79 67q0 5 1 13q52 -43 104 -43q82 0 144.5 84.5t62.5 194.5q0 77 -49.5 122t-133.5 45q-101 0 -169 -72t-68 -178q0 -61 36 -144t89 -143l37 -42
q132 -150 132 -281q0 -191 -190 -331q-130 -96 -244 -96q-116 0 -190.5 72t-74.5 184q0 161 111 284t297 168zM511 660q-140 -40 -226 -145.5t-86 -237.5q0 -103 57.5 -163t155.5 -60q114 0 188.5 79.5t74.5 201.5q0 74 -31 137.5t-121 172.5z" />
    <glyph glyph-name="nine" unicode="9" horiz-adv-x="874" 
d="M780 1023q39 -28 39 -83q0 -84 -97 -194q-106 -121 -226 -121q-89 0 -142 58t-53 156q0 194 163 344q146 134 300 134q104 0 162 -75.5t58 -211.5q0 -397 -435 -778q-142 -125 -278.5 -198t-226.5 -73q-41 0 -55 24q320 66 550 287q148 141 241 340.5t93 372.5
q0 104 -57 169.5t-148 65.5q-111 0 -190 -98t-79 -236q0 -92 45.5 -148t119.5 -56q92 0 151 87.5t65 233.5z" />
    <glyph glyph-name="colon" unicode=":" horiz-adv-x="342" 
d="M166 361q46 0 46 -46q0 -26 -20.5 -47t-46.5 -21q-47 0 -47 46q0 27 20.5 47.5t47.5 20.5zM71 115q46 0 46 -46q0 -26 -20.5 -47t-46.5 -21q-47 0 -47 46q0 26 20.5 47t47.5 21z" />
    <glyph glyph-name="semicolon" unicode=";" horiz-adv-x="341" 
d="M97 136q1 -20 1 -29q0 -93 -55.5 -196.5t-146.5 -180.5l11 24q79 168 79 249zM150 361q46 0 46 -46q0 -26 -20.5 -47t-46.5 -21q-47 0 -47 46q0 27 20.5 47.5t47.5 20.5z" />
    <glyph glyph-name="less" unicode="&#x3c;" 
d="M934 1248v-68l-659 -431l659 -440v-182l-845 563v12z" />
    <glyph glyph-name="equal" unicode="=" horiz-adv-x="874" 
d="M950 752l-23 -56h-683l23 56h683zM855 478l-23 -56h-684l23 56h684z" />
    <glyph glyph-name="greater" unicode="&#x3e;" 
d="M89 127v69l659 431l-659 439v182l845 -563v-12z" />
    <glyph glyph-name="question" unicode="?" horiz-adv-x="722" 
d="M322 1056h-35l9 20q45 104 75 206l7 24q137 45 247 45q153 0 237.5 -67.5t84.5 -190.5q0 -158 -107 -315q-58 -86 -139 -142t-230 -113q-255 -97 -255 -179q0 -63 92 -63q3 0 14 1q-24 -57 -74 -57q-31 0 -51.5 23.5t-20.5 59.5q0 97 83 194.5t198 134.5l155 51
q276 90 276 318q0 218 -299 218q-117 0 -179 -38q-40 -24 -82 -117q-2 -4 -6 -13zM218 114q46 0 46 -46q0 -26 -20.5 -47t-46.5 -21q-47 0 -47 46q0 27 20.5 47.5t47.5 20.5z" />
    <glyph glyph-name="at" unicode="@" horiz-adv-x="1395" 
d="M1049 210l13 -11l-9 -10q-114 -133 -216 -187.5t-235 -54.5q-200 0 -312.5 110.5t-112.5 306.5q0 173 62.5 357.5t171.5 332.5q150 204 363.5 323.5t427.5 119.5q169 0 269.5 -85.5t100.5 -229.5q0 -125 -43 -260t-114 -233q-81 -112 -205 -191.5t-218 -79.5
q-127 0 -127 142q0 19 5 55l-15 -14q-183 -174 -285 -174q-61 0 -61 79q0 93 70 204t183 199q97 76 225.5 125t227.5 49q45 0 45 -27q0 -23 -29 -75q-60 8 -113 8q-255 0 -419 -223q-79 -106 -79 -197q0 -53 36 -53q59 0 178 151q107 136 139 299q62 -33 62 -81
q0 -50 -56 -141q39 7 86 30q-26 -57 -41 -85q-34 -65 -34 -94q0 -33 29 -57.5t69 -24.5q139 0 263 163q130 172 130 422q0 153 -99 249t-257 96q-151 0 -302 -78.5t-264 -215.5q-239 -291 -273 -645l-4 -69q0 -188 97 -287.5t278 -99.5q221 0 392 162z" />
    <glyph glyph-name="A" unicode="A" horiz-adv-x="1683" 
d="M1326 1485l28 -26q-42 -47 -55 -87t-13 -123q0 -340 152 -816q85 -264 133 -264q23 0 74 53l25 -24l-12 -13q-86 -92 -157 -178l-20 -25q-127 263 -212.5 573t-85.5 505q0 82 12 188l3 27q-80 -83 -245 -290q-103 -129 -186 -223l-23 -26q55 4 123 4l291 -5l41 -2
q-36 -100 -70 -248h-38q14 54 14 84q0 38 -26 50t-107 12h-145l-163 -3l-20 -1l-26 -26q-216 -210 -291 -274t-222 -161l-28 -19q71 6 153 6q189 0 289 -12l188 -21q75 -9 135 -9q155 0 247.5 80t114.5 234q37 -22 37 -57q0 -86 -115 -197q-179 -172 -389 -172
q-70 0 -192 13q-297 31 -466 31l-210 -5h-19l63 101q264 96 489 299t635 714q197 245 289 333z" />
    <glyph glyph-name="B" unicode="B" horiz-adv-x="2537" 
d="M1977 926q-20 -28 -62 -79l-61 -77q-71 -90 -111 -136q47 5 112 21l160 40q82 20 161 20q137 0 226.5 -80.5t89.5 -203.5q0 -176 -149.5 -309t-347.5 -133q-145 0 -258 70.5t-290 271.5l-21 -19q-370 -325 -679 -325q-254 0 -419.5 159.5t-165.5 403.5q0 268 205 422
q161 122 357 122q163 0 309 -115q92 -73 325 -355l132 -156l23 -25q55 49 84 84q-145 94 -145 265q0 104 106 104q-65 -74 -65 -135q0 -58 47 -95.5t120 -37.5q8 0 30 2l6 7q50 56 160 194t143 186l34 50l18 25q4 5 13 19l35 -11q-19 -33 -19 -79q0 -68 59.5 -131.5
t123.5 -63.5q66 0 113 59.5t47 143.5q0 122 -86 187.5t-247 65.5q-174 0 -705 -67q-240 -31 -356 -31q-104 0 -151 33l6 20q34 113 58 216l37 -8q-10 -43 -10 -70q0 -68 138 -68q85 0 331 33q486 64 662 64q188 0 292.5 -79t104.5 -221q0 -232 -217 -333q-82 -38 -112 -38
q-62 0 -191 193zM1538 413q79 -89 199 -199q174 -161 333 -161q145 0 252 99t107 233q0 97 -64 157t-166 60q-79 0 -300 -55q-135 -34 -210 -34q-25 0 -50 5q-8 -8 -10 -11l-38 -40l-43 -43q-2 -2 -10 -11zM1422 358l-9 10l-152 181q-227 281 -358 380.5t-273 99.5
q-170 0 -286 -126.5t-116 -313.5q0 -215 176.5 -372.5t417.5 -157.5q278 0 600 299z" />
    <glyph glyph-name="C" unicode="C" horiz-adv-x="1566" 
d="M1044 657q50 -31 50 -113q0 -129 -108 -284q-193 -279 -441 -279q-180 0 -295.5 119t-115.5 304q0 203 104 403.5t283 341.5q338 266 809 266q218 0 345 -85t127 -232q0 -162 -157.5 -281.5t-369.5 -119.5q-124 0 -454 81q-183 45 -268 45q-64 0 -130 -24l12 15
q67 76 98 119q47 4 66 4q119 0 456 -91q235 -64 352 -64q137 0 230.5 77t93.5 189q0 135 -144.5 222t-368.5 87q-194 0 -384.5 -74t-319.5 -200q-275 -268 -275 -611q0 -178 103.5 -282.5t279.5 -104.5q182 0 302 153t120 385v34z" />
    <glyph glyph-name="D" unicode="D" horiz-adv-x="2270" 
d="M840 1475l36 -5q-10 -59 -10 -82q0 -30 36.5 -40.5t139.5 -10.5q70 0 193 10l255 22q133 11 243 11q312 0 477.5 -125.5t165.5 -360.5q0 -174 -81.5 -355t-219.5 -315q-225 -218 -491 -218q-173 0 -286.5 79.5t-248.5 293.5l-74 117l-9 15l-20 -7q-282 -92 -420 -92
q-146 0 -235 80t-89 210q0 186 164 291q111 72 229 72q119 0 205.5 -87.5t251.5 -373.5l12 -20l37 14q370 140 718 299l228 104l31 14q4 -14 4 -26q0 -66 -73 -269q-67 -186 -67 -221q0 -30 38 -30q19 0 54 11l11 -36l-23 -8q-82 -30 -195 -66l-26 -9q2 26 9 55l8 34
q14 58 72 224q53 153 53 177q0 38 -30 38q-18 0 -63 -20l-73 -32l-225 -98q-240 -104 -445 -179l-23 -8q143 -253 274 -362.5t291 -109.5q143 0 276.5 77t218.5 209q145 226 145 462q0 206 -145 317.5t-414 111.5q-96 0 -230 -12l-343 -33q-88 -8 -182 -8q-114 0 -193 28
l5 19q15 54 26 101l23 107zM945 544l-23 38q-147 242 -232 321t-200 79q-97 0 -168 -71.5t-71 -168.5q0 -120 90.5 -197.5t229.5 -77.5q160 0 374 77z" />
    <glyph glyph-name="E" unicode="E" horiz-adv-x="2361" 
d="M2118 1365l-6 -16q-23 -70 -34 -111l-28 -105q0 -2 -5 -19h-38l4 14q14 55 14 81q0 35 -21.5 45t-95.5 10l-33 -1h-224l-4 -15q-66 -260 -107 -342q-79 -156 -223 -237q-112 -63 -224 -98q128 -44 320 -166q132 -84 171 -106q104 131 104 268q0 210 -173 285h353
l-28 -108h-166q89 -87 89 -213q0 -125 -114 -270l18 -11q134 -77 202 -103t133 -26q134 0 224 93t102 244q39 -27 39 -83t-59 -129.5t-147 -128.5l-117 -72q-67 -42 -86 -42q-49 0 -177 54t-232 118q-107 -76 -280.5 -123t-352.5 -47q-341 0 -536 142.5t-195 391.5
q0 310 321 552q187 141 381 204t439 63l182 -1l161 1l216 2l213 5h20zM1545 1263h-215q-269 0 -404.5 -24t-271.5 -95q-166 -86 -261 -238.5t-95 -330.5q0 -234 174 -385q165 -144 475 -144q313 0 547 165q-23 12 -25 14l-218 137q-113 71 -256.5 117.5t-250.5 46.5
q-58 0 -124 -15q48 53 77 112q26 7 68 7q39 0 76 -5l86 -12q42 -6 80 -6q187 0 321 143q131 141 217 513z" />
    <glyph glyph-name="F" unicode="F" horiz-adv-x="2287" 
d="M2387 734l-72 -241h-37q5 16 7 24q11 36 11 60q0 34 -29 43t-139 9h-154l-14 -43q-85 -272 -188.5 -454t-259.5 -332q-159 -155 -361 -242t-401 -87q-225 0 -405 96q-161 85 -251 240t-90 345q0 251 159 402t423 151q296 0 632 -273q112 -91 310 -294l31 -31
q50 85 50 179q0 146 -127 242t-334 107q25 43 39 96l709 3l12 39q44 152 72 218.5t72 122.5q82 106 225 201q146 97 248 97q20 0 51 -6q-13 -76 -59 -232l-7 -25h-37q18 64 18 90q0 64 -69 64q-107 0 -208 -80q-53 -43 -83 -104.5t-81 -231.5l-38 -129l-7 -24h382zM1868 629
l-457 3q106 -48 172 -140.5t66 -193.5q0 -157 -117 -348q-284 336 -552 515t-487 179q-190 0 -314.5 -123t-124.5 -311q0 -286 221.5 -470.5t564.5 -184.5q381 0 645.5 276t382.5 798z" />
    <glyph glyph-name="G" unicode="G" horiz-adv-x="2176" 
d="M1635 963h613q-154 -719 -573 -1122q-384 -368 -845 -368q-320 0 -546 194q-246 211 -246 562q0 255 150 412t394 157q171 0 311.5 -93.5t269.5 -293.5l193 -296l29 -47q60 -94 100 -94q30 0 90 31l16 -33l-18 -7l-85 -37q-27 -12 -95 -45l-22 -10l-10 14l-143 218
l-84 134q-170 272 -292 373q-155 129 -325 129q-181 0 -294.5 -119.5t-113.5 -310.5q0 -260 170 -471q109 -137 277 -211.5t366 -74.5q311 0 564 184t420 532q85 176 142.5 365t57.5 292h-185q51 -46 51 -118q0 -135 -143 -268q-200 -186 -396 -186q-145 0 -234.5 89.5
t-89.5 233.5t64.5 279t179.5 233q126 106 283.5 165t314.5 59q42 0 100 -6l-67 -237h-37l5 22q7 33 7 56q0 76 -156 76q-164 0 -296 -73q-127 -70 -204 -211t-77 -304q0 -138 77.5 -220.5t207.5 -82.5q143 0 249 101t106 238q0 154 -204 154h-27v36z" />
    <glyph glyph-name="H" unicode="H" horiz-adv-x="2928" 
d="M2162 859q-62 -195 -62 -370q0 -388 349 -388q190 0 310 121t120 314q38 -42 38 -87q0 -100 -123 -253q-159 -199 -395 -199q-196 0 -307.5 114.5t-111.5 315.5q0 189 90 439l-180 15q-79 -214 -217 -388q-190 -240 -416.5 -368t-459.5 -128q-262 0 -441 165.5
t-179 407.5q0 216 146 356t371 140q189 0 397.5 -130.5t374.5 -352.5q21 70 21 127q0 213 -211 247q17 36 23 54l15 40l5 15q247 -45 491 -63l15 -1q57 176 57 258q0 37 -30 37q-33 0 -94 -26l-12 32q32 13 38 16l104 43l135 57l-2 -17q-20 -190 -92 -411l184 -16
q87 187 207 300q125 119 295.5 189.5t329.5 70.5q123 0 196 -48.5t73 -130.5t-62 -176.5t-166 -168.5q-223 -159 -622 -159q-105 0 -202 7zM2202 967q94 -9 236 -9q379 0 546 103q151 93 151 225q0 83 -74 135t-193 52q-225 0 -402 -135q-140 -108 -257 -356zM1792 891
l-341 38q74 -77 74 -205q0 -122 -53 -323q-471 604 -855 604q-159 0 -266.5 -104t-107.5 -257q0 -242 181.5 -397.5t464.5 -155.5q316 0 536 195t367 605z" />
    <glyph glyph-name="I" unicode="I" horiz-adv-x="1898" 
d="M1148 1365h1038l-7 -24q-204 -636 -485 -949q-163 -182 -382 -286t-440 -104q-318 0 -503 171q-189 175 -189 427q0 203 134.5 332t345.5 129q200 0 386 -126q96 52 207 52q135 0 219.5 -95.5t84.5 -248.5q0 -130 -98 -308q-218 300 -490 507q-138 -129 -138 -334
q0 -86 26 -183q-91 66 -91 185q0 188 172 354q-184 138 -350 138q-153 0 -254 -102.5t-101 -258.5q0 -207 162 -355q95 -88 246.5 -137.5t322.5 -49.5q473 0 777 408q190 254 333 735h-703h-70l-82 -4q-47 -4 -71.5 -22.5t-44.5 -66.5l-5 -12l-37 8l9 22l37 92l33 87
q1 2 8 19zM1489 490q26 75 26 138q0 129 -86.5 222t-207.5 93q-66 0 -139 -32q204 -147 407 -421z" />
    <glyph glyph-name="J" unicode="J" horiz-adv-x="1914" 
d="M2095 1368l-6 -35q-68 -361 -155 -608t-229 -479q-469 -770 -1026 -770q-160 0 -313 60t-253 161q-150 152 -150 382q0 227 177.5 379t442.5 152q421 0 915 -343l-111 -74q-200 145 -454 240.5t-441 95.5q-206 0 -340 -111t-134 -282q0 -111 54.5 -220.5t150.5 -188.5
q82 -68 221 -111t277 -43q457 0 785 447q125 172 231.5 411.5t147.5 442.5l45 225l27 136q3 13 7 39q-50 -7 -91 -7l-93 2q-46 0 -88 -12q-66 -19 -106 -71t-40 -118q0 -63 32.5 -118t116.5 -135q82 -78 82 -143q0 -87 -62.5 -170.5t-126.5 -83.5q-51 0 -83 36.5t-32 95.5
q0 7 2 23q65 -92 129 -92q94 0 94 98q0 59 -98 149q-121 111 -121 255q0 158 115.5 273t273.5 115l92 -2l85 -2q31 0 50 1z" />
    <glyph glyph-name="K" unicode="K" horiz-adv-x="2546" 
d="M2594 1371l-35 -35l-411 -403q-225 -216 -285 -278l-24 -25l395 -384q103 -100 144 -100q38 0 123 84l8 8l27 -24q-75 -84 -224 -220l-19 18l-352 343l-174 171l-18 18l-125 -123q-232 -231 -400 -321.5t-363 -90.5q-211 0 -379 121q-122 87 -190 230.5t-68 314.5
q0 251 179.5 413t457.5 162q181 0 347.5 -84.5t363.5 -277.5l10 31q69 211 73 303q2 37 -33 37q-27 0 -90 -26l-18 -7l-15 33l11 5q84 36 147 70l147 79q2 1 19 9l-15 -58q-102 -393 -170 -536l175 -171l26 25l157 157l143 139q141 139 237 247l23 25q-56 3 -125 3
q-144 0 -173.5 -17t-64.5 -123l-6 -16h-43l7 19q46 130 80 255l58 -1l266 -2zM1723 570l-149 146q-87 -165 -214 -265t-247 -100q-73 0 -121.5 33t-48.5 83q0 31 24 78q22 -136 179 -136q233 0 381 355q-251 244 -409 334.5t-332 90.5q-235 0 -392 -163q-122 -127 -122 -329
q0 -229 166 -389q211 -204 501 -204q185 0 333 81.5t378 311.5z" />
    <glyph glyph-name="L" unicode="L" horiz-adv-x="1862" 
d="M627 710l-22 -28q-111 -142 -197 -232q87 50 204 50q130 0 307 -67l274 -111l284 -116q178 -72 218 -72q45 0 115 65l26 -27q-89 -80 -174 -181q-152 53 -470 189q-583 249 -701 249q-59 0 -99 -25t-131 -119l-18 -18l-20 32q120 123 272 309l71 86q2 3 17 21
q-29 3 -50 3q-161 0 -256 -93.5t-95 -251.5q0 -139 110.5 -234.5t269.5 -95.5q111 0 256 85l21 -30q-174 -117 -343 -117q-162 0 -259 98.5t-97 264.5q0 208 128.5 345.5t324.5 137.5q35 0 69 -2l12 -1l26 34q244 306 446.5 442t415.5 136q150 0 236 -70.5t86 -193.5
q0 -112 -82 -238q-92 -142 -240 -224.5t-311 -82.5q-149 0 -489 62q-88 16 -135 21zM719 820q79 -9 217 -33q292 -51 414 -51q184 0 322 107.5t138 251.5q0 128 -86.5 204t-231.5 76q-180 0 -394 -158q-148 -110 -353 -365z" />
    <glyph glyph-name="M" unicode="M" horiz-adv-x="2775" 
d="M3172 1388l-79 -263l-37 6l5 19q7 25 7 42q0 52 -83 52q-109 0 -207.5 -111t-152.5 -294q-31 -105 -77 -357t-46 -316q0 -51 46 -51q32 0 93 28l18 -31l-154 -60q-84 -32 -148 -61q0 90 42.5 333.5t98.5 474.5l-36 -45l-136 -170l-218 -271l-222 -274l-22 -28l-25 18
q35 68 35 135q0 111 -52 341l-31 135q-1 2 -5 22q-238 -319 -493 -489t-497 -170q-158 0 -299.5 69t-222.5 187q-93 133 -93 314q0 235 161.5 381t421.5 146q150 0 272 -57t316 -217q73 -61 109 -61q43 0 140 54l20 -30l-253 -139l-26 24q-182 171 -358 262.5t-323 91.5
q-188 0 -301.5 -111t-113.5 -295q0 -230 170.5 -373.5t443.5 -143.5q240 0 472.5 154.5t444.5 453.5q-19 108 -19 181q0 181 79 356t161 175q81 0 81 -138q0 -89 -48 -204.5t-159 -293.5q11 -53 44 -182q57 -223 73 -382l32 41l66 81l467 578q166 205 239.5 279.5
t157.5 121.5q111 62 221 62zM1865 851q60 104 96.5 212t36.5 181q0 77 -53 77q-40 0 -68 -84.5t-28 -203.5q0 -77 16 -182z" />
    <glyph glyph-name="N" unicode="N" horiz-adv-x="2487" 
d="M2921 1380l-78 -263l-36 7l3 19q9 47 9 71q0 42 -43.5 61.5t-138.5 19.5q-267 0 -409 -200q-142 -199 -199 -495q24 -16 36 -25q138 -92 175 -138t37 -123q0 -106 -63.5 -206.5t-130.5 -100.5q-69 0 -110.5 71t-41.5 191q0 118 22 227l-29 20l-88 61q-126 87 -298 222
l-18 15q-74 -237 -167 -374q-143 -208 -328.5 -325.5t-372.5 -117.5q-224 0 -367.5 135.5t-143.5 346.5t142.5 342.5t371.5 131.5q236 0 466 -186q64 -51 97 -51q28 0 93 41q6 4 19 12l20 -29l-17 -12l-80 -53l-90 -59l-23 -16q-278 283 -576 283q-159 0 -263 -97t-104 -246
q0 -200 150.5 -330t383.5 -130q157 0 296.5 84.5t240.5 240.5q98 152 188 461l-38 33q-163 140 -266.5 259t-103.5 166q0 31 57 142l47 93l36 -14q-38 -81 -38 -116q0 -50 96 -165t251 -252q34 150 142 199q-34 -95 -78 -256l16 -14q115 -100 384 -294l21 -16
q119 402 299.5 588t452.5 186q80 0 187 -25zM2002 466q-8 -59 -8 -116q0 -266 113 -266q42 0 69 37t27 93q0 64 -41 115t-160 137z" />
    <glyph glyph-name="O" unicode="O" horiz-adv-x="1848" 
d="M1685 1368l-90 -250q168 -48 244.5 -134t76.5 -225q0 -267 -231 -488q-143 -137 -344.5 -213t-422.5 -76q-334 0 -530.5 151.5t-196.5 408.5q0 195 104.5 359.5t301.5 279.5q353 206 820 206q150 0 268 -19zM1577 1073q-117 -287 -322.5 -443.5t-464.5 -156.5l-86 1
q-25 0 -47 -5q-19 -5 -49 -19q8 16 11 20l26 54q35 71 118 71h124q76 0 148 10q171 23 286.5 137.5t199.5 344.5q-97 22 -178 22q-215 0 -360.5 -101.5t-192.5 -283.5q-23 36 -23 77q0 149 168 248t420 99q68 0 162 -12l21 -3l46 149q-183 26 -320 26q-472 0 -698 -206
q-111 -102 -174 -245.5t-63 -295.5q0 -242 162 -378q186 -155 496 -155q338 0 566.5 205.5t228.5 509.5q0 125 -56.5 216t-148.5 114z" />
    <glyph glyph-name="P" unicode="P" horiz-adv-x="1919" 
d="M1161 815l-407 -603q156 109 295 109q126 0 340 -88l190 -79q83 -34 113 -34q55 0 131 111l31 -19l-11 -17l-66 -94l-64 -100q-2 -4 -14 -20q-94 23 -236 88q-197 89 -306 122t-210 33q-107 0 -182 -48t-150 -165l-30 21l206 311q-123 154 -123 345q0 161 100 281
t234 120q114 0 208 -113l6 10l30 52q37 62 37 103q0 18 -13 36q19 1 20 1l54 2q13 0 59 6l14 2q-23 -30 -87 -129q-31 -48 -70 -103l-16 -23q9 -12 10 -14l58 -81q146 -201 334 -201q118 0 212.5 117t94.5 264q0 233 -329 233q-143 0 -528 -30l-290 -23q-97 -8 -202 -8
q-190 0 -259 47l77 281l35 -9l-3 -17q-13 -58 -13 -85q0 -49 43 -68.5t151 -19.5q165 0 486 26q362 29 506 29q424 0 424 -289q0 -173 -125 -328q-148 -183 -373 -183q-113 0 -195 48t-181 172zM1130 855q-55 76 -101 109t-97 33q-87 0 -144.5 -66.5t-57.5 -168.5
q0 -140 137 -303z" />
    <glyph glyph-name="Q" unicode="Q" horiz-adv-x="2044" 
d="M1686 1373q-31 -113 -87 -239l-5 -11q167 -48 243.5 -135t76.5 -228q0 -253 -233 -490l16 -13q154 -129 187 -131q24 -1 67 40l35 33q1 1 10 8l28 -21q-37 -39 -102 -100l-84 -81l-19 -19l-32 28q-137 118 -210 173q-131 -96 -306 -150t-355 -54q-340 0 -532 150
t-192 416q0 195 107.5 361t309.5 282q347 199 818 199q122 0 259 -18zM1575 1078l-13 -25q-101 -187 -219 -292.5t-292 -164.5q319 -91 572 -284q73 85 116 199.5t43 224.5q0 131 -54 220.5t-153 121.5zM1563 1287q-128 22 -288 22q-437 0 -663 -170q-134 -100 -209 -251.5
t-75 -321.5q0 -250 177 -392.5t486 -142.5q325 0 542 187q-184 140 -381 220.5t-353 80.5q-70 0 -130 -14q64 73 98 127l17 -1q53 -4 91 -4q453 0 635 466q-92 19 -179 19q-207 0 -356.5 -107.5t-185.5 -282.5q-23 34 -23 81q0 148 170 248.5t422 100.5q70 0 168 -13
q24 68 37 148z" />
    <glyph glyph-name="R" unicode="R" horiz-adv-x="2286" 
d="M1601 709l-40 -99q127 -105 287 -265l85 -85q101 -100 130.5 -124.5t50.5 -24.5q38 0 110 55l25 -29q-116 -97 -209 -164l-35 36q-331 338 -502 490q-117 -205 -296 -331q-273 -194 -532 -194q-229 0 -372.5 136.5t-143.5 353.5q0 195 113 372.5t321 308.5
q193 121 470.5 189.5t575.5 68.5q297 0 456 -73.5t159 -210.5q0 -182 -241 -275q-117 -46 -147 -135q-69 4 -148 4q-62 0 -117 -4zM1448 1091q166 34 295 76l-5 -18q-45 -187 -93 -325q57 -3 81 -3q181 0 284.5 75t103.5 207q0 247 -560 247q-625 0 -970 -280
q-298 -243 -298 -564q0 -202 133 -328.5t346 -126.5q113 0 234.5 46t208.5 122q123 107 230 340q-169 152 -318 152q-133 0 -219 -86t-86 -220q0 -33 10 -81q-77 42 -77 119q0 112 159.5 238.5t299.5 126.5q105 0 204 -74l63 -48l15 -10q35 79 66 185t31 146q0 57 -67 57
q-21 0 -62 -8z" />
    <glyph glyph-name="S" unicode="S" horiz-adv-x="2468" 
d="M2387 1180l13 -34q-110 -51 -250 -105l-26 -10q6 35 12 85l9 71q6 43 6 70q0 61 -58 61q-94 0 -222 -83q-172 -111 -172 -257q0 -53 45.5 -69.5t194.5 -16.5h13q3 32 3 44q0 85 -24 149q100 -24 100 -176v-17l157 3q109 0 154 -16q149 -53 149 -218q0 -222 -166 -426
q-198 -243 -483 -243q-209 0 -318 169q-248 -156 -525 -156q-213 0 -388 96q-341 188 -341 642q0 288 153 472t391 184q231 0 398 -149q93 -82 150 -200.5t130 -378.5l50 -180q41 -146 74 -221q99 59 198.5 214t122.5 286l-46 -1q-167 0 -235.5 27.5t-68.5 95.5
q0 110 121 251q97 113 229 177.5t341 100.5l34 6l-3 -16q-10 -45 -16 -80l-16 -94q-7 -45 -7 -58q0 -29 24 -29q17 0 35 7zM2013 772q-33 -140 -141 -293t-240 -247q49 -105 108 -147.5t154 -42.5q193 0 341.5 159t148.5 365q0 116 -64.5 160.5t-231.5 44.5h-50zM1507 197
q-48 106 -71 190l-80 294q-95 351 -229 509.5t-334 158.5q-209 0 -326.5 -140t-117.5 -388q0 -129 47.5 -261t128.5 -229q102 -122 247 -190t304 -68q213 0 431 124z" />
    <glyph glyph-name="T" unicode="T" horiz-adv-x="1853" 
d="M1214 1233q-193 -101 -324 -325t-131 -454q0 -166 114.5 -256.5t325.5 -90.5q266 0 441.5 156t209.5 424q26 -55 26 -102q0 -135 -171 -311q-269 -278 -553 -278q-117 0 -228.5 38.5t-178.5 103.5q-110 104 -110 282q0 157 67 319t186 294q102 112 271 214
q-253 71 -393 71q-201 0 -326.5 -123.5t-125.5 -321.5q0 -74 24 -167q-94 60 -94 171q0 152 143 314q206 234 456 234q163 0 483 -98q21 7 25 8l133 46q176 60 366 60q143 0 230.5 -46.5t87.5 -122.5q0 -94 -176 -141q-107 -28 -156 -62l-30 8l-94 23q-173 42 -211 53
l-245 69zM1393 1310q143 -47 325.5 -87t251.5 -40q64 0 107 21t43 52q0 55 -95 95.5t-226 40.5q-209 0 -406 -82z" />
    <glyph glyph-name="U" unicode="U" horiz-adv-x="2529" 
d="M1912 434q-52 -157 -132 -302q25 2 33 2q67 0 176 -6q107 -6 134 -6q152 0 253.5 114.5t101.5 286.5q0 21 -3 65q47 -38 47 -109q0 -142 -135 -286q-160 -171 -359 -171q-52 0 -129 9q-177 20 -236 20q65 157 95 262q-20 -14 -25 -18l-87 -61q-130 -92 -290 -161
t-244 -69q-71 0 -114.5 36.5t-43.5 94.5q0 79 70 257l106 269q180 456 180 556q0 93 -189 93q-221 0 -411 -83t-299 -226q-134 -178 -134 -413q0 -69 23 -185q-102 86 -102 260q0 163 98 303.5t281 240.5q157 86 321.5 122t399.5 36q111 0 199 -8q-53 -253 -252 -741
q-110 -270 -135 -340t-25 -110q0 -99 103 -99q101 0 312 126q189 112 282 186q36 109 88 304q61 233 124.5 363t164.5 228q142 137 262 137q102 0 102 -127q0 -322 -584 -826zM1936 507q206 164 347.5 381t141.5 367q0 97 -64 97q-75 0 -172 -156q-61 -98 -106 -218.5
t-127 -404.5z" />
    <glyph glyph-name="V" unicode="V" horiz-adv-x="2357" 
d="M2707 1373q-94 -211 -316 -406q-9 -116 -103.5 -238.5t-372.5 -379.5q-197 -183 -336 -340l-25 -27q12 111 12 227q0 180 -19 326q-344 -135 -344 -365q0 -62 39 -138q-107 9 -107 118q0 116 112 238t295 204q-42 358 -188 562q-203 284 -509 284q-215 0 -356.5 -154.5
t-141.5 -389.5q0 -145 67.5 -269t186.5 -196q147 -90 315 -90q69 0 142 21l6 -18q-117 -60 -245 -60q-220 0 -373 166.5t-153 405.5q0 282 183.5 474t453.5 192q178 0 329.5 -94.5t248.5 -267.5q109 -192 155 -516q21 8 23 8l202 70q221 77 377 192l20 15q-12 90 -86 167
q-68 71 -166.5 109t-264.5 57l-36 4q49 41 92 102q89 -7 261 -7q419 0 622 14zM2585 1289l-33 -1l-192 -3l-182 -3h-42q234 -98 252 -269q128 116 197 276zM2276 870q-193 -163 -415 -233l-173 -54q-1 0 -19 -6q7 -78 7 -186q0 -134 -8 -226q63 67 141 140l102 97
q186 175 262 272.5t103 195.5z" />
    <glyph glyph-name="W" unicode="W" horiz-adv-x="2817" 
d="M2504 691q-99 -147 -291.5 -364t-364.5 -375l1 95q0 284 -39 556l-3 20l-33 -40l-89 -105l-149 -179l-248 -314l-19 -22q0 292 -32 672q-13 160 -26 201.5t-49 41.5q-23 0 -73 -27l-18 33q14 9 16 10l105 59q32 18 98 60l23 14q59 -314 59 -869q46 53 174 213
q88 112 243 289l9 11l-4 20q-269 0 -283 -224q-26 22 -26 55q0 76 93 156t196 93q-85 261 -285.5 408.5t-471.5 147.5q-312 0 -509 -181.5t-197 -468.5q0 -268 175 -446.5t437 -178.5q39 0 94 9l6 -19q-90 -31 -218 -31q-257 0 -424.5 170.5t-167.5 432.5q0 335 247.5 552.5
t629.5 217.5q313 0 518.5 -157t283.5 -456q305 334 531.5 481t436.5 147q110 0 180 -59.5t70 -152.5q0 -166 -170.5 -305.5t-435.5 -190.5zM2458 753q41 76 41 130q0 51 -90 56l-21 1v36h255q-22 -100 -94 -214q206 36 301 104q155 109 155 269q0 83 -60.5 134t-160.5 51
q-351 0 -841 -550q233 -20 405 -20zM2422 681q-98 -8 -195 -8t-295 16l-24 2q50 -206 50 -541v-35q131 122 262.5 282.5t201.5 283.5z" />
    <glyph glyph-name="X" unicode="X" horiz-adv-x="2459" 
d="M1692 717l6 -20q81 -263 167 -458q48 -110 97 -110q26 0 79 36l19 13l22 -29l-13 -9l-97 -70l-125 -85q-117 195 -235 594l-10 32l-21 -27l-118 -150q-363 -451 -769 -451q-248 0 -402.5 144t-154.5 375q0 203 123.5 328.5t324.5 125.5q175 0 325 -92.5t347 -322.5
l31 -36q46 53 46 105q0 71 -50 103.5t-169 39.5q41 42 76 109q231 -30 343 -30l-8 26q-63 219 -115 337q-36 79 -75 79q-31 0 -84 -46l-23 31q106 71 204 160q92 -150 162 -383l55 -184l9 -28l42 -4q17 22 20 25l95 125q181 234 346 339t353 105q114 0 182.5 -53t68.5 -142
q0 -100 -71.5 -193.5t-199.5 -162.5q-277 -147 -718 -147zM1744 818l30 -1q126 -6 229 -6q305 0 487.5 96t182.5 257q0 79 -62 125.5t-167 46.5q-169 0 -316 -105.5t-356 -376.5zM1568 722l-18 1l-80 4q-66 4 -140 11q44 -66 44 -118q0 -100 -150 -231l-18 21
q-222 266 -376 374.5t-309 108.5q-147 0 -239 -92t-92 -240q0 -208 155 -342.5t395 -134.5q236 0 419.5 121t410.5 424l19 26z" />
    <glyph glyph-name="Y" unicode="Y" horiz-adv-x="2661" 
d="M1724 591q-137 -211 -230 -387q-2 -12 -2 -15l-5 -59l-5 -52q-1 -5 -2 -23l-17 -7q-56 -21 -82 -47t-51 -85q-46 -107 -46 -210q0 -64 23.5 -97.5t83.5 -54.5l-51 -140q-128 47 -128 215q0 136 112 362q31 63 43.5 141.5t12.5 211.5l-1 223v22q-156 -35 -247 -141.5
t-91 -253.5q0 -153 116 -265q-22 -4 -31 -4q-64 0 -105.5 59.5t-41.5 150.5q0 172 103.5 311t290.5 220q-21 211 -76 331q-67 146 -193.5 231.5t-275.5 85.5q-218 0 -358.5 -141.5t-140.5 -361.5q0 -213 132 -390.5t327 -224.5v-19q-233 0 -383 158t-150 404
q0 274 181 457.5t452 183.5q269 0 425.5 -174.5t186.5 -508.5q56 5 100 5q54 0 143 -10l19 28q251 374 463.5 534.5t455.5 160.5q125 0 198 -60.5t73 -164.5t-67.5 -214t-185.5 -199q-277 -208 -671 -208q-100 0 -163 7l-115 12q-4 1 -26 3zM1785 688l28 -3q173 -19 314 -19
q447 0 650 231q91 104 91 219q0 95 -72 155t-186 60q-411 0 -825 -643zM1680 595l-16 2q-84 9 -114 9q-13 0 -44 -3v-53q0 -133 -10 -261q13 20 15 24l78 130l79 132q2 2 12 20z" />
    <glyph glyph-name="Z" unicode="Z" horiz-adv-x="2035" 
d="M1478 876l-4 -15l-30 -107q-20 -71 -28 -104l-5 -18h-37q9 47 9 81q0 37 -24.5 51.5t-88.5 14.5q-52 0 -206 11l-18 1q-11 -12 -13 -14l-79 -81l-101 -104l-153 -157q-4 -4 -27 -29q250 168 422 168q197 0 497 -189q136 82 213 82q79 0 122 -82q-60 23 -120 23
q-92 0 -173 -51q181 -119 378 -278l-7 -6l-46 -36l-62 -48q-61 56 -191 153t-200 140q-58 -40 -161 -125q-256 -212 -394 -283t-294 -71q-143 0 -273.5 57t-206.5 152q-98 124 -98 305q0 268 192 431t508 163q111 0 265 -14l46 -5l99 103q-185 186 -240 186q-40 0 -57 -130
l-40 4l72 365q267 -263 382 -308l24 23q134 132 208 179.5t146 47.5q28 0 48 -19t20 -46q0 -84 -113 -157.5t-257 -83.5q-63 -4 -101 -30t-142 -137l32 -3q152 -11 214 -11l80 1h13zM1351 1103q26 -4 46 -4q80 0 162.5 48t82.5 94q0 32 -43 32q-86 0 -248 -170zM1469 304
q-119 78 -254.5 130t-218.5 52q-121 0 -307.5 -114t-359.5 -294l-27 31l36 32q266 236 631 627l26 28l-25 3q-200 25 -318 25q-132 0 -222.5 -33t-168.5 -109q-131 -129 -131 -302q0 -90 41 -182.5t109 -156.5q143 -136 392 -136q166 0 298 55t311 199q115 93 188 145z" />
    <glyph glyph-name="bracketleft" unicode="[" horiz-adv-x="688" 
d="M678 1502q26 -1 85 -1h77l157 2l32 -1l-6 -11q-6 -10 -6 -11l-7 -12q-3 -4 -7 -12h-235l-43 -114l-31 -85l-61 -173l-98 -268l-97 -266l-97 -268l-65 -173q-27 -73 -67 -199h242q-7 -12 -13 -24q-5 -11 -12 -22l-26 -1l-155 1l-78 1l-51 1q-8 0 -34 -2q41 134 152 420
q147 382 290 798q98 287 154 420z" />
    <glyph glyph-name="backslash" unicode="\" horiz-adv-x="679" 
d="M445 1508l82 -1650h-35l-86 1650h39z" />
    <glyph glyph-name="bracketright" unicode="]" horiz-adv-x="819" 
d="M813 1456h-225l12 24q4 7 10 19l34 1l129 1h77h57l28 -1l-12 -35q-37 -113 -139 -383q-175 -461 -291 -798q-100 -293 -154 -420q-25 2 -33 2l-51 -1l-78 -1l-156 -1l-26 1q6 12 14 23t15 23h222q52 127 78 200l61 172l97 268l97 266l98 268l64 173l31 85q13 38 41 114z
" />
    <glyph glyph-name="asciicircum" unicode="^" 
d="M1073 588h-68l-431 659l-440 -659h-182l563 845h12z" />
    <glyph glyph-name="underscore" unicode="_" 
d="M51 -179h922v-77h-922v77z" />
    <glyph glyph-name="grave" unicode="`" 
d="M597 1204q102 -29 179 -124t96 -219q-116 193 -304 256z" />
    <glyph glyph-name="a" unicode="a" horiz-adv-x="768" 
d="M680 153l18 -26q-105 -79 -287 -124q5 101 119 348q-129 -152 -265.5 -252t-216.5 -100q-70 0 -70 89q0 151 135 326.5t339 288.5q230 129 458 129q32 0 32 -24q0 -20 -30 -76q-68 12 -132 12q-305 0 -525 -237q-162 -174 -162 -345q0 -80 59 -80q50 0 144 86.5
t168 200.5q102 158 139 328q43 -26 43 -96q0 -97 -98 -223q48 4 119 28l-8 -17q-95 -213 -95 -249q0 -29 27 -27q25 2 89 40z" />
    <glyph glyph-name="b" unicode="b" horiz-adv-x="756" 
d="M601 1375q-12 -150 -274 -772l-18 -41q109 117 237 192t221 75q92 0 92 -97q0 -110 -100 -256t-255 -264q-282 -212 -545 -212l14 32q187 434 324.5 784t137.5 392q0 30 -36 30q-22 0 -71 -18l-11 31q130 47 284 124zM109 100q27 -4 41 -4q221 0 395 223q70 90 116.5 192
t46.5 165q0 70 -66 70q-114 0 -275 -195.5t-258 -450.5z" />
    <glyph glyph-name="c" unicode="c" horiz-adv-x="606" 
d="M736 841l-141 -263h-35l8 17q35 76 35 105q0 36 -76 36q-117 0 -202 -99q-81 -94 -138.5 -224.5t-57.5 -219.5q0 -110 101 -110q86 0 177 74t153 195l26 50q2 4 9 17q11 -19 11 -39q0 -86 -128 -210q-189 -182 -345 -182q-133 0 -133 150q0 129 87 278t231 268
q193 159 377 159q12 0 41 -2z" />
    <glyph glyph-name="d" unicode="d" horiz-adv-x="799" 
d="M1051 1371q-4 -66 -94 -293l-74 -186l-29 -72q60 -24 65 -98q-42 14 -96 17l-7 -18l-129 -328q-90 -229 -90 -261q0 -28 27 -28q28 0 92 39q3 2 10 6l19 -24q-108 -75 -302 -130l8 33q32 120 105 300l42 103l112 292l10 22q-108 0 -233 -57.5t-219 -149.5
q-176 -175 -176 -360q0 -85 62 -85q61 0 152.5 84t161.5 204q66 114 108 255q17 -37 17 -79q0 -83 -71.5 -193t-191.5 -213q-179 -152 -279 -152q-76 0 -76 95q0 83 53.5 191t142.5 206q249 273 579 329l27 69l72 189q32 82 33 112q2 43 -43 43q-26 0 -58 -13l-12 30l16 6
q163 61 266 115z" />
    <glyph glyph-name="e" unicode="e" horiz-adv-x="594" 
d="M568 443q14 -28 14 -50q0 -96 -133 -221q-194 -183 -330 -183q-117 0 -117 133q0 150 91.5 315t234.5 272q174 130 310 130q79 0 79 -58q0 -38 -38 -91.5t-95 -96.5q-53 -39 -134.5 -72t-125.5 -33q-47 0 -65 52q42 -6 67 -6q100 0 184.5 57.5t84.5 124.5q0 48 -62 48
q-111 0 -227 -136q-82 -96 -135 -224t-53 -228q0 -103 86 -103q94 0 195.5 103.5t168.5 266.5z" />
    <glyph glyph-name="f" unicode="f" horiz-adv-x="390" 
d="M563 809l-9 -31h-162l-272 -768q-39 0 -52 -9t-29 -48q-83 -195 -140 -282q-66 -104 -151.5 -166t-160.5 -62q-41 0 -68.5 21t-27.5 53q0 10 5 29q54 -13 104 -13q175 0 277.5 164.5t302.5 766.5l93 280l11 34h-111l11 28h12l28 2q71 0 116 102q59 135 133.5 216
t208.5 158q146 83 242 83q69 0 67 -30q-1 -12 -19 -65l-47 -139h-32q19 61 19 93q0 51 -93 51q-136 0 -227.5 -99.5t-179.5 -342.5l-9 -26h160z" />
    <glyph glyph-name="g" unicode="g" horiz-adv-x="771" 
d="M641 360q-127 -421 -262 -615q-91 -131 -235.5 -222t-262.5 -91q-53 0 -87 25.5t-34 65.5q0 24 11 50q86 -72 195 -72q335 0 543 816q-132 -147 -253.5 -235.5t-191.5 -88.5q-84 0 -84 107q0 124 107 280t274 275q244 174 521 174q63 0 63 -37q0 -16 -17 -57l-4 -11
q-54 9 -122 9q-194 0 -327 -55t-236 -178q-64 -77 -106 -168.5t-42 -155.5q0 -97 62 -97q50 0 132.5 72t157.5 180q117 170 144 324q41 -38 41 -90q0 -86 -99 -222l12 2l42 6l44 7z" />
    <glyph glyph-name="h" unicode="h" horiz-adv-x="770" 
d="M685 142l18 -26q-98 -53 -254 -109l-25 -9q11 156 216 594q32 68 32 92q0 31 -23 31q-26 0 -92 -52t-128 -122q-94 -104 -187.5 -244.5t-138.5 -244.5q-70 -9 -130 -40l11 26l126 307l117 298l119 297q86 219 86 270q0 35 -32 35q-15 0 -59 -15l-13 -5l-10 29
q119 40 239 105l19 11q1 -19 1 -28q0 -74 -50 -218.5t-200 -504.5l-108 -261l-12 -28l17 21q383 474 547 474q48 0 48 -48q0 -35 -36 -114l-62 -137q-157 -346 -157 -401q0 -22 23 -22q27 0 89 34z" />
    <glyph glyph-name="i" unicode="i" horiz-adv-x="365" 
d="M418 855v-11q0 -94 -124 -372l-74 -168q-59 -135 -61 -165q-1 -31 34 -29q20 1 66 21l13 -29q-157 -75 -251 -107q5 94 30.5 173.5t110.5 263.5q108 236 110 276q2 31 -26 31q-13 0 -34 -7l-42 -15q-4 -1 -19 -7l-10 32l21 7q111 41 226 92zM476 1111q46 0 46 -46
q0 -26 -20.5 -47t-46.5 -21q-47 0 -47 46q0 26 20.5 47t47.5 21z" />
    <glyph glyph-name="j" unicode="j" horiz-adv-x="333" 
d="M447 860q-207 -675 -518 -1043q-135 -160 -309.5 -270t-292.5 -110q-55 0 -92 27.5t-37 68.5q0 17 6 37q81 -56 170 -56q178 0 338 141.5t310 430.5q85 164 163.5 362.5t78.5 248.5q0 43 -47 43q-18 0 -50 -7l-5 30l31 9q159 44 254 88zM506 1111q46 0 46 -46
q0 -26 -20.5 -47t-46.5 -21q-47 0 -47 46q0 26 20.5 47t47.5 21z" />
    <glyph glyph-name="k" unicode="k" horiz-adv-x="775" 
d="M407 414q51 -8 84.5 -44.5t33.5 -83.5q0 -23 -9 -56l-18 -64q-6 -23 -6 -39q0 -56 51 -56q45 0 87.5 57.5t69.5 154.5q20 -30 20 -60q0 -67 -90 -147.5t-164 -80.5q-93 0 -93 100q0 36 25 103q29 77 29 111q0 113 -154 113q-9 0 -29 -1l-43 -107l-30 -77
q-34 -85 -63 -173l-7 -21q-45 -9 -117 -36l-18 -6q46 98 111 261l113 285l122 311q113 287 116 348q2 40 -40 40q-16 0 -32 -6l-25 -9q-5 -2 -17 -6l-9 31q126 43 255 115l19 11q-22 -211 -202 -636l-69 -171l-13 -32q109 133 243.5 211t254.5 78q92 0 92 -68
q0 -75 -100.5 -144.5t-260.5 -106.5q-95 -21 -117 -99zM330 522h14q148 0 276 61t128 132q0 56 -59 56q-69 0 -180.5 -77t-178.5 -172z" />
    <glyph glyph-name="l" unicode="l" horiz-adv-x="335" 
d="M598 1375q0 -122 -162 -489q-281 -639 -286 -742q-2 -45 36 -43q29 1 103 59l12 9l19 -26q-161 -141 -236 -141q-60 0 -60 84q0 65 41.5 182t198.5 493l95 228q86 205 86 239q0 27 -31 27q-11 0 -53 -13q-5 -2 -15 -5l-10 29l15 6q173 66 247 103z" />
    <glyph glyph-name="m" unicode="m" horiz-adv-x="1111" 
d="M1001 150l16 -26q-106 -76 -252 -124q16 218 205 606l29 62q8 15 8 25q0 24 -21 24q-43 0 -170 -128q-92 -92 -173.5 -235t-132.5 -298q-59 -15 -141 -56l11 28l60 147q66 163 120 322t54 193q0 29 -27 29q-34 0 -113 -80.5t-147 -184.5q-118 -182 -205 -403
q-13 -4 -15 -5l-53 -19q-32 -11 -66 -25q24 51 94 220l78 188q88 214 91 267q2 36 -29 36q-20 0 -60 -18l-12 32q87 34 224 119l22 14q3 -23 3 -39q0 -85 -104 -338q278 355 431 355q45 0 45 -48q0 -72 -101 -320q115 151 249.5 260t206.5 109q42 0 42 -42q0 -29 -76 -191
q-183 -393 -183 -456q0 -27 26 -27q19 0 66 27z" />
    <glyph glyph-name="n" unicode="n" horiz-adv-x="797" 
d="M685 145l16 -27q-120 -86 -284 -120q21 165 194 501l65 124q33 64 33 82q0 27 -22 27q-31 0 -117.5 -70t-168.5 -162q-170 -190 -285 -456q-47 -11 -133 -48q92 188 185.5 422.5t93.5 277.5q0 36 -29 36q-15 0 -65 -15q-4 -1 -11 -3l-6 32q140 40 253 90l13 6
q2 -13 2 -18q0 -89 -131 -379l-14 -30l17 19q164 187 302.5 294.5t216.5 107.5q49 0 49 -50q0 -52 -131 -307q-157 -304 -157 -342q0 -29 27 -29q30 0 82 33z" />
    <glyph glyph-name="o" unicode="o" horiz-adv-x="679" 
d="M743 738q-53 5 -88 5q-263 0 -403 -202q-55 -80 -93 -183.5t-38 -173.5q0 -49 28.5 -80.5t72.5 -31.5q104 0 230 167t126 306q0 31 -16.5 52.5t-39.5 21.5q-80 0 -153 -160q-5 20 -5 35q0 62 77 130t146 68q46 0 78 -37.5t32 -91.5q0 -181 -231 -384q-198 -176 -329 -176
q-57 0 -94.5 41t-37.5 103q0 137 95.5 286.5t251.5 257.5q86 59 187.5 97t172.5 38q44 0 44 -39q0 -15 -13 -49z" />
    <glyph glyph-name="p" unicode="p" horiz-adv-x="645" 
d="M477 1005l-60 -177q256 0 256 -202q0 -113 -56.5 -238t-150.5 -221q-134 -136 -235 -136q-61 0 -61 51q0 22 13 46q51 -33 87 -33q93 0 175 105q57 73 96 174t39 177q0 174 -202 174l-10 -25l-177 -462l-274 -699l-17 -45q-48 -21 -100 -33l-17 -5l13 31q121 276 353 934
l9 27l11 2q53 13 77 48.5t83 187.5l15 39l-26 1q-78 0 -147 -10l-54 -138l-28 12l86 227l17 2l82 5l92 4q3 0 16 1l62 176h33z" />
    <glyph glyph-name="q" unicode="q" horiz-adv-x="747" 
d="M637 383l-11 -27l-156 -408l-162 -403l-19 -46q-43 -13 -115 -53l-17 -10l19 43q74 173 108 261l76 193q108 277 145 379q-297 -307 -437 -307q-39 0 -64.5 29.5t-25.5 76.5q0 102 87.5 240t222.5 246q140 114 305 178.5t313 64.5q48 0 48 -27q0 -16 -27 -66
q-81 6 -128 6q-319 0 -528 -229q-71 -78 -116 -172.5t-45 -166.5q0 -76 66 -76q81 0 216 157q147 169 207 389l5 19q41 -38 41 -89q0 -91 -95 -216q28 2 45 6l28 5q5 1 14 3z" />
    <glyph glyph-name="r" unicode="r" horiz-adv-x="513" 
d="M701 827l-36 -101q-38 8 -67 8q-116 0 -248 -178q-62 -85 -106.5 -185t-110.5 -305l-11 -34q-65 -14 -124 -34l11 30l88 234q125 338 125 398q0 31 -27 31q-15 0 -67 -27l-13 31q140 68 251 151q4 -18 4 -33q0 -77 -69 -257l24 28q233 256 330 256q21 0 46 -13z" />
    <glyph glyph-name="s" unicode="s" horiz-adv-x="461" 
d="M610 829l-11 -19l-49 -82q-26 -44 -55 -88l-11 -16l-25 17q5 11 7 16q21 43 21 61q0 38 -67 38q-61 0 -107 -45.5t-46 -105.5q0 -32 20 -76l48 -103q24 -52 24 -114q0 -121 -133 -229q-115 -93 -204 -93q-51 0 -84 25.5t-33 65.5q0 47 24 91q62 -106 154 -106
q73 0 129 50t56 116q0 35 -20 80l-59 129q-17 38 -17 84q0 83 92 186q62 68 123.5 95.5t154.5 27.5q36 0 68 -5z" />
    <glyph glyph-name="t" unicode="t" horiz-adv-x="406" 
d="M568 832l-13 -30h-141l-8 -17q-19 -40 -103 -234l-96 -218q-73 -162 -73 -205t44 -43q53 0 145 62l16 -26q-60 -46 -137 -78t-127 -32q-75 0 -75 59q0 42 84 236l104 237q87 201 101 236l10 23h-131l14 30h13q86 0 115.5 27t80.5 152q15 -1 20 -1q48 0 95 12
q-11 -29 -39 -95l-30 -72l-10 -23h141z" />
    <glyph glyph-name="u" unicode="u" horiz-adv-x="747" 
d="M835 825q-70 -134 -170 -377t-102 -283q-1 -31 34 -31q27 0 79 20l13 -27q-73 -38 -241 -102l-27 -10q26 163 100 348q-129 -163 -244.5 -255.5t-190.5 -92.5q-66 0 -66 69q0 83 123 341l80 168q37 78 39 112q2 33 -34 33q-16 0 -56 -12l-8 30l16 5q140 41 233 81
q0 -80 -89 -263l-87 -178q-100 -205 -100 -251q0 -43 38 -43q97 0 257 202.5t255 446.5l13 32q58 6 135 37z" />
    <glyph glyph-name="v" unicode="v" horiz-adv-x="657" 
d="M492 806h328q-149 -463 -589 -706l-102 -56l-72 -40l-19 -10q76 166 135 365t59 289q0 97 -42 97q-24 0 -86 -42l-17 31l15 9q133 85 184 85q67 0 67 -128q0 -140 -98 -404l-54 -139l-10 -27q445 213 514 573h-85q-87 0 -118.5 -15.5t-60.5 -73.5l-8 -16h-36
q62 113 95 208z" />
    <glyph glyph-name="w" unicode="w" horiz-adv-x="987" 
d="M816 806h341q-105 -312 -426 -575l-117 -96q-33 -27 -80 -69l-67 -60q-2 -2 -20 -16l11 48q29 140 61 317q43 247 57 316q-31 -37 -70 -113q-214 -418 -437 -563q73 178 117.5 350t44.5 277q0 96 -44 96q-21 0 -63 -33l-16 28l21 14q84 55 139 99q84 -39 84 -151
q0 -147 -98 -431l-17 -50q46 63 71 108l88 161q150 273 320 373l-146 -683q26 22 151 120q278 220 324 426h-140h-37q-58 0 -81 -48l-21 -44l-8 -16h-36z" />
    <glyph glyph-name="x" unicode="x" horiz-adv-x="903" 
d="M1004 805l-9 -18q-48 -100 -94 -209l-9 -21l-32 6q24 67 24 93q0 39 -60 39q-174 0 -305 -279h199l-16 -31h-197q-49 -83 -49 -176q0 -56 35.5 -91t90.5 -35q98 0 176 89.5t100 226.5q23 -27 23 -68q0 -95 -135 -221q-126 -118 -241 -118q-68 0 -109 41.5t-41 111.5
q0 28 8 64q-12 -11 -13 -12l-65 -58q-161 -146 -263 -146q-50 0 -84 26.5t-34 65.5q0 26 27 69q33 -91 138 -91q83 0 178.5 91.5t158.5 230.5h-195l16 31h194l6 15l28 68q38 96 38 163q0 85 -74 85q-97 0 -179 -101.5t-89 -229.5q-26 31 -26 77q0 107 129.5 222t250.5 115
q105 0 105 -120q0 -40 -16 -100l15 14q128 118 190 155t133 37q32 0 72 -11z" />
    <glyph glyph-name="y" unicode="y" horiz-adv-x="782" 
d="M333 810q16 -41 16 -101q0 -123 -58 -350q158 208 294.5 325.5t218.5 117.5q58 0 58 -97q0 -246 -288 -553q-131 -140 -246 -206t-265 -89q-129 -20 -186 -60t-57 -111q0 -54 54.5 -87.5t141.5 -33.5q107 0 196 53q-23 -125 -195 -125q-103 0 -168 49t-65 127
q0 98 97 206q47 51 100.5 70t200.5 34q133 14 213 65q129 82 220 215q53 77 89 172.5t36 160.5q0 82 -55 82q-93 0 -258 -199t-284 -456l-9 -19h-35l10 38q114 401 114 579q0 63 -41 63q-17 0 -46 -11q-5 -2 -14 -5l-9 30q12 6 15 8l94 46l96 53q3 2 15 9z" />
    <glyph glyph-name="z" unicode="z" horiz-adv-x="721" 
d="M281 806l546 4q-8 -12 -10 -14l-49 -72l-43 -61q-134 -195 -252 -281.5t-291 -117.5q54 -37 117 -100q84 -85 156 -85q81 0 131 75.5t50 196.5q0 55 -16 117q67 -39 67 -132q0 -84 -73 -201q-90 -145 -228 -145q-116 0 -229 125q-69 76 -103 76q-37 0 -88 -82h-38
q67 108 127 225q49 -11 90 -11q159 0 296.5 91.5t269.5 286.5q-47 4 -105 4q-236 0 -293 -21t-103 -127l-7 -16h-34l10 23q47 101 93 218z" />
    <glyph glyph-name="braceleft" unicode="{" horiz-adv-x="672" 
d="M218 703l27 39q14 -1 23 -1q143 0 257 300l48 129q41 108 95 167.5t161 114.5q97 50 144 50q32 0 30 -45q0 -6 -2 -16q-25 9 -59 9q-152 0 -245 -252l-49 -130q-44 -122 -133 -215.5t-198 -135.5q92 -56 92 -207q0 -82 -39 -190l-40 -111q-48 -133 -48 -191
q0 -103 102 -103q34 0 65 9q-37 -61 -72 -61q-63 0 -129.5 66t-66.5 129q0 53 31 138q119 325 119 422q0 85 -73 85l-18 1z" />
    <glyph glyph-name="bar" unicode="|" 
d="M465 1365h95v-1706h-95v1706z" />
    <glyph glyph-name="braceright" unicode="}" horiz-adv-x="672" 
d="M747 742l-19 -39q-18 2 -29 2q-145 0 -270 -333l-54 -141q-45 -120 -101 -186t-165 -127q-99 -55 -146 -55q-30 0 -30 45q0 5 1 16q26 -9 60 -9q152 0 255 279l53 145q50 135 143 239.5t203 150.5q-100 53 -100 193q0 86 68 264q42 107 42 179q0 85 -106 85q-35 0 -65 -9
q36 59 72 61q63 3 133 -61t70 -125q0 -43 -26 -115q-105 -286 -105 -382q0 -76 76 -76l18 -1h22z" />
    <glyph glyph-name="asciitilde" unicode="~" horiz-adv-x="1365" 
d="M1091 1502l26 -17q-48 -84 -126 -137.5t-151 -53.5q-45 0 -133 29q-174 58 -240 58q-52 0 -89 -21.5t-87 -80.5l-16 -20l-27 17q121 193 280 193q64 0 193 -45q108 -37 160 -37q119 0 210 115z" />
    <glyph glyph-name="Adieresis" unicode="&#xc4;" horiz-adv-x="1683" 
d="M1326 1485l28 -26q-42 -47 -55 -87t-13 -123q0 -340 152 -816q85 -264 133 -264q23 0 74 53l25 -24l-12 -13q-86 -92 -157 -178l-20 -25q-127 263 -212.5 573t-85.5 505q0 82 12 188l3 27q-80 -83 -245 -290q-103 -129 -186 -223l-23 -26q55 4 123 4l291 -5l41 -2
q-36 -100 -70 -248h-38q14 54 14 84q0 38 -26 50t-107 12h-145l-163 -3l-20 -1l-26 -26q-216 -210 -291 -274t-222 -161l-28 -19q71 6 153 6q189 0 289 -12l188 -21q75 -9 135 -9q155 0 247.5 80t114.5 234q37 -22 37 -57q0 -86 -115 -197q-179 -172 -389 -172
q-70 0 -192 13q-297 31 -466 31l-210 -5h-19l63 101q264 96 489 299t635 714q197 245 289 333zM1470 1684q46 0 46 -46q0 -26 -20.5 -47t-46.5 -21q-47 0 -47 46q0 27 20.5 47.5t47.5 20.5zM1262 1684q46 0 46 -46q0 -26 -20.5 -47t-46.5 -21q-47 0 -47 46q0 27 20.5 47.5
t47.5 20.5z" />
    <glyph glyph-name="Aring" unicode="&#xc5;" horiz-adv-x="1683" 
d="M1326 1485l28 -26q-42 -47 -55 -87t-13 -123q0 -340 152 -816q85 -264 133 -264q23 0 74 53l25 -24l-12 -13q-86 -92 -157 -178l-20 -25q-127 263 -212.5 573t-85.5 505q0 82 12 188l3 27q-80 -83 -245 -290q-103 -129 -186 -223l-23 -26q55 4 123 4l291 -5l41 -2
q-36 -100 -70 -248h-38q14 54 14 84q0 38 -26 50t-107 12h-145l-163 -3l-20 -1l-26 -26q-216 -210 -291 -274t-222 -161l-28 -19q71 6 153 6q189 0 289 -12l188 -21q75 -9 135 -9q155 0 247.5 80t114.5 234q37 -22 37 -57q0 -86 -115 -197q-179 -172 -389 -172
q-70 0 -192 13q-297 31 -466 31l-210 -5h-19l63 101q264 96 489 299t635 714q197 245 289 333zM1473 1781q28 0 45.5 -20t16.5 -48q-3 -62 -64.5 -119t-124.5 -57q-64 0 -64 68q0 59 63.5 117.5t127.5 58.5zM1444 1741q-31 3 -68.5 -40.5t-37.5 -82.5q0 -37 36 -37
t69.5 37.5t33.5 77.5q0 42 -33 45z" />
    <glyph glyph-name="Ccedilla" unicode="&#xc7;" horiz-adv-x="1566" 
d="M543 -19l-41 -89q47 15 84 15q108 0 108 -86q0 -114 -107 -203q-92 -75 -177 -75q-81 0 -81 80q0 87 89 118q-19 -47 -19 -74q0 -69 54 -69q59 0 109.5 59t50.5 128q0 71 -86 71q-56 0 -109 -46l78 173q-166 22 -264 135.5t-98 285.5q0 203 104 403.5t283 341.5
q338 266 809 266q218 0 345 -85t127 -232q0 -162 -157.5 -281.5t-369.5 -119.5q-124 0 -454 81q-183 45 -268 45q-64 0 -130 -24l12 15q67 76 98 119q47 4 66 4q119 0 456 -91q235 -64 352 -64q137 0 230.5 77t93.5 189q0 135 -144.5 222t-368.5 87q-194 0 -384.5 -74
t-319.5 -200q-275 -268 -275 -611q0 -178 103.5 -282.5t279.5 -104.5q182 0 302 153t120 385v34q50 -31 50 -113q0 -105 -73.5 -231.5t-189.5 -219.5q-137 -112 -288 -112z" />
    <glyph glyph-name="Eacute" unicode="&#xc9;" horiz-adv-x="2361" 
d="M2118 1365l-6 -16q-23 -70 -34 -111l-28 -105q0 -2 -5 -19h-38l4 14q14 55 14 81q0 35 -21.5 45t-95.5 10l-33 -1h-224l-4 -15q-66 -260 -107 -342q-79 -156 -223 -237q-112 -63 -224 -98q128 -44 320 -166q132 -84 171 -106q104 131 104 268q0 210 -173 285h353
l-28 -108h-166q89 -87 89 -213q0 -125 -114 -270l18 -11q134 -77 202 -103t133 -26q134 0 224 93t102 244q39 -27 39 -83t-59 -129.5t-147 -128.5l-117 -72q-67 -42 -86 -42q-49 0 -177 54t-232 118q-107 -76 -280.5 -123t-352.5 -47q-341 0 -536 142.5t-195 391.5
q0 310 321 552q187 141 381 204t439 63l182 -1l161 1l216 2l213 5h20zM1545 1263h-215q-269 0 -404.5 -24t-271.5 -95q-166 -86 -261 -238.5t-95 -330.5q0 -234 174 -385q165 -144 475 -144q313 0 547 165q-23 12 -25 14l-218 137q-113 71 -256.5 117.5t-250.5 46.5
q-58 0 -124 -15q48 53 77 112q26 7 68 7q39 0 76 -5l86 -12q42 -6 80 -6q187 0 321 143q131 141 217 513zM1899 1818l51 -87q-188 -63 -304 -256q28 281 253 343z" />
    <glyph glyph-name="Ntilde" unicode="&#xd1;" horiz-adv-x="2487" 
d="M2921 1380l-78 -263l-36 7l3 19q9 47 9 71q0 42 -43.5 61.5t-138.5 19.5q-267 0 -409 -200q-142 -199 -199 -495q24 -16 36 -25q138 -92 175 -138t37 -123q0 -106 -63.5 -206.5t-130.5 -100.5q-69 0 -110.5 71t-41.5 191q0 118 22 227l-29 20l-88 61q-126 87 -298 222
l-18 15q-74 -237 -167 -374q-143 -208 -328.5 -325.5t-372.5 -117.5q-224 0 -367.5 135.5t-143.5 346.5t142.5 342.5t371.5 131.5q236 0 466 -186q64 -51 97 -51q28 0 93 41q6 4 19 12l20 -29l-17 -12l-80 -53l-90 -59l-23 -16q-278 283 -576 283q-159 0 -263 -97t-104 -246
q0 -200 150.5 -330t383.5 -130q157 0 296.5 84.5t240.5 240.5q98 152 188 461l-38 33q-163 140 -266.5 259t-103.5 166q0 31 57 142l47 93l36 -14q-38 -81 -38 -116q0 -50 96 -165t251 -252q34 150 142 199q-34 -95 -78 -256l16 -14q115 -100 384 -294l21 -16
q119 402 299.5 588t452.5 186q80 0 187 -25zM2002 466q-8 -59 -8 -116q0 -266 113 -266q42 0 69 37t27 93q0 64 -41 115t-160 137zM1823 1533q31 97 63.5 134t87.5 37q34 0 111 -20q64 -16 93 -16q61 0 82 62l21 -4q-26 -90 -60 -127t-90 -37q-23 0 -44 5l-67 17
q-67 16 -98 16q-29 0 -43.5 -11.5t-29.5 -47.5l-6 -12z" />
    <glyph glyph-name="Odieresis" unicode="&#xd6;" horiz-adv-x="1848" 
d="M1685 1368l-90 -250q168 -48 244.5 -134t76.5 -225q0 -267 -231 -488q-143 -137 -344.5 -213t-422.5 -76q-334 0 -530.5 151.5t-196.5 408.5q0 195 104.5 359.5t301.5 279.5q353 206 820 206q150 0 268 -19zM1577 1073q-117 -287 -322.5 -443.5t-464.5 -156.5l-86 1
q-25 0 -47 -5q-19 -5 -49 -19q8 16 11 20l26 54q35 71 118 71h124q76 0 148 10q171 23 286.5 137.5t199.5 344.5q-97 22 -178 22q-215 0 -360.5 -101.5t-192.5 -283.5q-23 36 -23 77q0 149 168 248t420 99q68 0 162 -12l21 -3l46 149q-183 26 -320 26q-472 0 -698 -206
q-111 -102 -174 -245.5t-63 -295.5q0 -242 162 -378q186 -155 496 -155q338 0 566.5 205.5t228.5 509.5q0 125 -56.5 216t-148.5 114zM1429 1684q46 0 46 -46q0 -26 -20.5 -47t-46.5 -21q-47 0 -47 46q0 26 20.5 47t47.5 21zM1221 1684q46 0 46 -46q0 -26 -20.5 -47
t-46.5 -21q-47 0 -47 46q0 26 20.5 47t47.5 21z" />
    <glyph glyph-name="Udieresis" unicode="&#xdc;" horiz-adv-x="2529" 
d="M1912 434q-52 -157 -132 -302q25 2 33 2q67 0 176 -6q107 -6 134 -6q152 0 253.5 114.5t101.5 286.5q0 21 -3 65q47 -38 47 -109q0 -142 -135 -286q-160 -171 -359 -171q-52 0 -129 9q-177 20 -236 20q65 157 95 262q-20 -14 -25 -18l-87 -61q-130 -92 -290 -161
t-244 -69q-71 0 -114.5 36.5t-43.5 94.5q0 79 70 257l106 269q180 456 180 556q0 93 -189 93q-221 0 -411 -83t-299 -226q-134 -178 -134 -413q0 -69 23 -185q-102 86 -102 260q0 163 98 303.5t281 240.5q157 86 321.5 122t399.5 36q111 0 199 -8q-53 -253 -252 -741
q-110 -270 -135 -340t-25 -110q0 -99 103 -99q101 0 312 126q189 112 282 186q36 109 88 304q61 233 124.5 363t164.5 228q142 137 262 137q102 0 102 -127q0 -322 -584 -826zM1936 507q206 164 347.5 381t141.5 367q0 97 -64 97q-75 0 -172 -156q-61 -98 -106 -218.5
t-127 -404.5zM2008 1684q46 0 46 -46q0 -26 -20.5 -47t-46.5 -21q-47 0 -47 46q0 27 20.5 47.5t47.5 20.5zM1800 1684q46 0 46 -46q0 -26 -20.5 -47t-46.5 -21q-47 0 -47 46q0 27 20.5 47.5t47.5 20.5z" />
    <glyph glyph-name="aacute" unicode="&#xe1;" horiz-adv-x="768" 
d="M680 153l18 -26q-105 -79 -287 -124q5 101 119 348q-129 -152 -265.5 -252t-216.5 -100q-70 0 -70 89q0 151 135 326.5t339 288.5q230 129 458 129q32 0 32 -24q0 -20 -30 -76q-68 12 -132 12q-305 0 -525 -237q-162 -174 -162 -345q0 -80 59 -80q50 0 144 86.5
t168 200.5q102 158 139 328q43 -26 43 -96q0 -97 -98 -223q48 4 119 28l-8 -17q-95 -213 -95 -249q0 -29 27 -27q25 2 89 40zM820 1204l38 -87q-178 -62 -289 -256q46 284 251 343z" />
    <glyph glyph-name="agrave" unicode="&#xe0;" horiz-adv-x="768" 
d="M680 153l18 -26q-105 -79 -287 -124q5 101 119 348q-129 -152 -265.5 -252t-216.5 -100q-70 0 -70 89q0 151 135 326.5t339 288.5q230 129 458 129q32 0 32 -24q0 -20 -30 -76q-68 12 -132 12q-305 0 -525 -237q-162 -174 -162 -345q0 -80 59 -80q50 0 144 86.5
t168 200.5q102 158 139 328q43 -26 43 -96q0 -97 -98 -223q48 4 119 28l-8 -17q-95 -213 -95 -249q0 -29 27 -27q25 2 89 40zM510 1204q102 -29 179 -124t96 -219q-116 193 -304 256z" />
    <glyph glyph-name="acircumflex" unicode="&#xe2;" horiz-adv-x="768" 
d="M680 153l18 -26q-105 -79 -287 -124q5 101 119 348q-129 -152 -265.5 -252t-216.5 -100q-70 0 -70 89q0 151 135 326.5t339 288.5q230 129 458 129q32 0 32 -24q0 -20 -30 -76q-68 12 -132 12q-305 0 -525 -237q-162 -174 -162 -345q0 -80 59 -80q50 0 144 86.5
t168 200.5q102 158 139 328q43 -26 43 -96q0 -97 -98 -223q48 4 119 28l-8 -17q-95 -213 -95 -249q0 -29 27 -27q25 2 89 40zM769 1250v-22l1 -125q0 -68 7 -151q-11 -8 -14 -11l-42 -31q-22 -16 -40 -36q2 27 2 55q0 128 -23 128q-16 0 -43 -30l-37 -40q-73 -80 -111 -80
q-12 0 -25 7l10 9l68 57q106 90 234 254z" />
    <glyph glyph-name="adieresis" unicode="&#xe4;" horiz-adv-x="768" 
d="M680 153l18 -26q-105 -79 -287 -124q5 101 119 348q-129 -152 -265.5 -252t-216.5 -100q-70 0 -70 89q0 151 135 326.5t339 288.5q230 129 458 129q32 0 32 -24q0 -20 -30 -76q-68 12 -132 12q-305 0 -525 -237q-162 -174 -162 -345q0 -80 59 -80q50 0 144 86.5
t168 200.5q102 158 139 328q43 -26 43 -96q0 -97 -98 -223q48 4 119 28l-8 -17q-95 -213 -95 -249q0 -29 27 -27q25 2 89 40zM755 1083q46 0 46 -46q0 -26 -20.5 -47t-46.5 -21q-47 0 -47 46q0 27 20.5 47.5t47.5 20.5zM547 1083q46 0 46 -46q0 -26 -20.5 -47t-46.5 -21
q-47 0 -47 46q0 27 20.5 47.5t47.5 20.5z" />
    <glyph glyph-name="atilde" unicode="&#xe3;" horiz-adv-x="768" 
d="M680 153l18 -26q-105 -79 -287 -124q5 101 119 348q-129 -152 -265.5 -252t-216.5 -100q-70 0 -70 89q0 151 135 326.5t339 288.5q230 129 458 129q32 0 32 -24q0 -20 -30 -76q-68 12 -132 12q-305 0 -525 -237q-162 -174 -162 -345q0 -80 59 -80q50 0 144 86.5
t168 200.5q102 158 139 328q43 -26 43 -96q0 -97 -98 -223q48 4 119 28l-8 -17q-95 -213 -95 -249q0 -29 27 -27q25 2 89 40zM458 932q29 91 56.5 122t77.5 31q30 0 99 -17q58 -14 84 -14q49 0 73 51l19 -4q-25 -84 -54 -115.5t-80 -31.5q-21 0 -40 4l-59 15q-60 14 -88 14
q-43 0 -66 -49q-1 -3 -5 -10z" />
    <glyph glyph-name="aring" unicode="&#xe5;" horiz-adv-x="768" 
d="M680 153l18 -26q-105 -79 -287 -124q5 101 119 348q-129 -152 -265.5 -252t-216.5 -100q-70 0 -70 89q0 151 135 326.5t339 288.5q230 129 458 129q32 0 32 -24q0 -20 -30 -76q-68 12 -132 12q-305 0 -525 -237q-162 -174 -162 -345q0 -80 59 -80q50 0 144 86.5
t168 200.5q102 158 139 328q43 -26 43 -96q0 -97 -98 -223q48 4 119 28l-8 -17q-95 -213 -95 -249q0 -29 27 -27q25 2 89 40zM706 1145q28 0 46 -20t16 -48q-3 -62 -64.5 -119t-124.5 -57q-64 0 -64 68q0 59 63.5 117.5t127.5 58.5zM677 1105q-31 3 -68.5 -40.5t-37.5 -82.5
q0 -37 36 -37t69.5 37.5t33.5 77.5q0 42 -33 45z" />
    <glyph glyph-name="ccedilla" unicode="&#xe7;" horiz-adv-x="606" 
d="M140 -11l-41 -92q45 15 80 15q102 0 102 -82q0 -93 -87.5 -178.5t-182.5 -85.5q-77 0 -77 76q0 82 85 112q-19 -47 -19 -71q0 -65 51 -65q56 0 104.5 56t48.5 121q0 68 -82 68q-53 0 -103 -44l78 173q-97 25 -97 147q0 128 87 277.5t231 267.5q194 159 377 159
q12 0 42 -2l-142 -263h-35l8 17q36 76 36 105q0 36 -76 36q-118 0 -203 -99q-81 -94 -138.5 -224.5t-57.5 -219.5q0 -109 101 -109q86 0 177.5 74t153.5 194l25 50q2 4 9 17q11 -20 11 -42q0 -105 -180 -253q-155 -128 -286 -135z" />
    <glyph glyph-name="eacute" unicode="&#xe9;" horiz-adv-x="594" 
d="M568 443q14 -28 14 -50q0 -96 -133 -221q-194 -183 -330 -183q-117 0 -117 133q0 150 91.5 315t234.5 272q174 130 310 130q79 0 79 -58q0 -38 -38 -91.5t-95 -96.5q-53 -39 -134.5 -72t-125.5 -33q-47 0 -65 52q42 -6 67 -6q100 0 184.5 57.5t84.5 124.5q0 48 -62 48
q-111 0 -227 -136q-82 -96 -135 -224t-53 -228q0 -103 86 -103q94 0 195.5 103.5t168.5 266.5zM692 1204l38 -87q-178 -62 -289 -256q46 284 251 343z" />
    <glyph glyph-name="egrave" unicode="&#xe8;" horiz-adv-x="594" 
d="M568 443q14 -28 14 -50q0 -96 -133 -221q-194 -183 -330 -183q-117 0 -117 133q0 150 91.5 315t234.5 272q174 130 310 130q79 0 79 -58q0 -38 -38 -91.5t-95 -96.5q-53 -39 -134.5 -72t-125.5 -33q-47 0 -65 52q42 -6 67 -6q100 0 184.5 57.5t84.5 124.5q0 48 -62 48
q-111 0 -227 -136q-82 -96 -135 -224t-53 -228q0 -103 86 -103q94 0 195.5 103.5t168.5 266.5zM423 1204q102 -29 179 -124t96 -219q-116 193 -304 256z" />
    <glyph glyph-name="ecircumflex" unicode="&#xea;" horiz-adv-x="594" 
d="M568 443q14 -28 14 -50q0 -96 -133 -221q-194 -183 -330 -183q-117 0 -117 133q0 150 91.5 315t234.5 272q174 130 310 130q79 0 79 -58q0 -38 -38 -91.5t-95 -96.5q-53 -39 -134.5 -72t-125.5 -33q-47 0 -65 52q42 -6 67 -6q100 0 184.5 57.5t84.5 124.5q0 48 -62 48
q-111 0 -227 -136q-82 -96 -135 -224t-53 -228q0 -103 86 -103q94 0 195.5 103.5t168.5 266.5zM723 1250v-22l1 -125q0 -68 7 -151q-11 -8 -14 -11l-42 -31q-22 -16 -40 -36q2 27 2 55q0 128 -23 128q-16 0 -43 -30l-37 -40q-73 -80 -111 -80q-12 0 -25 7l10 9l68 57
q106 90 234 254z" />
    <glyph glyph-name="edieresis" unicode="&#xeb;" horiz-adv-x="594" 
d="M568 443q14 -28 14 -50q0 -96 -133 -221q-194 -183 -330 -183q-117 0 -117 133q0 150 91.5 315t234.5 272q174 130 310 130q79 0 79 -58q0 -38 -38 -91.5t-95 -96.5q-53 -39 -134.5 -72t-125.5 -33q-47 0 -65 52q42 -6 67 -6q100 0 184.5 57.5t84.5 124.5q0 48 -62 48
q-111 0 -227 -136q-82 -96 -135 -224t-53 -228q0 -103 86 -103q94 0 195.5 103.5t168.5 266.5zM678 1083q46 0 46 -46q0 -26 -20.5 -47t-46.5 -21q-47 0 -47 46q0 27 20.5 47.5t47.5 20.5zM470 1083q46 0 46 -46q0 -26 -20.5 -47t-46.5 -21q-47 0 -47 46q0 27 20.5 47.5
t47.5 20.5z" />
    <glyph glyph-name="iacute" unicode="&#xed;" horiz-adv-x="365" 
d="M418 855v-11q0 -94 -124 -372l-74 -168q-59 -135 -61 -165q-1 -31 34 -29q20 1 66 21l13 -29q-157 -75 -251 -107q5 94 30.5 173.5t110.5 263.5q108 236 110 276q2 31 -26 31q-13 0 -34 -7l-42 -15q-4 -1 -19 -7l-10 32l21 7q111 41 226 92zM550 1204l38 -87
q-178 -62 -289 -256q46 284 251 343z" />
    <glyph glyph-name="igrave" unicode="&#xec;" horiz-adv-x="365" 
d="M418 855v-11q0 -94 -124 -372l-74 -168q-59 -135 -61 -165q-1 -31 34 -29q20 1 66 21l13 -29q-157 -75 -251 -107q5 94 30.5 173.5t110.5 263.5q108 236 110 276q2 31 -26 31q-13 0 -34 -7l-42 -15q-4 -1 -19 -7l-10 32l21 7q111 41 226 92zM336 1204q102 -29 179 -124
t96 -219q-116 193 -304 256z" />
    <glyph glyph-name="icircumflex" unicode="&#xee;" horiz-adv-x="365" 
d="M540 1250v-22l1 -125q0 -68 7 -151q-11 -8 -14 -11l-42 -31q-22 -16 -40 -36q2 27 2 55q0 128 -23 128q-16 0 -43 -30l-37 -40q-73 -80 -111 -80q-12 0 -25 7l10 9l68 57q106 90 234 254zM418 855v-11q0 -94 -124 -372l-74 -168q-59 -135 -61 -165q-1 -31 34 -29
q20 1 66 21l13 -29q-157 -75 -251 -107q5 94 30.5 173.5t110.5 263.5q108 236 110 276q2 31 -26 31q-13 0 -34 -7l-42 -15q-4 -1 -19 -7l-10 32l21 7q111 41 226 92z" />
    <glyph glyph-name="idieresis" unicode="&#xef;" horiz-adv-x="365" 
d="M418 855v-11q0 -94 -124 -372l-74 -168q-59 -135 -61 -165q-1 -31 34 -29q20 1 66 21l13 -29q-157 -75 -251 -107q5 94 30.5 173.5t110.5 263.5q108 236 110 276q2 31 -26 31q-13 0 -34 -7l-42 -15q-4 -1 -19 -7l-10 32l21 7q111 41 226 92zM522 1083q46 0 46 -46
q0 -26 -20.5 -47t-46.5 -21q-47 0 -47 46q0 27 20.5 47.5t47.5 20.5zM341 1083q46 0 46 -46q0 -26 -20.5 -47t-46.5 -21q-47 0 -47 46q0 27 20.5 47.5t47.5 20.5z" />
    <glyph glyph-name="ntilde" unicode="&#xf1;" horiz-adv-x="797" 
d="M685 145l16 -27q-120 -86 -284 -120q21 165 194 501l65 124q33 64 33 82q0 27 -22 27q-31 0 -117.5 -70t-168.5 -162q-170 -190 -285 -456q-47 -11 -133 -48q92 188 185.5 422.5t93.5 277.5q0 36 -29 36q-15 0 -65 -15q-4 -1 -11 -3l-6 32q140 40 253 90l13 6
q2 -13 2 -18q0 -89 -131 -379l-14 -30l17 19q164 187 302.5 294.5t216.5 107.5q49 0 49 -50q0 -52 -131 -307q-157 -304 -157 -342q0 -29 27 -29q30 0 82 33zM473 932q29 91 56.5 122t77.5 31q30 0 99 -17q58 -14 84 -14q49 0 73 51l19 -4q-25 -84 -54 -115.5t-80 -31.5
q-21 0 -40 4l-59 15q-60 14 -88 14q-43 0 -66 -49q-1 -3 -5 -10z" />
    <glyph glyph-name="oacute" unicode="&#xf3;" horiz-adv-x="679" 
d="M743 738q-53 5 -88 5q-263 0 -403 -202q-55 -80 -93 -183.5t-38 -173.5q0 -49 28.5 -80.5t72.5 -31.5q104 0 230 167t126 306q0 31 -16.5 52.5t-39.5 21.5q-80 0 -153 -160q-5 20 -5 35q0 62 77 130t146 68q46 0 78 -37.5t32 -91.5q0 -181 -231 -384q-198 -176 -329 -176
q-57 0 -94.5 41t-37.5 103q0 137 95.5 286.5t251.5 257.5q86 59 187.5 97t172.5 38q44 0 44 -39q0 -15 -13 -49zM775 1204l38 -87q-178 -62 -289 -256q46 284 251 343z" />
    <glyph glyph-name="ograve" unicode="&#xf2;" horiz-adv-x="679" 
d="M743 738q-53 5 -88 5q-263 0 -403 -202q-55 -80 -93 -183.5t-38 -173.5q0 -49 28.5 -80.5t72.5 -31.5q104 0 230 167t126 306q0 31 -16.5 52.5t-39.5 21.5q-80 0 -153 -160q-5 20 -5 35q0 62 77 130t146 68q46 0 78 -37.5t32 -91.5q0 -181 -231 -384q-198 -176 -329 -176
q-57 0 -94.5 41t-37.5 103q0 137 95.5 286.5t251.5 257.5q86 59 187.5 97t172.5 38q44 0 44 -39q0 -15 -13 -49zM424 1204q102 -29 179 -124t96 -219q-116 193 -304 256z" />
    <glyph glyph-name="ocircumflex" unicode="&#xf4;" horiz-adv-x="679" 
d="M743 738q-53 5 -88 5q-263 0 -403 -202q-55 -80 -93 -183.5t-38 -173.5q0 -49 28.5 -80.5t72.5 -31.5q104 0 230 167t126 306q0 31 -16.5 52.5t-39.5 21.5q-80 0 -153 -160q-5 20 -5 35q0 62 77 130t146 68q46 0 78 -37.5t32 -91.5q0 -181 -231 -384q-198 -176 -329 -176
q-57 0 -94.5 41t-37.5 103q0 137 95.5 286.5t251.5 257.5q86 59 187.5 97t172.5 38q44 0 44 -39q0 -15 -13 -49zM765 1250v-22l1 -125q0 -68 7 -151q-11 -8 -14 -11l-42 -31q-22 -16 -40 -36q2 27 2 55q0 128 -23 128q-16 0 -43 -30l-37 -40q-73 -80 -111 -80q-12 0 -25 7
l10 9l68 57q106 90 234 254z" />
    <glyph glyph-name="odieresis" unicode="&#xf6;" horiz-adv-x="679" 
d="M743 738q-53 5 -88 5q-263 0 -403 -202q-55 -80 -93 -183.5t-38 -173.5q0 -49 28.5 -80.5t72.5 -31.5q104 0 230 167t126 306q0 31 -16.5 52.5t-39.5 21.5q-80 0 -153 -160q-5 20 -5 35q0 62 77 130t146 68q46 0 78 -37.5t32 -91.5q0 -181 -231 -384q-198 -176 -329 -176
q-57 0 -94.5 41t-37.5 103q0 137 95.5 286.5t251.5 257.5q86 59 187.5 97t172.5 38q44 0 44 -39q0 -15 -13 -49zM751 1083q46 0 46 -46q0 -26 -20.5 -47t-46.5 -21q-47 0 -47 46q0 27 20.5 47.5t47.5 20.5zM543 1083q46 0 46 -46q0 -26 -20.5 -47t-46.5 -21q-47 0 -47 46
q0 27 20.5 47.5t47.5 20.5z" />
    <glyph glyph-name="otilde" unicode="&#xf5;" horiz-adv-x="679" 
d="M743 738q-53 5 -88 5q-263 0 -403 -202q-55 -80 -93 -183.5t-38 -173.5q0 -49 28.5 -80.5t72.5 -31.5q104 0 230 167t126 306q0 31 -16.5 52.5t-39.5 21.5q-80 0 -153 -160q-5 20 -5 35q0 62 77 130t146 68q46 0 78 -37.5t32 -91.5q0 -181 -231 -384q-198 -176 -329 -176
q-57 0 -94.5 41t-37.5 103q0 137 95.5 286.5t251.5 257.5q86 59 187.5 97t172.5 38q44 0 44 -39q0 -15 -13 -49zM413 932q29 91 56.5 122t77.5 31q30 0 99 -17q58 -14 84 -14q49 0 73 51l19 -4q-25 -84 -54 -115.5t-80 -31.5q-21 0 -40 4l-59 15q-60 14 -88 14
q-43 0 -66 -49q-1 -3 -5 -10z" />
    <glyph glyph-name="uacute" unicode="&#xfa;" horiz-adv-x="747" 
d="M835 825q-70 -134 -170 -377t-102 -283q-1 -31 34 -31q27 0 79 20l13 -27q-73 -38 -241 -102l-27 -10q26 163 100 348q-129 -163 -244.5 -255.5t-190.5 -92.5q-66 0 -66 69q0 83 123 341l80 168q37 78 39 112q2 33 -34 33q-16 0 -56 -12l-8 30l16 5q140 41 233 81
q0 -80 -89 -263l-87 -178q-100 -205 -100 -251q0 -43 38 -43q97 0 257 202.5t255 446.5l13 32q58 6 135 37zM809 1204l38 -87q-178 -62 -289 -256q46 284 251 343z" />
    <glyph glyph-name="ugrave" unicode="&#xf9;" horiz-adv-x="747" 
d="M835 825q-70 -134 -170 -377t-102 -283q-1 -31 34 -31q27 0 79 20l13 -27q-73 -38 -241 -102l-27 -10q26 163 100 348q-129 -163 -244.5 -255.5t-190.5 -92.5q-66 0 -66 69q0 83 123 341l80 168q37 78 39 112q2 33 -34 33q-16 0 -56 -12l-8 30l16 5q140 41 233 81
q0 -80 -89 -263l-87 -178q-100 -205 -100 -251q0 -43 38 -43q97 0 257 202.5t255 446.5l13 32q58 6 135 37zM458 1204q102 -29 179 -124t96 -219q-116 193 -304 256z" />
    <glyph glyph-name="ucircumflex" unicode="&#xfb;" horiz-adv-x="747" 
d="M835 825q-70 -134 -170 -377t-102 -283q-1 -31 34 -31q27 0 79 20l13 -27q-73 -38 -241 -102l-27 -10q26 163 100 348q-129 -163 -244.5 -255.5t-190.5 -92.5q-66 0 -66 69q0 83 123 341l80 168q37 78 39 112q2 33 -34 33q-16 0 -56 -12l-8 30l16 5q140 41 233 81
q0 -80 -89 -263l-87 -178q-100 -205 -100 -251q0 -43 38 -43q97 0 257 202.5t255 446.5l13 32q58 6 135 37zM772 1250v-22l1 -125q0 -68 7 -151q-11 -8 -14 -11l-42 -31q-22 -16 -40 -36q2 27 2 55q0 128 -23 128q-16 0 -43 -30l-37 -40q-73 -80 -111 -80q-12 0 -25 7l10 9
l68 57q106 90 234 254z" />
    <glyph glyph-name="udieresis" unicode="&#xfc;" horiz-adv-x="747" 
d="M835 825q-70 -134 -170 -377t-102 -283q-1 -31 34 -31q27 0 79 20l13 -27q-73 -38 -241 -102l-27 -10q26 163 100 348q-129 -163 -244.5 -255.5t-190.5 -92.5q-66 0 -66 69q0 83 123 341l80 168q37 78 39 112q2 33 -34 33q-16 0 -56 -12l-8 30l16 5q140 41 233 81
q0 -80 -89 -263l-87 -178q-100 -205 -100 -251q0 -43 38 -43q97 0 257 202.5t255 446.5l13 32q58 6 135 37zM713 1083q46 0 46 -46q0 -26 -20.5 -47t-46.5 -21q-47 0 -47 46q0 27 20.5 47.5t47.5 20.5zM505 1083q46 0 46 -46q0 -26 -20.5 -47t-46.5 -21q-47 0 -47 46
q0 27 20.5 47.5t47.5 20.5z" />
    <glyph glyph-name="dagger" unicode="&#x2020;" horiz-adv-x="819" 
d="M83 -136q70 107 201 392.5t202 486.5l8 23l76 208h-237q-35 0 -48 -6t-27 -30q-2 -4 -6 -10h-18l63 132h304l23 65l33 93l32 91q34 95 46 138q95 24 155 55q-25 -58 -98 -259l-34 -91l-34 -92h179h41q81 0 132 27l4 2l-3 -6l-6 -16q-41 -93 -171 -93h-47h-161
q-234 -651 -439 -1048l-15 -7q-93 -47 -155 -55z" />
    <glyph glyph-name="degree" unicode="&#xb0;" horiz-adv-x="546" 
d="M653 1353q61 0 103 -43t42 -106q0 -89 -86.5 -179.5t-171.5 -90.5q-67 0 -116 45t-49 107q0 99 87.5 183t190.5 84zM615 1294q-71 0 -125 -48t-54 -112q0 -60 35.5 -96.5t95.5 -36.5q68 0 116 48t48 116q0 56 -32.5 92.5t-83.5 36.5z" />
    <glyph glyph-name="cent" unicode="&#xa2;" horiz-adv-x="874" 
d="M855 839l-15 -26l-62 -114q-47 -86 -67 -120h-34q10 21 12 26l16 40q15 38 15 49q0 34 -60 39l-6 -17q-123 -324 -279 -607l-15 -27q226 49 351 339q6 -29 6 -51q0 -85 -131.5 -206t-278.5 -171l-8 -12l-70 -109q-33 -51 -69 -96h-38q78 106 132 212q-13 -1 -29 -1
q-49 0 -79.5 45t-30.5 115q0 164 153.5 364t341.5 282q3 10 3 12l9 41q7 32 7 45q0 50 -92 50v27h17q90 0 192 9q-7 -30 -21 -72l-21 -60l-9 -23q69 18 131 18zM589 730q-86 -17 -174 -125q-76 -94 -124 -208.5t-48 -203.5q0 -94 70 -107q70 124 155.5 324t120.5 320z" />
    <glyph glyph-name="sterling" unicode="&#xa3;" horiz-adv-x="874" 
d="M-82 -2l53 106q177 10 302 115t125 245q0 72 -26 133h-151l3 33h138q-84 224 -84 319q0 164 146 277q151 116 311 116q108 0 174.5 -62.5t66.5 -163.5q0 -143 -135 -246q-109 -83 -173 -83q-61 0 -61 57q24 -17 71 -17q74 0 128 70.5t54 166.5q0 101 -55 162.5t-144 61.5
q-110 0 -199.5 -76.5t-89.5 -170.5q0 -56 65 -216q36 -90 63 -195h203l-3 -33h-195q5 -22 5 -44q0 -128 -79.5 -236.5t-223.5 -177.5l-48 -23q-14 -6 -35 -17q93 0 194 -5q107 -6 144 -6q168 0 283 139q101 123 101 232q30 -25 30 -60q0 -64 -80 -169q-86 -112 -203.5 -177
t-234.5 -65q-49 0 -128 9q-100 11 -150 11q-85 0 -162 -10z" />
    <glyph glyph-name="section" unicode="&#xa7;" horiz-adv-x="819" 
d="M994 1223l-30 19q3 12 5 18q14 51 14 74q0 74 -124 74q-73 0 -136 -21.5t-88 -55.5q-44 -60 -44 -121q0 -73 60 -161l123 -182q57 -84 57 -164q0 -102 -72 -206t-174 -148q21 -71 21 -117q0 -117 -103 -225q-74 -78 -169 -111t-244 -33q-55 0 -97 7l8 20l44 116
q19 49 52 123l6 13l30 -19q-3 -12 -5 -18q-14 -49 -14 -74q0 -72 112 -72q138 0 212.5 50.5t74.5 144.5q0 73 -60 162l-124 182q-57 84 -57 163q0 57 34.5 136t81.5 128q37 39 132 86q-24 82 -24 123q0 140 128 253q71 62 159 88.5t224 26.5q54 0 97 -7l-8 -20
q-59 -158 -96 -239zM549 944q-74 0 -127.5 -52t-53.5 -124q0 -71 59 -156l100 -145q4 -7 28 -46q73 0 126.5 52.5t53.5 123.5t-59 156l-100 145z" />
    <glyph glyph-name="bullet" unicode="&#x2022;" horiz-adv-x="1365" 
d="M685 978q118 0 201 -83t83 -201t-83 -201t-201 -83t-201 83t-83 201t83 201t201 83z" />
    <glyph glyph-name="paragraph" unicode="&#xb6;" horiz-adv-x="819" 
d="M1191 1429q-77 6 -116 6q-146 0 -286 -46l-18 -6q42 -23 42 -83q0 -170 -245 -385q-149 -131 -226 -131q-39 0 -64.5 29.5t-25.5 75.5q0 93 85 211t219 213q297 209 614 209q48 0 48 -27q0 -15 -27 -66zM563 94q6 -21 6 -33q0 -61 -93 -61q-87 0 -140 68.5t-53 181.5
q0 206 218 413l227 214q69 66 116 157.5t47 159.5q0 71 -53 184l32 7q103 -156 103 -352q0 -362 -440 -667q-97 -67 -135 -111.5t-38 -90.5q0 -42 34.5 -69t87.5 -27q38 0 81 26zM324 206q27 91 130 177l91 77q200 167 289 306.5t89 285.5l-1 41q-43 -183 -263 -384l-90 -83
q-153 -140 -218 -260q-30 -55 -30 -124q0 -10 3 -36z" />
    <glyph glyph-name="germandbls" unicode="&#xdf;" horiz-adv-x="751" 
d="M901 1130h-33q10 57 10 89q0 56 -82 56q-70 0 -143 -36.5t-120 -95.5q-74 -92 -203 -482l11 15q35 50 69.5 74t102.5 46q46 14 62.5 27.5t31.5 50.5q2 5 6 14q34 -5 82 -5l43 1h13q-8 -13 -24 -58l-15 -43q-2 -5 -6 -17q-48 6 -84 6q-111 0 -181 -44t-70 -113t90 -131
l133 -91q87 -60 87 -153q0 -97 -91.5 -178t-199.5 -81q-138 0 -138 108q0 33 12 60q70 -100 179 -100q69 0 118.5 35.5t49.5 84.5q0 58 -98 127q-130 90 -172.5 137.5t-42.5 101.5q0 10 1 25l-178 -565q-13 1 -19 1q-34 0 -53.5 -18.5t-43.5 -72.5l-45 -106
q-71 -164 -174 -266t-197 -102q-46 0 -75.5 28.5t-29.5 71.5q0 4 1 13q41 -18 105 -18q151 0 255.5 148t232.5 543l130 400l43 136q61 188 151.5 310t233.5 209q154 93 267 93q60 0 60 -25q0 -7 -4 -17l-15 -47z" />
    <glyph glyph-name="registered" unicode="&#xae;" horiz-adv-x="1648" 
d="M1361 391l9 -24l-13 -8q-88 -55 -136 -79l-12 30l-41 112q-41 115 -73 165q-69 -141 -176.5 -223t-223.5 -82q-126 0 -207 79t-81 201q0 230 240.5 382.5t603.5 152.5q268 0 268 -160q0 -105 -137 -159q-66 -26 -84 -77q-47 2 -84 2q-33 0 -60 -2l-19 -46q43 -54 90 -156
l25 -54q31 -70 62 -70q19 0 49 16zM1060 919q88 17 168 43l-2 -10q-26 -106 -54 -186q31 -1 45 -1q101 0 158 42.5t57 118.5q0 141 -241 141q-342 0 -537 -160q-168 -139 -168 -322q0 -114 73.5 -187t189.5 -73q91 0 162 74t140 240q-56 49 -122 49q-64 0 -109.5 -44.5
t-57.5 -117.5q-23 26 -23 53q0 54 80.5 98t178.5 44q44 0 79 -18l9 26l14 42q25 72 25 99q0 33 -27 33q-8 0 -22 -2l-11 -2zM1193 1398q220 0 363.5 -142t143.5 -361q0 -142 -84.5 -303.5t-237.5 -311.5q-291 -286 -559 -286q-115 0 -236 47.5t-200 124.5q-142 138 -142 350
q0 298 272 563q153 149 334.5 234t345.5 85zM1178 1362q-247 0 -490 -186q-351 -268 -351 -646q0 -260 143 -383q137 -120 333 -120q230 0 458 201q328 290 328 659q0 226 -110.5 350.5t-310.5 124.5z" />
    <glyph glyph-name="copyright" unicode="&#xa9;" horiz-adv-x="1649" 
d="M1019 675q37 -19 37 -68q0 -77 -66 -171q-118 -167 -271 -167q-114 0 -187 71t-73 183q0 127 63.5 252.5t173.5 214.5q206 167 492 167q130 0 207.5 -57.5t77.5 -154.5q0 -101 -93 -173.5t-223 -72.5q-74 0 -272 48q-110 27 -161 27q-37 0 -78 -14l7 9q43 49 59 71
q34 18 52 19q8 0 46 -8l96 -21q15 -4 118 -37q137 -43 214 -43q81 0 136.5 46t55.5 113q0 82 -86.5 134t-220.5 52q-239 0 -413 -157.5t-174 -374.5q0 -109 62.5 -170.5t173.5 -61.5q105 0 176 93t71 229v22zM1193 1398q220 0 363.5 -142t143.5 -361q0 -142 -84.5 -303.5
t-237.5 -311.5q-291 -286 -559 -286q-115 0 -236 47.5t-200 124.5q-142 138 -142 350q0 298 272 563q153 149 334.5 234t345.5 85zM1178 1362q-247 0 -490 -186q-351 -268 -351 -646q0 -260 143 -383q137 -120 333 -120q230 0 458 201q328 290 328 659q0 226 -110.5 350.5
t-310.5 124.5z" />
    <glyph glyph-name="trademark" unicode="&#x2122;" horiz-adv-x="1967" 
d="M491 956q-66 35 -66 105q0 107 118 212.5t238 105.5q48 0 108 -14l110 -27q76 -19 243 -19q138 0 243 29q-93 -60 -168 -81t-195 -21q-22 0 -72 3l-7 -28q-77 -321 -229.5 -491.5t-362.5 -170.5q-144 0 -231 69t-87 183q0 105 81 179l9 -5q-3 -5 -5 -9l-9 -19
q-20 -44 -20 -96q0 -113 84.5 -189.5t209.5 -76.5q160 0 273 163q96 138 136 229t85 273l-18 5l-30 7q-128 32 -194 32q-114 0 -186 -70.5t-72 -181.5q0 -42 14 -96zM2241 1344l-45 -149l-21 3q1 6 2 9q2 8 2 16q0 26 -53 26q-50 0 -97.5 -60t-76.5 -159q-19 -65 -46 -204.5
t-29 -185.5q-1 -21 12 -22q5 0 18 4l24 10l7 3l10 -18q-23 -10 -88 -34q-46 -17 -84 -35q0 130 81 461l-21 -26l-78 -97l-124 -154l-126 -156l-13 -16l-14 10q4 18 4 52q0 96 -33 211l-15 51q-1 3 -5 19q-139 -199 -197 -249q-97 -84 -196 -84q-60 0 -107 43.5t-47 98.5
q0 14 4 39q57 -113 170 -113q91 0 162.5 57.5t203.5 234.5q-11 60 -11 99q0 113 53.5 224.5t107.5 111.5q29 0 48.5 -25.5t19.5 -63.5q0 -52 -22 -100t-95 -157l-17 -26q53 -144 72 -294l14 18q19 24 28 34l266 330q129 161 198 212t154 51zM1497 1014q75 146 75 248
q0 44 -31 44q-23 0 -39 -49t-16 -120q0 -51 11 -123z" />
    <glyph glyph-name="acute" unicode="&#xb4;" 
d="M948 1204l38 -87q-178 -62 -289 -256q46 284 251 343z" />
    <glyph glyph-name="dieresis" unicode="&#xa8;" 
d="M933 1083q46 0 46 -46q0 -26 -20.5 -47t-46.5 -21q-47 0 -47 46q0 27 20.5 47.5t47.5 20.5zM725 1083q46 0 46 -46q0 -26 -20.5 -47t-46.5 -21q-47 0 -47 46q0 27 20.5 47.5t47.5 20.5z" />
    <glyph glyph-name="notequal" unicode="&#x2260;" horiz-adv-x="949" 
d="M662 628l-69 -81h312l-23 -56h-338l-161 -184h-68l159 184h-276l23 56h302l69 81h-339l23 56h365l160 183h69l-159 -183h249l-23 -56h-275z" />
    <glyph glyph-name="AE" unicode="&#xc6;" horiz-adv-x="2310" 
d="M2063 1365l-6 -19q-19 -57 -32 -106l-26 -102l-6 -23h-39q18 54 18 94q0 44 -40.5 50.5t-330.5 6.5l-262 -1l-59 1q-3 -39 -3 -52q0 -135 44 -361h494l-27 -107h-199q112 -82 112 -217q0 -152 -107 -266q62 -54 171.5 -98.5t179.5 -44.5q133 0 218 87.5t110 249.5
q42 -21 42 -82q0 -115 -201 -253q-171 -117 -214 -119q-42 -2 -180 57q-125 53 -217 124q-116 -86 -322 -135.5t-451 -49.5q-100 0 -250 13q-313 27 -498 27q-89 0 -135 -8q11 13 29 46l24 43q1 2 7 17q218 64 473 288.5t577 635.5q105 133 153 187q77 85 98 113l51 -1
l563 -1l205 4q12 1 36 2zM1344 746q49 -286 198 -435q69 88 69 204q0 107 -71.5 169t-195.5 62zM1197 853q-15 107 -15 207q0 160 8 212q-12 -15 -13 -16l-85 -99q-21 -24 -115 -142l-110 -137l-21 -25h351zM1213 746h-457l-25 -26q-342 -359 -507 -475l-135 -92l-18 -12
q94 10 159 10q195 0 423 -29l261 -34q59 -8 128 -8q128 0 239.5 39.5t173.5 106.5q-184 175 -242 520z" />
    <glyph glyph-name="Oslash" unicode="&#xd8;" horiz-adv-x="1848" 
d="M1520 1385h7q86 -6 158 -17l-90 -250q168 -48 244.5 -133.5t76.5 -224.5q0 -269 -231 -489q-141 -136 -343 -212.5t-417 -76.5q-121 0 -248 26l-6 1l-97 -157h-36l101 165l-6 1q-442 120 -442 539q0 183 107 347.5t299 276.5q353 206 843 206l43 -1l105 171h38z
M1466 1297l-92 -149q49 0 143 -12l21 -3l45 149q-35 5 -110 14zM1350 1109l-311 -504q169 24 284 139t198 343q-97 22 -164 22h-7zM970 493l-262 -423q136 -42 279 -42q338 0 566.5 205.5t228.5 509.5q0 125 -56.5 216t-148.5 114q-94 -231 -246.5 -377.5t-354.5 -200.5z
M679 81l248 403q-66 -11 -137 -11l-86 1q-25 0 -47 -5q-19 -5 -49 -19q8 16 11 20l26 54q35 71 118 71h124q57 0 105 5h7l313 508h-7q-109 0 -218.5 -46t-181.5 -122q-82 -88 -115 -216q-23 36 -23 77q0 148 157 244q70 43 188.5 73t216.5 30h7l94 152q-7 0 -16 1
q-72 6 -152 6q-470 0 -696 -206q-111 -101 -174 -244.5t-63 -296.5q0 -352 343 -477z" />
    <glyph glyph-name="infinity" unicode="&#x221e;" horiz-adv-x="1366" 
d="M650 600q-90 -144 -156 -195.5t-159 -51.5q-127 0 -216 94t-89 228q0 146 94.5 248t228.5 102q185 0 342 -254l27 39q86 131 130 162q77 54 167 54q133 0 224.5 -98t91.5 -240t-98.5 -244t-235.5 -102q-97 0 -188.5 67.5t-162.5 190.5zM720 733q93 -147 175.5 -211
t179.5 -64q87 0 147.5 65.5t60.5 160.5q0 107 -73 170t-195 63q-98 0 -164.5 -41.5t-130.5 -142.5zM621 642q-96 149 -170 207t-168 58q-86 0 -144 -63.5t-58 -158.5q0 -101 70 -162.5t186 -61.5q93 0 155.5 40t128.5 141z" />
    <glyph glyph-name="plusminus" unicode="&#xb1;" horiz-adv-x="874" 
d="M883 615l-23 -56h-313l-121 -314h-55l119 314h-314l23 56h313l120 314h56l-120 -314h315zM724 178l-23 -56h-684l23 56h684z" />
    <glyph glyph-name="lessequal" unicode="&#x2264;" 
d="M934 1251v-69l-659 -430l659 -440v-182l-845 563v12zM89 64h845v-64h-845v64z" />
    <glyph glyph-name="greaterequal" unicode="&#x2265;" 
d="M89 64h845v-64h-845v64zM89 130v69l659 430l-659 440v182l845 -566v-12z" />
    <glyph glyph-name="yen" unicode="&#xa5;" horiz-adv-x="874" 
d="M658 461l-132 -420l-134 -41l146 462h-161v30h166l-18 107h-148v31h137q-11 38 -15 50l-31 97l-70 225q-49 152 -80 209.5t-65 57.5q-32 0 -86 -44l-20 30q13 9 14 11l79 61l90 71q6 4 18 14q55 -70 131.5 -282.5t126.5 -433.5l8 -38q15 41 17 48l70 225
q56 183 229 335.5t324 152.5q53 0 53 -25q0 -10 -6 -28l-18 -64l-28 -93q-1 -6 -6 -23h-35q13 52 13 83q0 62 -75 62q-119 0 -214 -106q-92 -103 -190 -458l-26 -95l-12 -42h144v-31h-152l-33 -106h185v-32h-196z" />
    <glyph glyph-name="mu" unicode="&#xb5;" horiz-adv-x="980" 
d="M870 105l-11 -31l-185 -94q-5 -2 -11 -2q-20 0 -37.5 22.5t-17.5 47.5q0 29 10 70l9 36q-159 -112 -235.5 -148t-159.5 -36q-157 0 -157 148q0 16 1 35l-19 -53q-38 -104 -61 -197q-38 -157 -51 -189q-41 -103 -100 -100q-47 2 -47 53q0 26 15 57l51 102l72 146
q144 294 259 610l129 355h126l-214 -587q-45 -123 -45 -186q0 -44 37 -74t92 -30q149 0 329 171l257 706h124l-255 -702q-29 -80 -29 -104q0 -51 56 -51q24 0 68 25z" />
    <glyph glyph-name="partialdiff" unicode="&#x2202;" 
d="M303 1367l20 35q221 -93 364 -249q115 -125 192.5 -323t77.5 -365q0 -217 -127.5 -355.5t-327.5 -138.5q-183 0 -308.5 138t-125.5 340q0 197 128.5 330.5t317.5 133.5q97 0 164 -37t133 -127q-79 234 -192.5 372.5t-315.5 245.5zM519 868q-80 0 -152 -48
q-69 -46 -116 -153.5t-47 -220.5q0 -179 87 -304.5t213 -125.5q134 0 225 124t91 308q0 185 -84 302.5t-217 117.5z" />
    <glyph glyph-name="summation" unicode="&#x2211;" horiz-adv-x="1365" 
d="M122 1365h1041v-321h-37q-20 158 -92 214t-257 56h-472l426 -806l-484 -901h542q191 0 285 69t136 239h37l-68 -393h-1057l494 920z" />
    <glyph glyph-name="product" unicode="&#x220f;" horiz-adv-x="1365" 
d="M48 1365h1268v-37h-46q-91 0 -113.5 -27.5t-22.5 -135.5v-1443q0 -107 22.5 -135t108.5 -28h50v-37h-506v37h44q91 0 113.5 27t22.5 136v1443q0 109 -22.5 136t-113.5 27h-338q-91 0 -113.5 -27t-22.5 -136v-1443q0 -108 22.5 -135.5t109.5 -27.5h49v-37h-506v37h44
q91 0 113.5 27t22.5 136v1443q0 109 -22.5 136t-113.5 27h-50v37z" />
    <glyph glyph-name="pi" unicode="&#x3c0;" 
d="M1133 953v-96h-320l-17 -42q-57 -142 -57 -224v-331q0 -118 15.5 -152.5t68.5 -34.5q20 0 75 17q8 3 25 7v-34l-201 -82q-17 -7 -23 -7q-27 0 -61 57q-31 51 -31 138v324q0 105 40 184l40 74l35 73l19 32h-356l-4 -255q0 -195 -36 -465q-23 -170 -80 -170
q-24 0 -43.5 24.5t-19.5 53.5q0 37 20 94q41 115 69 322t28 396q-121 0 -186 -35.5t-148 -146.5l-22 27l145 184q53 68 183 68h842z" />
    <glyph glyph-name="integral" unicode="&#x222b;" horiz-adv-x="1026" 
d="M586 946v-907q0 -295 -63 -415q-88 -167 -257 -167q-95 0 -163.5 61t-68.5 145q0 46 29 77.5t72 31.5q40 0 69 -26.5t29 -62.5q0 -23 -9 -44q-10 -23 -10 -40q0 -63 60 -63q73 0 120 103.5t47 265.5v933q0 298 63 418q87 167 252 167q98 0 167.5 -60t69.5 -144
q0 -48 -28.5 -79.5t-71.5 -31.5q-41 0 -70 26t-29 63q0 23 9 44q10 23 10 40q0 63 -60 63q-76 0 -121.5 -109t-45.5 -289z" />
    <glyph glyph-name="ordfeminine" unicode="&#xaa;" horiz-adv-x="768" 
d="M865 921l16 -17q-79 -52 -223 -81q-1 10 -1 11q4 67 77 216q-96 -100 -199.5 -165t-167.5 -65q-66 0 -66 71q0 169 229.5 321.5t482.5 152.5q26 0 27 -17q1 -14 -22 -55q-56 7 -106 7q-244 0 -406 -151q-111 -104 -111 -208q0 -67 51 -67q40 0 108 54t121 127
q72 100 93 209q50 -16 50 -61q0 -58 -70 -135q37 4 84 19l15 5l-5 -12l-36 -86q-28 -66 -28 -81q0 -19 18 -18q17 1 69 26zM252 729h482h30q59 0 101 26q-26 -62 -54 -83t-84 -21h-35h-419q-39 0 -57 -33l-5 -8h-13z" />
    <glyph glyph-name="ordmasculine" unicode="&#xba;" horiz-adv-x="768" 
d="M940 1297q-40 3 -71 3q-204 0 -303 -128q-84 -109 -84 -222q0 -33 23.5 -54.5t58.5 -21.5q75 0 162 99.5t87 185.5q0 55 -47 55q-62 0 -108 -93q-6 16 -6 27q0 42 56 83.5t112 41.5q39 0 67 -26.5t28 -62.5q0 -121 -165 -247q-149 -115 -249 -115q-53 0 -85.5 29.5
t-32.5 77.5q0 182 225 328q160 104 305 104q39 0 39 -33q0 -14 -12 -31zM252 729h482h30q59 0 101 26q-26 -62 -54 -83t-84 -21h-35h-419q-39 0 -57 -33l-5 -8h-13z" />
    <glyph glyph-name="Omega" unicode="&#x2126;" horiz-adv-x="1365" 
d="M1402 233l-77 -233h-560v79q183 88 270 194q163 195 163 454q0 240 -137 424q-135 182 -379 182q-241 0 -376 -177q-140 -185 -140 -426q0 -257 161 -454q91 -111 273 -197v-79h-561l-77 233h38q31 -88 84 -118.5t174 -30.5l220 -5v10q-168 69 -263 158
q-215 202 -215 482q0 245 181 447q189 211 502 211q325 0 517 -225q164 -193 164 -429q0 -286 -219 -490q-89 -83 -258 -154v-10l229 6q115 0 165.5 30t82.5 118h38z" />
    <glyph glyph-name="ae" unicode="&#xe6;" horiz-adv-x="1181" 
d="M1152 443q15 -20 15 -49q0 -109 -171 -258.5t-295 -149.5q-53 0 -84.5 38.5t-31.5 103.5q0 81 47 208q-100 -177 -100 -242q0 -17 15 -34q-78 -41 -175 -60q9 65 99 260l23 51q-122 -138 -249.5 -227t-202.5 -89q-67 0 -67 91q0 118 90.5 261.5t236.5 257.5
q126 98 292.5 162t295.5 64q46 0 46 -23t-29 -77q-73 9 -140 9q-346 0 -571 -304q-108 -146 -108 -272q0 -87 62 -84q90 4 252 209q138 175 193 411q47 -36 47 -96q0 -96 -95 -226q64 6 116 30q104 208 291 329q158 101 265 101q85 0 85 -59q0 -85 -139.5 -189t-252.5 -104
q-57 0 -69 55q37 -6 63 -6q101 0 187.5 55.5t86.5 120.5q0 49 -64 49q-122 0 -255 -171q-66 -85 -112.5 -203.5t-46.5 -203.5q0 -108 89 -108q96 0 193.5 99.5t167.5 269.5z" />
    <glyph glyph-name="oslash" unicode="&#xf8;" horiz-adv-x="676" 
d="M715 953l-163 -256h9q57 0 94 -38t37 -96q0 -209 -275 -425q-175 -138 -282 -138q-8 0 -27 2l-96 -152h-36l103 163q-78 40 -78 136q0 155 125 327q120 166 364 294q68 35 96.5 59.5t63.5 76.5l31 47h34zM506 624l-341 -537q26 -18 52 -18q93 0 211 144q63 76 104 168.5
t41 156.5q0 70 -67 86zM469 622q-98 -19 -154 -156l-6 -17q-7 24 -7 38q0 62 60 120t151 84l42 69q-141 -61 -211 -115.5t-122 -143.5q-104 -178 -104 -325q0 -39 22 -68z" />
    <glyph glyph-name="questiondown" unicode="&#xbf;" horiz-adv-x="797" 
d="M488 -266h35l-8 -20q-48 -111 -76 -206l-7 -25q-138 -45 -247 -45q-153 0 -237.5 68t-84.5 191q0 157 107 315q58 86 139.5 142t229.5 113q256 98 256 179q0 63 -93 63q-3 0 -14 -1q25 57 75 57q31 0 51.5 -23.5t20.5 -59.5q0 -97 -83.5 -194.5t-197.5 -135.5l-156 -51
q-276 -90 -276 -317q0 -219 299 -219q117 0 168.5 30.5t92.5 125.5q2 4 6 13zM610 787q50 3 50 -48q0 -26 -20.5 -46t-47.5 -20q-46 0 -46 44q0 27 19 48t45 22z" />
    <glyph glyph-name="exclamdown" unicode="&#xa1;" horiz-adv-x="374" 
d="M-55 -567q43 144 152 421l145 371q60 152 132 312q20 -50 20 -109q0 -115 -81 -326l-96 -251q-102 -265 -102 -309q0 -69 117 -69l-11 -32h-22h-117q-67 0 -137 -8zM437 770q46 0 46 -48q0 -25 -21.5 -45.5t-47.5 -20.5q-45 0 -45 44q0 27 21 48.5t47 21.5z" />
    <glyph glyph-name="logicalnot" unicode="&#xac;" 
d="M779 0v471h-704v75h874v-546h-170z" />
    <glyph glyph-name="radical" unicode="&#x221a;" horiz-adv-x="1365" 
d="M1331 1686v-53h-247l-379 -1633h-148l-178 740h-345v53h468l161 -690l372 1583h296z" />
    <glyph glyph-name="florin" unicode="&#x192;" horiz-adv-x="874" 
d="M-262 -454q54 -13 104 -13q142 0 240 114q67 78 133 237t207 581l25 75l21 61h-117l11 27q9 1 12 1l28 2q80 4 116 102l64 177q82 225 342 374q146 83 242 83q69 0 67 -30q-1 -12 -19 -65l-47 -139h-32q19 61 19 93q0 51 -93 51q-158 0 -266 -144q-43 -56 -81.5 -146.5
t-133.5 -354.5h161l-10 -31h-162q-142 -431 -265 -658q-146 -270 -255.5 -385t-219.5 -115q-41 0 -68.5 21t-27.5 53q0 10 5 29z" />
    <glyph glyph-name="approxequal" unicode="&#x2248;" 
d="M939 970l28 -17q-55 -86 -135.5 -138.5t-156.5 -52.5q-46 0 -137 29q-182 58 -252 58q-55 0 -91.5 -20.5t-91.5 -81.5l-18 -21l-29 18q139 193 294 193q66 0 202 -44q114 -38 169 -38q123 0 218 115zM939 655l28 -17q-54 -86 -135 -138.5t-157 -52.5q-46 0 -137 29
q-182 58 -252 58q-55 0 -91.5 -20.5t-91.5 -81.5l-18 -20l-29 17q138 193 294 193q65 0 202 -45q114 -37 169 -37q122 0 218 115z" />
    <glyph glyph-name="Delta" unicode="&#x2206;" horiz-adv-x="1365" 
d="M713 1399l632 -1399h-1324l629 1399h63zM644 1225l-432 -959q-31 -69 -31 -100q0 -71 93 -71h869z" />
    <glyph glyph-name="guillemotleft" unicode="&#xab;" horiz-adv-x="886" 
d="M959 848q-118 -137 -356 -291q-69 -45 -69 -81q0 -35 52 -118q107 -170 148 -294q-19 -12 -54 -32q-29 -16 -51 -30q-67 179 -150 319l-76 126l-8 15l19 11q266 165 423 353q68 8 122 22zM674 849q-67 -91 -337 -266q-81 -53 -95 -67t-14 -43q0 -32 41 -100
q118 -195 159 -316l-12 -7l-41 -22q-32 -17 -55 -32l-5 13l-30 75q-74 192 -195 376q11 8 59 38q156 98 307 243l73 71l9 8q11 3 66 14l54 12z" />
    <glyph glyph-name="guillemotright" unicode="&#xbb;" horiz-adv-x="886" 
d="M-5 -3q122 142 355 292q69 44 69 81q0 35 -52 118q-106 168 -147 293q19 13 54 32l51 31q67 -179 150 -319l75 -126l9 -15l-19 -12q-268 -167 -423 -352q-68 -9 -122 -23zM280 -4q70 95 337 267q81 52 95 66.5t14 43.5q0 32 -41 100q-118 193 -159 316l12 6l41 22
q31 17 55 32l5 -12l30 -76q77 -200 195 -375l-10 -7l-49 -31q-159 -101 -307 -244l-73 -70l-9 -9q-12 -3 -66 -13l-54 -12z" />
    <glyph glyph-name="ellipsis" unicode="&#x2026;" 
d="M69 114q46 0 46 -46q0 -26 -20.5 -47t-46.5 -21q-47 0 -47 46q0 27 20.5 47.5t47.5 20.5zM410 114q46 0 46 -46q0 -26 -20.5 -47t-46.5 -21q-47 0 -47 46q0 27 20.5 47.5t47.5 20.5zM752 114q46 0 46 -46q0 -26 -20.5 -47t-46.5 -21q-47 0 -47 46q0 27 20.5 47.5
t47.5 20.5z" />
    <glyph glyph-name="Agrave" unicode="&#xc0;" horiz-adv-x="1683" 
d="M1326 1485l28 -26q-42 -47 -55 -87t-13 -123q0 -340 152 -816q85 -264 133 -264q23 0 74 53l25 -24l-12 -13q-86 -92 -157 -178l-20 -25q-127 263 -212.5 573t-85.5 505q0 82 12 188l3 27q-80 -83 -245 -290q-103 -129 -186 -223l-23 -26q55 4 123 4l291 -5l41 -2
q-36 -100 -70 -248h-38q14 54 14 84q0 38 -26 50t-107 12h-145l-163 -3l-20 -1l-26 -26q-216 -210 -291 -274t-222 -161l-28 -19q71 6 153 6q189 0 289 -12l188 -21q75 -9 135 -9q155 0 247.5 80t114.5 234q37 -22 37 -57q0 -86 -115 -197q-179 -172 -389 -172
q-70 0 -192 13q-297 31 -466 31l-210 -5h-19l63 101q264 96 489 299t635 714q197 245 289 333zM1253 1818q225 -62 253 -343q-116 193 -305 256z" />
    <glyph glyph-name="Atilde" unicode="&#xc3;" horiz-adv-x="1683" 
d="M1326 1485l28 -26q-42 -47 -55 -87t-13 -123q0 -340 152 -816q85 -264 133 -264q23 0 74 53l25 -24l-12 -13q-86 -92 -157 -178l-20 -25q-127 263 -212.5 573t-85.5 505q0 82 12 188l3 27q-80 -83 -245 -290q-103 -129 -186 -223l-23 -26q55 4 123 4l291 -5l41 -2
q-36 -100 -70 -248h-38q14 54 14 84q0 38 -26 50t-107 12h-145l-163 -3l-20 -1l-26 -26q-216 -210 -291 -274t-222 -161l-28 -19q71 6 153 6q189 0 289 -12l188 -21q75 -9 135 -9q155 0 247.5 80t114.5 234q37 -22 37 -57q0 -86 -115 -197q-179 -172 -389 -172
q-70 0 -192 13q-297 31 -466 31l-210 -5h-19l63 101q264 96 489 299t635 714q197 245 289 333zM1148 1533q31 97 63.5 134t87.5 37q34 0 110 -20q65 -16 94 -16q61 0 82 62l21 -4q-26 -90 -60 -127t-90 -37q-23 0 -44 5l-67 17q-67 16 -98 16q-29 0 -43.5 -11.5t-30.5 -47.5
q-1 -4 -5 -12z" />
    <glyph glyph-name="Otilde" unicode="&#xd5;" horiz-adv-x="1848" 
d="M1685 1368l-90 -250q168 -48 244.5 -134t76.5 -225q0 -267 -231 -488q-143 -137 -344.5 -213t-422.5 -76q-334 0 -530.5 151.5t-196.5 408.5q0 195 104.5 359.5t301.5 279.5q353 206 820 206q150 0 268 -19zM1577 1073q-117 -287 -322.5 -443.5t-464.5 -156.5l-86 1
q-25 0 -47 -5q-19 -5 -49 -19q8 16 11 20l26 54q35 71 118 71h124q76 0 148 10q171 23 286.5 137.5t199.5 344.5q-97 22 -178 22q-215 0 -360.5 -101.5t-192.5 -283.5q-23 36 -23 77q0 149 168 248t420 99q68 0 162 -12l21 -3l46 149q-183 26 -320 26q-472 0 -698 -206
q-111 -102 -174 -245.5t-63 -295.5q0 -242 162 -378q186 -155 496 -155q338 0 566.5 205.5t228.5 509.5q0 125 -56.5 216t-148.5 114zM1272 1533q31 97 63.5 134t88.5 37q33 0 110 -20q64 -16 94 -16q60 0 81 62l21 -4q-26 -90 -60 -127t-90 -37q-23 0 -44 5l-67 17
q-67 16 -97 16t-44 -11.5t-30 -47.5l-6 -12z" />
    <glyph glyph-name="OE" unicode="&#x152;" horiz-adv-x="2515" 
d="M2268 1365l-6 -20l-32 -108q-23 -76 -33 -119h-36q18 55 18 95q0 32 -17.5 42.5t-72.5 10.5l-79 -1l-142 -2l-63 2l-5 -20q-63 -268 -134.5 -383.5t-244.5 -229.5q-241 -158 -445 -158l-108 4q-10 0 -24 -1q-50 -5 -93 -31q19 27 46 83q23 47 56.5 57t162.5 10
q174 0 274 30t178 107q73 72 138 222.5t92 313.5q-32 2 -81 7l-113 13q-174 20 -277 20q-220 0 -404 -61t-293 -171q-96 -95 -153.5 -237t-57.5 -282q0 -242 182 -385.5t488 -143.5q196 0 370 48t287 133q-118 46 -241 46q-44 0 -121 -14q46 49 78 110q27 5 70 5
q188 0 304 -56q108 127 108 269q0 202 -169 283h349l-30 -110h-161q83 -91 83 -214q0 -138 -116 -263l16 -9q235 -136 340 -136q130 0 222.5 94t101.5 234l2 17q39 -36 39 -85q0 -141 -249 -292q-141 -86 -162 -87q-24 -1 -147 48.5t-179 83.5l-67 40l-12 6
q-128 -89 -347.5 -142.5t-457.5 -53.5q-160 0 -309.5 46.5t-239.5 125.5q-167 144 -167 388q0 359 335 594q155 108 385.5 178.5t432.5 70.5q107 0 311 -14q192 -13 337 -13l136 2l114 3h33z" />
    <glyph glyph-name="oe" unicode="&#x153;" horiz-adv-x="1056" 
d="M469 180l-5 -4q-82 -76 -174 -124.5t-152 -48.5q-57 0 -95 41t-38 103q0 136 95.5 285.5t251.5 257.5q80 55 187 95.5t173 40.5q44 0 44 -39q0 -14 -13 -49q-53 5 -88 5q-263 0 -403 -202q-55 -80 -93 -183.5t-38 -173.5q0 -49 28.5 -80.5t72.5 -31.5q57 0 132.5 62.5
t134.5 160.5q89 145 89 245q0 79 -56 79q-80 0 -153 -160q-5 20 -5 35q0 62 77 130t146 68q68 0 100 -74q87 93 207.5 157t205.5 64q79 0 79 -58q0 -38 -38 -91.5t-95 -96.5q-53 -39 -134.5 -72t-125.5 -33q-46 0 -66 52q44 -6 68 -6q100 0 184.5 57.5t84.5 124.5
q0 48 -62 48q-110 0 -226 -136q-82 -96 -135 -224t-53 -228q0 -103 86 -103q93 0 195.5 104.5t166.5 265.5q15 -27 15 -50q0 -96 -135 -221q-200 -185 -328 -185q-52 0 -84.5 36.5t-32.5 95.5q0 23 4 55z" />
    <glyph glyph-name="endash" unicode="&#x2013;" horiz-adv-x="655" 
d="M130 466h343h41q79 0 132 27q2 1 5 2l-4 -6l-6 -16q-40 -93 -171 -93h-47h-257q-35 0 -48 -6.5t-27 -29.5l-6 -10h-18z" />
    <glyph glyph-name="emdash" unicode="&#x2014;" horiz-adv-x="836" 
d="M61 466h661h40q80 0 133 27l4 2l-3 -6l-6 -16q-40 -93 -171 -93h-47h-575q-35 0 -48 -6.5t-27 -29.5l-6 -10h-18z" />
    <glyph glyph-name="quotedblleft" unicode="&#x201c;" horiz-adv-x="536" 
d="M615 980q-2 22 -2 31q0 92 55.5 195.5t147.5 180.5l-12 -24q-78 -169 -78 -250zM424 980q-2 22 -2 31q0 92 55.5 195.5t146.5 180.5l-11 -24q-78 -169 -78 -250z" />
    <glyph glyph-name="quotedblright" unicode="&#x201d;" horiz-adv-x="536" 
d="M605 1387q1 -20 1 -29q0 -93 -55.5 -197t-146.5 -181l11 24q79 169 79 250zM796 1387q2 -22 2 -29q0 -93 -55.5 -196.5t-147.5 -181.5l11 24q79 169 79 250z" />
    <glyph glyph-name="quoteleft" unicode="&#x2018;" horiz-adv-x="344" 
d="M424 980q-2 22 -2 31q0 92 55.5 195.5t146.5 180.5l-11 -24q-78 -169 -78 -250z" />
    <glyph glyph-name="quoteright" unicode="&#x2019;" horiz-adv-x="344" 
d="M605 1387q1 -20 1 -29q0 -93 -55.5 -197t-146.5 -181l11 24q79 169 79 250z" />
    <glyph glyph-name="divide" unicode="&#xf7;" horiz-adv-x="874" 
d="M883 615l-23 -56h-684l23 56h684zM645 906q46 0 46 -46q0 -26 -20.5 -47t-46.5 -21q-47 0 -47 46q0 27 20.5 47.5t47.5 20.5zM454 387q46 0 46 -46q0 -26 -20.5 -47t-46.5 -21q-47 0 -47 46q0 27 20.5 47.5t47.5 20.5z" />
    <glyph glyph-name="lozenge" unicode="&#x25ca;" horiz-adv-x="1365" 
d="M683 1419l532 -736l-532 -736l-532 736zM683 1237l-404 -554l404 -555l403 555z" />
    <glyph glyph-name="ydieresis" unicode="&#xff;" horiz-adv-x="782" 
d="M333 810q16 -41 16 -101q0 -123 -58 -350q158 208 294.5 325.5t218.5 117.5q58 0 58 -97q0 -246 -288 -553q-131 -140 -246 -206t-265 -89q-129 -20 -186 -60t-57 -111q0 -54 54.5 -87.5t141.5 -33.5q107 0 196 53q-23 -125 -195 -125q-103 0 -168 49t-65 127
q0 98 97 206q47 51 100.5 70t200.5 34q133 14 213 65q129 82 220 215q53 77 89 172.5t36 160.5q0 82 -55 82q-93 0 -258 -199t-284 -456l-9 -19h-35l10 38q114 401 114 579q0 63 -41 63q-17 0 -46 -11q-5 -2 -14 -5l-9 30q12 6 15 8l94 46l96 53q3 2 15 9zM716 1083
q46 0 46 -46q0 -26 -20.5 -47t-46.5 -21q-47 0 -47 46q0 27 20.5 47.5t47.5 20.5zM508 1083q46 0 46 -46q0 -26 -20.5 -47t-46.5 -21q-47 0 -47 46q0 27 20.5 47.5t47.5 20.5z" />
    <glyph glyph-name="Ydieresis" unicode="&#x178;" horiz-adv-x="2661" 
d="M1724 591q-137 -211 -230 -387q-2 -12 -2 -15l-5 -59l-5 -52q-1 -5 -2 -23l-17 -7q-56 -21 -82 -47t-51 -85q-46 -107 -46 -210q0 -64 23.5 -97.5t83.5 -54.5l-51 -140q-128 47 -128 215q0 136 112 362q31 63 43.5 141.5t12.5 211.5l-1 223v22q-156 -35 -247 -141.5
t-91 -253.5q0 -153 116 -265q-22 -4 -31 -4q-64 0 -105.5 59.5t-41.5 150.5q0 172 103.5 311t290.5 220q-21 211 -76 331q-67 146 -193.5 231.5t-275.5 85.5q-218 0 -358.5 -141.5t-140.5 -361.5q0 -213 132 -390.5t327 -224.5v-19q-233 0 -383 158t-150 404
q0 274 181 457.5t452 183.5q269 0 425.5 -174.5t186.5 -508.5q56 5 100 5q54 0 143 -10l19 28q251 374 463.5 534.5t455.5 160.5q125 0 198 -60.5t73 -164.5t-67.5 -214t-185.5 -199q-277 -208 -671 -208q-100 0 -163 7l-115 12q-4 1 -26 3zM1785 688l28 -3q173 -19 314 -19
q447 0 650 231q91 104 91 219q0 95 -72 155t-186 60q-411 0 -825 -643zM1680 595l-16 2q-84 9 -114 9q-13 0 -44 -3v-53q0 -133 -10 -261q13 20 15 24l78 130l79 132q2 2 12 20zM1967 1684q46 0 46 -46q0 -26 -20.5 -47t-46.5 -21q-47 0 -47 46q0 27 20.5 47.5t47.5 20.5z
M1759 1684q46 0 46 -46q0 -26 -20.5 -47t-46.5 -21q-47 0 -47 46q0 27 20.5 47.5t47.5 20.5z" />
    <glyph glyph-name="fraction" unicode="&#x2215;" horiz-adv-x="300" 
d="M729 1341l-837 -1341l-43 20l839 1339z" />
    <glyph glyph-name="Euro" unicode="&#x20ac;" horiz-adv-x="874" 
d="M1016 1341l-141 -263h-35l8 17q35 74 35 105q0 36 -76 36q-185 0 -332 -263q-41 -73 -68 -141h405l-23 -56h-403q-36 -106 -52 -218h383l-23 -56h-366q-6 -63 -6 -123q0 -267 187 -267q207 0 348 311q9 -15 18 -43q2 -38 -38 -100q-187 -290 -386 -290q-121 0 -180 102
q-47 83 -47 213q0 100 17 197h-101l23 56h90q25 111 69 218h-122l23 56h123q30 66 73 140q214 371 556 371q12 0 41 -2z" />
    <glyph glyph-name="guilsinglleft" unicode="&#x2039;" horiz-adv-x="582" 
d="M674 849q-67 -91 -337 -266q-81 -53 -95 -67t-14 -43q0 -32 41 -100q118 -195 159 -316l-12 -7l-41 -22q-32 -17 -55 -32l-5 13l-30 75q-74 192 -195 376q11 8 59 38q156 98 307 243l73 71l9 8q11 3 66 14l54 12z" />
    <glyph glyph-name="guilsinglright" unicode="&#x203a;" horiz-adv-x="582" 
d="M-23 -4q63 89 337 267q82 53 95.5 67t13.5 43q0 32 -41 100q-118 192 -159 316l12 6l41 22q33 18 55 32l5 -12l30 -76q71 -182 195 -375q-12 -9 -59 -38q-154 -96 -307 -244l-73 -70l-9 -9q-12 -3 -66 -13l-54 -12z" />
    <glyph glyph-name="fi" unicode="&#xf001;" horiz-adv-x="835" 
d="M649 131l12 -30q-156 -75 -250 -106q4 93 31 175.5t109 262.5q123 265 125 316q1 19 -9.5 24t-50.5 5h-224l-272 -768q-39 0 -52 -9t-29 -48q-83 -195 -140 -282q-66 -104 -151.5 -166t-160.5 -62q-41 0 -68.5 21t-27.5 53q0 10 5 29q54 -13 104 -13q175 0 277.5 164.5
t302.5 766.5l93 280l11 34h-111l11 28h12l28 2q71 0 116 102q59 135 133.5 216t208.5 158q146 83 242 83q69 0 67 -30q-1 -12 -19 -65l-47 -139h-32q19 61 19 93q0 51 -93 51q-136 0 -227.5 -99.5t-179.5 -342.5l-9 -26h230q74 0 144 31l30 14q0 -103 -123 -382l-75 -168
q-59 -135 -61 -165q-1 -29 34 -29q18 0 67 21z" />
    <glyph glyph-name="fl" unicode="&#xf002;" horiz-adv-x="725" 
d="M403 809h160l-9 -31h-162l-272 -768q-39 0 -52 -9t-29 -47q-83 -196 -140 -283q-66 -104 -151.5 -166t-160.5 -62q-41 0 -68.5 21t-27.5 53q0 10 5 29q54 -13 104 -13q175 0 277.5 165t302.5 766l93 280l11 34h-111l12 28h11l28 2q71 0 117 102q59 135 133 215.5
t209 158.5q145 83 238 83q41 0 56 -8t15 -29q0 -66 -166 -444q-282 -643 -286 -742q-2 -45 36 -43q28 1 104 59l11 9l19 -26q-161 -141 -236 -141q-60 0 -60 84q0 65 42.5 184.5t198.5 491.5l95 227q93 223 93 264q0 25 -37 25q-46 0 -107.5 -28t-102.5 -68
q-89 -85 -184 -347z" />
    <glyph glyph-name="daggerdbl" unicode="&#x2021;" horiz-adv-x="819" 
d="M889 1502q-25 -60 -97 -259q-9 -22 -34 -91l-35 -92h180h40q81 0 133 27l4 2l-3 -6l-7 -16q-41 -93 -170 -93h-48h-161q-123 -341 -178 -475l-8 -19h189h40q79 0 120 21l13 6l4 2l-3 -6l-7 -16q-39 -93 -171 -93h-47h-173q-126 -301 -198 -442l-13 -26l-14 -7
q-95 -47 -156 -55q107 165 257 530h-223q-38 0 -50.5 -7t-30.5 -39h-18l63 132h296l9 19q44 103 93 244l9 23l75 208h-237q-35 0 -48 -6t-27 -30q-2 -4 -6 -10h-18l63 132h304l28 79l29 79l32 91q34 95 46 138q95 23 154 55z" />
    <glyph glyph-name="periodcentered" unicode="&#x2219;" horiz-adv-x="341" 
d="M219 487q46 0 46 -46q0 -26 -20.5 -47t-46.5 -21q-47 0 -47 46q0 27 20.5 47.5t47.5 20.5z" />
    <glyph glyph-name="quotesinglbase" unicode="&#x201a;" horiz-adv-x="345" 
d="M105 150q1 -20 1 -29q0 -93 -55.5 -196.5t-146.5 -180.5l11 24q79 168 79 249z" />
    <glyph glyph-name="quotedblbase" unicode="&#x201e;" horiz-adv-x="536" 
d="M105 150q1 -20 1 -29q0 -93 -55.5 -196.5t-146.5 -180.5l11 24q79 168 79 249zM296 150q2 -21 2 -29q0 -93 -55.5 -196.5t-147.5 -180.5l11 24q79 168 79 249z" />
    <glyph glyph-name="perthousand" unicode="&#x2030;" horiz-adv-x="2102" 
d="M1308 1341l-837 -1341l-43 20l839 1339zM1179 526q80 0 135.5 -57t55.5 -139q0 -117 -114.5 -237t-226.5 -120q-91 0 -154.5 60t-63.5 148q0 125 117 235t251 110zM1131 460q-100 0 -176 -67.5t-76 -156.5q0 -85 50.5 -135.5t134.5 -50.5q96 0 163 67t67 162
q0 79 -45.5 130t-117.5 51zM729 1392q80 0 135.5 -57t55.5 -140q0 -116 -114.5 -236t-225.5 -120q-92 0 -155.5 60t-63.5 147q0 126 117 236t251 110zM681 1326q-100 0 -176 -67.5t-76 -156.5q0 -84 50.5 -135t134.5 -51q96 0 163 67t67 162q0 79 -45.5 130t-117.5 51z
M1834 526q80 0 135.5 -57t55.5 -139q0 -117 -114.5 -237t-226.5 -120q-91 0 -154.5 60t-63.5 148q0 125 117 235t251 110zM1786 460q-100 0 -176 -67.5t-76 -156.5q0 -85 50.5 -135.5t134.5 -50.5q96 0 163 67t67 162q0 79 -45.5 130t-117.5 51z" />
    <glyph glyph-name="Acircumflex" unicode="&#xc2;" horiz-adv-x="1683" 
d="M1326 1485l28 -26q-42 -47 -55 -87t-13 -123q0 -340 152 -816q85 -264 133 -264q23 0 74 53l25 -24l-12 -13q-86 -92 -157 -178l-20 -25q-127 263 -212.5 573t-85.5 505q0 82 12 188l3 27q-80 -83 -245 -290q-103 -129 -186 -223l-23 -26q55 4 123 4l291 -5l41 -2
q-36 -100 -70 -248h-38q14 54 14 84q0 38 -26 50t-107 12h-145l-163 -3l-20 -1l-26 -26q-216 -210 -291 -274t-222 -161l-28 -19q71 6 153 6q189 0 289 -12l188 -21q75 -9 135 -9q155 0 247.5 80t114.5 234q37 -22 37 -57q0 -86 -115 -197q-179 -172 -389 -172
q-70 0 -192 13q-297 31 -466 31l-210 -5h-19l63 101q264 96 489 299t635 714q197 245 289 333zM1492 1851v-22l2 -125q0 -69 7 -151q-12 -9 -15 -11l-44 -31q-23 -16 -42 -36q2 27 2 55q0 128 -24 128q-17 0 -46 -30l-39 -40q-77 -80 -117 -80q-13 0 -26 7l10 8l73 58
q111 89 246 254z" />
    <glyph glyph-name="Ecircumflex" unicode="&#xca;" horiz-adv-x="2361" 
d="M2118 1365l-6 -16q-23 -70 -34 -111l-28 -105q0 -2 -5 -19h-38l4 14q14 55 14 81q0 35 -21.5 45t-95.5 10l-33 -1h-224l-4 -15q-66 -260 -107 -342q-79 -156 -223 -237q-112 -63 -224 -98q128 -44 320 -166q132 -84 171 -106q104 131 104 268q0 210 -173 285h353
l-28 -108h-166q89 -87 89 -213q0 -125 -114 -270l18 -11q134 -77 202 -103t133 -26q134 0 224 93t102 244q39 -27 39 -83t-59 -129.5t-147 -128.5l-117 -72q-67 -42 -86 -42q-49 0 -177 54t-232 118q-107 -76 -280.5 -123t-352.5 -47q-341 0 -536 142.5t-195 391.5
q0 310 321 552q187 141 381 204t439 63l182 -1l161 1l216 2l213 5h20zM1545 1263h-215q-269 0 -404.5 -24t-271.5 -95q-166 -86 -261 -238.5t-95 -330.5q0 -234 174 -385q165 -144 475 -144q313 0 547 165q-23 12 -25 14l-218 137q-113 71 -256.5 117.5t-250.5 46.5
q-58 0 -124 -15q48 53 77 112q26 7 68 7q39 0 76 -5l86 -12q42 -6 80 -6q187 0 321 143q131 141 217 513zM1994 1851v-22l1 -125q0 -69 8 -151q-12 -9 -15 -11l-44 -31q-23 -16 -42 -36q2 25 2 55q0 128 -24 128q-17 0 -46 -30l-39 -40q-77 -80 -117 -80q-13 0 -26 7l10 8
l72 58q112 89 247 254z" />
    <glyph glyph-name="Aacute" unicode="&#xc1;" horiz-adv-x="1683" 
d="M1326 1485l28 -26q-42 -47 -55 -87t-13 -123q0 -340 152 -816q85 -264 133 -264q23 0 74 53l25 -24l-12 -13q-86 -92 -157 -178l-20 -25q-127 263 -212.5 573t-85.5 505q0 82 12 188l3 27q-80 -83 -245 -290q-103 -129 -186 -223l-23 -26q55 4 123 4l291 -5l41 -2
q-36 -100 -70 -248h-38q14 54 14 84q0 38 -26 50t-107 12h-145l-163 -3l-20 -1l-26 -26q-216 -210 -291 -274t-222 -161l-28 -19q71 6 153 6q189 0 289 -12l188 -21q75 -9 135 -9q155 0 247.5 80t114.5 234q37 -22 37 -57q0 -86 -115 -197q-179 -172 -389 -172
q-70 0 -192 13q-297 31 -466 31l-210 -5h-19l63 101q264 96 489 299t635 714q197 245 289 333zM1464 1818l52 -87q-189 -63 -304 -256q27 281 252 343z" />
    <glyph glyph-name="Edieresis" unicode="&#xcb;" horiz-adv-x="2361" 
d="M2118 1365l-6 -16q-23 -70 -34 -111l-28 -105q0 -2 -5 -19h-38l4 14q14 55 14 81q0 35 -21.5 45t-95.5 10l-33 -1h-224l-4 -15q-66 -260 -107 -342q-79 -156 -223 -237q-112 -63 -224 -98q128 -44 320 -166q132 -84 171 -106q104 131 104 268q0 210 -173 285h353
l-28 -108h-166q89 -87 89 -213q0 -125 -114 -270l18 -11q134 -77 202 -103t133 -26q134 0 224 93t102 244q39 -27 39 -83t-59 -129.5t-147 -128.5l-117 -72q-67 -42 -86 -42q-49 0 -177 54t-232 118q-107 -76 -280.5 -123t-352.5 -47q-341 0 -536 142.5t-195 391.5
q0 310 321 552q187 141 381 204t439 63l182 -1l161 1l216 2l213 5h20zM1545 1263h-215q-269 0 -404.5 -24t-271.5 -95q-166 -86 -261 -238.5t-95 -330.5q0 -234 174 -385q165 -144 475 -144q313 0 547 165q-23 12 -25 14l-218 137q-113 71 -256.5 117.5t-250.5 46.5
q-58 0 -124 -15q48 53 77 112q26 7 68 7q39 0 76 -5l86 -12q42 -6 80 -6q187 0 321 143q131 141 217 513zM1953 1684q46 0 46 -46q0 -26 -20.5 -47t-46.5 -21q-47 0 -47 46q0 27 20.5 47.5t47.5 20.5zM1745 1684q46 0 46 -46q0 -26 -20.5 -47t-46.5 -21q-47 0 -47 46
q0 27 20.5 47.5t47.5 20.5z" />
    <glyph glyph-name="Egrave" unicode="&#xc8;" horiz-adv-x="2361" 
d="M2118 1365l-6 -16q-23 -70 -34 -111l-28 -105q0 -2 -5 -19h-38l4 14q14 55 14 81q0 35 -21.5 45t-95.5 10l-33 -1h-224l-4 -15q-66 -260 -107 -342q-79 -156 -223 -237q-112 -63 -224 -98q128 -44 320 -166q132 -84 171 -106q104 131 104 268q0 210 -173 285h353
l-28 -108h-166q89 -87 89 -213q0 -125 -114 -270l18 -11q134 -77 202 -103t133 -26q134 0 224 93t102 244q39 -27 39 -83t-59 -129.5t-147 -128.5l-117 -72q-67 -42 -86 -42q-49 0 -177 54t-232 118q-107 -76 -280.5 -123t-352.5 -47q-341 0 -536 142.5t-195 391.5
q0 310 321 552q187 141 381 204t439 63l182 -1l161 1l216 2l213 5h20zM1545 1263h-215q-269 0 -404.5 -24t-271.5 -95q-166 -86 -261 -238.5t-95 -330.5q0 -234 174 -385q165 -144 475 -144q313 0 547 165q-23 12 -25 14l-218 137q-113 71 -256.5 117.5t-250.5 46.5
q-58 0 -124 -15q48 53 77 112q26 7 68 7q39 0 76 -5l86 -12q42 -6 80 -6q187 0 321 143q131 141 217 513zM1769 1818q224 -62 252 -343q-116 193 -304 256z" />
    <glyph glyph-name="Iacute" unicode="&#xcd;" horiz-adv-x="1898" 
d="M1148 1365h1038l-7 -24q-204 -636 -485 -949q-163 -182 -382 -286t-440 -104q-318 0 -503 171q-189 175 -189 427q0 203 134.5 332t345.5 129q200 0 386 -126q96 52 207 52q135 0 219.5 -95.5t84.5 -248.5q0 -130 -98 -308q-218 300 -490 507q-138 -129 -138 -334
q0 -86 26 -183q-91 66 -91 185q0 188 172 354q-184 138 -350 138q-153 0 -254 -102.5t-101 -258.5q0 -207 162 -355q95 -88 246.5 -137.5t322.5 -49.5q473 0 777 408q190 254 333 735h-703h-70l-82 -4q-47 -4 -71.5 -22.5t-44.5 -66.5l-5 -12l-37 8l9 22l37 92l33 87
q1 2 8 19zM1489 490q26 75 26 138q0 129 -86.5 222t-207.5 93q-66 0 -139 -32q204 -147 407 -421zM1845 1818l51 -87q-188 -63 -304 -256q28 281 253 343z" />
    <glyph glyph-name="Icircumflex" unicode="&#xce;" horiz-adv-x="1898" 
d="M1148 1365h1038l-7 -24q-204 -636 -485 -949q-163 -182 -382 -286t-440 -104q-318 0 -503 171q-189 175 -189 427q0 203 134.5 332t345.5 129q200 0 386 -126q96 52 207 52q135 0 219.5 -95.5t84.5 -248.5q0 -130 -98 -308q-218 300 -490 507q-138 -129 -138 -334
q0 -86 26 -183q-91 66 -91 185q0 188 172 354q-184 138 -350 138q-153 0 -254 -102.5t-101 -258.5q0 -207 162 -355q95 -88 246.5 -137.5t322.5 -49.5q473 0 777 408q190 254 333 735h-703h-70l-82 -4q-47 -4 -71.5 -22.5t-44.5 -66.5l-5 -12l-37 8l9 22l37 92l33 87
q1 2 8 19zM1489 490q26 75 26 138q0 129 -86.5 222t-207.5 93q-66 0 -139 -32q204 -147 407 -421zM1831 1851v-22l1 -125q0 -69 8 -151q-12 -9 -16 -11l-43 -31q-24 -16 -42 -36q2 23 2 55q0 128 -24 128q-17 0 -46 -30l-39 -40q-77 -80 -117 -80q-13 0 -26 7l10 8l72 58
q112 89 247 254z" />
    <glyph glyph-name="Idieresis" unicode="&#xcf;" horiz-adv-x="1898" 
d="M1148 1365h1038l-7 -24q-204 -636 -485 -949q-163 -182 -382 -286t-440 -104q-318 0 -503 171q-189 175 -189 427q0 203 134.5 332t345.5 129q200 0 386 -126q96 52 207 52q135 0 219.5 -95.5t84.5 -248.5q0 -130 -98 -308q-218 300 -490 507q-138 -129 -138 -334
q0 -86 26 -183q-91 66 -91 185q0 188 172 354q-184 138 -350 138q-153 0 -254 -102.5t-101 -258.5q0 -207 162 -355q95 -88 246.5 -137.5t322.5 -49.5q473 0 777 408q190 254 333 735h-703h-70l-82 -4q-47 -4 -71.5 -22.5t-44.5 -66.5l-5 -12l-37 8l9 22l37 92l33 87
q1 2 8 19zM1489 490q26 75 26 138q0 129 -86.5 222t-207.5 93q-66 0 -139 -32q204 -147 407 -421zM1804 1684q46 0 46 -46q0 -26 -20.5 -47t-46.5 -21q-47 0 -47 46q0 27 20.5 47.5t47.5 20.5zM1623 1684q46 0 46 -46q0 -26 -20.5 -47t-46.5 -21q-47 0 -47 46
q0 27 20.5 47.5t47.5 20.5z" />
    <glyph glyph-name="Igrave" unicode="&#xcc;" horiz-adv-x="1898" 
d="M1148 1365h1038l-7 -24q-204 -636 -485 -949q-163 -182 -382 -286t-440 -104q-318 0 -503 171q-189 175 -189 427q0 203 134.5 332t345.5 129q200 0 386 -126q96 52 207 52q135 0 219.5 -95.5t84.5 -248.5q0 -130 -98 -308q-218 300 -490 507q-138 -129 -138 -334
q0 -86 26 -183q-91 66 -91 185q0 188 172 354q-184 138 -350 138q-153 0 -254 -102.5t-101 -258.5q0 -207 162 -355q95 -88 246.5 -137.5t322.5 -49.5q473 0 777 408q190 254 333 735h-703h-70l-82 -4q-47 -4 -71.5 -22.5t-44.5 -66.5l-5 -12l-37 8l9 22l37 92l33 87
q1 2 8 19zM1489 490q26 75 26 138q0 129 -86.5 222t-207.5 93q-66 0 -139 -32q204 -147 407 -421zM1578 1818q225 -62 253 -343q-116 193 -305 256z" />
    <glyph glyph-name="Oacute" unicode="&#xd3;" horiz-adv-x="1848" 
d="M1685 1368l-90 -250q168 -48 244.5 -134t76.5 -225q0 -267 -231 -488q-143 -137 -344.5 -213t-422.5 -76q-334 0 -530.5 151.5t-196.5 408.5q0 195 104.5 359.5t301.5 279.5q353 206 820 206q150 0 268 -19zM1577 1073q-117 -287 -322.5 -443.5t-464.5 -156.5l-86 1
q-25 0 -47 -5q-19 -5 -49 -19q8 16 11 20l26 54q35 71 118 71h124q76 0 148 10q171 23 286.5 137.5t199.5 344.5q-97 22 -178 22q-215 0 -360.5 -101.5t-192.5 -283.5q-23 36 -23 77q0 149 168 248t420 99q68 0 162 -12l21 -3l46 149q-183 26 -320 26q-472 0 -698 -206
q-111 -102 -174 -245.5t-63 -295.5q0 -242 162 -378q186 -155 496 -155q338 0 566.5 205.5t228.5 509.5q0 125 -56.5 216t-148.5 114zM1546 1818l52 -87q-188 -63 -304 -256q28 281 252 343z" />
    <glyph glyph-name="Ocircumflex" unicode="&#xd4;" horiz-adv-x="1848" 
d="M1685 1368l-90 -250q168 -48 244.5 -134t76.5 -225q0 -267 -231 -488q-143 -137 -344.5 -213t-422.5 -76q-334 0 -530.5 151.5t-196.5 408.5q0 195 104.5 359.5t301.5 279.5q353 206 820 206q150 0 268 -19zM1577 1073q-117 -287 -322.5 -443.5t-464.5 -156.5l-86 1
q-25 0 -47 -5q-19 -5 -49 -19q8 16 11 20l26 54q35 71 118 71h124q76 0 148 10q171 23 286.5 137.5t199.5 344.5q-97 22 -178 22q-215 0 -360.5 -101.5t-192.5 -283.5q-23 36 -23 77q0 149 168 248t420 99q68 0 162 -12l21 -3l46 149q-183 26 -320 26q-472 0 -698 -206
q-111 -102 -174 -245.5t-63 -295.5q0 -242 162 -378q186 -155 496 -155q338 0 566.5 205.5t228.5 509.5q0 125 -56.5 216t-148.5 114zM1600 1851l1 -22l1 -125q0 -69 7 -151q-12 -9 -15 -11l-44 -31q-23 -16 -41 -36q2 24 2 55q0 128 -24 128q-17 0 -46 -30l-39 -40
q-77 -80 -117 -80q-13 0 -26 7l10 8l72 58q111 89 246 254z" />
    <glyph glyph-name="Ograve" unicode="&#xd2;" horiz-adv-x="1848" 
d="M1685 1368l-90 -250q168 -48 244.5 -134t76.5 -225q0 -267 -231 -488q-143 -137 -344.5 -213t-422.5 -76q-334 0 -530.5 151.5t-196.5 408.5q0 195 104.5 359.5t301.5 279.5q353 206 820 206q150 0 268 -19zM1577 1073q-117 -287 -322.5 -443.5t-464.5 -156.5l-86 1
q-25 0 -47 -5q-19 -5 -49 -19q8 16 11 20l26 54q35 71 118 71h124q76 0 148 10q171 23 286.5 137.5t199.5 344.5q-97 22 -178 22q-215 0 -360.5 -101.5t-192.5 -283.5q-23 36 -23 77q0 149 168 248t420 99q68 0 162 -12l21 -3l46 149q-183 26 -320 26q-472 0 -698 -206
q-111 -102 -174 -245.5t-63 -295.5q0 -242 162 -378q186 -155 496 -155q338 0 566.5 205.5t228.5 509.5q0 125 -56.5 216t-148.5 114zM1280 1818q224 -62 252 -343q-116 193 -304 256z" />
    <glyph glyph-name="Uacute" unicode="&#xda;" horiz-adv-x="2529" 
d="M1912 434q-52 -157 -132 -302q25 2 33 2q67 0 176 -6q107 -6 134 -6q152 0 253.5 114.5t101.5 286.5q0 21 -3 65q47 -38 47 -109q0 -142 -135 -286q-160 -171 -359 -171q-52 0 -129 9q-177 20 -236 20q65 157 95 262q-20 -14 -25 -18l-87 -61q-130 -92 -290 -161
t-244 -69q-71 0 -114.5 36.5t-43.5 94.5q0 79 70 257l106 269q180 456 180 556q0 93 -189 93q-221 0 -411 -83t-299 -226q-134 -178 -134 -413q0 -69 23 -185q-102 86 -102 260q0 163 98 303.5t281 240.5q157 86 321.5 122t399.5 36q111 0 199 -8q-53 -253 -252 -741
q-110 -270 -135 -340t-25 -110q0 -99 103 -99q101 0 312 126q189 112 282 186q36 109 88 304q61 233 124.5 363t164.5 228q142 137 262 137q102 0 102 -127q0 -322 -584 -826zM1936 507q206 164 347.5 381t141.5 367q0 97 -64 97q-75 0 -172 -156q-61 -98 -106 -218.5
t-127 -404.5zM1955 1818l52 -87q-188 -63 -304 -256q28 281 252 343z" />
    <glyph glyph-name="Ucircumflex" unicode="&#xdb;" horiz-adv-x="2529" 
d="M1912 434q-52 -157 -132 -302q25 2 33 2q67 0 176 -6q107 -6 134 -6q152 0 253.5 114.5t101.5 286.5q0 21 -3 65q47 -38 47 -109q0 -142 -135 -286q-160 -171 -359 -171q-52 0 -129 9q-177 20 -236 20q65 157 95 262q-20 -14 -25 -18l-87 -61q-130 -92 -290 -161
t-244 -69q-71 0 -114.5 36.5t-43.5 94.5q0 79 70 257l106 269q180 456 180 556q0 93 -189 93q-221 0 -411 -83t-299 -226q-134 -178 -134 -413q0 -69 23 -185q-102 86 -102 260q0 163 98 303.5t281 240.5q157 86 321.5 122t399.5 36q111 0 199 -8q-53 -253 -252 -741
q-110 -270 -135 -340t-25 -110q0 -99 103 -99q101 0 312 126q189 112 282 186q36 109 88 304q61 233 124.5 363t164.5 228q142 137 262 137q102 0 102 -127q0 -322 -584 -826zM1936 507q206 164 347.5 381t141.5 367q0 97 -64 97q-75 0 -172 -156q-61 -98 -106 -218.5
t-127 -404.5zM2010 1851v-22l1 -125q0 -69 8 -151l-16 -11l-43 -31q-24 -16 -42 -36q2 25 2 55q0 128 -24 128q-17 0 -46 -30l-39 -40q-77 -80 -117 -80q-13 0 -26 7l10 8l72 58q111 89 246 254z" />
    <glyph glyph-name="Ugrave" unicode="&#xd9;" horiz-adv-x="2529" 
d="M1912 434q-52 -157 -132 -302q25 2 33 2q67 0 176 -6q107 -6 134 -6q152 0 253.5 114.5t101.5 286.5q0 21 -3 65q47 -38 47 -109q0 -142 -135 -286q-160 -171 -359 -171q-52 0 -129 9q-177 20 -236 20q65 157 95 262q-20 -14 -25 -18l-87 -61q-130 -92 -290 -161
t-244 -69q-71 0 -114.5 36.5t-43.5 94.5q0 79 70 257l106 269q180 456 180 556q0 93 -189 93q-221 0 -411 -83t-299 -226q-134 -178 -134 -413q0 -69 23 -185q-102 86 -102 260q0 163 98 303.5t281 240.5q157 86 321.5 122t399.5 36q111 0 199 -8q-53 -253 -252 -741
q-110 -270 -135 -340t-25 -110q0 -99 103 -99q101 0 312 126q189 112 282 186q36 109 88 304q61 233 124.5 363t164.5 228q142 137 262 137q102 0 102 -127q0 -322 -584 -826zM1936 507q206 164 347.5 381t141.5 367q0 97 -64 97q-75 0 -172 -156q-61 -98 -106 -218.5
t-127 -404.5zM1757 1818q225 -62 253 -343q-116 193 -305 256z" />
    <glyph glyph-name="dotlessi" unicode="&#x131;" horiz-adv-x="365" 
d="M418 855v-11q0 -94 -124 -372l-74 -168q-59 -135 -61 -165q-1 -31 34 -29q20 1 66 21l13 -29q-157 -75 -251 -107q5 94 30.5 173.5t110.5 263.5q108 236 110 276q2 31 -26 31q-13 0 -34 -7l-42 -15q-4 -1 -19 -7l-10 32l21 7q111 41 226 92z" />
    <glyph glyph-name="circumflex" unicode="&#x2c6;" 
d="M938 1250v-22l1 -125q0 -68 7 -151q-11 -8 -14 -11l-42 -31q-22 -16 -40 -36q2 27 2 55q0 128 -23 128q-16 0 -43 -30l-37 -40q-73 -80 -111 -80q-12 0 -25 7l10 9l68 57q106 90 234 254z" />
    <glyph glyph-name="tilde" unicode="&#x2dc;" 
d="M586 932q29 91 56.5 122t77.5 31q30 0 99 -17q58 -14 84 -14q49 0 73 51l19 -4q-25 -84 -54 -115.5t-80 -31.5q-21 0 -40 4l-59 15q-60 14 -88 14q-43 0 -66 -49q-1 -3 -5 -10z" />
    <glyph glyph-name="macron" unicode="&#x2c9;" 
d="M614 1063h220h40q41 0 48 2l38 7q24 4 28 9l13 16q1 1 10 5q-26 -123 -180 -123h-48h-147q-34 0 -53 -30l-3 -6h-16z" />
    <glyph glyph-name="breve" unicode="&#x2d8;" 
d="M1056 1083q-93 -134 -195 -134q-129 0 -199 129l50 70q54 -117 165 -117q46 0 97.5 23t67.5 50z" />
    <glyph glyph-name="dotaccent" unicode="&#x2d9;" 
d="M815 1083q46 0 46 -46q0 -26 -20.5 -47t-46.5 -21q-47 0 -47 46q0 27 20.5 47.5t47.5 20.5z" />
    <glyph glyph-name="ring" unicode="&#x2da;" 
d="M854 1145q28 0 46 -20t16 -48q-3 -62 -64.5 -119t-124.5 -57q-64 0 -64 68q0 59 63.5 117.5t127.5 58.5zM825 1105q-31 3 -68.5 -40.5t-37.5 -82.5q0 -37 36 -37t69.5 37.5t33.5 77.5q0 42 -33 45z" />
    <glyph glyph-name="cedilla" unicode="&#xb8;" 
d="M345 0l-46 -103q46 14 80 14q102 0 102 -82q0 -93 -87.5 -178.5t-182.5 -85.5q-77 0 -77 76q0 83 85 113q-19 -47 -19 -72q0 -65 51 -65q56 0 104.5 56t48.5 121q0 68 -82 68q-53 0 -103 -43l81 181h45z" />
    <glyph glyph-name="hungarumlaut" unicode="&#x2dd;" 
d="M799 1204l38 -87q-143 -63 -230 -256q21 156 65 234.5t127 108.5zM1031 1204l39 -87q-143 -63 -231 -256q21 156 65 234.5t127 108.5z" />
    <glyph glyph-name="ogonek" unicode="&#x2db;" 
d="M413 0q-81 -70 -81 -175q0 -107 105 -144l-48 -133q-123 45 -123 204q0 133 99 248h48z" />
    <glyph glyph-name="caron" unicode="&#x2c7;" 
d="M699 874l-1 21l-1 125q0 68 -7 151q11 9 15 12l41 30q22 17 40 37q-2 -27 -2 -55q0 -128 23 -128q16 0 43 29l37 41q73 79 111 79q13 0 25 -6l-9 -9l-69 -58q-106 -89 -234 -253z" />
    <glyph glyph-name="Scaron" unicode="&#x160;" horiz-adv-x="2468" 
d="M2387 1180l13 -34q-110 -51 -250 -105l-26 -10q6 35 12 85l9 71q6 43 6 70q0 61 -58 61q-94 0 -222 -83q-172 -111 -172 -257q0 -53 45.5 -69.5t194.5 -16.5h13q3 32 3 44q0 85 -24 149q100 -24 100 -176v-17l157 3q109 0 154 -16q149 -53 149 -218q0 -222 -166 -426
q-198 -243 -483 -243q-209 0 -318 169q-248 -156 -525 -156q-213 0 -388 96q-341 188 -341 642q0 288 153 472t391 184q231 0 398 -149q93 -82 150 -200.5t130 -378.5l50 -180q41 -146 74 -221q99 59 198.5 214t122.5 286l-46 -1q-167 0 -235.5 27.5t-68.5 95.5
q0 110 121 251q97 113 229 177.5t341 100.5l34 6l-3 -16q-10 -45 -16 -80l-16 -94q-7 -45 -7 -58q0 -29 24 -29q17 0 35 7zM2013 772q-33 -140 -141 -293t-240 -247q49 -105 108 -147.5t154 -42.5q193 0 341.5 159t148.5 365q0 116 -64.5 160.5t-231.5 44.5h-50zM1507 197
q-48 106 -71 190l-80 294q-95 351 -229 509.5t-334 158.5q-209 0 -326.5 -140t-117.5 -388q0 -129 47.5 -261t128.5 -229q102 -122 247 -190t304 -68q213 0 431 124zM2065 1475v21l-2 125q0 69 -7 151q12 9 15 11l44 31q23 17 42 37q-2 -28 -2 -56q0 -128 24 -128
q17 0 46 30l39 40q77 80 117 80q12 0 26 -7l-10 -8l-73 -58q-111 -89 -246 -253z" />
    <glyph glyph-name="scaron" unicode="&#x161;" horiz-adv-x="461" 
d="M610 829l-11 -19l-49 -82q-26 -44 -55 -88l-11 -16l-25 17q5 11 7 16q21 43 21 61q0 38 -67 38q-61 0 -107 -45.5t-46 -105.5q0 -32 20 -76l48 -103q24 -52 24 -114q0 -121 -133 -229q-115 -93 -204 -93q-51 0 -84 25.5t-33 65.5q0 47 24 91q62 -106 154 -106
q73 0 129 50t56 116q0 35 -20 80l-59 129q-17 38 -17 84q0 83 92 186q62 68 123.5 95.5t154.5 27.5q36 0 68 -5zM445 874l-1 21l-1 125q0 68 -7 151q11 9 15 12l41 30q22 17 40 37q-2 -27 -2 -55q0 -128 23 -128q16 0 43 29l37 41q73 79 111 79q13 0 25 -6l-9 -9l-69 -58
q-106 -89 -234 -253z" />
    <glyph glyph-name="brokenbar" unicode="&#xa6;" 
d="M465 1365h95v-678h-95v678zM465 314h95v-655h-95v655z" />
    <glyph glyph-name="Eth" unicode="&#xd0;" horiz-adv-x="2270" 
d="M1741 625h221v-31h-232l-13 -38q-48 -136 -48 -166t38 -30q20 0 54 11l11 -36l-23 -8q-80 -29 -195 -66l-27 -9q3 26 10 55l8 34q13 55 72 224l10 29h-142v31h153q32 97 32 117q0 38 -30 38q-17 0 -63 -21l-122 -54l-119 -56q-60 -27 -229 -89l-24 -8
q144 -253 275 -362.5t291 -109.5q143 0 276.5 77.5t218.5 208.5q145 227 145 462q0 206 -145 317.5t-414 111.5q-96 0 -230 -13l-343 -33q-88 -8 -183 -8q-114 0 -192 29l5 19q15 54 26 101l23 107l3 16l37 -5q-9 -47 -11 -83q-1 -29 36 -40t141 -11q70 0 192 10l255 22
q133 12 244 12q312 0 477.5 -125.5t165.5 -360.5q0 -174 -81.5 -355t-219.5 -315q-225 -218 -491 -218q-173 0 -286.5 79.5t-248.5 293.5l-74 118l-9 14l-20 -6q-283 -93 -420 -93q-146 0 -235 79.5t-89 210.5q0 185 164 291q111 72 229 72q184 0 362 -298l95 -163l12 -20
l36 14q295 111 553 236q92 45 152 71q4 -13 4 -25q0 -63 -34 -160l-17 -47zM945 544l-23 38q-148 243 -232.5 321.5t-199.5 78.5q-97 0 -168 -71.5t-71 -168.5q0 -120 90.5 -197.5t229.5 -77.5q160 0 374 77z" />
    <glyph glyph-name="eth" unicode="&#xf0;" horiz-adv-x="713" 
d="M846 1173l147 47l10 -30l-145 -47q25 -76 25 -165q0 -195 -106 -398.5t-295 -373.5q-243 -219 -373 -219q-47 0 -76 31.5t-29 82.5q0 146 108 304.5t293 284.5q88 59 183 100t151 44q17 1 17 -13q0 -23 -47.5 -50.5t-105.5 -38.5q-185 -35 -318 -206
q-66 -85 -108.5 -186.5t-42.5 -173.5q0 -75 69 -75q112 0 258 142q141 137 225.5 317t84.5 345q0 102 -47 205l-175 -57l-9 30l169 55q-91 149 -241 149q-86 0 -144.5 -51.5t-58.5 -127.5q0 -35 23 -103q-85 0 -85 71q0 105 116.5 203.5t240.5 98.5q193 0 286 -195z" />
    <glyph glyph-name="Yacute" unicode="&#xdd;" horiz-adv-x="2661" 
d="M1724 591q-137 -211 -230 -387q-2 -12 -2 -15l-5 -59l-5 -52q-1 -5 -2 -23l-17 -7q-56 -21 -82 -47t-51 -85q-46 -107 -46 -210q0 -64 23.5 -97.5t83.5 -54.5l-51 -140q-128 47 -128 215q0 136 112 362q31 63 43.5 141.5t12.5 211.5l-1 223v22q-156 -35 -247 -141.5
t-91 -253.5q0 -153 116 -265q-22 -4 -31 -4q-64 0 -105.5 59.5t-41.5 150.5q0 172 103.5 311t290.5 220q-21 211 -76 331q-67 146 -193.5 231.5t-275.5 85.5q-218 0 -358.5 -141.5t-140.5 -361.5q0 -213 132 -390.5t327 -224.5v-19q-233 0 -383 158t-150 404
q0 274 181 457.5t452 183.5q269 0 425.5 -174.5t186.5 -508.5q56 5 100 5q54 0 143 -10l19 28q251 374 463.5 534.5t455.5 160.5q125 0 198 -60.5t73 -164.5t-67.5 -214t-185.5 -199q-277 -208 -671 -208q-100 0 -163 7l-115 12q-4 1 -26 3zM1785 688l28 -3q173 -19 314 -19
q447 0 650 231q91 104 91 219q0 95 -72 155t-186 60q-411 0 -825 -643zM1680 595l-16 2q-84 9 -114 9q-13 0 -44 -3v-53q0 -133 -10 -261q13 20 15 24l78 130l79 132q2 2 12 20zM1954 1818l52 -87q-189 -63 -305 -256q28 281 253 343z" />
    <glyph glyph-name="yacute" unicode="&#xfd;" horiz-adv-x="782" 
d="M333 810q16 -41 16 -101q0 -123 -58 -350q158 208 294.5 325.5t218.5 117.5q58 0 58 -97q0 -246 -288 -553q-131 -140 -246 -206t-265 -89q-129 -20 -186 -60t-57 -111q0 -54 54.5 -87.5t141.5 -33.5q107 0 196 53q-23 -125 -195 -125q-103 0 -168 49t-65 127
q0 98 97 206q47 51 100.5 70t200.5 34q133 14 213 65q129 82 220 215q53 77 89 172.5t36 160.5q0 82 -55 82q-93 0 -258 -199t-284 -456l-9 -19h-35l10 38q114 401 114 579q0 63 -41 63q-17 0 -46 -11q-5 -2 -14 -5l-9 30q12 6 15 8l94 46l96 53q3 2 15 9zM759 1204l38 -87
q-178 -62 -289 -256q46 284 251 343z" />
    <glyph glyph-name="Thorn" unicode="&#xde;" horiz-adv-x="1919" 
d="M1327 1036l-141 -10l-141 -10l-291 -22q-104 -8 -203 -8q-189 0 -255 47l98 280l34 -8l-4 -17q-20 -68 -20 -96q0 -42 42.5 -59.5t144.5 -17.5q165 0 489 25q251 20 322 23l20 1l17 26q62 91 62 135q0 13 -11 29q19 2 21 2l53 2q14 0 60 6l14 1q-31 -37 -96 -128l-39 -54
l-12 -16h21l76 2q404 0 404 -263q0 -184 -150 -354q-162 -183 -387 -183q-120 0 -198 51t-183 199l-305 -407q164 109 303 109q127 0 334 -88l184 -79q80 -34 111 -34q55 0 138 111l31 -19q-11 -14 -13 -17l-73 -94l-71 -100l-15 -20q-92 22 -230 88q-190 89 -297 122
t-208 33q-106 0 -185.5 -48.5t-161.5 -164.5l-29 21zM1395 1040l-12 -16l-53 -68l-166 -217q15 -21 17 -25l53 -81q130 -201 312 -201q125 0 224 114q119 137 119 290q0 210 -313 210q-55 0 -160 -5z" />
    <glyph glyph-name="thorn" unicode="&#xfe;" horiz-adv-x="645" 
d="M608 1365l-191 -537q256 0 256 -202q0 -113 -56.5 -238t-150.5 -221q-134 -136 -235 -136q-61 0 -61 51q0 21 13 46q51 -33 87 -33q93 0 175 105q57 73 96 174t39 177q0 174 -202 174l-10 -25l-177 -462l-274 -699l-17 -45q-48 -21 -100 -33l-17 -5l13 31
q121 277 353 934l9 27l11 2q53 13 77 48.5t83 187.5l15 39l-26 1q-77 0 -147 -10l-54 -138l-28 11l86 228l17 1l82 6l92 4q3 0 16 1l193 536h33z" />
    <glyph glyph-name="multiply" unicode="&#xd7;" horiz-adv-x="874" 
d="M359 818l46 32l135 -225l285 209l24 -42l-285 -208l136 -226l-46 -33l-135 226l-286 -210l-23 42l284 208z" />
    <glyph glyph-name="onesuperior" unicode="&#xb9;" horiz-adv-x="563" 
d="M516 1254l-4 19q13 2 16 3l71 16l55 13q51 12 90 32q-20 -48 -59 -156q-148 -413 -248 -603l-9 -4q-59 -29 -96 -34q76 134 193 452l63 174q28 75 28 92q0 11 -9 11t-19 -2l-27 -5l-36 -7q-3 0 -9 -1z" />
    <glyph glyph-name="twosuperior" unicode="&#xb2;" horiz-adv-x="563" 
d="M622 546h-482l29 50q195 103 377 300.5t182 306.5q0 49 -33 82.5t-82 33.5q-64 0 -110 -48t-56 -125q-43 17 -43 60q0 56 84.5 99t192.5 43q66 0 106 -38t40 -100q0 -85 -143 -242.5t-386 -340.5l-23 -17h221l34 1q53 0 73.5 9.5t54.5 52.5q1 2 5 6h32q-51 -75 -73 -133z
" />
    <glyph glyph-name="threesuperior" unicode="&#xb3;" horiz-adv-x="563" 
d="M381 928q38 47 68 105q20 -1 26 -1q110 0 188.5 54t78.5 130q0 38 -26.5 62t-68.5 24q-63 0 -110 -42t-61 -112q-36 15 -34 50q3 53 89.5 95t190.5 42q114 0 114 -101q0 -74 -70 -134t-179 -79q-32 -5 -55.5 -22t-27.5 -38v-6q200 -22 200 -162q0 -107 -87.5 -182.5
t-210.5 -75.5q-81 0 -133 31t-52 80q0 20 9 50q36 -80 200 -80q105 0 171 51.5t66 132.5q0 134 -227 134q-19 0 -59 -6z" />
    <glyph glyph-name="onehalf" unicode="&#xbd;" horiz-adv-x="1425" 
d="M516 1254l-4 19q13 2 16 3l71 16l55 13q51 12 90 32q-20 -48 -59 -156q-148 -413 -248 -603l-9 -4q-59 -29 -96 -34q76 134 193 452l63 174q28 75 28 92q0 11 -9 11t-19 -2l-27 -5l-36 -7q-3 0 -9 -1zM1292 1341l-837 -1341l-43 20l839 1339zM1287 0h-482l29 50
q195 103 377 300.5t182 306.5q0 49 -33 82.5t-82 33.5q-64 0 -110 -48t-56 -125q-43 18 -43 60q0 56 84.5 99t192.5 43q66 0 106 -38t40 -100q0 -85 -143 -242t-386 -341l-23 -17h221l34 1q53 0 73.5 9.5t54.5 52.5q1 2 5 6h32q-51 -75 -73 -133z" />
    <glyph glyph-name="onequarter" unicode="&#xbc;" horiz-adv-x="1425" 
d="M516 1254l-4 19q13 2 16 3l71 16l55 13q51 12 90 32q-20 -48 -59 -156q-148 -413 -248 -603l-9 -4q-59 -29 -96 -34q76 134 193 452l63 174q28 75 28 92q0 11 -9 11t-19 -2l-27 -5l-36 -7q-3 0 -9 -1zM1292 1341l-837 -1341l-43 20l839 1339zM1180 772v20q22 -2 28 -2
q61 0 112 5q0 -88 -79 -210.5t-202 -226.5l-21 -18h15l144 -1h39l33 89l16 46q40 112 154 170q59 30 87 30q19 0 19 -27q0 -3 -1 -10q-17 6 -41 6q-49 0 -83 -45t-78 -167l-32 -91q77 0 110 16t42 59q23 -10 23 -25q0 -28 -62.5 -65.5t-139.5 -55.5l-94 -257q-31 -3 -42 -5
l-27 -5q-3 -1 -9 -2l99 269h-33l-150 1l-100 -1q26 33 40 67q110 39 202 203q76 137 76 207q0 23 -45 26z" />
    <glyph glyph-name="threequarters" unicode="&#xbe;" horiz-adv-x="1426" 
d="M381 928q38 47 68 105q20 -1 26 -1q110 0 188.5 54t78.5 130q0 38 -26.5 62t-68.5 24q-63 0 -110 -42t-61 -112q-36 15 -34 50q3 53 89.5 95t190.5 42q114 0 114 -101q0 -74 -70 -134t-179 -79q-32 -5 -55.5 -22t-27.5 -38v-6q200 -22 200 -162q0 -107 -87.5 -182.5
t-210.5 -75.5q-81 0 -133 31t-52 80q0 20 9 50q36 -80 200 -80q105 0 171 51.5t66 132.5q0 134 -227 134q-19 0 -59 -6zM1291 1341l-836 -1341l-43 20l839 1339zM1180 772v20q22 -2 28 -2q61 0 112 5q0 -88 -79 -210.5t-202 -226.5l-21 -18h15l144 -1h39l33 89l16 46
q40 112 154 170q59 30 87 30q19 0 19 -27q0 -3 -1 -10q-17 6 -41 6q-49 0 -83 -45t-78 -167l-32 -91q77 0 110 16t42 59q23 -10 23 -25q0 -28 -62.5 -65.5t-139.5 -55.5l-94 -257q-31 -3 -42 -5l-27 -5q-3 -1 -9 -2l99 269h-33l-150 1l-100 -1q26 33 40 67q110 39 202 203
q76 137 76 207q0 23 -45 26z" />
    <glyph glyph-name="glyph240" horiz-adv-x="1683" 
d="M1470 1684q46 0 46 -46q0 -26 -20.5 -47t-46.5 -21q-47 0 -47 46q0 27 20.5 47.5t47.5 20.5zM1262 1684q46 0 46 -46q0 -26 -20.5 -47t-46.5 -21q-47 0 -47 46q0 27 20.5 47.5t47.5 20.5z" />
    <glyph glyph-name="glyph241" horiz-adv-x="1683" 
d="M1464 1818l52 -87q-189 -63 -304 -256q27 281 252 343z" />
    <glyph glyph-name="glyph242" horiz-adv-x="1683" 
d="M1253 1818q225 -62 253 -343q-116 193 -305 256z" />
    <glyph glyph-name="glyph243" horiz-adv-x="1683" 
d="M1492 1851v-22l2 -125q0 -69 7 -151q-12 -9 -15 -11l-44 -31q-23 -16 -42 -36q2 27 2 55q0 128 -24 128q-17 0 -46 -30l-39 -40q-77 -80 -117 -80q-13 0 -26 7l10 8l73 58q111 89 246 254z" />
    <glyph glyph-name="glyph244" horiz-adv-x="1683" 
d="M1148 1533q31 97 63.5 134t87.5 37q34 0 110 -20q65 -16 94 -16q61 0 82 62l21 -4q-26 -90 -60 -127t-90 -37q-23 0 -44 5l-67 17q-67 16 -98 16q-29 0 -43.5 -11.5t-30.5 -47.5q-1 -4 -5 -12z" />
    <glyph glyph-name="glyph245" horiz-adv-x="1683" 
d="M1473 1781q28 0 45.5 -20t16.5 -48q-3 -62 -64.5 -119t-124.5 -57q-64 0 -64 68q0 59 63.5 117.5t127.5 58.5zM1444 1741q-31 3 -68.5 -40.5t-37.5 -82.5q0 -37 36 -37t69.5 37.5t33.5 77.5q0 42 -33 45z" />
    <glyph glyph-name="glyph246" horiz-adv-x="2361" 
d="M1953 1684q46 0 46 -46q0 -26 -20.5 -47t-46.5 -21q-47 0 -47 46q0 27 20.5 47.5t47.5 20.5zM1745 1684q46 0 46 -46q0 -26 -20.5 -47t-46.5 -21q-47 0 -47 46q0 27 20.5 47.5t47.5 20.5z" />
    <glyph glyph-name="glyph247" horiz-adv-x="2361" 
d="M1899 1818l51 -87q-188 -63 -304 -256q28 281 253 343z" />
    <glyph glyph-name="glyph248" horiz-adv-x="2361" 
d="M1769 1818q224 -62 252 -343q-116 193 -304 256z" />
    <glyph glyph-name="glyph249" horiz-adv-x="2361" 
d="M1994 1851v-22l1 -125q0 -69 8 -151q-12 -9 -15 -11l-44 -31q-23 -16 -42 -36q2 25 2 55q0 128 -24 128q-17 0 -46 -30l-39 -40q-77 -80 -117 -80q-13 0 -26 7l10 8l72 58q112 89 247 254z" />
    <glyph glyph-name="glyph250" horiz-adv-x="1898" 
d="M1804 1684q46 0 46 -46q0 -26 -20.5 -47t-46.5 -21q-47 0 -47 46q0 27 20.5 47.5t47.5 20.5zM1623 1684q46 0 46 -46q0 -26 -20.5 -47t-46.5 -21q-47 0 -47 46q0 27 20.5 47.5t47.5 20.5z" />
    <glyph glyph-name="glyph251" horiz-adv-x="1898" 
d="M1845 1818l51 -87q-188 -63 -304 -256q28 281 253 343z" />
    <glyph glyph-name="glyph252" horiz-adv-x="1898" 
d="M1578 1818q225 -62 253 -343q-116 193 -305 256z" />
    <glyph glyph-name="glyph253" horiz-adv-x="1898" 
d="M1831 1851v-22l1 -125q0 -69 8 -151q-12 -9 -16 -11l-43 -31q-24 -16 -42 -36q2 23 2 55q0 128 -24 128q-17 0 -46 -30l-39 -40q-77 -80 -117 -80q-13 0 -26 7l10 8l72 58q112 89 247 254z" />
    <glyph glyph-name="glyph254" horiz-adv-x="2487" 
d="M1823 1533q31 97 63.5 134t87.5 37q34 0 111 -20q64 -16 93 -16q61 0 82 62l21 -4q-26 -90 -60 -127t-90 -37q-23 0 -44 5l-67 17q-67 16 -98 16q-29 0 -43.5 -11.5t-29.5 -47.5l-6 -12z" />
    <glyph glyph-name="glyph255" horiz-adv-x="1848" 
d="M1429 1684q46 0 46 -46q0 -26 -20.5 -47t-46.5 -21q-47 0 -47 46q0 26 20.5 47t47.5 21zM1221 1684q46 0 46 -46q0 -26 -20.5 -47t-46.5 -21q-47 0 -47 46q0 26 20.5 47t47.5 21z" />
    <glyph glyph-name="glyph256" horiz-adv-x="1848" 
d="M1546 1818l52 -87q-188 -63 -304 -256q28 281 252 343z" />
    <glyph glyph-name="glyph257" horiz-adv-x="1848" 
d="M1280 1818q224 -62 252 -343q-116 193 -304 256z" />
    <glyph glyph-name="glyph258" horiz-adv-x="1848" 
d="M1600 1851l1 -22l1 -125q0 -69 7 -151q-12 -9 -15 -11l-44 -31q-23 -16 -41 -36q2 24 2 55q0 128 -24 128q-17 0 -46 -30l-39 -40q-77 -80 -117 -80q-13 0 -26 7l10 8l72 58q111 89 246 254z" />
    <glyph glyph-name="glyph259" horiz-adv-x="1848" 
d="M1272 1533q31 97 63.5 134t88.5 37q33 0 110 -20q64 -16 94 -16q60 0 81 62l21 -4q-26 -90 -60 -127t-90 -37q-23 0 -44 5l-67 17q-67 16 -97 16t-44 -11.5t-30 -47.5l-6 -12z" />
    <glyph glyph-name="glyph260" horiz-adv-x="2468" 
d="M2065 1475v21l-2 125q0 69 -7 151q12 9 15 11l44 31q23 17 42 37q-2 -28 -2 -56q0 -128 24 -128q17 0 46 30l39 40q77 80 117 80q12 0 26 -7l-10 -8l-73 -58q-111 -89 -246 -253z" />
    <glyph glyph-name="glyph261" horiz-adv-x="2529" 
d="M2008 1684q46 0 46 -46q0 -26 -20.5 -47t-46.5 -21q-47 0 -47 46q0 27 20.5 47.5t47.5 20.5zM1800 1684q46 0 46 -46q0 -26 -20.5 -47t-46.5 -21q-47 0 -47 46q0 27 20.5 47.5t47.5 20.5z" />
    <glyph glyph-name="glyph262" horiz-adv-x="2529" 
d="M1955 1818l52 -87q-188 -63 -304 -256q28 281 252 343z" />
    <glyph glyph-name="glyph263" horiz-adv-x="2529" 
d="M1757 1818q225 -62 253 -343q-116 193 -305 256z" />
    <glyph glyph-name="glyph264" horiz-adv-x="2529" 
d="M2010 1851v-22l1 -125q0 -69 8 -151l-16 -11l-43 -31q-24 -16 -42 -36q2 25 2 55q0 128 -24 128q-17 0 -46 -30l-39 -40q-77 -80 -117 -80q-13 0 -26 7l10 8l72 58q111 89 246 254z" />
    <glyph glyph-name="glyph265" horiz-adv-x="2661" 
d="M1954 1818l52 -87q-189 -63 -305 -256q28 281 253 343z" />
    <glyph glyph-name="glyph266" horiz-adv-x="2661" 
d="M1967 1684q46 0 46 -46q0 -26 -20.5 -47t-46.5 -21q-47 0 -47 46q0 27 20.5 47.5t47.5 20.5zM1759 1684q46 0 46 -46q0 -26 -20.5 -47t-46.5 -21q-47 0 -47 46q0 27 20.5 47.5t47.5 20.5z" />
    <glyph glyph-name="glyph267" horiz-adv-x="365" 
d="M522 1083q46 0 46 -46q0 -26 -20.5 -47t-46.5 -21q-47 0 -47 46q0 27 20.5 47.5t47.5 20.5zM341 1083q46 0 46 -46q0 -26 -20.5 -47t-46.5 -21q-47 0 -47 46q0 27 20.5 47.5t47.5 20.5z" />
    <glyph glyph-name="glyph268" horiz-adv-x="365" 
d="M418 855v-11q0 -94 -124 -372l-74 -168q-59 -135 -61 -165q-1 -31 34 -29q20 1 66 21l13 -29q-157 -75 -251 -107q5 94 30.5 173.5t110.5 263.5q108 236 110 276q2 31 -26 31q-13 0 -34 -7l-42 -15q-4 -1 -19 -7l-10 32l21 7q111 41 226 92z" />
    <glyph glyph-name="currency" unicode="&#xa4;" horiz-adv-x="819" 
d="M696 515l90 -106l-56 -47l-88 104q-92 -74 -172 -74q-74 0 -149 54l-106 -89l-48 58l107 89q-22 46 -22 96q0 111 98 215l-89 105l56 47l87 -103q110 82 215 82q67 0 126 -47l86 73l48 -57l-89 -75q21 -47 21 -91q0 -116 -115 -234zM572 880q-100 0 -176 -67.5
t-76 -156.5q0 -85 50 -136t135 -51q96 0 163 67t67 163q0 79 -45.5 130t-117.5 51z" />
  </font>
</defs>
</svg>
